G04 #@! TF.GenerationSoftware,KiCad,Pcbnew,(5.1.6)-1*
G04 #@! TF.CreationDate,2020-08-19T00:23:47+02:00*
G04 #@! TF.ProjectId,Project_GP8B,50726f6a-6563-4745-9f47-5038422e6b69,V5.0*
G04 #@! TF.SameCoordinates,PX3a2c940PY1e0a6e0*
G04 #@! TF.FileFunction,Soldermask,Top*
G04 #@! TF.FilePolarity,Negative*
%FSLAX46Y46*%
G04 Gerber Fmt 4.6, Leading zero omitted, Abs format (unit mm)*
G04 Created by KiCad (PCBNEW (5.1.6)-1) date 2020-08-19 00:23:47*
%MOMM*%
%LPD*%
G01*
G04 APERTURE LIST*
%ADD10C,2.400000*%
%ADD11C,3.900000*%
%ADD12C,2.150000*%
%ADD13R,2.000000X2.000000*%
%ADD14O,2.000000X2.000000*%
%ADD15R,1.460000X1.050000*%
%ADD16C,3.400000*%
%ADD17R,2.100000X2.100000*%
%ADD18O,2.100000X2.100000*%
%ADD19R,1.400000X1.400000*%
%ADD20O,1.400000X1.400000*%
G04 APERTURE END LIST*
D10*
X128400000Y-30810000D03*
X123540000Y-30810000D03*
X128400000Y-33350000D03*
X123540000Y-33350000D03*
X128400000Y-35890000D03*
X123540000Y-35890000D03*
X128400000Y-38430000D03*
X123540000Y-38430000D03*
X128400000Y-40970000D03*
X123540000Y-40970000D03*
X128400000Y-43510000D03*
X123540000Y-43510000D03*
X128400000Y-46050000D03*
X123540000Y-46050000D03*
X128400000Y-48590000D03*
X123540000Y-48590000D03*
X128400000Y-51130000D03*
X123540000Y-51130000D03*
X128400000Y-53670000D03*
X123540000Y-53670000D03*
X128400000Y-56210000D03*
X123540000Y-56210000D03*
X128400000Y-58750000D03*
X123540000Y-58750000D03*
X128400000Y-61290000D03*
X123540000Y-61290000D03*
X128400000Y-63830000D03*
X123540000Y-63830000D03*
X128400000Y-66360000D03*
X123540000Y-66370000D03*
D11*
X21820000Y-2920000D03*
X110720000Y-2920000D03*
D12*
X105640000Y-10540000D03*
X103100000Y-10540000D03*
X100560000Y-10540000D03*
X98020000Y-10540000D03*
X95480000Y-10540000D03*
X92940000Y-10540000D03*
X90400000Y-10540000D03*
X87860000Y-10540000D03*
X85320000Y-10540000D03*
X82780000Y-10540000D03*
X80240000Y-10540000D03*
X77700000Y-10540000D03*
X75160000Y-10540000D03*
X72620000Y-10540000D03*
X70080000Y-10540000D03*
X67540000Y-10540000D03*
X65000000Y-10540000D03*
X62460000Y-10540000D03*
X59920000Y-10540000D03*
X57380000Y-10540000D03*
X54840000Y-10540000D03*
X52300000Y-10540000D03*
X49760000Y-10540000D03*
X47220000Y-10540000D03*
X44680000Y-10540000D03*
X42140000Y-10540000D03*
X39600000Y-10540000D03*
X37060000Y-10540000D03*
X34520000Y-10540000D03*
X31980000Y-10540000D03*
X29440000Y-10540000D03*
X26900000Y-10540000D03*
X105640000Y-8000000D03*
X103100000Y-8000000D03*
X100560000Y-8000000D03*
X98020000Y-8000000D03*
X95480000Y-8000000D03*
X92940000Y-8000000D03*
X90400000Y-8000000D03*
X87860000Y-8000000D03*
X85320000Y-8000000D03*
X82780000Y-8000000D03*
X80240000Y-8000000D03*
X77700000Y-8000000D03*
X75160000Y-8000000D03*
X72620000Y-8000000D03*
X70080000Y-8000000D03*
X67540000Y-8000000D03*
X65000000Y-8000000D03*
X62460000Y-8000000D03*
X59920000Y-8000000D03*
X57380000Y-8000000D03*
X54840000Y-8000000D03*
X52300000Y-8000000D03*
X49760000Y-8000000D03*
X47220000Y-8000000D03*
X44680000Y-8000000D03*
X42140000Y-8000000D03*
X39600000Y-8000000D03*
X37060000Y-8000000D03*
X34520000Y-8000000D03*
X31980000Y-8000000D03*
X29440000Y-8000000D03*
X26900000Y-8000000D03*
X105640000Y-5460000D03*
X103100000Y-5460000D03*
X100560000Y-5460000D03*
X98020000Y-5460000D03*
X95480000Y-5460000D03*
X92940000Y-5460000D03*
X90400000Y-5460000D03*
X87860000Y-5460000D03*
X85320000Y-5460000D03*
X82780000Y-5460000D03*
X80240000Y-5460000D03*
X77700000Y-5460000D03*
X75160000Y-5460000D03*
X72620000Y-5460000D03*
X70080000Y-5460000D03*
X67540000Y-5460000D03*
X65000000Y-5460000D03*
X62460000Y-5460000D03*
X59920000Y-5460000D03*
X57380000Y-5460000D03*
X54840000Y-5460000D03*
X52300000Y-5460000D03*
X49760000Y-5460000D03*
X47220000Y-5460000D03*
X44680000Y-5460000D03*
X42140000Y-5460000D03*
X39600000Y-5460000D03*
X37060000Y-5460000D03*
X34520000Y-5460000D03*
X31980000Y-5460000D03*
X29440000Y-5460000D03*
X26900000Y-5460000D03*
G36*
G01*
X66125000Y-53443750D02*
X66125000Y-54556250D01*
G75*
G02*
X65781250Y-54900000I-343750J0D01*
G01*
X65093750Y-54900000D01*
G75*
G02*
X64750000Y-54556250I0J343750D01*
G01*
X64750000Y-53443750D01*
G75*
G02*
X65093750Y-53100000I343750J0D01*
G01*
X65781250Y-53100000D01*
G75*
G02*
X66125000Y-53443750I0J-343750D01*
G01*
G37*
G36*
G01*
X64250000Y-53443750D02*
X64250000Y-54556250D01*
G75*
G02*
X63906250Y-54900000I-343750J0D01*
G01*
X63218750Y-54900000D01*
G75*
G02*
X62875000Y-54556250I0J343750D01*
G01*
X62875000Y-53443750D01*
G75*
G02*
X63218750Y-53100000I343750J0D01*
G01*
X63906250Y-53100000D01*
G75*
G02*
X64250000Y-53443750I0J-343750D01*
G01*
G37*
G36*
G01*
X92250000Y-64556250D02*
X92250000Y-63443750D01*
G75*
G02*
X92593750Y-63100000I343750J0D01*
G01*
X93281250Y-63100000D01*
G75*
G02*
X93625000Y-63443750I0J-343750D01*
G01*
X93625000Y-64556250D01*
G75*
G02*
X93281250Y-64900000I-343750J0D01*
G01*
X92593750Y-64900000D01*
G75*
G02*
X92250000Y-64556250I0J343750D01*
G01*
G37*
G36*
G01*
X90375000Y-64556250D02*
X90375000Y-63443750D01*
G75*
G02*
X90718750Y-63100000I343750J0D01*
G01*
X91406250Y-63100000D01*
G75*
G02*
X91750000Y-63443750I0J-343750D01*
G01*
X91750000Y-64556250D01*
G75*
G02*
X91406250Y-64900000I-343750J0D01*
G01*
X90718750Y-64900000D01*
G75*
G02*
X90375000Y-64556250I0J343750D01*
G01*
G37*
G36*
G01*
X19125000Y-58193750D02*
X19125000Y-59306250D01*
G75*
G02*
X18781250Y-59650000I-343750J0D01*
G01*
X18093750Y-59650000D01*
G75*
G02*
X17750000Y-59306250I0J343750D01*
G01*
X17750000Y-58193750D01*
G75*
G02*
X18093750Y-57850000I343750J0D01*
G01*
X18781250Y-57850000D01*
G75*
G02*
X19125000Y-58193750I0J-343750D01*
G01*
G37*
G36*
G01*
X17250000Y-58193750D02*
X17250000Y-59306250D01*
G75*
G02*
X16906250Y-59650000I-343750J0D01*
G01*
X16218750Y-59650000D01*
G75*
G02*
X15875000Y-59306250I0J343750D01*
G01*
X15875000Y-58193750D01*
G75*
G02*
X16218750Y-57850000I343750J0D01*
G01*
X16906250Y-57850000D01*
G75*
G02*
X17250000Y-58193750I0J-343750D01*
G01*
G37*
G36*
G01*
X57250000Y-58193750D02*
X57250000Y-59306250D01*
G75*
G02*
X56906250Y-59650000I-343750J0D01*
G01*
X56218750Y-59650000D01*
G75*
G02*
X55875000Y-59306250I0J343750D01*
G01*
X55875000Y-58193750D01*
G75*
G02*
X56218750Y-57850000I343750J0D01*
G01*
X56906250Y-57850000D01*
G75*
G02*
X57250000Y-58193750I0J-343750D01*
G01*
G37*
G36*
G01*
X59125000Y-58193750D02*
X59125000Y-59306250D01*
G75*
G02*
X58781250Y-59650000I-343750J0D01*
G01*
X58093750Y-59650000D01*
G75*
G02*
X57750000Y-59306250I0J343750D01*
G01*
X57750000Y-58193750D01*
G75*
G02*
X58093750Y-57850000I343750J0D01*
G01*
X58781250Y-57850000D01*
G75*
G02*
X59125000Y-58193750I0J-343750D01*
G01*
G37*
G36*
G01*
X37250000Y-58193750D02*
X37250000Y-59306250D01*
G75*
G02*
X36906250Y-59650000I-343750J0D01*
G01*
X36218750Y-59650000D01*
G75*
G02*
X35875000Y-59306250I0J343750D01*
G01*
X35875000Y-58193750D01*
G75*
G02*
X36218750Y-57850000I343750J0D01*
G01*
X36906250Y-57850000D01*
G75*
G02*
X37250000Y-58193750I0J-343750D01*
G01*
G37*
G36*
G01*
X39125000Y-58193750D02*
X39125000Y-59306250D01*
G75*
G02*
X38781250Y-59650000I-343750J0D01*
G01*
X38093750Y-59650000D01*
G75*
G02*
X37750000Y-59306250I0J343750D01*
G01*
X37750000Y-58193750D01*
G75*
G02*
X38093750Y-57850000I343750J0D01*
G01*
X38781250Y-57850000D01*
G75*
G02*
X39125000Y-58193750I0J-343750D01*
G01*
G37*
G36*
G01*
X78556250Y-46125000D02*
X77443750Y-46125000D01*
G75*
G02*
X77100000Y-45781250I0J343750D01*
G01*
X77100000Y-45093750D01*
G75*
G02*
X77443750Y-44750000I343750J0D01*
G01*
X78556250Y-44750000D01*
G75*
G02*
X78900000Y-45093750I0J-343750D01*
G01*
X78900000Y-45781250D01*
G75*
G02*
X78556250Y-46125000I-343750J0D01*
G01*
G37*
G36*
G01*
X78556250Y-44250000D02*
X77443750Y-44250000D01*
G75*
G02*
X77100000Y-43906250I0J343750D01*
G01*
X77100000Y-43218750D01*
G75*
G02*
X77443750Y-42875000I343750J0D01*
G01*
X78556250Y-42875000D01*
G75*
G02*
X78900000Y-43218750I0J-343750D01*
G01*
X78900000Y-43906250D01*
G75*
G02*
X78556250Y-44250000I-343750J0D01*
G01*
G37*
G36*
G01*
X54375000Y-37056250D02*
X54375000Y-35943750D01*
G75*
G02*
X54718750Y-35600000I343750J0D01*
G01*
X55406250Y-35600000D01*
G75*
G02*
X55750000Y-35943750I0J-343750D01*
G01*
X55750000Y-37056250D01*
G75*
G02*
X55406250Y-37400000I-343750J0D01*
G01*
X54718750Y-37400000D01*
G75*
G02*
X54375000Y-37056250I0J343750D01*
G01*
G37*
G36*
G01*
X56250000Y-37056250D02*
X56250000Y-35943750D01*
G75*
G02*
X56593750Y-35600000I343750J0D01*
G01*
X57281250Y-35600000D01*
G75*
G02*
X57625000Y-35943750I0J-343750D01*
G01*
X57625000Y-37056250D01*
G75*
G02*
X57281250Y-37400000I-343750J0D01*
G01*
X56593750Y-37400000D01*
G75*
G02*
X56250000Y-37056250I0J343750D01*
G01*
G37*
G36*
G01*
X34375000Y-37056250D02*
X34375000Y-35943750D01*
G75*
G02*
X34718750Y-35600000I343750J0D01*
G01*
X35406250Y-35600000D01*
G75*
G02*
X35750000Y-35943750I0J-343750D01*
G01*
X35750000Y-37056250D01*
G75*
G02*
X35406250Y-37400000I-343750J0D01*
G01*
X34718750Y-37400000D01*
G75*
G02*
X34375000Y-37056250I0J343750D01*
G01*
G37*
G36*
G01*
X36250000Y-37056250D02*
X36250000Y-35943750D01*
G75*
G02*
X36593750Y-35600000I343750J0D01*
G01*
X37281250Y-35600000D01*
G75*
G02*
X37625000Y-35943750I0J-343750D01*
G01*
X37625000Y-37056250D01*
G75*
G02*
X37281250Y-37400000I-343750J0D01*
G01*
X36593750Y-37400000D01*
G75*
G02*
X36250000Y-37056250I0J343750D01*
G01*
G37*
G36*
G01*
X16250000Y-37056250D02*
X16250000Y-35943750D01*
G75*
G02*
X16593750Y-35600000I343750J0D01*
G01*
X17281250Y-35600000D01*
G75*
G02*
X17625000Y-35943750I0J-343750D01*
G01*
X17625000Y-37056250D01*
G75*
G02*
X17281250Y-37400000I-343750J0D01*
G01*
X16593750Y-37400000D01*
G75*
G02*
X16250000Y-37056250I0J343750D01*
G01*
G37*
G36*
G01*
X14375000Y-37056250D02*
X14375000Y-35943750D01*
G75*
G02*
X14718750Y-35600000I343750J0D01*
G01*
X15406250Y-35600000D01*
G75*
G02*
X15750000Y-35943750I0J-343750D01*
G01*
X15750000Y-37056250D01*
G75*
G02*
X15406250Y-37400000I-343750J0D01*
G01*
X14718750Y-37400000D01*
G75*
G02*
X14375000Y-37056250I0J343750D01*
G01*
G37*
G36*
G01*
X90375000Y-61556250D02*
X90375000Y-60443750D01*
G75*
G02*
X90718750Y-60100000I343750J0D01*
G01*
X91406250Y-60100000D01*
G75*
G02*
X91750000Y-60443750I0J-343750D01*
G01*
X91750000Y-61556250D01*
G75*
G02*
X91406250Y-61900000I-343750J0D01*
G01*
X90718750Y-61900000D01*
G75*
G02*
X90375000Y-61556250I0J343750D01*
G01*
G37*
G36*
G01*
X92250000Y-61556250D02*
X92250000Y-60443750D01*
G75*
G02*
X92593750Y-60100000I343750J0D01*
G01*
X93281250Y-60100000D01*
G75*
G02*
X93625000Y-60443750I0J-343750D01*
G01*
X93625000Y-61556250D01*
G75*
G02*
X93281250Y-61900000I-343750J0D01*
G01*
X92593750Y-61900000D01*
G75*
G02*
X92250000Y-61556250I0J343750D01*
G01*
G37*
G36*
G01*
X56250000Y-17056250D02*
X56250000Y-15943750D01*
G75*
G02*
X56593750Y-15600000I343750J0D01*
G01*
X57281250Y-15600000D01*
G75*
G02*
X57625000Y-15943750I0J-343750D01*
G01*
X57625000Y-17056250D01*
G75*
G02*
X57281250Y-17400000I-343750J0D01*
G01*
X56593750Y-17400000D01*
G75*
G02*
X56250000Y-17056250I0J343750D01*
G01*
G37*
G36*
G01*
X54375000Y-17056250D02*
X54375000Y-15943750D01*
G75*
G02*
X54718750Y-15600000I343750J0D01*
G01*
X55406250Y-15600000D01*
G75*
G02*
X55750000Y-15943750I0J-343750D01*
G01*
X55750000Y-17056250D01*
G75*
G02*
X55406250Y-17400000I-343750J0D01*
G01*
X54718750Y-17400000D01*
G75*
G02*
X54375000Y-17056250I0J343750D01*
G01*
G37*
G36*
G01*
X73556250Y-46125000D02*
X72443750Y-46125000D01*
G75*
G02*
X72100000Y-45781250I0J343750D01*
G01*
X72100000Y-45093750D01*
G75*
G02*
X72443750Y-44750000I343750J0D01*
G01*
X73556250Y-44750000D01*
G75*
G02*
X73900000Y-45093750I0J-343750D01*
G01*
X73900000Y-45781250D01*
G75*
G02*
X73556250Y-46125000I-343750J0D01*
G01*
G37*
G36*
G01*
X73556250Y-44250000D02*
X72443750Y-44250000D01*
G75*
G02*
X72100000Y-43906250I0J343750D01*
G01*
X72100000Y-43218750D01*
G75*
G02*
X72443750Y-42875000I343750J0D01*
G01*
X73556250Y-42875000D01*
G75*
G02*
X73900000Y-43218750I0J-343750D01*
G01*
X73900000Y-43906250D01*
G75*
G02*
X73556250Y-44250000I-343750J0D01*
G01*
G37*
G36*
G01*
X14375000Y-17056250D02*
X14375000Y-15943750D01*
G75*
G02*
X14718750Y-15600000I343750J0D01*
G01*
X15406250Y-15600000D01*
G75*
G02*
X15750000Y-15943750I0J-343750D01*
G01*
X15750000Y-17056250D01*
G75*
G02*
X15406250Y-17400000I-343750J0D01*
G01*
X14718750Y-17400000D01*
G75*
G02*
X14375000Y-17056250I0J343750D01*
G01*
G37*
G36*
G01*
X16250000Y-17056250D02*
X16250000Y-15943750D01*
G75*
G02*
X16593750Y-15600000I343750J0D01*
G01*
X17281250Y-15600000D01*
G75*
G02*
X17625000Y-15943750I0J-343750D01*
G01*
X17625000Y-17056250D01*
G75*
G02*
X17281250Y-17400000I-343750J0D01*
G01*
X16593750Y-17400000D01*
G75*
G02*
X16250000Y-17056250I0J343750D01*
G01*
G37*
G36*
G01*
X71443750Y-71750000D02*
X72556250Y-71750000D01*
G75*
G02*
X72900000Y-72093750I0J-343750D01*
G01*
X72900000Y-72781250D01*
G75*
G02*
X72556250Y-73125000I-343750J0D01*
G01*
X71443750Y-73125000D01*
G75*
G02*
X71100000Y-72781250I0J343750D01*
G01*
X71100000Y-72093750D01*
G75*
G02*
X71443750Y-71750000I343750J0D01*
G01*
G37*
G36*
G01*
X71443750Y-69875000D02*
X72556250Y-69875000D01*
G75*
G02*
X72900000Y-70218750I0J-343750D01*
G01*
X72900000Y-70906250D01*
G75*
G02*
X72556250Y-71250000I-343750J0D01*
G01*
X71443750Y-71250000D01*
G75*
G02*
X71100000Y-70906250I0J343750D01*
G01*
X71100000Y-70218750D01*
G75*
G02*
X71443750Y-69875000I343750J0D01*
G01*
G37*
G36*
G01*
X36250000Y-17056250D02*
X36250000Y-15943750D01*
G75*
G02*
X36593750Y-15600000I343750J0D01*
G01*
X37281250Y-15600000D01*
G75*
G02*
X37625000Y-15943750I0J-343750D01*
G01*
X37625000Y-17056250D01*
G75*
G02*
X37281250Y-17400000I-343750J0D01*
G01*
X36593750Y-17400000D01*
G75*
G02*
X36250000Y-17056250I0J343750D01*
G01*
G37*
G36*
G01*
X34375000Y-17056250D02*
X34375000Y-15943750D01*
G75*
G02*
X34718750Y-15600000I343750J0D01*
G01*
X35406250Y-15600000D01*
G75*
G02*
X35750000Y-15943750I0J-343750D01*
G01*
X35750000Y-17056250D01*
G75*
G02*
X35406250Y-17400000I-343750J0D01*
G01*
X34718750Y-17400000D01*
G75*
G02*
X34375000Y-17056250I0J343750D01*
G01*
G37*
G36*
G01*
X77443750Y-69875000D02*
X78556250Y-69875000D01*
G75*
G02*
X78900000Y-70218750I0J-343750D01*
G01*
X78900000Y-70906250D01*
G75*
G02*
X78556250Y-71250000I-343750J0D01*
G01*
X77443750Y-71250000D01*
G75*
G02*
X77100000Y-70906250I0J343750D01*
G01*
X77100000Y-70218750D01*
G75*
G02*
X77443750Y-69875000I343750J0D01*
G01*
G37*
G36*
G01*
X77443750Y-71750000D02*
X78556250Y-71750000D01*
G75*
G02*
X78900000Y-72093750I0J-343750D01*
G01*
X78900000Y-72781250D01*
G75*
G02*
X78556250Y-73125000I-343750J0D01*
G01*
X77443750Y-73125000D01*
G75*
G02*
X77100000Y-72781250I0J343750D01*
G01*
X77100000Y-72093750D01*
G75*
G02*
X77443750Y-71750000I343750J0D01*
G01*
G37*
G36*
G01*
X112806250Y-73125000D02*
X111693750Y-73125000D01*
G75*
G02*
X111350000Y-72781250I0J343750D01*
G01*
X111350000Y-72093750D01*
G75*
G02*
X111693750Y-71750000I343750J0D01*
G01*
X112806250Y-71750000D01*
G75*
G02*
X113150000Y-72093750I0J-343750D01*
G01*
X113150000Y-72781250D01*
G75*
G02*
X112806250Y-73125000I-343750J0D01*
G01*
G37*
G36*
G01*
X112806250Y-71250000D02*
X111693750Y-71250000D01*
G75*
G02*
X111350000Y-70906250I0J343750D01*
G01*
X111350000Y-70218750D01*
G75*
G02*
X111693750Y-69875000I343750J0D01*
G01*
X112806250Y-69875000D01*
G75*
G02*
X113150000Y-70218750I0J-343750D01*
G01*
X113150000Y-70906250D01*
G75*
G02*
X112806250Y-71250000I-343750J0D01*
G01*
G37*
G36*
G01*
X92693750Y-71750000D02*
X93806250Y-71750000D01*
G75*
G02*
X94150000Y-72093750I0J-343750D01*
G01*
X94150000Y-72781250D01*
G75*
G02*
X93806250Y-73125000I-343750J0D01*
G01*
X92693750Y-73125000D01*
G75*
G02*
X92350000Y-72781250I0J343750D01*
G01*
X92350000Y-72093750D01*
G75*
G02*
X92693750Y-71750000I343750J0D01*
G01*
G37*
G36*
G01*
X92693750Y-69875000D02*
X93806250Y-69875000D01*
G75*
G02*
X94150000Y-70218750I0J-343750D01*
G01*
X94150000Y-70906250D01*
G75*
G02*
X93806250Y-71250000I-343750J0D01*
G01*
X92693750Y-71250000D01*
G75*
G02*
X92350000Y-70906250I0J343750D01*
G01*
X92350000Y-70218750D01*
G75*
G02*
X92693750Y-69875000I343750J0D01*
G01*
G37*
G36*
G01*
X64250000Y-60943750D02*
X64250000Y-62056250D01*
G75*
G02*
X63906250Y-62400000I-343750J0D01*
G01*
X63218750Y-62400000D01*
G75*
G02*
X62875000Y-62056250I0J343750D01*
G01*
X62875000Y-60943750D01*
G75*
G02*
X63218750Y-60600000I343750J0D01*
G01*
X63906250Y-60600000D01*
G75*
G02*
X64250000Y-60943750I0J-343750D01*
G01*
G37*
G36*
G01*
X66125000Y-60943750D02*
X66125000Y-62056250D01*
G75*
G02*
X65781250Y-62400000I-343750J0D01*
G01*
X65093750Y-62400000D01*
G75*
G02*
X64750000Y-62056250I0J343750D01*
G01*
X64750000Y-60943750D01*
G75*
G02*
X65093750Y-60600000I343750J0D01*
G01*
X65781250Y-60600000D01*
G75*
G02*
X66125000Y-60943750I0J-343750D01*
G01*
G37*
G36*
G01*
X76500000Y-19193750D02*
X76500000Y-20306250D01*
G75*
G02*
X76156250Y-20650000I-343750J0D01*
G01*
X75468750Y-20650000D01*
G75*
G02*
X75125000Y-20306250I0J343750D01*
G01*
X75125000Y-19193750D01*
G75*
G02*
X75468750Y-18850000I343750J0D01*
G01*
X76156250Y-18850000D01*
G75*
G02*
X76500000Y-19193750I0J-343750D01*
G01*
G37*
G36*
G01*
X78375000Y-19193750D02*
X78375000Y-20306250D01*
G75*
G02*
X78031250Y-20650000I-343750J0D01*
G01*
X77343750Y-20650000D01*
G75*
G02*
X77000000Y-20306250I0J343750D01*
G01*
X77000000Y-19193750D01*
G75*
G02*
X77343750Y-18850000I343750J0D01*
G01*
X78031250Y-18850000D01*
G75*
G02*
X78375000Y-19193750I0J-343750D01*
G01*
G37*
G36*
G01*
X99750000Y-22193750D02*
X99750000Y-23306250D01*
G75*
G02*
X99406250Y-23650000I-343750J0D01*
G01*
X98718750Y-23650000D01*
G75*
G02*
X98375000Y-23306250I0J343750D01*
G01*
X98375000Y-22193750D01*
G75*
G02*
X98718750Y-21850000I343750J0D01*
G01*
X99406250Y-21850000D01*
G75*
G02*
X99750000Y-22193750I0J-343750D01*
G01*
G37*
G36*
G01*
X101625000Y-22193750D02*
X101625000Y-23306250D01*
G75*
G02*
X101281250Y-23650000I-343750J0D01*
G01*
X100593750Y-23650000D01*
G75*
G02*
X100250000Y-23306250I0J343750D01*
G01*
X100250000Y-22193750D01*
G75*
G02*
X100593750Y-21850000I343750J0D01*
G01*
X101281250Y-21850000D01*
G75*
G02*
X101625000Y-22193750I0J-343750D01*
G01*
G37*
G36*
G01*
X89625000Y-22193750D02*
X89625000Y-23306250D01*
G75*
G02*
X89281250Y-23650000I-343750J0D01*
G01*
X88593750Y-23650000D01*
G75*
G02*
X88250000Y-23306250I0J343750D01*
G01*
X88250000Y-22193750D01*
G75*
G02*
X88593750Y-21850000I343750J0D01*
G01*
X89281250Y-21850000D01*
G75*
G02*
X89625000Y-22193750I0J-343750D01*
G01*
G37*
G36*
G01*
X87750000Y-22193750D02*
X87750000Y-23306250D01*
G75*
G02*
X87406250Y-23650000I-343750J0D01*
G01*
X86718750Y-23650000D01*
G75*
G02*
X86375000Y-23306250I0J343750D01*
G01*
X86375000Y-22193750D01*
G75*
G02*
X86718750Y-21850000I343750J0D01*
G01*
X87406250Y-21850000D01*
G75*
G02*
X87750000Y-22193750I0J-343750D01*
G01*
G37*
G36*
G01*
X121505000Y-12575000D02*
X122995000Y-12575000D01*
G75*
G02*
X123325000Y-12905000I0J-330000D01*
G01*
X123325000Y-13895000D01*
G75*
G02*
X122995000Y-14225000I-330000J0D01*
G01*
X121505000Y-14225000D01*
G75*
G02*
X121175000Y-13895000I0J330000D01*
G01*
X121175000Y-12905000D01*
G75*
G02*
X121505000Y-12575000I330000J0D01*
G01*
G37*
G36*
G01*
X121505000Y-9775000D02*
X122995000Y-9775000D01*
G75*
G02*
X123325000Y-10105000I0J-330000D01*
G01*
X123325000Y-11095000D01*
G75*
G02*
X122995000Y-11425000I-330000J0D01*
G01*
X121505000Y-11425000D01*
G75*
G02*
X121175000Y-11095000I0J330000D01*
G01*
X121175000Y-10105000D01*
G75*
G02*
X121505000Y-9775000I330000J0D01*
G01*
G37*
G36*
G01*
X117255000Y-9775000D02*
X118745000Y-9775000D01*
G75*
G02*
X119075000Y-10105000I0J-330000D01*
G01*
X119075000Y-11095000D01*
G75*
G02*
X118745000Y-11425000I-330000J0D01*
G01*
X117255000Y-11425000D01*
G75*
G02*
X116925000Y-11095000I0J330000D01*
G01*
X116925000Y-10105000D01*
G75*
G02*
X117255000Y-9775000I330000J0D01*
G01*
G37*
G36*
G01*
X117255000Y-12575000D02*
X118745000Y-12575000D01*
G75*
G02*
X119075000Y-12905000I0J-330000D01*
G01*
X119075000Y-13895000D01*
G75*
G02*
X118745000Y-14225000I-330000J0D01*
G01*
X117255000Y-14225000D01*
G75*
G02*
X116925000Y-13895000I0J330000D01*
G01*
X116925000Y-12905000D01*
G75*
G02*
X117255000Y-12575000I330000J0D01*
G01*
G37*
G36*
G01*
X122806250Y-16000000D02*
X121693750Y-16000000D01*
G75*
G02*
X121350000Y-15656250I0J343750D01*
G01*
X121350000Y-14968750D01*
G75*
G02*
X121693750Y-14625000I343750J0D01*
G01*
X122806250Y-14625000D01*
G75*
G02*
X123150000Y-14968750I0J-343750D01*
G01*
X123150000Y-15656250D01*
G75*
G02*
X122806250Y-16000000I-343750J0D01*
G01*
G37*
G36*
G01*
X122806250Y-17875000D02*
X121693750Y-17875000D01*
G75*
G02*
X121350000Y-17531250I0J343750D01*
G01*
X121350000Y-16843750D01*
G75*
G02*
X121693750Y-16500000I343750J0D01*
G01*
X122806250Y-16500000D01*
G75*
G02*
X123150000Y-16843750I0J-343750D01*
G01*
X123150000Y-17531250D01*
G75*
G02*
X122806250Y-17875000I-343750J0D01*
G01*
G37*
G36*
G01*
X118556250Y-17875000D02*
X117443750Y-17875000D01*
G75*
G02*
X117100000Y-17531250I0J343750D01*
G01*
X117100000Y-16843750D01*
G75*
G02*
X117443750Y-16500000I343750J0D01*
G01*
X118556250Y-16500000D01*
G75*
G02*
X118900000Y-16843750I0J-343750D01*
G01*
X118900000Y-17531250D01*
G75*
G02*
X118556250Y-17875000I-343750J0D01*
G01*
G37*
G36*
G01*
X118556250Y-16000000D02*
X117443750Y-16000000D01*
G75*
G02*
X117100000Y-15656250I0J343750D01*
G01*
X117100000Y-14968750D01*
G75*
G02*
X117443750Y-14625000I343750J0D01*
G01*
X118556250Y-14625000D01*
G75*
G02*
X118900000Y-14968750I0J-343750D01*
G01*
X118900000Y-15656250D01*
G75*
G02*
X118556250Y-16000000I-343750J0D01*
G01*
G37*
D13*
X34500000Y-86500000D03*
D14*
X31960000Y-86500000D03*
X29420000Y-86500000D03*
X26880000Y-86500000D03*
X24340000Y-86500000D03*
X21800000Y-86500000D03*
X19260000Y-86500000D03*
X16720000Y-86500000D03*
X14180000Y-86500000D03*
X111500000Y-50820000D03*
X111500000Y-48280000D03*
X111500000Y-45740000D03*
X111500000Y-43200000D03*
X111500000Y-40660000D03*
X111500000Y-38120000D03*
X111500000Y-35580000D03*
X111500000Y-33040000D03*
D13*
X111500000Y-30500000D03*
G36*
G01*
X74425000Y-22035000D02*
X74425000Y-21535000D01*
G75*
G02*
X74675000Y-21285000I250000J0D01*
G01*
X76625000Y-21285000D01*
G75*
G02*
X76875000Y-21535000I0J-250000D01*
G01*
X76875000Y-22035000D01*
G75*
G02*
X76625000Y-22285000I-250000J0D01*
G01*
X74675000Y-22285000D01*
G75*
G02*
X74425000Y-22035000I0J250000D01*
G01*
G37*
G36*
G01*
X74425000Y-23305000D02*
X74425000Y-22805000D01*
G75*
G02*
X74675000Y-22555000I250000J0D01*
G01*
X76625000Y-22555000D01*
G75*
G02*
X76875000Y-22805000I0J-250000D01*
G01*
X76875000Y-23305000D01*
G75*
G02*
X76625000Y-23555000I-250000J0D01*
G01*
X74675000Y-23555000D01*
G75*
G02*
X74425000Y-23305000I0J250000D01*
G01*
G37*
G36*
G01*
X74425000Y-24575000D02*
X74425000Y-24075000D01*
G75*
G02*
X74675000Y-23825000I250000J0D01*
G01*
X76625000Y-23825000D01*
G75*
G02*
X76875000Y-24075000I0J-250000D01*
G01*
X76875000Y-24575000D01*
G75*
G02*
X76625000Y-24825000I-250000J0D01*
G01*
X74675000Y-24825000D01*
G75*
G02*
X74425000Y-24575000I0J250000D01*
G01*
G37*
G36*
G01*
X74425000Y-25845000D02*
X74425000Y-25345000D01*
G75*
G02*
X74675000Y-25095000I250000J0D01*
G01*
X76625000Y-25095000D01*
G75*
G02*
X76875000Y-25345000I0J-250000D01*
G01*
X76875000Y-25845000D01*
G75*
G02*
X76625000Y-26095000I-250000J0D01*
G01*
X74675000Y-26095000D01*
G75*
G02*
X74425000Y-25845000I0J250000D01*
G01*
G37*
G36*
G01*
X74425000Y-27115000D02*
X74425000Y-26615000D01*
G75*
G02*
X74675000Y-26365000I250000J0D01*
G01*
X76625000Y-26365000D01*
G75*
G02*
X76875000Y-26615000I0J-250000D01*
G01*
X76875000Y-27115000D01*
G75*
G02*
X76625000Y-27365000I-250000J0D01*
G01*
X74675000Y-27365000D01*
G75*
G02*
X74425000Y-27115000I0J250000D01*
G01*
G37*
G36*
G01*
X74425000Y-28385000D02*
X74425000Y-27885000D01*
G75*
G02*
X74675000Y-27635000I250000J0D01*
G01*
X76625000Y-27635000D01*
G75*
G02*
X76875000Y-27885000I0J-250000D01*
G01*
X76875000Y-28385000D01*
G75*
G02*
X76625000Y-28635000I-250000J0D01*
G01*
X74675000Y-28635000D01*
G75*
G02*
X74425000Y-28385000I0J250000D01*
G01*
G37*
G36*
G01*
X74425000Y-29655000D02*
X74425000Y-29155000D01*
G75*
G02*
X74675000Y-28905000I250000J0D01*
G01*
X76625000Y-28905000D01*
G75*
G02*
X76875000Y-29155000I0J-250000D01*
G01*
X76875000Y-29655000D01*
G75*
G02*
X76625000Y-29905000I-250000J0D01*
G01*
X74675000Y-29905000D01*
G75*
G02*
X74425000Y-29655000I0J250000D01*
G01*
G37*
G36*
G01*
X74425000Y-30925000D02*
X74425000Y-30425000D01*
G75*
G02*
X74675000Y-30175000I250000J0D01*
G01*
X76625000Y-30175000D01*
G75*
G02*
X76875000Y-30425000I0J-250000D01*
G01*
X76875000Y-30925000D01*
G75*
G02*
X76625000Y-31175000I-250000J0D01*
G01*
X74675000Y-31175000D01*
G75*
G02*
X74425000Y-30925000I0J250000D01*
G01*
G37*
G36*
G01*
X74425000Y-32195000D02*
X74425000Y-31695000D01*
G75*
G02*
X74675000Y-31445000I250000J0D01*
G01*
X76625000Y-31445000D01*
G75*
G02*
X76875000Y-31695000I0J-250000D01*
G01*
X76875000Y-32195000D01*
G75*
G02*
X76625000Y-32445000I-250000J0D01*
G01*
X74675000Y-32445000D01*
G75*
G02*
X74425000Y-32195000I0J250000D01*
G01*
G37*
G36*
G01*
X74425000Y-33465000D02*
X74425000Y-32965000D01*
G75*
G02*
X74675000Y-32715000I250000J0D01*
G01*
X76625000Y-32715000D01*
G75*
G02*
X76875000Y-32965000I0J-250000D01*
G01*
X76875000Y-33465000D01*
G75*
G02*
X76625000Y-33715000I-250000J0D01*
G01*
X74675000Y-33715000D01*
G75*
G02*
X74425000Y-33465000I0J250000D01*
G01*
G37*
G36*
G01*
X65125000Y-33465000D02*
X65125000Y-32965000D01*
G75*
G02*
X65375000Y-32715000I250000J0D01*
G01*
X67325000Y-32715000D01*
G75*
G02*
X67575000Y-32965000I0J-250000D01*
G01*
X67575000Y-33465000D01*
G75*
G02*
X67325000Y-33715000I-250000J0D01*
G01*
X65375000Y-33715000D01*
G75*
G02*
X65125000Y-33465000I0J250000D01*
G01*
G37*
G36*
G01*
X65125000Y-32195000D02*
X65125000Y-31695000D01*
G75*
G02*
X65375000Y-31445000I250000J0D01*
G01*
X67325000Y-31445000D01*
G75*
G02*
X67575000Y-31695000I0J-250000D01*
G01*
X67575000Y-32195000D01*
G75*
G02*
X67325000Y-32445000I-250000J0D01*
G01*
X65375000Y-32445000D01*
G75*
G02*
X65125000Y-32195000I0J250000D01*
G01*
G37*
G36*
G01*
X65125000Y-30925000D02*
X65125000Y-30425000D01*
G75*
G02*
X65375000Y-30175000I250000J0D01*
G01*
X67325000Y-30175000D01*
G75*
G02*
X67575000Y-30425000I0J-250000D01*
G01*
X67575000Y-30925000D01*
G75*
G02*
X67325000Y-31175000I-250000J0D01*
G01*
X65375000Y-31175000D01*
G75*
G02*
X65125000Y-30925000I0J250000D01*
G01*
G37*
G36*
G01*
X65125000Y-29655000D02*
X65125000Y-29155000D01*
G75*
G02*
X65375000Y-28905000I250000J0D01*
G01*
X67325000Y-28905000D01*
G75*
G02*
X67575000Y-29155000I0J-250000D01*
G01*
X67575000Y-29655000D01*
G75*
G02*
X67325000Y-29905000I-250000J0D01*
G01*
X65375000Y-29905000D01*
G75*
G02*
X65125000Y-29655000I0J250000D01*
G01*
G37*
G36*
G01*
X65125000Y-28385000D02*
X65125000Y-27885000D01*
G75*
G02*
X65375000Y-27635000I250000J0D01*
G01*
X67325000Y-27635000D01*
G75*
G02*
X67575000Y-27885000I0J-250000D01*
G01*
X67575000Y-28385000D01*
G75*
G02*
X67325000Y-28635000I-250000J0D01*
G01*
X65375000Y-28635000D01*
G75*
G02*
X65125000Y-28385000I0J250000D01*
G01*
G37*
G36*
G01*
X65125000Y-27115000D02*
X65125000Y-26615000D01*
G75*
G02*
X65375000Y-26365000I250000J0D01*
G01*
X67325000Y-26365000D01*
G75*
G02*
X67575000Y-26615000I0J-250000D01*
G01*
X67575000Y-27115000D01*
G75*
G02*
X67325000Y-27365000I-250000J0D01*
G01*
X65375000Y-27365000D01*
G75*
G02*
X65125000Y-27115000I0J250000D01*
G01*
G37*
G36*
G01*
X65125000Y-25845000D02*
X65125000Y-25345000D01*
G75*
G02*
X65375000Y-25095000I250000J0D01*
G01*
X67325000Y-25095000D01*
G75*
G02*
X67575000Y-25345000I0J-250000D01*
G01*
X67575000Y-25845000D01*
G75*
G02*
X67325000Y-26095000I-250000J0D01*
G01*
X65375000Y-26095000D01*
G75*
G02*
X65125000Y-25845000I0J250000D01*
G01*
G37*
G36*
G01*
X65125000Y-24575000D02*
X65125000Y-24075000D01*
G75*
G02*
X65375000Y-23825000I250000J0D01*
G01*
X67325000Y-23825000D01*
G75*
G02*
X67575000Y-24075000I0J-250000D01*
G01*
X67575000Y-24575000D01*
G75*
G02*
X67325000Y-24825000I-250000J0D01*
G01*
X65375000Y-24825000D01*
G75*
G02*
X65125000Y-24575000I0J250000D01*
G01*
G37*
G36*
G01*
X65125000Y-23305000D02*
X65125000Y-22805000D01*
G75*
G02*
X65375000Y-22555000I250000J0D01*
G01*
X67325000Y-22555000D01*
G75*
G02*
X67575000Y-22805000I0J-250000D01*
G01*
X67575000Y-23305000D01*
G75*
G02*
X67325000Y-23555000I-250000J0D01*
G01*
X65375000Y-23555000D01*
G75*
G02*
X65125000Y-23305000I0J250000D01*
G01*
G37*
G36*
G01*
X65125000Y-22035000D02*
X65125000Y-21535000D01*
G75*
G02*
X65375000Y-21285000I250000J0D01*
G01*
X67325000Y-21285000D01*
G75*
G02*
X67575000Y-21535000I0J-250000D01*
G01*
X67575000Y-22035000D01*
G75*
G02*
X67325000Y-22285000I-250000J0D01*
G01*
X65375000Y-22285000D01*
G75*
G02*
X65125000Y-22035000I0J250000D01*
G01*
G37*
G36*
G01*
X92850000Y-24805000D02*
X92850000Y-24305000D01*
G75*
G02*
X93100000Y-24055000I250000J0D01*
G01*
X94950000Y-24055000D01*
G75*
G02*
X95200000Y-24305000I0J-250000D01*
G01*
X95200000Y-24805000D01*
G75*
G02*
X94950000Y-25055000I-250000J0D01*
G01*
X93100000Y-25055000D01*
G75*
G02*
X92850000Y-24805000I0J250000D01*
G01*
G37*
G36*
G01*
X92850000Y-26075000D02*
X92850000Y-25575000D01*
G75*
G02*
X93100000Y-25325000I250000J0D01*
G01*
X94950000Y-25325000D01*
G75*
G02*
X95200000Y-25575000I0J-250000D01*
G01*
X95200000Y-26075000D01*
G75*
G02*
X94950000Y-26325000I-250000J0D01*
G01*
X93100000Y-26325000D01*
G75*
G02*
X92850000Y-26075000I0J250000D01*
G01*
G37*
G36*
G01*
X92850000Y-27345000D02*
X92850000Y-26845000D01*
G75*
G02*
X93100000Y-26595000I250000J0D01*
G01*
X94950000Y-26595000D01*
G75*
G02*
X95200000Y-26845000I0J-250000D01*
G01*
X95200000Y-27345000D01*
G75*
G02*
X94950000Y-27595000I-250000J0D01*
G01*
X93100000Y-27595000D01*
G75*
G02*
X92850000Y-27345000I0J250000D01*
G01*
G37*
G36*
G01*
X92850000Y-28615000D02*
X92850000Y-28115000D01*
G75*
G02*
X93100000Y-27865000I250000J0D01*
G01*
X94950000Y-27865000D01*
G75*
G02*
X95200000Y-28115000I0J-250000D01*
G01*
X95200000Y-28615000D01*
G75*
G02*
X94950000Y-28865000I-250000J0D01*
G01*
X93100000Y-28865000D01*
G75*
G02*
X92850000Y-28615000I0J250000D01*
G01*
G37*
G36*
G01*
X92850000Y-29885000D02*
X92850000Y-29385000D01*
G75*
G02*
X93100000Y-29135000I250000J0D01*
G01*
X94950000Y-29135000D01*
G75*
G02*
X95200000Y-29385000I0J-250000D01*
G01*
X95200000Y-29885000D01*
G75*
G02*
X94950000Y-30135000I-250000J0D01*
G01*
X93100000Y-30135000D01*
G75*
G02*
X92850000Y-29885000I0J250000D01*
G01*
G37*
G36*
G01*
X92850000Y-31155000D02*
X92850000Y-30655000D01*
G75*
G02*
X93100000Y-30405000I250000J0D01*
G01*
X94950000Y-30405000D01*
G75*
G02*
X95200000Y-30655000I0J-250000D01*
G01*
X95200000Y-31155000D01*
G75*
G02*
X94950000Y-31405000I-250000J0D01*
G01*
X93100000Y-31405000D01*
G75*
G02*
X92850000Y-31155000I0J250000D01*
G01*
G37*
G36*
G01*
X92850000Y-32425000D02*
X92850000Y-31925000D01*
G75*
G02*
X93100000Y-31675000I250000J0D01*
G01*
X94950000Y-31675000D01*
G75*
G02*
X95200000Y-31925000I0J-250000D01*
G01*
X95200000Y-32425000D01*
G75*
G02*
X94950000Y-32675000I-250000J0D01*
G01*
X93100000Y-32675000D01*
G75*
G02*
X92850000Y-32425000I0J250000D01*
G01*
G37*
G36*
G01*
X92850000Y-33695000D02*
X92850000Y-33195000D01*
G75*
G02*
X93100000Y-32945000I250000J0D01*
G01*
X94950000Y-32945000D01*
G75*
G02*
X95200000Y-33195000I0J-250000D01*
G01*
X95200000Y-33695000D01*
G75*
G02*
X94950000Y-33945000I-250000J0D01*
G01*
X93100000Y-33945000D01*
G75*
G02*
X92850000Y-33695000I0J250000D01*
G01*
G37*
G36*
G01*
X97800000Y-33695000D02*
X97800000Y-33195000D01*
G75*
G02*
X98050000Y-32945000I250000J0D01*
G01*
X99900000Y-32945000D01*
G75*
G02*
X100150000Y-33195000I0J-250000D01*
G01*
X100150000Y-33695000D01*
G75*
G02*
X99900000Y-33945000I-250000J0D01*
G01*
X98050000Y-33945000D01*
G75*
G02*
X97800000Y-33695000I0J250000D01*
G01*
G37*
G36*
G01*
X97800000Y-32425000D02*
X97800000Y-31925000D01*
G75*
G02*
X98050000Y-31675000I250000J0D01*
G01*
X99900000Y-31675000D01*
G75*
G02*
X100150000Y-31925000I0J-250000D01*
G01*
X100150000Y-32425000D01*
G75*
G02*
X99900000Y-32675000I-250000J0D01*
G01*
X98050000Y-32675000D01*
G75*
G02*
X97800000Y-32425000I0J250000D01*
G01*
G37*
G36*
G01*
X97800000Y-31155000D02*
X97800000Y-30655000D01*
G75*
G02*
X98050000Y-30405000I250000J0D01*
G01*
X99900000Y-30405000D01*
G75*
G02*
X100150000Y-30655000I0J-250000D01*
G01*
X100150000Y-31155000D01*
G75*
G02*
X99900000Y-31405000I-250000J0D01*
G01*
X98050000Y-31405000D01*
G75*
G02*
X97800000Y-31155000I0J250000D01*
G01*
G37*
G36*
G01*
X97800000Y-29885000D02*
X97800000Y-29385000D01*
G75*
G02*
X98050000Y-29135000I250000J0D01*
G01*
X99900000Y-29135000D01*
G75*
G02*
X100150000Y-29385000I0J-250000D01*
G01*
X100150000Y-29885000D01*
G75*
G02*
X99900000Y-30135000I-250000J0D01*
G01*
X98050000Y-30135000D01*
G75*
G02*
X97800000Y-29885000I0J250000D01*
G01*
G37*
G36*
G01*
X97800000Y-28615000D02*
X97800000Y-28115000D01*
G75*
G02*
X98050000Y-27865000I250000J0D01*
G01*
X99900000Y-27865000D01*
G75*
G02*
X100150000Y-28115000I0J-250000D01*
G01*
X100150000Y-28615000D01*
G75*
G02*
X99900000Y-28865000I-250000J0D01*
G01*
X98050000Y-28865000D01*
G75*
G02*
X97800000Y-28615000I0J250000D01*
G01*
G37*
G36*
G01*
X97800000Y-27345000D02*
X97800000Y-26845000D01*
G75*
G02*
X98050000Y-26595000I250000J0D01*
G01*
X99900000Y-26595000D01*
G75*
G02*
X100150000Y-26845000I0J-250000D01*
G01*
X100150000Y-27345000D01*
G75*
G02*
X99900000Y-27595000I-250000J0D01*
G01*
X98050000Y-27595000D01*
G75*
G02*
X97800000Y-27345000I0J250000D01*
G01*
G37*
G36*
G01*
X97800000Y-26075000D02*
X97800000Y-25575000D01*
G75*
G02*
X98050000Y-25325000I250000J0D01*
G01*
X99900000Y-25325000D01*
G75*
G02*
X100150000Y-25575000I0J-250000D01*
G01*
X100150000Y-26075000D01*
G75*
G02*
X99900000Y-26325000I-250000J0D01*
G01*
X98050000Y-26325000D01*
G75*
G02*
X97800000Y-26075000I0J250000D01*
G01*
G37*
G36*
G01*
X97800000Y-24805000D02*
X97800000Y-24305000D01*
G75*
G02*
X98050000Y-24055000I250000J0D01*
G01*
X99900000Y-24055000D01*
G75*
G02*
X100150000Y-24305000I0J-250000D01*
G01*
X100150000Y-24805000D01*
G75*
G02*
X99900000Y-25055000I-250000J0D01*
G01*
X98050000Y-25055000D01*
G75*
G02*
X97800000Y-24805000I0J250000D01*
G01*
G37*
G36*
G01*
X26125000Y-39035000D02*
X26125000Y-38535000D01*
G75*
G02*
X26375000Y-38285000I250000J0D01*
G01*
X28325000Y-38285000D01*
G75*
G02*
X28575000Y-38535000I0J-250000D01*
G01*
X28575000Y-39035000D01*
G75*
G02*
X28325000Y-39285000I-250000J0D01*
G01*
X26375000Y-39285000D01*
G75*
G02*
X26125000Y-39035000I0J250000D01*
G01*
G37*
G36*
G01*
X26125000Y-40305000D02*
X26125000Y-39805000D01*
G75*
G02*
X26375000Y-39555000I250000J0D01*
G01*
X28325000Y-39555000D01*
G75*
G02*
X28575000Y-39805000I0J-250000D01*
G01*
X28575000Y-40305000D01*
G75*
G02*
X28325000Y-40555000I-250000J0D01*
G01*
X26375000Y-40555000D01*
G75*
G02*
X26125000Y-40305000I0J250000D01*
G01*
G37*
G36*
G01*
X26125000Y-41575000D02*
X26125000Y-41075000D01*
G75*
G02*
X26375000Y-40825000I250000J0D01*
G01*
X28325000Y-40825000D01*
G75*
G02*
X28575000Y-41075000I0J-250000D01*
G01*
X28575000Y-41575000D01*
G75*
G02*
X28325000Y-41825000I-250000J0D01*
G01*
X26375000Y-41825000D01*
G75*
G02*
X26125000Y-41575000I0J250000D01*
G01*
G37*
G36*
G01*
X26125000Y-42845000D02*
X26125000Y-42345000D01*
G75*
G02*
X26375000Y-42095000I250000J0D01*
G01*
X28325000Y-42095000D01*
G75*
G02*
X28575000Y-42345000I0J-250000D01*
G01*
X28575000Y-42845000D01*
G75*
G02*
X28325000Y-43095000I-250000J0D01*
G01*
X26375000Y-43095000D01*
G75*
G02*
X26125000Y-42845000I0J250000D01*
G01*
G37*
G36*
G01*
X26125000Y-44115000D02*
X26125000Y-43615000D01*
G75*
G02*
X26375000Y-43365000I250000J0D01*
G01*
X28325000Y-43365000D01*
G75*
G02*
X28575000Y-43615000I0J-250000D01*
G01*
X28575000Y-44115000D01*
G75*
G02*
X28325000Y-44365000I-250000J0D01*
G01*
X26375000Y-44365000D01*
G75*
G02*
X26125000Y-44115000I0J250000D01*
G01*
G37*
G36*
G01*
X26125000Y-45385000D02*
X26125000Y-44885000D01*
G75*
G02*
X26375000Y-44635000I250000J0D01*
G01*
X28325000Y-44635000D01*
G75*
G02*
X28575000Y-44885000I0J-250000D01*
G01*
X28575000Y-45385000D01*
G75*
G02*
X28325000Y-45635000I-250000J0D01*
G01*
X26375000Y-45635000D01*
G75*
G02*
X26125000Y-45385000I0J250000D01*
G01*
G37*
G36*
G01*
X26125000Y-46655000D02*
X26125000Y-46155000D01*
G75*
G02*
X26375000Y-45905000I250000J0D01*
G01*
X28325000Y-45905000D01*
G75*
G02*
X28575000Y-46155000I0J-250000D01*
G01*
X28575000Y-46655000D01*
G75*
G02*
X28325000Y-46905000I-250000J0D01*
G01*
X26375000Y-46905000D01*
G75*
G02*
X26125000Y-46655000I0J250000D01*
G01*
G37*
G36*
G01*
X26125000Y-47925000D02*
X26125000Y-47425000D01*
G75*
G02*
X26375000Y-47175000I250000J0D01*
G01*
X28325000Y-47175000D01*
G75*
G02*
X28575000Y-47425000I0J-250000D01*
G01*
X28575000Y-47925000D01*
G75*
G02*
X28325000Y-48175000I-250000J0D01*
G01*
X26375000Y-48175000D01*
G75*
G02*
X26125000Y-47925000I0J250000D01*
G01*
G37*
G36*
G01*
X26125000Y-49195000D02*
X26125000Y-48695000D01*
G75*
G02*
X26375000Y-48445000I250000J0D01*
G01*
X28325000Y-48445000D01*
G75*
G02*
X28575000Y-48695000I0J-250000D01*
G01*
X28575000Y-49195000D01*
G75*
G02*
X28325000Y-49445000I-250000J0D01*
G01*
X26375000Y-49445000D01*
G75*
G02*
X26125000Y-49195000I0J250000D01*
G01*
G37*
G36*
G01*
X26125000Y-50465000D02*
X26125000Y-49965000D01*
G75*
G02*
X26375000Y-49715000I250000J0D01*
G01*
X28325000Y-49715000D01*
G75*
G02*
X28575000Y-49965000I0J-250000D01*
G01*
X28575000Y-50465000D01*
G75*
G02*
X28325000Y-50715000I-250000J0D01*
G01*
X26375000Y-50715000D01*
G75*
G02*
X26125000Y-50465000I0J250000D01*
G01*
G37*
G36*
G01*
X35425000Y-50465000D02*
X35425000Y-49965000D01*
G75*
G02*
X35675000Y-49715000I250000J0D01*
G01*
X37625000Y-49715000D01*
G75*
G02*
X37875000Y-49965000I0J-250000D01*
G01*
X37875000Y-50465000D01*
G75*
G02*
X37625000Y-50715000I-250000J0D01*
G01*
X35675000Y-50715000D01*
G75*
G02*
X35425000Y-50465000I0J250000D01*
G01*
G37*
G36*
G01*
X35425000Y-49195000D02*
X35425000Y-48695000D01*
G75*
G02*
X35675000Y-48445000I250000J0D01*
G01*
X37625000Y-48445000D01*
G75*
G02*
X37875000Y-48695000I0J-250000D01*
G01*
X37875000Y-49195000D01*
G75*
G02*
X37625000Y-49445000I-250000J0D01*
G01*
X35675000Y-49445000D01*
G75*
G02*
X35425000Y-49195000I0J250000D01*
G01*
G37*
G36*
G01*
X35425000Y-47925000D02*
X35425000Y-47425000D01*
G75*
G02*
X35675000Y-47175000I250000J0D01*
G01*
X37625000Y-47175000D01*
G75*
G02*
X37875000Y-47425000I0J-250000D01*
G01*
X37875000Y-47925000D01*
G75*
G02*
X37625000Y-48175000I-250000J0D01*
G01*
X35675000Y-48175000D01*
G75*
G02*
X35425000Y-47925000I0J250000D01*
G01*
G37*
G36*
G01*
X35425000Y-46655000D02*
X35425000Y-46155000D01*
G75*
G02*
X35675000Y-45905000I250000J0D01*
G01*
X37625000Y-45905000D01*
G75*
G02*
X37875000Y-46155000I0J-250000D01*
G01*
X37875000Y-46655000D01*
G75*
G02*
X37625000Y-46905000I-250000J0D01*
G01*
X35675000Y-46905000D01*
G75*
G02*
X35425000Y-46655000I0J250000D01*
G01*
G37*
G36*
G01*
X35425000Y-45385000D02*
X35425000Y-44885000D01*
G75*
G02*
X35675000Y-44635000I250000J0D01*
G01*
X37625000Y-44635000D01*
G75*
G02*
X37875000Y-44885000I0J-250000D01*
G01*
X37875000Y-45385000D01*
G75*
G02*
X37625000Y-45635000I-250000J0D01*
G01*
X35675000Y-45635000D01*
G75*
G02*
X35425000Y-45385000I0J250000D01*
G01*
G37*
G36*
G01*
X35425000Y-44115000D02*
X35425000Y-43615000D01*
G75*
G02*
X35675000Y-43365000I250000J0D01*
G01*
X37625000Y-43365000D01*
G75*
G02*
X37875000Y-43615000I0J-250000D01*
G01*
X37875000Y-44115000D01*
G75*
G02*
X37625000Y-44365000I-250000J0D01*
G01*
X35675000Y-44365000D01*
G75*
G02*
X35425000Y-44115000I0J250000D01*
G01*
G37*
G36*
G01*
X35425000Y-42845000D02*
X35425000Y-42345000D01*
G75*
G02*
X35675000Y-42095000I250000J0D01*
G01*
X37625000Y-42095000D01*
G75*
G02*
X37875000Y-42345000I0J-250000D01*
G01*
X37875000Y-42845000D01*
G75*
G02*
X37625000Y-43095000I-250000J0D01*
G01*
X35675000Y-43095000D01*
G75*
G02*
X35425000Y-42845000I0J250000D01*
G01*
G37*
G36*
G01*
X35425000Y-41575000D02*
X35425000Y-41075000D01*
G75*
G02*
X35675000Y-40825000I250000J0D01*
G01*
X37625000Y-40825000D01*
G75*
G02*
X37875000Y-41075000I0J-250000D01*
G01*
X37875000Y-41575000D01*
G75*
G02*
X37625000Y-41825000I-250000J0D01*
G01*
X35675000Y-41825000D01*
G75*
G02*
X35425000Y-41575000I0J250000D01*
G01*
G37*
G36*
G01*
X35425000Y-40305000D02*
X35425000Y-39805000D01*
G75*
G02*
X35675000Y-39555000I250000J0D01*
G01*
X37625000Y-39555000D01*
G75*
G02*
X37875000Y-39805000I0J-250000D01*
G01*
X37875000Y-40305000D01*
G75*
G02*
X37625000Y-40555000I-250000J0D01*
G01*
X35675000Y-40555000D01*
G75*
G02*
X35425000Y-40305000I0J250000D01*
G01*
G37*
G36*
G01*
X35425000Y-39035000D02*
X35425000Y-38535000D01*
G75*
G02*
X35675000Y-38285000I250000J0D01*
G01*
X37625000Y-38285000D01*
G75*
G02*
X37875000Y-38535000I0J-250000D01*
G01*
X37875000Y-39035000D01*
G75*
G02*
X37625000Y-39285000I-250000J0D01*
G01*
X35675000Y-39285000D01*
G75*
G02*
X35425000Y-39035000I0J250000D01*
G01*
G37*
G36*
G01*
X85800000Y-24805000D02*
X85800000Y-24305000D01*
G75*
G02*
X86050000Y-24055000I250000J0D01*
G01*
X87900000Y-24055000D01*
G75*
G02*
X88150000Y-24305000I0J-250000D01*
G01*
X88150000Y-24805000D01*
G75*
G02*
X87900000Y-25055000I-250000J0D01*
G01*
X86050000Y-25055000D01*
G75*
G02*
X85800000Y-24805000I0J250000D01*
G01*
G37*
G36*
G01*
X85800000Y-26075000D02*
X85800000Y-25575000D01*
G75*
G02*
X86050000Y-25325000I250000J0D01*
G01*
X87900000Y-25325000D01*
G75*
G02*
X88150000Y-25575000I0J-250000D01*
G01*
X88150000Y-26075000D01*
G75*
G02*
X87900000Y-26325000I-250000J0D01*
G01*
X86050000Y-26325000D01*
G75*
G02*
X85800000Y-26075000I0J250000D01*
G01*
G37*
G36*
G01*
X85800000Y-27345000D02*
X85800000Y-26845000D01*
G75*
G02*
X86050000Y-26595000I250000J0D01*
G01*
X87900000Y-26595000D01*
G75*
G02*
X88150000Y-26845000I0J-250000D01*
G01*
X88150000Y-27345000D01*
G75*
G02*
X87900000Y-27595000I-250000J0D01*
G01*
X86050000Y-27595000D01*
G75*
G02*
X85800000Y-27345000I0J250000D01*
G01*
G37*
G36*
G01*
X85800000Y-28615000D02*
X85800000Y-28115000D01*
G75*
G02*
X86050000Y-27865000I250000J0D01*
G01*
X87900000Y-27865000D01*
G75*
G02*
X88150000Y-28115000I0J-250000D01*
G01*
X88150000Y-28615000D01*
G75*
G02*
X87900000Y-28865000I-250000J0D01*
G01*
X86050000Y-28865000D01*
G75*
G02*
X85800000Y-28615000I0J250000D01*
G01*
G37*
G36*
G01*
X85800000Y-29885000D02*
X85800000Y-29385000D01*
G75*
G02*
X86050000Y-29135000I250000J0D01*
G01*
X87900000Y-29135000D01*
G75*
G02*
X88150000Y-29385000I0J-250000D01*
G01*
X88150000Y-29885000D01*
G75*
G02*
X87900000Y-30135000I-250000J0D01*
G01*
X86050000Y-30135000D01*
G75*
G02*
X85800000Y-29885000I0J250000D01*
G01*
G37*
G36*
G01*
X85800000Y-31155000D02*
X85800000Y-30655000D01*
G75*
G02*
X86050000Y-30405000I250000J0D01*
G01*
X87900000Y-30405000D01*
G75*
G02*
X88150000Y-30655000I0J-250000D01*
G01*
X88150000Y-31155000D01*
G75*
G02*
X87900000Y-31405000I-250000J0D01*
G01*
X86050000Y-31405000D01*
G75*
G02*
X85800000Y-31155000I0J250000D01*
G01*
G37*
G36*
G01*
X85800000Y-32425000D02*
X85800000Y-31925000D01*
G75*
G02*
X86050000Y-31675000I250000J0D01*
G01*
X87900000Y-31675000D01*
G75*
G02*
X88150000Y-31925000I0J-250000D01*
G01*
X88150000Y-32425000D01*
G75*
G02*
X87900000Y-32675000I-250000J0D01*
G01*
X86050000Y-32675000D01*
G75*
G02*
X85800000Y-32425000I0J250000D01*
G01*
G37*
G36*
G01*
X85800000Y-33695000D02*
X85800000Y-33195000D01*
G75*
G02*
X86050000Y-32945000I250000J0D01*
G01*
X87900000Y-32945000D01*
G75*
G02*
X88150000Y-33195000I0J-250000D01*
G01*
X88150000Y-33695000D01*
G75*
G02*
X87900000Y-33945000I-250000J0D01*
G01*
X86050000Y-33945000D01*
G75*
G02*
X85800000Y-33695000I0J250000D01*
G01*
G37*
G36*
G01*
X80850000Y-33695000D02*
X80850000Y-33195000D01*
G75*
G02*
X81100000Y-32945000I250000J0D01*
G01*
X82950000Y-32945000D01*
G75*
G02*
X83200000Y-33195000I0J-250000D01*
G01*
X83200000Y-33695000D01*
G75*
G02*
X82950000Y-33945000I-250000J0D01*
G01*
X81100000Y-33945000D01*
G75*
G02*
X80850000Y-33695000I0J250000D01*
G01*
G37*
G36*
G01*
X80850000Y-32425000D02*
X80850000Y-31925000D01*
G75*
G02*
X81100000Y-31675000I250000J0D01*
G01*
X82950000Y-31675000D01*
G75*
G02*
X83200000Y-31925000I0J-250000D01*
G01*
X83200000Y-32425000D01*
G75*
G02*
X82950000Y-32675000I-250000J0D01*
G01*
X81100000Y-32675000D01*
G75*
G02*
X80850000Y-32425000I0J250000D01*
G01*
G37*
G36*
G01*
X80850000Y-31155000D02*
X80850000Y-30655000D01*
G75*
G02*
X81100000Y-30405000I250000J0D01*
G01*
X82950000Y-30405000D01*
G75*
G02*
X83200000Y-30655000I0J-250000D01*
G01*
X83200000Y-31155000D01*
G75*
G02*
X82950000Y-31405000I-250000J0D01*
G01*
X81100000Y-31405000D01*
G75*
G02*
X80850000Y-31155000I0J250000D01*
G01*
G37*
G36*
G01*
X80850000Y-29885000D02*
X80850000Y-29385000D01*
G75*
G02*
X81100000Y-29135000I250000J0D01*
G01*
X82950000Y-29135000D01*
G75*
G02*
X83200000Y-29385000I0J-250000D01*
G01*
X83200000Y-29885000D01*
G75*
G02*
X82950000Y-30135000I-250000J0D01*
G01*
X81100000Y-30135000D01*
G75*
G02*
X80850000Y-29885000I0J250000D01*
G01*
G37*
G36*
G01*
X80850000Y-28615000D02*
X80850000Y-28115000D01*
G75*
G02*
X81100000Y-27865000I250000J0D01*
G01*
X82950000Y-27865000D01*
G75*
G02*
X83200000Y-28115000I0J-250000D01*
G01*
X83200000Y-28615000D01*
G75*
G02*
X82950000Y-28865000I-250000J0D01*
G01*
X81100000Y-28865000D01*
G75*
G02*
X80850000Y-28615000I0J250000D01*
G01*
G37*
G36*
G01*
X80850000Y-27345000D02*
X80850000Y-26845000D01*
G75*
G02*
X81100000Y-26595000I250000J0D01*
G01*
X82950000Y-26595000D01*
G75*
G02*
X83200000Y-26845000I0J-250000D01*
G01*
X83200000Y-27345000D01*
G75*
G02*
X82950000Y-27595000I-250000J0D01*
G01*
X81100000Y-27595000D01*
G75*
G02*
X80850000Y-27345000I0J250000D01*
G01*
G37*
G36*
G01*
X80850000Y-26075000D02*
X80850000Y-25575000D01*
G75*
G02*
X81100000Y-25325000I250000J0D01*
G01*
X82950000Y-25325000D01*
G75*
G02*
X83200000Y-25575000I0J-250000D01*
G01*
X83200000Y-26075000D01*
G75*
G02*
X82950000Y-26325000I-250000J0D01*
G01*
X81100000Y-26325000D01*
G75*
G02*
X80850000Y-26075000I0J250000D01*
G01*
G37*
G36*
G01*
X80850000Y-24805000D02*
X80850000Y-24305000D01*
G75*
G02*
X81100000Y-24055000I250000J0D01*
G01*
X82950000Y-24055000D01*
G75*
G02*
X83200000Y-24305000I0J-250000D01*
G01*
X83200000Y-24805000D01*
G75*
G02*
X82950000Y-25055000I-250000J0D01*
G01*
X81100000Y-25055000D01*
G75*
G02*
X80850000Y-24805000I0J250000D01*
G01*
G37*
G36*
G01*
X55425000Y-39035000D02*
X55425000Y-38535000D01*
G75*
G02*
X55675000Y-38285000I250000J0D01*
G01*
X57625000Y-38285000D01*
G75*
G02*
X57875000Y-38535000I0J-250000D01*
G01*
X57875000Y-39035000D01*
G75*
G02*
X57625000Y-39285000I-250000J0D01*
G01*
X55675000Y-39285000D01*
G75*
G02*
X55425000Y-39035000I0J250000D01*
G01*
G37*
G36*
G01*
X55425000Y-40305000D02*
X55425000Y-39805000D01*
G75*
G02*
X55675000Y-39555000I250000J0D01*
G01*
X57625000Y-39555000D01*
G75*
G02*
X57875000Y-39805000I0J-250000D01*
G01*
X57875000Y-40305000D01*
G75*
G02*
X57625000Y-40555000I-250000J0D01*
G01*
X55675000Y-40555000D01*
G75*
G02*
X55425000Y-40305000I0J250000D01*
G01*
G37*
G36*
G01*
X55425000Y-41575000D02*
X55425000Y-41075000D01*
G75*
G02*
X55675000Y-40825000I250000J0D01*
G01*
X57625000Y-40825000D01*
G75*
G02*
X57875000Y-41075000I0J-250000D01*
G01*
X57875000Y-41575000D01*
G75*
G02*
X57625000Y-41825000I-250000J0D01*
G01*
X55675000Y-41825000D01*
G75*
G02*
X55425000Y-41575000I0J250000D01*
G01*
G37*
G36*
G01*
X55425000Y-42845000D02*
X55425000Y-42345000D01*
G75*
G02*
X55675000Y-42095000I250000J0D01*
G01*
X57625000Y-42095000D01*
G75*
G02*
X57875000Y-42345000I0J-250000D01*
G01*
X57875000Y-42845000D01*
G75*
G02*
X57625000Y-43095000I-250000J0D01*
G01*
X55675000Y-43095000D01*
G75*
G02*
X55425000Y-42845000I0J250000D01*
G01*
G37*
G36*
G01*
X55425000Y-44115000D02*
X55425000Y-43615000D01*
G75*
G02*
X55675000Y-43365000I250000J0D01*
G01*
X57625000Y-43365000D01*
G75*
G02*
X57875000Y-43615000I0J-250000D01*
G01*
X57875000Y-44115000D01*
G75*
G02*
X57625000Y-44365000I-250000J0D01*
G01*
X55675000Y-44365000D01*
G75*
G02*
X55425000Y-44115000I0J250000D01*
G01*
G37*
G36*
G01*
X55425000Y-45385000D02*
X55425000Y-44885000D01*
G75*
G02*
X55675000Y-44635000I250000J0D01*
G01*
X57625000Y-44635000D01*
G75*
G02*
X57875000Y-44885000I0J-250000D01*
G01*
X57875000Y-45385000D01*
G75*
G02*
X57625000Y-45635000I-250000J0D01*
G01*
X55675000Y-45635000D01*
G75*
G02*
X55425000Y-45385000I0J250000D01*
G01*
G37*
G36*
G01*
X55425000Y-46655000D02*
X55425000Y-46155000D01*
G75*
G02*
X55675000Y-45905000I250000J0D01*
G01*
X57625000Y-45905000D01*
G75*
G02*
X57875000Y-46155000I0J-250000D01*
G01*
X57875000Y-46655000D01*
G75*
G02*
X57625000Y-46905000I-250000J0D01*
G01*
X55675000Y-46905000D01*
G75*
G02*
X55425000Y-46655000I0J250000D01*
G01*
G37*
G36*
G01*
X55425000Y-47925000D02*
X55425000Y-47425000D01*
G75*
G02*
X55675000Y-47175000I250000J0D01*
G01*
X57625000Y-47175000D01*
G75*
G02*
X57875000Y-47425000I0J-250000D01*
G01*
X57875000Y-47925000D01*
G75*
G02*
X57625000Y-48175000I-250000J0D01*
G01*
X55675000Y-48175000D01*
G75*
G02*
X55425000Y-47925000I0J250000D01*
G01*
G37*
G36*
G01*
X55425000Y-49195000D02*
X55425000Y-48695000D01*
G75*
G02*
X55675000Y-48445000I250000J0D01*
G01*
X57625000Y-48445000D01*
G75*
G02*
X57875000Y-48695000I0J-250000D01*
G01*
X57875000Y-49195000D01*
G75*
G02*
X57625000Y-49445000I-250000J0D01*
G01*
X55675000Y-49445000D01*
G75*
G02*
X55425000Y-49195000I0J250000D01*
G01*
G37*
G36*
G01*
X55425000Y-50465000D02*
X55425000Y-49965000D01*
G75*
G02*
X55675000Y-49715000I250000J0D01*
G01*
X57625000Y-49715000D01*
G75*
G02*
X57875000Y-49965000I0J-250000D01*
G01*
X57875000Y-50465000D01*
G75*
G02*
X57625000Y-50715000I-250000J0D01*
G01*
X55675000Y-50715000D01*
G75*
G02*
X55425000Y-50465000I0J250000D01*
G01*
G37*
G36*
G01*
X46125000Y-50465000D02*
X46125000Y-49965000D01*
G75*
G02*
X46375000Y-49715000I250000J0D01*
G01*
X48325000Y-49715000D01*
G75*
G02*
X48575000Y-49965000I0J-250000D01*
G01*
X48575000Y-50465000D01*
G75*
G02*
X48325000Y-50715000I-250000J0D01*
G01*
X46375000Y-50715000D01*
G75*
G02*
X46125000Y-50465000I0J250000D01*
G01*
G37*
G36*
G01*
X46125000Y-49195000D02*
X46125000Y-48695000D01*
G75*
G02*
X46375000Y-48445000I250000J0D01*
G01*
X48325000Y-48445000D01*
G75*
G02*
X48575000Y-48695000I0J-250000D01*
G01*
X48575000Y-49195000D01*
G75*
G02*
X48325000Y-49445000I-250000J0D01*
G01*
X46375000Y-49445000D01*
G75*
G02*
X46125000Y-49195000I0J250000D01*
G01*
G37*
G36*
G01*
X46125000Y-47925000D02*
X46125000Y-47425000D01*
G75*
G02*
X46375000Y-47175000I250000J0D01*
G01*
X48325000Y-47175000D01*
G75*
G02*
X48575000Y-47425000I0J-250000D01*
G01*
X48575000Y-47925000D01*
G75*
G02*
X48325000Y-48175000I-250000J0D01*
G01*
X46375000Y-48175000D01*
G75*
G02*
X46125000Y-47925000I0J250000D01*
G01*
G37*
G36*
G01*
X46125000Y-46655000D02*
X46125000Y-46155000D01*
G75*
G02*
X46375000Y-45905000I250000J0D01*
G01*
X48325000Y-45905000D01*
G75*
G02*
X48575000Y-46155000I0J-250000D01*
G01*
X48575000Y-46655000D01*
G75*
G02*
X48325000Y-46905000I-250000J0D01*
G01*
X46375000Y-46905000D01*
G75*
G02*
X46125000Y-46655000I0J250000D01*
G01*
G37*
G36*
G01*
X46125000Y-45385000D02*
X46125000Y-44885000D01*
G75*
G02*
X46375000Y-44635000I250000J0D01*
G01*
X48325000Y-44635000D01*
G75*
G02*
X48575000Y-44885000I0J-250000D01*
G01*
X48575000Y-45385000D01*
G75*
G02*
X48325000Y-45635000I-250000J0D01*
G01*
X46375000Y-45635000D01*
G75*
G02*
X46125000Y-45385000I0J250000D01*
G01*
G37*
G36*
G01*
X46125000Y-44115000D02*
X46125000Y-43615000D01*
G75*
G02*
X46375000Y-43365000I250000J0D01*
G01*
X48325000Y-43365000D01*
G75*
G02*
X48575000Y-43615000I0J-250000D01*
G01*
X48575000Y-44115000D01*
G75*
G02*
X48325000Y-44365000I-250000J0D01*
G01*
X46375000Y-44365000D01*
G75*
G02*
X46125000Y-44115000I0J250000D01*
G01*
G37*
G36*
G01*
X46125000Y-42845000D02*
X46125000Y-42345000D01*
G75*
G02*
X46375000Y-42095000I250000J0D01*
G01*
X48325000Y-42095000D01*
G75*
G02*
X48575000Y-42345000I0J-250000D01*
G01*
X48575000Y-42845000D01*
G75*
G02*
X48325000Y-43095000I-250000J0D01*
G01*
X46375000Y-43095000D01*
G75*
G02*
X46125000Y-42845000I0J250000D01*
G01*
G37*
G36*
G01*
X46125000Y-41575000D02*
X46125000Y-41075000D01*
G75*
G02*
X46375000Y-40825000I250000J0D01*
G01*
X48325000Y-40825000D01*
G75*
G02*
X48575000Y-41075000I0J-250000D01*
G01*
X48575000Y-41575000D01*
G75*
G02*
X48325000Y-41825000I-250000J0D01*
G01*
X46375000Y-41825000D01*
G75*
G02*
X46125000Y-41575000I0J250000D01*
G01*
G37*
G36*
G01*
X46125000Y-40305000D02*
X46125000Y-39805000D01*
G75*
G02*
X46375000Y-39555000I250000J0D01*
G01*
X48325000Y-39555000D01*
G75*
G02*
X48575000Y-39805000I0J-250000D01*
G01*
X48575000Y-40305000D01*
G75*
G02*
X48325000Y-40555000I-250000J0D01*
G01*
X46375000Y-40555000D01*
G75*
G02*
X46125000Y-40305000I0J250000D01*
G01*
G37*
G36*
G01*
X46125000Y-39035000D02*
X46125000Y-38535000D01*
G75*
G02*
X46375000Y-38285000I250000J0D01*
G01*
X48325000Y-38285000D01*
G75*
G02*
X48575000Y-38535000I0J-250000D01*
G01*
X48575000Y-39035000D01*
G75*
G02*
X48325000Y-39285000I-250000J0D01*
G01*
X46375000Y-39285000D01*
G75*
G02*
X46125000Y-39035000I0J250000D01*
G01*
G37*
G36*
G01*
X15425000Y-39035000D02*
X15425000Y-38535000D01*
G75*
G02*
X15675000Y-38285000I250000J0D01*
G01*
X17625000Y-38285000D01*
G75*
G02*
X17875000Y-38535000I0J-250000D01*
G01*
X17875000Y-39035000D01*
G75*
G02*
X17625000Y-39285000I-250000J0D01*
G01*
X15675000Y-39285000D01*
G75*
G02*
X15425000Y-39035000I0J250000D01*
G01*
G37*
G36*
G01*
X15425000Y-40305000D02*
X15425000Y-39805000D01*
G75*
G02*
X15675000Y-39555000I250000J0D01*
G01*
X17625000Y-39555000D01*
G75*
G02*
X17875000Y-39805000I0J-250000D01*
G01*
X17875000Y-40305000D01*
G75*
G02*
X17625000Y-40555000I-250000J0D01*
G01*
X15675000Y-40555000D01*
G75*
G02*
X15425000Y-40305000I0J250000D01*
G01*
G37*
G36*
G01*
X15425000Y-41575000D02*
X15425000Y-41075000D01*
G75*
G02*
X15675000Y-40825000I250000J0D01*
G01*
X17625000Y-40825000D01*
G75*
G02*
X17875000Y-41075000I0J-250000D01*
G01*
X17875000Y-41575000D01*
G75*
G02*
X17625000Y-41825000I-250000J0D01*
G01*
X15675000Y-41825000D01*
G75*
G02*
X15425000Y-41575000I0J250000D01*
G01*
G37*
G36*
G01*
X15425000Y-42845000D02*
X15425000Y-42345000D01*
G75*
G02*
X15675000Y-42095000I250000J0D01*
G01*
X17625000Y-42095000D01*
G75*
G02*
X17875000Y-42345000I0J-250000D01*
G01*
X17875000Y-42845000D01*
G75*
G02*
X17625000Y-43095000I-250000J0D01*
G01*
X15675000Y-43095000D01*
G75*
G02*
X15425000Y-42845000I0J250000D01*
G01*
G37*
G36*
G01*
X15425000Y-44115000D02*
X15425000Y-43615000D01*
G75*
G02*
X15675000Y-43365000I250000J0D01*
G01*
X17625000Y-43365000D01*
G75*
G02*
X17875000Y-43615000I0J-250000D01*
G01*
X17875000Y-44115000D01*
G75*
G02*
X17625000Y-44365000I-250000J0D01*
G01*
X15675000Y-44365000D01*
G75*
G02*
X15425000Y-44115000I0J250000D01*
G01*
G37*
G36*
G01*
X15425000Y-45385000D02*
X15425000Y-44885000D01*
G75*
G02*
X15675000Y-44635000I250000J0D01*
G01*
X17625000Y-44635000D01*
G75*
G02*
X17875000Y-44885000I0J-250000D01*
G01*
X17875000Y-45385000D01*
G75*
G02*
X17625000Y-45635000I-250000J0D01*
G01*
X15675000Y-45635000D01*
G75*
G02*
X15425000Y-45385000I0J250000D01*
G01*
G37*
G36*
G01*
X15425000Y-46655000D02*
X15425000Y-46155000D01*
G75*
G02*
X15675000Y-45905000I250000J0D01*
G01*
X17625000Y-45905000D01*
G75*
G02*
X17875000Y-46155000I0J-250000D01*
G01*
X17875000Y-46655000D01*
G75*
G02*
X17625000Y-46905000I-250000J0D01*
G01*
X15675000Y-46905000D01*
G75*
G02*
X15425000Y-46655000I0J250000D01*
G01*
G37*
G36*
G01*
X15425000Y-47925000D02*
X15425000Y-47425000D01*
G75*
G02*
X15675000Y-47175000I250000J0D01*
G01*
X17625000Y-47175000D01*
G75*
G02*
X17875000Y-47425000I0J-250000D01*
G01*
X17875000Y-47925000D01*
G75*
G02*
X17625000Y-48175000I-250000J0D01*
G01*
X15675000Y-48175000D01*
G75*
G02*
X15425000Y-47925000I0J250000D01*
G01*
G37*
G36*
G01*
X15425000Y-49195000D02*
X15425000Y-48695000D01*
G75*
G02*
X15675000Y-48445000I250000J0D01*
G01*
X17625000Y-48445000D01*
G75*
G02*
X17875000Y-48695000I0J-250000D01*
G01*
X17875000Y-49195000D01*
G75*
G02*
X17625000Y-49445000I-250000J0D01*
G01*
X15675000Y-49445000D01*
G75*
G02*
X15425000Y-49195000I0J250000D01*
G01*
G37*
G36*
G01*
X15425000Y-50465000D02*
X15425000Y-49965000D01*
G75*
G02*
X15675000Y-49715000I250000J0D01*
G01*
X17625000Y-49715000D01*
G75*
G02*
X17875000Y-49965000I0J-250000D01*
G01*
X17875000Y-50465000D01*
G75*
G02*
X17625000Y-50715000I-250000J0D01*
G01*
X15675000Y-50715000D01*
G75*
G02*
X15425000Y-50465000I0J250000D01*
G01*
G37*
G36*
G01*
X6125000Y-50465000D02*
X6125000Y-49965000D01*
G75*
G02*
X6375000Y-49715000I250000J0D01*
G01*
X8325000Y-49715000D01*
G75*
G02*
X8575000Y-49965000I0J-250000D01*
G01*
X8575000Y-50465000D01*
G75*
G02*
X8325000Y-50715000I-250000J0D01*
G01*
X6375000Y-50715000D01*
G75*
G02*
X6125000Y-50465000I0J250000D01*
G01*
G37*
G36*
G01*
X6125000Y-49195000D02*
X6125000Y-48695000D01*
G75*
G02*
X6375000Y-48445000I250000J0D01*
G01*
X8325000Y-48445000D01*
G75*
G02*
X8575000Y-48695000I0J-250000D01*
G01*
X8575000Y-49195000D01*
G75*
G02*
X8325000Y-49445000I-250000J0D01*
G01*
X6375000Y-49445000D01*
G75*
G02*
X6125000Y-49195000I0J250000D01*
G01*
G37*
G36*
G01*
X6125000Y-47925000D02*
X6125000Y-47425000D01*
G75*
G02*
X6375000Y-47175000I250000J0D01*
G01*
X8325000Y-47175000D01*
G75*
G02*
X8575000Y-47425000I0J-250000D01*
G01*
X8575000Y-47925000D01*
G75*
G02*
X8325000Y-48175000I-250000J0D01*
G01*
X6375000Y-48175000D01*
G75*
G02*
X6125000Y-47925000I0J250000D01*
G01*
G37*
G36*
G01*
X6125000Y-46655000D02*
X6125000Y-46155000D01*
G75*
G02*
X6375000Y-45905000I250000J0D01*
G01*
X8325000Y-45905000D01*
G75*
G02*
X8575000Y-46155000I0J-250000D01*
G01*
X8575000Y-46655000D01*
G75*
G02*
X8325000Y-46905000I-250000J0D01*
G01*
X6375000Y-46905000D01*
G75*
G02*
X6125000Y-46655000I0J250000D01*
G01*
G37*
G36*
G01*
X6125000Y-45385000D02*
X6125000Y-44885000D01*
G75*
G02*
X6375000Y-44635000I250000J0D01*
G01*
X8325000Y-44635000D01*
G75*
G02*
X8575000Y-44885000I0J-250000D01*
G01*
X8575000Y-45385000D01*
G75*
G02*
X8325000Y-45635000I-250000J0D01*
G01*
X6375000Y-45635000D01*
G75*
G02*
X6125000Y-45385000I0J250000D01*
G01*
G37*
G36*
G01*
X6125000Y-44115000D02*
X6125000Y-43615000D01*
G75*
G02*
X6375000Y-43365000I250000J0D01*
G01*
X8325000Y-43365000D01*
G75*
G02*
X8575000Y-43615000I0J-250000D01*
G01*
X8575000Y-44115000D01*
G75*
G02*
X8325000Y-44365000I-250000J0D01*
G01*
X6375000Y-44365000D01*
G75*
G02*
X6125000Y-44115000I0J250000D01*
G01*
G37*
G36*
G01*
X6125000Y-42845000D02*
X6125000Y-42345000D01*
G75*
G02*
X6375000Y-42095000I250000J0D01*
G01*
X8325000Y-42095000D01*
G75*
G02*
X8575000Y-42345000I0J-250000D01*
G01*
X8575000Y-42845000D01*
G75*
G02*
X8325000Y-43095000I-250000J0D01*
G01*
X6375000Y-43095000D01*
G75*
G02*
X6125000Y-42845000I0J250000D01*
G01*
G37*
G36*
G01*
X6125000Y-41575000D02*
X6125000Y-41075000D01*
G75*
G02*
X6375000Y-40825000I250000J0D01*
G01*
X8325000Y-40825000D01*
G75*
G02*
X8575000Y-41075000I0J-250000D01*
G01*
X8575000Y-41575000D01*
G75*
G02*
X8325000Y-41825000I-250000J0D01*
G01*
X6375000Y-41825000D01*
G75*
G02*
X6125000Y-41575000I0J250000D01*
G01*
G37*
G36*
G01*
X6125000Y-40305000D02*
X6125000Y-39805000D01*
G75*
G02*
X6375000Y-39555000I250000J0D01*
G01*
X8325000Y-39555000D01*
G75*
G02*
X8575000Y-39805000I0J-250000D01*
G01*
X8575000Y-40305000D01*
G75*
G02*
X8325000Y-40555000I-250000J0D01*
G01*
X6375000Y-40555000D01*
G75*
G02*
X6125000Y-40305000I0J250000D01*
G01*
G37*
G36*
G01*
X6125000Y-39035000D02*
X6125000Y-38535000D01*
G75*
G02*
X6375000Y-38285000I250000J0D01*
G01*
X8325000Y-38285000D01*
G75*
G02*
X8575000Y-38535000I0J-250000D01*
G01*
X8575000Y-39035000D01*
G75*
G02*
X8325000Y-39285000I-250000J0D01*
G01*
X6375000Y-39285000D01*
G75*
G02*
X6125000Y-39035000I0J250000D01*
G01*
G37*
G36*
G01*
X46125000Y-19035000D02*
X46125000Y-18535000D01*
G75*
G02*
X46375000Y-18285000I250000J0D01*
G01*
X48325000Y-18285000D01*
G75*
G02*
X48575000Y-18535000I0J-250000D01*
G01*
X48575000Y-19035000D01*
G75*
G02*
X48325000Y-19285000I-250000J0D01*
G01*
X46375000Y-19285000D01*
G75*
G02*
X46125000Y-19035000I0J250000D01*
G01*
G37*
G36*
G01*
X46125000Y-20305000D02*
X46125000Y-19805000D01*
G75*
G02*
X46375000Y-19555000I250000J0D01*
G01*
X48325000Y-19555000D01*
G75*
G02*
X48575000Y-19805000I0J-250000D01*
G01*
X48575000Y-20305000D01*
G75*
G02*
X48325000Y-20555000I-250000J0D01*
G01*
X46375000Y-20555000D01*
G75*
G02*
X46125000Y-20305000I0J250000D01*
G01*
G37*
G36*
G01*
X46125000Y-21575000D02*
X46125000Y-21075000D01*
G75*
G02*
X46375000Y-20825000I250000J0D01*
G01*
X48325000Y-20825000D01*
G75*
G02*
X48575000Y-21075000I0J-250000D01*
G01*
X48575000Y-21575000D01*
G75*
G02*
X48325000Y-21825000I-250000J0D01*
G01*
X46375000Y-21825000D01*
G75*
G02*
X46125000Y-21575000I0J250000D01*
G01*
G37*
G36*
G01*
X46125000Y-22845000D02*
X46125000Y-22345000D01*
G75*
G02*
X46375000Y-22095000I250000J0D01*
G01*
X48325000Y-22095000D01*
G75*
G02*
X48575000Y-22345000I0J-250000D01*
G01*
X48575000Y-22845000D01*
G75*
G02*
X48325000Y-23095000I-250000J0D01*
G01*
X46375000Y-23095000D01*
G75*
G02*
X46125000Y-22845000I0J250000D01*
G01*
G37*
G36*
G01*
X46125000Y-24115000D02*
X46125000Y-23615000D01*
G75*
G02*
X46375000Y-23365000I250000J0D01*
G01*
X48325000Y-23365000D01*
G75*
G02*
X48575000Y-23615000I0J-250000D01*
G01*
X48575000Y-24115000D01*
G75*
G02*
X48325000Y-24365000I-250000J0D01*
G01*
X46375000Y-24365000D01*
G75*
G02*
X46125000Y-24115000I0J250000D01*
G01*
G37*
G36*
G01*
X46125000Y-25385000D02*
X46125000Y-24885000D01*
G75*
G02*
X46375000Y-24635000I250000J0D01*
G01*
X48325000Y-24635000D01*
G75*
G02*
X48575000Y-24885000I0J-250000D01*
G01*
X48575000Y-25385000D01*
G75*
G02*
X48325000Y-25635000I-250000J0D01*
G01*
X46375000Y-25635000D01*
G75*
G02*
X46125000Y-25385000I0J250000D01*
G01*
G37*
G36*
G01*
X46125000Y-26655000D02*
X46125000Y-26155000D01*
G75*
G02*
X46375000Y-25905000I250000J0D01*
G01*
X48325000Y-25905000D01*
G75*
G02*
X48575000Y-26155000I0J-250000D01*
G01*
X48575000Y-26655000D01*
G75*
G02*
X48325000Y-26905000I-250000J0D01*
G01*
X46375000Y-26905000D01*
G75*
G02*
X46125000Y-26655000I0J250000D01*
G01*
G37*
G36*
G01*
X46125000Y-27925000D02*
X46125000Y-27425000D01*
G75*
G02*
X46375000Y-27175000I250000J0D01*
G01*
X48325000Y-27175000D01*
G75*
G02*
X48575000Y-27425000I0J-250000D01*
G01*
X48575000Y-27925000D01*
G75*
G02*
X48325000Y-28175000I-250000J0D01*
G01*
X46375000Y-28175000D01*
G75*
G02*
X46125000Y-27925000I0J250000D01*
G01*
G37*
G36*
G01*
X46125000Y-29195000D02*
X46125000Y-28695000D01*
G75*
G02*
X46375000Y-28445000I250000J0D01*
G01*
X48325000Y-28445000D01*
G75*
G02*
X48575000Y-28695000I0J-250000D01*
G01*
X48575000Y-29195000D01*
G75*
G02*
X48325000Y-29445000I-250000J0D01*
G01*
X46375000Y-29445000D01*
G75*
G02*
X46125000Y-29195000I0J250000D01*
G01*
G37*
G36*
G01*
X46125000Y-30465000D02*
X46125000Y-29965000D01*
G75*
G02*
X46375000Y-29715000I250000J0D01*
G01*
X48325000Y-29715000D01*
G75*
G02*
X48575000Y-29965000I0J-250000D01*
G01*
X48575000Y-30465000D01*
G75*
G02*
X48325000Y-30715000I-250000J0D01*
G01*
X46375000Y-30715000D01*
G75*
G02*
X46125000Y-30465000I0J250000D01*
G01*
G37*
G36*
G01*
X55425000Y-30465000D02*
X55425000Y-29965000D01*
G75*
G02*
X55675000Y-29715000I250000J0D01*
G01*
X57625000Y-29715000D01*
G75*
G02*
X57875000Y-29965000I0J-250000D01*
G01*
X57875000Y-30465000D01*
G75*
G02*
X57625000Y-30715000I-250000J0D01*
G01*
X55675000Y-30715000D01*
G75*
G02*
X55425000Y-30465000I0J250000D01*
G01*
G37*
G36*
G01*
X55425000Y-29195000D02*
X55425000Y-28695000D01*
G75*
G02*
X55675000Y-28445000I250000J0D01*
G01*
X57625000Y-28445000D01*
G75*
G02*
X57875000Y-28695000I0J-250000D01*
G01*
X57875000Y-29195000D01*
G75*
G02*
X57625000Y-29445000I-250000J0D01*
G01*
X55675000Y-29445000D01*
G75*
G02*
X55425000Y-29195000I0J250000D01*
G01*
G37*
G36*
G01*
X55425000Y-27925000D02*
X55425000Y-27425000D01*
G75*
G02*
X55675000Y-27175000I250000J0D01*
G01*
X57625000Y-27175000D01*
G75*
G02*
X57875000Y-27425000I0J-250000D01*
G01*
X57875000Y-27925000D01*
G75*
G02*
X57625000Y-28175000I-250000J0D01*
G01*
X55675000Y-28175000D01*
G75*
G02*
X55425000Y-27925000I0J250000D01*
G01*
G37*
G36*
G01*
X55425000Y-26655000D02*
X55425000Y-26155000D01*
G75*
G02*
X55675000Y-25905000I250000J0D01*
G01*
X57625000Y-25905000D01*
G75*
G02*
X57875000Y-26155000I0J-250000D01*
G01*
X57875000Y-26655000D01*
G75*
G02*
X57625000Y-26905000I-250000J0D01*
G01*
X55675000Y-26905000D01*
G75*
G02*
X55425000Y-26655000I0J250000D01*
G01*
G37*
G36*
G01*
X55425000Y-25385000D02*
X55425000Y-24885000D01*
G75*
G02*
X55675000Y-24635000I250000J0D01*
G01*
X57625000Y-24635000D01*
G75*
G02*
X57875000Y-24885000I0J-250000D01*
G01*
X57875000Y-25385000D01*
G75*
G02*
X57625000Y-25635000I-250000J0D01*
G01*
X55675000Y-25635000D01*
G75*
G02*
X55425000Y-25385000I0J250000D01*
G01*
G37*
G36*
G01*
X55425000Y-24115000D02*
X55425000Y-23615000D01*
G75*
G02*
X55675000Y-23365000I250000J0D01*
G01*
X57625000Y-23365000D01*
G75*
G02*
X57875000Y-23615000I0J-250000D01*
G01*
X57875000Y-24115000D01*
G75*
G02*
X57625000Y-24365000I-250000J0D01*
G01*
X55675000Y-24365000D01*
G75*
G02*
X55425000Y-24115000I0J250000D01*
G01*
G37*
G36*
G01*
X55425000Y-22845000D02*
X55425000Y-22345000D01*
G75*
G02*
X55675000Y-22095000I250000J0D01*
G01*
X57625000Y-22095000D01*
G75*
G02*
X57875000Y-22345000I0J-250000D01*
G01*
X57875000Y-22845000D01*
G75*
G02*
X57625000Y-23095000I-250000J0D01*
G01*
X55675000Y-23095000D01*
G75*
G02*
X55425000Y-22845000I0J250000D01*
G01*
G37*
G36*
G01*
X55425000Y-21575000D02*
X55425000Y-21075000D01*
G75*
G02*
X55675000Y-20825000I250000J0D01*
G01*
X57625000Y-20825000D01*
G75*
G02*
X57875000Y-21075000I0J-250000D01*
G01*
X57875000Y-21575000D01*
G75*
G02*
X57625000Y-21825000I-250000J0D01*
G01*
X55675000Y-21825000D01*
G75*
G02*
X55425000Y-21575000I0J250000D01*
G01*
G37*
G36*
G01*
X55425000Y-20305000D02*
X55425000Y-19805000D01*
G75*
G02*
X55675000Y-19555000I250000J0D01*
G01*
X57625000Y-19555000D01*
G75*
G02*
X57875000Y-19805000I0J-250000D01*
G01*
X57875000Y-20305000D01*
G75*
G02*
X57625000Y-20555000I-250000J0D01*
G01*
X55675000Y-20555000D01*
G75*
G02*
X55425000Y-20305000I0J250000D01*
G01*
G37*
G36*
G01*
X55425000Y-19035000D02*
X55425000Y-18535000D01*
G75*
G02*
X55675000Y-18285000I250000J0D01*
G01*
X57625000Y-18285000D01*
G75*
G02*
X57875000Y-18535000I0J-250000D01*
G01*
X57875000Y-19035000D01*
G75*
G02*
X57625000Y-19285000I-250000J0D01*
G01*
X55675000Y-19285000D01*
G75*
G02*
X55425000Y-19035000I0J250000D01*
G01*
G37*
G36*
G01*
X15425000Y-19035000D02*
X15425000Y-18535000D01*
G75*
G02*
X15675000Y-18285000I250000J0D01*
G01*
X17625000Y-18285000D01*
G75*
G02*
X17875000Y-18535000I0J-250000D01*
G01*
X17875000Y-19035000D01*
G75*
G02*
X17625000Y-19285000I-250000J0D01*
G01*
X15675000Y-19285000D01*
G75*
G02*
X15425000Y-19035000I0J250000D01*
G01*
G37*
G36*
G01*
X15425000Y-20305000D02*
X15425000Y-19805000D01*
G75*
G02*
X15675000Y-19555000I250000J0D01*
G01*
X17625000Y-19555000D01*
G75*
G02*
X17875000Y-19805000I0J-250000D01*
G01*
X17875000Y-20305000D01*
G75*
G02*
X17625000Y-20555000I-250000J0D01*
G01*
X15675000Y-20555000D01*
G75*
G02*
X15425000Y-20305000I0J250000D01*
G01*
G37*
G36*
G01*
X15425000Y-21575000D02*
X15425000Y-21075000D01*
G75*
G02*
X15675000Y-20825000I250000J0D01*
G01*
X17625000Y-20825000D01*
G75*
G02*
X17875000Y-21075000I0J-250000D01*
G01*
X17875000Y-21575000D01*
G75*
G02*
X17625000Y-21825000I-250000J0D01*
G01*
X15675000Y-21825000D01*
G75*
G02*
X15425000Y-21575000I0J250000D01*
G01*
G37*
G36*
G01*
X15425000Y-22845000D02*
X15425000Y-22345000D01*
G75*
G02*
X15675000Y-22095000I250000J0D01*
G01*
X17625000Y-22095000D01*
G75*
G02*
X17875000Y-22345000I0J-250000D01*
G01*
X17875000Y-22845000D01*
G75*
G02*
X17625000Y-23095000I-250000J0D01*
G01*
X15675000Y-23095000D01*
G75*
G02*
X15425000Y-22845000I0J250000D01*
G01*
G37*
G36*
G01*
X15425000Y-24115000D02*
X15425000Y-23615000D01*
G75*
G02*
X15675000Y-23365000I250000J0D01*
G01*
X17625000Y-23365000D01*
G75*
G02*
X17875000Y-23615000I0J-250000D01*
G01*
X17875000Y-24115000D01*
G75*
G02*
X17625000Y-24365000I-250000J0D01*
G01*
X15675000Y-24365000D01*
G75*
G02*
X15425000Y-24115000I0J250000D01*
G01*
G37*
G36*
G01*
X15425000Y-25385000D02*
X15425000Y-24885000D01*
G75*
G02*
X15675000Y-24635000I250000J0D01*
G01*
X17625000Y-24635000D01*
G75*
G02*
X17875000Y-24885000I0J-250000D01*
G01*
X17875000Y-25385000D01*
G75*
G02*
X17625000Y-25635000I-250000J0D01*
G01*
X15675000Y-25635000D01*
G75*
G02*
X15425000Y-25385000I0J250000D01*
G01*
G37*
G36*
G01*
X15425000Y-26655000D02*
X15425000Y-26155000D01*
G75*
G02*
X15675000Y-25905000I250000J0D01*
G01*
X17625000Y-25905000D01*
G75*
G02*
X17875000Y-26155000I0J-250000D01*
G01*
X17875000Y-26655000D01*
G75*
G02*
X17625000Y-26905000I-250000J0D01*
G01*
X15675000Y-26905000D01*
G75*
G02*
X15425000Y-26655000I0J250000D01*
G01*
G37*
G36*
G01*
X15425000Y-27925000D02*
X15425000Y-27425000D01*
G75*
G02*
X15675000Y-27175000I250000J0D01*
G01*
X17625000Y-27175000D01*
G75*
G02*
X17875000Y-27425000I0J-250000D01*
G01*
X17875000Y-27925000D01*
G75*
G02*
X17625000Y-28175000I-250000J0D01*
G01*
X15675000Y-28175000D01*
G75*
G02*
X15425000Y-27925000I0J250000D01*
G01*
G37*
G36*
G01*
X15425000Y-29195000D02*
X15425000Y-28695000D01*
G75*
G02*
X15675000Y-28445000I250000J0D01*
G01*
X17625000Y-28445000D01*
G75*
G02*
X17875000Y-28695000I0J-250000D01*
G01*
X17875000Y-29195000D01*
G75*
G02*
X17625000Y-29445000I-250000J0D01*
G01*
X15675000Y-29445000D01*
G75*
G02*
X15425000Y-29195000I0J250000D01*
G01*
G37*
G36*
G01*
X15425000Y-30465000D02*
X15425000Y-29965000D01*
G75*
G02*
X15675000Y-29715000I250000J0D01*
G01*
X17625000Y-29715000D01*
G75*
G02*
X17875000Y-29965000I0J-250000D01*
G01*
X17875000Y-30465000D01*
G75*
G02*
X17625000Y-30715000I-250000J0D01*
G01*
X15675000Y-30715000D01*
G75*
G02*
X15425000Y-30465000I0J250000D01*
G01*
G37*
G36*
G01*
X6125000Y-30465000D02*
X6125000Y-29965000D01*
G75*
G02*
X6375000Y-29715000I250000J0D01*
G01*
X8325000Y-29715000D01*
G75*
G02*
X8575000Y-29965000I0J-250000D01*
G01*
X8575000Y-30465000D01*
G75*
G02*
X8325000Y-30715000I-250000J0D01*
G01*
X6375000Y-30715000D01*
G75*
G02*
X6125000Y-30465000I0J250000D01*
G01*
G37*
G36*
G01*
X6125000Y-29195000D02*
X6125000Y-28695000D01*
G75*
G02*
X6375000Y-28445000I250000J0D01*
G01*
X8325000Y-28445000D01*
G75*
G02*
X8575000Y-28695000I0J-250000D01*
G01*
X8575000Y-29195000D01*
G75*
G02*
X8325000Y-29445000I-250000J0D01*
G01*
X6375000Y-29445000D01*
G75*
G02*
X6125000Y-29195000I0J250000D01*
G01*
G37*
G36*
G01*
X6125000Y-27925000D02*
X6125000Y-27425000D01*
G75*
G02*
X6375000Y-27175000I250000J0D01*
G01*
X8325000Y-27175000D01*
G75*
G02*
X8575000Y-27425000I0J-250000D01*
G01*
X8575000Y-27925000D01*
G75*
G02*
X8325000Y-28175000I-250000J0D01*
G01*
X6375000Y-28175000D01*
G75*
G02*
X6125000Y-27925000I0J250000D01*
G01*
G37*
G36*
G01*
X6125000Y-26655000D02*
X6125000Y-26155000D01*
G75*
G02*
X6375000Y-25905000I250000J0D01*
G01*
X8325000Y-25905000D01*
G75*
G02*
X8575000Y-26155000I0J-250000D01*
G01*
X8575000Y-26655000D01*
G75*
G02*
X8325000Y-26905000I-250000J0D01*
G01*
X6375000Y-26905000D01*
G75*
G02*
X6125000Y-26655000I0J250000D01*
G01*
G37*
G36*
G01*
X6125000Y-25385000D02*
X6125000Y-24885000D01*
G75*
G02*
X6375000Y-24635000I250000J0D01*
G01*
X8325000Y-24635000D01*
G75*
G02*
X8575000Y-24885000I0J-250000D01*
G01*
X8575000Y-25385000D01*
G75*
G02*
X8325000Y-25635000I-250000J0D01*
G01*
X6375000Y-25635000D01*
G75*
G02*
X6125000Y-25385000I0J250000D01*
G01*
G37*
G36*
G01*
X6125000Y-24115000D02*
X6125000Y-23615000D01*
G75*
G02*
X6375000Y-23365000I250000J0D01*
G01*
X8325000Y-23365000D01*
G75*
G02*
X8575000Y-23615000I0J-250000D01*
G01*
X8575000Y-24115000D01*
G75*
G02*
X8325000Y-24365000I-250000J0D01*
G01*
X6375000Y-24365000D01*
G75*
G02*
X6125000Y-24115000I0J250000D01*
G01*
G37*
G36*
G01*
X6125000Y-22845000D02*
X6125000Y-22345000D01*
G75*
G02*
X6375000Y-22095000I250000J0D01*
G01*
X8325000Y-22095000D01*
G75*
G02*
X8575000Y-22345000I0J-250000D01*
G01*
X8575000Y-22845000D01*
G75*
G02*
X8325000Y-23095000I-250000J0D01*
G01*
X6375000Y-23095000D01*
G75*
G02*
X6125000Y-22845000I0J250000D01*
G01*
G37*
G36*
G01*
X6125000Y-21575000D02*
X6125000Y-21075000D01*
G75*
G02*
X6375000Y-20825000I250000J0D01*
G01*
X8325000Y-20825000D01*
G75*
G02*
X8575000Y-21075000I0J-250000D01*
G01*
X8575000Y-21575000D01*
G75*
G02*
X8325000Y-21825000I-250000J0D01*
G01*
X6375000Y-21825000D01*
G75*
G02*
X6125000Y-21575000I0J250000D01*
G01*
G37*
G36*
G01*
X6125000Y-20305000D02*
X6125000Y-19805000D01*
G75*
G02*
X6375000Y-19555000I250000J0D01*
G01*
X8325000Y-19555000D01*
G75*
G02*
X8575000Y-19805000I0J-250000D01*
G01*
X8575000Y-20305000D01*
G75*
G02*
X8325000Y-20555000I-250000J0D01*
G01*
X6375000Y-20555000D01*
G75*
G02*
X6125000Y-20305000I0J250000D01*
G01*
G37*
G36*
G01*
X6125000Y-19035000D02*
X6125000Y-18535000D01*
G75*
G02*
X6375000Y-18285000I250000J0D01*
G01*
X8325000Y-18285000D01*
G75*
G02*
X8575000Y-18535000I0J-250000D01*
G01*
X8575000Y-19035000D01*
G75*
G02*
X8325000Y-19285000I-250000J0D01*
G01*
X6375000Y-19285000D01*
G75*
G02*
X6125000Y-19035000I0J250000D01*
G01*
G37*
G36*
G01*
X26125000Y-19035000D02*
X26125000Y-18535000D01*
G75*
G02*
X26375000Y-18285000I250000J0D01*
G01*
X28325000Y-18285000D01*
G75*
G02*
X28575000Y-18535000I0J-250000D01*
G01*
X28575000Y-19035000D01*
G75*
G02*
X28325000Y-19285000I-250000J0D01*
G01*
X26375000Y-19285000D01*
G75*
G02*
X26125000Y-19035000I0J250000D01*
G01*
G37*
G36*
G01*
X26125000Y-20305000D02*
X26125000Y-19805000D01*
G75*
G02*
X26375000Y-19555000I250000J0D01*
G01*
X28325000Y-19555000D01*
G75*
G02*
X28575000Y-19805000I0J-250000D01*
G01*
X28575000Y-20305000D01*
G75*
G02*
X28325000Y-20555000I-250000J0D01*
G01*
X26375000Y-20555000D01*
G75*
G02*
X26125000Y-20305000I0J250000D01*
G01*
G37*
G36*
G01*
X26125000Y-21575000D02*
X26125000Y-21075000D01*
G75*
G02*
X26375000Y-20825000I250000J0D01*
G01*
X28325000Y-20825000D01*
G75*
G02*
X28575000Y-21075000I0J-250000D01*
G01*
X28575000Y-21575000D01*
G75*
G02*
X28325000Y-21825000I-250000J0D01*
G01*
X26375000Y-21825000D01*
G75*
G02*
X26125000Y-21575000I0J250000D01*
G01*
G37*
G36*
G01*
X26125000Y-22845000D02*
X26125000Y-22345000D01*
G75*
G02*
X26375000Y-22095000I250000J0D01*
G01*
X28325000Y-22095000D01*
G75*
G02*
X28575000Y-22345000I0J-250000D01*
G01*
X28575000Y-22845000D01*
G75*
G02*
X28325000Y-23095000I-250000J0D01*
G01*
X26375000Y-23095000D01*
G75*
G02*
X26125000Y-22845000I0J250000D01*
G01*
G37*
G36*
G01*
X26125000Y-24115000D02*
X26125000Y-23615000D01*
G75*
G02*
X26375000Y-23365000I250000J0D01*
G01*
X28325000Y-23365000D01*
G75*
G02*
X28575000Y-23615000I0J-250000D01*
G01*
X28575000Y-24115000D01*
G75*
G02*
X28325000Y-24365000I-250000J0D01*
G01*
X26375000Y-24365000D01*
G75*
G02*
X26125000Y-24115000I0J250000D01*
G01*
G37*
G36*
G01*
X26125000Y-25385000D02*
X26125000Y-24885000D01*
G75*
G02*
X26375000Y-24635000I250000J0D01*
G01*
X28325000Y-24635000D01*
G75*
G02*
X28575000Y-24885000I0J-250000D01*
G01*
X28575000Y-25385000D01*
G75*
G02*
X28325000Y-25635000I-250000J0D01*
G01*
X26375000Y-25635000D01*
G75*
G02*
X26125000Y-25385000I0J250000D01*
G01*
G37*
G36*
G01*
X26125000Y-26655000D02*
X26125000Y-26155000D01*
G75*
G02*
X26375000Y-25905000I250000J0D01*
G01*
X28325000Y-25905000D01*
G75*
G02*
X28575000Y-26155000I0J-250000D01*
G01*
X28575000Y-26655000D01*
G75*
G02*
X28325000Y-26905000I-250000J0D01*
G01*
X26375000Y-26905000D01*
G75*
G02*
X26125000Y-26655000I0J250000D01*
G01*
G37*
G36*
G01*
X26125000Y-27925000D02*
X26125000Y-27425000D01*
G75*
G02*
X26375000Y-27175000I250000J0D01*
G01*
X28325000Y-27175000D01*
G75*
G02*
X28575000Y-27425000I0J-250000D01*
G01*
X28575000Y-27925000D01*
G75*
G02*
X28325000Y-28175000I-250000J0D01*
G01*
X26375000Y-28175000D01*
G75*
G02*
X26125000Y-27925000I0J250000D01*
G01*
G37*
G36*
G01*
X26125000Y-29195000D02*
X26125000Y-28695000D01*
G75*
G02*
X26375000Y-28445000I250000J0D01*
G01*
X28325000Y-28445000D01*
G75*
G02*
X28575000Y-28695000I0J-250000D01*
G01*
X28575000Y-29195000D01*
G75*
G02*
X28325000Y-29445000I-250000J0D01*
G01*
X26375000Y-29445000D01*
G75*
G02*
X26125000Y-29195000I0J250000D01*
G01*
G37*
G36*
G01*
X26125000Y-30465000D02*
X26125000Y-29965000D01*
G75*
G02*
X26375000Y-29715000I250000J0D01*
G01*
X28325000Y-29715000D01*
G75*
G02*
X28575000Y-29965000I0J-250000D01*
G01*
X28575000Y-30465000D01*
G75*
G02*
X28325000Y-30715000I-250000J0D01*
G01*
X26375000Y-30715000D01*
G75*
G02*
X26125000Y-30465000I0J250000D01*
G01*
G37*
G36*
G01*
X35425000Y-30465000D02*
X35425000Y-29965000D01*
G75*
G02*
X35675000Y-29715000I250000J0D01*
G01*
X37625000Y-29715000D01*
G75*
G02*
X37875000Y-29965000I0J-250000D01*
G01*
X37875000Y-30465000D01*
G75*
G02*
X37625000Y-30715000I-250000J0D01*
G01*
X35675000Y-30715000D01*
G75*
G02*
X35425000Y-30465000I0J250000D01*
G01*
G37*
G36*
G01*
X35425000Y-29195000D02*
X35425000Y-28695000D01*
G75*
G02*
X35675000Y-28445000I250000J0D01*
G01*
X37625000Y-28445000D01*
G75*
G02*
X37875000Y-28695000I0J-250000D01*
G01*
X37875000Y-29195000D01*
G75*
G02*
X37625000Y-29445000I-250000J0D01*
G01*
X35675000Y-29445000D01*
G75*
G02*
X35425000Y-29195000I0J250000D01*
G01*
G37*
G36*
G01*
X35425000Y-27925000D02*
X35425000Y-27425000D01*
G75*
G02*
X35675000Y-27175000I250000J0D01*
G01*
X37625000Y-27175000D01*
G75*
G02*
X37875000Y-27425000I0J-250000D01*
G01*
X37875000Y-27925000D01*
G75*
G02*
X37625000Y-28175000I-250000J0D01*
G01*
X35675000Y-28175000D01*
G75*
G02*
X35425000Y-27925000I0J250000D01*
G01*
G37*
G36*
G01*
X35425000Y-26655000D02*
X35425000Y-26155000D01*
G75*
G02*
X35675000Y-25905000I250000J0D01*
G01*
X37625000Y-25905000D01*
G75*
G02*
X37875000Y-26155000I0J-250000D01*
G01*
X37875000Y-26655000D01*
G75*
G02*
X37625000Y-26905000I-250000J0D01*
G01*
X35675000Y-26905000D01*
G75*
G02*
X35425000Y-26655000I0J250000D01*
G01*
G37*
G36*
G01*
X35425000Y-25385000D02*
X35425000Y-24885000D01*
G75*
G02*
X35675000Y-24635000I250000J0D01*
G01*
X37625000Y-24635000D01*
G75*
G02*
X37875000Y-24885000I0J-250000D01*
G01*
X37875000Y-25385000D01*
G75*
G02*
X37625000Y-25635000I-250000J0D01*
G01*
X35675000Y-25635000D01*
G75*
G02*
X35425000Y-25385000I0J250000D01*
G01*
G37*
G36*
G01*
X35425000Y-24115000D02*
X35425000Y-23615000D01*
G75*
G02*
X35675000Y-23365000I250000J0D01*
G01*
X37625000Y-23365000D01*
G75*
G02*
X37875000Y-23615000I0J-250000D01*
G01*
X37875000Y-24115000D01*
G75*
G02*
X37625000Y-24365000I-250000J0D01*
G01*
X35675000Y-24365000D01*
G75*
G02*
X35425000Y-24115000I0J250000D01*
G01*
G37*
G36*
G01*
X35425000Y-22845000D02*
X35425000Y-22345000D01*
G75*
G02*
X35675000Y-22095000I250000J0D01*
G01*
X37625000Y-22095000D01*
G75*
G02*
X37875000Y-22345000I0J-250000D01*
G01*
X37875000Y-22845000D01*
G75*
G02*
X37625000Y-23095000I-250000J0D01*
G01*
X35675000Y-23095000D01*
G75*
G02*
X35425000Y-22845000I0J250000D01*
G01*
G37*
G36*
G01*
X35425000Y-21575000D02*
X35425000Y-21075000D01*
G75*
G02*
X35675000Y-20825000I250000J0D01*
G01*
X37625000Y-20825000D01*
G75*
G02*
X37875000Y-21075000I0J-250000D01*
G01*
X37875000Y-21575000D01*
G75*
G02*
X37625000Y-21825000I-250000J0D01*
G01*
X35675000Y-21825000D01*
G75*
G02*
X35425000Y-21575000I0J250000D01*
G01*
G37*
G36*
G01*
X35425000Y-20305000D02*
X35425000Y-19805000D01*
G75*
G02*
X35675000Y-19555000I250000J0D01*
G01*
X37625000Y-19555000D01*
G75*
G02*
X37875000Y-19805000I0J-250000D01*
G01*
X37875000Y-20305000D01*
G75*
G02*
X37625000Y-20555000I-250000J0D01*
G01*
X35675000Y-20555000D01*
G75*
G02*
X35425000Y-20305000I0J250000D01*
G01*
G37*
G36*
G01*
X35425000Y-19035000D02*
X35425000Y-18535000D01*
G75*
G02*
X35675000Y-18285000I250000J0D01*
G01*
X37625000Y-18285000D01*
G75*
G02*
X37875000Y-18535000I0J-250000D01*
G01*
X37875000Y-19035000D01*
G75*
G02*
X37625000Y-19285000I-250000J0D01*
G01*
X35675000Y-19285000D01*
G75*
G02*
X35425000Y-19035000I0J250000D01*
G01*
G37*
G36*
G01*
X114535000Y-82875000D02*
X114035000Y-82875000D01*
G75*
G02*
X113785000Y-82625000I0J250000D01*
G01*
X113785000Y-80675000D01*
G75*
G02*
X114035000Y-80425000I250000J0D01*
G01*
X114535000Y-80425000D01*
G75*
G02*
X114785000Y-80675000I0J-250000D01*
G01*
X114785000Y-82625000D01*
G75*
G02*
X114535000Y-82875000I-250000J0D01*
G01*
G37*
G36*
G01*
X115805000Y-82875000D02*
X115305000Y-82875000D01*
G75*
G02*
X115055000Y-82625000I0J250000D01*
G01*
X115055000Y-80675000D01*
G75*
G02*
X115305000Y-80425000I250000J0D01*
G01*
X115805000Y-80425000D01*
G75*
G02*
X116055000Y-80675000I0J-250000D01*
G01*
X116055000Y-82625000D01*
G75*
G02*
X115805000Y-82875000I-250000J0D01*
G01*
G37*
G36*
G01*
X117075000Y-82875000D02*
X116575000Y-82875000D01*
G75*
G02*
X116325000Y-82625000I0J250000D01*
G01*
X116325000Y-80675000D01*
G75*
G02*
X116575000Y-80425000I250000J0D01*
G01*
X117075000Y-80425000D01*
G75*
G02*
X117325000Y-80675000I0J-250000D01*
G01*
X117325000Y-82625000D01*
G75*
G02*
X117075000Y-82875000I-250000J0D01*
G01*
G37*
G36*
G01*
X118345000Y-82875000D02*
X117845000Y-82875000D01*
G75*
G02*
X117595000Y-82625000I0J250000D01*
G01*
X117595000Y-80675000D01*
G75*
G02*
X117845000Y-80425000I250000J0D01*
G01*
X118345000Y-80425000D01*
G75*
G02*
X118595000Y-80675000I0J-250000D01*
G01*
X118595000Y-82625000D01*
G75*
G02*
X118345000Y-82875000I-250000J0D01*
G01*
G37*
G36*
G01*
X119615000Y-82875000D02*
X119115000Y-82875000D01*
G75*
G02*
X118865000Y-82625000I0J250000D01*
G01*
X118865000Y-80675000D01*
G75*
G02*
X119115000Y-80425000I250000J0D01*
G01*
X119615000Y-80425000D01*
G75*
G02*
X119865000Y-80675000I0J-250000D01*
G01*
X119865000Y-82625000D01*
G75*
G02*
X119615000Y-82875000I-250000J0D01*
G01*
G37*
G36*
G01*
X120885000Y-82875000D02*
X120385000Y-82875000D01*
G75*
G02*
X120135000Y-82625000I0J250000D01*
G01*
X120135000Y-80675000D01*
G75*
G02*
X120385000Y-80425000I250000J0D01*
G01*
X120885000Y-80425000D01*
G75*
G02*
X121135000Y-80675000I0J-250000D01*
G01*
X121135000Y-82625000D01*
G75*
G02*
X120885000Y-82875000I-250000J0D01*
G01*
G37*
G36*
G01*
X122155000Y-82875000D02*
X121655000Y-82875000D01*
G75*
G02*
X121405000Y-82625000I0J250000D01*
G01*
X121405000Y-80675000D01*
G75*
G02*
X121655000Y-80425000I250000J0D01*
G01*
X122155000Y-80425000D01*
G75*
G02*
X122405000Y-80675000I0J-250000D01*
G01*
X122405000Y-82625000D01*
G75*
G02*
X122155000Y-82875000I-250000J0D01*
G01*
G37*
G36*
G01*
X123425000Y-82875000D02*
X122925000Y-82875000D01*
G75*
G02*
X122675000Y-82625000I0J250000D01*
G01*
X122675000Y-80675000D01*
G75*
G02*
X122925000Y-80425000I250000J0D01*
G01*
X123425000Y-80425000D01*
G75*
G02*
X123675000Y-80675000I0J-250000D01*
G01*
X123675000Y-82625000D01*
G75*
G02*
X123425000Y-82875000I-250000J0D01*
G01*
G37*
G36*
G01*
X124695000Y-82875000D02*
X124195000Y-82875000D01*
G75*
G02*
X123945000Y-82625000I0J250000D01*
G01*
X123945000Y-80675000D01*
G75*
G02*
X124195000Y-80425000I250000J0D01*
G01*
X124695000Y-80425000D01*
G75*
G02*
X124945000Y-80675000I0J-250000D01*
G01*
X124945000Y-82625000D01*
G75*
G02*
X124695000Y-82875000I-250000J0D01*
G01*
G37*
G36*
G01*
X125965000Y-82875000D02*
X125465000Y-82875000D01*
G75*
G02*
X125215000Y-82625000I0J250000D01*
G01*
X125215000Y-80675000D01*
G75*
G02*
X125465000Y-80425000I250000J0D01*
G01*
X125965000Y-80425000D01*
G75*
G02*
X126215000Y-80675000I0J-250000D01*
G01*
X126215000Y-82625000D01*
G75*
G02*
X125965000Y-82875000I-250000J0D01*
G01*
G37*
G36*
G01*
X125965000Y-73575000D02*
X125465000Y-73575000D01*
G75*
G02*
X125215000Y-73325000I0J250000D01*
G01*
X125215000Y-71375000D01*
G75*
G02*
X125465000Y-71125000I250000J0D01*
G01*
X125965000Y-71125000D01*
G75*
G02*
X126215000Y-71375000I0J-250000D01*
G01*
X126215000Y-73325000D01*
G75*
G02*
X125965000Y-73575000I-250000J0D01*
G01*
G37*
G36*
G01*
X124695000Y-73575000D02*
X124195000Y-73575000D01*
G75*
G02*
X123945000Y-73325000I0J250000D01*
G01*
X123945000Y-71375000D01*
G75*
G02*
X124195000Y-71125000I250000J0D01*
G01*
X124695000Y-71125000D01*
G75*
G02*
X124945000Y-71375000I0J-250000D01*
G01*
X124945000Y-73325000D01*
G75*
G02*
X124695000Y-73575000I-250000J0D01*
G01*
G37*
G36*
G01*
X123425000Y-73575000D02*
X122925000Y-73575000D01*
G75*
G02*
X122675000Y-73325000I0J250000D01*
G01*
X122675000Y-71375000D01*
G75*
G02*
X122925000Y-71125000I250000J0D01*
G01*
X123425000Y-71125000D01*
G75*
G02*
X123675000Y-71375000I0J-250000D01*
G01*
X123675000Y-73325000D01*
G75*
G02*
X123425000Y-73575000I-250000J0D01*
G01*
G37*
G36*
G01*
X122155000Y-73575000D02*
X121655000Y-73575000D01*
G75*
G02*
X121405000Y-73325000I0J250000D01*
G01*
X121405000Y-71375000D01*
G75*
G02*
X121655000Y-71125000I250000J0D01*
G01*
X122155000Y-71125000D01*
G75*
G02*
X122405000Y-71375000I0J-250000D01*
G01*
X122405000Y-73325000D01*
G75*
G02*
X122155000Y-73575000I-250000J0D01*
G01*
G37*
G36*
G01*
X120885000Y-73575000D02*
X120385000Y-73575000D01*
G75*
G02*
X120135000Y-73325000I0J250000D01*
G01*
X120135000Y-71375000D01*
G75*
G02*
X120385000Y-71125000I250000J0D01*
G01*
X120885000Y-71125000D01*
G75*
G02*
X121135000Y-71375000I0J-250000D01*
G01*
X121135000Y-73325000D01*
G75*
G02*
X120885000Y-73575000I-250000J0D01*
G01*
G37*
G36*
G01*
X119615000Y-73575000D02*
X119115000Y-73575000D01*
G75*
G02*
X118865000Y-73325000I0J250000D01*
G01*
X118865000Y-71375000D01*
G75*
G02*
X119115000Y-71125000I250000J0D01*
G01*
X119615000Y-71125000D01*
G75*
G02*
X119865000Y-71375000I0J-250000D01*
G01*
X119865000Y-73325000D01*
G75*
G02*
X119615000Y-73575000I-250000J0D01*
G01*
G37*
G36*
G01*
X118345000Y-73575000D02*
X117845000Y-73575000D01*
G75*
G02*
X117595000Y-73325000I0J250000D01*
G01*
X117595000Y-71375000D01*
G75*
G02*
X117845000Y-71125000I250000J0D01*
G01*
X118345000Y-71125000D01*
G75*
G02*
X118595000Y-71375000I0J-250000D01*
G01*
X118595000Y-73325000D01*
G75*
G02*
X118345000Y-73575000I-250000J0D01*
G01*
G37*
G36*
G01*
X117075000Y-73575000D02*
X116575000Y-73575000D01*
G75*
G02*
X116325000Y-73325000I0J250000D01*
G01*
X116325000Y-71375000D01*
G75*
G02*
X116575000Y-71125000I250000J0D01*
G01*
X117075000Y-71125000D01*
G75*
G02*
X117325000Y-71375000I0J-250000D01*
G01*
X117325000Y-73325000D01*
G75*
G02*
X117075000Y-73575000I-250000J0D01*
G01*
G37*
G36*
G01*
X115805000Y-73575000D02*
X115305000Y-73575000D01*
G75*
G02*
X115055000Y-73325000I0J250000D01*
G01*
X115055000Y-71375000D01*
G75*
G02*
X115305000Y-71125000I250000J0D01*
G01*
X115805000Y-71125000D01*
G75*
G02*
X116055000Y-71375000I0J-250000D01*
G01*
X116055000Y-73325000D01*
G75*
G02*
X115805000Y-73575000I-250000J0D01*
G01*
G37*
G36*
G01*
X114535000Y-73575000D02*
X114035000Y-73575000D01*
G75*
G02*
X113785000Y-73325000I0J250000D01*
G01*
X113785000Y-71375000D01*
G75*
G02*
X114035000Y-71125000I250000J0D01*
G01*
X114535000Y-71125000D01*
G75*
G02*
X114785000Y-71375000I0J-250000D01*
G01*
X114785000Y-73325000D01*
G75*
G02*
X114535000Y-73575000I-250000J0D01*
G01*
G37*
D15*
X108600000Y-59200000D03*
X108600000Y-58250000D03*
X108600000Y-57300000D03*
X106400000Y-57300000D03*
X106400000Y-59200000D03*
G36*
G01*
X95535000Y-73575000D02*
X95035000Y-73575000D01*
G75*
G02*
X94785000Y-73325000I0J250000D01*
G01*
X94785000Y-71375000D01*
G75*
G02*
X95035000Y-71125000I250000J0D01*
G01*
X95535000Y-71125000D01*
G75*
G02*
X95785000Y-71375000I0J-250000D01*
G01*
X95785000Y-73325000D01*
G75*
G02*
X95535000Y-73575000I-250000J0D01*
G01*
G37*
G36*
G01*
X96805000Y-73575000D02*
X96305000Y-73575000D01*
G75*
G02*
X96055000Y-73325000I0J250000D01*
G01*
X96055000Y-71375000D01*
G75*
G02*
X96305000Y-71125000I250000J0D01*
G01*
X96805000Y-71125000D01*
G75*
G02*
X97055000Y-71375000I0J-250000D01*
G01*
X97055000Y-73325000D01*
G75*
G02*
X96805000Y-73575000I-250000J0D01*
G01*
G37*
G36*
G01*
X98075000Y-73575000D02*
X97575000Y-73575000D01*
G75*
G02*
X97325000Y-73325000I0J250000D01*
G01*
X97325000Y-71375000D01*
G75*
G02*
X97575000Y-71125000I250000J0D01*
G01*
X98075000Y-71125000D01*
G75*
G02*
X98325000Y-71375000I0J-250000D01*
G01*
X98325000Y-73325000D01*
G75*
G02*
X98075000Y-73575000I-250000J0D01*
G01*
G37*
G36*
G01*
X99345000Y-73575000D02*
X98845000Y-73575000D01*
G75*
G02*
X98595000Y-73325000I0J250000D01*
G01*
X98595000Y-71375000D01*
G75*
G02*
X98845000Y-71125000I250000J0D01*
G01*
X99345000Y-71125000D01*
G75*
G02*
X99595000Y-71375000I0J-250000D01*
G01*
X99595000Y-73325000D01*
G75*
G02*
X99345000Y-73575000I-250000J0D01*
G01*
G37*
G36*
G01*
X100615000Y-73575000D02*
X100115000Y-73575000D01*
G75*
G02*
X99865000Y-73325000I0J250000D01*
G01*
X99865000Y-71375000D01*
G75*
G02*
X100115000Y-71125000I250000J0D01*
G01*
X100615000Y-71125000D01*
G75*
G02*
X100865000Y-71375000I0J-250000D01*
G01*
X100865000Y-73325000D01*
G75*
G02*
X100615000Y-73575000I-250000J0D01*
G01*
G37*
G36*
G01*
X101885000Y-73575000D02*
X101385000Y-73575000D01*
G75*
G02*
X101135000Y-73325000I0J250000D01*
G01*
X101135000Y-71375000D01*
G75*
G02*
X101385000Y-71125000I250000J0D01*
G01*
X101885000Y-71125000D01*
G75*
G02*
X102135000Y-71375000I0J-250000D01*
G01*
X102135000Y-73325000D01*
G75*
G02*
X101885000Y-73575000I-250000J0D01*
G01*
G37*
G36*
G01*
X103155000Y-73575000D02*
X102655000Y-73575000D01*
G75*
G02*
X102405000Y-73325000I0J250000D01*
G01*
X102405000Y-71375000D01*
G75*
G02*
X102655000Y-71125000I250000J0D01*
G01*
X103155000Y-71125000D01*
G75*
G02*
X103405000Y-71375000I0J-250000D01*
G01*
X103405000Y-73325000D01*
G75*
G02*
X103155000Y-73575000I-250000J0D01*
G01*
G37*
G36*
G01*
X104425000Y-73575000D02*
X103925000Y-73575000D01*
G75*
G02*
X103675000Y-73325000I0J250000D01*
G01*
X103675000Y-71375000D01*
G75*
G02*
X103925000Y-71125000I250000J0D01*
G01*
X104425000Y-71125000D01*
G75*
G02*
X104675000Y-71375000I0J-250000D01*
G01*
X104675000Y-73325000D01*
G75*
G02*
X104425000Y-73575000I-250000J0D01*
G01*
G37*
G36*
G01*
X105695000Y-73575000D02*
X105195000Y-73575000D01*
G75*
G02*
X104945000Y-73325000I0J250000D01*
G01*
X104945000Y-71375000D01*
G75*
G02*
X105195000Y-71125000I250000J0D01*
G01*
X105695000Y-71125000D01*
G75*
G02*
X105945000Y-71375000I0J-250000D01*
G01*
X105945000Y-73325000D01*
G75*
G02*
X105695000Y-73575000I-250000J0D01*
G01*
G37*
G36*
G01*
X106965000Y-73575000D02*
X106465000Y-73575000D01*
G75*
G02*
X106215000Y-73325000I0J250000D01*
G01*
X106215000Y-71375000D01*
G75*
G02*
X106465000Y-71125000I250000J0D01*
G01*
X106965000Y-71125000D01*
G75*
G02*
X107215000Y-71375000I0J-250000D01*
G01*
X107215000Y-73325000D01*
G75*
G02*
X106965000Y-73575000I-250000J0D01*
G01*
G37*
G36*
G01*
X106965000Y-82875000D02*
X106465000Y-82875000D01*
G75*
G02*
X106215000Y-82625000I0J250000D01*
G01*
X106215000Y-80675000D01*
G75*
G02*
X106465000Y-80425000I250000J0D01*
G01*
X106965000Y-80425000D01*
G75*
G02*
X107215000Y-80675000I0J-250000D01*
G01*
X107215000Y-82625000D01*
G75*
G02*
X106965000Y-82875000I-250000J0D01*
G01*
G37*
G36*
G01*
X105695000Y-82875000D02*
X105195000Y-82875000D01*
G75*
G02*
X104945000Y-82625000I0J250000D01*
G01*
X104945000Y-80675000D01*
G75*
G02*
X105195000Y-80425000I250000J0D01*
G01*
X105695000Y-80425000D01*
G75*
G02*
X105945000Y-80675000I0J-250000D01*
G01*
X105945000Y-82625000D01*
G75*
G02*
X105695000Y-82875000I-250000J0D01*
G01*
G37*
G36*
G01*
X104425000Y-82875000D02*
X103925000Y-82875000D01*
G75*
G02*
X103675000Y-82625000I0J250000D01*
G01*
X103675000Y-80675000D01*
G75*
G02*
X103925000Y-80425000I250000J0D01*
G01*
X104425000Y-80425000D01*
G75*
G02*
X104675000Y-80675000I0J-250000D01*
G01*
X104675000Y-82625000D01*
G75*
G02*
X104425000Y-82875000I-250000J0D01*
G01*
G37*
G36*
G01*
X103155000Y-82875000D02*
X102655000Y-82875000D01*
G75*
G02*
X102405000Y-82625000I0J250000D01*
G01*
X102405000Y-80675000D01*
G75*
G02*
X102655000Y-80425000I250000J0D01*
G01*
X103155000Y-80425000D01*
G75*
G02*
X103405000Y-80675000I0J-250000D01*
G01*
X103405000Y-82625000D01*
G75*
G02*
X103155000Y-82875000I-250000J0D01*
G01*
G37*
G36*
G01*
X101885000Y-82875000D02*
X101385000Y-82875000D01*
G75*
G02*
X101135000Y-82625000I0J250000D01*
G01*
X101135000Y-80675000D01*
G75*
G02*
X101385000Y-80425000I250000J0D01*
G01*
X101885000Y-80425000D01*
G75*
G02*
X102135000Y-80675000I0J-250000D01*
G01*
X102135000Y-82625000D01*
G75*
G02*
X101885000Y-82875000I-250000J0D01*
G01*
G37*
G36*
G01*
X100615000Y-82875000D02*
X100115000Y-82875000D01*
G75*
G02*
X99865000Y-82625000I0J250000D01*
G01*
X99865000Y-80675000D01*
G75*
G02*
X100115000Y-80425000I250000J0D01*
G01*
X100615000Y-80425000D01*
G75*
G02*
X100865000Y-80675000I0J-250000D01*
G01*
X100865000Y-82625000D01*
G75*
G02*
X100615000Y-82875000I-250000J0D01*
G01*
G37*
G36*
G01*
X99345000Y-82875000D02*
X98845000Y-82875000D01*
G75*
G02*
X98595000Y-82625000I0J250000D01*
G01*
X98595000Y-80675000D01*
G75*
G02*
X98845000Y-80425000I250000J0D01*
G01*
X99345000Y-80425000D01*
G75*
G02*
X99595000Y-80675000I0J-250000D01*
G01*
X99595000Y-82625000D01*
G75*
G02*
X99345000Y-82875000I-250000J0D01*
G01*
G37*
G36*
G01*
X98075000Y-82875000D02*
X97575000Y-82875000D01*
G75*
G02*
X97325000Y-82625000I0J250000D01*
G01*
X97325000Y-80675000D01*
G75*
G02*
X97575000Y-80425000I250000J0D01*
G01*
X98075000Y-80425000D01*
G75*
G02*
X98325000Y-80675000I0J-250000D01*
G01*
X98325000Y-82625000D01*
G75*
G02*
X98075000Y-82875000I-250000J0D01*
G01*
G37*
G36*
G01*
X96805000Y-82875000D02*
X96305000Y-82875000D01*
G75*
G02*
X96055000Y-82625000I0J250000D01*
G01*
X96055000Y-80675000D01*
G75*
G02*
X96305000Y-80425000I250000J0D01*
G01*
X96805000Y-80425000D01*
G75*
G02*
X97055000Y-80675000I0J-250000D01*
G01*
X97055000Y-82625000D01*
G75*
G02*
X96805000Y-82875000I-250000J0D01*
G01*
G37*
G36*
G01*
X95535000Y-82875000D02*
X95035000Y-82875000D01*
G75*
G02*
X94785000Y-82625000I0J250000D01*
G01*
X94785000Y-80675000D01*
G75*
G02*
X95035000Y-80425000I250000J0D01*
G01*
X95535000Y-80425000D01*
G75*
G02*
X95785000Y-80675000I0J-250000D01*
G01*
X95785000Y-82625000D01*
G75*
G02*
X95535000Y-82875000I-250000J0D01*
G01*
G37*
X106400000Y-64700000D03*
X106400000Y-62800000D03*
X108600000Y-62800000D03*
X108600000Y-63750000D03*
X108600000Y-64700000D03*
G36*
G01*
X15425000Y-61035000D02*
X15425000Y-60535000D01*
G75*
G02*
X15675000Y-60285000I250000J0D01*
G01*
X17625000Y-60285000D01*
G75*
G02*
X17875000Y-60535000I0J-250000D01*
G01*
X17875000Y-61035000D01*
G75*
G02*
X17625000Y-61285000I-250000J0D01*
G01*
X15675000Y-61285000D01*
G75*
G02*
X15425000Y-61035000I0J250000D01*
G01*
G37*
G36*
G01*
X15425000Y-62305000D02*
X15425000Y-61805000D01*
G75*
G02*
X15675000Y-61555000I250000J0D01*
G01*
X17625000Y-61555000D01*
G75*
G02*
X17875000Y-61805000I0J-250000D01*
G01*
X17875000Y-62305000D01*
G75*
G02*
X17625000Y-62555000I-250000J0D01*
G01*
X15675000Y-62555000D01*
G75*
G02*
X15425000Y-62305000I0J250000D01*
G01*
G37*
G36*
G01*
X15425000Y-63575000D02*
X15425000Y-63075000D01*
G75*
G02*
X15675000Y-62825000I250000J0D01*
G01*
X17625000Y-62825000D01*
G75*
G02*
X17875000Y-63075000I0J-250000D01*
G01*
X17875000Y-63575000D01*
G75*
G02*
X17625000Y-63825000I-250000J0D01*
G01*
X15675000Y-63825000D01*
G75*
G02*
X15425000Y-63575000I0J250000D01*
G01*
G37*
G36*
G01*
X15425000Y-64845000D02*
X15425000Y-64345000D01*
G75*
G02*
X15675000Y-64095000I250000J0D01*
G01*
X17625000Y-64095000D01*
G75*
G02*
X17875000Y-64345000I0J-250000D01*
G01*
X17875000Y-64845000D01*
G75*
G02*
X17625000Y-65095000I-250000J0D01*
G01*
X15675000Y-65095000D01*
G75*
G02*
X15425000Y-64845000I0J250000D01*
G01*
G37*
G36*
G01*
X15425000Y-66115000D02*
X15425000Y-65615000D01*
G75*
G02*
X15675000Y-65365000I250000J0D01*
G01*
X17625000Y-65365000D01*
G75*
G02*
X17875000Y-65615000I0J-250000D01*
G01*
X17875000Y-66115000D01*
G75*
G02*
X17625000Y-66365000I-250000J0D01*
G01*
X15675000Y-66365000D01*
G75*
G02*
X15425000Y-66115000I0J250000D01*
G01*
G37*
G36*
G01*
X15425000Y-67385000D02*
X15425000Y-66885000D01*
G75*
G02*
X15675000Y-66635000I250000J0D01*
G01*
X17625000Y-66635000D01*
G75*
G02*
X17875000Y-66885000I0J-250000D01*
G01*
X17875000Y-67385000D01*
G75*
G02*
X17625000Y-67635000I-250000J0D01*
G01*
X15675000Y-67635000D01*
G75*
G02*
X15425000Y-67385000I0J250000D01*
G01*
G37*
G36*
G01*
X15425000Y-68655000D02*
X15425000Y-68155000D01*
G75*
G02*
X15675000Y-67905000I250000J0D01*
G01*
X17625000Y-67905000D01*
G75*
G02*
X17875000Y-68155000I0J-250000D01*
G01*
X17875000Y-68655000D01*
G75*
G02*
X17625000Y-68905000I-250000J0D01*
G01*
X15675000Y-68905000D01*
G75*
G02*
X15425000Y-68655000I0J250000D01*
G01*
G37*
G36*
G01*
X15425000Y-69925000D02*
X15425000Y-69425000D01*
G75*
G02*
X15675000Y-69175000I250000J0D01*
G01*
X17625000Y-69175000D01*
G75*
G02*
X17875000Y-69425000I0J-250000D01*
G01*
X17875000Y-69925000D01*
G75*
G02*
X17625000Y-70175000I-250000J0D01*
G01*
X15675000Y-70175000D01*
G75*
G02*
X15425000Y-69925000I0J250000D01*
G01*
G37*
G36*
G01*
X15425000Y-71195000D02*
X15425000Y-70695000D01*
G75*
G02*
X15675000Y-70445000I250000J0D01*
G01*
X17625000Y-70445000D01*
G75*
G02*
X17875000Y-70695000I0J-250000D01*
G01*
X17875000Y-71195000D01*
G75*
G02*
X17625000Y-71445000I-250000J0D01*
G01*
X15675000Y-71445000D01*
G75*
G02*
X15425000Y-71195000I0J250000D01*
G01*
G37*
G36*
G01*
X15425000Y-72465000D02*
X15425000Y-71965000D01*
G75*
G02*
X15675000Y-71715000I250000J0D01*
G01*
X17625000Y-71715000D01*
G75*
G02*
X17875000Y-71965000I0J-250000D01*
G01*
X17875000Y-72465000D01*
G75*
G02*
X17625000Y-72715000I-250000J0D01*
G01*
X15675000Y-72715000D01*
G75*
G02*
X15425000Y-72465000I0J250000D01*
G01*
G37*
G36*
G01*
X6125000Y-72465000D02*
X6125000Y-71965000D01*
G75*
G02*
X6375000Y-71715000I250000J0D01*
G01*
X8325000Y-71715000D01*
G75*
G02*
X8575000Y-71965000I0J-250000D01*
G01*
X8575000Y-72465000D01*
G75*
G02*
X8325000Y-72715000I-250000J0D01*
G01*
X6375000Y-72715000D01*
G75*
G02*
X6125000Y-72465000I0J250000D01*
G01*
G37*
G36*
G01*
X6125000Y-71195000D02*
X6125000Y-70695000D01*
G75*
G02*
X6375000Y-70445000I250000J0D01*
G01*
X8325000Y-70445000D01*
G75*
G02*
X8575000Y-70695000I0J-250000D01*
G01*
X8575000Y-71195000D01*
G75*
G02*
X8325000Y-71445000I-250000J0D01*
G01*
X6375000Y-71445000D01*
G75*
G02*
X6125000Y-71195000I0J250000D01*
G01*
G37*
G36*
G01*
X6125000Y-69925000D02*
X6125000Y-69425000D01*
G75*
G02*
X6375000Y-69175000I250000J0D01*
G01*
X8325000Y-69175000D01*
G75*
G02*
X8575000Y-69425000I0J-250000D01*
G01*
X8575000Y-69925000D01*
G75*
G02*
X8325000Y-70175000I-250000J0D01*
G01*
X6375000Y-70175000D01*
G75*
G02*
X6125000Y-69925000I0J250000D01*
G01*
G37*
G36*
G01*
X6125000Y-68655000D02*
X6125000Y-68155000D01*
G75*
G02*
X6375000Y-67905000I250000J0D01*
G01*
X8325000Y-67905000D01*
G75*
G02*
X8575000Y-68155000I0J-250000D01*
G01*
X8575000Y-68655000D01*
G75*
G02*
X8325000Y-68905000I-250000J0D01*
G01*
X6375000Y-68905000D01*
G75*
G02*
X6125000Y-68655000I0J250000D01*
G01*
G37*
G36*
G01*
X6125000Y-67385000D02*
X6125000Y-66885000D01*
G75*
G02*
X6375000Y-66635000I250000J0D01*
G01*
X8325000Y-66635000D01*
G75*
G02*
X8575000Y-66885000I0J-250000D01*
G01*
X8575000Y-67385000D01*
G75*
G02*
X8325000Y-67635000I-250000J0D01*
G01*
X6375000Y-67635000D01*
G75*
G02*
X6125000Y-67385000I0J250000D01*
G01*
G37*
G36*
G01*
X6125000Y-66115000D02*
X6125000Y-65615000D01*
G75*
G02*
X6375000Y-65365000I250000J0D01*
G01*
X8325000Y-65365000D01*
G75*
G02*
X8575000Y-65615000I0J-250000D01*
G01*
X8575000Y-66115000D01*
G75*
G02*
X8325000Y-66365000I-250000J0D01*
G01*
X6375000Y-66365000D01*
G75*
G02*
X6125000Y-66115000I0J250000D01*
G01*
G37*
G36*
G01*
X6125000Y-64845000D02*
X6125000Y-64345000D01*
G75*
G02*
X6375000Y-64095000I250000J0D01*
G01*
X8325000Y-64095000D01*
G75*
G02*
X8575000Y-64345000I0J-250000D01*
G01*
X8575000Y-64845000D01*
G75*
G02*
X8325000Y-65095000I-250000J0D01*
G01*
X6375000Y-65095000D01*
G75*
G02*
X6125000Y-64845000I0J250000D01*
G01*
G37*
G36*
G01*
X6125000Y-63575000D02*
X6125000Y-63075000D01*
G75*
G02*
X6375000Y-62825000I250000J0D01*
G01*
X8325000Y-62825000D01*
G75*
G02*
X8575000Y-63075000I0J-250000D01*
G01*
X8575000Y-63575000D01*
G75*
G02*
X8325000Y-63825000I-250000J0D01*
G01*
X6375000Y-63825000D01*
G75*
G02*
X6125000Y-63575000I0J250000D01*
G01*
G37*
G36*
G01*
X6125000Y-62305000D02*
X6125000Y-61805000D01*
G75*
G02*
X6375000Y-61555000I250000J0D01*
G01*
X8325000Y-61555000D01*
G75*
G02*
X8575000Y-61805000I0J-250000D01*
G01*
X8575000Y-62305000D01*
G75*
G02*
X8325000Y-62555000I-250000J0D01*
G01*
X6375000Y-62555000D01*
G75*
G02*
X6125000Y-62305000I0J250000D01*
G01*
G37*
G36*
G01*
X6125000Y-61035000D02*
X6125000Y-60535000D01*
G75*
G02*
X6375000Y-60285000I250000J0D01*
G01*
X8325000Y-60285000D01*
G75*
G02*
X8575000Y-60535000I0J-250000D01*
G01*
X8575000Y-61035000D01*
G75*
G02*
X8325000Y-61285000I-250000J0D01*
G01*
X6375000Y-61285000D01*
G75*
G02*
X6125000Y-61035000I0J250000D01*
G01*
G37*
G36*
G01*
X46125000Y-61035000D02*
X46125000Y-60535000D01*
G75*
G02*
X46375000Y-60285000I250000J0D01*
G01*
X48325000Y-60285000D01*
G75*
G02*
X48575000Y-60535000I0J-250000D01*
G01*
X48575000Y-61035000D01*
G75*
G02*
X48325000Y-61285000I-250000J0D01*
G01*
X46375000Y-61285000D01*
G75*
G02*
X46125000Y-61035000I0J250000D01*
G01*
G37*
G36*
G01*
X46125000Y-62305000D02*
X46125000Y-61805000D01*
G75*
G02*
X46375000Y-61555000I250000J0D01*
G01*
X48325000Y-61555000D01*
G75*
G02*
X48575000Y-61805000I0J-250000D01*
G01*
X48575000Y-62305000D01*
G75*
G02*
X48325000Y-62555000I-250000J0D01*
G01*
X46375000Y-62555000D01*
G75*
G02*
X46125000Y-62305000I0J250000D01*
G01*
G37*
G36*
G01*
X46125000Y-63575000D02*
X46125000Y-63075000D01*
G75*
G02*
X46375000Y-62825000I250000J0D01*
G01*
X48325000Y-62825000D01*
G75*
G02*
X48575000Y-63075000I0J-250000D01*
G01*
X48575000Y-63575000D01*
G75*
G02*
X48325000Y-63825000I-250000J0D01*
G01*
X46375000Y-63825000D01*
G75*
G02*
X46125000Y-63575000I0J250000D01*
G01*
G37*
G36*
G01*
X46125000Y-64845000D02*
X46125000Y-64345000D01*
G75*
G02*
X46375000Y-64095000I250000J0D01*
G01*
X48325000Y-64095000D01*
G75*
G02*
X48575000Y-64345000I0J-250000D01*
G01*
X48575000Y-64845000D01*
G75*
G02*
X48325000Y-65095000I-250000J0D01*
G01*
X46375000Y-65095000D01*
G75*
G02*
X46125000Y-64845000I0J250000D01*
G01*
G37*
G36*
G01*
X46125000Y-66115000D02*
X46125000Y-65615000D01*
G75*
G02*
X46375000Y-65365000I250000J0D01*
G01*
X48325000Y-65365000D01*
G75*
G02*
X48575000Y-65615000I0J-250000D01*
G01*
X48575000Y-66115000D01*
G75*
G02*
X48325000Y-66365000I-250000J0D01*
G01*
X46375000Y-66365000D01*
G75*
G02*
X46125000Y-66115000I0J250000D01*
G01*
G37*
G36*
G01*
X46125000Y-67385000D02*
X46125000Y-66885000D01*
G75*
G02*
X46375000Y-66635000I250000J0D01*
G01*
X48325000Y-66635000D01*
G75*
G02*
X48575000Y-66885000I0J-250000D01*
G01*
X48575000Y-67385000D01*
G75*
G02*
X48325000Y-67635000I-250000J0D01*
G01*
X46375000Y-67635000D01*
G75*
G02*
X46125000Y-67385000I0J250000D01*
G01*
G37*
G36*
G01*
X46125000Y-68655000D02*
X46125000Y-68155000D01*
G75*
G02*
X46375000Y-67905000I250000J0D01*
G01*
X48325000Y-67905000D01*
G75*
G02*
X48575000Y-68155000I0J-250000D01*
G01*
X48575000Y-68655000D01*
G75*
G02*
X48325000Y-68905000I-250000J0D01*
G01*
X46375000Y-68905000D01*
G75*
G02*
X46125000Y-68655000I0J250000D01*
G01*
G37*
G36*
G01*
X46125000Y-69925000D02*
X46125000Y-69425000D01*
G75*
G02*
X46375000Y-69175000I250000J0D01*
G01*
X48325000Y-69175000D01*
G75*
G02*
X48575000Y-69425000I0J-250000D01*
G01*
X48575000Y-69925000D01*
G75*
G02*
X48325000Y-70175000I-250000J0D01*
G01*
X46375000Y-70175000D01*
G75*
G02*
X46125000Y-69925000I0J250000D01*
G01*
G37*
G36*
G01*
X46125000Y-71195000D02*
X46125000Y-70695000D01*
G75*
G02*
X46375000Y-70445000I250000J0D01*
G01*
X48325000Y-70445000D01*
G75*
G02*
X48575000Y-70695000I0J-250000D01*
G01*
X48575000Y-71195000D01*
G75*
G02*
X48325000Y-71445000I-250000J0D01*
G01*
X46375000Y-71445000D01*
G75*
G02*
X46125000Y-71195000I0J250000D01*
G01*
G37*
G36*
G01*
X46125000Y-72465000D02*
X46125000Y-71965000D01*
G75*
G02*
X46375000Y-71715000I250000J0D01*
G01*
X48325000Y-71715000D01*
G75*
G02*
X48575000Y-71965000I0J-250000D01*
G01*
X48575000Y-72465000D01*
G75*
G02*
X48325000Y-72715000I-250000J0D01*
G01*
X46375000Y-72715000D01*
G75*
G02*
X46125000Y-72465000I0J250000D01*
G01*
G37*
G36*
G01*
X55425000Y-72465000D02*
X55425000Y-71965000D01*
G75*
G02*
X55675000Y-71715000I250000J0D01*
G01*
X57625000Y-71715000D01*
G75*
G02*
X57875000Y-71965000I0J-250000D01*
G01*
X57875000Y-72465000D01*
G75*
G02*
X57625000Y-72715000I-250000J0D01*
G01*
X55675000Y-72715000D01*
G75*
G02*
X55425000Y-72465000I0J250000D01*
G01*
G37*
G36*
G01*
X55425000Y-71195000D02*
X55425000Y-70695000D01*
G75*
G02*
X55675000Y-70445000I250000J0D01*
G01*
X57625000Y-70445000D01*
G75*
G02*
X57875000Y-70695000I0J-250000D01*
G01*
X57875000Y-71195000D01*
G75*
G02*
X57625000Y-71445000I-250000J0D01*
G01*
X55675000Y-71445000D01*
G75*
G02*
X55425000Y-71195000I0J250000D01*
G01*
G37*
G36*
G01*
X55425000Y-69925000D02*
X55425000Y-69425000D01*
G75*
G02*
X55675000Y-69175000I250000J0D01*
G01*
X57625000Y-69175000D01*
G75*
G02*
X57875000Y-69425000I0J-250000D01*
G01*
X57875000Y-69925000D01*
G75*
G02*
X57625000Y-70175000I-250000J0D01*
G01*
X55675000Y-70175000D01*
G75*
G02*
X55425000Y-69925000I0J250000D01*
G01*
G37*
G36*
G01*
X55425000Y-68655000D02*
X55425000Y-68155000D01*
G75*
G02*
X55675000Y-67905000I250000J0D01*
G01*
X57625000Y-67905000D01*
G75*
G02*
X57875000Y-68155000I0J-250000D01*
G01*
X57875000Y-68655000D01*
G75*
G02*
X57625000Y-68905000I-250000J0D01*
G01*
X55675000Y-68905000D01*
G75*
G02*
X55425000Y-68655000I0J250000D01*
G01*
G37*
G36*
G01*
X55425000Y-67385000D02*
X55425000Y-66885000D01*
G75*
G02*
X55675000Y-66635000I250000J0D01*
G01*
X57625000Y-66635000D01*
G75*
G02*
X57875000Y-66885000I0J-250000D01*
G01*
X57875000Y-67385000D01*
G75*
G02*
X57625000Y-67635000I-250000J0D01*
G01*
X55675000Y-67635000D01*
G75*
G02*
X55425000Y-67385000I0J250000D01*
G01*
G37*
G36*
G01*
X55425000Y-66115000D02*
X55425000Y-65615000D01*
G75*
G02*
X55675000Y-65365000I250000J0D01*
G01*
X57625000Y-65365000D01*
G75*
G02*
X57875000Y-65615000I0J-250000D01*
G01*
X57875000Y-66115000D01*
G75*
G02*
X57625000Y-66365000I-250000J0D01*
G01*
X55675000Y-66365000D01*
G75*
G02*
X55425000Y-66115000I0J250000D01*
G01*
G37*
G36*
G01*
X55425000Y-64845000D02*
X55425000Y-64345000D01*
G75*
G02*
X55675000Y-64095000I250000J0D01*
G01*
X57625000Y-64095000D01*
G75*
G02*
X57875000Y-64345000I0J-250000D01*
G01*
X57875000Y-64845000D01*
G75*
G02*
X57625000Y-65095000I-250000J0D01*
G01*
X55675000Y-65095000D01*
G75*
G02*
X55425000Y-64845000I0J250000D01*
G01*
G37*
G36*
G01*
X55425000Y-63575000D02*
X55425000Y-63075000D01*
G75*
G02*
X55675000Y-62825000I250000J0D01*
G01*
X57625000Y-62825000D01*
G75*
G02*
X57875000Y-63075000I0J-250000D01*
G01*
X57875000Y-63575000D01*
G75*
G02*
X57625000Y-63825000I-250000J0D01*
G01*
X55675000Y-63825000D01*
G75*
G02*
X55425000Y-63575000I0J250000D01*
G01*
G37*
G36*
G01*
X55425000Y-62305000D02*
X55425000Y-61805000D01*
G75*
G02*
X55675000Y-61555000I250000J0D01*
G01*
X57625000Y-61555000D01*
G75*
G02*
X57875000Y-61805000I0J-250000D01*
G01*
X57875000Y-62305000D01*
G75*
G02*
X57625000Y-62555000I-250000J0D01*
G01*
X55675000Y-62555000D01*
G75*
G02*
X55425000Y-62305000I0J250000D01*
G01*
G37*
G36*
G01*
X55425000Y-61035000D02*
X55425000Y-60535000D01*
G75*
G02*
X55675000Y-60285000I250000J0D01*
G01*
X57625000Y-60285000D01*
G75*
G02*
X57875000Y-60535000I0J-250000D01*
G01*
X57875000Y-61035000D01*
G75*
G02*
X57625000Y-61285000I-250000J0D01*
G01*
X55675000Y-61285000D01*
G75*
G02*
X55425000Y-61035000I0J250000D01*
G01*
G37*
G36*
G01*
X26125000Y-61035000D02*
X26125000Y-60535000D01*
G75*
G02*
X26375000Y-60285000I250000J0D01*
G01*
X28325000Y-60285000D01*
G75*
G02*
X28575000Y-60535000I0J-250000D01*
G01*
X28575000Y-61035000D01*
G75*
G02*
X28325000Y-61285000I-250000J0D01*
G01*
X26375000Y-61285000D01*
G75*
G02*
X26125000Y-61035000I0J250000D01*
G01*
G37*
G36*
G01*
X26125000Y-62305000D02*
X26125000Y-61805000D01*
G75*
G02*
X26375000Y-61555000I250000J0D01*
G01*
X28325000Y-61555000D01*
G75*
G02*
X28575000Y-61805000I0J-250000D01*
G01*
X28575000Y-62305000D01*
G75*
G02*
X28325000Y-62555000I-250000J0D01*
G01*
X26375000Y-62555000D01*
G75*
G02*
X26125000Y-62305000I0J250000D01*
G01*
G37*
G36*
G01*
X26125000Y-63575000D02*
X26125000Y-63075000D01*
G75*
G02*
X26375000Y-62825000I250000J0D01*
G01*
X28325000Y-62825000D01*
G75*
G02*
X28575000Y-63075000I0J-250000D01*
G01*
X28575000Y-63575000D01*
G75*
G02*
X28325000Y-63825000I-250000J0D01*
G01*
X26375000Y-63825000D01*
G75*
G02*
X26125000Y-63575000I0J250000D01*
G01*
G37*
G36*
G01*
X26125000Y-64845000D02*
X26125000Y-64345000D01*
G75*
G02*
X26375000Y-64095000I250000J0D01*
G01*
X28325000Y-64095000D01*
G75*
G02*
X28575000Y-64345000I0J-250000D01*
G01*
X28575000Y-64845000D01*
G75*
G02*
X28325000Y-65095000I-250000J0D01*
G01*
X26375000Y-65095000D01*
G75*
G02*
X26125000Y-64845000I0J250000D01*
G01*
G37*
G36*
G01*
X26125000Y-66115000D02*
X26125000Y-65615000D01*
G75*
G02*
X26375000Y-65365000I250000J0D01*
G01*
X28325000Y-65365000D01*
G75*
G02*
X28575000Y-65615000I0J-250000D01*
G01*
X28575000Y-66115000D01*
G75*
G02*
X28325000Y-66365000I-250000J0D01*
G01*
X26375000Y-66365000D01*
G75*
G02*
X26125000Y-66115000I0J250000D01*
G01*
G37*
G36*
G01*
X26125000Y-67385000D02*
X26125000Y-66885000D01*
G75*
G02*
X26375000Y-66635000I250000J0D01*
G01*
X28325000Y-66635000D01*
G75*
G02*
X28575000Y-66885000I0J-250000D01*
G01*
X28575000Y-67385000D01*
G75*
G02*
X28325000Y-67635000I-250000J0D01*
G01*
X26375000Y-67635000D01*
G75*
G02*
X26125000Y-67385000I0J250000D01*
G01*
G37*
G36*
G01*
X26125000Y-68655000D02*
X26125000Y-68155000D01*
G75*
G02*
X26375000Y-67905000I250000J0D01*
G01*
X28325000Y-67905000D01*
G75*
G02*
X28575000Y-68155000I0J-250000D01*
G01*
X28575000Y-68655000D01*
G75*
G02*
X28325000Y-68905000I-250000J0D01*
G01*
X26375000Y-68905000D01*
G75*
G02*
X26125000Y-68655000I0J250000D01*
G01*
G37*
G36*
G01*
X26125000Y-69925000D02*
X26125000Y-69425000D01*
G75*
G02*
X26375000Y-69175000I250000J0D01*
G01*
X28325000Y-69175000D01*
G75*
G02*
X28575000Y-69425000I0J-250000D01*
G01*
X28575000Y-69925000D01*
G75*
G02*
X28325000Y-70175000I-250000J0D01*
G01*
X26375000Y-70175000D01*
G75*
G02*
X26125000Y-69925000I0J250000D01*
G01*
G37*
G36*
G01*
X26125000Y-71195000D02*
X26125000Y-70695000D01*
G75*
G02*
X26375000Y-70445000I250000J0D01*
G01*
X28325000Y-70445000D01*
G75*
G02*
X28575000Y-70695000I0J-250000D01*
G01*
X28575000Y-71195000D01*
G75*
G02*
X28325000Y-71445000I-250000J0D01*
G01*
X26375000Y-71445000D01*
G75*
G02*
X26125000Y-71195000I0J250000D01*
G01*
G37*
G36*
G01*
X26125000Y-72465000D02*
X26125000Y-71965000D01*
G75*
G02*
X26375000Y-71715000I250000J0D01*
G01*
X28325000Y-71715000D01*
G75*
G02*
X28575000Y-71965000I0J-250000D01*
G01*
X28575000Y-72465000D01*
G75*
G02*
X28325000Y-72715000I-250000J0D01*
G01*
X26375000Y-72715000D01*
G75*
G02*
X26125000Y-72465000I0J250000D01*
G01*
G37*
G36*
G01*
X35425000Y-72465000D02*
X35425000Y-71965000D01*
G75*
G02*
X35675000Y-71715000I250000J0D01*
G01*
X37625000Y-71715000D01*
G75*
G02*
X37875000Y-71965000I0J-250000D01*
G01*
X37875000Y-72465000D01*
G75*
G02*
X37625000Y-72715000I-250000J0D01*
G01*
X35675000Y-72715000D01*
G75*
G02*
X35425000Y-72465000I0J250000D01*
G01*
G37*
G36*
G01*
X35425000Y-71195000D02*
X35425000Y-70695000D01*
G75*
G02*
X35675000Y-70445000I250000J0D01*
G01*
X37625000Y-70445000D01*
G75*
G02*
X37875000Y-70695000I0J-250000D01*
G01*
X37875000Y-71195000D01*
G75*
G02*
X37625000Y-71445000I-250000J0D01*
G01*
X35675000Y-71445000D01*
G75*
G02*
X35425000Y-71195000I0J250000D01*
G01*
G37*
G36*
G01*
X35425000Y-69925000D02*
X35425000Y-69425000D01*
G75*
G02*
X35675000Y-69175000I250000J0D01*
G01*
X37625000Y-69175000D01*
G75*
G02*
X37875000Y-69425000I0J-250000D01*
G01*
X37875000Y-69925000D01*
G75*
G02*
X37625000Y-70175000I-250000J0D01*
G01*
X35675000Y-70175000D01*
G75*
G02*
X35425000Y-69925000I0J250000D01*
G01*
G37*
G36*
G01*
X35425000Y-68655000D02*
X35425000Y-68155000D01*
G75*
G02*
X35675000Y-67905000I250000J0D01*
G01*
X37625000Y-67905000D01*
G75*
G02*
X37875000Y-68155000I0J-250000D01*
G01*
X37875000Y-68655000D01*
G75*
G02*
X37625000Y-68905000I-250000J0D01*
G01*
X35675000Y-68905000D01*
G75*
G02*
X35425000Y-68655000I0J250000D01*
G01*
G37*
G36*
G01*
X35425000Y-67385000D02*
X35425000Y-66885000D01*
G75*
G02*
X35675000Y-66635000I250000J0D01*
G01*
X37625000Y-66635000D01*
G75*
G02*
X37875000Y-66885000I0J-250000D01*
G01*
X37875000Y-67385000D01*
G75*
G02*
X37625000Y-67635000I-250000J0D01*
G01*
X35675000Y-67635000D01*
G75*
G02*
X35425000Y-67385000I0J250000D01*
G01*
G37*
G36*
G01*
X35425000Y-66115000D02*
X35425000Y-65615000D01*
G75*
G02*
X35675000Y-65365000I250000J0D01*
G01*
X37625000Y-65365000D01*
G75*
G02*
X37875000Y-65615000I0J-250000D01*
G01*
X37875000Y-66115000D01*
G75*
G02*
X37625000Y-66365000I-250000J0D01*
G01*
X35675000Y-66365000D01*
G75*
G02*
X35425000Y-66115000I0J250000D01*
G01*
G37*
G36*
G01*
X35425000Y-64845000D02*
X35425000Y-64345000D01*
G75*
G02*
X35675000Y-64095000I250000J0D01*
G01*
X37625000Y-64095000D01*
G75*
G02*
X37875000Y-64345000I0J-250000D01*
G01*
X37875000Y-64845000D01*
G75*
G02*
X37625000Y-65095000I-250000J0D01*
G01*
X35675000Y-65095000D01*
G75*
G02*
X35425000Y-64845000I0J250000D01*
G01*
G37*
G36*
G01*
X35425000Y-63575000D02*
X35425000Y-63075000D01*
G75*
G02*
X35675000Y-62825000I250000J0D01*
G01*
X37625000Y-62825000D01*
G75*
G02*
X37875000Y-63075000I0J-250000D01*
G01*
X37875000Y-63575000D01*
G75*
G02*
X37625000Y-63825000I-250000J0D01*
G01*
X35675000Y-63825000D01*
G75*
G02*
X35425000Y-63575000I0J250000D01*
G01*
G37*
G36*
G01*
X35425000Y-62305000D02*
X35425000Y-61805000D01*
G75*
G02*
X35675000Y-61555000I250000J0D01*
G01*
X37625000Y-61555000D01*
G75*
G02*
X37875000Y-61805000I0J-250000D01*
G01*
X37875000Y-62305000D01*
G75*
G02*
X37625000Y-62555000I-250000J0D01*
G01*
X35675000Y-62555000D01*
G75*
G02*
X35425000Y-62305000I0J250000D01*
G01*
G37*
G36*
G01*
X35425000Y-61035000D02*
X35425000Y-60535000D01*
G75*
G02*
X35675000Y-60285000I250000J0D01*
G01*
X37625000Y-60285000D01*
G75*
G02*
X37875000Y-60535000I0J-250000D01*
G01*
X37875000Y-61035000D01*
G75*
G02*
X37625000Y-61285000I-250000J0D01*
G01*
X35675000Y-61285000D01*
G75*
G02*
X35425000Y-61035000I0J250000D01*
G01*
G37*
D16*
X5000000Y-5000000D03*
X128000000Y-5000000D03*
X5000000Y-88000000D03*
X128000000Y-88000000D03*
G36*
G01*
X69400000Y-52175000D02*
X69400000Y-51825000D01*
G75*
G02*
X69575000Y-51650000I175000J0D01*
G01*
X71100000Y-51650000D01*
G75*
G02*
X71275000Y-51825000I0J-175000D01*
G01*
X71275000Y-52175000D01*
G75*
G02*
X71100000Y-52350000I-175000J0D01*
G01*
X69575000Y-52350000D01*
G75*
G02*
X69400000Y-52175000I0J175000D01*
G01*
G37*
G36*
G01*
X69400000Y-52675000D02*
X69400000Y-52325000D01*
G75*
G02*
X69575000Y-52150000I175000J0D01*
G01*
X71100000Y-52150000D01*
G75*
G02*
X71275000Y-52325000I0J-175000D01*
G01*
X71275000Y-52675000D01*
G75*
G02*
X71100000Y-52850000I-175000J0D01*
G01*
X69575000Y-52850000D01*
G75*
G02*
X69400000Y-52675000I0J175000D01*
G01*
G37*
G36*
G01*
X69400000Y-53175000D02*
X69400000Y-52825000D01*
G75*
G02*
X69575000Y-52650000I175000J0D01*
G01*
X71100000Y-52650000D01*
G75*
G02*
X71275000Y-52825000I0J-175000D01*
G01*
X71275000Y-53175000D01*
G75*
G02*
X71100000Y-53350000I-175000J0D01*
G01*
X69575000Y-53350000D01*
G75*
G02*
X69400000Y-53175000I0J175000D01*
G01*
G37*
G36*
G01*
X69400000Y-53675000D02*
X69400000Y-53325000D01*
G75*
G02*
X69575000Y-53150000I175000J0D01*
G01*
X71100000Y-53150000D01*
G75*
G02*
X71275000Y-53325000I0J-175000D01*
G01*
X71275000Y-53675000D01*
G75*
G02*
X71100000Y-53850000I-175000J0D01*
G01*
X69575000Y-53850000D01*
G75*
G02*
X69400000Y-53675000I0J175000D01*
G01*
G37*
G36*
G01*
X69400000Y-54175000D02*
X69400000Y-53825000D01*
G75*
G02*
X69575000Y-53650000I175000J0D01*
G01*
X71100000Y-53650000D01*
G75*
G02*
X71275000Y-53825000I0J-175000D01*
G01*
X71275000Y-54175000D01*
G75*
G02*
X71100000Y-54350000I-175000J0D01*
G01*
X69575000Y-54350000D01*
G75*
G02*
X69400000Y-54175000I0J175000D01*
G01*
G37*
G36*
G01*
X69400000Y-54675000D02*
X69400000Y-54325000D01*
G75*
G02*
X69575000Y-54150000I175000J0D01*
G01*
X71100000Y-54150000D01*
G75*
G02*
X71275000Y-54325000I0J-175000D01*
G01*
X71275000Y-54675000D01*
G75*
G02*
X71100000Y-54850000I-175000J0D01*
G01*
X69575000Y-54850000D01*
G75*
G02*
X69400000Y-54675000I0J175000D01*
G01*
G37*
G36*
G01*
X69400000Y-55175000D02*
X69400000Y-54825000D01*
G75*
G02*
X69575000Y-54650000I175000J0D01*
G01*
X71100000Y-54650000D01*
G75*
G02*
X71275000Y-54825000I0J-175000D01*
G01*
X71275000Y-55175000D01*
G75*
G02*
X71100000Y-55350000I-175000J0D01*
G01*
X69575000Y-55350000D01*
G75*
G02*
X69400000Y-55175000I0J175000D01*
G01*
G37*
G36*
G01*
X69400000Y-55675000D02*
X69400000Y-55325000D01*
G75*
G02*
X69575000Y-55150000I175000J0D01*
G01*
X71100000Y-55150000D01*
G75*
G02*
X71275000Y-55325000I0J-175000D01*
G01*
X71275000Y-55675000D01*
G75*
G02*
X71100000Y-55850000I-175000J0D01*
G01*
X69575000Y-55850000D01*
G75*
G02*
X69400000Y-55675000I0J175000D01*
G01*
G37*
G36*
G01*
X69400000Y-56175000D02*
X69400000Y-55825000D01*
G75*
G02*
X69575000Y-55650000I175000J0D01*
G01*
X71100000Y-55650000D01*
G75*
G02*
X71275000Y-55825000I0J-175000D01*
G01*
X71275000Y-56175000D01*
G75*
G02*
X71100000Y-56350000I-175000J0D01*
G01*
X69575000Y-56350000D01*
G75*
G02*
X69400000Y-56175000I0J175000D01*
G01*
G37*
G36*
G01*
X69400000Y-56675000D02*
X69400000Y-56325000D01*
G75*
G02*
X69575000Y-56150000I175000J0D01*
G01*
X71100000Y-56150000D01*
G75*
G02*
X71275000Y-56325000I0J-175000D01*
G01*
X71275000Y-56675000D01*
G75*
G02*
X71100000Y-56850000I-175000J0D01*
G01*
X69575000Y-56850000D01*
G75*
G02*
X69400000Y-56675000I0J175000D01*
G01*
G37*
G36*
G01*
X69400000Y-57175000D02*
X69400000Y-56825000D01*
G75*
G02*
X69575000Y-56650000I175000J0D01*
G01*
X71100000Y-56650000D01*
G75*
G02*
X71275000Y-56825000I0J-175000D01*
G01*
X71275000Y-57175000D01*
G75*
G02*
X71100000Y-57350000I-175000J0D01*
G01*
X69575000Y-57350000D01*
G75*
G02*
X69400000Y-57175000I0J175000D01*
G01*
G37*
G36*
G01*
X69400000Y-57675000D02*
X69400000Y-57325000D01*
G75*
G02*
X69575000Y-57150000I175000J0D01*
G01*
X71100000Y-57150000D01*
G75*
G02*
X71275000Y-57325000I0J-175000D01*
G01*
X71275000Y-57675000D01*
G75*
G02*
X71100000Y-57850000I-175000J0D01*
G01*
X69575000Y-57850000D01*
G75*
G02*
X69400000Y-57675000I0J175000D01*
G01*
G37*
G36*
G01*
X69400000Y-58175000D02*
X69400000Y-57825000D01*
G75*
G02*
X69575000Y-57650000I175000J0D01*
G01*
X71100000Y-57650000D01*
G75*
G02*
X71275000Y-57825000I0J-175000D01*
G01*
X71275000Y-58175000D01*
G75*
G02*
X71100000Y-58350000I-175000J0D01*
G01*
X69575000Y-58350000D01*
G75*
G02*
X69400000Y-58175000I0J175000D01*
G01*
G37*
G36*
G01*
X69400000Y-58675000D02*
X69400000Y-58325000D01*
G75*
G02*
X69575000Y-58150000I175000J0D01*
G01*
X71100000Y-58150000D01*
G75*
G02*
X71275000Y-58325000I0J-175000D01*
G01*
X71275000Y-58675000D01*
G75*
G02*
X71100000Y-58850000I-175000J0D01*
G01*
X69575000Y-58850000D01*
G75*
G02*
X69400000Y-58675000I0J175000D01*
G01*
G37*
G36*
G01*
X69400000Y-59175000D02*
X69400000Y-58825000D01*
G75*
G02*
X69575000Y-58650000I175000J0D01*
G01*
X71100000Y-58650000D01*
G75*
G02*
X71275000Y-58825000I0J-175000D01*
G01*
X71275000Y-59175000D01*
G75*
G02*
X71100000Y-59350000I-175000J0D01*
G01*
X69575000Y-59350000D01*
G75*
G02*
X69400000Y-59175000I0J175000D01*
G01*
G37*
G36*
G01*
X69400000Y-59675000D02*
X69400000Y-59325000D01*
G75*
G02*
X69575000Y-59150000I175000J0D01*
G01*
X71100000Y-59150000D01*
G75*
G02*
X71275000Y-59325000I0J-175000D01*
G01*
X71275000Y-59675000D01*
G75*
G02*
X71100000Y-59850000I-175000J0D01*
G01*
X69575000Y-59850000D01*
G75*
G02*
X69400000Y-59675000I0J175000D01*
G01*
G37*
G36*
G01*
X69400000Y-60175000D02*
X69400000Y-59825000D01*
G75*
G02*
X69575000Y-59650000I175000J0D01*
G01*
X71100000Y-59650000D01*
G75*
G02*
X71275000Y-59825000I0J-175000D01*
G01*
X71275000Y-60175000D01*
G75*
G02*
X71100000Y-60350000I-175000J0D01*
G01*
X69575000Y-60350000D01*
G75*
G02*
X69400000Y-60175000I0J175000D01*
G01*
G37*
G36*
G01*
X69400000Y-60675000D02*
X69400000Y-60325000D01*
G75*
G02*
X69575000Y-60150000I175000J0D01*
G01*
X71100000Y-60150000D01*
G75*
G02*
X71275000Y-60325000I0J-175000D01*
G01*
X71275000Y-60675000D01*
G75*
G02*
X71100000Y-60850000I-175000J0D01*
G01*
X69575000Y-60850000D01*
G75*
G02*
X69400000Y-60675000I0J175000D01*
G01*
G37*
G36*
G01*
X69400000Y-61175000D02*
X69400000Y-60825000D01*
G75*
G02*
X69575000Y-60650000I175000J0D01*
G01*
X71100000Y-60650000D01*
G75*
G02*
X71275000Y-60825000I0J-175000D01*
G01*
X71275000Y-61175000D01*
G75*
G02*
X71100000Y-61350000I-175000J0D01*
G01*
X69575000Y-61350000D01*
G75*
G02*
X69400000Y-61175000I0J175000D01*
G01*
G37*
G36*
G01*
X69400000Y-61675000D02*
X69400000Y-61325000D01*
G75*
G02*
X69575000Y-61150000I175000J0D01*
G01*
X71100000Y-61150000D01*
G75*
G02*
X71275000Y-61325000I0J-175000D01*
G01*
X71275000Y-61675000D01*
G75*
G02*
X71100000Y-61850000I-175000J0D01*
G01*
X69575000Y-61850000D01*
G75*
G02*
X69400000Y-61675000I0J175000D01*
G01*
G37*
G36*
G01*
X69400000Y-62175000D02*
X69400000Y-61825000D01*
G75*
G02*
X69575000Y-61650000I175000J0D01*
G01*
X71100000Y-61650000D01*
G75*
G02*
X71275000Y-61825000I0J-175000D01*
G01*
X71275000Y-62175000D01*
G75*
G02*
X71100000Y-62350000I-175000J0D01*
G01*
X69575000Y-62350000D01*
G75*
G02*
X69400000Y-62175000I0J175000D01*
G01*
G37*
G36*
G01*
X69400000Y-62675000D02*
X69400000Y-62325000D01*
G75*
G02*
X69575000Y-62150000I175000J0D01*
G01*
X71100000Y-62150000D01*
G75*
G02*
X71275000Y-62325000I0J-175000D01*
G01*
X71275000Y-62675000D01*
G75*
G02*
X71100000Y-62850000I-175000J0D01*
G01*
X69575000Y-62850000D01*
G75*
G02*
X69400000Y-62675000I0J175000D01*
G01*
G37*
G36*
G01*
X69400000Y-63175000D02*
X69400000Y-62825000D01*
G75*
G02*
X69575000Y-62650000I175000J0D01*
G01*
X71100000Y-62650000D01*
G75*
G02*
X71275000Y-62825000I0J-175000D01*
G01*
X71275000Y-63175000D01*
G75*
G02*
X71100000Y-63350000I-175000J0D01*
G01*
X69575000Y-63350000D01*
G75*
G02*
X69400000Y-63175000I0J175000D01*
G01*
G37*
G36*
G01*
X69400000Y-63675000D02*
X69400000Y-63325000D01*
G75*
G02*
X69575000Y-63150000I175000J0D01*
G01*
X71100000Y-63150000D01*
G75*
G02*
X71275000Y-63325000I0J-175000D01*
G01*
X71275000Y-63675000D01*
G75*
G02*
X71100000Y-63850000I-175000J0D01*
G01*
X69575000Y-63850000D01*
G75*
G02*
X69400000Y-63675000I0J175000D01*
G01*
G37*
G36*
G01*
X69400000Y-64175000D02*
X69400000Y-63825000D01*
G75*
G02*
X69575000Y-63650000I175000J0D01*
G01*
X71100000Y-63650000D01*
G75*
G02*
X71275000Y-63825000I0J-175000D01*
G01*
X71275000Y-64175000D01*
G75*
G02*
X71100000Y-64350000I-175000J0D01*
G01*
X69575000Y-64350000D01*
G75*
G02*
X69400000Y-64175000I0J175000D01*
G01*
G37*
G36*
G01*
X71650000Y-66425000D02*
X71650000Y-64900000D01*
G75*
G02*
X71825000Y-64725000I175000J0D01*
G01*
X72175000Y-64725000D01*
G75*
G02*
X72350000Y-64900000I0J-175000D01*
G01*
X72350000Y-66425000D01*
G75*
G02*
X72175000Y-66600000I-175000J0D01*
G01*
X71825000Y-66600000D01*
G75*
G02*
X71650000Y-66425000I0J175000D01*
G01*
G37*
G36*
G01*
X72150000Y-66425000D02*
X72150000Y-64900000D01*
G75*
G02*
X72325000Y-64725000I175000J0D01*
G01*
X72675000Y-64725000D01*
G75*
G02*
X72850000Y-64900000I0J-175000D01*
G01*
X72850000Y-66425000D01*
G75*
G02*
X72675000Y-66600000I-175000J0D01*
G01*
X72325000Y-66600000D01*
G75*
G02*
X72150000Y-66425000I0J175000D01*
G01*
G37*
G36*
G01*
X72650000Y-66425000D02*
X72650000Y-64900000D01*
G75*
G02*
X72825000Y-64725000I175000J0D01*
G01*
X73175000Y-64725000D01*
G75*
G02*
X73350000Y-64900000I0J-175000D01*
G01*
X73350000Y-66425000D01*
G75*
G02*
X73175000Y-66600000I-175000J0D01*
G01*
X72825000Y-66600000D01*
G75*
G02*
X72650000Y-66425000I0J175000D01*
G01*
G37*
G36*
G01*
X73150000Y-66425000D02*
X73150000Y-64900000D01*
G75*
G02*
X73325000Y-64725000I175000J0D01*
G01*
X73675000Y-64725000D01*
G75*
G02*
X73850000Y-64900000I0J-175000D01*
G01*
X73850000Y-66425000D01*
G75*
G02*
X73675000Y-66600000I-175000J0D01*
G01*
X73325000Y-66600000D01*
G75*
G02*
X73150000Y-66425000I0J175000D01*
G01*
G37*
G36*
G01*
X73650000Y-66425000D02*
X73650000Y-64900000D01*
G75*
G02*
X73825000Y-64725000I175000J0D01*
G01*
X74175000Y-64725000D01*
G75*
G02*
X74350000Y-64900000I0J-175000D01*
G01*
X74350000Y-66425000D01*
G75*
G02*
X74175000Y-66600000I-175000J0D01*
G01*
X73825000Y-66600000D01*
G75*
G02*
X73650000Y-66425000I0J175000D01*
G01*
G37*
G36*
G01*
X74150000Y-66425000D02*
X74150000Y-64900000D01*
G75*
G02*
X74325000Y-64725000I175000J0D01*
G01*
X74675000Y-64725000D01*
G75*
G02*
X74850000Y-64900000I0J-175000D01*
G01*
X74850000Y-66425000D01*
G75*
G02*
X74675000Y-66600000I-175000J0D01*
G01*
X74325000Y-66600000D01*
G75*
G02*
X74150000Y-66425000I0J175000D01*
G01*
G37*
G36*
G01*
X74650000Y-66425000D02*
X74650000Y-64900000D01*
G75*
G02*
X74825000Y-64725000I175000J0D01*
G01*
X75175000Y-64725000D01*
G75*
G02*
X75350000Y-64900000I0J-175000D01*
G01*
X75350000Y-66425000D01*
G75*
G02*
X75175000Y-66600000I-175000J0D01*
G01*
X74825000Y-66600000D01*
G75*
G02*
X74650000Y-66425000I0J175000D01*
G01*
G37*
G36*
G01*
X75150000Y-66425000D02*
X75150000Y-64900000D01*
G75*
G02*
X75325000Y-64725000I175000J0D01*
G01*
X75675000Y-64725000D01*
G75*
G02*
X75850000Y-64900000I0J-175000D01*
G01*
X75850000Y-66425000D01*
G75*
G02*
X75675000Y-66600000I-175000J0D01*
G01*
X75325000Y-66600000D01*
G75*
G02*
X75150000Y-66425000I0J175000D01*
G01*
G37*
G36*
G01*
X75650000Y-66425000D02*
X75650000Y-64900000D01*
G75*
G02*
X75825000Y-64725000I175000J0D01*
G01*
X76175000Y-64725000D01*
G75*
G02*
X76350000Y-64900000I0J-175000D01*
G01*
X76350000Y-66425000D01*
G75*
G02*
X76175000Y-66600000I-175000J0D01*
G01*
X75825000Y-66600000D01*
G75*
G02*
X75650000Y-66425000I0J175000D01*
G01*
G37*
G36*
G01*
X76150000Y-66425000D02*
X76150000Y-64900000D01*
G75*
G02*
X76325000Y-64725000I175000J0D01*
G01*
X76675000Y-64725000D01*
G75*
G02*
X76850000Y-64900000I0J-175000D01*
G01*
X76850000Y-66425000D01*
G75*
G02*
X76675000Y-66600000I-175000J0D01*
G01*
X76325000Y-66600000D01*
G75*
G02*
X76150000Y-66425000I0J175000D01*
G01*
G37*
G36*
G01*
X76650000Y-66425000D02*
X76650000Y-64900000D01*
G75*
G02*
X76825000Y-64725000I175000J0D01*
G01*
X77175000Y-64725000D01*
G75*
G02*
X77350000Y-64900000I0J-175000D01*
G01*
X77350000Y-66425000D01*
G75*
G02*
X77175000Y-66600000I-175000J0D01*
G01*
X76825000Y-66600000D01*
G75*
G02*
X76650000Y-66425000I0J175000D01*
G01*
G37*
G36*
G01*
X77150000Y-66425000D02*
X77150000Y-64900000D01*
G75*
G02*
X77325000Y-64725000I175000J0D01*
G01*
X77675000Y-64725000D01*
G75*
G02*
X77850000Y-64900000I0J-175000D01*
G01*
X77850000Y-66425000D01*
G75*
G02*
X77675000Y-66600000I-175000J0D01*
G01*
X77325000Y-66600000D01*
G75*
G02*
X77150000Y-66425000I0J175000D01*
G01*
G37*
G36*
G01*
X77650000Y-66425000D02*
X77650000Y-64900000D01*
G75*
G02*
X77825000Y-64725000I175000J0D01*
G01*
X78175000Y-64725000D01*
G75*
G02*
X78350000Y-64900000I0J-175000D01*
G01*
X78350000Y-66425000D01*
G75*
G02*
X78175000Y-66600000I-175000J0D01*
G01*
X77825000Y-66600000D01*
G75*
G02*
X77650000Y-66425000I0J175000D01*
G01*
G37*
G36*
G01*
X78150000Y-66425000D02*
X78150000Y-64900000D01*
G75*
G02*
X78325000Y-64725000I175000J0D01*
G01*
X78675000Y-64725000D01*
G75*
G02*
X78850000Y-64900000I0J-175000D01*
G01*
X78850000Y-66425000D01*
G75*
G02*
X78675000Y-66600000I-175000J0D01*
G01*
X78325000Y-66600000D01*
G75*
G02*
X78150000Y-66425000I0J175000D01*
G01*
G37*
G36*
G01*
X78650000Y-66425000D02*
X78650000Y-64900000D01*
G75*
G02*
X78825000Y-64725000I175000J0D01*
G01*
X79175000Y-64725000D01*
G75*
G02*
X79350000Y-64900000I0J-175000D01*
G01*
X79350000Y-66425000D01*
G75*
G02*
X79175000Y-66600000I-175000J0D01*
G01*
X78825000Y-66600000D01*
G75*
G02*
X78650000Y-66425000I0J175000D01*
G01*
G37*
G36*
G01*
X79150000Y-66425000D02*
X79150000Y-64900000D01*
G75*
G02*
X79325000Y-64725000I175000J0D01*
G01*
X79675000Y-64725000D01*
G75*
G02*
X79850000Y-64900000I0J-175000D01*
G01*
X79850000Y-66425000D01*
G75*
G02*
X79675000Y-66600000I-175000J0D01*
G01*
X79325000Y-66600000D01*
G75*
G02*
X79150000Y-66425000I0J175000D01*
G01*
G37*
G36*
G01*
X79650000Y-66425000D02*
X79650000Y-64900000D01*
G75*
G02*
X79825000Y-64725000I175000J0D01*
G01*
X80175000Y-64725000D01*
G75*
G02*
X80350000Y-64900000I0J-175000D01*
G01*
X80350000Y-66425000D01*
G75*
G02*
X80175000Y-66600000I-175000J0D01*
G01*
X79825000Y-66600000D01*
G75*
G02*
X79650000Y-66425000I0J175000D01*
G01*
G37*
G36*
G01*
X80150000Y-66425000D02*
X80150000Y-64900000D01*
G75*
G02*
X80325000Y-64725000I175000J0D01*
G01*
X80675000Y-64725000D01*
G75*
G02*
X80850000Y-64900000I0J-175000D01*
G01*
X80850000Y-66425000D01*
G75*
G02*
X80675000Y-66600000I-175000J0D01*
G01*
X80325000Y-66600000D01*
G75*
G02*
X80150000Y-66425000I0J175000D01*
G01*
G37*
G36*
G01*
X80650000Y-66425000D02*
X80650000Y-64900000D01*
G75*
G02*
X80825000Y-64725000I175000J0D01*
G01*
X81175000Y-64725000D01*
G75*
G02*
X81350000Y-64900000I0J-175000D01*
G01*
X81350000Y-66425000D01*
G75*
G02*
X81175000Y-66600000I-175000J0D01*
G01*
X80825000Y-66600000D01*
G75*
G02*
X80650000Y-66425000I0J175000D01*
G01*
G37*
G36*
G01*
X81150000Y-66425000D02*
X81150000Y-64900000D01*
G75*
G02*
X81325000Y-64725000I175000J0D01*
G01*
X81675000Y-64725000D01*
G75*
G02*
X81850000Y-64900000I0J-175000D01*
G01*
X81850000Y-66425000D01*
G75*
G02*
X81675000Y-66600000I-175000J0D01*
G01*
X81325000Y-66600000D01*
G75*
G02*
X81150000Y-66425000I0J175000D01*
G01*
G37*
G36*
G01*
X81650000Y-66425000D02*
X81650000Y-64900000D01*
G75*
G02*
X81825000Y-64725000I175000J0D01*
G01*
X82175000Y-64725000D01*
G75*
G02*
X82350000Y-64900000I0J-175000D01*
G01*
X82350000Y-66425000D01*
G75*
G02*
X82175000Y-66600000I-175000J0D01*
G01*
X81825000Y-66600000D01*
G75*
G02*
X81650000Y-66425000I0J175000D01*
G01*
G37*
G36*
G01*
X82150000Y-66425000D02*
X82150000Y-64900000D01*
G75*
G02*
X82325000Y-64725000I175000J0D01*
G01*
X82675000Y-64725000D01*
G75*
G02*
X82850000Y-64900000I0J-175000D01*
G01*
X82850000Y-66425000D01*
G75*
G02*
X82675000Y-66600000I-175000J0D01*
G01*
X82325000Y-66600000D01*
G75*
G02*
X82150000Y-66425000I0J175000D01*
G01*
G37*
G36*
G01*
X82650000Y-66425000D02*
X82650000Y-64900000D01*
G75*
G02*
X82825000Y-64725000I175000J0D01*
G01*
X83175000Y-64725000D01*
G75*
G02*
X83350000Y-64900000I0J-175000D01*
G01*
X83350000Y-66425000D01*
G75*
G02*
X83175000Y-66600000I-175000J0D01*
G01*
X82825000Y-66600000D01*
G75*
G02*
X82650000Y-66425000I0J175000D01*
G01*
G37*
G36*
G01*
X83150000Y-66425000D02*
X83150000Y-64900000D01*
G75*
G02*
X83325000Y-64725000I175000J0D01*
G01*
X83675000Y-64725000D01*
G75*
G02*
X83850000Y-64900000I0J-175000D01*
G01*
X83850000Y-66425000D01*
G75*
G02*
X83675000Y-66600000I-175000J0D01*
G01*
X83325000Y-66600000D01*
G75*
G02*
X83150000Y-66425000I0J175000D01*
G01*
G37*
G36*
G01*
X83650000Y-66425000D02*
X83650000Y-64900000D01*
G75*
G02*
X83825000Y-64725000I175000J0D01*
G01*
X84175000Y-64725000D01*
G75*
G02*
X84350000Y-64900000I0J-175000D01*
G01*
X84350000Y-66425000D01*
G75*
G02*
X84175000Y-66600000I-175000J0D01*
G01*
X83825000Y-66600000D01*
G75*
G02*
X83650000Y-66425000I0J175000D01*
G01*
G37*
G36*
G01*
X84725000Y-64175000D02*
X84725000Y-63825000D01*
G75*
G02*
X84900000Y-63650000I175000J0D01*
G01*
X86425000Y-63650000D01*
G75*
G02*
X86600000Y-63825000I0J-175000D01*
G01*
X86600000Y-64175000D01*
G75*
G02*
X86425000Y-64350000I-175000J0D01*
G01*
X84900000Y-64350000D01*
G75*
G02*
X84725000Y-64175000I0J175000D01*
G01*
G37*
G36*
G01*
X84725000Y-63675000D02*
X84725000Y-63325000D01*
G75*
G02*
X84900000Y-63150000I175000J0D01*
G01*
X86425000Y-63150000D01*
G75*
G02*
X86600000Y-63325000I0J-175000D01*
G01*
X86600000Y-63675000D01*
G75*
G02*
X86425000Y-63850000I-175000J0D01*
G01*
X84900000Y-63850000D01*
G75*
G02*
X84725000Y-63675000I0J175000D01*
G01*
G37*
G36*
G01*
X84725000Y-63175000D02*
X84725000Y-62825000D01*
G75*
G02*
X84900000Y-62650000I175000J0D01*
G01*
X86425000Y-62650000D01*
G75*
G02*
X86600000Y-62825000I0J-175000D01*
G01*
X86600000Y-63175000D01*
G75*
G02*
X86425000Y-63350000I-175000J0D01*
G01*
X84900000Y-63350000D01*
G75*
G02*
X84725000Y-63175000I0J175000D01*
G01*
G37*
G36*
G01*
X84725000Y-62675000D02*
X84725000Y-62325000D01*
G75*
G02*
X84900000Y-62150000I175000J0D01*
G01*
X86425000Y-62150000D01*
G75*
G02*
X86600000Y-62325000I0J-175000D01*
G01*
X86600000Y-62675000D01*
G75*
G02*
X86425000Y-62850000I-175000J0D01*
G01*
X84900000Y-62850000D01*
G75*
G02*
X84725000Y-62675000I0J175000D01*
G01*
G37*
G36*
G01*
X84725000Y-62175000D02*
X84725000Y-61825000D01*
G75*
G02*
X84900000Y-61650000I175000J0D01*
G01*
X86425000Y-61650000D01*
G75*
G02*
X86600000Y-61825000I0J-175000D01*
G01*
X86600000Y-62175000D01*
G75*
G02*
X86425000Y-62350000I-175000J0D01*
G01*
X84900000Y-62350000D01*
G75*
G02*
X84725000Y-62175000I0J175000D01*
G01*
G37*
G36*
G01*
X84725000Y-61675000D02*
X84725000Y-61325000D01*
G75*
G02*
X84900000Y-61150000I175000J0D01*
G01*
X86425000Y-61150000D01*
G75*
G02*
X86600000Y-61325000I0J-175000D01*
G01*
X86600000Y-61675000D01*
G75*
G02*
X86425000Y-61850000I-175000J0D01*
G01*
X84900000Y-61850000D01*
G75*
G02*
X84725000Y-61675000I0J175000D01*
G01*
G37*
G36*
G01*
X84725000Y-61175000D02*
X84725000Y-60825000D01*
G75*
G02*
X84900000Y-60650000I175000J0D01*
G01*
X86425000Y-60650000D01*
G75*
G02*
X86600000Y-60825000I0J-175000D01*
G01*
X86600000Y-61175000D01*
G75*
G02*
X86425000Y-61350000I-175000J0D01*
G01*
X84900000Y-61350000D01*
G75*
G02*
X84725000Y-61175000I0J175000D01*
G01*
G37*
G36*
G01*
X84725000Y-60675000D02*
X84725000Y-60325000D01*
G75*
G02*
X84900000Y-60150000I175000J0D01*
G01*
X86425000Y-60150000D01*
G75*
G02*
X86600000Y-60325000I0J-175000D01*
G01*
X86600000Y-60675000D01*
G75*
G02*
X86425000Y-60850000I-175000J0D01*
G01*
X84900000Y-60850000D01*
G75*
G02*
X84725000Y-60675000I0J175000D01*
G01*
G37*
G36*
G01*
X84725000Y-60175000D02*
X84725000Y-59825000D01*
G75*
G02*
X84900000Y-59650000I175000J0D01*
G01*
X86425000Y-59650000D01*
G75*
G02*
X86600000Y-59825000I0J-175000D01*
G01*
X86600000Y-60175000D01*
G75*
G02*
X86425000Y-60350000I-175000J0D01*
G01*
X84900000Y-60350000D01*
G75*
G02*
X84725000Y-60175000I0J175000D01*
G01*
G37*
G36*
G01*
X84725000Y-59675000D02*
X84725000Y-59325000D01*
G75*
G02*
X84900000Y-59150000I175000J0D01*
G01*
X86425000Y-59150000D01*
G75*
G02*
X86600000Y-59325000I0J-175000D01*
G01*
X86600000Y-59675000D01*
G75*
G02*
X86425000Y-59850000I-175000J0D01*
G01*
X84900000Y-59850000D01*
G75*
G02*
X84725000Y-59675000I0J175000D01*
G01*
G37*
G36*
G01*
X84725000Y-59175000D02*
X84725000Y-58825000D01*
G75*
G02*
X84900000Y-58650000I175000J0D01*
G01*
X86425000Y-58650000D01*
G75*
G02*
X86600000Y-58825000I0J-175000D01*
G01*
X86600000Y-59175000D01*
G75*
G02*
X86425000Y-59350000I-175000J0D01*
G01*
X84900000Y-59350000D01*
G75*
G02*
X84725000Y-59175000I0J175000D01*
G01*
G37*
G36*
G01*
X84725000Y-58675000D02*
X84725000Y-58325000D01*
G75*
G02*
X84900000Y-58150000I175000J0D01*
G01*
X86425000Y-58150000D01*
G75*
G02*
X86600000Y-58325000I0J-175000D01*
G01*
X86600000Y-58675000D01*
G75*
G02*
X86425000Y-58850000I-175000J0D01*
G01*
X84900000Y-58850000D01*
G75*
G02*
X84725000Y-58675000I0J175000D01*
G01*
G37*
G36*
G01*
X84725000Y-58175000D02*
X84725000Y-57825000D01*
G75*
G02*
X84900000Y-57650000I175000J0D01*
G01*
X86425000Y-57650000D01*
G75*
G02*
X86600000Y-57825000I0J-175000D01*
G01*
X86600000Y-58175000D01*
G75*
G02*
X86425000Y-58350000I-175000J0D01*
G01*
X84900000Y-58350000D01*
G75*
G02*
X84725000Y-58175000I0J175000D01*
G01*
G37*
G36*
G01*
X84725000Y-57675000D02*
X84725000Y-57325000D01*
G75*
G02*
X84900000Y-57150000I175000J0D01*
G01*
X86425000Y-57150000D01*
G75*
G02*
X86600000Y-57325000I0J-175000D01*
G01*
X86600000Y-57675000D01*
G75*
G02*
X86425000Y-57850000I-175000J0D01*
G01*
X84900000Y-57850000D01*
G75*
G02*
X84725000Y-57675000I0J175000D01*
G01*
G37*
G36*
G01*
X84725000Y-57175000D02*
X84725000Y-56825000D01*
G75*
G02*
X84900000Y-56650000I175000J0D01*
G01*
X86425000Y-56650000D01*
G75*
G02*
X86600000Y-56825000I0J-175000D01*
G01*
X86600000Y-57175000D01*
G75*
G02*
X86425000Y-57350000I-175000J0D01*
G01*
X84900000Y-57350000D01*
G75*
G02*
X84725000Y-57175000I0J175000D01*
G01*
G37*
G36*
G01*
X84725000Y-56675000D02*
X84725000Y-56325000D01*
G75*
G02*
X84900000Y-56150000I175000J0D01*
G01*
X86425000Y-56150000D01*
G75*
G02*
X86600000Y-56325000I0J-175000D01*
G01*
X86600000Y-56675000D01*
G75*
G02*
X86425000Y-56850000I-175000J0D01*
G01*
X84900000Y-56850000D01*
G75*
G02*
X84725000Y-56675000I0J175000D01*
G01*
G37*
G36*
G01*
X84725000Y-56175000D02*
X84725000Y-55825000D01*
G75*
G02*
X84900000Y-55650000I175000J0D01*
G01*
X86425000Y-55650000D01*
G75*
G02*
X86600000Y-55825000I0J-175000D01*
G01*
X86600000Y-56175000D01*
G75*
G02*
X86425000Y-56350000I-175000J0D01*
G01*
X84900000Y-56350000D01*
G75*
G02*
X84725000Y-56175000I0J175000D01*
G01*
G37*
G36*
G01*
X84725000Y-55675000D02*
X84725000Y-55325000D01*
G75*
G02*
X84900000Y-55150000I175000J0D01*
G01*
X86425000Y-55150000D01*
G75*
G02*
X86600000Y-55325000I0J-175000D01*
G01*
X86600000Y-55675000D01*
G75*
G02*
X86425000Y-55850000I-175000J0D01*
G01*
X84900000Y-55850000D01*
G75*
G02*
X84725000Y-55675000I0J175000D01*
G01*
G37*
G36*
G01*
X84725000Y-55175000D02*
X84725000Y-54825000D01*
G75*
G02*
X84900000Y-54650000I175000J0D01*
G01*
X86425000Y-54650000D01*
G75*
G02*
X86600000Y-54825000I0J-175000D01*
G01*
X86600000Y-55175000D01*
G75*
G02*
X86425000Y-55350000I-175000J0D01*
G01*
X84900000Y-55350000D01*
G75*
G02*
X84725000Y-55175000I0J175000D01*
G01*
G37*
G36*
G01*
X84725000Y-54675000D02*
X84725000Y-54325000D01*
G75*
G02*
X84900000Y-54150000I175000J0D01*
G01*
X86425000Y-54150000D01*
G75*
G02*
X86600000Y-54325000I0J-175000D01*
G01*
X86600000Y-54675000D01*
G75*
G02*
X86425000Y-54850000I-175000J0D01*
G01*
X84900000Y-54850000D01*
G75*
G02*
X84725000Y-54675000I0J175000D01*
G01*
G37*
G36*
G01*
X84725000Y-54175000D02*
X84725000Y-53825000D01*
G75*
G02*
X84900000Y-53650000I175000J0D01*
G01*
X86425000Y-53650000D01*
G75*
G02*
X86600000Y-53825000I0J-175000D01*
G01*
X86600000Y-54175000D01*
G75*
G02*
X86425000Y-54350000I-175000J0D01*
G01*
X84900000Y-54350000D01*
G75*
G02*
X84725000Y-54175000I0J175000D01*
G01*
G37*
G36*
G01*
X84725000Y-53675000D02*
X84725000Y-53325000D01*
G75*
G02*
X84900000Y-53150000I175000J0D01*
G01*
X86425000Y-53150000D01*
G75*
G02*
X86600000Y-53325000I0J-175000D01*
G01*
X86600000Y-53675000D01*
G75*
G02*
X86425000Y-53850000I-175000J0D01*
G01*
X84900000Y-53850000D01*
G75*
G02*
X84725000Y-53675000I0J175000D01*
G01*
G37*
G36*
G01*
X84725000Y-53175000D02*
X84725000Y-52825000D01*
G75*
G02*
X84900000Y-52650000I175000J0D01*
G01*
X86425000Y-52650000D01*
G75*
G02*
X86600000Y-52825000I0J-175000D01*
G01*
X86600000Y-53175000D01*
G75*
G02*
X86425000Y-53350000I-175000J0D01*
G01*
X84900000Y-53350000D01*
G75*
G02*
X84725000Y-53175000I0J175000D01*
G01*
G37*
G36*
G01*
X84725000Y-52675000D02*
X84725000Y-52325000D01*
G75*
G02*
X84900000Y-52150000I175000J0D01*
G01*
X86425000Y-52150000D01*
G75*
G02*
X86600000Y-52325000I0J-175000D01*
G01*
X86600000Y-52675000D01*
G75*
G02*
X86425000Y-52850000I-175000J0D01*
G01*
X84900000Y-52850000D01*
G75*
G02*
X84725000Y-52675000I0J175000D01*
G01*
G37*
G36*
G01*
X84725000Y-52175000D02*
X84725000Y-51825000D01*
G75*
G02*
X84900000Y-51650000I175000J0D01*
G01*
X86425000Y-51650000D01*
G75*
G02*
X86600000Y-51825000I0J-175000D01*
G01*
X86600000Y-52175000D01*
G75*
G02*
X86425000Y-52350000I-175000J0D01*
G01*
X84900000Y-52350000D01*
G75*
G02*
X84725000Y-52175000I0J175000D01*
G01*
G37*
G36*
G01*
X83650000Y-51100000D02*
X83650000Y-49575000D01*
G75*
G02*
X83825000Y-49400000I175000J0D01*
G01*
X84175000Y-49400000D01*
G75*
G02*
X84350000Y-49575000I0J-175000D01*
G01*
X84350000Y-51100000D01*
G75*
G02*
X84175000Y-51275000I-175000J0D01*
G01*
X83825000Y-51275000D01*
G75*
G02*
X83650000Y-51100000I0J175000D01*
G01*
G37*
G36*
G01*
X83150000Y-51100000D02*
X83150000Y-49575000D01*
G75*
G02*
X83325000Y-49400000I175000J0D01*
G01*
X83675000Y-49400000D01*
G75*
G02*
X83850000Y-49575000I0J-175000D01*
G01*
X83850000Y-51100000D01*
G75*
G02*
X83675000Y-51275000I-175000J0D01*
G01*
X83325000Y-51275000D01*
G75*
G02*
X83150000Y-51100000I0J175000D01*
G01*
G37*
G36*
G01*
X82650000Y-51100000D02*
X82650000Y-49575000D01*
G75*
G02*
X82825000Y-49400000I175000J0D01*
G01*
X83175000Y-49400000D01*
G75*
G02*
X83350000Y-49575000I0J-175000D01*
G01*
X83350000Y-51100000D01*
G75*
G02*
X83175000Y-51275000I-175000J0D01*
G01*
X82825000Y-51275000D01*
G75*
G02*
X82650000Y-51100000I0J175000D01*
G01*
G37*
G36*
G01*
X82150000Y-51100000D02*
X82150000Y-49575000D01*
G75*
G02*
X82325000Y-49400000I175000J0D01*
G01*
X82675000Y-49400000D01*
G75*
G02*
X82850000Y-49575000I0J-175000D01*
G01*
X82850000Y-51100000D01*
G75*
G02*
X82675000Y-51275000I-175000J0D01*
G01*
X82325000Y-51275000D01*
G75*
G02*
X82150000Y-51100000I0J175000D01*
G01*
G37*
G36*
G01*
X81650000Y-51100000D02*
X81650000Y-49575000D01*
G75*
G02*
X81825000Y-49400000I175000J0D01*
G01*
X82175000Y-49400000D01*
G75*
G02*
X82350000Y-49575000I0J-175000D01*
G01*
X82350000Y-51100000D01*
G75*
G02*
X82175000Y-51275000I-175000J0D01*
G01*
X81825000Y-51275000D01*
G75*
G02*
X81650000Y-51100000I0J175000D01*
G01*
G37*
G36*
G01*
X81150000Y-51100000D02*
X81150000Y-49575000D01*
G75*
G02*
X81325000Y-49400000I175000J0D01*
G01*
X81675000Y-49400000D01*
G75*
G02*
X81850000Y-49575000I0J-175000D01*
G01*
X81850000Y-51100000D01*
G75*
G02*
X81675000Y-51275000I-175000J0D01*
G01*
X81325000Y-51275000D01*
G75*
G02*
X81150000Y-51100000I0J175000D01*
G01*
G37*
G36*
G01*
X80650000Y-51100000D02*
X80650000Y-49575000D01*
G75*
G02*
X80825000Y-49400000I175000J0D01*
G01*
X81175000Y-49400000D01*
G75*
G02*
X81350000Y-49575000I0J-175000D01*
G01*
X81350000Y-51100000D01*
G75*
G02*
X81175000Y-51275000I-175000J0D01*
G01*
X80825000Y-51275000D01*
G75*
G02*
X80650000Y-51100000I0J175000D01*
G01*
G37*
G36*
G01*
X80150000Y-51100000D02*
X80150000Y-49575000D01*
G75*
G02*
X80325000Y-49400000I175000J0D01*
G01*
X80675000Y-49400000D01*
G75*
G02*
X80850000Y-49575000I0J-175000D01*
G01*
X80850000Y-51100000D01*
G75*
G02*
X80675000Y-51275000I-175000J0D01*
G01*
X80325000Y-51275000D01*
G75*
G02*
X80150000Y-51100000I0J175000D01*
G01*
G37*
G36*
G01*
X79650000Y-51100000D02*
X79650000Y-49575000D01*
G75*
G02*
X79825000Y-49400000I175000J0D01*
G01*
X80175000Y-49400000D01*
G75*
G02*
X80350000Y-49575000I0J-175000D01*
G01*
X80350000Y-51100000D01*
G75*
G02*
X80175000Y-51275000I-175000J0D01*
G01*
X79825000Y-51275000D01*
G75*
G02*
X79650000Y-51100000I0J175000D01*
G01*
G37*
G36*
G01*
X79150000Y-51100000D02*
X79150000Y-49575000D01*
G75*
G02*
X79325000Y-49400000I175000J0D01*
G01*
X79675000Y-49400000D01*
G75*
G02*
X79850000Y-49575000I0J-175000D01*
G01*
X79850000Y-51100000D01*
G75*
G02*
X79675000Y-51275000I-175000J0D01*
G01*
X79325000Y-51275000D01*
G75*
G02*
X79150000Y-51100000I0J175000D01*
G01*
G37*
G36*
G01*
X78650000Y-51100000D02*
X78650000Y-49575000D01*
G75*
G02*
X78825000Y-49400000I175000J0D01*
G01*
X79175000Y-49400000D01*
G75*
G02*
X79350000Y-49575000I0J-175000D01*
G01*
X79350000Y-51100000D01*
G75*
G02*
X79175000Y-51275000I-175000J0D01*
G01*
X78825000Y-51275000D01*
G75*
G02*
X78650000Y-51100000I0J175000D01*
G01*
G37*
G36*
G01*
X78150000Y-51100000D02*
X78150000Y-49575000D01*
G75*
G02*
X78325000Y-49400000I175000J0D01*
G01*
X78675000Y-49400000D01*
G75*
G02*
X78850000Y-49575000I0J-175000D01*
G01*
X78850000Y-51100000D01*
G75*
G02*
X78675000Y-51275000I-175000J0D01*
G01*
X78325000Y-51275000D01*
G75*
G02*
X78150000Y-51100000I0J175000D01*
G01*
G37*
G36*
G01*
X77650000Y-51100000D02*
X77650000Y-49575000D01*
G75*
G02*
X77825000Y-49400000I175000J0D01*
G01*
X78175000Y-49400000D01*
G75*
G02*
X78350000Y-49575000I0J-175000D01*
G01*
X78350000Y-51100000D01*
G75*
G02*
X78175000Y-51275000I-175000J0D01*
G01*
X77825000Y-51275000D01*
G75*
G02*
X77650000Y-51100000I0J175000D01*
G01*
G37*
G36*
G01*
X77150000Y-51100000D02*
X77150000Y-49575000D01*
G75*
G02*
X77325000Y-49400000I175000J0D01*
G01*
X77675000Y-49400000D01*
G75*
G02*
X77850000Y-49575000I0J-175000D01*
G01*
X77850000Y-51100000D01*
G75*
G02*
X77675000Y-51275000I-175000J0D01*
G01*
X77325000Y-51275000D01*
G75*
G02*
X77150000Y-51100000I0J175000D01*
G01*
G37*
G36*
G01*
X76650000Y-51100000D02*
X76650000Y-49575000D01*
G75*
G02*
X76825000Y-49400000I175000J0D01*
G01*
X77175000Y-49400000D01*
G75*
G02*
X77350000Y-49575000I0J-175000D01*
G01*
X77350000Y-51100000D01*
G75*
G02*
X77175000Y-51275000I-175000J0D01*
G01*
X76825000Y-51275000D01*
G75*
G02*
X76650000Y-51100000I0J175000D01*
G01*
G37*
G36*
G01*
X76150000Y-51100000D02*
X76150000Y-49575000D01*
G75*
G02*
X76325000Y-49400000I175000J0D01*
G01*
X76675000Y-49400000D01*
G75*
G02*
X76850000Y-49575000I0J-175000D01*
G01*
X76850000Y-51100000D01*
G75*
G02*
X76675000Y-51275000I-175000J0D01*
G01*
X76325000Y-51275000D01*
G75*
G02*
X76150000Y-51100000I0J175000D01*
G01*
G37*
G36*
G01*
X75650000Y-51100000D02*
X75650000Y-49575000D01*
G75*
G02*
X75825000Y-49400000I175000J0D01*
G01*
X76175000Y-49400000D01*
G75*
G02*
X76350000Y-49575000I0J-175000D01*
G01*
X76350000Y-51100000D01*
G75*
G02*
X76175000Y-51275000I-175000J0D01*
G01*
X75825000Y-51275000D01*
G75*
G02*
X75650000Y-51100000I0J175000D01*
G01*
G37*
G36*
G01*
X75150000Y-51100000D02*
X75150000Y-49575000D01*
G75*
G02*
X75325000Y-49400000I175000J0D01*
G01*
X75675000Y-49400000D01*
G75*
G02*
X75850000Y-49575000I0J-175000D01*
G01*
X75850000Y-51100000D01*
G75*
G02*
X75675000Y-51275000I-175000J0D01*
G01*
X75325000Y-51275000D01*
G75*
G02*
X75150000Y-51100000I0J175000D01*
G01*
G37*
G36*
G01*
X74650000Y-51100000D02*
X74650000Y-49575000D01*
G75*
G02*
X74825000Y-49400000I175000J0D01*
G01*
X75175000Y-49400000D01*
G75*
G02*
X75350000Y-49575000I0J-175000D01*
G01*
X75350000Y-51100000D01*
G75*
G02*
X75175000Y-51275000I-175000J0D01*
G01*
X74825000Y-51275000D01*
G75*
G02*
X74650000Y-51100000I0J175000D01*
G01*
G37*
G36*
G01*
X74150000Y-51100000D02*
X74150000Y-49575000D01*
G75*
G02*
X74325000Y-49400000I175000J0D01*
G01*
X74675000Y-49400000D01*
G75*
G02*
X74850000Y-49575000I0J-175000D01*
G01*
X74850000Y-51100000D01*
G75*
G02*
X74675000Y-51275000I-175000J0D01*
G01*
X74325000Y-51275000D01*
G75*
G02*
X74150000Y-51100000I0J175000D01*
G01*
G37*
G36*
G01*
X73650000Y-51100000D02*
X73650000Y-49575000D01*
G75*
G02*
X73825000Y-49400000I175000J0D01*
G01*
X74175000Y-49400000D01*
G75*
G02*
X74350000Y-49575000I0J-175000D01*
G01*
X74350000Y-51100000D01*
G75*
G02*
X74175000Y-51275000I-175000J0D01*
G01*
X73825000Y-51275000D01*
G75*
G02*
X73650000Y-51100000I0J175000D01*
G01*
G37*
G36*
G01*
X73150000Y-51100000D02*
X73150000Y-49575000D01*
G75*
G02*
X73325000Y-49400000I175000J0D01*
G01*
X73675000Y-49400000D01*
G75*
G02*
X73850000Y-49575000I0J-175000D01*
G01*
X73850000Y-51100000D01*
G75*
G02*
X73675000Y-51275000I-175000J0D01*
G01*
X73325000Y-51275000D01*
G75*
G02*
X73150000Y-51100000I0J175000D01*
G01*
G37*
G36*
G01*
X72650000Y-51100000D02*
X72650000Y-49575000D01*
G75*
G02*
X72825000Y-49400000I175000J0D01*
G01*
X73175000Y-49400000D01*
G75*
G02*
X73350000Y-49575000I0J-175000D01*
G01*
X73350000Y-51100000D01*
G75*
G02*
X73175000Y-51275000I-175000J0D01*
G01*
X72825000Y-51275000D01*
G75*
G02*
X72650000Y-51100000I0J175000D01*
G01*
G37*
G36*
G01*
X72150000Y-51100000D02*
X72150000Y-49575000D01*
G75*
G02*
X72325000Y-49400000I175000J0D01*
G01*
X72675000Y-49400000D01*
G75*
G02*
X72850000Y-49575000I0J-175000D01*
G01*
X72850000Y-51100000D01*
G75*
G02*
X72675000Y-51275000I-175000J0D01*
G01*
X72325000Y-51275000D01*
G75*
G02*
X72150000Y-51100000I0J175000D01*
G01*
G37*
G36*
G01*
X71650000Y-51100000D02*
X71650000Y-49575000D01*
G75*
G02*
X71825000Y-49400000I175000J0D01*
G01*
X72175000Y-49400000D01*
G75*
G02*
X72350000Y-49575000I0J-175000D01*
G01*
X72350000Y-51100000D01*
G75*
G02*
X72175000Y-51275000I-175000J0D01*
G01*
X71825000Y-51275000D01*
G75*
G02*
X71650000Y-51100000I0J175000D01*
G01*
G37*
D17*
X74000000Y-86000000D03*
D18*
X76540000Y-86000000D03*
X79080000Y-86000000D03*
X81620000Y-86000000D03*
X84160000Y-86000000D03*
X86700000Y-86000000D03*
D19*
X40500000Y-82500000D03*
D20*
X40500000Y-81230000D03*
X41770000Y-82500000D03*
X41770000Y-81230000D03*
X43040000Y-82500000D03*
X43040000Y-81230000D03*
X44310000Y-82500000D03*
X44310000Y-81230000D03*
X45580000Y-82500000D03*
X45580000Y-81230000D03*
X46850000Y-82500000D03*
X46850000Y-81230000D03*
X48120000Y-82500000D03*
X48120000Y-81230000D03*
X49390000Y-82500000D03*
X49390000Y-81230000D03*
X50660000Y-82500000D03*
X50660000Y-81230000D03*
X51930000Y-82500000D03*
X51930000Y-81230000D03*
X53200000Y-82500000D03*
X53200000Y-81230000D03*
X54470000Y-82500000D03*
X54470000Y-81230000D03*
X55740000Y-82500000D03*
X55740000Y-81230000D03*
X57010000Y-82500000D03*
X57010000Y-81230000D03*
X58280000Y-82500000D03*
X58280000Y-81230000D03*
D19*
X40500000Y-89000000D03*
D20*
X40500000Y-87730000D03*
X41770000Y-89000000D03*
X41770000Y-87730000D03*
X43040000Y-89000000D03*
X43040000Y-87730000D03*
X44310000Y-89000000D03*
X44310000Y-87730000D03*
X45580000Y-89000000D03*
X45580000Y-87730000D03*
X46850000Y-89000000D03*
X46850000Y-87730000D03*
X48120000Y-89000000D03*
X48120000Y-87730000D03*
X49390000Y-89000000D03*
X49390000Y-87730000D03*
X50660000Y-89000000D03*
X50660000Y-87730000D03*
X51930000Y-89000000D03*
X51930000Y-87730000D03*
X53200000Y-89000000D03*
X53200000Y-87730000D03*
X54470000Y-89000000D03*
X54470000Y-87730000D03*
X55740000Y-89000000D03*
X55740000Y-87730000D03*
X57010000Y-89000000D03*
X57010000Y-87730000D03*
X58280000Y-89000000D03*
X58280000Y-87730000D03*
X59550000Y-89000000D03*
X59550000Y-87730000D03*
X60820000Y-89000000D03*
X60820000Y-87730000D03*
X62090000Y-89000000D03*
X62090000Y-87730000D03*
X63360000Y-89000000D03*
X63360000Y-87730000D03*
M02*
