M48
; DRILL file {KiCad (5.1.10)-1} date 07/12/21 23:35:23
; FORMAT={-:-/ absolute / metric / decimal}
; #@! TF.CreationDate,2021-07-12T23:35:23+02:00
; #@! TF.GenerationSoftware,Kicad,Pcbnew,(5.1.10)-1
; #@! TF.FileFunction,Plated,1,4,PTH
FMAT,2
METRIC
T1C0.200
T2C0.300
T3C0.650
T4C0.800
T5C1.000
T6C1.150
T7C1.168
%
G90
G05
T1
X5.901Y-68.662
X6.125Y-57.673
X7.657Y-34.294
X8.785Y-67.135
X8.818Y-48.925
X9.03Y-61.63
X9.192Y-44.837
X9.288Y-40.824
X9.381Y-23.39
X9.709Y-43.636
X11.958Y-20.055
X12.384Y-31.957
X12.673Y-25.407
X12.808Y-33.694
X12.897Y-28.747
X13.392Y-27.506
X13.888Y-34.294
X13.937Y-70.31
X14.316Y-72.215
X14.461Y-28.564
X14.478Y-45.02
X14.823Y-69.006
X14.897Y-45.515
X14.955Y-62.98
X15.073Y-40.874
X15.191Y-65.865
X15.193Y-46.573
X15.2Y-68.222
X15.463Y-44.497
X15.473Y-63.959
X17.811Y-32.928
X17.91Y-46.27
X17.926Y-39.507
X18.025Y-44.38
X18.086Y-27.597
X18.106Y-30.017
X18.128Y-25.135
X18.54Y-69.646
X18.541Y-70.864
X18.554Y-64.264
X18.912Y-49.368
X18.949Y-33.952
X18.958Y-25.994
X19.003Y-65.297
X19.472Y-67.046
X19.796Y-41.883
X20.429Y-46.584
X21.655Y-30.694
X21.831Y-27.113
X22.01Y-23.472
X22.342Y-29.98
X22.817Y-27.175
X23.516Y-36.142
X23.944Y-28.446
X24.15Y-25.831
X24.667Y-28.452
X24.704Y-67.069
X24.826Y-66.436
X24.952Y-59.452
X24.963Y-65.346
X25.078Y-67.867
X25.087Y-63.843
X25.689Y-20.422
X25.739Y-41.288
X25.813Y-23.967
X25.817Y-26.177
X25.893Y-21.489
X25.908Y-48.836
X26.525Y-59.452
X26.581Y-33.318
X26.641Y-31.81
X27.958Y-36.439
X28.546Y-21.963
X28.806Y-62.411
X28.974Y-61.634
X28.999Y-22.956
X29.164Y-31.209
X29.167Y-28.136
X29.189Y-47.446
X29.215Y-43.364
X29.266Y-67.293
X29.402Y-49.442
X29.579Y-19.172
X29.694Y-29.482
X30.111Y-20.055
X30.138Y-40.015
X30.281Y-67.985
X30.379Y-39.104
X30.594Y-46.301
X30.763Y-48.026
X30.786Y-24.467
X30.809Y-59.452
X30.97Y-25.737
X31.325Y-27.525
X31.55Y-41.756
X32.259Y-66.797
X33.919Y-49.494
X34.111Y-29.905
X34.117Y-43.865
X34.117Y-26.095
X34.121Y-25.073
X34.121Y-28.635
X34.233Y-44.674
X34.269Y-27.621
X34.31Y-62.923
X34.597Y-46.95
X34.718Y-24.0
X35.04Y-48.945
X35.112Y-44.849
X35.203Y-23.085
X35.346Y-66.384
X35.431Y-27.014
X35.724Y-11.687
X36.089Y-18.056
X36.375Y-31.175
X38.187Y-19.215
X38.216Y-20.998
X38.35Y-39.077
X38.605Y-61.401
X38.827Y-19.287
X38.847Y-21.009
X38.847Y-17.936
X38.847Y-70.599
X38.927Y-17.305
X39.007Y-22.801
X39.095Y-64.486
X39.101Y-69.163
X39.154Y-57.63
X39.454Y-39.072
X39.994Y-70.173
X40.553Y-26.66
X40.68Y-43.595
X40.683Y-46.373
X40.743Y-47.376
X40.868Y-24.724
X41.113Y-32.618
X41.154Y-48.945
X41.245Y-11.49
X41.265Y-33.996
X41.527Y-28.019
X41.958Y-41.403
X42.132Y-65.719
X42.239Y-65.088
X42.315Y-24.937
X42.35Y-26.997
X42.38Y-46.405
X42.474Y-42.586
X42.576Y-36.398
X42.706Y-22.024
X42.836Y-28.621
X42.922Y-68.42
X42.999Y-44.342
X43.012Y-29.329
X43.033Y-46.735
X43.307Y-17.84
X43.734Y-35.482
X44.157Y-61.114
X45.12Y-61.69
X45.122Y-16.553
X45.173Y-20.892
X45.185Y-67.08
X45.196Y-69.933
X45.357Y-26.733
X45.621Y-24.841
X45.679Y-28.172
X45.994Y-48.255
X47.559Y-31.179
X48.547Y-59.62
X48.623Y-61.483
X48.629Y-18.217
X48.931Y-60.292
X48.939Y-64.662
X49.092Y-32.341
X49.324Y-41.793
X50.031Y-60.329
X50.032Y-64.021
X50.085Y-74.1
X50.525Y-31.801
X50.59Y-66.249
X51.102Y-73.943
X51.83Y-44.51
X51.877Y-28.969
X51.938Y-24.928
X51.999Y-58.983
X52.675Y-40.088
X53.069Y-27.327
X53.731Y-71.824
X53.974Y-23.911
X54.024Y-44.984
X54.032Y-21.394
X54.033Y-47.914
X54.065Y-41.233
X54.118Y-66.535
X54.123Y-28.945
X54.27Y-50.1
X54.328Y-44.371
X54.332Y-43.115
X54.474Y-68.04
X54.49Y-71.065
X54.963Y-64.598
X55.162Y-62.367
X55.59Y-34.218
X57.925Y-37.191
X57.966Y-38.152
X58.041Y-26.863
X58.094Y-24.925
X58.097Y-62.28
X58.099Y-23.865
X58.1Y-22.583
X58.11Y-30.488
X58.556Y-27.782
X58.564Y-19.941
X58.806Y-71.339
X60.093Y-55.908
X60.162Y-60.105
X60.465Y-77.088
X60.921Y-24.17
X60.986Y-40.763
X61.191Y-64.155
X61.292Y-68.191
X61.345Y-55.99
X61.929Y-68.968
X61.945Y-55.697
X61.998Y-69.62
X62.194Y-32.349
X62.364Y-42.382
X62.502Y-63.391
X62.637Y-69.259
X62.726Y-57.991
X62.803Y-72.215
X63.316Y-43.044
X63.758Y-41.423
X63.952Y-43.109
X64.028Y-75.544
X64.583Y-43.196
X64.765Y-43.905
X64.897Y-31.641
X64.947Y-44.544
X65.749Y-88.382
X65.758Y-83.421
X65.855Y-45.556
X66.56Y-52.415
X66.603Y-51.474
X66.649Y-53.328
X66.762Y-86.125
X66.762Y-81.2
X67.016Y-55.009
X67.024Y-55.675
X67.075Y-52.862
X67.376Y-39.012
X67.731Y-51.675
X67.8Y-24.128
X67.84Y-30.363
X68.287Y-52.075
X68.327Y-42.363
X68.426Y-52.713
X69.037Y-48.331
X69.07Y-56.745
X69.075Y-63.282
X69.451Y-74.346
X69.675Y-49.514
X69.683Y-43.697
X69.812Y-24.551
X70.08Y-22.481
X70.172Y-27.824
X70.444Y-36.988
X70.79Y-31.945
X71.046Y-64.588
X71.218Y-26.083
X71.391Y-47.241
X71.651Y-30.145
X71.679Y-75.582
X71.754Y-56.105
X71.912Y-59.136
X72.441Y-27.295
X72.537Y-71.467
X72.63Y-61.772
X72.91Y-64.493
X72.972Y-63.503
X73.501Y-52.778
X73.561Y-49.154
X73.572Y-61.101
X73.754Y-73.27
X73.84Y-51.607
X73.968Y-56.751
X74.073Y-53.317
X74.621Y-64.499
X74.751Y-57.982
X74.887Y-51.938
X75.291Y-49.176
X75.955Y-71.695
X76.017Y-53.197
X76.107Y-73.176
X76.5Y-64.496
X76.505Y-61.113
X76.6Y-59.111
X76.664Y-52.141
X76.949Y-77.124
X77.041Y-53.183
X77.174Y-27.916
X77.208Y-29.607
X77.258Y-67.528
X77.566Y-56.084
X77.746Y-52.879
X77.828Y-27.38
X78.153Y-29.622
X78.57Y-59.688
X78.582Y-71.48
X78.605Y-67.888
X78.614Y-51.786
X78.787Y-31.411
X78.827Y-48.303
X78.92Y-27.03
X79.124Y-49.109
X79.394Y-53.203
X79.7Y-72.269
X79.709Y-70.95
X79.775Y-67.888
X79.951Y-52.703
X80.627Y-58.88
X80.64Y-64.457
X80.922Y-73.007
X81.053Y-52.69
X81.126Y-67.888
X81.299Y-70.691
X81.34Y-34.507
X81.688Y-35.76
X81.85Y-52.992
X81.887Y-48.654
X82.129Y-67.888
X82.56Y-68.348
X82.712Y-59.995
X82.712Y-63.582
X83.134Y-49.175
X83.3Y-27.868
X83.426Y-29.477
X83.499Y-63.141
X83.5Y-23.254
X83.559Y-30.768
X83.896Y-56.036
X83.997Y-53.234
X84.023Y-54.456
X84.101Y-56.884
X84.261Y-31.546
X84.383Y-53.739
X84.439Y-62.0
X84.445Y-63.505
X84.455Y-60.497
X84.462Y-62.758
X84.563Y-67.89
X84.573Y-29.988
X84.589Y-28.254
X84.733Y-32.889
X85.695Y-18.705
X86.546Y-64.997
X86.815Y-53.33
X86.828Y-54.359
X86.894Y-63.008
X86.896Y-56.429
X87.638Y-53.179
X88.363Y-27.095
X88.678Y-29.75
X89.493Y-31.396
X91.29Y-18.79
X91.635Y-26.998
X91.639Y-32.624
X92.642Y-24.555
X93.408Y-52.072
X93.815Y-62.083
X94.542Y-71.607
X94.739Y-14.329
X94.769Y-65.456
X95.11Y-64.028
X95.5Y-22.288
X95.679Y-29.687
X95.754Y-52.672
X95.947Y-28.061
X96.265Y-37.644
X96.459Y-28.84
X96.555Y-66.457
X96.712Y-46.095
X96.712Y-34.633
X97.238Y-80.066
X97.825Y-70.889
X98.264Y-83.064
X98.83Y-80.205
X98.988Y-68.087
X99.095Y-73.806
X99.145Y-64.601
X99.248Y-83.545
X99.278Y-78.138
X99.987Y-80.145
X100.085Y-78.086
X100.143Y-28.988
X100.369Y-75.695
X100.439Y-67.41
X100.558Y-25.234
X100.681Y-28.533
X100.72Y-80.165
X100.985Y-83.05
X102.246Y-80.437
X102.269Y-73.556
X103.415Y-70.879
X103.541Y-73.541
X104.487Y-70.713
X105.367Y-65.928
X105.999Y-69.18
X106.072Y-73.555
X106.55Y-74.492
X106.886Y-61.44
X107.562Y-58.393
X113.527Y-38.03
X113.543Y-82.556
X116.19Y-80.473
X116.248Y-69.388
X116.335Y-75.113
X116.874Y-74.658
X121.355Y-70.686
X122.158Y-73.784
X122.54Y-80.473
X123.193Y-67.967
X124.445Y-80.207
X125.328Y-70.897
T2
X11.722Y-38.376
X15.062Y-17.781
X16.68Y-56.11
X20.453Y-38.576
X29.83Y-73.2
X31.802Y-59.36
X35.965Y-35.14
X37.7Y-57.24
X41.396Y-17.184
X44.445Y-18.751
X45.27Y-75.418
X47.6Y-33.33
X52.104Y-35.769
X54.95Y-17.9
X57.824Y-60.01
X70.07Y-64.627
X73.51Y-72.08
X78.542Y-38.265
X80.31Y-61.306
X81.313Y-47.149
X83.141Y-53.298
X85.786Y-21.038
X88.241Y-32.851
X88.55Y-70.39
X94.468Y-72.438
X98.938Y-34.337
X101.363Y-24.442
X103.1Y-29.449
X107.366Y-80.267
X107.5Y-59.216
X108.355Y-65.853
X110.175Y-72.319
X110.732Y-68.522
X121.385Y-18.052
T3
X40.5Y-81.23
X40.5Y-82.5
X40.5Y-87.73
X40.5Y-89.0
X41.77Y-81.23
X41.77Y-82.5
X41.77Y-87.73
X41.77Y-89.0
X43.04Y-81.23
X43.04Y-82.5
X43.04Y-87.73
X43.04Y-89.0
X44.31Y-81.23
X44.31Y-82.5
X44.31Y-87.73
X44.31Y-89.0
X45.58Y-81.23
X45.58Y-82.5
X45.58Y-87.73
X45.58Y-89.0
X46.85Y-81.23
X46.85Y-82.5
X46.85Y-87.73
X46.85Y-89.0
X48.12Y-81.23
X48.12Y-82.5
X48.12Y-87.73
X48.12Y-89.0
X49.39Y-81.23
X49.39Y-82.5
X49.39Y-87.73
X49.39Y-89.0
X50.66Y-81.23
X50.66Y-82.5
X50.66Y-87.73
X50.66Y-89.0
X51.93Y-81.23
X51.93Y-82.5
X51.93Y-87.73
X51.93Y-89.0
X53.2Y-81.23
X53.2Y-82.5
X53.2Y-87.73
X53.2Y-89.0
X54.47Y-81.23
X54.47Y-82.5
X54.47Y-87.73
X54.47Y-89.0
X55.74Y-81.23
X55.74Y-82.5
X55.74Y-87.73
X55.74Y-89.0
X57.01Y-81.23
X57.01Y-82.5
X57.01Y-87.73
X57.01Y-89.0
X58.28Y-81.23
X58.28Y-82.5
X58.28Y-87.73
X58.28Y-89.0
X59.55Y-87.73
X59.55Y-89.0
X60.82Y-87.73
X60.82Y-89.0
X62.09Y-87.73
X62.09Y-89.0
X63.36Y-87.73
X63.36Y-89.0
T4
X14.18Y-86.5
X16.72Y-86.5
X19.26Y-86.5
X21.8Y-86.5
X24.34Y-86.5
X26.88Y-86.5
X29.42Y-86.5
X31.96Y-86.5
X34.5Y-86.5
X111.5Y-30.5
X111.5Y-33.04
X111.5Y-35.58
X111.5Y-38.12
X111.5Y-40.66
X111.5Y-43.2
X111.5Y-45.74
X111.5Y-48.28
X111.5Y-50.82
T5
X74.0Y-86.0
X76.54Y-86.0
X79.08Y-86.0
X81.62Y-86.0
X84.16Y-86.0
X86.7Y-86.0
T6
X26.9Y-5.46
X26.9Y-8.0
X26.9Y-10.54
X29.44Y-5.46
X29.44Y-8.0
X29.44Y-10.54
X31.98Y-5.46
X31.98Y-8.0
X31.98Y-10.54
X34.52Y-5.46
X34.52Y-8.0
X34.52Y-10.54
X37.06Y-5.46
X37.06Y-8.0
X37.06Y-10.54
X39.6Y-5.46
X39.6Y-8.0
X39.6Y-10.54
X42.14Y-5.46
X42.14Y-8.0
X42.14Y-10.54
X44.68Y-5.46
X44.68Y-8.0
X44.68Y-10.54
X47.22Y-5.46
X47.22Y-8.0
X47.22Y-10.54
X49.76Y-5.46
X49.76Y-8.0
X49.76Y-10.54
X52.3Y-5.46
X52.3Y-8.0
X52.3Y-10.54
X54.84Y-5.46
X54.84Y-8.0
X54.84Y-10.54
X57.38Y-5.46
X57.38Y-8.0
X57.38Y-10.54
X59.92Y-5.46
X59.92Y-8.0
X59.92Y-10.54
X62.46Y-5.46
X62.46Y-8.0
X62.46Y-10.54
X65.0Y-5.46
X65.0Y-8.0
X65.0Y-10.54
X67.54Y-5.46
X67.54Y-8.0
X67.54Y-10.54
X70.08Y-5.46
X70.08Y-8.0
X70.08Y-10.54
X72.62Y-5.46
X72.62Y-8.0
X72.62Y-10.54
X75.16Y-5.46
X75.16Y-8.0
X75.16Y-10.54
X77.7Y-5.46
X77.7Y-8.0
X77.7Y-10.54
X80.24Y-5.46
X80.24Y-8.0
X80.24Y-10.54
X82.78Y-5.46
X82.78Y-8.0
X82.78Y-10.54
X85.32Y-5.46
X85.32Y-8.0
X85.32Y-10.54
X87.86Y-5.46
X87.86Y-8.0
X87.86Y-10.54
X90.4Y-5.46
X90.4Y-8.0
X90.4Y-10.54
X92.94Y-5.46
X92.94Y-8.0
X92.94Y-10.54
X95.48Y-5.46
X95.48Y-8.0
X95.48Y-10.54
X98.02Y-5.46
X98.02Y-8.0
X98.02Y-10.54
X100.56Y-5.46
X100.56Y-8.0
X100.56Y-10.54
X103.1Y-5.46
X103.1Y-8.0
X103.1Y-10.54
X105.64Y-5.46
X105.64Y-8.0
X105.64Y-10.54
T7
X123.54Y-30.81
X123.54Y-33.35
X123.54Y-35.89
X123.54Y-38.43
X123.54Y-40.97
X123.54Y-43.51
X123.54Y-46.05
X123.54Y-48.59
X123.54Y-51.13
X123.54Y-53.67
X123.54Y-56.21
X123.54Y-58.75
X123.54Y-61.29
X123.54Y-63.83
X123.54Y-66.37
X128.4Y-30.81
X128.4Y-33.35
X128.4Y-35.89
X128.4Y-38.43
X128.4Y-40.97
X128.4Y-43.51
X128.4Y-46.05
X128.4Y-48.59
X128.4Y-51.13
X128.4Y-53.67
X128.4Y-56.21
X128.4Y-58.75
X128.4Y-61.29
X128.4Y-63.83
X128.4Y-66.36
T0
M30
