G04 #@! TF.GenerationSoftware,KiCad,Pcbnew,(5.1.10)-1*
G04 #@! TF.CreationDate,2021-07-12T23:35:15+02:00*
G04 #@! TF.ProjectId,Project_GP8B,50726f6a-6563-4745-9f47-5038422e6b69,V5.1*
G04 #@! TF.SameCoordinates,PX3a2c940PY1e0a6e0*
G04 #@! TF.FileFunction,Soldermask,Top*
G04 #@! TF.FilePolarity,Negative*
%FSLAX46Y46*%
G04 Gerber Fmt 4.6, Leading zero omitted, Abs format (unit mm)*
G04 Created by KiCad (PCBNEW (5.1.10)-1) date 2021-07-12 23:35:15*
%MOMM*%
%LPD*%
G01*
G04 APERTURE LIST*
%ADD10C,2.000000*%
%ADD11C,3.500000*%
%ADD12C,1.750000*%
%ADD13R,1.600000X1.600000*%
%ADD14O,1.600000X1.600000*%
%ADD15R,1.060000X0.650000*%
%ADD16C,3.000000*%
%ADD17R,1.000000X1.000000*%
%ADD18O,1.000000X1.000000*%
%ADD19R,1.700000X1.700000*%
%ADD20O,1.700000X1.700000*%
G04 APERTURE END LIST*
D10*
X128400000Y-30810000D03*
X123540000Y-30810000D03*
X128400000Y-33350000D03*
X123540000Y-33350000D03*
X128400000Y-35890000D03*
X123540000Y-35890000D03*
X128400000Y-38430000D03*
X123540000Y-38430000D03*
X128400000Y-40970000D03*
X123540000Y-40970000D03*
X128400000Y-43510000D03*
X123540000Y-43510000D03*
X128400000Y-46050000D03*
X123540000Y-46050000D03*
X128400000Y-48590000D03*
X123540000Y-48590000D03*
X128400000Y-51130000D03*
X123540000Y-51130000D03*
X128400000Y-53670000D03*
X123540000Y-53670000D03*
X128400000Y-56210000D03*
X123540000Y-56210000D03*
X128400000Y-58750000D03*
X123540000Y-58750000D03*
X128400000Y-61290000D03*
X123540000Y-61290000D03*
X128400000Y-63830000D03*
X123540000Y-63830000D03*
X128400000Y-66360000D03*
X123540000Y-66370000D03*
D11*
X21820000Y-2920000D03*
X110720000Y-2920000D03*
D12*
X105640000Y-10540000D03*
X103100000Y-10540000D03*
X100560000Y-10540000D03*
X98020000Y-10540000D03*
X95480000Y-10540000D03*
X92940000Y-10540000D03*
X90400000Y-10540000D03*
X87860000Y-10540000D03*
X85320000Y-10540000D03*
X82780000Y-10540000D03*
X80240000Y-10540000D03*
X77700000Y-10540000D03*
X75160000Y-10540000D03*
X72620000Y-10540000D03*
X70080000Y-10540000D03*
X67540000Y-10540000D03*
X65000000Y-10540000D03*
X62460000Y-10540000D03*
X59920000Y-10540000D03*
X57380000Y-10540000D03*
X54840000Y-10540000D03*
X52300000Y-10540000D03*
X49760000Y-10540000D03*
X47220000Y-10540000D03*
X44680000Y-10540000D03*
X42140000Y-10540000D03*
X39600000Y-10540000D03*
X37060000Y-10540000D03*
X34520000Y-10540000D03*
X31980000Y-10540000D03*
X29440000Y-10540000D03*
X26900000Y-10540000D03*
X105640000Y-8000000D03*
X103100000Y-8000000D03*
X100560000Y-8000000D03*
X98020000Y-8000000D03*
X95480000Y-8000000D03*
X92940000Y-8000000D03*
X90400000Y-8000000D03*
X87860000Y-8000000D03*
X85320000Y-8000000D03*
X82780000Y-8000000D03*
X80240000Y-8000000D03*
X77700000Y-8000000D03*
X75160000Y-8000000D03*
X72620000Y-8000000D03*
X70080000Y-8000000D03*
X67540000Y-8000000D03*
X65000000Y-8000000D03*
X62460000Y-8000000D03*
X59920000Y-8000000D03*
X57380000Y-8000000D03*
X54840000Y-8000000D03*
X52300000Y-8000000D03*
X49760000Y-8000000D03*
X47220000Y-8000000D03*
X44680000Y-8000000D03*
X42140000Y-8000000D03*
X39600000Y-8000000D03*
X37060000Y-8000000D03*
X34520000Y-8000000D03*
X31980000Y-8000000D03*
X29440000Y-8000000D03*
X26900000Y-8000000D03*
X105640000Y-5460000D03*
X103100000Y-5460000D03*
X100560000Y-5460000D03*
X98020000Y-5460000D03*
X95480000Y-5460000D03*
X92940000Y-5460000D03*
X90400000Y-5460000D03*
X87860000Y-5460000D03*
X85320000Y-5460000D03*
X82780000Y-5460000D03*
X80240000Y-5460000D03*
X77700000Y-5460000D03*
X75160000Y-5460000D03*
X72620000Y-5460000D03*
X70080000Y-5460000D03*
X67540000Y-5460000D03*
X65000000Y-5460000D03*
X62460000Y-5460000D03*
X59920000Y-5460000D03*
X57380000Y-5460000D03*
X54840000Y-5460000D03*
X52300000Y-5460000D03*
X49760000Y-5460000D03*
X47220000Y-5460000D03*
X44680000Y-5460000D03*
X42140000Y-5460000D03*
X39600000Y-5460000D03*
X37060000Y-5460000D03*
X34520000Y-5460000D03*
X31980000Y-5460000D03*
X29440000Y-5460000D03*
X26900000Y-5460000D03*
G36*
G01*
X65925000Y-53543750D02*
X65925000Y-54456250D01*
G75*
G02*
X65681250Y-54700000I-243750J0D01*
G01*
X65193750Y-54700000D01*
G75*
G02*
X64950000Y-54456250I0J243750D01*
G01*
X64950000Y-53543750D01*
G75*
G02*
X65193750Y-53300000I243750J0D01*
G01*
X65681250Y-53300000D01*
G75*
G02*
X65925000Y-53543750I0J-243750D01*
G01*
G37*
G36*
G01*
X64050000Y-53543750D02*
X64050000Y-54456250D01*
G75*
G02*
X63806250Y-54700000I-243750J0D01*
G01*
X63318750Y-54700000D01*
G75*
G02*
X63075000Y-54456250I0J243750D01*
G01*
X63075000Y-53543750D01*
G75*
G02*
X63318750Y-53300000I243750J0D01*
G01*
X63806250Y-53300000D01*
G75*
G02*
X64050000Y-53543750I0J-243750D01*
G01*
G37*
G36*
G01*
X92450000Y-64456250D02*
X92450000Y-63543750D01*
G75*
G02*
X92693750Y-63300000I243750J0D01*
G01*
X93181250Y-63300000D01*
G75*
G02*
X93425000Y-63543750I0J-243750D01*
G01*
X93425000Y-64456250D01*
G75*
G02*
X93181250Y-64700000I-243750J0D01*
G01*
X92693750Y-64700000D01*
G75*
G02*
X92450000Y-64456250I0J243750D01*
G01*
G37*
G36*
G01*
X90575000Y-64456250D02*
X90575000Y-63543750D01*
G75*
G02*
X90818750Y-63300000I243750J0D01*
G01*
X91306250Y-63300000D01*
G75*
G02*
X91550000Y-63543750I0J-243750D01*
G01*
X91550000Y-64456250D01*
G75*
G02*
X91306250Y-64700000I-243750J0D01*
G01*
X90818750Y-64700000D01*
G75*
G02*
X90575000Y-64456250I0J243750D01*
G01*
G37*
G36*
G01*
X18925000Y-58293750D02*
X18925000Y-59206250D01*
G75*
G02*
X18681250Y-59450000I-243750J0D01*
G01*
X18193750Y-59450000D01*
G75*
G02*
X17950000Y-59206250I0J243750D01*
G01*
X17950000Y-58293750D01*
G75*
G02*
X18193750Y-58050000I243750J0D01*
G01*
X18681250Y-58050000D01*
G75*
G02*
X18925000Y-58293750I0J-243750D01*
G01*
G37*
G36*
G01*
X17050000Y-58293750D02*
X17050000Y-59206250D01*
G75*
G02*
X16806250Y-59450000I-243750J0D01*
G01*
X16318750Y-59450000D01*
G75*
G02*
X16075000Y-59206250I0J243750D01*
G01*
X16075000Y-58293750D01*
G75*
G02*
X16318750Y-58050000I243750J0D01*
G01*
X16806250Y-58050000D01*
G75*
G02*
X17050000Y-58293750I0J-243750D01*
G01*
G37*
G36*
G01*
X57050000Y-58293750D02*
X57050000Y-59206250D01*
G75*
G02*
X56806250Y-59450000I-243750J0D01*
G01*
X56318750Y-59450000D01*
G75*
G02*
X56075000Y-59206250I0J243750D01*
G01*
X56075000Y-58293750D01*
G75*
G02*
X56318750Y-58050000I243750J0D01*
G01*
X56806250Y-58050000D01*
G75*
G02*
X57050000Y-58293750I0J-243750D01*
G01*
G37*
G36*
G01*
X58925000Y-58293750D02*
X58925000Y-59206250D01*
G75*
G02*
X58681250Y-59450000I-243750J0D01*
G01*
X58193750Y-59450000D01*
G75*
G02*
X57950000Y-59206250I0J243750D01*
G01*
X57950000Y-58293750D01*
G75*
G02*
X58193750Y-58050000I243750J0D01*
G01*
X58681250Y-58050000D01*
G75*
G02*
X58925000Y-58293750I0J-243750D01*
G01*
G37*
G36*
G01*
X37050000Y-58293750D02*
X37050000Y-59206250D01*
G75*
G02*
X36806250Y-59450000I-243750J0D01*
G01*
X36318750Y-59450000D01*
G75*
G02*
X36075000Y-59206250I0J243750D01*
G01*
X36075000Y-58293750D01*
G75*
G02*
X36318750Y-58050000I243750J0D01*
G01*
X36806250Y-58050000D01*
G75*
G02*
X37050000Y-58293750I0J-243750D01*
G01*
G37*
G36*
G01*
X38925000Y-58293750D02*
X38925000Y-59206250D01*
G75*
G02*
X38681250Y-59450000I-243750J0D01*
G01*
X38193750Y-59450000D01*
G75*
G02*
X37950000Y-59206250I0J243750D01*
G01*
X37950000Y-58293750D01*
G75*
G02*
X38193750Y-58050000I243750J0D01*
G01*
X38681250Y-58050000D01*
G75*
G02*
X38925000Y-58293750I0J-243750D01*
G01*
G37*
G36*
G01*
X78456250Y-45925000D02*
X77543750Y-45925000D01*
G75*
G02*
X77300000Y-45681250I0J243750D01*
G01*
X77300000Y-45193750D01*
G75*
G02*
X77543750Y-44950000I243750J0D01*
G01*
X78456250Y-44950000D01*
G75*
G02*
X78700000Y-45193750I0J-243750D01*
G01*
X78700000Y-45681250D01*
G75*
G02*
X78456250Y-45925000I-243750J0D01*
G01*
G37*
G36*
G01*
X78456250Y-44050000D02*
X77543750Y-44050000D01*
G75*
G02*
X77300000Y-43806250I0J243750D01*
G01*
X77300000Y-43318750D01*
G75*
G02*
X77543750Y-43075000I243750J0D01*
G01*
X78456250Y-43075000D01*
G75*
G02*
X78700000Y-43318750I0J-243750D01*
G01*
X78700000Y-43806250D01*
G75*
G02*
X78456250Y-44050000I-243750J0D01*
G01*
G37*
G36*
G01*
X54575000Y-36956250D02*
X54575000Y-36043750D01*
G75*
G02*
X54818750Y-35800000I243750J0D01*
G01*
X55306250Y-35800000D01*
G75*
G02*
X55550000Y-36043750I0J-243750D01*
G01*
X55550000Y-36956250D01*
G75*
G02*
X55306250Y-37200000I-243750J0D01*
G01*
X54818750Y-37200000D01*
G75*
G02*
X54575000Y-36956250I0J243750D01*
G01*
G37*
G36*
G01*
X56450000Y-36956250D02*
X56450000Y-36043750D01*
G75*
G02*
X56693750Y-35800000I243750J0D01*
G01*
X57181250Y-35800000D01*
G75*
G02*
X57425000Y-36043750I0J-243750D01*
G01*
X57425000Y-36956250D01*
G75*
G02*
X57181250Y-37200000I-243750J0D01*
G01*
X56693750Y-37200000D01*
G75*
G02*
X56450000Y-36956250I0J243750D01*
G01*
G37*
G36*
G01*
X34575000Y-36956250D02*
X34575000Y-36043750D01*
G75*
G02*
X34818750Y-35800000I243750J0D01*
G01*
X35306250Y-35800000D01*
G75*
G02*
X35550000Y-36043750I0J-243750D01*
G01*
X35550000Y-36956250D01*
G75*
G02*
X35306250Y-37200000I-243750J0D01*
G01*
X34818750Y-37200000D01*
G75*
G02*
X34575000Y-36956250I0J243750D01*
G01*
G37*
G36*
G01*
X36450000Y-36956250D02*
X36450000Y-36043750D01*
G75*
G02*
X36693750Y-35800000I243750J0D01*
G01*
X37181250Y-35800000D01*
G75*
G02*
X37425000Y-36043750I0J-243750D01*
G01*
X37425000Y-36956250D01*
G75*
G02*
X37181250Y-37200000I-243750J0D01*
G01*
X36693750Y-37200000D01*
G75*
G02*
X36450000Y-36956250I0J243750D01*
G01*
G37*
G36*
G01*
X16450000Y-36956250D02*
X16450000Y-36043750D01*
G75*
G02*
X16693750Y-35800000I243750J0D01*
G01*
X17181250Y-35800000D01*
G75*
G02*
X17425000Y-36043750I0J-243750D01*
G01*
X17425000Y-36956250D01*
G75*
G02*
X17181250Y-37200000I-243750J0D01*
G01*
X16693750Y-37200000D01*
G75*
G02*
X16450000Y-36956250I0J243750D01*
G01*
G37*
G36*
G01*
X14575000Y-36956250D02*
X14575000Y-36043750D01*
G75*
G02*
X14818750Y-35800000I243750J0D01*
G01*
X15306250Y-35800000D01*
G75*
G02*
X15550000Y-36043750I0J-243750D01*
G01*
X15550000Y-36956250D01*
G75*
G02*
X15306250Y-37200000I-243750J0D01*
G01*
X14818750Y-37200000D01*
G75*
G02*
X14575000Y-36956250I0J243750D01*
G01*
G37*
G36*
G01*
X90575000Y-61456250D02*
X90575000Y-60543750D01*
G75*
G02*
X90818750Y-60300000I243750J0D01*
G01*
X91306250Y-60300000D01*
G75*
G02*
X91550000Y-60543750I0J-243750D01*
G01*
X91550000Y-61456250D01*
G75*
G02*
X91306250Y-61700000I-243750J0D01*
G01*
X90818750Y-61700000D01*
G75*
G02*
X90575000Y-61456250I0J243750D01*
G01*
G37*
G36*
G01*
X92450000Y-61456250D02*
X92450000Y-60543750D01*
G75*
G02*
X92693750Y-60300000I243750J0D01*
G01*
X93181250Y-60300000D01*
G75*
G02*
X93425000Y-60543750I0J-243750D01*
G01*
X93425000Y-61456250D01*
G75*
G02*
X93181250Y-61700000I-243750J0D01*
G01*
X92693750Y-61700000D01*
G75*
G02*
X92450000Y-61456250I0J243750D01*
G01*
G37*
G36*
G01*
X56450000Y-16956250D02*
X56450000Y-16043750D01*
G75*
G02*
X56693750Y-15800000I243750J0D01*
G01*
X57181250Y-15800000D01*
G75*
G02*
X57425000Y-16043750I0J-243750D01*
G01*
X57425000Y-16956250D01*
G75*
G02*
X57181250Y-17200000I-243750J0D01*
G01*
X56693750Y-17200000D01*
G75*
G02*
X56450000Y-16956250I0J243750D01*
G01*
G37*
G36*
G01*
X54575000Y-16956250D02*
X54575000Y-16043750D01*
G75*
G02*
X54818750Y-15800000I243750J0D01*
G01*
X55306250Y-15800000D01*
G75*
G02*
X55550000Y-16043750I0J-243750D01*
G01*
X55550000Y-16956250D01*
G75*
G02*
X55306250Y-17200000I-243750J0D01*
G01*
X54818750Y-17200000D01*
G75*
G02*
X54575000Y-16956250I0J243750D01*
G01*
G37*
G36*
G01*
X73456250Y-45925000D02*
X72543750Y-45925000D01*
G75*
G02*
X72300000Y-45681250I0J243750D01*
G01*
X72300000Y-45193750D01*
G75*
G02*
X72543750Y-44950000I243750J0D01*
G01*
X73456250Y-44950000D01*
G75*
G02*
X73700000Y-45193750I0J-243750D01*
G01*
X73700000Y-45681250D01*
G75*
G02*
X73456250Y-45925000I-243750J0D01*
G01*
G37*
G36*
G01*
X73456250Y-44050000D02*
X72543750Y-44050000D01*
G75*
G02*
X72300000Y-43806250I0J243750D01*
G01*
X72300000Y-43318750D01*
G75*
G02*
X72543750Y-43075000I243750J0D01*
G01*
X73456250Y-43075000D01*
G75*
G02*
X73700000Y-43318750I0J-243750D01*
G01*
X73700000Y-43806250D01*
G75*
G02*
X73456250Y-44050000I-243750J0D01*
G01*
G37*
G36*
G01*
X14575000Y-16956250D02*
X14575000Y-16043750D01*
G75*
G02*
X14818750Y-15800000I243750J0D01*
G01*
X15306250Y-15800000D01*
G75*
G02*
X15550000Y-16043750I0J-243750D01*
G01*
X15550000Y-16956250D01*
G75*
G02*
X15306250Y-17200000I-243750J0D01*
G01*
X14818750Y-17200000D01*
G75*
G02*
X14575000Y-16956250I0J243750D01*
G01*
G37*
G36*
G01*
X16450000Y-16956250D02*
X16450000Y-16043750D01*
G75*
G02*
X16693750Y-15800000I243750J0D01*
G01*
X17181250Y-15800000D01*
G75*
G02*
X17425000Y-16043750I0J-243750D01*
G01*
X17425000Y-16956250D01*
G75*
G02*
X17181250Y-17200000I-243750J0D01*
G01*
X16693750Y-17200000D01*
G75*
G02*
X16450000Y-16956250I0J243750D01*
G01*
G37*
G36*
G01*
X71543750Y-71950000D02*
X72456250Y-71950000D01*
G75*
G02*
X72700000Y-72193750I0J-243750D01*
G01*
X72700000Y-72681250D01*
G75*
G02*
X72456250Y-72925000I-243750J0D01*
G01*
X71543750Y-72925000D01*
G75*
G02*
X71300000Y-72681250I0J243750D01*
G01*
X71300000Y-72193750D01*
G75*
G02*
X71543750Y-71950000I243750J0D01*
G01*
G37*
G36*
G01*
X71543750Y-70075000D02*
X72456250Y-70075000D01*
G75*
G02*
X72700000Y-70318750I0J-243750D01*
G01*
X72700000Y-70806250D01*
G75*
G02*
X72456250Y-71050000I-243750J0D01*
G01*
X71543750Y-71050000D01*
G75*
G02*
X71300000Y-70806250I0J243750D01*
G01*
X71300000Y-70318750D01*
G75*
G02*
X71543750Y-70075000I243750J0D01*
G01*
G37*
G36*
G01*
X36450000Y-16956250D02*
X36450000Y-16043750D01*
G75*
G02*
X36693750Y-15800000I243750J0D01*
G01*
X37181250Y-15800000D01*
G75*
G02*
X37425000Y-16043750I0J-243750D01*
G01*
X37425000Y-16956250D01*
G75*
G02*
X37181250Y-17200000I-243750J0D01*
G01*
X36693750Y-17200000D01*
G75*
G02*
X36450000Y-16956250I0J243750D01*
G01*
G37*
G36*
G01*
X34575000Y-16956250D02*
X34575000Y-16043750D01*
G75*
G02*
X34818750Y-15800000I243750J0D01*
G01*
X35306250Y-15800000D01*
G75*
G02*
X35550000Y-16043750I0J-243750D01*
G01*
X35550000Y-16956250D01*
G75*
G02*
X35306250Y-17200000I-243750J0D01*
G01*
X34818750Y-17200000D01*
G75*
G02*
X34575000Y-16956250I0J243750D01*
G01*
G37*
G36*
G01*
X77543750Y-70075000D02*
X78456250Y-70075000D01*
G75*
G02*
X78700000Y-70318750I0J-243750D01*
G01*
X78700000Y-70806250D01*
G75*
G02*
X78456250Y-71050000I-243750J0D01*
G01*
X77543750Y-71050000D01*
G75*
G02*
X77300000Y-70806250I0J243750D01*
G01*
X77300000Y-70318750D01*
G75*
G02*
X77543750Y-70075000I243750J0D01*
G01*
G37*
G36*
G01*
X77543750Y-71950000D02*
X78456250Y-71950000D01*
G75*
G02*
X78700000Y-72193750I0J-243750D01*
G01*
X78700000Y-72681250D01*
G75*
G02*
X78456250Y-72925000I-243750J0D01*
G01*
X77543750Y-72925000D01*
G75*
G02*
X77300000Y-72681250I0J243750D01*
G01*
X77300000Y-72193750D01*
G75*
G02*
X77543750Y-71950000I243750J0D01*
G01*
G37*
G36*
G01*
X112706250Y-72925000D02*
X111793750Y-72925000D01*
G75*
G02*
X111550000Y-72681250I0J243750D01*
G01*
X111550000Y-72193750D01*
G75*
G02*
X111793750Y-71950000I243750J0D01*
G01*
X112706250Y-71950000D01*
G75*
G02*
X112950000Y-72193750I0J-243750D01*
G01*
X112950000Y-72681250D01*
G75*
G02*
X112706250Y-72925000I-243750J0D01*
G01*
G37*
G36*
G01*
X112706250Y-71050000D02*
X111793750Y-71050000D01*
G75*
G02*
X111550000Y-70806250I0J243750D01*
G01*
X111550000Y-70318750D01*
G75*
G02*
X111793750Y-70075000I243750J0D01*
G01*
X112706250Y-70075000D01*
G75*
G02*
X112950000Y-70318750I0J-243750D01*
G01*
X112950000Y-70806250D01*
G75*
G02*
X112706250Y-71050000I-243750J0D01*
G01*
G37*
G36*
G01*
X92793750Y-71950000D02*
X93706250Y-71950000D01*
G75*
G02*
X93950000Y-72193750I0J-243750D01*
G01*
X93950000Y-72681250D01*
G75*
G02*
X93706250Y-72925000I-243750J0D01*
G01*
X92793750Y-72925000D01*
G75*
G02*
X92550000Y-72681250I0J243750D01*
G01*
X92550000Y-72193750D01*
G75*
G02*
X92793750Y-71950000I243750J0D01*
G01*
G37*
G36*
G01*
X92793750Y-70075000D02*
X93706250Y-70075000D01*
G75*
G02*
X93950000Y-70318750I0J-243750D01*
G01*
X93950000Y-70806250D01*
G75*
G02*
X93706250Y-71050000I-243750J0D01*
G01*
X92793750Y-71050000D01*
G75*
G02*
X92550000Y-70806250I0J243750D01*
G01*
X92550000Y-70318750D01*
G75*
G02*
X92793750Y-70075000I243750J0D01*
G01*
G37*
G36*
G01*
X64050000Y-61043750D02*
X64050000Y-61956250D01*
G75*
G02*
X63806250Y-62200000I-243750J0D01*
G01*
X63318750Y-62200000D01*
G75*
G02*
X63075000Y-61956250I0J243750D01*
G01*
X63075000Y-61043750D01*
G75*
G02*
X63318750Y-60800000I243750J0D01*
G01*
X63806250Y-60800000D01*
G75*
G02*
X64050000Y-61043750I0J-243750D01*
G01*
G37*
G36*
G01*
X65925000Y-61043750D02*
X65925000Y-61956250D01*
G75*
G02*
X65681250Y-62200000I-243750J0D01*
G01*
X65193750Y-62200000D01*
G75*
G02*
X64950000Y-61956250I0J243750D01*
G01*
X64950000Y-61043750D01*
G75*
G02*
X65193750Y-60800000I243750J0D01*
G01*
X65681250Y-60800000D01*
G75*
G02*
X65925000Y-61043750I0J-243750D01*
G01*
G37*
G36*
G01*
X76300000Y-19293750D02*
X76300000Y-20206250D01*
G75*
G02*
X76056250Y-20450000I-243750J0D01*
G01*
X75568750Y-20450000D01*
G75*
G02*
X75325000Y-20206250I0J243750D01*
G01*
X75325000Y-19293750D01*
G75*
G02*
X75568750Y-19050000I243750J0D01*
G01*
X76056250Y-19050000D01*
G75*
G02*
X76300000Y-19293750I0J-243750D01*
G01*
G37*
G36*
G01*
X78175000Y-19293750D02*
X78175000Y-20206250D01*
G75*
G02*
X77931250Y-20450000I-243750J0D01*
G01*
X77443750Y-20450000D01*
G75*
G02*
X77200000Y-20206250I0J243750D01*
G01*
X77200000Y-19293750D01*
G75*
G02*
X77443750Y-19050000I243750J0D01*
G01*
X77931250Y-19050000D01*
G75*
G02*
X78175000Y-19293750I0J-243750D01*
G01*
G37*
G36*
G01*
X99550000Y-22293750D02*
X99550000Y-23206250D01*
G75*
G02*
X99306250Y-23450000I-243750J0D01*
G01*
X98818750Y-23450000D01*
G75*
G02*
X98575000Y-23206250I0J243750D01*
G01*
X98575000Y-22293750D01*
G75*
G02*
X98818750Y-22050000I243750J0D01*
G01*
X99306250Y-22050000D01*
G75*
G02*
X99550000Y-22293750I0J-243750D01*
G01*
G37*
G36*
G01*
X101425000Y-22293750D02*
X101425000Y-23206250D01*
G75*
G02*
X101181250Y-23450000I-243750J0D01*
G01*
X100693750Y-23450000D01*
G75*
G02*
X100450000Y-23206250I0J243750D01*
G01*
X100450000Y-22293750D01*
G75*
G02*
X100693750Y-22050000I243750J0D01*
G01*
X101181250Y-22050000D01*
G75*
G02*
X101425000Y-22293750I0J-243750D01*
G01*
G37*
G36*
G01*
X89425000Y-22293750D02*
X89425000Y-23206250D01*
G75*
G02*
X89181250Y-23450000I-243750J0D01*
G01*
X88693750Y-23450000D01*
G75*
G02*
X88450000Y-23206250I0J243750D01*
G01*
X88450000Y-22293750D01*
G75*
G02*
X88693750Y-22050000I243750J0D01*
G01*
X89181250Y-22050000D01*
G75*
G02*
X89425000Y-22293750I0J-243750D01*
G01*
G37*
G36*
G01*
X87550000Y-22293750D02*
X87550000Y-23206250D01*
G75*
G02*
X87306250Y-23450000I-243750J0D01*
G01*
X86818750Y-23450000D01*
G75*
G02*
X86575000Y-23206250I0J243750D01*
G01*
X86575000Y-22293750D01*
G75*
G02*
X86818750Y-22050000I243750J0D01*
G01*
X87306250Y-22050000D01*
G75*
G02*
X87550000Y-22293750I0J-243750D01*
G01*
G37*
G36*
G01*
X121625000Y-12775000D02*
X122875000Y-12775000D01*
G75*
G02*
X123125000Y-13025000I0J-250000D01*
G01*
X123125000Y-13775000D01*
G75*
G02*
X122875000Y-14025000I-250000J0D01*
G01*
X121625000Y-14025000D01*
G75*
G02*
X121375000Y-13775000I0J250000D01*
G01*
X121375000Y-13025000D01*
G75*
G02*
X121625000Y-12775000I250000J0D01*
G01*
G37*
G36*
G01*
X121625000Y-9975000D02*
X122875000Y-9975000D01*
G75*
G02*
X123125000Y-10225000I0J-250000D01*
G01*
X123125000Y-10975000D01*
G75*
G02*
X122875000Y-11225000I-250000J0D01*
G01*
X121625000Y-11225000D01*
G75*
G02*
X121375000Y-10975000I0J250000D01*
G01*
X121375000Y-10225000D01*
G75*
G02*
X121625000Y-9975000I250000J0D01*
G01*
G37*
G36*
G01*
X117375000Y-9975000D02*
X118625000Y-9975000D01*
G75*
G02*
X118875000Y-10225000I0J-250000D01*
G01*
X118875000Y-10975000D01*
G75*
G02*
X118625000Y-11225000I-250000J0D01*
G01*
X117375000Y-11225000D01*
G75*
G02*
X117125000Y-10975000I0J250000D01*
G01*
X117125000Y-10225000D01*
G75*
G02*
X117375000Y-9975000I250000J0D01*
G01*
G37*
G36*
G01*
X117375000Y-12775000D02*
X118625000Y-12775000D01*
G75*
G02*
X118875000Y-13025000I0J-250000D01*
G01*
X118875000Y-13775000D01*
G75*
G02*
X118625000Y-14025000I-250000J0D01*
G01*
X117375000Y-14025000D01*
G75*
G02*
X117125000Y-13775000I0J250000D01*
G01*
X117125000Y-13025000D01*
G75*
G02*
X117375000Y-12775000I250000J0D01*
G01*
G37*
G36*
G01*
X122706250Y-15800000D02*
X121793750Y-15800000D01*
G75*
G02*
X121550000Y-15556250I0J243750D01*
G01*
X121550000Y-15068750D01*
G75*
G02*
X121793750Y-14825000I243750J0D01*
G01*
X122706250Y-14825000D01*
G75*
G02*
X122950000Y-15068750I0J-243750D01*
G01*
X122950000Y-15556250D01*
G75*
G02*
X122706250Y-15800000I-243750J0D01*
G01*
G37*
G36*
G01*
X122706250Y-17675000D02*
X121793750Y-17675000D01*
G75*
G02*
X121550000Y-17431250I0J243750D01*
G01*
X121550000Y-16943750D01*
G75*
G02*
X121793750Y-16700000I243750J0D01*
G01*
X122706250Y-16700000D01*
G75*
G02*
X122950000Y-16943750I0J-243750D01*
G01*
X122950000Y-17431250D01*
G75*
G02*
X122706250Y-17675000I-243750J0D01*
G01*
G37*
G36*
G01*
X118456250Y-17675000D02*
X117543750Y-17675000D01*
G75*
G02*
X117300000Y-17431250I0J243750D01*
G01*
X117300000Y-16943750D01*
G75*
G02*
X117543750Y-16700000I243750J0D01*
G01*
X118456250Y-16700000D01*
G75*
G02*
X118700000Y-16943750I0J-243750D01*
G01*
X118700000Y-17431250D01*
G75*
G02*
X118456250Y-17675000I-243750J0D01*
G01*
G37*
G36*
G01*
X118456250Y-15800000D02*
X117543750Y-15800000D01*
G75*
G02*
X117300000Y-15556250I0J243750D01*
G01*
X117300000Y-15068750D01*
G75*
G02*
X117543750Y-14825000I243750J0D01*
G01*
X118456250Y-14825000D01*
G75*
G02*
X118700000Y-15068750I0J-243750D01*
G01*
X118700000Y-15556250D01*
G75*
G02*
X118456250Y-15800000I-243750J0D01*
G01*
G37*
D13*
X34500000Y-86500000D03*
D14*
X31960000Y-86500000D03*
X29420000Y-86500000D03*
X26880000Y-86500000D03*
X24340000Y-86500000D03*
X21800000Y-86500000D03*
X19260000Y-86500000D03*
X16720000Y-86500000D03*
X14180000Y-86500000D03*
X111500000Y-50820000D03*
X111500000Y-48280000D03*
X111500000Y-45740000D03*
X111500000Y-43200000D03*
X111500000Y-40660000D03*
X111500000Y-38120000D03*
X111500000Y-35580000D03*
X111500000Y-33040000D03*
D13*
X111500000Y-30500000D03*
G36*
G01*
X74625000Y-21935000D02*
X74625000Y-21635000D01*
G75*
G02*
X74775000Y-21485000I150000J0D01*
G01*
X76525000Y-21485000D01*
G75*
G02*
X76675000Y-21635000I0J-150000D01*
G01*
X76675000Y-21935000D01*
G75*
G02*
X76525000Y-22085000I-150000J0D01*
G01*
X74775000Y-22085000D01*
G75*
G02*
X74625000Y-21935000I0J150000D01*
G01*
G37*
G36*
G01*
X74625000Y-23205000D02*
X74625000Y-22905000D01*
G75*
G02*
X74775000Y-22755000I150000J0D01*
G01*
X76525000Y-22755000D01*
G75*
G02*
X76675000Y-22905000I0J-150000D01*
G01*
X76675000Y-23205000D01*
G75*
G02*
X76525000Y-23355000I-150000J0D01*
G01*
X74775000Y-23355000D01*
G75*
G02*
X74625000Y-23205000I0J150000D01*
G01*
G37*
G36*
G01*
X74625000Y-24475000D02*
X74625000Y-24175000D01*
G75*
G02*
X74775000Y-24025000I150000J0D01*
G01*
X76525000Y-24025000D01*
G75*
G02*
X76675000Y-24175000I0J-150000D01*
G01*
X76675000Y-24475000D01*
G75*
G02*
X76525000Y-24625000I-150000J0D01*
G01*
X74775000Y-24625000D01*
G75*
G02*
X74625000Y-24475000I0J150000D01*
G01*
G37*
G36*
G01*
X74625000Y-25745000D02*
X74625000Y-25445000D01*
G75*
G02*
X74775000Y-25295000I150000J0D01*
G01*
X76525000Y-25295000D01*
G75*
G02*
X76675000Y-25445000I0J-150000D01*
G01*
X76675000Y-25745000D01*
G75*
G02*
X76525000Y-25895000I-150000J0D01*
G01*
X74775000Y-25895000D01*
G75*
G02*
X74625000Y-25745000I0J150000D01*
G01*
G37*
G36*
G01*
X74625000Y-27015000D02*
X74625000Y-26715000D01*
G75*
G02*
X74775000Y-26565000I150000J0D01*
G01*
X76525000Y-26565000D01*
G75*
G02*
X76675000Y-26715000I0J-150000D01*
G01*
X76675000Y-27015000D01*
G75*
G02*
X76525000Y-27165000I-150000J0D01*
G01*
X74775000Y-27165000D01*
G75*
G02*
X74625000Y-27015000I0J150000D01*
G01*
G37*
G36*
G01*
X74625000Y-28285000D02*
X74625000Y-27985000D01*
G75*
G02*
X74775000Y-27835000I150000J0D01*
G01*
X76525000Y-27835000D01*
G75*
G02*
X76675000Y-27985000I0J-150000D01*
G01*
X76675000Y-28285000D01*
G75*
G02*
X76525000Y-28435000I-150000J0D01*
G01*
X74775000Y-28435000D01*
G75*
G02*
X74625000Y-28285000I0J150000D01*
G01*
G37*
G36*
G01*
X74625000Y-29555000D02*
X74625000Y-29255000D01*
G75*
G02*
X74775000Y-29105000I150000J0D01*
G01*
X76525000Y-29105000D01*
G75*
G02*
X76675000Y-29255000I0J-150000D01*
G01*
X76675000Y-29555000D01*
G75*
G02*
X76525000Y-29705000I-150000J0D01*
G01*
X74775000Y-29705000D01*
G75*
G02*
X74625000Y-29555000I0J150000D01*
G01*
G37*
G36*
G01*
X74625000Y-30825000D02*
X74625000Y-30525000D01*
G75*
G02*
X74775000Y-30375000I150000J0D01*
G01*
X76525000Y-30375000D01*
G75*
G02*
X76675000Y-30525000I0J-150000D01*
G01*
X76675000Y-30825000D01*
G75*
G02*
X76525000Y-30975000I-150000J0D01*
G01*
X74775000Y-30975000D01*
G75*
G02*
X74625000Y-30825000I0J150000D01*
G01*
G37*
G36*
G01*
X74625000Y-32095000D02*
X74625000Y-31795000D01*
G75*
G02*
X74775000Y-31645000I150000J0D01*
G01*
X76525000Y-31645000D01*
G75*
G02*
X76675000Y-31795000I0J-150000D01*
G01*
X76675000Y-32095000D01*
G75*
G02*
X76525000Y-32245000I-150000J0D01*
G01*
X74775000Y-32245000D01*
G75*
G02*
X74625000Y-32095000I0J150000D01*
G01*
G37*
G36*
G01*
X74625000Y-33365000D02*
X74625000Y-33065000D01*
G75*
G02*
X74775000Y-32915000I150000J0D01*
G01*
X76525000Y-32915000D01*
G75*
G02*
X76675000Y-33065000I0J-150000D01*
G01*
X76675000Y-33365000D01*
G75*
G02*
X76525000Y-33515000I-150000J0D01*
G01*
X74775000Y-33515000D01*
G75*
G02*
X74625000Y-33365000I0J150000D01*
G01*
G37*
G36*
G01*
X65325000Y-33365000D02*
X65325000Y-33065000D01*
G75*
G02*
X65475000Y-32915000I150000J0D01*
G01*
X67225000Y-32915000D01*
G75*
G02*
X67375000Y-33065000I0J-150000D01*
G01*
X67375000Y-33365000D01*
G75*
G02*
X67225000Y-33515000I-150000J0D01*
G01*
X65475000Y-33515000D01*
G75*
G02*
X65325000Y-33365000I0J150000D01*
G01*
G37*
G36*
G01*
X65325000Y-32095000D02*
X65325000Y-31795000D01*
G75*
G02*
X65475000Y-31645000I150000J0D01*
G01*
X67225000Y-31645000D01*
G75*
G02*
X67375000Y-31795000I0J-150000D01*
G01*
X67375000Y-32095000D01*
G75*
G02*
X67225000Y-32245000I-150000J0D01*
G01*
X65475000Y-32245000D01*
G75*
G02*
X65325000Y-32095000I0J150000D01*
G01*
G37*
G36*
G01*
X65325000Y-30825000D02*
X65325000Y-30525000D01*
G75*
G02*
X65475000Y-30375000I150000J0D01*
G01*
X67225000Y-30375000D01*
G75*
G02*
X67375000Y-30525000I0J-150000D01*
G01*
X67375000Y-30825000D01*
G75*
G02*
X67225000Y-30975000I-150000J0D01*
G01*
X65475000Y-30975000D01*
G75*
G02*
X65325000Y-30825000I0J150000D01*
G01*
G37*
G36*
G01*
X65325000Y-29555000D02*
X65325000Y-29255000D01*
G75*
G02*
X65475000Y-29105000I150000J0D01*
G01*
X67225000Y-29105000D01*
G75*
G02*
X67375000Y-29255000I0J-150000D01*
G01*
X67375000Y-29555000D01*
G75*
G02*
X67225000Y-29705000I-150000J0D01*
G01*
X65475000Y-29705000D01*
G75*
G02*
X65325000Y-29555000I0J150000D01*
G01*
G37*
G36*
G01*
X65325000Y-28285000D02*
X65325000Y-27985000D01*
G75*
G02*
X65475000Y-27835000I150000J0D01*
G01*
X67225000Y-27835000D01*
G75*
G02*
X67375000Y-27985000I0J-150000D01*
G01*
X67375000Y-28285000D01*
G75*
G02*
X67225000Y-28435000I-150000J0D01*
G01*
X65475000Y-28435000D01*
G75*
G02*
X65325000Y-28285000I0J150000D01*
G01*
G37*
G36*
G01*
X65325000Y-27015000D02*
X65325000Y-26715000D01*
G75*
G02*
X65475000Y-26565000I150000J0D01*
G01*
X67225000Y-26565000D01*
G75*
G02*
X67375000Y-26715000I0J-150000D01*
G01*
X67375000Y-27015000D01*
G75*
G02*
X67225000Y-27165000I-150000J0D01*
G01*
X65475000Y-27165000D01*
G75*
G02*
X65325000Y-27015000I0J150000D01*
G01*
G37*
G36*
G01*
X65325000Y-25745000D02*
X65325000Y-25445000D01*
G75*
G02*
X65475000Y-25295000I150000J0D01*
G01*
X67225000Y-25295000D01*
G75*
G02*
X67375000Y-25445000I0J-150000D01*
G01*
X67375000Y-25745000D01*
G75*
G02*
X67225000Y-25895000I-150000J0D01*
G01*
X65475000Y-25895000D01*
G75*
G02*
X65325000Y-25745000I0J150000D01*
G01*
G37*
G36*
G01*
X65325000Y-24475000D02*
X65325000Y-24175000D01*
G75*
G02*
X65475000Y-24025000I150000J0D01*
G01*
X67225000Y-24025000D01*
G75*
G02*
X67375000Y-24175000I0J-150000D01*
G01*
X67375000Y-24475000D01*
G75*
G02*
X67225000Y-24625000I-150000J0D01*
G01*
X65475000Y-24625000D01*
G75*
G02*
X65325000Y-24475000I0J150000D01*
G01*
G37*
G36*
G01*
X65325000Y-23205000D02*
X65325000Y-22905000D01*
G75*
G02*
X65475000Y-22755000I150000J0D01*
G01*
X67225000Y-22755000D01*
G75*
G02*
X67375000Y-22905000I0J-150000D01*
G01*
X67375000Y-23205000D01*
G75*
G02*
X67225000Y-23355000I-150000J0D01*
G01*
X65475000Y-23355000D01*
G75*
G02*
X65325000Y-23205000I0J150000D01*
G01*
G37*
G36*
G01*
X65325000Y-21935000D02*
X65325000Y-21635000D01*
G75*
G02*
X65475000Y-21485000I150000J0D01*
G01*
X67225000Y-21485000D01*
G75*
G02*
X67375000Y-21635000I0J-150000D01*
G01*
X67375000Y-21935000D01*
G75*
G02*
X67225000Y-22085000I-150000J0D01*
G01*
X65475000Y-22085000D01*
G75*
G02*
X65325000Y-21935000I0J150000D01*
G01*
G37*
G36*
G01*
X93050000Y-24705000D02*
X93050000Y-24405000D01*
G75*
G02*
X93200000Y-24255000I150000J0D01*
G01*
X94850000Y-24255000D01*
G75*
G02*
X95000000Y-24405000I0J-150000D01*
G01*
X95000000Y-24705000D01*
G75*
G02*
X94850000Y-24855000I-150000J0D01*
G01*
X93200000Y-24855000D01*
G75*
G02*
X93050000Y-24705000I0J150000D01*
G01*
G37*
G36*
G01*
X93050000Y-25975000D02*
X93050000Y-25675000D01*
G75*
G02*
X93200000Y-25525000I150000J0D01*
G01*
X94850000Y-25525000D01*
G75*
G02*
X95000000Y-25675000I0J-150000D01*
G01*
X95000000Y-25975000D01*
G75*
G02*
X94850000Y-26125000I-150000J0D01*
G01*
X93200000Y-26125000D01*
G75*
G02*
X93050000Y-25975000I0J150000D01*
G01*
G37*
G36*
G01*
X93050000Y-27245000D02*
X93050000Y-26945000D01*
G75*
G02*
X93200000Y-26795000I150000J0D01*
G01*
X94850000Y-26795000D01*
G75*
G02*
X95000000Y-26945000I0J-150000D01*
G01*
X95000000Y-27245000D01*
G75*
G02*
X94850000Y-27395000I-150000J0D01*
G01*
X93200000Y-27395000D01*
G75*
G02*
X93050000Y-27245000I0J150000D01*
G01*
G37*
G36*
G01*
X93050000Y-28515000D02*
X93050000Y-28215000D01*
G75*
G02*
X93200000Y-28065000I150000J0D01*
G01*
X94850000Y-28065000D01*
G75*
G02*
X95000000Y-28215000I0J-150000D01*
G01*
X95000000Y-28515000D01*
G75*
G02*
X94850000Y-28665000I-150000J0D01*
G01*
X93200000Y-28665000D01*
G75*
G02*
X93050000Y-28515000I0J150000D01*
G01*
G37*
G36*
G01*
X93050000Y-29785000D02*
X93050000Y-29485000D01*
G75*
G02*
X93200000Y-29335000I150000J0D01*
G01*
X94850000Y-29335000D01*
G75*
G02*
X95000000Y-29485000I0J-150000D01*
G01*
X95000000Y-29785000D01*
G75*
G02*
X94850000Y-29935000I-150000J0D01*
G01*
X93200000Y-29935000D01*
G75*
G02*
X93050000Y-29785000I0J150000D01*
G01*
G37*
G36*
G01*
X93050000Y-31055000D02*
X93050000Y-30755000D01*
G75*
G02*
X93200000Y-30605000I150000J0D01*
G01*
X94850000Y-30605000D01*
G75*
G02*
X95000000Y-30755000I0J-150000D01*
G01*
X95000000Y-31055000D01*
G75*
G02*
X94850000Y-31205000I-150000J0D01*
G01*
X93200000Y-31205000D01*
G75*
G02*
X93050000Y-31055000I0J150000D01*
G01*
G37*
G36*
G01*
X93050000Y-32325000D02*
X93050000Y-32025000D01*
G75*
G02*
X93200000Y-31875000I150000J0D01*
G01*
X94850000Y-31875000D01*
G75*
G02*
X95000000Y-32025000I0J-150000D01*
G01*
X95000000Y-32325000D01*
G75*
G02*
X94850000Y-32475000I-150000J0D01*
G01*
X93200000Y-32475000D01*
G75*
G02*
X93050000Y-32325000I0J150000D01*
G01*
G37*
G36*
G01*
X93050000Y-33595000D02*
X93050000Y-33295000D01*
G75*
G02*
X93200000Y-33145000I150000J0D01*
G01*
X94850000Y-33145000D01*
G75*
G02*
X95000000Y-33295000I0J-150000D01*
G01*
X95000000Y-33595000D01*
G75*
G02*
X94850000Y-33745000I-150000J0D01*
G01*
X93200000Y-33745000D01*
G75*
G02*
X93050000Y-33595000I0J150000D01*
G01*
G37*
G36*
G01*
X98000000Y-33595000D02*
X98000000Y-33295000D01*
G75*
G02*
X98150000Y-33145000I150000J0D01*
G01*
X99800000Y-33145000D01*
G75*
G02*
X99950000Y-33295000I0J-150000D01*
G01*
X99950000Y-33595000D01*
G75*
G02*
X99800000Y-33745000I-150000J0D01*
G01*
X98150000Y-33745000D01*
G75*
G02*
X98000000Y-33595000I0J150000D01*
G01*
G37*
G36*
G01*
X98000000Y-32325000D02*
X98000000Y-32025000D01*
G75*
G02*
X98150000Y-31875000I150000J0D01*
G01*
X99800000Y-31875000D01*
G75*
G02*
X99950000Y-32025000I0J-150000D01*
G01*
X99950000Y-32325000D01*
G75*
G02*
X99800000Y-32475000I-150000J0D01*
G01*
X98150000Y-32475000D01*
G75*
G02*
X98000000Y-32325000I0J150000D01*
G01*
G37*
G36*
G01*
X98000000Y-31055000D02*
X98000000Y-30755000D01*
G75*
G02*
X98150000Y-30605000I150000J0D01*
G01*
X99800000Y-30605000D01*
G75*
G02*
X99950000Y-30755000I0J-150000D01*
G01*
X99950000Y-31055000D01*
G75*
G02*
X99800000Y-31205000I-150000J0D01*
G01*
X98150000Y-31205000D01*
G75*
G02*
X98000000Y-31055000I0J150000D01*
G01*
G37*
G36*
G01*
X98000000Y-29785000D02*
X98000000Y-29485000D01*
G75*
G02*
X98150000Y-29335000I150000J0D01*
G01*
X99800000Y-29335000D01*
G75*
G02*
X99950000Y-29485000I0J-150000D01*
G01*
X99950000Y-29785000D01*
G75*
G02*
X99800000Y-29935000I-150000J0D01*
G01*
X98150000Y-29935000D01*
G75*
G02*
X98000000Y-29785000I0J150000D01*
G01*
G37*
G36*
G01*
X98000000Y-28515000D02*
X98000000Y-28215000D01*
G75*
G02*
X98150000Y-28065000I150000J0D01*
G01*
X99800000Y-28065000D01*
G75*
G02*
X99950000Y-28215000I0J-150000D01*
G01*
X99950000Y-28515000D01*
G75*
G02*
X99800000Y-28665000I-150000J0D01*
G01*
X98150000Y-28665000D01*
G75*
G02*
X98000000Y-28515000I0J150000D01*
G01*
G37*
G36*
G01*
X98000000Y-27245000D02*
X98000000Y-26945000D01*
G75*
G02*
X98150000Y-26795000I150000J0D01*
G01*
X99800000Y-26795000D01*
G75*
G02*
X99950000Y-26945000I0J-150000D01*
G01*
X99950000Y-27245000D01*
G75*
G02*
X99800000Y-27395000I-150000J0D01*
G01*
X98150000Y-27395000D01*
G75*
G02*
X98000000Y-27245000I0J150000D01*
G01*
G37*
G36*
G01*
X98000000Y-25975000D02*
X98000000Y-25675000D01*
G75*
G02*
X98150000Y-25525000I150000J0D01*
G01*
X99800000Y-25525000D01*
G75*
G02*
X99950000Y-25675000I0J-150000D01*
G01*
X99950000Y-25975000D01*
G75*
G02*
X99800000Y-26125000I-150000J0D01*
G01*
X98150000Y-26125000D01*
G75*
G02*
X98000000Y-25975000I0J150000D01*
G01*
G37*
G36*
G01*
X98000000Y-24705000D02*
X98000000Y-24405000D01*
G75*
G02*
X98150000Y-24255000I150000J0D01*
G01*
X99800000Y-24255000D01*
G75*
G02*
X99950000Y-24405000I0J-150000D01*
G01*
X99950000Y-24705000D01*
G75*
G02*
X99800000Y-24855000I-150000J0D01*
G01*
X98150000Y-24855000D01*
G75*
G02*
X98000000Y-24705000I0J150000D01*
G01*
G37*
G36*
G01*
X26325000Y-38935000D02*
X26325000Y-38635000D01*
G75*
G02*
X26475000Y-38485000I150000J0D01*
G01*
X28225000Y-38485000D01*
G75*
G02*
X28375000Y-38635000I0J-150000D01*
G01*
X28375000Y-38935000D01*
G75*
G02*
X28225000Y-39085000I-150000J0D01*
G01*
X26475000Y-39085000D01*
G75*
G02*
X26325000Y-38935000I0J150000D01*
G01*
G37*
G36*
G01*
X26325000Y-40205000D02*
X26325000Y-39905000D01*
G75*
G02*
X26475000Y-39755000I150000J0D01*
G01*
X28225000Y-39755000D01*
G75*
G02*
X28375000Y-39905000I0J-150000D01*
G01*
X28375000Y-40205000D01*
G75*
G02*
X28225000Y-40355000I-150000J0D01*
G01*
X26475000Y-40355000D01*
G75*
G02*
X26325000Y-40205000I0J150000D01*
G01*
G37*
G36*
G01*
X26325000Y-41475000D02*
X26325000Y-41175000D01*
G75*
G02*
X26475000Y-41025000I150000J0D01*
G01*
X28225000Y-41025000D01*
G75*
G02*
X28375000Y-41175000I0J-150000D01*
G01*
X28375000Y-41475000D01*
G75*
G02*
X28225000Y-41625000I-150000J0D01*
G01*
X26475000Y-41625000D01*
G75*
G02*
X26325000Y-41475000I0J150000D01*
G01*
G37*
G36*
G01*
X26325000Y-42745000D02*
X26325000Y-42445000D01*
G75*
G02*
X26475000Y-42295000I150000J0D01*
G01*
X28225000Y-42295000D01*
G75*
G02*
X28375000Y-42445000I0J-150000D01*
G01*
X28375000Y-42745000D01*
G75*
G02*
X28225000Y-42895000I-150000J0D01*
G01*
X26475000Y-42895000D01*
G75*
G02*
X26325000Y-42745000I0J150000D01*
G01*
G37*
G36*
G01*
X26325000Y-44015000D02*
X26325000Y-43715000D01*
G75*
G02*
X26475000Y-43565000I150000J0D01*
G01*
X28225000Y-43565000D01*
G75*
G02*
X28375000Y-43715000I0J-150000D01*
G01*
X28375000Y-44015000D01*
G75*
G02*
X28225000Y-44165000I-150000J0D01*
G01*
X26475000Y-44165000D01*
G75*
G02*
X26325000Y-44015000I0J150000D01*
G01*
G37*
G36*
G01*
X26325000Y-45285000D02*
X26325000Y-44985000D01*
G75*
G02*
X26475000Y-44835000I150000J0D01*
G01*
X28225000Y-44835000D01*
G75*
G02*
X28375000Y-44985000I0J-150000D01*
G01*
X28375000Y-45285000D01*
G75*
G02*
X28225000Y-45435000I-150000J0D01*
G01*
X26475000Y-45435000D01*
G75*
G02*
X26325000Y-45285000I0J150000D01*
G01*
G37*
G36*
G01*
X26325000Y-46555000D02*
X26325000Y-46255000D01*
G75*
G02*
X26475000Y-46105000I150000J0D01*
G01*
X28225000Y-46105000D01*
G75*
G02*
X28375000Y-46255000I0J-150000D01*
G01*
X28375000Y-46555000D01*
G75*
G02*
X28225000Y-46705000I-150000J0D01*
G01*
X26475000Y-46705000D01*
G75*
G02*
X26325000Y-46555000I0J150000D01*
G01*
G37*
G36*
G01*
X26325000Y-47825000D02*
X26325000Y-47525000D01*
G75*
G02*
X26475000Y-47375000I150000J0D01*
G01*
X28225000Y-47375000D01*
G75*
G02*
X28375000Y-47525000I0J-150000D01*
G01*
X28375000Y-47825000D01*
G75*
G02*
X28225000Y-47975000I-150000J0D01*
G01*
X26475000Y-47975000D01*
G75*
G02*
X26325000Y-47825000I0J150000D01*
G01*
G37*
G36*
G01*
X26325000Y-49095000D02*
X26325000Y-48795000D01*
G75*
G02*
X26475000Y-48645000I150000J0D01*
G01*
X28225000Y-48645000D01*
G75*
G02*
X28375000Y-48795000I0J-150000D01*
G01*
X28375000Y-49095000D01*
G75*
G02*
X28225000Y-49245000I-150000J0D01*
G01*
X26475000Y-49245000D01*
G75*
G02*
X26325000Y-49095000I0J150000D01*
G01*
G37*
G36*
G01*
X26325000Y-50365000D02*
X26325000Y-50065000D01*
G75*
G02*
X26475000Y-49915000I150000J0D01*
G01*
X28225000Y-49915000D01*
G75*
G02*
X28375000Y-50065000I0J-150000D01*
G01*
X28375000Y-50365000D01*
G75*
G02*
X28225000Y-50515000I-150000J0D01*
G01*
X26475000Y-50515000D01*
G75*
G02*
X26325000Y-50365000I0J150000D01*
G01*
G37*
G36*
G01*
X35625000Y-50365000D02*
X35625000Y-50065000D01*
G75*
G02*
X35775000Y-49915000I150000J0D01*
G01*
X37525000Y-49915000D01*
G75*
G02*
X37675000Y-50065000I0J-150000D01*
G01*
X37675000Y-50365000D01*
G75*
G02*
X37525000Y-50515000I-150000J0D01*
G01*
X35775000Y-50515000D01*
G75*
G02*
X35625000Y-50365000I0J150000D01*
G01*
G37*
G36*
G01*
X35625000Y-49095000D02*
X35625000Y-48795000D01*
G75*
G02*
X35775000Y-48645000I150000J0D01*
G01*
X37525000Y-48645000D01*
G75*
G02*
X37675000Y-48795000I0J-150000D01*
G01*
X37675000Y-49095000D01*
G75*
G02*
X37525000Y-49245000I-150000J0D01*
G01*
X35775000Y-49245000D01*
G75*
G02*
X35625000Y-49095000I0J150000D01*
G01*
G37*
G36*
G01*
X35625000Y-47825000D02*
X35625000Y-47525000D01*
G75*
G02*
X35775000Y-47375000I150000J0D01*
G01*
X37525000Y-47375000D01*
G75*
G02*
X37675000Y-47525000I0J-150000D01*
G01*
X37675000Y-47825000D01*
G75*
G02*
X37525000Y-47975000I-150000J0D01*
G01*
X35775000Y-47975000D01*
G75*
G02*
X35625000Y-47825000I0J150000D01*
G01*
G37*
G36*
G01*
X35625000Y-46555000D02*
X35625000Y-46255000D01*
G75*
G02*
X35775000Y-46105000I150000J0D01*
G01*
X37525000Y-46105000D01*
G75*
G02*
X37675000Y-46255000I0J-150000D01*
G01*
X37675000Y-46555000D01*
G75*
G02*
X37525000Y-46705000I-150000J0D01*
G01*
X35775000Y-46705000D01*
G75*
G02*
X35625000Y-46555000I0J150000D01*
G01*
G37*
G36*
G01*
X35625000Y-45285000D02*
X35625000Y-44985000D01*
G75*
G02*
X35775000Y-44835000I150000J0D01*
G01*
X37525000Y-44835000D01*
G75*
G02*
X37675000Y-44985000I0J-150000D01*
G01*
X37675000Y-45285000D01*
G75*
G02*
X37525000Y-45435000I-150000J0D01*
G01*
X35775000Y-45435000D01*
G75*
G02*
X35625000Y-45285000I0J150000D01*
G01*
G37*
G36*
G01*
X35625000Y-44015000D02*
X35625000Y-43715000D01*
G75*
G02*
X35775000Y-43565000I150000J0D01*
G01*
X37525000Y-43565000D01*
G75*
G02*
X37675000Y-43715000I0J-150000D01*
G01*
X37675000Y-44015000D01*
G75*
G02*
X37525000Y-44165000I-150000J0D01*
G01*
X35775000Y-44165000D01*
G75*
G02*
X35625000Y-44015000I0J150000D01*
G01*
G37*
G36*
G01*
X35625000Y-42745000D02*
X35625000Y-42445000D01*
G75*
G02*
X35775000Y-42295000I150000J0D01*
G01*
X37525000Y-42295000D01*
G75*
G02*
X37675000Y-42445000I0J-150000D01*
G01*
X37675000Y-42745000D01*
G75*
G02*
X37525000Y-42895000I-150000J0D01*
G01*
X35775000Y-42895000D01*
G75*
G02*
X35625000Y-42745000I0J150000D01*
G01*
G37*
G36*
G01*
X35625000Y-41475000D02*
X35625000Y-41175000D01*
G75*
G02*
X35775000Y-41025000I150000J0D01*
G01*
X37525000Y-41025000D01*
G75*
G02*
X37675000Y-41175000I0J-150000D01*
G01*
X37675000Y-41475000D01*
G75*
G02*
X37525000Y-41625000I-150000J0D01*
G01*
X35775000Y-41625000D01*
G75*
G02*
X35625000Y-41475000I0J150000D01*
G01*
G37*
G36*
G01*
X35625000Y-40205000D02*
X35625000Y-39905000D01*
G75*
G02*
X35775000Y-39755000I150000J0D01*
G01*
X37525000Y-39755000D01*
G75*
G02*
X37675000Y-39905000I0J-150000D01*
G01*
X37675000Y-40205000D01*
G75*
G02*
X37525000Y-40355000I-150000J0D01*
G01*
X35775000Y-40355000D01*
G75*
G02*
X35625000Y-40205000I0J150000D01*
G01*
G37*
G36*
G01*
X35625000Y-38935000D02*
X35625000Y-38635000D01*
G75*
G02*
X35775000Y-38485000I150000J0D01*
G01*
X37525000Y-38485000D01*
G75*
G02*
X37675000Y-38635000I0J-150000D01*
G01*
X37675000Y-38935000D01*
G75*
G02*
X37525000Y-39085000I-150000J0D01*
G01*
X35775000Y-39085000D01*
G75*
G02*
X35625000Y-38935000I0J150000D01*
G01*
G37*
G36*
G01*
X86000000Y-24705000D02*
X86000000Y-24405000D01*
G75*
G02*
X86150000Y-24255000I150000J0D01*
G01*
X87800000Y-24255000D01*
G75*
G02*
X87950000Y-24405000I0J-150000D01*
G01*
X87950000Y-24705000D01*
G75*
G02*
X87800000Y-24855000I-150000J0D01*
G01*
X86150000Y-24855000D01*
G75*
G02*
X86000000Y-24705000I0J150000D01*
G01*
G37*
G36*
G01*
X86000000Y-25975000D02*
X86000000Y-25675000D01*
G75*
G02*
X86150000Y-25525000I150000J0D01*
G01*
X87800000Y-25525000D01*
G75*
G02*
X87950000Y-25675000I0J-150000D01*
G01*
X87950000Y-25975000D01*
G75*
G02*
X87800000Y-26125000I-150000J0D01*
G01*
X86150000Y-26125000D01*
G75*
G02*
X86000000Y-25975000I0J150000D01*
G01*
G37*
G36*
G01*
X86000000Y-27245000D02*
X86000000Y-26945000D01*
G75*
G02*
X86150000Y-26795000I150000J0D01*
G01*
X87800000Y-26795000D01*
G75*
G02*
X87950000Y-26945000I0J-150000D01*
G01*
X87950000Y-27245000D01*
G75*
G02*
X87800000Y-27395000I-150000J0D01*
G01*
X86150000Y-27395000D01*
G75*
G02*
X86000000Y-27245000I0J150000D01*
G01*
G37*
G36*
G01*
X86000000Y-28515000D02*
X86000000Y-28215000D01*
G75*
G02*
X86150000Y-28065000I150000J0D01*
G01*
X87800000Y-28065000D01*
G75*
G02*
X87950000Y-28215000I0J-150000D01*
G01*
X87950000Y-28515000D01*
G75*
G02*
X87800000Y-28665000I-150000J0D01*
G01*
X86150000Y-28665000D01*
G75*
G02*
X86000000Y-28515000I0J150000D01*
G01*
G37*
G36*
G01*
X86000000Y-29785000D02*
X86000000Y-29485000D01*
G75*
G02*
X86150000Y-29335000I150000J0D01*
G01*
X87800000Y-29335000D01*
G75*
G02*
X87950000Y-29485000I0J-150000D01*
G01*
X87950000Y-29785000D01*
G75*
G02*
X87800000Y-29935000I-150000J0D01*
G01*
X86150000Y-29935000D01*
G75*
G02*
X86000000Y-29785000I0J150000D01*
G01*
G37*
G36*
G01*
X86000000Y-31055000D02*
X86000000Y-30755000D01*
G75*
G02*
X86150000Y-30605000I150000J0D01*
G01*
X87800000Y-30605000D01*
G75*
G02*
X87950000Y-30755000I0J-150000D01*
G01*
X87950000Y-31055000D01*
G75*
G02*
X87800000Y-31205000I-150000J0D01*
G01*
X86150000Y-31205000D01*
G75*
G02*
X86000000Y-31055000I0J150000D01*
G01*
G37*
G36*
G01*
X86000000Y-32325000D02*
X86000000Y-32025000D01*
G75*
G02*
X86150000Y-31875000I150000J0D01*
G01*
X87800000Y-31875000D01*
G75*
G02*
X87950000Y-32025000I0J-150000D01*
G01*
X87950000Y-32325000D01*
G75*
G02*
X87800000Y-32475000I-150000J0D01*
G01*
X86150000Y-32475000D01*
G75*
G02*
X86000000Y-32325000I0J150000D01*
G01*
G37*
G36*
G01*
X86000000Y-33595000D02*
X86000000Y-33295000D01*
G75*
G02*
X86150000Y-33145000I150000J0D01*
G01*
X87800000Y-33145000D01*
G75*
G02*
X87950000Y-33295000I0J-150000D01*
G01*
X87950000Y-33595000D01*
G75*
G02*
X87800000Y-33745000I-150000J0D01*
G01*
X86150000Y-33745000D01*
G75*
G02*
X86000000Y-33595000I0J150000D01*
G01*
G37*
G36*
G01*
X81050000Y-33595000D02*
X81050000Y-33295000D01*
G75*
G02*
X81200000Y-33145000I150000J0D01*
G01*
X82850000Y-33145000D01*
G75*
G02*
X83000000Y-33295000I0J-150000D01*
G01*
X83000000Y-33595000D01*
G75*
G02*
X82850000Y-33745000I-150000J0D01*
G01*
X81200000Y-33745000D01*
G75*
G02*
X81050000Y-33595000I0J150000D01*
G01*
G37*
G36*
G01*
X81050000Y-32325000D02*
X81050000Y-32025000D01*
G75*
G02*
X81200000Y-31875000I150000J0D01*
G01*
X82850000Y-31875000D01*
G75*
G02*
X83000000Y-32025000I0J-150000D01*
G01*
X83000000Y-32325000D01*
G75*
G02*
X82850000Y-32475000I-150000J0D01*
G01*
X81200000Y-32475000D01*
G75*
G02*
X81050000Y-32325000I0J150000D01*
G01*
G37*
G36*
G01*
X81050000Y-31055000D02*
X81050000Y-30755000D01*
G75*
G02*
X81200000Y-30605000I150000J0D01*
G01*
X82850000Y-30605000D01*
G75*
G02*
X83000000Y-30755000I0J-150000D01*
G01*
X83000000Y-31055000D01*
G75*
G02*
X82850000Y-31205000I-150000J0D01*
G01*
X81200000Y-31205000D01*
G75*
G02*
X81050000Y-31055000I0J150000D01*
G01*
G37*
G36*
G01*
X81050000Y-29785000D02*
X81050000Y-29485000D01*
G75*
G02*
X81200000Y-29335000I150000J0D01*
G01*
X82850000Y-29335000D01*
G75*
G02*
X83000000Y-29485000I0J-150000D01*
G01*
X83000000Y-29785000D01*
G75*
G02*
X82850000Y-29935000I-150000J0D01*
G01*
X81200000Y-29935000D01*
G75*
G02*
X81050000Y-29785000I0J150000D01*
G01*
G37*
G36*
G01*
X81050000Y-28515000D02*
X81050000Y-28215000D01*
G75*
G02*
X81200000Y-28065000I150000J0D01*
G01*
X82850000Y-28065000D01*
G75*
G02*
X83000000Y-28215000I0J-150000D01*
G01*
X83000000Y-28515000D01*
G75*
G02*
X82850000Y-28665000I-150000J0D01*
G01*
X81200000Y-28665000D01*
G75*
G02*
X81050000Y-28515000I0J150000D01*
G01*
G37*
G36*
G01*
X81050000Y-27245000D02*
X81050000Y-26945000D01*
G75*
G02*
X81200000Y-26795000I150000J0D01*
G01*
X82850000Y-26795000D01*
G75*
G02*
X83000000Y-26945000I0J-150000D01*
G01*
X83000000Y-27245000D01*
G75*
G02*
X82850000Y-27395000I-150000J0D01*
G01*
X81200000Y-27395000D01*
G75*
G02*
X81050000Y-27245000I0J150000D01*
G01*
G37*
G36*
G01*
X81050000Y-25975000D02*
X81050000Y-25675000D01*
G75*
G02*
X81200000Y-25525000I150000J0D01*
G01*
X82850000Y-25525000D01*
G75*
G02*
X83000000Y-25675000I0J-150000D01*
G01*
X83000000Y-25975000D01*
G75*
G02*
X82850000Y-26125000I-150000J0D01*
G01*
X81200000Y-26125000D01*
G75*
G02*
X81050000Y-25975000I0J150000D01*
G01*
G37*
G36*
G01*
X81050000Y-24705000D02*
X81050000Y-24405000D01*
G75*
G02*
X81200000Y-24255000I150000J0D01*
G01*
X82850000Y-24255000D01*
G75*
G02*
X83000000Y-24405000I0J-150000D01*
G01*
X83000000Y-24705000D01*
G75*
G02*
X82850000Y-24855000I-150000J0D01*
G01*
X81200000Y-24855000D01*
G75*
G02*
X81050000Y-24705000I0J150000D01*
G01*
G37*
G36*
G01*
X55625000Y-38935000D02*
X55625000Y-38635000D01*
G75*
G02*
X55775000Y-38485000I150000J0D01*
G01*
X57525000Y-38485000D01*
G75*
G02*
X57675000Y-38635000I0J-150000D01*
G01*
X57675000Y-38935000D01*
G75*
G02*
X57525000Y-39085000I-150000J0D01*
G01*
X55775000Y-39085000D01*
G75*
G02*
X55625000Y-38935000I0J150000D01*
G01*
G37*
G36*
G01*
X55625000Y-40205000D02*
X55625000Y-39905000D01*
G75*
G02*
X55775000Y-39755000I150000J0D01*
G01*
X57525000Y-39755000D01*
G75*
G02*
X57675000Y-39905000I0J-150000D01*
G01*
X57675000Y-40205000D01*
G75*
G02*
X57525000Y-40355000I-150000J0D01*
G01*
X55775000Y-40355000D01*
G75*
G02*
X55625000Y-40205000I0J150000D01*
G01*
G37*
G36*
G01*
X55625000Y-41475000D02*
X55625000Y-41175000D01*
G75*
G02*
X55775000Y-41025000I150000J0D01*
G01*
X57525000Y-41025000D01*
G75*
G02*
X57675000Y-41175000I0J-150000D01*
G01*
X57675000Y-41475000D01*
G75*
G02*
X57525000Y-41625000I-150000J0D01*
G01*
X55775000Y-41625000D01*
G75*
G02*
X55625000Y-41475000I0J150000D01*
G01*
G37*
G36*
G01*
X55625000Y-42745000D02*
X55625000Y-42445000D01*
G75*
G02*
X55775000Y-42295000I150000J0D01*
G01*
X57525000Y-42295000D01*
G75*
G02*
X57675000Y-42445000I0J-150000D01*
G01*
X57675000Y-42745000D01*
G75*
G02*
X57525000Y-42895000I-150000J0D01*
G01*
X55775000Y-42895000D01*
G75*
G02*
X55625000Y-42745000I0J150000D01*
G01*
G37*
G36*
G01*
X55625000Y-44015000D02*
X55625000Y-43715000D01*
G75*
G02*
X55775000Y-43565000I150000J0D01*
G01*
X57525000Y-43565000D01*
G75*
G02*
X57675000Y-43715000I0J-150000D01*
G01*
X57675000Y-44015000D01*
G75*
G02*
X57525000Y-44165000I-150000J0D01*
G01*
X55775000Y-44165000D01*
G75*
G02*
X55625000Y-44015000I0J150000D01*
G01*
G37*
G36*
G01*
X55625000Y-45285000D02*
X55625000Y-44985000D01*
G75*
G02*
X55775000Y-44835000I150000J0D01*
G01*
X57525000Y-44835000D01*
G75*
G02*
X57675000Y-44985000I0J-150000D01*
G01*
X57675000Y-45285000D01*
G75*
G02*
X57525000Y-45435000I-150000J0D01*
G01*
X55775000Y-45435000D01*
G75*
G02*
X55625000Y-45285000I0J150000D01*
G01*
G37*
G36*
G01*
X55625000Y-46555000D02*
X55625000Y-46255000D01*
G75*
G02*
X55775000Y-46105000I150000J0D01*
G01*
X57525000Y-46105000D01*
G75*
G02*
X57675000Y-46255000I0J-150000D01*
G01*
X57675000Y-46555000D01*
G75*
G02*
X57525000Y-46705000I-150000J0D01*
G01*
X55775000Y-46705000D01*
G75*
G02*
X55625000Y-46555000I0J150000D01*
G01*
G37*
G36*
G01*
X55625000Y-47825000D02*
X55625000Y-47525000D01*
G75*
G02*
X55775000Y-47375000I150000J0D01*
G01*
X57525000Y-47375000D01*
G75*
G02*
X57675000Y-47525000I0J-150000D01*
G01*
X57675000Y-47825000D01*
G75*
G02*
X57525000Y-47975000I-150000J0D01*
G01*
X55775000Y-47975000D01*
G75*
G02*
X55625000Y-47825000I0J150000D01*
G01*
G37*
G36*
G01*
X55625000Y-49095000D02*
X55625000Y-48795000D01*
G75*
G02*
X55775000Y-48645000I150000J0D01*
G01*
X57525000Y-48645000D01*
G75*
G02*
X57675000Y-48795000I0J-150000D01*
G01*
X57675000Y-49095000D01*
G75*
G02*
X57525000Y-49245000I-150000J0D01*
G01*
X55775000Y-49245000D01*
G75*
G02*
X55625000Y-49095000I0J150000D01*
G01*
G37*
G36*
G01*
X55625000Y-50365000D02*
X55625000Y-50065000D01*
G75*
G02*
X55775000Y-49915000I150000J0D01*
G01*
X57525000Y-49915000D01*
G75*
G02*
X57675000Y-50065000I0J-150000D01*
G01*
X57675000Y-50365000D01*
G75*
G02*
X57525000Y-50515000I-150000J0D01*
G01*
X55775000Y-50515000D01*
G75*
G02*
X55625000Y-50365000I0J150000D01*
G01*
G37*
G36*
G01*
X46325000Y-50365000D02*
X46325000Y-50065000D01*
G75*
G02*
X46475000Y-49915000I150000J0D01*
G01*
X48225000Y-49915000D01*
G75*
G02*
X48375000Y-50065000I0J-150000D01*
G01*
X48375000Y-50365000D01*
G75*
G02*
X48225000Y-50515000I-150000J0D01*
G01*
X46475000Y-50515000D01*
G75*
G02*
X46325000Y-50365000I0J150000D01*
G01*
G37*
G36*
G01*
X46325000Y-49095000D02*
X46325000Y-48795000D01*
G75*
G02*
X46475000Y-48645000I150000J0D01*
G01*
X48225000Y-48645000D01*
G75*
G02*
X48375000Y-48795000I0J-150000D01*
G01*
X48375000Y-49095000D01*
G75*
G02*
X48225000Y-49245000I-150000J0D01*
G01*
X46475000Y-49245000D01*
G75*
G02*
X46325000Y-49095000I0J150000D01*
G01*
G37*
G36*
G01*
X46325000Y-47825000D02*
X46325000Y-47525000D01*
G75*
G02*
X46475000Y-47375000I150000J0D01*
G01*
X48225000Y-47375000D01*
G75*
G02*
X48375000Y-47525000I0J-150000D01*
G01*
X48375000Y-47825000D01*
G75*
G02*
X48225000Y-47975000I-150000J0D01*
G01*
X46475000Y-47975000D01*
G75*
G02*
X46325000Y-47825000I0J150000D01*
G01*
G37*
G36*
G01*
X46325000Y-46555000D02*
X46325000Y-46255000D01*
G75*
G02*
X46475000Y-46105000I150000J0D01*
G01*
X48225000Y-46105000D01*
G75*
G02*
X48375000Y-46255000I0J-150000D01*
G01*
X48375000Y-46555000D01*
G75*
G02*
X48225000Y-46705000I-150000J0D01*
G01*
X46475000Y-46705000D01*
G75*
G02*
X46325000Y-46555000I0J150000D01*
G01*
G37*
G36*
G01*
X46325000Y-45285000D02*
X46325000Y-44985000D01*
G75*
G02*
X46475000Y-44835000I150000J0D01*
G01*
X48225000Y-44835000D01*
G75*
G02*
X48375000Y-44985000I0J-150000D01*
G01*
X48375000Y-45285000D01*
G75*
G02*
X48225000Y-45435000I-150000J0D01*
G01*
X46475000Y-45435000D01*
G75*
G02*
X46325000Y-45285000I0J150000D01*
G01*
G37*
G36*
G01*
X46325000Y-44015000D02*
X46325000Y-43715000D01*
G75*
G02*
X46475000Y-43565000I150000J0D01*
G01*
X48225000Y-43565000D01*
G75*
G02*
X48375000Y-43715000I0J-150000D01*
G01*
X48375000Y-44015000D01*
G75*
G02*
X48225000Y-44165000I-150000J0D01*
G01*
X46475000Y-44165000D01*
G75*
G02*
X46325000Y-44015000I0J150000D01*
G01*
G37*
G36*
G01*
X46325000Y-42745000D02*
X46325000Y-42445000D01*
G75*
G02*
X46475000Y-42295000I150000J0D01*
G01*
X48225000Y-42295000D01*
G75*
G02*
X48375000Y-42445000I0J-150000D01*
G01*
X48375000Y-42745000D01*
G75*
G02*
X48225000Y-42895000I-150000J0D01*
G01*
X46475000Y-42895000D01*
G75*
G02*
X46325000Y-42745000I0J150000D01*
G01*
G37*
G36*
G01*
X46325000Y-41475000D02*
X46325000Y-41175000D01*
G75*
G02*
X46475000Y-41025000I150000J0D01*
G01*
X48225000Y-41025000D01*
G75*
G02*
X48375000Y-41175000I0J-150000D01*
G01*
X48375000Y-41475000D01*
G75*
G02*
X48225000Y-41625000I-150000J0D01*
G01*
X46475000Y-41625000D01*
G75*
G02*
X46325000Y-41475000I0J150000D01*
G01*
G37*
G36*
G01*
X46325000Y-40205000D02*
X46325000Y-39905000D01*
G75*
G02*
X46475000Y-39755000I150000J0D01*
G01*
X48225000Y-39755000D01*
G75*
G02*
X48375000Y-39905000I0J-150000D01*
G01*
X48375000Y-40205000D01*
G75*
G02*
X48225000Y-40355000I-150000J0D01*
G01*
X46475000Y-40355000D01*
G75*
G02*
X46325000Y-40205000I0J150000D01*
G01*
G37*
G36*
G01*
X46325000Y-38935000D02*
X46325000Y-38635000D01*
G75*
G02*
X46475000Y-38485000I150000J0D01*
G01*
X48225000Y-38485000D01*
G75*
G02*
X48375000Y-38635000I0J-150000D01*
G01*
X48375000Y-38935000D01*
G75*
G02*
X48225000Y-39085000I-150000J0D01*
G01*
X46475000Y-39085000D01*
G75*
G02*
X46325000Y-38935000I0J150000D01*
G01*
G37*
G36*
G01*
X15625000Y-38935000D02*
X15625000Y-38635000D01*
G75*
G02*
X15775000Y-38485000I150000J0D01*
G01*
X17525000Y-38485000D01*
G75*
G02*
X17675000Y-38635000I0J-150000D01*
G01*
X17675000Y-38935000D01*
G75*
G02*
X17525000Y-39085000I-150000J0D01*
G01*
X15775000Y-39085000D01*
G75*
G02*
X15625000Y-38935000I0J150000D01*
G01*
G37*
G36*
G01*
X15625000Y-40205000D02*
X15625000Y-39905000D01*
G75*
G02*
X15775000Y-39755000I150000J0D01*
G01*
X17525000Y-39755000D01*
G75*
G02*
X17675000Y-39905000I0J-150000D01*
G01*
X17675000Y-40205000D01*
G75*
G02*
X17525000Y-40355000I-150000J0D01*
G01*
X15775000Y-40355000D01*
G75*
G02*
X15625000Y-40205000I0J150000D01*
G01*
G37*
G36*
G01*
X15625000Y-41475000D02*
X15625000Y-41175000D01*
G75*
G02*
X15775000Y-41025000I150000J0D01*
G01*
X17525000Y-41025000D01*
G75*
G02*
X17675000Y-41175000I0J-150000D01*
G01*
X17675000Y-41475000D01*
G75*
G02*
X17525000Y-41625000I-150000J0D01*
G01*
X15775000Y-41625000D01*
G75*
G02*
X15625000Y-41475000I0J150000D01*
G01*
G37*
G36*
G01*
X15625000Y-42745000D02*
X15625000Y-42445000D01*
G75*
G02*
X15775000Y-42295000I150000J0D01*
G01*
X17525000Y-42295000D01*
G75*
G02*
X17675000Y-42445000I0J-150000D01*
G01*
X17675000Y-42745000D01*
G75*
G02*
X17525000Y-42895000I-150000J0D01*
G01*
X15775000Y-42895000D01*
G75*
G02*
X15625000Y-42745000I0J150000D01*
G01*
G37*
G36*
G01*
X15625000Y-44015000D02*
X15625000Y-43715000D01*
G75*
G02*
X15775000Y-43565000I150000J0D01*
G01*
X17525000Y-43565000D01*
G75*
G02*
X17675000Y-43715000I0J-150000D01*
G01*
X17675000Y-44015000D01*
G75*
G02*
X17525000Y-44165000I-150000J0D01*
G01*
X15775000Y-44165000D01*
G75*
G02*
X15625000Y-44015000I0J150000D01*
G01*
G37*
G36*
G01*
X15625000Y-45285000D02*
X15625000Y-44985000D01*
G75*
G02*
X15775000Y-44835000I150000J0D01*
G01*
X17525000Y-44835000D01*
G75*
G02*
X17675000Y-44985000I0J-150000D01*
G01*
X17675000Y-45285000D01*
G75*
G02*
X17525000Y-45435000I-150000J0D01*
G01*
X15775000Y-45435000D01*
G75*
G02*
X15625000Y-45285000I0J150000D01*
G01*
G37*
G36*
G01*
X15625000Y-46555000D02*
X15625000Y-46255000D01*
G75*
G02*
X15775000Y-46105000I150000J0D01*
G01*
X17525000Y-46105000D01*
G75*
G02*
X17675000Y-46255000I0J-150000D01*
G01*
X17675000Y-46555000D01*
G75*
G02*
X17525000Y-46705000I-150000J0D01*
G01*
X15775000Y-46705000D01*
G75*
G02*
X15625000Y-46555000I0J150000D01*
G01*
G37*
G36*
G01*
X15625000Y-47825000D02*
X15625000Y-47525000D01*
G75*
G02*
X15775000Y-47375000I150000J0D01*
G01*
X17525000Y-47375000D01*
G75*
G02*
X17675000Y-47525000I0J-150000D01*
G01*
X17675000Y-47825000D01*
G75*
G02*
X17525000Y-47975000I-150000J0D01*
G01*
X15775000Y-47975000D01*
G75*
G02*
X15625000Y-47825000I0J150000D01*
G01*
G37*
G36*
G01*
X15625000Y-49095000D02*
X15625000Y-48795000D01*
G75*
G02*
X15775000Y-48645000I150000J0D01*
G01*
X17525000Y-48645000D01*
G75*
G02*
X17675000Y-48795000I0J-150000D01*
G01*
X17675000Y-49095000D01*
G75*
G02*
X17525000Y-49245000I-150000J0D01*
G01*
X15775000Y-49245000D01*
G75*
G02*
X15625000Y-49095000I0J150000D01*
G01*
G37*
G36*
G01*
X15625000Y-50365000D02*
X15625000Y-50065000D01*
G75*
G02*
X15775000Y-49915000I150000J0D01*
G01*
X17525000Y-49915000D01*
G75*
G02*
X17675000Y-50065000I0J-150000D01*
G01*
X17675000Y-50365000D01*
G75*
G02*
X17525000Y-50515000I-150000J0D01*
G01*
X15775000Y-50515000D01*
G75*
G02*
X15625000Y-50365000I0J150000D01*
G01*
G37*
G36*
G01*
X6325000Y-50365000D02*
X6325000Y-50065000D01*
G75*
G02*
X6475000Y-49915000I150000J0D01*
G01*
X8225000Y-49915000D01*
G75*
G02*
X8375000Y-50065000I0J-150000D01*
G01*
X8375000Y-50365000D01*
G75*
G02*
X8225000Y-50515000I-150000J0D01*
G01*
X6475000Y-50515000D01*
G75*
G02*
X6325000Y-50365000I0J150000D01*
G01*
G37*
G36*
G01*
X6325000Y-49095000D02*
X6325000Y-48795000D01*
G75*
G02*
X6475000Y-48645000I150000J0D01*
G01*
X8225000Y-48645000D01*
G75*
G02*
X8375000Y-48795000I0J-150000D01*
G01*
X8375000Y-49095000D01*
G75*
G02*
X8225000Y-49245000I-150000J0D01*
G01*
X6475000Y-49245000D01*
G75*
G02*
X6325000Y-49095000I0J150000D01*
G01*
G37*
G36*
G01*
X6325000Y-47825000D02*
X6325000Y-47525000D01*
G75*
G02*
X6475000Y-47375000I150000J0D01*
G01*
X8225000Y-47375000D01*
G75*
G02*
X8375000Y-47525000I0J-150000D01*
G01*
X8375000Y-47825000D01*
G75*
G02*
X8225000Y-47975000I-150000J0D01*
G01*
X6475000Y-47975000D01*
G75*
G02*
X6325000Y-47825000I0J150000D01*
G01*
G37*
G36*
G01*
X6325000Y-46555000D02*
X6325000Y-46255000D01*
G75*
G02*
X6475000Y-46105000I150000J0D01*
G01*
X8225000Y-46105000D01*
G75*
G02*
X8375000Y-46255000I0J-150000D01*
G01*
X8375000Y-46555000D01*
G75*
G02*
X8225000Y-46705000I-150000J0D01*
G01*
X6475000Y-46705000D01*
G75*
G02*
X6325000Y-46555000I0J150000D01*
G01*
G37*
G36*
G01*
X6325000Y-45285000D02*
X6325000Y-44985000D01*
G75*
G02*
X6475000Y-44835000I150000J0D01*
G01*
X8225000Y-44835000D01*
G75*
G02*
X8375000Y-44985000I0J-150000D01*
G01*
X8375000Y-45285000D01*
G75*
G02*
X8225000Y-45435000I-150000J0D01*
G01*
X6475000Y-45435000D01*
G75*
G02*
X6325000Y-45285000I0J150000D01*
G01*
G37*
G36*
G01*
X6325000Y-44015000D02*
X6325000Y-43715000D01*
G75*
G02*
X6475000Y-43565000I150000J0D01*
G01*
X8225000Y-43565000D01*
G75*
G02*
X8375000Y-43715000I0J-150000D01*
G01*
X8375000Y-44015000D01*
G75*
G02*
X8225000Y-44165000I-150000J0D01*
G01*
X6475000Y-44165000D01*
G75*
G02*
X6325000Y-44015000I0J150000D01*
G01*
G37*
G36*
G01*
X6325000Y-42745000D02*
X6325000Y-42445000D01*
G75*
G02*
X6475000Y-42295000I150000J0D01*
G01*
X8225000Y-42295000D01*
G75*
G02*
X8375000Y-42445000I0J-150000D01*
G01*
X8375000Y-42745000D01*
G75*
G02*
X8225000Y-42895000I-150000J0D01*
G01*
X6475000Y-42895000D01*
G75*
G02*
X6325000Y-42745000I0J150000D01*
G01*
G37*
G36*
G01*
X6325000Y-41475000D02*
X6325000Y-41175000D01*
G75*
G02*
X6475000Y-41025000I150000J0D01*
G01*
X8225000Y-41025000D01*
G75*
G02*
X8375000Y-41175000I0J-150000D01*
G01*
X8375000Y-41475000D01*
G75*
G02*
X8225000Y-41625000I-150000J0D01*
G01*
X6475000Y-41625000D01*
G75*
G02*
X6325000Y-41475000I0J150000D01*
G01*
G37*
G36*
G01*
X6325000Y-40205000D02*
X6325000Y-39905000D01*
G75*
G02*
X6475000Y-39755000I150000J0D01*
G01*
X8225000Y-39755000D01*
G75*
G02*
X8375000Y-39905000I0J-150000D01*
G01*
X8375000Y-40205000D01*
G75*
G02*
X8225000Y-40355000I-150000J0D01*
G01*
X6475000Y-40355000D01*
G75*
G02*
X6325000Y-40205000I0J150000D01*
G01*
G37*
G36*
G01*
X6325000Y-38935000D02*
X6325000Y-38635000D01*
G75*
G02*
X6475000Y-38485000I150000J0D01*
G01*
X8225000Y-38485000D01*
G75*
G02*
X8375000Y-38635000I0J-150000D01*
G01*
X8375000Y-38935000D01*
G75*
G02*
X8225000Y-39085000I-150000J0D01*
G01*
X6475000Y-39085000D01*
G75*
G02*
X6325000Y-38935000I0J150000D01*
G01*
G37*
G36*
G01*
X46325000Y-18935000D02*
X46325000Y-18635000D01*
G75*
G02*
X46475000Y-18485000I150000J0D01*
G01*
X48225000Y-18485000D01*
G75*
G02*
X48375000Y-18635000I0J-150000D01*
G01*
X48375000Y-18935000D01*
G75*
G02*
X48225000Y-19085000I-150000J0D01*
G01*
X46475000Y-19085000D01*
G75*
G02*
X46325000Y-18935000I0J150000D01*
G01*
G37*
G36*
G01*
X46325000Y-20205000D02*
X46325000Y-19905000D01*
G75*
G02*
X46475000Y-19755000I150000J0D01*
G01*
X48225000Y-19755000D01*
G75*
G02*
X48375000Y-19905000I0J-150000D01*
G01*
X48375000Y-20205000D01*
G75*
G02*
X48225000Y-20355000I-150000J0D01*
G01*
X46475000Y-20355000D01*
G75*
G02*
X46325000Y-20205000I0J150000D01*
G01*
G37*
G36*
G01*
X46325000Y-21475000D02*
X46325000Y-21175000D01*
G75*
G02*
X46475000Y-21025000I150000J0D01*
G01*
X48225000Y-21025000D01*
G75*
G02*
X48375000Y-21175000I0J-150000D01*
G01*
X48375000Y-21475000D01*
G75*
G02*
X48225000Y-21625000I-150000J0D01*
G01*
X46475000Y-21625000D01*
G75*
G02*
X46325000Y-21475000I0J150000D01*
G01*
G37*
G36*
G01*
X46325000Y-22745000D02*
X46325000Y-22445000D01*
G75*
G02*
X46475000Y-22295000I150000J0D01*
G01*
X48225000Y-22295000D01*
G75*
G02*
X48375000Y-22445000I0J-150000D01*
G01*
X48375000Y-22745000D01*
G75*
G02*
X48225000Y-22895000I-150000J0D01*
G01*
X46475000Y-22895000D01*
G75*
G02*
X46325000Y-22745000I0J150000D01*
G01*
G37*
G36*
G01*
X46325000Y-24015000D02*
X46325000Y-23715000D01*
G75*
G02*
X46475000Y-23565000I150000J0D01*
G01*
X48225000Y-23565000D01*
G75*
G02*
X48375000Y-23715000I0J-150000D01*
G01*
X48375000Y-24015000D01*
G75*
G02*
X48225000Y-24165000I-150000J0D01*
G01*
X46475000Y-24165000D01*
G75*
G02*
X46325000Y-24015000I0J150000D01*
G01*
G37*
G36*
G01*
X46325000Y-25285000D02*
X46325000Y-24985000D01*
G75*
G02*
X46475000Y-24835000I150000J0D01*
G01*
X48225000Y-24835000D01*
G75*
G02*
X48375000Y-24985000I0J-150000D01*
G01*
X48375000Y-25285000D01*
G75*
G02*
X48225000Y-25435000I-150000J0D01*
G01*
X46475000Y-25435000D01*
G75*
G02*
X46325000Y-25285000I0J150000D01*
G01*
G37*
G36*
G01*
X46325000Y-26555000D02*
X46325000Y-26255000D01*
G75*
G02*
X46475000Y-26105000I150000J0D01*
G01*
X48225000Y-26105000D01*
G75*
G02*
X48375000Y-26255000I0J-150000D01*
G01*
X48375000Y-26555000D01*
G75*
G02*
X48225000Y-26705000I-150000J0D01*
G01*
X46475000Y-26705000D01*
G75*
G02*
X46325000Y-26555000I0J150000D01*
G01*
G37*
G36*
G01*
X46325000Y-27825000D02*
X46325000Y-27525000D01*
G75*
G02*
X46475000Y-27375000I150000J0D01*
G01*
X48225000Y-27375000D01*
G75*
G02*
X48375000Y-27525000I0J-150000D01*
G01*
X48375000Y-27825000D01*
G75*
G02*
X48225000Y-27975000I-150000J0D01*
G01*
X46475000Y-27975000D01*
G75*
G02*
X46325000Y-27825000I0J150000D01*
G01*
G37*
G36*
G01*
X46325000Y-29095000D02*
X46325000Y-28795000D01*
G75*
G02*
X46475000Y-28645000I150000J0D01*
G01*
X48225000Y-28645000D01*
G75*
G02*
X48375000Y-28795000I0J-150000D01*
G01*
X48375000Y-29095000D01*
G75*
G02*
X48225000Y-29245000I-150000J0D01*
G01*
X46475000Y-29245000D01*
G75*
G02*
X46325000Y-29095000I0J150000D01*
G01*
G37*
G36*
G01*
X46325000Y-30365000D02*
X46325000Y-30065000D01*
G75*
G02*
X46475000Y-29915000I150000J0D01*
G01*
X48225000Y-29915000D01*
G75*
G02*
X48375000Y-30065000I0J-150000D01*
G01*
X48375000Y-30365000D01*
G75*
G02*
X48225000Y-30515000I-150000J0D01*
G01*
X46475000Y-30515000D01*
G75*
G02*
X46325000Y-30365000I0J150000D01*
G01*
G37*
G36*
G01*
X55625000Y-30365000D02*
X55625000Y-30065000D01*
G75*
G02*
X55775000Y-29915000I150000J0D01*
G01*
X57525000Y-29915000D01*
G75*
G02*
X57675000Y-30065000I0J-150000D01*
G01*
X57675000Y-30365000D01*
G75*
G02*
X57525000Y-30515000I-150000J0D01*
G01*
X55775000Y-30515000D01*
G75*
G02*
X55625000Y-30365000I0J150000D01*
G01*
G37*
G36*
G01*
X55625000Y-29095000D02*
X55625000Y-28795000D01*
G75*
G02*
X55775000Y-28645000I150000J0D01*
G01*
X57525000Y-28645000D01*
G75*
G02*
X57675000Y-28795000I0J-150000D01*
G01*
X57675000Y-29095000D01*
G75*
G02*
X57525000Y-29245000I-150000J0D01*
G01*
X55775000Y-29245000D01*
G75*
G02*
X55625000Y-29095000I0J150000D01*
G01*
G37*
G36*
G01*
X55625000Y-27825000D02*
X55625000Y-27525000D01*
G75*
G02*
X55775000Y-27375000I150000J0D01*
G01*
X57525000Y-27375000D01*
G75*
G02*
X57675000Y-27525000I0J-150000D01*
G01*
X57675000Y-27825000D01*
G75*
G02*
X57525000Y-27975000I-150000J0D01*
G01*
X55775000Y-27975000D01*
G75*
G02*
X55625000Y-27825000I0J150000D01*
G01*
G37*
G36*
G01*
X55625000Y-26555000D02*
X55625000Y-26255000D01*
G75*
G02*
X55775000Y-26105000I150000J0D01*
G01*
X57525000Y-26105000D01*
G75*
G02*
X57675000Y-26255000I0J-150000D01*
G01*
X57675000Y-26555000D01*
G75*
G02*
X57525000Y-26705000I-150000J0D01*
G01*
X55775000Y-26705000D01*
G75*
G02*
X55625000Y-26555000I0J150000D01*
G01*
G37*
G36*
G01*
X55625000Y-25285000D02*
X55625000Y-24985000D01*
G75*
G02*
X55775000Y-24835000I150000J0D01*
G01*
X57525000Y-24835000D01*
G75*
G02*
X57675000Y-24985000I0J-150000D01*
G01*
X57675000Y-25285000D01*
G75*
G02*
X57525000Y-25435000I-150000J0D01*
G01*
X55775000Y-25435000D01*
G75*
G02*
X55625000Y-25285000I0J150000D01*
G01*
G37*
G36*
G01*
X55625000Y-24015000D02*
X55625000Y-23715000D01*
G75*
G02*
X55775000Y-23565000I150000J0D01*
G01*
X57525000Y-23565000D01*
G75*
G02*
X57675000Y-23715000I0J-150000D01*
G01*
X57675000Y-24015000D01*
G75*
G02*
X57525000Y-24165000I-150000J0D01*
G01*
X55775000Y-24165000D01*
G75*
G02*
X55625000Y-24015000I0J150000D01*
G01*
G37*
G36*
G01*
X55625000Y-22745000D02*
X55625000Y-22445000D01*
G75*
G02*
X55775000Y-22295000I150000J0D01*
G01*
X57525000Y-22295000D01*
G75*
G02*
X57675000Y-22445000I0J-150000D01*
G01*
X57675000Y-22745000D01*
G75*
G02*
X57525000Y-22895000I-150000J0D01*
G01*
X55775000Y-22895000D01*
G75*
G02*
X55625000Y-22745000I0J150000D01*
G01*
G37*
G36*
G01*
X55625000Y-21475000D02*
X55625000Y-21175000D01*
G75*
G02*
X55775000Y-21025000I150000J0D01*
G01*
X57525000Y-21025000D01*
G75*
G02*
X57675000Y-21175000I0J-150000D01*
G01*
X57675000Y-21475000D01*
G75*
G02*
X57525000Y-21625000I-150000J0D01*
G01*
X55775000Y-21625000D01*
G75*
G02*
X55625000Y-21475000I0J150000D01*
G01*
G37*
G36*
G01*
X55625000Y-20205000D02*
X55625000Y-19905000D01*
G75*
G02*
X55775000Y-19755000I150000J0D01*
G01*
X57525000Y-19755000D01*
G75*
G02*
X57675000Y-19905000I0J-150000D01*
G01*
X57675000Y-20205000D01*
G75*
G02*
X57525000Y-20355000I-150000J0D01*
G01*
X55775000Y-20355000D01*
G75*
G02*
X55625000Y-20205000I0J150000D01*
G01*
G37*
G36*
G01*
X55625000Y-18935000D02*
X55625000Y-18635000D01*
G75*
G02*
X55775000Y-18485000I150000J0D01*
G01*
X57525000Y-18485000D01*
G75*
G02*
X57675000Y-18635000I0J-150000D01*
G01*
X57675000Y-18935000D01*
G75*
G02*
X57525000Y-19085000I-150000J0D01*
G01*
X55775000Y-19085000D01*
G75*
G02*
X55625000Y-18935000I0J150000D01*
G01*
G37*
G36*
G01*
X15625000Y-18935000D02*
X15625000Y-18635000D01*
G75*
G02*
X15775000Y-18485000I150000J0D01*
G01*
X17525000Y-18485000D01*
G75*
G02*
X17675000Y-18635000I0J-150000D01*
G01*
X17675000Y-18935000D01*
G75*
G02*
X17525000Y-19085000I-150000J0D01*
G01*
X15775000Y-19085000D01*
G75*
G02*
X15625000Y-18935000I0J150000D01*
G01*
G37*
G36*
G01*
X15625000Y-20205000D02*
X15625000Y-19905000D01*
G75*
G02*
X15775000Y-19755000I150000J0D01*
G01*
X17525000Y-19755000D01*
G75*
G02*
X17675000Y-19905000I0J-150000D01*
G01*
X17675000Y-20205000D01*
G75*
G02*
X17525000Y-20355000I-150000J0D01*
G01*
X15775000Y-20355000D01*
G75*
G02*
X15625000Y-20205000I0J150000D01*
G01*
G37*
G36*
G01*
X15625000Y-21475000D02*
X15625000Y-21175000D01*
G75*
G02*
X15775000Y-21025000I150000J0D01*
G01*
X17525000Y-21025000D01*
G75*
G02*
X17675000Y-21175000I0J-150000D01*
G01*
X17675000Y-21475000D01*
G75*
G02*
X17525000Y-21625000I-150000J0D01*
G01*
X15775000Y-21625000D01*
G75*
G02*
X15625000Y-21475000I0J150000D01*
G01*
G37*
G36*
G01*
X15625000Y-22745000D02*
X15625000Y-22445000D01*
G75*
G02*
X15775000Y-22295000I150000J0D01*
G01*
X17525000Y-22295000D01*
G75*
G02*
X17675000Y-22445000I0J-150000D01*
G01*
X17675000Y-22745000D01*
G75*
G02*
X17525000Y-22895000I-150000J0D01*
G01*
X15775000Y-22895000D01*
G75*
G02*
X15625000Y-22745000I0J150000D01*
G01*
G37*
G36*
G01*
X15625000Y-24015000D02*
X15625000Y-23715000D01*
G75*
G02*
X15775000Y-23565000I150000J0D01*
G01*
X17525000Y-23565000D01*
G75*
G02*
X17675000Y-23715000I0J-150000D01*
G01*
X17675000Y-24015000D01*
G75*
G02*
X17525000Y-24165000I-150000J0D01*
G01*
X15775000Y-24165000D01*
G75*
G02*
X15625000Y-24015000I0J150000D01*
G01*
G37*
G36*
G01*
X15625000Y-25285000D02*
X15625000Y-24985000D01*
G75*
G02*
X15775000Y-24835000I150000J0D01*
G01*
X17525000Y-24835000D01*
G75*
G02*
X17675000Y-24985000I0J-150000D01*
G01*
X17675000Y-25285000D01*
G75*
G02*
X17525000Y-25435000I-150000J0D01*
G01*
X15775000Y-25435000D01*
G75*
G02*
X15625000Y-25285000I0J150000D01*
G01*
G37*
G36*
G01*
X15625000Y-26555000D02*
X15625000Y-26255000D01*
G75*
G02*
X15775000Y-26105000I150000J0D01*
G01*
X17525000Y-26105000D01*
G75*
G02*
X17675000Y-26255000I0J-150000D01*
G01*
X17675000Y-26555000D01*
G75*
G02*
X17525000Y-26705000I-150000J0D01*
G01*
X15775000Y-26705000D01*
G75*
G02*
X15625000Y-26555000I0J150000D01*
G01*
G37*
G36*
G01*
X15625000Y-27825000D02*
X15625000Y-27525000D01*
G75*
G02*
X15775000Y-27375000I150000J0D01*
G01*
X17525000Y-27375000D01*
G75*
G02*
X17675000Y-27525000I0J-150000D01*
G01*
X17675000Y-27825000D01*
G75*
G02*
X17525000Y-27975000I-150000J0D01*
G01*
X15775000Y-27975000D01*
G75*
G02*
X15625000Y-27825000I0J150000D01*
G01*
G37*
G36*
G01*
X15625000Y-29095000D02*
X15625000Y-28795000D01*
G75*
G02*
X15775000Y-28645000I150000J0D01*
G01*
X17525000Y-28645000D01*
G75*
G02*
X17675000Y-28795000I0J-150000D01*
G01*
X17675000Y-29095000D01*
G75*
G02*
X17525000Y-29245000I-150000J0D01*
G01*
X15775000Y-29245000D01*
G75*
G02*
X15625000Y-29095000I0J150000D01*
G01*
G37*
G36*
G01*
X15625000Y-30365000D02*
X15625000Y-30065000D01*
G75*
G02*
X15775000Y-29915000I150000J0D01*
G01*
X17525000Y-29915000D01*
G75*
G02*
X17675000Y-30065000I0J-150000D01*
G01*
X17675000Y-30365000D01*
G75*
G02*
X17525000Y-30515000I-150000J0D01*
G01*
X15775000Y-30515000D01*
G75*
G02*
X15625000Y-30365000I0J150000D01*
G01*
G37*
G36*
G01*
X6325000Y-30365000D02*
X6325000Y-30065000D01*
G75*
G02*
X6475000Y-29915000I150000J0D01*
G01*
X8225000Y-29915000D01*
G75*
G02*
X8375000Y-30065000I0J-150000D01*
G01*
X8375000Y-30365000D01*
G75*
G02*
X8225000Y-30515000I-150000J0D01*
G01*
X6475000Y-30515000D01*
G75*
G02*
X6325000Y-30365000I0J150000D01*
G01*
G37*
G36*
G01*
X6325000Y-29095000D02*
X6325000Y-28795000D01*
G75*
G02*
X6475000Y-28645000I150000J0D01*
G01*
X8225000Y-28645000D01*
G75*
G02*
X8375000Y-28795000I0J-150000D01*
G01*
X8375000Y-29095000D01*
G75*
G02*
X8225000Y-29245000I-150000J0D01*
G01*
X6475000Y-29245000D01*
G75*
G02*
X6325000Y-29095000I0J150000D01*
G01*
G37*
G36*
G01*
X6325000Y-27825000D02*
X6325000Y-27525000D01*
G75*
G02*
X6475000Y-27375000I150000J0D01*
G01*
X8225000Y-27375000D01*
G75*
G02*
X8375000Y-27525000I0J-150000D01*
G01*
X8375000Y-27825000D01*
G75*
G02*
X8225000Y-27975000I-150000J0D01*
G01*
X6475000Y-27975000D01*
G75*
G02*
X6325000Y-27825000I0J150000D01*
G01*
G37*
G36*
G01*
X6325000Y-26555000D02*
X6325000Y-26255000D01*
G75*
G02*
X6475000Y-26105000I150000J0D01*
G01*
X8225000Y-26105000D01*
G75*
G02*
X8375000Y-26255000I0J-150000D01*
G01*
X8375000Y-26555000D01*
G75*
G02*
X8225000Y-26705000I-150000J0D01*
G01*
X6475000Y-26705000D01*
G75*
G02*
X6325000Y-26555000I0J150000D01*
G01*
G37*
G36*
G01*
X6325000Y-25285000D02*
X6325000Y-24985000D01*
G75*
G02*
X6475000Y-24835000I150000J0D01*
G01*
X8225000Y-24835000D01*
G75*
G02*
X8375000Y-24985000I0J-150000D01*
G01*
X8375000Y-25285000D01*
G75*
G02*
X8225000Y-25435000I-150000J0D01*
G01*
X6475000Y-25435000D01*
G75*
G02*
X6325000Y-25285000I0J150000D01*
G01*
G37*
G36*
G01*
X6325000Y-24015000D02*
X6325000Y-23715000D01*
G75*
G02*
X6475000Y-23565000I150000J0D01*
G01*
X8225000Y-23565000D01*
G75*
G02*
X8375000Y-23715000I0J-150000D01*
G01*
X8375000Y-24015000D01*
G75*
G02*
X8225000Y-24165000I-150000J0D01*
G01*
X6475000Y-24165000D01*
G75*
G02*
X6325000Y-24015000I0J150000D01*
G01*
G37*
G36*
G01*
X6325000Y-22745000D02*
X6325000Y-22445000D01*
G75*
G02*
X6475000Y-22295000I150000J0D01*
G01*
X8225000Y-22295000D01*
G75*
G02*
X8375000Y-22445000I0J-150000D01*
G01*
X8375000Y-22745000D01*
G75*
G02*
X8225000Y-22895000I-150000J0D01*
G01*
X6475000Y-22895000D01*
G75*
G02*
X6325000Y-22745000I0J150000D01*
G01*
G37*
G36*
G01*
X6325000Y-21475000D02*
X6325000Y-21175000D01*
G75*
G02*
X6475000Y-21025000I150000J0D01*
G01*
X8225000Y-21025000D01*
G75*
G02*
X8375000Y-21175000I0J-150000D01*
G01*
X8375000Y-21475000D01*
G75*
G02*
X8225000Y-21625000I-150000J0D01*
G01*
X6475000Y-21625000D01*
G75*
G02*
X6325000Y-21475000I0J150000D01*
G01*
G37*
G36*
G01*
X6325000Y-20205000D02*
X6325000Y-19905000D01*
G75*
G02*
X6475000Y-19755000I150000J0D01*
G01*
X8225000Y-19755000D01*
G75*
G02*
X8375000Y-19905000I0J-150000D01*
G01*
X8375000Y-20205000D01*
G75*
G02*
X8225000Y-20355000I-150000J0D01*
G01*
X6475000Y-20355000D01*
G75*
G02*
X6325000Y-20205000I0J150000D01*
G01*
G37*
G36*
G01*
X6325000Y-18935000D02*
X6325000Y-18635000D01*
G75*
G02*
X6475000Y-18485000I150000J0D01*
G01*
X8225000Y-18485000D01*
G75*
G02*
X8375000Y-18635000I0J-150000D01*
G01*
X8375000Y-18935000D01*
G75*
G02*
X8225000Y-19085000I-150000J0D01*
G01*
X6475000Y-19085000D01*
G75*
G02*
X6325000Y-18935000I0J150000D01*
G01*
G37*
G36*
G01*
X26325000Y-18935000D02*
X26325000Y-18635000D01*
G75*
G02*
X26475000Y-18485000I150000J0D01*
G01*
X28225000Y-18485000D01*
G75*
G02*
X28375000Y-18635000I0J-150000D01*
G01*
X28375000Y-18935000D01*
G75*
G02*
X28225000Y-19085000I-150000J0D01*
G01*
X26475000Y-19085000D01*
G75*
G02*
X26325000Y-18935000I0J150000D01*
G01*
G37*
G36*
G01*
X26325000Y-20205000D02*
X26325000Y-19905000D01*
G75*
G02*
X26475000Y-19755000I150000J0D01*
G01*
X28225000Y-19755000D01*
G75*
G02*
X28375000Y-19905000I0J-150000D01*
G01*
X28375000Y-20205000D01*
G75*
G02*
X28225000Y-20355000I-150000J0D01*
G01*
X26475000Y-20355000D01*
G75*
G02*
X26325000Y-20205000I0J150000D01*
G01*
G37*
G36*
G01*
X26325000Y-21475000D02*
X26325000Y-21175000D01*
G75*
G02*
X26475000Y-21025000I150000J0D01*
G01*
X28225000Y-21025000D01*
G75*
G02*
X28375000Y-21175000I0J-150000D01*
G01*
X28375000Y-21475000D01*
G75*
G02*
X28225000Y-21625000I-150000J0D01*
G01*
X26475000Y-21625000D01*
G75*
G02*
X26325000Y-21475000I0J150000D01*
G01*
G37*
G36*
G01*
X26325000Y-22745000D02*
X26325000Y-22445000D01*
G75*
G02*
X26475000Y-22295000I150000J0D01*
G01*
X28225000Y-22295000D01*
G75*
G02*
X28375000Y-22445000I0J-150000D01*
G01*
X28375000Y-22745000D01*
G75*
G02*
X28225000Y-22895000I-150000J0D01*
G01*
X26475000Y-22895000D01*
G75*
G02*
X26325000Y-22745000I0J150000D01*
G01*
G37*
G36*
G01*
X26325000Y-24015000D02*
X26325000Y-23715000D01*
G75*
G02*
X26475000Y-23565000I150000J0D01*
G01*
X28225000Y-23565000D01*
G75*
G02*
X28375000Y-23715000I0J-150000D01*
G01*
X28375000Y-24015000D01*
G75*
G02*
X28225000Y-24165000I-150000J0D01*
G01*
X26475000Y-24165000D01*
G75*
G02*
X26325000Y-24015000I0J150000D01*
G01*
G37*
G36*
G01*
X26325000Y-25285000D02*
X26325000Y-24985000D01*
G75*
G02*
X26475000Y-24835000I150000J0D01*
G01*
X28225000Y-24835000D01*
G75*
G02*
X28375000Y-24985000I0J-150000D01*
G01*
X28375000Y-25285000D01*
G75*
G02*
X28225000Y-25435000I-150000J0D01*
G01*
X26475000Y-25435000D01*
G75*
G02*
X26325000Y-25285000I0J150000D01*
G01*
G37*
G36*
G01*
X26325000Y-26555000D02*
X26325000Y-26255000D01*
G75*
G02*
X26475000Y-26105000I150000J0D01*
G01*
X28225000Y-26105000D01*
G75*
G02*
X28375000Y-26255000I0J-150000D01*
G01*
X28375000Y-26555000D01*
G75*
G02*
X28225000Y-26705000I-150000J0D01*
G01*
X26475000Y-26705000D01*
G75*
G02*
X26325000Y-26555000I0J150000D01*
G01*
G37*
G36*
G01*
X26325000Y-27825000D02*
X26325000Y-27525000D01*
G75*
G02*
X26475000Y-27375000I150000J0D01*
G01*
X28225000Y-27375000D01*
G75*
G02*
X28375000Y-27525000I0J-150000D01*
G01*
X28375000Y-27825000D01*
G75*
G02*
X28225000Y-27975000I-150000J0D01*
G01*
X26475000Y-27975000D01*
G75*
G02*
X26325000Y-27825000I0J150000D01*
G01*
G37*
G36*
G01*
X26325000Y-29095000D02*
X26325000Y-28795000D01*
G75*
G02*
X26475000Y-28645000I150000J0D01*
G01*
X28225000Y-28645000D01*
G75*
G02*
X28375000Y-28795000I0J-150000D01*
G01*
X28375000Y-29095000D01*
G75*
G02*
X28225000Y-29245000I-150000J0D01*
G01*
X26475000Y-29245000D01*
G75*
G02*
X26325000Y-29095000I0J150000D01*
G01*
G37*
G36*
G01*
X26325000Y-30365000D02*
X26325000Y-30065000D01*
G75*
G02*
X26475000Y-29915000I150000J0D01*
G01*
X28225000Y-29915000D01*
G75*
G02*
X28375000Y-30065000I0J-150000D01*
G01*
X28375000Y-30365000D01*
G75*
G02*
X28225000Y-30515000I-150000J0D01*
G01*
X26475000Y-30515000D01*
G75*
G02*
X26325000Y-30365000I0J150000D01*
G01*
G37*
G36*
G01*
X35625000Y-30365000D02*
X35625000Y-30065000D01*
G75*
G02*
X35775000Y-29915000I150000J0D01*
G01*
X37525000Y-29915000D01*
G75*
G02*
X37675000Y-30065000I0J-150000D01*
G01*
X37675000Y-30365000D01*
G75*
G02*
X37525000Y-30515000I-150000J0D01*
G01*
X35775000Y-30515000D01*
G75*
G02*
X35625000Y-30365000I0J150000D01*
G01*
G37*
G36*
G01*
X35625000Y-29095000D02*
X35625000Y-28795000D01*
G75*
G02*
X35775000Y-28645000I150000J0D01*
G01*
X37525000Y-28645000D01*
G75*
G02*
X37675000Y-28795000I0J-150000D01*
G01*
X37675000Y-29095000D01*
G75*
G02*
X37525000Y-29245000I-150000J0D01*
G01*
X35775000Y-29245000D01*
G75*
G02*
X35625000Y-29095000I0J150000D01*
G01*
G37*
G36*
G01*
X35625000Y-27825000D02*
X35625000Y-27525000D01*
G75*
G02*
X35775000Y-27375000I150000J0D01*
G01*
X37525000Y-27375000D01*
G75*
G02*
X37675000Y-27525000I0J-150000D01*
G01*
X37675000Y-27825000D01*
G75*
G02*
X37525000Y-27975000I-150000J0D01*
G01*
X35775000Y-27975000D01*
G75*
G02*
X35625000Y-27825000I0J150000D01*
G01*
G37*
G36*
G01*
X35625000Y-26555000D02*
X35625000Y-26255000D01*
G75*
G02*
X35775000Y-26105000I150000J0D01*
G01*
X37525000Y-26105000D01*
G75*
G02*
X37675000Y-26255000I0J-150000D01*
G01*
X37675000Y-26555000D01*
G75*
G02*
X37525000Y-26705000I-150000J0D01*
G01*
X35775000Y-26705000D01*
G75*
G02*
X35625000Y-26555000I0J150000D01*
G01*
G37*
G36*
G01*
X35625000Y-25285000D02*
X35625000Y-24985000D01*
G75*
G02*
X35775000Y-24835000I150000J0D01*
G01*
X37525000Y-24835000D01*
G75*
G02*
X37675000Y-24985000I0J-150000D01*
G01*
X37675000Y-25285000D01*
G75*
G02*
X37525000Y-25435000I-150000J0D01*
G01*
X35775000Y-25435000D01*
G75*
G02*
X35625000Y-25285000I0J150000D01*
G01*
G37*
G36*
G01*
X35625000Y-24015000D02*
X35625000Y-23715000D01*
G75*
G02*
X35775000Y-23565000I150000J0D01*
G01*
X37525000Y-23565000D01*
G75*
G02*
X37675000Y-23715000I0J-150000D01*
G01*
X37675000Y-24015000D01*
G75*
G02*
X37525000Y-24165000I-150000J0D01*
G01*
X35775000Y-24165000D01*
G75*
G02*
X35625000Y-24015000I0J150000D01*
G01*
G37*
G36*
G01*
X35625000Y-22745000D02*
X35625000Y-22445000D01*
G75*
G02*
X35775000Y-22295000I150000J0D01*
G01*
X37525000Y-22295000D01*
G75*
G02*
X37675000Y-22445000I0J-150000D01*
G01*
X37675000Y-22745000D01*
G75*
G02*
X37525000Y-22895000I-150000J0D01*
G01*
X35775000Y-22895000D01*
G75*
G02*
X35625000Y-22745000I0J150000D01*
G01*
G37*
G36*
G01*
X35625000Y-21475000D02*
X35625000Y-21175000D01*
G75*
G02*
X35775000Y-21025000I150000J0D01*
G01*
X37525000Y-21025000D01*
G75*
G02*
X37675000Y-21175000I0J-150000D01*
G01*
X37675000Y-21475000D01*
G75*
G02*
X37525000Y-21625000I-150000J0D01*
G01*
X35775000Y-21625000D01*
G75*
G02*
X35625000Y-21475000I0J150000D01*
G01*
G37*
G36*
G01*
X35625000Y-20205000D02*
X35625000Y-19905000D01*
G75*
G02*
X35775000Y-19755000I150000J0D01*
G01*
X37525000Y-19755000D01*
G75*
G02*
X37675000Y-19905000I0J-150000D01*
G01*
X37675000Y-20205000D01*
G75*
G02*
X37525000Y-20355000I-150000J0D01*
G01*
X35775000Y-20355000D01*
G75*
G02*
X35625000Y-20205000I0J150000D01*
G01*
G37*
G36*
G01*
X35625000Y-18935000D02*
X35625000Y-18635000D01*
G75*
G02*
X35775000Y-18485000I150000J0D01*
G01*
X37525000Y-18485000D01*
G75*
G02*
X37675000Y-18635000I0J-150000D01*
G01*
X37675000Y-18935000D01*
G75*
G02*
X37525000Y-19085000I-150000J0D01*
G01*
X35775000Y-19085000D01*
G75*
G02*
X35625000Y-18935000I0J150000D01*
G01*
G37*
G36*
G01*
X114435000Y-82675000D02*
X114135000Y-82675000D01*
G75*
G02*
X113985000Y-82525000I0J150000D01*
G01*
X113985000Y-80775000D01*
G75*
G02*
X114135000Y-80625000I150000J0D01*
G01*
X114435000Y-80625000D01*
G75*
G02*
X114585000Y-80775000I0J-150000D01*
G01*
X114585000Y-82525000D01*
G75*
G02*
X114435000Y-82675000I-150000J0D01*
G01*
G37*
G36*
G01*
X115705000Y-82675000D02*
X115405000Y-82675000D01*
G75*
G02*
X115255000Y-82525000I0J150000D01*
G01*
X115255000Y-80775000D01*
G75*
G02*
X115405000Y-80625000I150000J0D01*
G01*
X115705000Y-80625000D01*
G75*
G02*
X115855000Y-80775000I0J-150000D01*
G01*
X115855000Y-82525000D01*
G75*
G02*
X115705000Y-82675000I-150000J0D01*
G01*
G37*
G36*
G01*
X116975000Y-82675000D02*
X116675000Y-82675000D01*
G75*
G02*
X116525000Y-82525000I0J150000D01*
G01*
X116525000Y-80775000D01*
G75*
G02*
X116675000Y-80625000I150000J0D01*
G01*
X116975000Y-80625000D01*
G75*
G02*
X117125000Y-80775000I0J-150000D01*
G01*
X117125000Y-82525000D01*
G75*
G02*
X116975000Y-82675000I-150000J0D01*
G01*
G37*
G36*
G01*
X118245000Y-82675000D02*
X117945000Y-82675000D01*
G75*
G02*
X117795000Y-82525000I0J150000D01*
G01*
X117795000Y-80775000D01*
G75*
G02*
X117945000Y-80625000I150000J0D01*
G01*
X118245000Y-80625000D01*
G75*
G02*
X118395000Y-80775000I0J-150000D01*
G01*
X118395000Y-82525000D01*
G75*
G02*
X118245000Y-82675000I-150000J0D01*
G01*
G37*
G36*
G01*
X119515000Y-82675000D02*
X119215000Y-82675000D01*
G75*
G02*
X119065000Y-82525000I0J150000D01*
G01*
X119065000Y-80775000D01*
G75*
G02*
X119215000Y-80625000I150000J0D01*
G01*
X119515000Y-80625000D01*
G75*
G02*
X119665000Y-80775000I0J-150000D01*
G01*
X119665000Y-82525000D01*
G75*
G02*
X119515000Y-82675000I-150000J0D01*
G01*
G37*
G36*
G01*
X120785000Y-82675000D02*
X120485000Y-82675000D01*
G75*
G02*
X120335000Y-82525000I0J150000D01*
G01*
X120335000Y-80775000D01*
G75*
G02*
X120485000Y-80625000I150000J0D01*
G01*
X120785000Y-80625000D01*
G75*
G02*
X120935000Y-80775000I0J-150000D01*
G01*
X120935000Y-82525000D01*
G75*
G02*
X120785000Y-82675000I-150000J0D01*
G01*
G37*
G36*
G01*
X122055000Y-82675000D02*
X121755000Y-82675000D01*
G75*
G02*
X121605000Y-82525000I0J150000D01*
G01*
X121605000Y-80775000D01*
G75*
G02*
X121755000Y-80625000I150000J0D01*
G01*
X122055000Y-80625000D01*
G75*
G02*
X122205000Y-80775000I0J-150000D01*
G01*
X122205000Y-82525000D01*
G75*
G02*
X122055000Y-82675000I-150000J0D01*
G01*
G37*
G36*
G01*
X123325000Y-82675000D02*
X123025000Y-82675000D01*
G75*
G02*
X122875000Y-82525000I0J150000D01*
G01*
X122875000Y-80775000D01*
G75*
G02*
X123025000Y-80625000I150000J0D01*
G01*
X123325000Y-80625000D01*
G75*
G02*
X123475000Y-80775000I0J-150000D01*
G01*
X123475000Y-82525000D01*
G75*
G02*
X123325000Y-82675000I-150000J0D01*
G01*
G37*
G36*
G01*
X124595000Y-82675000D02*
X124295000Y-82675000D01*
G75*
G02*
X124145000Y-82525000I0J150000D01*
G01*
X124145000Y-80775000D01*
G75*
G02*
X124295000Y-80625000I150000J0D01*
G01*
X124595000Y-80625000D01*
G75*
G02*
X124745000Y-80775000I0J-150000D01*
G01*
X124745000Y-82525000D01*
G75*
G02*
X124595000Y-82675000I-150000J0D01*
G01*
G37*
G36*
G01*
X125865000Y-82675000D02*
X125565000Y-82675000D01*
G75*
G02*
X125415000Y-82525000I0J150000D01*
G01*
X125415000Y-80775000D01*
G75*
G02*
X125565000Y-80625000I150000J0D01*
G01*
X125865000Y-80625000D01*
G75*
G02*
X126015000Y-80775000I0J-150000D01*
G01*
X126015000Y-82525000D01*
G75*
G02*
X125865000Y-82675000I-150000J0D01*
G01*
G37*
G36*
G01*
X125865000Y-73375000D02*
X125565000Y-73375000D01*
G75*
G02*
X125415000Y-73225000I0J150000D01*
G01*
X125415000Y-71475000D01*
G75*
G02*
X125565000Y-71325000I150000J0D01*
G01*
X125865000Y-71325000D01*
G75*
G02*
X126015000Y-71475000I0J-150000D01*
G01*
X126015000Y-73225000D01*
G75*
G02*
X125865000Y-73375000I-150000J0D01*
G01*
G37*
G36*
G01*
X124595000Y-73375000D02*
X124295000Y-73375000D01*
G75*
G02*
X124145000Y-73225000I0J150000D01*
G01*
X124145000Y-71475000D01*
G75*
G02*
X124295000Y-71325000I150000J0D01*
G01*
X124595000Y-71325000D01*
G75*
G02*
X124745000Y-71475000I0J-150000D01*
G01*
X124745000Y-73225000D01*
G75*
G02*
X124595000Y-73375000I-150000J0D01*
G01*
G37*
G36*
G01*
X123325000Y-73375000D02*
X123025000Y-73375000D01*
G75*
G02*
X122875000Y-73225000I0J150000D01*
G01*
X122875000Y-71475000D01*
G75*
G02*
X123025000Y-71325000I150000J0D01*
G01*
X123325000Y-71325000D01*
G75*
G02*
X123475000Y-71475000I0J-150000D01*
G01*
X123475000Y-73225000D01*
G75*
G02*
X123325000Y-73375000I-150000J0D01*
G01*
G37*
G36*
G01*
X122055000Y-73375000D02*
X121755000Y-73375000D01*
G75*
G02*
X121605000Y-73225000I0J150000D01*
G01*
X121605000Y-71475000D01*
G75*
G02*
X121755000Y-71325000I150000J0D01*
G01*
X122055000Y-71325000D01*
G75*
G02*
X122205000Y-71475000I0J-150000D01*
G01*
X122205000Y-73225000D01*
G75*
G02*
X122055000Y-73375000I-150000J0D01*
G01*
G37*
G36*
G01*
X120785000Y-73375000D02*
X120485000Y-73375000D01*
G75*
G02*
X120335000Y-73225000I0J150000D01*
G01*
X120335000Y-71475000D01*
G75*
G02*
X120485000Y-71325000I150000J0D01*
G01*
X120785000Y-71325000D01*
G75*
G02*
X120935000Y-71475000I0J-150000D01*
G01*
X120935000Y-73225000D01*
G75*
G02*
X120785000Y-73375000I-150000J0D01*
G01*
G37*
G36*
G01*
X119515000Y-73375000D02*
X119215000Y-73375000D01*
G75*
G02*
X119065000Y-73225000I0J150000D01*
G01*
X119065000Y-71475000D01*
G75*
G02*
X119215000Y-71325000I150000J0D01*
G01*
X119515000Y-71325000D01*
G75*
G02*
X119665000Y-71475000I0J-150000D01*
G01*
X119665000Y-73225000D01*
G75*
G02*
X119515000Y-73375000I-150000J0D01*
G01*
G37*
G36*
G01*
X118245000Y-73375000D02*
X117945000Y-73375000D01*
G75*
G02*
X117795000Y-73225000I0J150000D01*
G01*
X117795000Y-71475000D01*
G75*
G02*
X117945000Y-71325000I150000J0D01*
G01*
X118245000Y-71325000D01*
G75*
G02*
X118395000Y-71475000I0J-150000D01*
G01*
X118395000Y-73225000D01*
G75*
G02*
X118245000Y-73375000I-150000J0D01*
G01*
G37*
G36*
G01*
X116975000Y-73375000D02*
X116675000Y-73375000D01*
G75*
G02*
X116525000Y-73225000I0J150000D01*
G01*
X116525000Y-71475000D01*
G75*
G02*
X116675000Y-71325000I150000J0D01*
G01*
X116975000Y-71325000D01*
G75*
G02*
X117125000Y-71475000I0J-150000D01*
G01*
X117125000Y-73225000D01*
G75*
G02*
X116975000Y-73375000I-150000J0D01*
G01*
G37*
G36*
G01*
X115705000Y-73375000D02*
X115405000Y-73375000D01*
G75*
G02*
X115255000Y-73225000I0J150000D01*
G01*
X115255000Y-71475000D01*
G75*
G02*
X115405000Y-71325000I150000J0D01*
G01*
X115705000Y-71325000D01*
G75*
G02*
X115855000Y-71475000I0J-150000D01*
G01*
X115855000Y-73225000D01*
G75*
G02*
X115705000Y-73375000I-150000J0D01*
G01*
G37*
G36*
G01*
X114435000Y-73375000D02*
X114135000Y-73375000D01*
G75*
G02*
X113985000Y-73225000I0J150000D01*
G01*
X113985000Y-71475000D01*
G75*
G02*
X114135000Y-71325000I150000J0D01*
G01*
X114435000Y-71325000D01*
G75*
G02*
X114585000Y-71475000I0J-150000D01*
G01*
X114585000Y-73225000D01*
G75*
G02*
X114435000Y-73375000I-150000J0D01*
G01*
G37*
D15*
X108600000Y-59200000D03*
X108600000Y-58250000D03*
X108600000Y-57300000D03*
X106400000Y-57300000D03*
X106400000Y-59200000D03*
G36*
G01*
X95435000Y-73375000D02*
X95135000Y-73375000D01*
G75*
G02*
X94985000Y-73225000I0J150000D01*
G01*
X94985000Y-71475000D01*
G75*
G02*
X95135000Y-71325000I150000J0D01*
G01*
X95435000Y-71325000D01*
G75*
G02*
X95585000Y-71475000I0J-150000D01*
G01*
X95585000Y-73225000D01*
G75*
G02*
X95435000Y-73375000I-150000J0D01*
G01*
G37*
G36*
G01*
X96705000Y-73375000D02*
X96405000Y-73375000D01*
G75*
G02*
X96255000Y-73225000I0J150000D01*
G01*
X96255000Y-71475000D01*
G75*
G02*
X96405000Y-71325000I150000J0D01*
G01*
X96705000Y-71325000D01*
G75*
G02*
X96855000Y-71475000I0J-150000D01*
G01*
X96855000Y-73225000D01*
G75*
G02*
X96705000Y-73375000I-150000J0D01*
G01*
G37*
G36*
G01*
X97975000Y-73375000D02*
X97675000Y-73375000D01*
G75*
G02*
X97525000Y-73225000I0J150000D01*
G01*
X97525000Y-71475000D01*
G75*
G02*
X97675000Y-71325000I150000J0D01*
G01*
X97975000Y-71325000D01*
G75*
G02*
X98125000Y-71475000I0J-150000D01*
G01*
X98125000Y-73225000D01*
G75*
G02*
X97975000Y-73375000I-150000J0D01*
G01*
G37*
G36*
G01*
X99245000Y-73375000D02*
X98945000Y-73375000D01*
G75*
G02*
X98795000Y-73225000I0J150000D01*
G01*
X98795000Y-71475000D01*
G75*
G02*
X98945000Y-71325000I150000J0D01*
G01*
X99245000Y-71325000D01*
G75*
G02*
X99395000Y-71475000I0J-150000D01*
G01*
X99395000Y-73225000D01*
G75*
G02*
X99245000Y-73375000I-150000J0D01*
G01*
G37*
G36*
G01*
X100515000Y-73375000D02*
X100215000Y-73375000D01*
G75*
G02*
X100065000Y-73225000I0J150000D01*
G01*
X100065000Y-71475000D01*
G75*
G02*
X100215000Y-71325000I150000J0D01*
G01*
X100515000Y-71325000D01*
G75*
G02*
X100665000Y-71475000I0J-150000D01*
G01*
X100665000Y-73225000D01*
G75*
G02*
X100515000Y-73375000I-150000J0D01*
G01*
G37*
G36*
G01*
X101785000Y-73375000D02*
X101485000Y-73375000D01*
G75*
G02*
X101335000Y-73225000I0J150000D01*
G01*
X101335000Y-71475000D01*
G75*
G02*
X101485000Y-71325000I150000J0D01*
G01*
X101785000Y-71325000D01*
G75*
G02*
X101935000Y-71475000I0J-150000D01*
G01*
X101935000Y-73225000D01*
G75*
G02*
X101785000Y-73375000I-150000J0D01*
G01*
G37*
G36*
G01*
X103055000Y-73375000D02*
X102755000Y-73375000D01*
G75*
G02*
X102605000Y-73225000I0J150000D01*
G01*
X102605000Y-71475000D01*
G75*
G02*
X102755000Y-71325000I150000J0D01*
G01*
X103055000Y-71325000D01*
G75*
G02*
X103205000Y-71475000I0J-150000D01*
G01*
X103205000Y-73225000D01*
G75*
G02*
X103055000Y-73375000I-150000J0D01*
G01*
G37*
G36*
G01*
X104325000Y-73375000D02*
X104025000Y-73375000D01*
G75*
G02*
X103875000Y-73225000I0J150000D01*
G01*
X103875000Y-71475000D01*
G75*
G02*
X104025000Y-71325000I150000J0D01*
G01*
X104325000Y-71325000D01*
G75*
G02*
X104475000Y-71475000I0J-150000D01*
G01*
X104475000Y-73225000D01*
G75*
G02*
X104325000Y-73375000I-150000J0D01*
G01*
G37*
G36*
G01*
X105595000Y-73375000D02*
X105295000Y-73375000D01*
G75*
G02*
X105145000Y-73225000I0J150000D01*
G01*
X105145000Y-71475000D01*
G75*
G02*
X105295000Y-71325000I150000J0D01*
G01*
X105595000Y-71325000D01*
G75*
G02*
X105745000Y-71475000I0J-150000D01*
G01*
X105745000Y-73225000D01*
G75*
G02*
X105595000Y-73375000I-150000J0D01*
G01*
G37*
G36*
G01*
X106865000Y-73375000D02*
X106565000Y-73375000D01*
G75*
G02*
X106415000Y-73225000I0J150000D01*
G01*
X106415000Y-71475000D01*
G75*
G02*
X106565000Y-71325000I150000J0D01*
G01*
X106865000Y-71325000D01*
G75*
G02*
X107015000Y-71475000I0J-150000D01*
G01*
X107015000Y-73225000D01*
G75*
G02*
X106865000Y-73375000I-150000J0D01*
G01*
G37*
G36*
G01*
X106865000Y-82675000D02*
X106565000Y-82675000D01*
G75*
G02*
X106415000Y-82525000I0J150000D01*
G01*
X106415000Y-80775000D01*
G75*
G02*
X106565000Y-80625000I150000J0D01*
G01*
X106865000Y-80625000D01*
G75*
G02*
X107015000Y-80775000I0J-150000D01*
G01*
X107015000Y-82525000D01*
G75*
G02*
X106865000Y-82675000I-150000J0D01*
G01*
G37*
G36*
G01*
X105595000Y-82675000D02*
X105295000Y-82675000D01*
G75*
G02*
X105145000Y-82525000I0J150000D01*
G01*
X105145000Y-80775000D01*
G75*
G02*
X105295000Y-80625000I150000J0D01*
G01*
X105595000Y-80625000D01*
G75*
G02*
X105745000Y-80775000I0J-150000D01*
G01*
X105745000Y-82525000D01*
G75*
G02*
X105595000Y-82675000I-150000J0D01*
G01*
G37*
G36*
G01*
X104325000Y-82675000D02*
X104025000Y-82675000D01*
G75*
G02*
X103875000Y-82525000I0J150000D01*
G01*
X103875000Y-80775000D01*
G75*
G02*
X104025000Y-80625000I150000J0D01*
G01*
X104325000Y-80625000D01*
G75*
G02*
X104475000Y-80775000I0J-150000D01*
G01*
X104475000Y-82525000D01*
G75*
G02*
X104325000Y-82675000I-150000J0D01*
G01*
G37*
G36*
G01*
X103055000Y-82675000D02*
X102755000Y-82675000D01*
G75*
G02*
X102605000Y-82525000I0J150000D01*
G01*
X102605000Y-80775000D01*
G75*
G02*
X102755000Y-80625000I150000J0D01*
G01*
X103055000Y-80625000D01*
G75*
G02*
X103205000Y-80775000I0J-150000D01*
G01*
X103205000Y-82525000D01*
G75*
G02*
X103055000Y-82675000I-150000J0D01*
G01*
G37*
G36*
G01*
X101785000Y-82675000D02*
X101485000Y-82675000D01*
G75*
G02*
X101335000Y-82525000I0J150000D01*
G01*
X101335000Y-80775000D01*
G75*
G02*
X101485000Y-80625000I150000J0D01*
G01*
X101785000Y-80625000D01*
G75*
G02*
X101935000Y-80775000I0J-150000D01*
G01*
X101935000Y-82525000D01*
G75*
G02*
X101785000Y-82675000I-150000J0D01*
G01*
G37*
G36*
G01*
X100515000Y-82675000D02*
X100215000Y-82675000D01*
G75*
G02*
X100065000Y-82525000I0J150000D01*
G01*
X100065000Y-80775000D01*
G75*
G02*
X100215000Y-80625000I150000J0D01*
G01*
X100515000Y-80625000D01*
G75*
G02*
X100665000Y-80775000I0J-150000D01*
G01*
X100665000Y-82525000D01*
G75*
G02*
X100515000Y-82675000I-150000J0D01*
G01*
G37*
G36*
G01*
X99245000Y-82675000D02*
X98945000Y-82675000D01*
G75*
G02*
X98795000Y-82525000I0J150000D01*
G01*
X98795000Y-80775000D01*
G75*
G02*
X98945000Y-80625000I150000J0D01*
G01*
X99245000Y-80625000D01*
G75*
G02*
X99395000Y-80775000I0J-150000D01*
G01*
X99395000Y-82525000D01*
G75*
G02*
X99245000Y-82675000I-150000J0D01*
G01*
G37*
G36*
G01*
X97975000Y-82675000D02*
X97675000Y-82675000D01*
G75*
G02*
X97525000Y-82525000I0J150000D01*
G01*
X97525000Y-80775000D01*
G75*
G02*
X97675000Y-80625000I150000J0D01*
G01*
X97975000Y-80625000D01*
G75*
G02*
X98125000Y-80775000I0J-150000D01*
G01*
X98125000Y-82525000D01*
G75*
G02*
X97975000Y-82675000I-150000J0D01*
G01*
G37*
G36*
G01*
X96705000Y-82675000D02*
X96405000Y-82675000D01*
G75*
G02*
X96255000Y-82525000I0J150000D01*
G01*
X96255000Y-80775000D01*
G75*
G02*
X96405000Y-80625000I150000J0D01*
G01*
X96705000Y-80625000D01*
G75*
G02*
X96855000Y-80775000I0J-150000D01*
G01*
X96855000Y-82525000D01*
G75*
G02*
X96705000Y-82675000I-150000J0D01*
G01*
G37*
G36*
G01*
X95435000Y-82675000D02*
X95135000Y-82675000D01*
G75*
G02*
X94985000Y-82525000I0J150000D01*
G01*
X94985000Y-80775000D01*
G75*
G02*
X95135000Y-80625000I150000J0D01*
G01*
X95435000Y-80625000D01*
G75*
G02*
X95585000Y-80775000I0J-150000D01*
G01*
X95585000Y-82525000D01*
G75*
G02*
X95435000Y-82675000I-150000J0D01*
G01*
G37*
X106400000Y-64700000D03*
X106400000Y-62800000D03*
X108600000Y-62800000D03*
X108600000Y-63750000D03*
X108600000Y-64700000D03*
G36*
G01*
X15625000Y-60935000D02*
X15625000Y-60635000D01*
G75*
G02*
X15775000Y-60485000I150000J0D01*
G01*
X17525000Y-60485000D01*
G75*
G02*
X17675000Y-60635000I0J-150000D01*
G01*
X17675000Y-60935000D01*
G75*
G02*
X17525000Y-61085000I-150000J0D01*
G01*
X15775000Y-61085000D01*
G75*
G02*
X15625000Y-60935000I0J150000D01*
G01*
G37*
G36*
G01*
X15625000Y-62205000D02*
X15625000Y-61905000D01*
G75*
G02*
X15775000Y-61755000I150000J0D01*
G01*
X17525000Y-61755000D01*
G75*
G02*
X17675000Y-61905000I0J-150000D01*
G01*
X17675000Y-62205000D01*
G75*
G02*
X17525000Y-62355000I-150000J0D01*
G01*
X15775000Y-62355000D01*
G75*
G02*
X15625000Y-62205000I0J150000D01*
G01*
G37*
G36*
G01*
X15625000Y-63475000D02*
X15625000Y-63175000D01*
G75*
G02*
X15775000Y-63025000I150000J0D01*
G01*
X17525000Y-63025000D01*
G75*
G02*
X17675000Y-63175000I0J-150000D01*
G01*
X17675000Y-63475000D01*
G75*
G02*
X17525000Y-63625000I-150000J0D01*
G01*
X15775000Y-63625000D01*
G75*
G02*
X15625000Y-63475000I0J150000D01*
G01*
G37*
G36*
G01*
X15625000Y-64745000D02*
X15625000Y-64445000D01*
G75*
G02*
X15775000Y-64295000I150000J0D01*
G01*
X17525000Y-64295000D01*
G75*
G02*
X17675000Y-64445000I0J-150000D01*
G01*
X17675000Y-64745000D01*
G75*
G02*
X17525000Y-64895000I-150000J0D01*
G01*
X15775000Y-64895000D01*
G75*
G02*
X15625000Y-64745000I0J150000D01*
G01*
G37*
G36*
G01*
X15625000Y-66015000D02*
X15625000Y-65715000D01*
G75*
G02*
X15775000Y-65565000I150000J0D01*
G01*
X17525000Y-65565000D01*
G75*
G02*
X17675000Y-65715000I0J-150000D01*
G01*
X17675000Y-66015000D01*
G75*
G02*
X17525000Y-66165000I-150000J0D01*
G01*
X15775000Y-66165000D01*
G75*
G02*
X15625000Y-66015000I0J150000D01*
G01*
G37*
G36*
G01*
X15625000Y-67285000D02*
X15625000Y-66985000D01*
G75*
G02*
X15775000Y-66835000I150000J0D01*
G01*
X17525000Y-66835000D01*
G75*
G02*
X17675000Y-66985000I0J-150000D01*
G01*
X17675000Y-67285000D01*
G75*
G02*
X17525000Y-67435000I-150000J0D01*
G01*
X15775000Y-67435000D01*
G75*
G02*
X15625000Y-67285000I0J150000D01*
G01*
G37*
G36*
G01*
X15625000Y-68555000D02*
X15625000Y-68255000D01*
G75*
G02*
X15775000Y-68105000I150000J0D01*
G01*
X17525000Y-68105000D01*
G75*
G02*
X17675000Y-68255000I0J-150000D01*
G01*
X17675000Y-68555000D01*
G75*
G02*
X17525000Y-68705000I-150000J0D01*
G01*
X15775000Y-68705000D01*
G75*
G02*
X15625000Y-68555000I0J150000D01*
G01*
G37*
G36*
G01*
X15625000Y-69825000D02*
X15625000Y-69525000D01*
G75*
G02*
X15775000Y-69375000I150000J0D01*
G01*
X17525000Y-69375000D01*
G75*
G02*
X17675000Y-69525000I0J-150000D01*
G01*
X17675000Y-69825000D01*
G75*
G02*
X17525000Y-69975000I-150000J0D01*
G01*
X15775000Y-69975000D01*
G75*
G02*
X15625000Y-69825000I0J150000D01*
G01*
G37*
G36*
G01*
X15625000Y-71095000D02*
X15625000Y-70795000D01*
G75*
G02*
X15775000Y-70645000I150000J0D01*
G01*
X17525000Y-70645000D01*
G75*
G02*
X17675000Y-70795000I0J-150000D01*
G01*
X17675000Y-71095000D01*
G75*
G02*
X17525000Y-71245000I-150000J0D01*
G01*
X15775000Y-71245000D01*
G75*
G02*
X15625000Y-71095000I0J150000D01*
G01*
G37*
G36*
G01*
X15625000Y-72365000D02*
X15625000Y-72065000D01*
G75*
G02*
X15775000Y-71915000I150000J0D01*
G01*
X17525000Y-71915000D01*
G75*
G02*
X17675000Y-72065000I0J-150000D01*
G01*
X17675000Y-72365000D01*
G75*
G02*
X17525000Y-72515000I-150000J0D01*
G01*
X15775000Y-72515000D01*
G75*
G02*
X15625000Y-72365000I0J150000D01*
G01*
G37*
G36*
G01*
X6325000Y-72365000D02*
X6325000Y-72065000D01*
G75*
G02*
X6475000Y-71915000I150000J0D01*
G01*
X8225000Y-71915000D01*
G75*
G02*
X8375000Y-72065000I0J-150000D01*
G01*
X8375000Y-72365000D01*
G75*
G02*
X8225000Y-72515000I-150000J0D01*
G01*
X6475000Y-72515000D01*
G75*
G02*
X6325000Y-72365000I0J150000D01*
G01*
G37*
G36*
G01*
X6325000Y-71095000D02*
X6325000Y-70795000D01*
G75*
G02*
X6475000Y-70645000I150000J0D01*
G01*
X8225000Y-70645000D01*
G75*
G02*
X8375000Y-70795000I0J-150000D01*
G01*
X8375000Y-71095000D01*
G75*
G02*
X8225000Y-71245000I-150000J0D01*
G01*
X6475000Y-71245000D01*
G75*
G02*
X6325000Y-71095000I0J150000D01*
G01*
G37*
G36*
G01*
X6325000Y-69825000D02*
X6325000Y-69525000D01*
G75*
G02*
X6475000Y-69375000I150000J0D01*
G01*
X8225000Y-69375000D01*
G75*
G02*
X8375000Y-69525000I0J-150000D01*
G01*
X8375000Y-69825000D01*
G75*
G02*
X8225000Y-69975000I-150000J0D01*
G01*
X6475000Y-69975000D01*
G75*
G02*
X6325000Y-69825000I0J150000D01*
G01*
G37*
G36*
G01*
X6325000Y-68555000D02*
X6325000Y-68255000D01*
G75*
G02*
X6475000Y-68105000I150000J0D01*
G01*
X8225000Y-68105000D01*
G75*
G02*
X8375000Y-68255000I0J-150000D01*
G01*
X8375000Y-68555000D01*
G75*
G02*
X8225000Y-68705000I-150000J0D01*
G01*
X6475000Y-68705000D01*
G75*
G02*
X6325000Y-68555000I0J150000D01*
G01*
G37*
G36*
G01*
X6325000Y-67285000D02*
X6325000Y-66985000D01*
G75*
G02*
X6475000Y-66835000I150000J0D01*
G01*
X8225000Y-66835000D01*
G75*
G02*
X8375000Y-66985000I0J-150000D01*
G01*
X8375000Y-67285000D01*
G75*
G02*
X8225000Y-67435000I-150000J0D01*
G01*
X6475000Y-67435000D01*
G75*
G02*
X6325000Y-67285000I0J150000D01*
G01*
G37*
G36*
G01*
X6325000Y-66015000D02*
X6325000Y-65715000D01*
G75*
G02*
X6475000Y-65565000I150000J0D01*
G01*
X8225000Y-65565000D01*
G75*
G02*
X8375000Y-65715000I0J-150000D01*
G01*
X8375000Y-66015000D01*
G75*
G02*
X8225000Y-66165000I-150000J0D01*
G01*
X6475000Y-66165000D01*
G75*
G02*
X6325000Y-66015000I0J150000D01*
G01*
G37*
G36*
G01*
X6325000Y-64745000D02*
X6325000Y-64445000D01*
G75*
G02*
X6475000Y-64295000I150000J0D01*
G01*
X8225000Y-64295000D01*
G75*
G02*
X8375000Y-64445000I0J-150000D01*
G01*
X8375000Y-64745000D01*
G75*
G02*
X8225000Y-64895000I-150000J0D01*
G01*
X6475000Y-64895000D01*
G75*
G02*
X6325000Y-64745000I0J150000D01*
G01*
G37*
G36*
G01*
X6325000Y-63475000D02*
X6325000Y-63175000D01*
G75*
G02*
X6475000Y-63025000I150000J0D01*
G01*
X8225000Y-63025000D01*
G75*
G02*
X8375000Y-63175000I0J-150000D01*
G01*
X8375000Y-63475000D01*
G75*
G02*
X8225000Y-63625000I-150000J0D01*
G01*
X6475000Y-63625000D01*
G75*
G02*
X6325000Y-63475000I0J150000D01*
G01*
G37*
G36*
G01*
X6325000Y-62205000D02*
X6325000Y-61905000D01*
G75*
G02*
X6475000Y-61755000I150000J0D01*
G01*
X8225000Y-61755000D01*
G75*
G02*
X8375000Y-61905000I0J-150000D01*
G01*
X8375000Y-62205000D01*
G75*
G02*
X8225000Y-62355000I-150000J0D01*
G01*
X6475000Y-62355000D01*
G75*
G02*
X6325000Y-62205000I0J150000D01*
G01*
G37*
G36*
G01*
X6325000Y-60935000D02*
X6325000Y-60635000D01*
G75*
G02*
X6475000Y-60485000I150000J0D01*
G01*
X8225000Y-60485000D01*
G75*
G02*
X8375000Y-60635000I0J-150000D01*
G01*
X8375000Y-60935000D01*
G75*
G02*
X8225000Y-61085000I-150000J0D01*
G01*
X6475000Y-61085000D01*
G75*
G02*
X6325000Y-60935000I0J150000D01*
G01*
G37*
G36*
G01*
X46325000Y-60935000D02*
X46325000Y-60635000D01*
G75*
G02*
X46475000Y-60485000I150000J0D01*
G01*
X48225000Y-60485000D01*
G75*
G02*
X48375000Y-60635000I0J-150000D01*
G01*
X48375000Y-60935000D01*
G75*
G02*
X48225000Y-61085000I-150000J0D01*
G01*
X46475000Y-61085000D01*
G75*
G02*
X46325000Y-60935000I0J150000D01*
G01*
G37*
G36*
G01*
X46325000Y-62205000D02*
X46325000Y-61905000D01*
G75*
G02*
X46475000Y-61755000I150000J0D01*
G01*
X48225000Y-61755000D01*
G75*
G02*
X48375000Y-61905000I0J-150000D01*
G01*
X48375000Y-62205000D01*
G75*
G02*
X48225000Y-62355000I-150000J0D01*
G01*
X46475000Y-62355000D01*
G75*
G02*
X46325000Y-62205000I0J150000D01*
G01*
G37*
G36*
G01*
X46325000Y-63475000D02*
X46325000Y-63175000D01*
G75*
G02*
X46475000Y-63025000I150000J0D01*
G01*
X48225000Y-63025000D01*
G75*
G02*
X48375000Y-63175000I0J-150000D01*
G01*
X48375000Y-63475000D01*
G75*
G02*
X48225000Y-63625000I-150000J0D01*
G01*
X46475000Y-63625000D01*
G75*
G02*
X46325000Y-63475000I0J150000D01*
G01*
G37*
G36*
G01*
X46325000Y-64745000D02*
X46325000Y-64445000D01*
G75*
G02*
X46475000Y-64295000I150000J0D01*
G01*
X48225000Y-64295000D01*
G75*
G02*
X48375000Y-64445000I0J-150000D01*
G01*
X48375000Y-64745000D01*
G75*
G02*
X48225000Y-64895000I-150000J0D01*
G01*
X46475000Y-64895000D01*
G75*
G02*
X46325000Y-64745000I0J150000D01*
G01*
G37*
G36*
G01*
X46325000Y-66015000D02*
X46325000Y-65715000D01*
G75*
G02*
X46475000Y-65565000I150000J0D01*
G01*
X48225000Y-65565000D01*
G75*
G02*
X48375000Y-65715000I0J-150000D01*
G01*
X48375000Y-66015000D01*
G75*
G02*
X48225000Y-66165000I-150000J0D01*
G01*
X46475000Y-66165000D01*
G75*
G02*
X46325000Y-66015000I0J150000D01*
G01*
G37*
G36*
G01*
X46325000Y-67285000D02*
X46325000Y-66985000D01*
G75*
G02*
X46475000Y-66835000I150000J0D01*
G01*
X48225000Y-66835000D01*
G75*
G02*
X48375000Y-66985000I0J-150000D01*
G01*
X48375000Y-67285000D01*
G75*
G02*
X48225000Y-67435000I-150000J0D01*
G01*
X46475000Y-67435000D01*
G75*
G02*
X46325000Y-67285000I0J150000D01*
G01*
G37*
G36*
G01*
X46325000Y-68555000D02*
X46325000Y-68255000D01*
G75*
G02*
X46475000Y-68105000I150000J0D01*
G01*
X48225000Y-68105000D01*
G75*
G02*
X48375000Y-68255000I0J-150000D01*
G01*
X48375000Y-68555000D01*
G75*
G02*
X48225000Y-68705000I-150000J0D01*
G01*
X46475000Y-68705000D01*
G75*
G02*
X46325000Y-68555000I0J150000D01*
G01*
G37*
G36*
G01*
X46325000Y-69825000D02*
X46325000Y-69525000D01*
G75*
G02*
X46475000Y-69375000I150000J0D01*
G01*
X48225000Y-69375000D01*
G75*
G02*
X48375000Y-69525000I0J-150000D01*
G01*
X48375000Y-69825000D01*
G75*
G02*
X48225000Y-69975000I-150000J0D01*
G01*
X46475000Y-69975000D01*
G75*
G02*
X46325000Y-69825000I0J150000D01*
G01*
G37*
G36*
G01*
X46325000Y-71095000D02*
X46325000Y-70795000D01*
G75*
G02*
X46475000Y-70645000I150000J0D01*
G01*
X48225000Y-70645000D01*
G75*
G02*
X48375000Y-70795000I0J-150000D01*
G01*
X48375000Y-71095000D01*
G75*
G02*
X48225000Y-71245000I-150000J0D01*
G01*
X46475000Y-71245000D01*
G75*
G02*
X46325000Y-71095000I0J150000D01*
G01*
G37*
G36*
G01*
X46325000Y-72365000D02*
X46325000Y-72065000D01*
G75*
G02*
X46475000Y-71915000I150000J0D01*
G01*
X48225000Y-71915000D01*
G75*
G02*
X48375000Y-72065000I0J-150000D01*
G01*
X48375000Y-72365000D01*
G75*
G02*
X48225000Y-72515000I-150000J0D01*
G01*
X46475000Y-72515000D01*
G75*
G02*
X46325000Y-72365000I0J150000D01*
G01*
G37*
G36*
G01*
X55625000Y-72365000D02*
X55625000Y-72065000D01*
G75*
G02*
X55775000Y-71915000I150000J0D01*
G01*
X57525000Y-71915000D01*
G75*
G02*
X57675000Y-72065000I0J-150000D01*
G01*
X57675000Y-72365000D01*
G75*
G02*
X57525000Y-72515000I-150000J0D01*
G01*
X55775000Y-72515000D01*
G75*
G02*
X55625000Y-72365000I0J150000D01*
G01*
G37*
G36*
G01*
X55625000Y-71095000D02*
X55625000Y-70795000D01*
G75*
G02*
X55775000Y-70645000I150000J0D01*
G01*
X57525000Y-70645000D01*
G75*
G02*
X57675000Y-70795000I0J-150000D01*
G01*
X57675000Y-71095000D01*
G75*
G02*
X57525000Y-71245000I-150000J0D01*
G01*
X55775000Y-71245000D01*
G75*
G02*
X55625000Y-71095000I0J150000D01*
G01*
G37*
G36*
G01*
X55625000Y-69825000D02*
X55625000Y-69525000D01*
G75*
G02*
X55775000Y-69375000I150000J0D01*
G01*
X57525000Y-69375000D01*
G75*
G02*
X57675000Y-69525000I0J-150000D01*
G01*
X57675000Y-69825000D01*
G75*
G02*
X57525000Y-69975000I-150000J0D01*
G01*
X55775000Y-69975000D01*
G75*
G02*
X55625000Y-69825000I0J150000D01*
G01*
G37*
G36*
G01*
X55625000Y-68555000D02*
X55625000Y-68255000D01*
G75*
G02*
X55775000Y-68105000I150000J0D01*
G01*
X57525000Y-68105000D01*
G75*
G02*
X57675000Y-68255000I0J-150000D01*
G01*
X57675000Y-68555000D01*
G75*
G02*
X57525000Y-68705000I-150000J0D01*
G01*
X55775000Y-68705000D01*
G75*
G02*
X55625000Y-68555000I0J150000D01*
G01*
G37*
G36*
G01*
X55625000Y-67285000D02*
X55625000Y-66985000D01*
G75*
G02*
X55775000Y-66835000I150000J0D01*
G01*
X57525000Y-66835000D01*
G75*
G02*
X57675000Y-66985000I0J-150000D01*
G01*
X57675000Y-67285000D01*
G75*
G02*
X57525000Y-67435000I-150000J0D01*
G01*
X55775000Y-67435000D01*
G75*
G02*
X55625000Y-67285000I0J150000D01*
G01*
G37*
G36*
G01*
X55625000Y-66015000D02*
X55625000Y-65715000D01*
G75*
G02*
X55775000Y-65565000I150000J0D01*
G01*
X57525000Y-65565000D01*
G75*
G02*
X57675000Y-65715000I0J-150000D01*
G01*
X57675000Y-66015000D01*
G75*
G02*
X57525000Y-66165000I-150000J0D01*
G01*
X55775000Y-66165000D01*
G75*
G02*
X55625000Y-66015000I0J150000D01*
G01*
G37*
G36*
G01*
X55625000Y-64745000D02*
X55625000Y-64445000D01*
G75*
G02*
X55775000Y-64295000I150000J0D01*
G01*
X57525000Y-64295000D01*
G75*
G02*
X57675000Y-64445000I0J-150000D01*
G01*
X57675000Y-64745000D01*
G75*
G02*
X57525000Y-64895000I-150000J0D01*
G01*
X55775000Y-64895000D01*
G75*
G02*
X55625000Y-64745000I0J150000D01*
G01*
G37*
G36*
G01*
X55625000Y-63475000D02*
X55625000Y-63175000D01*
G75*
G02*
X55775000Y-63025000I150000J0D01*
G01*
X57525000Y-63025000D01*
G75*
G02*
X57675000Y-63175000I0J-150000D01*
G01*
X57675000Y-63475000D01*
G75*
G02*
X57525000Y-63625000I-150000J0D01*
G01*
X55775000Y-63625000D01*
G75*
G02*
X55625000Y-63475000I0J150000D01*
G01*
G37*
G36*
G01*
X55625000Y-62205000D02*
X55625000Y-61905000D01*
G75*
G02*
X55775000Y-61755000I150000J0D01*
G01*
X57525000Y-61755000D01*
G75*
G02*
X57675000Y-61905000I0J-150000D01*
G01*
X57675000Y-62205000D01*
G75*
G02*
X57525000Y-62355000I-150000J0D01*
G01*
X55775000Y-62355000D01*
G75*
G02*
X55625000Y-62205000I0J150000D01*
G01*
G37*
G36*
G01*
X55625000Y-60935000D02*
X55625000Y-60635000D01*
G75*
G02*
X55775000Y-60485000I150000J0D01*
G01*
X57525000Y-60485000D01*
G75*
G02*
X57675000Y-60635000I0J-150000D01*
G01*
X57675000Y-60935000D01*
G75*
G02*
X57525000Y-61085000I-150000J0D01*
G01*
X55775000Y-61085000D01*
G75*
G02*
X55625000Y-60935000I0J150000D01*
G01*
G37*
G36*
G01*
X26325000Y-60935000D02*
X26325000Y-60635000D01*
G75*
G02*
X26475000Y-60485000I150000J0D01*
G01*
X28225000Y-60485000D01*
G75*
G02*
X28375000Y-60635000I0J-150000D01*
G01*
X28375000Y-60935000D01*
G75*
G02*
X28225000Y-61085000I-150000J0D01*
G01*
X26475000Y-61085000D01*
G75*
G02*
X26325000Y-60935000I0J150000D01*
G01*
G37*
G36*
G01*
X26325000Y-62205000D02*
X26325000Y-61905000D01*
G75*
G02*
X26475000Y-61755000I150000J0D01*
G01*
X28225000Y-61755000D01*
G75*
G02*
X28375000Y-61905000I0J-150000D01*
G01*
X28375000Y-62205000D01*
G75*
G02*
X28225000Y-62355000I-150000J0D01*
G01*
X26475000Y-62355000D01*
G75*
G02*
X26325000Y-62205000I0J150000D01*
G01*
G37*
G36*
G01*
X26325000Y-63475000D02*
X26325000Y-63175000D01*
G75*
G02*
X26475000Y-63025000I150000J0D01*
G01*
X28225000Y-63025000D01*
G75*
G02*
X28375000Y-63175000I0J-150000D01*
G01*
X28375000Y-63475000D01*
G75*
G02*
X28225000Y-63625000I-150000J0D01*
G01*
X26475000Y-63625000D01*
G75*
G02*
X26325000Y-63475000I0J150000D01*
G01*
G37*
G36*
G01*
X26325000Y-64745000D02*
X26325000Y-64445000D01*
G75*
G02*
X26475000Y-64295000I150000J0D01*
G01*
X28225000Y-64295000D01*
G75*
G02*
X28375000Y-64445000I0J-150000D01*
G01*
X28375000Y-64745000D01*
G75*
G02*
X28225000Y-64895000I-150000J0D01*
G01*
X26475000Y-64895000D01*
G75*
G02*
X26325000Y-64745000I0J150000D01*
G01*
G37*
G36*
G01*
X26325000Y-66015000D02*
X26325000Y-65715000D01*
G75*
G02*
X26475000Y-65565000I150000J0D01*
G01*
X28225000Y-65565000D01*
G75*
G02*
X28375000Y-65715000I0J-150000D01*
G01*
X28375000Y-66015000D01*
G75*
G02*
X28225000Y-66165000I-150000J0D01*
G01*
X26475000Y-66165000D01*
G75*
G02*
X26325000Y-66015000I0J150000D01*
G01*
G37*
G36*
G01*
X26325000Y-67285000D02*
X26325000Y-66985000D01*
G75*
G02*
X26475000Y-66835000I150000J0D01*
G01*
X28225000Y-66835000D01*
G75*
G02*
X28375000Y-66985000I0J-150000D01*
G01*
X28375000Y-67285000D01*
G75*
G02*
X28225000Y-67435000I-150000J0D01*
G01*
X26475000Y-67435000D01*
G75*
G02*
X26325000Y-67285000I0J150000D01*
G01*
G37*
G36*
G01*
X26325000Y-68555000D02*
X26325000Y-68255000D01*
G75*
G02*
X26475000Y-68105000I150000J0D01*
G01*
X28225000Y-68105000D01*
G75*
G02*
X28375000Y-68255000I0J-150000D01*
G01*
X28375000Y-68555000D01*
G75*
G02*
X28225000Y-68705000I-150000J0D01*
G01*
X26475000Y-68705000D01*
G75*
G02*
X26325000Y-68555000I0J150000D01*
G01*
G37*
G36*
G01*
X26325000Y-69825000D02*
X26325000Y-69525000D01*
G75*
G02*
X26475000Y-69375000I150000J0D01*
G01*
X28225000Y-69375000D01*
G75*
G02*
X28375000Y-69525000I0J-150000D01*
G01*
X28375000Y-69825000D01*
G75*
G02*
X28225000Y-69975000I-150000J0D01*
G01*
X26475000Y-69975000D01*
G75*
G02*
X26325000Y-69825000I0J150000D01*
G01*
G37*
G36*
G01*
X26325000Y-71095000D02*
X26325000Y-70795000D01*
G75*
G02*
X26475000Y-70645000I150000J0D01*
G01*
X28225000Y-70645000D01*
G75*
G02*
X28375000Y-70795000I0J-150000D01*
G01*
X28375000Y-71095000D01*
G75*
G02*
X28225000Y-71245000I-150000J0D01*
G01*
X26475000Y-71245000D01*
G75*
G02*
X26325000Y-71095000I0J150000D01*
G01*
G37*
G36*
G01*
X26325000Y-72365000D02*
X26325000Y-72065000D01*
G75*
G02*
X26475000Y-71915000I150000J0D01*
G01*
X28225000Y-71915000D01*
G75*
G02*
X28375000Y-72065000I0J-150000D01*
G01*
X28375000Y-72365000D01*
G75*
G02*
X28225000Y-72515000I-150000J0D01*
G01*
X26475000Y-72515000D01*
G75*
G02*
X26325000Y-72365000I0J150000D01*
G01*
G37*
G36*
G01*
X35625000Y-72365000D02*
X35625000Y-72065000D01*
G75*
G02*
X35775000Y-71915000I150000J0D01*
G01*
X37525000Y-71915000D01*
G75*
G02*
X37675000Y-72065000I0J-150000D01*
G01*
X37675000Y-72365000D01*
G75*
G02*
X37525000Y-72515000I-150000J0D01*
G01*
X35775000Y-72515000D01*
G75*
G02*
X35625000Y-72365000I0J150000D01*
G01*
G37*
G36*
G01*
X35625000Y-71095000D02*
X35625000Y-70795000D01*
G75*
G02*
X35775000Y-70645000I150000J0D01*
G01*
X37525000Y-70645000D01*
G75*
G02*
X37675000Y-70795000I0J-150000D01*
G01*
X37675000Y-71095000D01*
G75*
G02*
X37525000Y-71245000I-150000J0D01*
G01*
X35775000Y-71245000D01*
G75*
G02*
X35625000Y-71095000I0J150000D01*
G01*
G37*
G36*
G01*
X35625000Y-69825000D02*
X35625000Y-69525000D01*
G75*
G02*
X35775000Y-69375000I150000J0D01*
G01*
X37525000Y-69375000D01*
G75*
G02*
X37675000Y-69525000I0J-150000D01*
G01*
X37675000Y-69825000D01*
G75*
G02*
X37525000Y-69975000I-150000J0D01*
G01*
X35775000Y-69975000D01*
G75*
G02*
X35625000Y-69825000I0J150000D01*
G01*
G37*
G36*
G01*
X35625000Y-68555000D02*
X35625000Y-68255000D01*
G75*
G02*
X35775000Y-68105000I150000J0D01*
G01*
X37525000Y-68105000D01*
G75*
G02*
X37675000Y-68255000I0J-150000D01*
G01*
X37675000Y-68555000D01*
G75*
G02*
X37525000Y-68705000I-150000J0D01*
G01*
X35775000Y-68705000D01*
G75*
G02*
X35625000Y-68555000I0J150000D01*
G01*
G37*
G36*
G01*
X35625000Y-67285000D02*
X35625000Y-66985000D01*
G75*
G02*
X35775000Y-66835000I150000J0D01*
G01*
X37525000Y-66835000D01*
G75*
G02*
X37675000Y-66985000I0J-150000D01*
G01*
X37675000Y-67285000D01*
G75*
G02*
X37525000Y-67435000I-150000J0D01*
G01*
X35775000Y-67435000D01*
G75*
G02*
X35625000Y-67285000I0J150000D01*
G01*
G37*
G36*
G01*
X35625000Y-66015000D02*
X35625000Y-65715000D01*
G75*
G02*
X35775000Y-65565000I150000J0D01*
G01*
X37525000Y-65565000D01*
G75*
G02*
X37675000Y-65715000I0J-150000D01*
G01*
X37675000Y-66015000D01*
G75*
G02*
X37525000Y-66165000I-150000J0D01*
G01*
X35775000Y-66165000D01*
G75*
G02*
X35625000Y-66015000I0J150000D01*
G01*
G37*
G36*
G01*
X35625000Y-64745000D02*
X35625000Y-64445000D01*
G75*
G02*
X35775000Y-64295000I150000J0D01*
G01*
X37525000Y-64295000D01*
G75*
G02*
X37675000Y-64445000I0J-150000D01*
G01*
X37675000Y-64745000D01*
G75*
G02*
X37525000Y-64895000I-150000J0D01*
G01*
X35775000Y-64895000D01*
G75*
G02*
X35625000Y-64745000I0J150000D01*
G01*
G37*
G36*
G01*
X35625000Y-63475000D02*
X35625000Y-63175000D01*
G75*
G02*
X35775000Y-63025000I150000J0D01*
G01*
X37525000Y-63025000D01*
G75*
G02*
X37675000Y-63175000I0J-150000D01*
G01*
X37675000Y-63475000D01*
G75*
G02*
X37525000Y-63625000I-150000J0D01*
G01*
X35775000Y-63625000D01*
G75*
G02*
X35625000Y-63475000I0J150000D01*
G01*
G37*
G36*
G01*
X35625000Y-62205000D02*
X35625000Y-61905000D01*
G75*
G02*
X35775000Y-61755000I150000J0D01*
G01*
X37525000Y-61755000D01*
G75*
G02*
X37675000Y-61905000I0J-150000D01*
G01*
X37675000Y-62205000D01*
G75*
G02*
X37525000Y-62355000I-150000J0D01*
G01*
X35775000Y-62355000D01*
G75*
G02*
X35625000Y-62205000I0J150000D01*
G01*
G37*
G36*
G01*
X35625000Y-60935000D02*
X35625000Y-60635000D01*
G75*
G02*
X35775000Y-60485000I150000J0D01*
G01*
X37525000Y-60485000D01*
G75*
G02*
X37675000Y-60635000I0J-150000D01*
G01*
X37675000Y-60935000D01*
G75*
G02*
X37525000Y-61085000I-150000J0D01*
G01*
X35775000Y-61085000D01*
G75*
G02*
X35625000Y-60935000I0J150000D01*
G01*
G37*
D16*
X5000000Y-5000000D03*
X128000000Y-5000000D03*
X5000000Y-88000000D03*
X128000000Y-88000000D03*
G36*
G01*
X69600000Y-52075000D02*
X69600000Y-51925000D01*
G75*
G02*
X69675000Y-51850000I75000J0D01*
G01*
X71000000Y-51850000D01*
G75*
G02*
X71075000Y-51925000I0J-75000D01*
G01*
X71075000Y-52075000D01*
G75*
G02*
X71000000Y-52150000I-75000J0D01*
G01*
X69675000Y-52150000D01*
G75*
G02*
X69600000Y-52075000I0J75000D01*
G01*
G37*
G36*
G01*
X69600000Y-52575000D02*
X69600000Y-52425000D01*
G75*
G02*
X69675000Y-52350000I75000J0D01*
G01*
X71000000Y-52350000D01*
G75*
G02*
X71075000Y-52425000I0J-75000D01*
G01*
X71075000Y-52575000D01*
G75*
G02*
X71000000Y-52650000I-75000J0D01*
G01*
X69675000Y-52650000D01*
G75*
G02*
X69600000Y-52575000I0J75000D01*
G01*
G37*
G36*
G01*
X69600000Y-53075000D02*
X69600000Y-52925000D01*
G75*
G02*
X69675000Y-52850000I75000J0D01*
G01*
X71000000Y-52850000D01*
G75*
G02*
X71075000Y-52925000I0J-75000D01*
G01*
X71075000Y-53075000D01*
G75*
G02*
X71000000Y-53150000I-75000J0D01*
G01*
X69675000Y-53150000D01*
G75*
G02*
X69600000Y-53075000I0J75000D01*
G01*
G37*
G36*
G01*
X69600000Y-53575000D02*
X69600000Y-53425000D01*
G75*
G02*
X69675000Y-53350000I75000J0D01*
G01*
X71000000Y-53350000D01*
G75*
G02*
X71075000Y-53425000I0J-75000D01*
G01*
X71075000Y-53575000D01*
G75*
G02*
X71000000Y-53650000I-75000J0D01*
G01*
X69675000Y-53650000D01*
G75*
G02*
X69600000Y-53575000I0J75000D01*
G01*
G37*
G36*
G01*
X69600000Y-54075000D02*
X69600000Y-53925000D01*
G75*
G02*
X69675000Y-53850000I75000J0D01*
G01*
X71000000Y-53850000D01*
G75*
G02*
X71075000Y-53925000I0J-75000D01*
G01*
X71075000Y-54075000D01*
G75*
G02*
X71000000Y-54150000I-75000J0D01*
G01*
X69675000Y-54150000D01*
G75*
G02*
X69600000Y-54075000I0J75000D01*
G01*
G37*
G36*
G01*
X69600000Y-54575000D02*
X69600000Y-54425000D01*
G75*
G02*
X69675000Y-54350000I75000J0D01*
G01*
X71000000Y-54350000D01*
G75*
G02*
X71075000Y-54425000I0J-75000D01*
G01*
X71075000Y-54575000D01*
G75*
G02*
X71000000Y-54650000I-75000J0D01*
G01*
X69675000Y-54650000D01*
G75*
G02*
X69600000Y-54575000I0J75000D01*
G01*
G37*
G36*
G01*
X69600000Y-55075000D02*
X69600000Y-54925000D01*
G75*
G02*
X69675000Y-54850000I75000J0D01*
G01*
X71000000Y-54850000D01*
G75*
G02*
X71075000Y-54925000I0J-75000D01*
G01*
X71075000Y-55075000D01*
G75*
G02*
X71000000Y-55150000I-75000J0D01*
G01*
X69675000Y-55150000D01*
G75*
G02*
X69600000Y-55075000I0J75000D01*
G01*
G37*
G36*
G01*
X69600000Y-55575000D02*
X69600000Y-55425000D01*
G75*
G02*
X69675000Y-55350000I75000J0D01*
G01*
X71000000Y-55350000D01*
G75*
G02*
X71075000Y-55425000I0J-75000D01*
G01*
X71075000Y-55575000D01*
G75*
G02*
X71000000Y-55650000I-75000J0D01*
G01*
X69675000Y-55650000D01*
G75*
G02*
X69600000Y-55575000I0J75000D01*
G01*
G37*
G36*
G01*
X69600000Y-56075000D02*
X69600000Y-55925000D01*
G75*
G02*
X69675000Y-55850000I75000J0D01*
G01*
X71000000Y-55850000D01*
G75*
G02*
X71075000Y-55925000I0J-75000D01*
G01*
X71075000Y-56075000D01*
G75*
G02*
X71000000Y-56150000I-75000J0D01*
G01*
X69675000Y-56150000D01*
G75*
G02*
X69600000Y-56075000I0J75000D01*
G01*
G37*
G36*
G01*
X69600000Y-56575000D02*
X69600000Y-56425000D01*
G75*
G02*
X69675000Y-56350000I75000J0D01*
G01*
X71000000Y-56350000D01*
G75*
G02*
X71075000Y-56425000I0J-75000D01*
G01*
X71075000Y-56575000D01*
G75*
G02*
X71000000Y-56650000I-75000J0D01*
G01*
X69675000Y-56650000D01*
G75*
G02*
X69600000Y-56575000I0J75000D01*
G01*
G37*
G36*
G01*
X69600000Y-57075000D02*
X69600000Y-56925000D01*
G75*
G02*
X69675000Y-56850000I75000J0D01*
G01*
X71000000Y-56850000D01*
G75*
G02*
X71075000Y-56925000I0J-75000D01*
G01*
X71075000Y-57075000D01*
G75*
G02*
X71000000Y-57150000I-75000J0D01*
G01*
X69675000Y-57150000D01*
G75*
G02*
X69600000Y-57075000I0J75000D01*
G01*
G37*
G36*
G01*
X69600000Y-57575000D02*
X69600000Y-57425000D01*
G75*
G02*
X69675000Y-57350000I75000J0D01*
G01*
X71000000Y-57350000D01*
G75*
G02*
X71075000Y-57425000I0J-75000D01*
G01*
X71075000Y-57575000D01*
G75*
G02*
X71000000Y-57650000I-75000J0D01*
G01*
X69675000Y-57650000D01*
G75*
G02*
X69600000Y-57575000I0J75000D01*
G01*
G37*
G36*
G01*
X69600000Y-58075000D02*
X69600000Y-57925000D01*
G75*
G02*
X69675000Y-57850000I75000J0D01*
G01*
X71000000Y-57850000D01*
G75*
G02*
X71075000Y-57925000I0J-75000D01*
G01*
X71075000Y-58075000D01*
G75*
G02*
X71000000Y-58150000I-75000J0D01*
G01*
X69675000Y-58150000D01*
G75*
G02*
X69600000Y-58075000I0J75000D01*
G01*
G37*
G36*
G01*
X69600000Y-58575000D02*
X69600000Y-58425000D01*
G75*
G02*
X69675000Y-58350000I75000J0D01*
G01*
X71000000Y-58350000D01*
G75*
G02*
X71075000Y-58425000I0J-75000D01*
G01*
X71075000Y-58575000D01*
G75*
G02*
X71000000Y-58650000I-75000J0D01*
G01*
X69675000Y-58650000D01*
G75*
G02*
X69600000Y-58575000I0J75000D01*
G01*
G37*
G36*
G01*
X69600000Y-59075000D02*
X69600000Y-58925000D01*
G75*
G02*
X69675000Y-58850000I75000J0D01*
G01*
X71000000Y-58850000D01*
G75*
G02*
X71075000Y-58925000I0J-75000D01*
G01*
X71075000Y-59075000D01*
G75*
G02*
X71000000Y-59150000I-75000J0D01*
G01*
X69675000Y-59150000D01*
G75*
G02*
X69600000Y-59075000I0J75000D01*
G01*
G37*
G36*
G01*
X69600000Y-59575000D02*
X69600000Y-59425000D01*
G75*
G02*
X69675000Y-59350000I75000J0D01*
G01*
X71000000Y-59350000D01*
G75*
G02*
X71075000Y-59425000I0J-75000D01*
G01*
X71075000Y-59575000D01*
G75*
G02*
X71000000Y-59650000I-75000J0D01*
G01*
X69675000Y-59650000D01*
G75*
G02*
X69600000Y-59575000I0J75000D01*
G01*
G37*
G36*
G01*
X69600000Y-60075000D02*
X69600000Y-59925000D01*
G75*
G02*
X69675000Y-59850000I75000J0D01*
G01*
X71000000Y-59850000D01*
G75*
G02*
X71075000Y-59925000I0J-75000D01*
G01*
X71075000Y-60075000D01*
G75*
G02*
X71000000Y-60150000I-75000J0D01*
G01*
X69675000Y-60150000D01*
G75*
G02*
X69600000Y-60075000I0J75000D01*
G01*
G37*
G36*
G01*
X69600000Y-60575000D02*
X69600000Y-60425000D01*
G75*
G02*
X69675000Y-60350000I75000J0D01*
G01*
X71000000Y-60350000D01*
G75*
G02*
X71075000Y-60425000I0J-75000D01*
G01*
X71075000Y-60575000D01*
G75*
G02*
X71000000Y-60650000I-75000J0D01*
G01*
X69675000Y-60650000D01*
G75*
G02*
X69600000Y-60575000I0J75000D01*
G01*
G37*
G36*
G01*
X69600000Y-61075000D02*
X69600000Y-60925000D01*
G75*
G02*
X69675000Y-60850000I75000J0D01*
G01*
X71000000Y-60850000D01*
G75*
G02*
X71075000Y-60925000I0J-75000D01*
G01*
X71075000Y-61075000D01*
G75*
G02*
X71000000Y-61150000I-75000J0D01*
G01*
X69675000Y-61150000D01*
G75*
G02*
X69600000Y-61075000I0J75000D01*
G01*
G37*
G36*
G01*
X69600000Y-61575000D02*
X69600000Y-61425000D01*
G75*
G02*
X69675000Y-61350000I75000J0D01*
G01*
X71000000Y-61350000D01*
G75*
G02*
X71075000Y-61425000I0J-75000D01*
G01*
X71075000Y-61575000D01*
G75*
G02*
X71000000Y-61650000I-75000J0D01*
G01*
X69675000Y-61650000D01*
G75*
G02*
X69600000Y-61575000I0J75000D01*
G01*
G37*
G36*
G01*
X69600000Y-62075000D02*
X69600000Y-61925000D01*
G75*
G02*
X69675000Y-61850000I75000J0D01*
G01*
X71000000Y-61850000D01*
G75*
G02*
X71075000Y-61925000I0J-75000D01*
G01*
X71075000Y-62075000D01*
G75*
G02*
X71000000Y-62150000I-75000J0D01*
G01*
X69675000Y-62150000D01*
G75*
G02*
X69600000Y-62075000I0J75000D01*
G01*
G37*
G36*
G01*
X69600000Y-62575000D02*
X69600000Y-62425000D01*
G75*
G02*
X69675000Y-62350000I75000J0D01*
G01*
X71000000Y-62350000D01*
G75*
G02*
X71075000Y-62425000I0J-75000D01*
G01*
X71075000Y-62575000D01*
G75*
G02*
X71000000Y-62650000I-75000J0D01*
G01*
X69675000Y-62650000D01*
G75*
G02*
X69600000Y-62575000I0J75000D01*
G01*
G37*
G36*
G01*
X69600000Y-63075000D02*
X69600000Y-62925000D01*
G75*
G02*
X69675000Y-62850000I75000J0D01*
G01*
X71000000Y-62850000D01*
G75*
G02*
X71075000Y-62925000I0J-75000D01*
G01*
X71075000Y-63075000D01*
G75*
G02*
X71000000Y-63150000I-75000J0D01*
G01*
X69675000Y-63150000D01*
G75*
G02*
X69600000Y-63075000I0J75000D01*
G01*
G37*
G36*
G01*
X69600000Y-63575000D02*
X69600000Y-63425000D01*
G75*
G02*
X69675000Y-63350000I75000J0D01*
G01*
X71000000Y-63350000D01*
G75*
G02*
X71075000Y-63425000I0J-75000D01*
G01*
X71075000Y-63575000D01*
G75*
G02*
X71000000Y-63650000I-75000J0D01*
G01*
X69675000Y-63650000D01*
G75*
G02*
X69600000Y-63575000I0J75000D01*
G01*
G37*
G36*
G01*
X69600000Y-64075000D02*
X69600000Y-63925000D01*
G75*
G02*
X69675000Y-63850000I75000J0D01*
G01*
X71000000Y-63850000D01*
G75*
G02*
X71075000Y-63925000I0J-75000D01*
G01*
X71075000Y-64075000D01*
G75*
G02*
X71000000Y-64150000I-75000J0D01*
G01*
X69675000Y-64150000D01*
G75*
G02*
X69600000Y-64075000I0J75000D01*
G01*
G37*
G36*
G01*
X71850000Y-66325000D02*
X71850000Y-65000000D01*
G75*
G02*
X71925000Y-64925000I75000J0D01*
G01*
X72075000Y-64925000D01*
G75*
G02*
X72150000Y-65000000I0J-75000D01*
G01*
X72150000Y-66325000D01*
G75*
G02*
X72075000Y-66400000I-75000J0D01*
G01*
X71925000Y-66400000D01*
G75*
G02*
X71850000Y-66325000I0J75000D01*
G01*
G37*
G36*
G01*
X72350000Y-66325000D02*
X72350000Y-65000000D01*
G75*
G02*
X72425000Y-64925000I75000J0D01*
G01*
X72575000Y-64925000D01*
G75*
G02*
X72650000Y-65000000I0J-75000D01*
G01*
X72650000Y-66325000D01*
G75*
G02*
X72575000Y-66400000I-75000J0D01*
G01*
X72425000Y-66400000D01*
G75*
G02*
X72350000Y-66325000I0J75000D01*
G01*
G37*
G36*
G01*
X72850000Y-66325000D02*
X72850000Y-65000000D01*
G75*
G02*
X72925000Y-64925000I75000J0D01*
G01*
X73075000Y-64925000D01*
G75*
G02*
X73150000Y-65000000I0J-75000D01*
G01*
X73150000Y-66325000D01*
G75*
G02*
X73075000Y-66400000I-75000J0D01*
G01*
X72925000Y-66400000D01*
G75*
G02*
X72850000Y-66325000I0J75000D01*
G01*
G37*
G36*
G01*
X73350000Y-66325000D02*
X73350000Y-65000000D01*
G75*
G02*
X73425000Y-64925000I75000J0D01*
G01*
X73575000Y-64925000D01*
G75*
G02*
X73650000Y-65000000I0J-75000D01*
G01*
X73650000Y-66325000D01*
G75*
G02*
X73575000Y-66400000I-75000J0D01*
G01*
X73425000Y-66400000D01*
G75*
G02*
X73350000Y-66325000I0J75000D01*
G01*
G37*
G36*
G01*
X73850000Y-66325000D02*
X73850000Y-65000000D01*
G75*
G02*
X73925000Y-64925000I75000J0D01*
G01*
X74075000Y-64925000D01*
G75*
G02*
X74150000Y-65000000I0J-75000D01*
G01*
X74150000Y-66325000D01*
G75*
G02*
X74075000Y-66400000I-75000J0D01*
G01*
X73925000Y-66400000D01*
G75*
G02*
X73850000Y-66325000I0J75000D01*
G01*
G37*
G36*
G01*
X74350000Y-66325000D02*
X74350000Y-65000000D01*
G75*
G02*
X74425000Y-64925000I75000J0D01*
G01*
X74575000Y-64925000D01*
G75*
G02*
X74650000Y-65000000I0J-75000D01*
G01*
X74650000Y-66325000D01*
G75*
G02*
X74575000Y-66400000I-75000J0D01*
G01*
X74425000Y-66400000D01*
G75*
G02*
X74350000Y-66325000I0J75000D01*
G01*
G37*
G36*
G01*
X74850000Y-66325000D02*
X74850000Y-65000000D01*
G75*
G02*
X74925000Y-64925000I75000J0D01*
G01*
X75075000Y-64925000D01*
G75*
G02*
X75150000Y-65000000I0J-75000D01*
G01*
X75150000Y-66325000D01*
G75*
G02*
X75075000Y-66400000I-75000J0D01*
G01*
X74925000Y-66400000D01*
G75*
G02*
X74850000Y-66325000I0J75000D01*
G01*
G37*
G36*
G01*
X75350000Y-66325000D02*
X75350000Y-65000000D01*
G75*
G02*
X75425000Y-64925000I75000J0D01*
G01*
X75575000Y-64925000D01*
G75*
G02*
X75650000Y-65000000I0J-75000D01*
G01*
X75650000Y-66325000D01*
G75*
G02*
X75575000Y-66400000I-75000J0D01*
G01*
X75425000Y-66400000D01*
G75*
G02*
X75350000Y-66325000I0J75000D01*
G01*
G37*
G36*
G01*
X75850000Y-66325000D02*
X75850000Y-65000000D01*
G75*
G02*
X75925000Y-64925000I75000J0D01*
G01*
X76075000Y-64925000D01*
G75*
G02*
X76150000Y-65000000I0J-75000D01*
G01*
X76150000Y-66325000D01*
G75*
G02*
X76075000Y-66400000I-75000J0D01*
G01*
X75925000Y-66400000D01*
G75*
G02*
X75850000Y-66325000I0J75000D01*
G01*
G37*
G36*
G01*
X76350000Y-66325000D02*
X76350000Y-65000000D01*
G75*
G02*
X76425000Y-64925000I75000J0D01*
G01*
X76575000Y-64925000D01*
G75*
G02*
X76650000Y-65000000I0J-75000D01*
G01*
X76650000Y-66325000D01*
G75*
G02*
X76575000Y-66400000I-75000J0D01*
G01*
X76425000Y-66400000D01*
G75*
G02*
X76350000Y-66325000I0J75000D01*
G01*
G37*
G36*
G01*
X76850000Y-66325000D02*
X76850000Y-65000000D01*
G75*
G02*
X76925000Y-64925000I75000J0D01*
G01*
X77075000Y-64925000D01*
G75*
G02*
X77150000Y-65000000I0J-75000D01*
G01*
X77150000Y-66325000D01*
G75*
G02*
X77075000Y-66400000I-75000J0D01*
G01*
X76925000Y-66400000D01*
G75*
G02*
X76850000Y-66325000I0J75000D01*
G01*
G37*
G36*
G01*
X77350000Y-66325000D02*
X77350000Y-65000000D01*
G75*
G02*
X77425000Y-64925000I75000J0D01*
G01*
X77575000Y-64925000D01*
G75*
G02*
X77650000Y-65000000I0J-75000D01*
G01*
X77650000Y-66325000D01*
G75*
G02*
X77575000Y-66400000I-75000J0D01*
G01*
X77425000Y-66400000D01*
G75*
G02*
X77350000Y-66325000I0J75000D01*
G01*
G37*
G36*
G01*
X77850000Y-66325000D02*
X77850000Y-65000000D01*
G75*
G02*
X77925000Y-64925000I75000J0D01*
G01*
X78075000Y-64925000D01*
G75*
G02*
X78150000Y-65000000I0J-75000D01*
G01*
X78150000Y-66325000D01*
G75*
G02*
X78075000Y-66400000I-75000J0D01*
G01*
X77925000Y-66400000D01*
G75*
G02*
X77850000Y-66325000I0J75000D01*
G01*
G37*
G36*
G01*
X78350000Y-66325000D02*
X78350000Y-65000000D01*
G75*
G02*
X78425000Y-64925000I75000J0D01*
G01*
X78575000Y-64925000D01*
G75*
G02*
X78650000Y-65000000I0J-75000D01*
G01*
X78650000Y-66325000D01*
G75*
G02*
X78575000Y-66400000I-75000J0D01*
G01*
X78425000Y-66400000D01*
G75*
G02*
X78350000Y-66325000I0J75000D01*
G01*
G37*
G36*
G01*
X78850000Y-66325000D02*
X78850000Y-65000000D01*
G75*
G02*
X78925000Y-64925000I75000J0D01*
G01*
X79075000Y-64925000D01*
G75*
G02*
X79150000Y-65000000I0J-75000D01*
G01*
X79150000Y-66325000D01*
G75*
G02*
X79075000Y-66400000I-75000J0D01*
G01*
X78925000Y-66400000D01*
G75*
G02*
X78850000Y-66325000I0J75000D01*
G01*
G37*
G36*
G01*
X79350000Y-66325000D02*
X79350000Y-65000000D01*
G75*
G02*
X79425000Y-64925000I75000J0D01*
G01*
X79575000Y-64925000D01*
G75*
G02*
X79650000Y-65000000I0J-75000D01*
G01*
X79650000Y-66325000D01*
G75*
G02*
X79575000Y-66400000I-75000J0D01*
G01*
X79425000Y-66400000D01*
G75*
G02*
X79350000Y-66325000I0J75000D01*
G01*
G37*
G36*
G01*
X79850000Y-66325000D02*
X79850000Y-65000000D01*
G75*
G02*
X79925000Y-64925000I75000J0D01*
G01*
X80075000Y-64925000D01*
G75*
G02*
X80150000Y-65000000I0J-75000D01*
G01*
X80150000Y-66325000D01*
G75*
G02*
X80075000Y-66400000I-75000J0D01*
G01*
X79925000Y-66400000D01*
G75*
G02*
X79850000Y-66325000I0J75000D01*
G01*
G37*
G36*
G01*
X80350000Y-66325000D02*
X80350000Y-65000000D01*
G75*
G02*
X80425000Y-64925000I75000J0D01*
G01*
X80575000Y-64925000D01*
G75*
G02*
X80650000Y-65000000I0J-75000D01*
G01*
X80650000Y-66325000D01*
G75*
G02*
X80575000Y-66400000I-75000J0D01*
G01*
X80425000Y-66400000D01*
G75*
G02*
X80350000Y-66325000I0J75000D01*
G01*
G37*
G36*
G01*
X80850000Y-66325000D02*
X80850000Y-65000000D01*
G75*
G02*
X80925000Y-64925000I75000J0D01*
G01*
X81075000Y-64925000D01*
G75*
G02*
X81150000Y-65000000I0J-75000D01*
G01*
X81150000Y-66325000D01*
G75*
G02*
X81075000Y-66400000I-75000J0D01*
G01*
X80925000Y-66400000D01*
G75*
G02*
X80850000Y-66325000I0J75000D01*
G01*
G37*
G36*
G01*
X81350000Y-66325000D02*
X81350000Y-65000000D01*
G75*
G02*
X81425000Y-64925000I75000J0D01*
G01*
X81575000Y-64925000D01*
G75*
G02*
X81650000Y-65000000I0J-75000D01*
G01*
X81650000Y-66325000D01*
G75*
G02*
X81575000Y-66400000I-75000J0D01*
G01*
X81425000Y-66400000D01*
G75*
G02*
X81350000Y-66325000I0J75000D01*
G01*
G37*
G36*
G01*
X81850000Y-66325000D02*
X81850000Y-65000000D01*
G75*
G02*
X81925000Y-64925000I75000J0D01*
G01*
X82075000Y-64925000D01*
G75*
G02*
X82150000Y-65000000I0J-75000D01*
G01*
X82150000Y-66325000D01*
G75*
G02*
X82075000Y-66400000I-75000J0D01*
G01*
X81925000Y-66400000D01*
G75*
G02*
X81850000Y-66325000I0J75000D01*
G01*
G37*
G36*
G01*
X82350000Y-66325000D02*
X82350000Y-65000000D01*
G75*
G02*
X82425000Y-64925000I75000J0D01*
G01*
X82575000Y-64925000D01*
G75*
G02*
X82650000Y-65000000I0J-75000D01*
G01*
X82650000Y-66325000D01*
G75*
G02*
X82575000Y-66400000I-75000J0D01*
G01*
X82425000Y-66400000D01*
G75*
G02*
X82350000Y-66325000I0J75000D01*
G01*
G37*
G36*
G01*
X82850000Y-66325000D02*
X82850000Y-65000000D01*
G75*
G02*
X82925000Y-64925000I75000J0D01*
G01*
X83075000Y-64925000D01*
G75*
G02*
X83150000Y-65000000I0J-75000D01*
G01*
X83150000Y-66325000D01*
G75*
G02*
X83075000Y-66400000I-75000J0D01*
G01*
X82925000Y-66400000D01*
G75*
G02*
X82850000Y-66325000I0J75000D01*
G01*
G37*
G36*
G01*
X83350000Y-66325000D02*
X83350000Y-65000000D01*
G75*
G02*
X83425000Y-64925000I75000J0D01*
G01*
X83575000Y-64925000D01*
G75*
G02*
X83650000Y-65000000I0J-75000D01*
G01*
X83650000Y-66325000D01*
G75*
G02*
X83575000Y-66400000I-75000J0D01*
G01*
X83425000Y-66400000D01*
G75*
G02*
X83350000Y-66325000I0J75000D01*
G01*
G37*
G36*
G01*
X83850000Y-66325000D02*
X83850000Y-65000000D01*
G75*
G02*
X83925000Y-64925000I75000J0D01*
G01*
X84075000Y-64925000D01*
G75*
G02*
X84150000Y-65000000I0J-75000D01*
G01*
X84150000Y-66325000D01*
G75*
G02*
X84075000Y-66400000I-75000J0D01*
G01*
X83925000Y-66400000D01*
G75*
G02*
X83850000Y-66325000I0J75000D01*
G01*
G37*
G36*
G01*
X84925000Y-64075000D02*
X84925000Y-63925000D01*
G75*
G02*
X85000000Y-63850000I75000J0D01*
G01*
X86325000Y-63850000D01*
G75*
G02*
X86400000Y-63925000I0J-75000D01*
G01*
X86400000Y-64075000D01*
G75*
G02*
X86325000Y-64150000I-75000J0D01*
G01*
X85000000Y-64150000D01*
G75*
G02*
X84925000Y-64075000I0J75000D01*
G01*
G37*
G36*
G01*
X84925000Y-63575000D02*
X84925000Y-63425000D01*
G75*
G02*
X85000000Y-63350000I75000J0D01*
G01*
X86325000Y-63350000D01*
G75*
G02*
X86400000Y-63425000I0J-75000D01*
G01*
X86400000Y-63575000D01*
G75*
G02*
X86325000Y-63650000I-75000J0D01*
G01*
X85000000Y-63650000D01*
G75*
G02*
X84925000Y-63575000I0J75000D01*
G01*
G37*
G36*
G01*
X84925000Y-63075000D02*
X84925000Y-62925000D01*
G75*
G02*
X85000000Y-62850000I75000J0D01*
G01*
X86325000Y-62850000D01*
G75*
G02*
X86400000Y-62925000I0J-75000D01*
G01*
X86400000Y-63075000D01*
G75*
G02*
X86325000Y-63150000I-75000J0D01*
G01*
X85000000Y-63150000D01*
G75*
G02*
X84925000Y-63075000I0J75000D01*
G01*
G37*
G36*
G01*
X84925000Y-62575000D02*
X84925000Y-62425000D01*
G75*
G02*
X85000000Y-62350000I75000J0D01*
G01*
X86325000Y-62350000D01*
G75*
G02*
X86400000Y-62425000I0J-75000D01*
G01*
X86400000Y-62575000D01*
G75*
G02*
X86325000Y-62650000I-75000J0D01*
G01*
X85000000Y-62650000D01*
G75*
G02*
X84925000Y-62575000I0J75000D01*
G01*
G37*
G36*
G01*
X84925000Y-62075000D02*
X84925000Y-61925000D01*
G75*
G02*
X85000000Y-61850000I75000J0D01*
G01*
X86325000Y-61850000D01*
G75*
G02*
X86400000Y-61925000I0J-75000D01*
G01*
X86400000Y-62075000D01*
G75*
G02*
X86325000Y-62150000I-75000J0D01*
G01*
X85000000Y-62150000D01*
G75*
G02*
X84925000Y-62075000I0J75000D01*
G01*
G37*
G36*
G01*
X84925000Y-61575000D02*
X84925000Y-61425000D01*
G75*
G02*
X85000000Y-61350000I75000J0D01*
G01*
X86325000Y-61350000D01*
G75*
G02*
X86400000Y-61425000I0J-75000D01*
G01*
X86400000Y-61575000D01*
G75*
G02*
X86325000Y-61650000I-75000J0D01*
G01*
X85000000Y-61650000D01*
G75*
G02*
X84925000Y-61575000I0J75000D01*
G01*
G37*
G36*
G01*
X84925000Y-61075000D02*
X84925000Y-60925000D01*
G75*
G02*
X85000000Y-60850000I75000J0D01*
G01*
X86325000Y-60850000D01*
G75*
G02*
X86400000Y-60925000I0J-75000D01*
G01*
X86400000Y-61075000D01*
G75*
G02*
X86325000Y-61150000I-75000J0D01*
G01*
X85000000Y-61150000D01*
G75*
G02*
X84925000Y-61075000I0J75000D01*
G01*
G37*
G36*
G01*
X84925000Y-60575000D02*
X84925000Y-60425000D01*
G75*
G02*
X85000000Y-60350000I75000J0D01*
G01*
X86325000Y-60350000D01*
G75*
G02*
X86400000Y-60425000I0J-75000D01*
G01*
X86400000Y-60575000D01*
G75*
G02*
X86325000Y-60650000I-75000J0D01*
G01*
X85000000Y-60650000D01*
G75*
G02*
X84925000Y-60575000I0J75000D01*
G01*
G37*
G36*
G01*
X84925000Y-60075000D02*
X84925000Y-59925000D01*
G75*
G02*
X85000000Y-59850000I75000J0D01*
G01*
X86325000Y-59850000D01*
G75*
G02*
X86400000Y-59925000I0J-75000D01*
G01*
X86400000Y-60075000D01*
G75*
G02*
X86325000Y-60150000I-75000J0D01*
G01*
X85000000Y-60150000D01*
G75*
G02*
X84925000Y-60075000I0J75000D01*
G01*
G37*
G36*
G01*
X84925000Y-59575000D02*
X84925000Y-59425000D01*
G75*
G02*
X85000000Y-59350000I75000J0D01*
G01*
X86325000Y-59350000D01*
G75*
G02*
X86400000Y-59425000I0J-75000D01*
G01*
X86400000Y-59575000D01*
G75*
G02*
X86325000Y-59650000I-75000J0D01*
G01*
X85000000Y-59650000D01*
G75*
G02*
X84925000Y-59575000I0J75000D01*
G01*
G37*
G36*
G01*
X84925000Y-59075000D02*
X84925000Y-58925000D01*
G75*
G02*
X85000000Y-58850000I75000J0D01*
G01*
X86325000Y-58850000D01*
G75*
G02*
X86400000Y-58925000I0J-75000D01*
G01*
X86400000Y-59075000D01*
G75*
G02*
X86325000Y-59150000I-75000J0D01*
G01*
X85000000Y-59150000D01*
G75*
G02*
X84925000Y-59075000I0J75000D01*
G01*
G37*
G36*
G01*
X84925000Y-58575000D02*
X84925000Y-58425000D01*
G75*
G02*
X85000000Y-58350000I75000J0D01*
G01*
X86325000Y-58350000D01*
G75*
G02*
X86400000Y-58425000I0J-75000D01*
G01*
X86400000Y-58575000D01*
G75*
G02*
X86325000Y-58650000I-75000J0D01*
G01*
X85000000Y-58650000D01*
G75*
G02*
X84925000Y-58575000I0J75000D01*
G01*
G37*
G36*
G01*
X84925000Y-58075000D02*
X84925000Y-57925000D01*
G75*
G02*
X85000000Y-57850000I75000J0D01*
G01*
X86325000Y-57850000D01*
G75*
G02*
X86400000Y-57925000I0J-75000D01*
G01*
X86400000Y-58075000D01*
G75*
G02*
X86325000Y-58150000I-75000J0D01*
G01*
X85000000Y-58150000D01*
G75*
G02*
X84925000Y-58075000I0J75000D01*
G01*
G37*
G36*
G01*
X84925000Y-57575000D02*
X84925000Y-57425000D01*
G75*
G02*
X85000000Y-57350000I75000J0D01*
G01*
X86325000Y-57350000D01*
G75*
G02*
X86400000Y-57425000I0J-75000D01*
G01*
X86400000Y-57575000D01*
G75*
G02*
X86325000Y-57650000I-75000J0D01*
G01*
X85000000Y-57650000D01*
G75*
G02*
X84925000Y-57575000I0J75000D01*
G01*
G37*
G36*
G01*
X84925000Y-57075000D02*
X84925000Y-56925000D01*
G75*
G02*
X85000000Y-56850000I75000J0D01*
G01*
X86325000Y-56850000D01*
G75*
G02*
X86400000Y-56925000I0J-75000D01*
G01*
X86400000Y-57075000D01*
G75*
G02*
X86325000Y-57150000I-75000J0D01*
G01*
X85000000Y-57150000D01*
G75*
G02*
X84925000Y-57075000I0J75000D01*
G01*
G37*
G36*
G01*
X84925000Y-56575000D02*
X84925000Y-56425000D01*
G75*
G02*
X85000000Y-56350000I75000J0D01*
G01*
X86325000Y-56350000D01*
G75*
G02*
X86400000Y-56425000I0J-75000D01*
G01*
X86400000Y-56575000D01*
G75*
G02*
X86325000Y-56650000I-75000J0D01*
G01*
X85000000Y-56650000D01*
G75*
G02*
X84925000Y-56575000I0J75000D01*
G01*
G37*
G36*
G01*
X84925000Y-56075000D02*
X84925000Y-55925000D01*
G75*
G02*
X85000000Y-55850000I75000J0D01*
G01*
X86325000Y-55850000D01*
G75*
G02*
X86400000Y-55925000I0J-75000D01*
G01*
X86400000Y-56075000D01*
G75*
G02*
X86325000Y-56150000I-75000J0D01*
G01*
X85000000Y-56150000D01*
G75*
G02*
X84925000Y-56075000I0J75000D01*
G01*
G37*
G36*
G01*
X84925000Y-55575000D02*
X84925000Y-55425000D01*
G75*
G02*
X85000000Y-55350000I75000J0D01*
G01*
X86325000Y-55350000D01*
G75*
G02*
X86400000Y-55425000I0J-75000D01*
G01*
X86400000Y-55575000D01*
G75*
G02*
X86325000Y-55650000I-75000J0D01*
G01*
X85000000Y-55650000D01*
G75*
G02*
X84925000Y-55575000I0J75000D01*
G01*
G37*
G36*
G01*
X84925000Y-55075000D02*
X84925000Y-54925000D01*
G75*
G02*
X85000000Y-54850000I75000J0D01*
G01*
X86325000Y-54850000D01*
G75*
G02*
X86400000Y-54925000I0J-75000D01*
G01*
X86400000Y-55075000D01*
G75*
G02*
X86325000Y-55150000I-75000J0D01*
G01*
X85000000Y-55150000D01*
G75*
G02*
X84925000Y-55075000I0J75000D01*
G01*
G37*
G36*
G01*
X84925000Y-54575000D02*
X84925000Y-54425000D01*
G75*
G02*
X85000000Y-54350000I75000J0D01*
G01*
X86325000Y-54350000D01*
G75*
G02*
X86400000Y-54425000I0J-75000D01*
G01*
X86400000Y-54575000D01*
G75*
G02*
X86325000Y-54650000I-75000J0D01*
G01*
X85000000Y-54650000D01*
G75*
G02*
X84925000Y-54575000I0J75000D01*
G01*
G37*
G36*
G01*
X84925000Y-54075000D02*
X84925000Y-53925000D01*
G75*
G02*
X85000000Y-53850000I75000J0D01*
G01*
X86325000Y-53850000D01*
G75*
G02*
X86400000Y-53925000I0J-75000D01*
G01*
X86400000Y-54075000D01*
G75*
G02*
X86325000Y-54150000I-75000J0D01*
G01*
X85000000Y-54150000D01*
G75*
G02*
X84925000Y-54075000I0J75000D01*
G01*
G37*
G36*
G01*
X84925000Y-53575000D02*
X84925000Y-53425000D01*
G75*
G02*
X85000000Y-53350000I75000J0D01*
G01*
X86325000Y-53350000D01*
G75*
G02*
X86400000Y-53425000I0J-75000D01*
G01*
X86400000Y-53575000D01*
G75*
G02*
X86325000Y-53650000I-75000J0D01*
G01*
X85000000Y-53650000D01*
G75*
G02*
X84925000Y-53575000I0J75000D01*
G01*
G37*
G36*
G01*
X84925000Y-53075000D02*
X84925000Y-52925000D01*
G75*
G02*
X85000000Y-52850000I75000J0D01*
G01*
X86325000Y-52850000D01*
G75*
G02*
X86400000Y-52925000I0J-75000D01*
G01*
X86400000Y-53075000D01*
G75*
G02*
X86325000Y-53150000I-75000J0D01*
G01*
X85000000Y-53150000D01*
G75*
G02*
X84925000Y-53075000I0J75000D01*
G01*
G37*
G36*
G01*
X84925000Y-52575000D02*
X84925000Y-52425000D01*
G75*
G02*
X85000000Y-52350000I75000J0D01*
G01*
X86325000Y-52350000D01*
G75*
G02*
X86400000Y-52425000I0J-75000D01*
G01*
X86400000Y-52575000D01*
G75*
G02*
X86325000Y-52650000I-75000J0D01*
G01*
X85000000Y-52650000D01*
G75*
G02*
X84925000Y-52575000I0J75000D01*
G01*
G37*
G36*
G01*
X84925000Y-52075000D02*
X84925000Y-51925000D01*
G75*
G02*
X85000000Y-51850000I75000J0D01*
G01*
X86325000Y-51850000D01*
G75*
G02*
X86400000Y-51925000I0J-75000D01*
G01*
X86400000Y-52075000D01*
G75*
G02*
X86325000Y-52150000I-75000J0D01*
G01*
X85000000Y-52150000D01*
G75*
G02*
X84925000Y-52075000I0J75000D01*
G01*
G37*
G36*
G01*
X83850000Y-51000000D02*
X83850000Y-49675000D01*
G75*
G02*
X83925000Y-49600000I75000J0D01*
G01*
X84075000Y-49600000D01*
G75*
G02*
X84150000Y-49675000I0J-75000D01*
G01*
X84150000Y-51000000D01*
G75*
G02*
X84075000Y-51075000I-75000J0D01*
G01*
X83925000Y-51075000D01*
G75*
G02*
X83850000Y-51000000I0J75000D01*
G01*
G37*
G36*
G01*
X83350000Y-51000000D02*
X83350000Y-49675000D01*
G75*
G02*
X83425000Y-49600000I75000J0D01*
G01*
X83575000Y-49600000D01*
G75*
G02*
X83650000Y-49675000I0J-75000D01*
G01*
X83650000Y-51000000D01*
G75*
G02*
X83575000Y-51075000I-75000J0D01*
G01*
X83425000Y-51075000D01*
G75*
G02*
X83350000Y-51000000I0J75000D01*
G01*
G37*
G36*
G01*
X82850000Y-51000000D02*
X82850000Y-49675000D01*
G75*
G02*
X82925000Y-49600000I75000J0D01*
G01*
X83075000Y-49600000D01*
G75*
G02*
X83150000Y-49675000I0J-75000D01*
G01*
X83150000Y-51000000D01*
G75*
G02*
X83075000Y-51075000I-75000J0D01*
G01*
X82925000Y-51075000D01*
G75*
G02*
X82850000Y-51000000I0J75000D01*
G01*
G37*
G36*
G01*
X82350000Y-51000000D02*
X82350000Y-49675000D01*
G75*
G02*
X82425000Y-49600000I75000J0D01*
G01*
X82575000Y-49600000D01*
G75*
G02*
X82650000Y-49675000I0J-75000D01*
G01*
X82650000Y-51000000D01*
G75*
G02*
X82575000Y-51075000I-75000J0D01*
G01*
X82425000Y-51075000D01*
G75*
G02*
X82350000Y-51000000I0J75000D01*
G01*
G37*
G36*
G01*
X81850000Y-51000000D02*
X81850000Y-49675000D01*
G75*
G02*
X81925000Y-49600000I75000J0D01*
G01*
X82075000Y-49600000D01*
G75*
G02*
X82150000Y-49675000I0J-75000D01*
G01*
X82150000Y-51000000D01*
G75*
G02*
X82075000Y-51075000I-75000J0D01*
G01*
X81925000Y-51075000D01*
G75*
G02*
X81850000Y-51000000I0J75000D01*
G01*
G37*
G36*
G01*
X81350000Y-51000000D02*
X81350000Y-49675000D01*
G75*
G02*
X81425000Y-49600000I75000J0D01*
G01*
X81575000Y-49600000D01*
G75*
G02*
X81650000Y-49675000I0J-75000D01*
G01*
X81650000Y-51000000D01*
G75*
G02*
X81575000Y-51075000I-75000J0D01*
G01*
X81425000Y-51075000D01*
G75*
G02*
X81350000Y-51000000I0J75000D01*
G01*
G37*
G36*
G01*
X80850000Y-51000000D02*
X80850000Y-49675000D01*
G75*
G02*
X80925000Y-49600000I75000J0D01*
G01*
X81075000Y-49600000D01*
G75*
G02*
X81150000Y-49675000I0J-75000D01*
G01*
X81150000Y-51000000D01*
G75*
G02*
X81075000Y-51075000I-75000J0D01*
G01*
X80925000Y-51075000D01*
G75*
G02*
X80850000Y-51000000I0J75000D01*
G01*
G37*
G36*
G01*
X80350000Y-51000000D02*
X80350000Y-49675000D01*
G75*
G02*
X80425000Y-49600000I75000J0D01*
G01*
X80575000Y-49600000D01*
G75*
G02*
X80650000Y-49675000I0J-75000D01*
G01*
X80650000Y-51000000D01*
G75*
G02*
X80575000Y-51075000I-75000J0D01*
G01*
X80425000Y-51075000D01*
G75*
G02*
X80350000Y-51000000I0J75000D01*
G01*
G37*
G36*
G01*
X79850000Y-51000000D02*
X79850000Y-49675000D01*
G75*
G02*
X79925000Y-49600000I75000J0D01*
G01*
X80075000Y-49600000D01*
G75*
G02*
X80150000Y-49675000I0J-75000D01*
G01*
X80150000Y-51000000D01*
G75*
G02*
X80075000Y-51075000I-75000J0D01*
G01*
X79925000Y-51075000D01*
G75*
G02*
X79850000Y-51000000I0J75000D01*
G01*
G37*
G36*
G01*
X79350000Y-51000000D02*
X79350000Y-49675000D01*
G75*
G02*
X79425000Y-49600000I75000J0D01*
G01*
X79575000Y-49600000D01*
G75*
G02*
X79650000Y-49675000I0J-75000D01*
G01*
X79650000Y-51000000D01*
G75*
G02*
X79575000Y-51075000I-75000J0D01*
G01*
X79425000Y-51075000D01*
G75*
G02*
X79350000Y-51000000I0J75000D01*
G01*
G37*
G36*
G01*
X78850000Y-51000000D02*
X78850000Y-49675000D01*
G75*
G02*
X78925000Y-49600000I75000J0D01*
G01*
X79075000Y-49600000D01*
G75*
G02*
X79150000Y-49675000I0J-75000D01*
G01*
X79150000Y-51000000D01*
G75*
G02*
X79075000Y-51075000I-75000J0D01*
G01*
X78925000Y-51075000D01*
G75*
G02*
X78850000Y-51000000I0J75000D01*
G01*
G37*
G36*
G01*
X78350000Y-51000000D02*
X78350000Y-49675000D01*
G75*
G02*
X78425000Y-49600000I75000J0D01*
G01*
X78575000Y-49600000D01*
G75*
G02*
X78650000Y-49675000I0J-75000D01*
G01*
X78650000Y-51000000D01*
G75*
G02*
X78575000Y-51075000I-75000J0D01*
G01*
X78425000Y-51075000D01*
G75*
G02*
X78350000Y-51000000I0J75000D01*
G01*
G37*
G36*
G01*
X77850000Y-51000000D02*
X77850000Y-49675000D01*
G75*
G02*
X77925000Y-49600000I75000J0D01*
G01*
X78075000Y-49600000D01*
G75*
G02*
X78150000Y-49675000I0J-75000D01*
G01*
X78150000Y-51000000D01*
G75*
G02*
X78075000Y-51075000I-75000J0D01*
G01*
X77925000Y-51075000D01*
G75*
G02*
X77850000Y-51000000I0J75000D01*
G01*
G37*
G36*
G01*
X77350000Y-51000000D02*
X77350000Y-49675000D01*
G75*
G02*
X77425000Y-49600000I75000J0D01*
G01*
X77575000Y-49600000D01*
G75*
G02*
X77650000Y-49675000I0J-75000D01*
G01*
X77650000Y-51000000D01*
G75*
G02*
X77575000Y-51075000I-75000J0D01*
G01*
X77425000Y-51075000D01*
G75*
G02*
X77350000Y-51000000I0J75000D01*
G01*
G37*
G36*
G01*
X76850000Y-51000000D02*
X76850000Y-49675000D01*
G75*
G02*
X76925000Y-49600000I75000J0D01*
G01*
X77075000Y-49600000D01*
G75*
G02*
X77150000Y-49675000I0J-75000D01*
G01*
X77150000Y-51000000D01*
G75*
G02*
X77075000Y-51075000I-75000J0D01*
G01*
X76925000Y-51075000D01*
G75*
G02*
X76850000Y-51000000I0J75000D01*
G01*
G37*
G36*
G01*
X76350000Y-51000000D02*
X76350000Y-49675000D01*
G75*
G02*
X76425000Y-49600000I75000J0D01*
G01*
X76575000Y-49600000D01*
G75*
G02*
X76650000Y-49675000I0J-75000D01*
G01*
X76650000Y-51000000D01*
G75*
G02*
X76575000Y-51075000I-75000J0D01*
G01*
X76425000Y-51075000D01*
G75*
G02*
X76350000Y-51000000I0J75000D01*
G01*
G37*
G36*
G01*
X75850000Y-51000000D02*
X75850000Y-49675000D01*
G75*
G02*
X75925000Y-49600000I75000J0D01*
G01*
X76075000Y-49600000D01*
G75*
G02*
X76150000Y-49675000I0J-75000D01*
G01*
X76150000Y-51000000D01*
G75*
G02*
X76075000Y-51075000I-75000J0D01*
G01*
X75925000Y-51075000D01*
G75*
G02*
X75850000Y-51000000I0J75000D01*
G01*
G37*
G36*
G01*
X75350000Y-51000000D02*
X75350000Y-49675000D01*
G75*
G02*
X75425000Y-49600000I75000J0D01*
G01*
X75575000Y-49600000D01*
G75*
G02*
X75650000Y-49675000I0J-75000D01*
G01*
X75650000Y-51000000D01*
G75*
G02*
X75575000Y-51075000I-75000J0D01*
G01*
X75425000Y-51075000D01*
G75*
G02*
X75350000Y-51000000I0J75000D01*
G01*
G37*
G36*
G01*
X74850000Y-51000000D02*
X74850000Y-49675000D01*
G75*
G02*
X74925000Y-49600000I75000J0D01*
G01*
X75075000Y-49600000D01*
G75*
G02*
X75150000Y-49675000I0J-75000D01*
G01*
X75150000Y-51000000D01*
G75*
G02*
X75075000Y-51075000I-75000J0D01*
G01*
X74925000Y-51075000D01*
G75*
G02*
X74850000Y-51000000I0J75000D01*
G01*
G37*
G36*
G01*
X74350000Y-51000000D02*
X74350000Y-49675000D01*
G75*
G02*
X74425000Y-49600000I75000J0D01*
G01*
X74575000Y-49600000D01*
G75*
G02*
X74650000Y-49675000I0J-75000D01*
G01*
X74650000Y-51000000D01*
G75*
G02*
X74575000Y-51075000I-75000J0D01*
G01*
X74425000Y-51075000D01*
G75*
G02*
X74350000Y-51000000I0J75000D01*
G01*
G37*
G36*
G01*
X73850000Y-51000000D02*
X73850000Y-49675000D01*
G75*
G02*
X73925000Y-49600000I75000J0D01*
G01*
X74075000Y-49600000D01*
G75*
G02*
X74150000Y-49675000I0J-75000D01*
G01*
X74150000Y-51000000D01*
G75*
G02*
X74075000Y-51075000I-75000J0D01*
G01*
X73925000Y-51075000D01*
G75*
G02*
X73850000Y-51000000I0J75000D01*
G01*
G37*
G36*
G01*
X73350000Y-51000000D02*
X73350000Y-49675000D01*
G75*
G02*
X73425000Y-49600000I75000J0D01*
G01*
X73575000Y-49600000D01*
G75*
G02*
X73650000Y-49675000I0J-75000D01*
G01*
X73650000Y-51000000D01*
G75*
G02*
X73575000Y-51075000I-75000J0D01*
G01*
X73425000Y-51075000D01*
G75*
G02*
X73350000Y-51000000I0J75000D01*
G01*
G37*
G36*
G01*
X72850000Y-51000000D02*
X72850000Y-49675000D01*
G75*
G02*
X72925000Y-49600000I75000J0D01*
G01*
X73075000Y-49600000D01*
G75*
G02*
X73150000Y-49675000I0J-75000D01*
G01*
X73150000Y-51000000D01*
G75*
G02*
X73075000Y-51075000I-75000J0D01*
G01*
X72925000Y-51075000D01*
G75*
G02*
X72850000Y-51000000I0J75000D01*
G01*
G37*
G36*
G01*
X72350000Y-51000000D02*
X72350000Y-49675000D01*
G75*
G02*
X72425000Y-49600000I75000J0D01*
G01*
X72575000Y-49600000D01*
G75*
G02*
X72650000Y-49675000I0J-75000D01*
G01*
X72650000Y-51000000D01*
G75*
G02*
X72575000Y-51075000I-75000J0D01*
G01*
X72425000Y-51075000D01*
G75*
G02*
X72350000Y-51000000I0J75000D01*
G01*
G37*
G36*
G01*
X71850000Y-51000000D02*
X71850000Y-49675000D01*
G75*
G02*
X71925000Y-49600000I75000J0D01*
G01*
X72075000Y-49600000D01*
G75*
G02*
X72150000Y-49675000I0J-75000D01*
G01*
X72150000Y-51000000D01*
G75*
G02*
X72075000Y-51075000I-75000J0D01*
G01*
X71925000Y-51075000D01*
G75*
G02*
X71850000Y-51000000I0J75000D01*
G01*
G37*
D17*
X40500000Y-82500000D03*
D18*
X40500000Y-81230000D03*
X41770000Y-82500000D03*
X41770000Y-81230000D03*
X43040000Y-82500000D03*
X43040000Y-81230000D03*
X44310000Y-82500000D03*
X44310000Y-81230000D03*
X45580000Y-82500000D03*
X45580000Y-81230000D03*
X46850000Y-82500000D03*
X46850000Y-81230000D03*
X48120000Y-82500000D03*
X48120000Y-81230000D03*
X49390000Y-82500000D03*
X49390000Y-81230000D03*
X50660000Y-82500000D03*
X50660000Y-81230000D03*
X51930000Y-82500000D03*
X51930000Y-81230000D03*
X53200000Y-82500000D03*
X53200000Y-81230000D03*
X54470000Y-82500000D03*
X54470000Y-81230000D03*
X55740000Y-82500000D03*
X55740000Y-81230000D03*
X57010000Y-82500000D03*
X57010000Y-81230000D03*
X58280000Y-82500000D03*
X58280000Y-81230000D03*
D17*
X40500000Y-89000000D03*
D18*
X40500000Y-87730000D03*
X41770000Y-89000000D03*
X41770000Y-87730000D03*
X43040000Y-89000000D03*
X43040000Y-87730000D03*
X44310000Y-89000000D03*
X44310000Y-87730000D03*
X45580000Y-89000000D03*
X45580000Y-87730000D03*
X46850000Y-89000000D03*
X46850000Y-87730000D03*
X48120000Y-89000000D03*
X48120000Y-87730000D03*
X49390000Y-89000000D03*
X49390000Y-87730000D03*
X50660000Y-89000000D03*
X50660000Y-87730000D03*
X51930000Y-89000000D03*
X51930000Y-87730000D03*
X53200000Y-89000000D03*
X53200000Y-87730000D03*
X54470000Y-89000000D03*
X54470000Y-87730000D03*
X55740000Y-89000000D03*
X55740000Y-87730000D03*
X57010000Y-89000000D03*
X57010000Y-87730000D03*
X58280000Y-89000000D03*
X58280000Y-87730000D03*
X59550000Y-89000000D03*
X59550000Y-87730000D03*
X60820000Y-89000000D03*
X60820000Y-87730000D03*
X62090000Y-89000000D03*
X62090000Y-87730000D03*
X63360000Y-89000000D03*
X63360000Y-87730000D03*
G36*
G01*
X100275000Y-14950000D02*
X101225000Y-14950000D01*
G75*
G02*
X101475000Y-15200000I0J-250000D01*
G01*
X101475000Y-15700000D01*
G75*
G02*
X101225000Y-15950000I-250000J0D01*
G01*
X100275000Y-15950000D01*
G75*
G02*
X100025000Y-15700000I0J250000D01*
G01*
X100025000Y-15200000D01*
G75*
G02*
X100275000Y-14950000I250000J0D01*
G01*
G37*
G36*
G01*
X100275000Y-13050000D02*
X101225000Y-13050000D01*
G75*
G02*
X101475000Y-13300000I0J-250000D01*
G01*
X101475000Y-13800000D01*
G75*
G02*
X101225000Y-14050000I-250000J0D01*
G01*
X100275000Y-14050000D01*
G75*
G02*
X100025000Y-13800000I0J250000D01*
G01*
X100025000Y-13300000D01*
G75*
G02*
X100275000Y-13050000I250000J0D01*
G01*
G37*
G36*
G01*
X102525000Y-13050000D02*
X103475000Y-13050000D01*
G75*
G02*
X103725000Y-13300000I0J-250000D01*
G01*
X103725000Y-13800000D01*
G75*
G02*
X103475000Y-14050000I-250000J0D01*
G01*
X102525000Y-14050000D01*
G75*
G02*
X102275000Y-13800000I0J250000D01*
G01*
X102275000Y-13300000D01*
G75*
G02*
X102525000Y-13050000I250000J0D01*
G01*
G37*
G36*
G01*
X102525000Y-14950000D02*
X103475000Y-14950000D01*
G75*
G02*
X103725000Y-15200000I0J-250000D01*
G01*
X103725000Y-15700000D01*
G75*
G02*
X103475000Y-15950000I-250000J0D01*
G01*
X102525000Y-15950000D01*
G75*
G02*
X102275000Y-15700000I0J250000D01*
G01*
X102275000Y-15200000D01*
G75*
G02*
X102525000Y-14950000I250000J0D01*
G01*
G37*
D19*
X74000000Y-86000000D03*
D20*
X76540000Y-86000000D03*
X79080000Y-86000000D03*
X81620000Y-86000000D03*
X84160000Y-86000000D03*
X86700000Y-86000000D03*
M02*
