G04 #@! TF.GenerationSoftware,KiCad,Pcbnew,(5.1.6)-1*
G04 #@! TF.CreationDate,2020-07-01T14:48:20+02:00*
G04 #@! TF.ProjectId,Project_GP8B,50726f6a-6563-4745-9f47-5038422e6b69,V5.0*
G04 #@! TF.SameCoordinates,PX3a2c940PY1e0a6e0*
G04 #@! TF.FileFunction,Legend,Bot*
G04 #@! TF.FilePolarity,Positive*
%FSLAX46Y46*%
G04 Gerber Fmt 4.6, Leading zero omitted, Abs format (unit mm)*
G04 Created by KiCad (PCBNEW (5.1.6)-1) date 2020-07-01 14:48:20*
%MOMM*%
%LPD*%
G01*
G04 APERTURE LIST*
%ADD10C,0.500000*%
%ADD11C,0.010000*%
%ADD12C,0.120000*%
%ADD13C,0.150000*%
G04 APERTURE END LIST*
D10*
X14166666Y-81107142D02*
X13880952Y-81202380D01*
X13785714Y-81297619D01*
X13690476Y-81488095D01*
X13690476Y-81773809D01*
X13785714Y-81964285D01*
X13880952Y-82059523D01*
X14071428Y-82154761D01*
X14833333Y-82154761D01*
X14833333Y-80154761D01*
X14166666Y-80154761D01*
X13976190Y-80250000D01*
X13880952Y-80345238D01*
X13785714Y-80535714D01*
X13785714Y-80726190D01*
X13880952Y-80916666D01*
X13976190Y-81011904D01*
X14166666Y-81107142D01*
X14833333Y-81107142D01*
X12452380Y-80154761D02*
X12071428Y-80154761D01*
X11880952Y-80250000D01*
X11690476Y-80440476D01*
X11595238Y-80821428D01*
X11595238Y-81488095D01*
X11690476Y-81869047D01*
X11880952Y-82059523D01*
X12071428Y-82154761D01*
X12452380Y-82154761D01*
X12642857Y-82059523D01*
X12833333Y-81869047D01*
X12928571Y-81488095D01*
X12928571Y-80821428D01*
X12833333Y-80440476D01*
X12642857Y-80250000D01*
X12452380Y-80154761D01*
X11023809Y-80154761D02*
X9880952Y-80154761D01*
X10452380Y-82154761D02*
X10452380Y-80154761D01*
D11*
G36*
X101695848Y-55822260D02*
G01*
X101852212Y-55740426D01*
X101977600Y-55627600D01*
X102119630Y-55461037D01*
X102182232Y-55302607D01*
X102193500Y-55148197D01*
X102142052Y-54831351D01*
X102001044Y-54578144D01*
X101790481Y-54403244D01*
X101530367Y-54321314D01*
X101240706Y-54347020D01*
X101145750Y-54380081D01*
X100913347Y-54538902D01*
X100756794Y-54771828D01*
X100687355Y-55044341D01*
X100716293Y-55321920D01*
X100787146Y-55479117D01*
X100975843Y-55695371D01*
X101223685Y-55812877D01*
X101504337Y-55843500D01*
X101695848Y-55822260D01*
G37*
X101695848Y-55822260D02*
X101852212Y-55740426D01*
X101977600Y-55627600D01*
X102119630Y-55461037D01*
X102182232Y-55302607D01*
X102193500Y-55148197D01*
X102142052Y-54831351D01*
X102001044Y-54578144D01*
X101790481Y-54403244D01*
X101530367Y-54321314D01*
X101240706Y-54347020D01*
X101145750Y-54380081D01*
X100913347Y-54538902D01*
X100756794Y-54771828D01*
X100687355Y-55044341D01*
X100716293Y-55321920D01*
X100787146Y-55479117D01*
X100975843Y-55695371D01*
X101223685Y-55812877D01*
X101504337Y-55843500D01*
X101695848Y-55822260D01*
G36*
X90388209Y-55793283D02*
G01*
X90642118Y-55652150D01*
X90809875Y-55434386D01*
X90877825Y-55154273D01*
X90870433Y-54997721D01*
X90779243Y-54729240D01*
X90603040Y-54518815D01*
X90369993Y-54380119D01*
X90108273Y-54326827D01*
X89846050Y-54372613D01*
X89720031Y-54439309D01*
X89507735Y-54635767D01*
X89396003Y-54881539D01*
X89368750Y-55135475D01*
X89384546Y-55331666D01*
X89453885Y-55482007D01*
X89582399Y-55627600D01*
X89748963Y-55769631D01*
X89907393Y-55832233D01*
X90061803Y-55843500D01*
X90388209Y-55793283D01*
G37*
X90388209Y-55793283D02*
X90642118Y-55652150D01*
X90809875Y-55434386D01*
X90877825Y-55154273D01*
X90870433Y-54997721D01*
X90779243Y-54729240D01*
X90603040Y-54518815D01*
X90369993Y-54380119D01*
X90108273Y-54326827D01*
X89846050Y-54372613D01*
X89720031Y-54439309D01*
X89507735Y-54635767D01*
X89396003Y-54881539D01*
X89368750Y-55135475D01*
X89384546Y-55331666D01*
X89453885Y-55482007D01*
X89582399Y-55627600D01*
X89748963Y-55769631D01*
X89907393Y-55832233D01*
X90061803Y-55843500D01*
X90388209Y-55793283D01*
G36*
X99037960Y-47610393D02*
G01*
X99104803Y-47555712D01*
X99130301Y-47418542D01*
X99133458Y-47382125D01*
X99153166Y-47144000D01*
X98629833Y-47144000D01*
X98649541Y-47382125D01*
X98671657Y-47538173D01*
X98728219Y-47604942D01*
X98857498Y-47620097D01*
X98891500Y-47620250D01*
X99037960Y-47610393D01*
G37*
X99037960Y-47610393D02*
X99104803Y-47555712D01*
X99130301Y-47418542D01*
X99133458Y-47382125D01*
X99153166Y-47144000D01*
X98629833Y-47144000D01*
X98649541Y-47382125D01*
X98671657Y-47538173D01*
X98728219Y-47604942D01*
X98857498Y-47620097D01*
X98891500Y-47620250D01*
X99037960Y-47610393D01*
G36*
X100149458Y-45318375D02*
G01*
X100126307Y-45161163D01*
X100064869Y-45089846D01*
X99924071Y-45063351D01*
X99891625Y-45060542D01*
X99653500Y-45040834D01*
X99653500Y-45556500D01*
X100169166Y-45556500D01*
X100149458Y-45318375D01*
G37*
X100149458Y-45318375D02*
X100126307Y-45161163D01*
X100064869Y-45089846D01*
X99924071Y-45063351D01*
X99891625Y-45060542D01*
X99653500Y-45040834D01*
X99653500Y-45556500D01*
X100169166Y-45556500D01*
X100149458Y-45318375D01*
G36*
X90271778Y-44511688D02*
G01*
X90523158Y-44405995D01*
X90725177Y-44218257D01*
X90850348Y-43961996D01*
X90870433Y-43862280D01*
X90856672Y-43556703D01*
X90736376Y-43306439D01*
X90523202Y-43125771D01*
X90230803Y-43028981D01*
X90061803Y-43016500D01*
X89868356Y-43036601D01*
X89713434Y-43115118D01*
X89582400Y-43232400D01*
X89439560Y-43400559D01*
X89377038Y-43560632D01*
X89366500Y-43705663D01*
X89407267Y-44022844D01*
X89537041Y-44261704D01*
X89730883Y-44422854D01*
X89998523Y-44521815D01*
X90271778Y-44511688D01*
G37*
X90271778Y-44511688D02*
X90523158Y-44405995D01*
X90725177Y-44218257D01*
X90850348Y-43961996D01*
X90870433Y-43862280D01*
X90856672Y-43556703D01*
X90736376Y-43306439D01*
X90523202Y-43125771D01*
X90230803Y-43028981D01*
X90061803Y-43016500D01*
X89868356Y-43036601D01*
X89713434Y-43115118D01*
X89582400Y-43232400D01*
X89439560Y-43400559D01*
X89377038Y-43560632D01*
X89366500Y-43705663D01*
X89407267Y-44022844D01*
X89537041Y-44261704D01*
X89730883Y-44422854D01*
X89998523Y-44521815D01*
X90271778Y-44511688D01*
G36*
X96434460Y-56881393D02*
G01*
X96501303Y-56826712D01*
X96526801Y-56689542D01*
X96529958Y-56653125D01*
X96549666Y-56415000D01*
X96026333Y-56415000D01*
X96046041Y-56653125D01*
X96068157Y-56809173D01*
X96124719Y-56875942D01*
X96253998Y-56891097D01*
X96288000Y-56891250D01*
X96434460Y-56881393D01*
G37*
X96434460Y-56881393D02*
X96501303Y-56826712D01*
X96526801Y-56689542D01*
X96529958Y-56653125D01*
X96549666Y-56415000D01*
X96026333Y-56415000D01*
X96046041Y-56653125D01*
X96068157Y-56809173D01*
X96124719Y-56875942D01*
X96253998Y-56891097D01*
X96288000Y-56891250D01*
X96434460Y-56881393D01*
G36*
X93418295Y-56689604D02*
G01*
X93467556Y-56495109D01*
X93585881Y-56387087D01*
X93779750Y-56341244D01*
X93970250Y-56319750D01*
X93970250Y-55367250D01*
X92954250Y-55303750D01*
X92934541Y-55065625D01*
X92912376Y-54909556D01*
X92855870Y-54842780D01*
X92727054Y-54827646D01*
X92694423Y-54827500D01*
X92523769Y-54852859D01*
X92439235Y-54918132D01*
X92419764Y-55051828D01*
X92425353Y-55156257D01*
X92464643Y-55258709D01*
X92568846Y-55308363D01*
X92684375Y-55323459D01*
X92838600Y-55344506D01*
X92905844Y-55399779D01*
X92922151Y-55529549D01*
X92922500Y-55589500D01*
X92914492Y-55749705D01*
X92866441Y-55823244D01*
X92742300Y-55850388D01*
X92684375Y-55855542D01*
X92446250Y-55875250D01*
X92446250Y-56100309D01*
X92922500Y-56100309D01*
X92939425Y-55942685D01*
X93011415Y-55866474D01*
X93170288Y-55843988D01*
X93217623Y-55843500D01*
X93370896Y-55862076D01*
X93446325Y-55938382D01*
X93470390Y-56012079D01*
X93473072Y-56213482D01*
X93377125Y-56353167D01*
X93245894Y-56404000D01*
X93066134Y-56378380D01*
X92952189Y-56253642D01*
X92922500Y-56100309D01*
X92446250Y-56100309D01*
X92446250Y-56891250D01*
X93398750Y-56891250D01*
X93418295Y-56689604D01*
G37*
X93418295Y-56689604D02*
X93467556Y-56495109D01*
X93585881Y-56387087D01*
X93779750Y-56341244D01*
X93970250Y-56319750D01*
X93970250Y-55367250D01*
X92954250Y-55303750D01*
X92934541Y-55065625D01*
X92912376Y-54909556D01*
X92855870Y-54842780D01*
X92727054Y-54827646D01*
X92694423Y-54827500D01*
X92523769Y-54852859D01*
X92439235Y-54918132D01*
X92419764Y-55051828D01*
X92425353Y-55156257D01*
X92464643Y-55258709D01*
X92568846Y-55308363D01*
X92684375Y-55323459D01*
X92838600Y-55344506D01*
X92905844Y-55399779D01*
X92922151Y-55529549D01*
X92922500Y-55589500D01*
X92914492Y-55749705D01*
X92866441Y-55823244D01*
X92742300Y-55850388D01*
X92684375Y-55855542D01*
X92446250Y-55875250D01*
X92446250Y-56100309D01*
X92922500Y-56100309D01*
X92939425Y-55942685D01*
X93011415Y-55866474D01*
X93170288Y-55843988D01*
X93217623Y-55843500D01*
X93370896Y-55862076D01*
X93446325Y-55938382D01*
X93470390Y-56012079D01*
X93473072Y-56213482D01*
X93377125Y-56353167D01*
X93245894Y-56404000D01*
X93066134Y-56378380D01*
X92952189Y-56253642D01*
X92922500Y-56100309D01*
X92446250Y-56100309D01*
X92446250Y-56891250D01*
X93398750Y-56891250D01*
X93418295Y-56689604D01*
G36*
X101242020Y-56916168D02*
G01*
X101636253Y-56911053D01*
X102120256Y-56906296D01*
X102496134Y-56898826D01*
X102777665Y-56874345D01*
X102978629Y-56818555D01*
X103112807Y-56717159D01*
X103193978Y-56555859D01*
X103235923Y-56320358D01*
X103252421Y-55996358D01*
X103257252Y-55569561D01*
X103260729Y-55225557D01*
X103264868Y-54811891D01*
X103265416Y-54434405D01*
X103262602Y-54113986D01*
X103256653Y-53871517D01*
X103247799Y-53727883D01*
X103244086Y-53704943D01*
X103170556Y-53554079D01*
X103069757Y-53432258D01*
X103019263Y-53391227D01*
X102956199Y-53359964D01*
X102863928Y-53337146D01*
X102725814Y-53321454D01*
X102525217Y-53311564D01*
X102245501Y-53306157D01*
X101870028Y-53303911D01*
X101448389Y-53303500D01*
X99965227Y-53303500D01*
X99809363Y-53459364D01*
X99653500Y-53615228D01*
X99653500Y-55075073D01*
X100161500Y-55075073D01*
X100162320Y-54707881D01*
X100166862Y-54445518D01*
X100178244Y-54265816D01*
X100199585Y-54146605D01*
X100234005Y-54065717D01*
X100284624Y-54000982D01*
X100317363Y-53967364D01*
X100381519Y-53908021D01*
X100450470Y-53866041D01*
X100546022Y-53838423D01*
X100689976Y-53822163D01*
X100904137Y-53814259D01*
X101210308Y-53811709D01*
X101449294Y-53811500D01*
X101820968Y-53812127D01*
X102087340Y-53816103D01*
X102270108Y-53826570D01*
X102390972Y-53846672D01*
X102471629Y-53879551D01*
X102533777Y-53928351D01*
X102579306Y-53975173D01*
X102643602Y-54051940D01*
X102688018Y-54137941D01*
X102717117Y-54258362D01*
X102735462Y-54438387D01*
X102747616Y-54703202D01*
X102754626Y-54942857D01*
X102760882Y-55416060D01*
X102741754Y-55777256D01*
X102682997Y-56040948D01*
X102570368Y-56221641D01*
X102389621Y-56333837D01*
X102126512Y-56392041D01*
X101766797Y-56410755D01*
X101318527Y-56405062D01*
X100975154Y-56395432D01*
X100735050Y-56384058D01*
X100574518Y-56366217D01*
X100469862Y-56337191D01*
X100397385Y-56292258D01*
X100333391Y-56226698D01*
X100314697Y-56205085D01*
X100255619Y-56130470D01*
X100214070Y-56051679D01*
X100186970Y-55946018D01*
X100171245Y-55790793D01*
X100163817Y-55563310D01*
X100161610Y-55240875D01*
X100161500Y-55075073D01*
X99653500Y-55075073D01*
X99653500Y-55098390D01*
X99654087Y-55571951D01*
X99656718Y-55935121D01*
X99662690Y-56204510D01*
X99673306Y-56396725D01*
X99689864Y-56528376D01*
X99713664Y-56616069D01*
X99746007Y-56676413D01*
X99780249Y-56717602D01*
X99854104Y-56784522D01*
X99946099Y-56835791D01*
X100072343Y-56873091D01*
X100248947Y-56898099D01*
X100492021Y-56912495D01*
X100817675Y-56917959D01*
X101242020Y-56916168D01*
G37*
X101242020Y-56916168D02*
X101636253Y-56911053D01*
X102120256Y-56906296D01*
X102496134Y-56898826D01*
X102777665Y-56874345D01*
X102978629Y-56818555D01*
X103112807Y-56717159D01*
X103193978Y-56555859D01*
X103235923Y-56320358D01*
X103252421Y-55996358D01*
X103257252Y-55569561D01*
X103260729Y-55225557D01*
X103264868Y-54811891D01*
X103265416Y-54434405D01*
X103262602Y-54113986D01*
X103256653Y-53871517D01*
X103247799Y-53727883D01*
X103244086Y-53704943D01*
X103170556Y-53554079D01*
X103069757Y-53432258D01*
X103019263Y-53391227D01*
X102956199Y-53359964D01*
X102863928Y-53337146D01*
X102725814Y-53321454D01*
X102525217Y-53311564D01*
X102245501Y-53306157D01*
X101870028Y-53303911D01*
X101448389Y-53303500D01*
X99965227Y-53303500D01*
X99809363Y-53459364D01*
X99653500Y-53615228D01*
X99653500Y-55075073D01*
X100161500Y-55075073D01*
X100162320Y-54707881D01*
X100166862Y-54445518D01*
X100178244Y-54265816D01*
X100199585Y-54146605D01*
X100234005Y-54065717D01*
X100284624Y-54000982D01*
X100317363Y-53967364D01*
X100381519Y-53908021D01*
X100450470Y-53866041D01*
X100546022Y-53838423D01*
X100689976Y-53822163D01*
X100904137Y-53814259D01*
X101210308Y-53811709D01*
X101449294Y-53811500D01*
X101820968Y-53812127D01*
X102087340Y-53816103D01*
X102270108Y-53826570D01*
X102390972Y-53846672D01*
X102471629Y-53879551D01*
X102533777Y-53928351D01*
X102579306Y-53975173D01*
X102643602Y-54051940D01*
X102688018Y-54137941D01*
X102717117Y-54258362D01*
X102735462Y-54438387D01*
X102747616Y-54703202D01*
X102754626Y-54942857D01*
X102760882Y-55416060D01*
X102741754Y-55777256D01*
X102682997Y-56040948D01*
X102570368Y-56221641D01*
X102389621Y-56333837D01*
X102126512Y-56392041D01*
X101766797Y-56410755D01*
X101318527Y-56405062D01*
X100975154Y-56395432D01*
X100735050Y-56384058D01*
X100574518Y-56366217D01*
X100469862Y-56337191D01*
X100397385Y-56292258D01*
X100333391Y-56226698D01*
X100314697Y-56205085D01*
X100255619Y-56130470D01*
X100214070Y-56051679D01*
X100186970Y-55946018D01*
X100171245Y-55790793D01*
X100163817Y-55563310D01*
X100161610Y-55240875D01*
X100161500Y-55075073D01*
X99653500Y-55075073D01*
X99653500Y-55098390D01*
X99654087Y-55571951D01*
X99656718Y-55935121D01*
X99662690Y-56204510D01*
X99673306Y-56396725D01*
X99689864Y-56528376D01*
X99713664Y-56616069D01*
X99746007Y-56676413D01*
X99780249Y-56717602D01*
X99854104Y-56784522D01*
X99946099Y-56835791D01*
X100072343Y-56873091D01*
X100248947Y-56898099D01*
X100492021Y-56912495D01*
X100817675Y-56917959D01*
X101242020Y-56916168D01*
G36*
X91096014Y-56912603D02*
G01*
X91338483Y-56906654D01*
X91482117Y-56897800D01*
X91505057Y-56894087D01*
X91655921Y-56820557D01*
X91777742Y-56719758D01*
X91818915Y-56669063D01*
X91850249Y-56605741D01*
X91873081Y-56513078D01*
X91888747Y-56374361D01*
X91898585Y-56172875D01*
X91903930Y-55891905D01*
X91906120Y-55514739D01*
X91906500Y-55109840D01*
X91905928Y-54638336D01*
X91903300Y-54276782D01*
X91897246Y-54008130D01*
X91886399Y-53815333D01*
X91869389Y-53681343D01*
X91844847Y-53589113D01*
X91811404Y-53521594D01*
X91774891Y-53470814D01*
X91643282Y-53303500D01*
X90135864Y-53303500D01*
X89658395Y-53304043D01*
X89291445Y-53306531D01*
X89018535Y-53312254D01*
X88823186Y-53322501D01*
X88688920Y-53338561D01*
X88599258Y-53361724D01*
X88537720Y-53393279D01*
X88490242Y-53432258D01*
X88374853Y-53576901D01*
X88315913Y-53704943D01*
X88306104Y-53809360D01*
X88299120Y-54019866D01*
X88295191Y-54315577D01*
X88294545Y-54675608D01*
X88297411Y-55079074D01*
X88299270Y-55225557D01*
X88301098Y-55431603D01*
X88799335Y-55431603D01*
X88804938Y-54968528D01*
X88814568Y-54625155D01*
X88825942Y-54385051D01*
X88843783Y-54224519D01*
X88872809Y-54119863D01*
X88917742Y-54047386D01*
X88983302Y-53983392D01*
X89004915Y-53964698D01*
X89079530Y-53905620D01*
X89158321Y-53864071D01*
X89263982Y-53836971D01*
X89419207Y-53821246D01*
X89646690Y-53813818D01*
X89969125Y-53811611D01*
X90134927Y-53811500D01*
X90502119Y-53812321D01*
X90764482Y-53816863D01*
X90944184Y-53828245D01*
X91063395Y-53849586D01*
X91144283Y-53884006D01*
X91209018Y-53934625D01*
X91242636Y-53967364D01*
X91302629Y-54032369D01*
X91344847Y-54102322D01*
X91372409Y-54199391D01*
X91388435Y-54345748D01*
X91396044Y-54563559D01*
X91398356Y-54874995D01*
X91398500Y-55075073D01*
X91397547Y-55443251D01*
X91392638Y-55707128D01*
X91380699Y-55889396D01*
X91358655Y-56012751D01*
X91323431Y-56099888D01*
X91271952Y-56173501D01*
X91245397Y-56205085D01*
X91178166Y-56278308D01*
X91108492Y-56328764D01*
X91011968Y-56361487D01*
X90864184Y-56381510D01*
X90640735Y-56393866D01*
X90317210Y-56403588D01*
X90277713Y-56404627D01*
X89802629Y-56410931D01*
X89439618Y-56392308D01*
X89174213Y-56334654D01*
X88991948Y-56223862D01*
X88878357Y-56045826D01*
X88818975Y-55786442D01*
X88799335Y-55431603D01*
X88301098Y-55431603D01*
X88303727Y-55727889D01*
X88310679Y-56118044D01*
X88334399Y-56410296D01*
X88389164Y-56618922D01*
X88489249Y-56758195D01*
X88648928Y-56842393D01*
X88882477Y-56885788D01*
X89204171Y-56902658D01*
X89628285Y-56907276D01*
X89984443Y-56910730D01*
X90398109Y-56914869D01*
X90775595Y-56915417D01*
X91096014Y-56912603D01*
G37*
X91096014Y-56912603D02*
X91338483Y-56906654D01*
X91482117Y-56897800D01*
X91505057Y-56894087D01*
X91655921Y-56820557D01*
X91777742Y-56719758D01*
X91818915Y-56669063D01*
X91850249Y-56605741D01*
X91873081Y-56513078D01*
X91888747Y-56374361D01*
X91898585Y-56172875D01*
X91903930Y-55891905D01*
X91906120Y-55514739D01*
X91906500Y-55109840D01*
X91905928Y-54638336D01*
X91903300Y-54276782D01*
X91897246Y-54008130D01*
X91886399Y-53815333D01*
X91869389Y-53681343D01*
X91844847Y-53589113D01*
X91811404Y-53521594D01*
X91774891Y-53470814D01*
X91643282Y-53303500D01*
X90135864Y-53303500D01*
X89658395Y-53304043D01*
X89291445Y-53306531D01*
X89018535Y-53312254D01*
X88823186Y-53322501D01*
X88688920Y-53338561D01*
X88599258Y-53361724D01*
X88537720Y-53393279D01*
X88490242Y-53432258D01*
X88374853Y-53576901D01*
X88315913Y-53704943D01*
X88306104Y-53809360D01*
X88299120Y-54019866D01*
X88295191Y-54315577D01*
X88294545Y-54675608D01*
X88297411Y-55079074D01*
X88299270Y-55225557D01*
X88301098Y-55431603D01*
X88799335Y-55431603D01*
X88804938Y-54968528D01*
X88814568Y-54625155D01*
X88825942Y-54385051D01*
X88843783Y-54224519D01*
X88872809Y-54119863D01*
X88917742Y-54047386D01*
X88983302Y-53983392D01*
X89004915Y-53964698D01*
X89079530Y-53905620D01*
X89158321Y-53864071D01*
X89263982Y-53836971D01*
X89419207Y-53821246D01*
X89646690Y-53813818D01*
X89969125Y-53811611D01*
X90134927Y-53811500D01*
X90502119Y-53812321D01*
X90764482Y-53816863D01*
X90944184Y-53828245D01*
X91063395Y-53849586D01*
X91144283Y-53884006D01*
X91209018Y-53934625D01*
X91242636Y-53967364D01*
X91302629Y-54032369D01*
X91344847Y-54102322D01*
X91372409Y-54199391D01*
X91388435Y-54345748D01*
X91396044Y-54563559D01*
X91398356Y-54874995D01*
X91398500Y-55075073D01*
X91397547Y-55443251D01*
X91392638Y-55707128D01*
X91380699Y-55889396D01*
X91358655Y-56012751D01*
X91323431Y-56099888D01*
X91271952Y-56173501D01*
X91245397Y-56205085D01*
X91178166Y-56278308D01*
X91108492Y-56328764D01*
X91011968Y-56361487D01*
X90864184Y-56381510D01*
X90640735Y-56393866D01*
X90317210Y-56403588D01*
X90277713Y-56404627D01*
X89802629Y-56410931D01*
X89439618Y-56392308D01*
X89174213Y-56334654D01*
X88991948Y-56223862D01*
X88878357Y-56045826D01*
X88818975Y-55786442D01*
X88799335Y-55431603D01*
X88301098Y-55431603D01*
X88303727Y-55727889D01*
X88310679Y-56118044D01*
X88334399Y-56410296D01*
X88389164Y-56618922D01*
X88489249Y-56758195D01*
X88648928Y-56842393D01*
X88882477Y-56885788D01*
X89204171Y-56902658D01*
X89628285Y-56907276D01*
X89984443Y-56910730D01*
X90398109Y-56914869D01*
X90775595Y-56915417D01*
X91096014Y-56912603D01*
G36*
X88795000Y-52545334D02*
G01*
X88788601Y-52381113D01*
X88748324Y-52307515D01*
X88642548Y-52288183D01*
X88570757Y-52287500D01*
X88397292Y-52312594D01*
X88311735Y-52378132D01*
X88292264Y-52511828D01*
X88297853Y-52616257D01*
X88337143Y-52718709D01*
X88441346Y-52768363D01*
X88556875Y-52783459D01*
X88795000Y-52803167D01*
X88795000Y-52545334D01*
G37*
X88795000Y-52545334D02*
X88788601Y-52381113D01*
X88748324Y-52307515D01*
X88642548Y-52288183D01*
X88570757Y-52287500D01*
X88397292Y-52312594D01*
X88311735Y-52378132D01*
X88292264Y-52511828D01*
X88297853Y-52616257D01*
X88337143Y-52718709D01*
X88441346Y-52768363D01*
X88556875Y-52783459D01*
X88795000Y-52803167D01*
X88795000Y-52545334D01*
G36*
X89862458Y-51477875D02*
G01*
X89837598Y-51319111D01*
X89776355Y-51246795D01*
X89649967Y-51220866D01*
X89499396Y-51220972D01*
X89411842Y-51247324D01*
X89380681Y-51336742D01*
X89366572Y-51492285D01*
X89366500Y-51504334D01*
X89374639Y-51639191D01*
X89423263Y-51699635D01*
X89548684Y-51715476D01*
X89624333Y-51716000D01*
X89882166Y-51716000D01*
X89862458Y-51477875D01*
G37*
X89862458Y-51477875D02*
X89837598Y-51319111D01*
X89776355Y-51246795D01*
X89649967Y-51220866D01*
X89499396Y-51220972D01*
X89411842Y-51247324D01*
X89380681Y-51336742D01*
X89366572Y-51492285D01*
X89366500Y-51504334D01*
X89374639Y-51639191D01*
X89423263Y-51699635D01*
X89548684Y-51715476D01*
X89624333Y-51716000D01*
X89882166Y-51716000D01*
X89862458Y-51477875D01*
G36*
X88714326Y-51708428D02*
G01*
X88778127Y-51661296D01*
X88794493Y-51537983D01*
X88795000Y-51462000D01*
X88788245Y-51299369D01*
X88746741Y-51227094D01*
X88638627Y-51208565D01*
X88573959Y-51208000D01*
X88415928Y-51224896D01*
X88338376Y-51293443D01*
X88313111Y-51366609D01*
X88295325Y-51563430D01*
X88369438Y-51675958D01*
X88543862Y-51715599D01*
X88570757Y-51716000D01*
X88714326Y-51708428D01*
G37*
X88714326Y-51708428D02*
X88778127Y-51661296D01*
X88794493Y-51537983D01*
X88795000Y-51462000D01*
X88788245Y-51299369D01*
X88746741Y-51227094D01*
X88638627Y-51208565D01*
X88573959Y-51208000D01*
X88415928Y-51224896D01*
X88338376Y-51293443D01*
X88313111Y-51366609D01*
X88295325Y-51563430D01*
X88369438Y-51675958D01*
X88543862Y-51715599D01*
X88570757Y-51716000D01*
X88714326Y-51708428D01*
G36*
X103241250Y-51811250D02*
G01*
X103025576Y-51779500D01*
X102817979Y-51707469D01*
X102718310Y-51569323D01*
X102724150Y-51380397D01*
X102776821Y-51265777D01*
X102885876Y-51211694D01*
X103003376Y-51195944D01*
X103159317Y-51173807D01*
X103225997Y-51117133D01*
X103241100Y-50987596D01*
X103241250Y-50954000D01*
X103231091Y-50806629D01*
X103175303Y-50739953D01*
X103035915Y-50714764D01*
X103007172Y-50712284D01*
X102854315Y-50707206D01*
X102784525Y-50749379D01*
X102758552Y-50873147D01*
X102753172Y-50934534D01*
X102733250Y-51176250D01*
X101717250Y-51239750D01*
X101697541Y-51477875D01*
X101677833Y-51716000D01*
X102145216Y-51716000D01*
X102438430Y-51727294D01*
X102626031Y-51767391D01*
X102727904Y-51845619D01*
X102763934Y-51971302D01*
X102765000Y-52006675D01*
X102717941Y-52168989D01*
X102570589Y-52265981D01*
X102415750Y-52297757D01*
X102286946Y-52326811D01*
X102234527Y-52402083D01*
X102225250Y-52541500D01*
X102225250Y-52763750D01*
X103241250Y-52763750D01*
X103241250Y-51811250D01*
G37*
X103241250Y-51811250D02*
X103025576Y-51779500D01*
X102817979Y-51707469D01*
X102718310Y-51569323D01*
X102724150Y-51380397D01*
X102776821Y-51265777D01*
X102885876Y-51211694D01*
X103003376Y-51195944D01*
X103159317Y-51173807D01*
X103225997Y-51117133D01*
X103241100Y-50987596D01*
X103241250Y-50954000D01*
X103231091Y-50806629D01*
X103175303Y-50739953D01*
X103035915Y-50714764D01*
X103007172Y-50712284D01*
X102854315Y-50707206D01*
X102784525Y-50749379D01*
X102758552Y-50873147D01*
X102753172Y-50934534D01*
X102733250Y-51176250D01*
X101717250Y-51239750D01*
X101697541Y-51477875D01*
X101677833Y-51716000D01*
X102145216Y-51716000D01*
X102438430Y-51727294D01*
X102626031Y-51767391D01*
X102727904Y-51845619D01*
X102763934Y-51971302D01*
X102765000Y-52006675D01*
X102717941Y-52168989D01*
X102570589Y-52265981D01*
X102415750Y-52297757D01*
X102286946Y-52326811D01*
X102234527Y-52402083D01*
X102225250Y-52541500D01*
X102225250Y-52763750D01*
X103241250Y-52763750D01*
X103241250Y-51811250D01*
G36*
X88715487Y-47644239D02*
G01*
X88778384Y-47596546D01*
X88794508Y-47472311D01*
X88795000Y-47398000D01*
X88788314Y-47235380D01*
X88746704Y-47163112D01*
X88637837Y-47144574D01*
X88570757Y-47144000D01*
X88390494Y-47171348D01*
X88309908Y-47239392D01*
X88296284Y-47372495D01*
X88313111Y-47493392D01*
X88364353Y-47603745D01*
X88470751Y-47647048D01*
X88573959Y-47652000D01*
X88715487Y-47644239D01*
G37*
X88715487Y-47644239D02*
X88778384Y-47596546D01*
X88794508Y-47472311D01*
X88795000Y-47398000D01*
X88788314Y-47235380D01*
X88746704Y-47163112D01*
X88637837Y-47144574D01*
X88570757Y-47144000D01*
X88390494Y-47171348D01*
X88309908Y-47239392D01*
X88296284Y-47372495D01*
X88313111Y-47493392D01*
X88364353Y-47603745D01*
X88470751Y-47647048D01*
X88573959Y-47652000D01*
X88715487Y-47644239D01*
G36*
X101931833Y-43524500D02*
G01*
X102095180Y-43517200D01*
X102171135Y-43472348D01*
X102199266Y-43355521D01*
X102205541Y-43286375D01*
X102225956Y-43133804D01*
X102279403Y-43066077D01*
X102405452Y-43048769D01*
X102479250Y-43048250D01*
X102733250Y-43048250D01*
X102751862Y-43544046D01*
X102770474Y-44039841D01*
X103005862Y-44020296D01*
X103241250Y-44000750D01*
X103241250Y-43048250D01*
X103003376Y-43028557D01*
X102872913Y-43009341D01*
X102787260Y-42961894D01*
X102735396Y-42862636D01*
X102706300Y-42687990D01*
X102688951Y-42414376D01*
X102686094Y-42349750D01*
X102669750Y-41968750D01*
X102225250Y-41968750D01*
X102161750Y-42984750D01*
X101939500Y-42984750D01*
X101793039Y-42974893D01*
X101726196Y-42920212D01*
X101700698Y-42783042D01*
X101697541Y-42746625D01*
X101677127Y-42594054D01*
X101623680Y-42526327D01*
X101497631Y-42509019D01*
X101423833Y-42508500D01*
X101169833Y-42508500D01*
X101189541Y-42746625D01*
X101212692Y-42903838D01*
X101274130Y-42975155D01*
X101414928Y-43001650D01*
X101447375Y-43004459D01*
X101600193Y-43024967D01*
X101667850Y-43078683D01*
X101685009Y-43205281D01*
X101685500Y-43277005D01*
X101685500Y-43524500D01*
X101931833Y-43524500D01*
G37*
X101931833Y-43524500D02*
X102095180Y-43517200D01*
X102171135Y-43472348D01*
X102199266Y-43355521D01*
X102205541Y-43286375D01*
X102225956Y-43133804D01*
X102279403Y-43066077D01*
X102405452Y-43048769D01*
X102479250Y-43048250D01*
X102733250Y-43048250D01*
X102751862Y-43544046D01*
X102770474Y-44039841D01*
X103005862Y-44020296D01*
X103241250Y-44000750D01*
X103241250Y-43048250D01*
X103003376Y-43028557D01*
X102872913Y-43009341D01*
X102787260Y-42961894D01*
X102735396Y-42862636D01*
X102706300Y-42687990D01*
X102688951Y-42414376D01*
X102686094Y-42349750D01*
X102669750Y-41968750D01*
X102225250Y-41968750D01*
X102161750Y-42984750D01*
X101939500Y-42984750D01*
X101793039Y-42974893D01*
X101726196Y-42920212D01*
X101700698Y-42783042D01*
X101697541Y-42746625D01*
X101677127Y-42594054D01*
X101623680Y-42526327D01*
X101497631Y-42509019D01*
X101423833Y-42508500D01*
X101169833Y-42508500D01*
X101189541Y-42746625D01*
X101212692Y-42903838D01*
X101274130Y-42975155D01*
X101414928Y-43001650D01*
X101447375Y-43004459D01*
X101600193Y-43024967D01*
X101667850Y-43078683D01*
X101685009Y-43205281D01*
X101685500Y-43277005D01*
X101685500Y-43524500D01*
X101931833Y-43524500D01*
G36*
X101677833Y-43524500D02*
G01*
X101678253Y-43529570D01*
X101685500Y-43529843D01*
X101685500Y-43524500D01*
X101677833Y-43524500D01*
G37*
X101677833Y-43524500D02*
X101678253Y-43529570D01*
X101685500Y-43529843D01*
X101685500Y-43524500D01*
X101677833Y-43524500D01*
G36*
X98432033Y-56911158D02*
G01*
X98478750Y-56909815D01*
X99113750Y-56891250D01*
X99113750Y-55367250D01*
X98637500Y-55327834D01*
X98637500Y-54327167D01*
X98875625Y-54307459D01*
X99113750Y-54287750D01*
X99113750Y-53335250D01*
X98879242Y-53315758D01*
X98723440Y-53292122D01*
X98653230Y-53228928D01*
X98627220Y-53084782D01*
X98625242Y-53061758D01*
X98601954Y-52906784D01*
X98539765Y-52836423D01*
X98397617Y-52810124D01*
X98367876Y-52807557D01*
X98199421Y-52776175D01*
X98115877Y-52701996D01*
X98091153Y-52633074D01*
X98066737Y-52477423D01*
X98099924Y-52376124D01*
X98209497Y-52316404D01*
X98414240Y-52285486D01*
X98618586Y-52274351D01*
X99113750Y-52255750D01*
X99133669Y-52014081D01*
X99179257Y-51818090D01*
X99284778Y-51729161D01*
X99466059Y-51735257D01*
X99492230Y-51741444D01*
X99571237Y-51769926D01*
X99619435Y-51825405D01*
X99646188Y-51936368D01*
X99660864Y-52131304D01*
X99666713Y-52272167D01*
X99685250Y-52763750D01*
X99907500Y-52763750D01*
X100053960Y-52753893D01*
X100120803Y-52699212D01*
X100146301Y-52562042D01*
X100149458Y-52525625D01*
X100169166Y-52287500D01*
X101169833Y-52287500D01*
X101189541Y-52525625D01*
X101211657Y-52681673D01*
X101268219Y-52748442D01*
X101397498Y-52763597D01*
X101431500Y-52763750D01*
X101578871Y-52753592D01*
X101645547Y-52697804D01*
X101670736Y-52558416D01*
X101673216Y-52529673D01*
X101678294Y-52376816D01*
X101636121Y-52307026D01*
X101512353Y-52281053D01*
X101450966Y-52275673D01*
X101292291Y-52252884D01*
X101219855Y-52193227D01*
X101192942Y-52056508D01*
X101189541Y-52017625D01*
X101165389Y-51860150D01*
X101108891Y-51792743D01*
X100999041Y-51778528D01*
X100798170Y-51748895D01*
X100697140Y-51651692D01*
X100679369Y-51470085D01*
X100680664Y-51455342D01*
X100706795Y-51311449D01*
X100775439Y-51246047D01*
X100928084Y-51220903D01*
X100935757Y-51220258D01*
X101091559Y-51196622D01*
X101161769Y-51133428D01*
X101187779Y-50989282D01*
X101189757Y-50966258D01*
X101209250Y-50731750D01*
X101697697Y-50713271D01*
X102186144Y-50694791D01*
X102205697Y-50459271D01*
X102225250Y-50223750D01*
X103241250Y-50160250D01*
X103241250Y-49207750D01*
X103019554Y-49186710D01*
X102857454Y-49152929D01*
X102755921Y-49098363D01*
X102750652Y-49091460D01*
X102731126Y-49000324D01*
X102715341Y-48812126D01*
X102705209Y-48556789D01*
X102702472Y-48338459D01*
X102701500Y-47659667D01*
X102463375Y-47639959D01*
X102225250Y-47620250D01*
X102225250Y-46096250D01*
X103241250Y-46032750D01*
X103241250Y-45810500D01*
X103231645Y-45664822D01*
X103177900Y-45597839D01*
X103042613Y-45572075D01*
X102999580Y-45568331D01*
X102803523Y-45522681D01*
X102714551Y-45417108D01*
X102720721Y-45235969D01*
X102726653Y-45210927D01*
X102780799Y-45101952D01*
X102897187Y-45050067D01*
X103003376Y-45036444D01*
X103159317Y-45014307D01*
X103225997Y-44957633D01*
X103241100Y-44828096D01*
X103241250Y-44794500D01*
X103231091Y-44647129D01*
X103175303Y-44580453D01*
X103035915Y-44555264D01*
X103007172Y-44552784D01*
X102854315Y-44547706D01*
X102784525Y-44589879D01*
X102758552Y-44713647D01*
X102753172Y-44775034D01*
X102730917Y-44931254D01*
X102672423Y-45006684D01*
X102538232Y-45040716D01*
X102479250Y-45048500D01*
X102315593Y-45077883D01*
X102239125Y-45137190D01*
X102210388Y-45265815D01*
X102205327Y-45321967D01*
X102185028Y-45478557D01*
X102133278Y-45542731D01*
X102010827Y-45548834D01*
X101951327Y-45544217D01*
X101717250Y-45524750D01*
X101717250Y-44572250D01*
X101955375Y-44552542D01*
X102109600Y-44531495D01*
X102176844Y-44476222D01*
X102193151Y-44346452D01*
X102193500Y-44286500D01*
X102185492Y-44126296D01*
X102137441Y-44052757D01*
X102013300Y-44025613D01*
X101955375Y-44020459D01*
X101798162Y-43997308D01*
X101726845Y-43935870D01*
X101700350Y-43795072D01*
X101697541Y-43762625D01*
X101678253Y-43529570D01*
X101193375Y-43511297D01*
X100701250Y-43492750D01*
X100682703Y-43000625D01*
X100671665Y-42753585D01*
X100654831Y-42607103D01*
X100622016Y-42534817D01*
X100563034Y-42510361D01*
X100492203Y-42507528D01*
X100299185Y-42480422D01*
X100195055Y-42383983D01*
X100150875Y-42191333D01*
X100150790Y-42190446D01*
X100129750Y-41968750D01*
X97589750Y-41968750D01*
X97526250Y-42984750D01*
X97288125Y-43004459D01*
X97134734Y-43025184D01*
X97067242Y-43079529D01*
X97050429Y-43207409D01*
X97050000Y-43274334D01*
X97050000Y-43492750D01*
X97589750Y-43492750D01*
X97589750Y-43270500D01*
X97599607Y-43124040D01*
X97654288Y-43057197D01*
X97791458Y-43031699D01*
X97827875Y-43028542D01*
X97984166Y-43005940D01*
X98051003Y-42949794D01*
X98065917Y-42824574D01*
X98066000Y-42803117D01*
X98088231Y-42636011D01*
X98141737Y-42521667D01*
X98142200Y-42521200D01*
X98285703Y-42453078D01*
X98454594Y-42463227D01*
X98569256Y-42534535D01*
X98609774Y-42654195D01*
X98627257Y-42871822D01*
X98624656Y-43058410D01*
X98615258Y-43274334D01*
X99145500Y-43274334D01*
X99153143Y-43112554D01*
X99199555Y-43037808D01*
X99319955Y-43010180D01*
X99383625Y-43004459D01*
X99542480Y-42979507D01*
X99614794Y-42918278D01*
X99640355Y-42794250D01*
X99662476Y-42630286D01*
X99685987Y-42524375D01*
X99764365Y-42463756D01*
X99905505Y-42448211D01*
X100052095Y-42481436D01*
X100084305Y-42498693D01*
X100121653Y-42560840D01*
X100143785Y-42700559D01*
X100152036Y-42934195D01*
X100147805Y-43275596D01*
X100129750Y-44000750D01*
X99891625Y-44020459D01*
X99746138Y-44032500D01*
X101169833Y-44032500D01*
X101685500Y-44032500D01*
X101685500Y-44548167D01*
X101447375Y-44528459D01*
X101290162Y-44505308D01*
X101218845Y-44443870D01*
X101192350Y-44303072D01*
X101189541Y-44270625D01*
X101169833Y-44032500D01*
X99746138Y-44032500D01*
X99653500Y-44040167D01*
X99653500Y-43524500D01*
X99399500Y-43524500D01*
X99236918Y-43518322D01*
X99164675Y-43475714D01*
X99146110Y-43360570D01*
X99145500Y-43274334D01*
X98615258Y-43274334D01*
X98605750Y-43492750D01*
X97589750Y-43492750D01*
X97050000Y-43492750D01*
X97050000Y-43516834D01*
X98637500Y-43516834D01*
X98875625Y-43536542D01*
X99031672Y-43558658D01*
X99098441Y-43615220D01*
X99113596Y-43744499D01*
X99113750Y-43778500D01*
X99103892Y-43924961D01*
X99049211Y-43991804D01*
X98912041Y-44017302D01*
X98875625Y-44020459D01*
X98637500Y-44040167D01*
X98637500Y-43516834D01*
X97050000Y-43516834D01*
X97050000Y-43524500D01*
X96034000Y-43524500D01*
X96034000Y-44203783D01*
X97558598Y-44203783D01*
X97596067Y-44106046D01*
X97702251Y-44055864D01*
X97898145Y-44041056D01*
X98112663Y-44045687D01*
X98605750Y-44064250D01*
X98605750Y-45016750D01*
X98390158Y-45037336D01*
X98202635Y-45024282D01*
X98100582Y-44929021D01*
X98067167Y-44734970D01*
X98066972Y-44718959D01*
X98050819Y-44604774D01*
X97979518Y-44550756D01*
X97827875Y-44528459D01*
X97663618Y-44499519D01*
X97587963Y-44433072D01*
X97568853Y-44361257D01*
X97558598Y-44203783D01*
X96034000Y-44203783D01*
X96034000Y-44540500D01*
X95018000Y-44540500D01*
X95018000Y-44290334D01*
X95025643Y-44128554D01*
X95072055Y-44053808D01*
X95192455Y-44026180D01*
X95256125Y-44020459D01*
X95413337Y-43997308D01*
X95484654Y-43935870D01*
X95511149Y-43795072D01*
X95513958Y-43762625D01*
X95533666Y-43524500D01*
X94514030Y-43524500D01*
X94478250Y-45016750D01*
X94244172Y-45036217D01*
X94091315Y-45041295D01*
X94021525Y-44999122D01*
X93995552Y-44875354D01*
X93990172Y-44813967D01*
X93967303Y-44655236D01*
X93907742Y-44582786D01*
X93771790Y-44555933D01*
X93735246Y-44552728D01*
X93543632Y-44493397D01*
X93440768Y-44377386D01*
X93426654Y-44238861D01*
X93501290Y-44111984D01*
X93664676Y-44030920D01*
X93735246Y-44020273D01*
X93890474Y-43997026D01*
X93960975Y-43935005D01*
X93987319Y-43793172D01*
X93989958Y-43762625D01*
X94010519Y-43609668D01*
X94064388Y-43542051D01*
X94191298Y-43524976D01*
X94261848Y-43524500D01*
X94510000Y-43524500D01*
X94510000Y-43274334D01*
X94502356Y-43112554D01*
X94455944Y-43037808D01*
X94335544Y-43010180D01*
X94271875Y-43004459D01*
X94119303Y-42984044D01*
X94051576Y-42930597D01*
X94034268Y-42804548D01*
X94033750Y-42730750D01*
X94033750Y-42476750D01*
X94379606Y-42457124D01*
X94669555Y-42449236D01*
X94857101Y-42471974D01*
X94965188Y-42535559D01*
X95016764Y-42650212D01*
X95030056Y-42746877D01*
X95049750Y-42984750D01*
X96510250Y-42984750D01*
X96510250Y-41968750D01*
X94033750Y-41968750D01*
X94012709Y-42190446D01*
X93984957Y-42347308D01*
X93920635Y-42441953D01*
X93793171Y-42489637D01*
X93575995Y-42505620D01*
X93462250Y-42506556D01*
X93203242Y-42498743D01*
X93044226Y-42465131D01*
X92958630Y-42390462D01*
X92919883Y-42259477D01*
X92911790Y-42190446D01*
X92882945Y-42038098D01*
X92811221Y-41970728D01*
X92697967Y-41949866D01*
X92547396Y-41949972D01*
X92459842Y-41976324D01*
X92428447Y-42065947D01*
X92414538Y-42220851D01*
X92414500Y-42229501D01*
X92425501Y-42366788D01*
X92483541Y-42429918D01*
X92626173Y-42454773D01*
X92652625Y-42457042D01*
X92805196Y-42477457D01*
X92872923Y-42530904D01*
X92890231Y-42656953D01*
X92890750Y-42730750D01*
X92883500Y-42894075D01*
X92838551Y-42970024D01*
X92721102Y-42998189D01*
X92650025Y-43004614D01*
X92409301Y-43024477D01*
X92420425Y-43318416D01*
X92927505Y-43318416D01*
X92943937Y-43146206D01*
X92995767Y-43055755D01*
X93094361Y-43024757D01*
X93223614Y-43028512D01*
X93462250Y-43048250D01*
X93481876Y-43394107D01*
X93490204Y-43689308D01*
X93468774Y-43879060D01*
X93408325Y-43983250D01*
X93299595Y-44021763D01*
X93190235Y-44020331D01*
X92954250Y-44000750D01*
X92935106Y-43594689D01*
X92927505Y-43318416D01*
X92420425Y-43318416D01*
X92427775Y-43512614D01*
X92446250Y-44000750D01*
X92684375Y-44020459D01*
X92838600Y-44041506D01*
X92905844Y-44096779D01*
X92922151Y-44226549D01*
X92922500Y-44286500D01*
X92914492Y-44446705D01*
X92866441Y-44520244D01*
X92742300Y-44547388D01*
X92684375Y-44552542D01*
X92446250Y-44572250D01*
X92428382Y-45315740D01*
X92421695Y-45594015D01*
X92931462Y-45594015D01*
X92933617Y-45352798D01*
X92941870Y-45185700D01*
X92950939Y-45129480D01*
X93004403Y-45084037D01*
X93134427Y-45061166D01*
X93361791Y-45058191D01*
X93477163Y-45061687D01*
X93970250Y-45080250D01*
X93970250Y-46540750D01*
X92954250Y-46540750D01*
X92936025Y-45878293D01*
X92931462Y-45594015D01*
X92421695Y-45594015D01*
X92410515Y-46059230D01*
X91920382Y-46077740D01*
X91430250Y-46096250D01*
X91410757Y-46330758D01*
X91387121Y-46486560D01*
X91323927Y-46556770D01*
X91179781Y-46582780D01*
X91156757Y-46584758D01*
X91002697Y-46607667D01*
X90932175Y-46668763D01*
X90905557Y-46808730D01*
X90902330Y-46845920D01*
X90897282Y-46867624D01*
X91398500Y-46867624D01*
X91414951Y-46683160D01*
X91482283Y-46596575D01*
X91627458Y-46581021D01*
X91681967Y-46585366D01*
X91810662Y-46612399D01*
X91870499Y-46686343D01*
X91894488Y-46842886D01*
X91892744Y-46867624D01*
X92414500Y-46867624D01*
X92430951Y-46683160D01*
X92498283Y-46596575D01*
X92643458Y-46581021D01*
X92697967Y-46585366D01*
X92826662Y-46612399D01*
X92886499Y-46686343D01*
X92910488Y-46842886D01*
X92896896Y-47035642D01*
X92808517Y-47128954D01*
X92634828Y-47131401D01*
X92573108Y-47117889D01*
X92460399Y-47064094D01*
X92418098Y-46951955D01*
X92414500Y-46867624D01*
X91892744Y-46867624D01*
X91880896Y-47035642D01*
X91792517Y-47128954D01*
X91618828Y-47131401D01*
X91557108Y-47117889D01*
X91444399Y-47064094D01*
X91402098Y-46951955D01*
X91398500Y-46867624D01*
X90897282Y-46867624D01*
X90856742Y-47041911D01*
X90751221Y-47130840D01*
X90569940Y-47124744D01*
X90543769Y-47118557D01*
X90464762Y-47090075D01*
X90416564Y-47034596D01*
X90389811Y-46923633D01*
X90375135Y-46728697D01*
X90369286Y-46587834D01*
X90350750Y-46096250D01*
X88858500Y-46060470D01*
X88858500Y-46567158D01*
X89842750Y-46604250D01*
X89863335Y-46819842D01*
X89850919Y-47005952D01*
X89757465Y-47107812D01*
X89565681Y-47142563D01*
X89537291Y-47143028D01*
X89421447Y-47154366D01*
X89375959Y-47211467D01*
X89376025Y-47275693D01*
X89881855Y-47275693D01*
X89899521Y-47170386D01*
X89984848Y-47101482D01*
X90131780Y-47083802D01*
X90283711Y-47122147D01*
X90307835Y-47135757D01*
X90364283Y-47238387D01*
X90371335Y-47404659D01*
X90345633Y-47549745D01*
X90278392Y-47608978D01*
X90128500Y-47620250D01*
X89976377Y-47607412D01*
X89908380Y-47548173D01*
X89885639Y-47440261D01*
X89881855Y-47275693D01*
X89376025Y-47275693D01*
X89376104Y-47351564D01*
X89378541Y-47382125D01*
X89401337Y-47538464D01*
X89461750Y-47609938D01*
X89600498Y-47636740D01*
X89639966Y-47640173D01*
X89796556Y-47660472D01*
X89860730Y-47712222D01*
X89862180Y-47741316D01*
X90389705Y-47741316D01*
X90431878Y-47671526D01*
X90555646Y-47645553D01*
X90617033Y-47640173D01*
X90777309Y-47615609D01*
X90850730Y-47556083D01*
X90877355Y-47429750D01*
X90906741Y-47225547D01*
X90958899Y-47120776D01*
X91056914Y-47087869D01*
X91159938Y-47092320D01*
X91294915Y-47117784D01*
X91361671Y-47185637D01*
X91394499Y-47335257D01*
X91398500Y-47366250D01*
X91405395Y-47404659D01*
X91917664Y-47404659D01*
X91933449Y-47210748D01*
X92032931Y-47110638D01*
X92224000Y-47095801D01*
X92326907Y-47122206D01*
X92372370Y-47197986D01*
X92382746Y-47361228D01*
X92382750Y-47366250D01*
X92376021Y-47528878D01*
X92334477Y-47601150D01*
X92226080Y-47619683D01*
X92160500Y-47620250D01*
X92009836Y-47608757D01*
X91943069Y-47549016D01*
X91917664Y-47404659D01*
X91405395Y-47404659D01*
X91427882Y-47529907D01*
X91487189Y-47606375D01*
X91615814Y-47635112D01*
X91671966Y-47640173D01*
X91828556Y-47660472D01*
X91892730Y-47712222D01*
X91898833Y-47834673D01*
X91894216Y-47894173D01*
X91870566Y-48049701D01*
X91807289Y-48119799D01*
X91662995Y-48145789D01*
X91640242Y-48147743D01*
X91484440Y-48171379D01*
X91414230Y-48234573D01*
X91388220Y-48378719D01*
X91386242Y-48401743D01*
X91363803Y-48556251D01*
X91305601Y-48621741D01*
X91172527Y-48636150D01*
X91144500Y-48636250D01*
X90997226Y-48626125D01*
X90930532Y-48570456D01*
X90905310Y-48431308D01*
X90902757Y-48401743D01*
X90879121Y-48245941D01*
X90815927Y-48175731D01*
X90671781Y-48149721D01*
X90648757Y-48147743D01*
X90492946Y-48124096D01*
X90422734Y-48060917D01*
X90396734Y-47916884D01*
X90394783Y-47894173D01*
X90389705Y-47741316D01*
X89862180Y-47741316D01*
X89866833Y-47834673D01*
X89862216Y-47894173D01*
X89838566Y-48049701D01*
X89775289Y-48119799D01*
X89630995Y-48145789D01*
X89608242Y-48147743D01*
X89452440Y-48171379D01*
X89382230Y-48234573D01*
X89356220Y-48378719D01*
X89354242Y-48401743D01*
X89334750Y-48636250D01*
X88318750Y-48699750D01*
X88318750Y-49387175D01*
X88811295Y-49387175D01*
X88825921Y-49305609D01*
X88863019Y-49240974D01*
X88942473Y-49200718D01*
X89092058Y-49177329D01*
X89339552Y-49163291D01*
X89354076Y-49162734D01*
X89842750Y-49144250D01*
X89882166Y-48668000D01*
X90890500Y-48668000D01*
X91390833Y-48668000D01*
X91906500Y-48668000D01*
X91906500Y-48160000D01*
X92160500Y-48160000D01*
X92323081Y-48153822D01*
X92395324Y-48111214D01*
X92413889Y-47996070D01*
X92414500Y-47909834D01*
X92422143Y-47748054D01*
X92468555Y-47673308D01*
X92588955Y-47645680D01*
X92652625Y-47639959D01*
X92810404Y-47616155D01*
X92882442Y-47554612D01*
X92909997Y-47416902D01*
X92911790Y-47398555D01*
X92945571Y-47236455D01*
X93000137Y-47134922D01*
X93007040Y-47129653D01*
X93104064Y-47106152D01*
X93289120Y-47088932D01*
X93523273Y-47081527D01*
X93537791Y-47081473D01*
X93994333Y-47080500D01*
X94014041Y-46842375D01*
X94037192Y-46685163D01*
X94098630Y-46613846D01*
X94239428Y-46587351D01*
X94271875Y-46584542D01*
X94510000Y-46564834D01*
X94510000Y-45556500D01*
X95018000Y-45556500D01*
X95018000Y-45040834D01*
X95256125Y-45060542D01*
X95413337Y-45083693D01*
X95484654Y-45145131D01*
X95511149Y-45285929D01*
X95513958Y-45318375D01*
X95534683Y-45471766D01*
X95589028Y-45539258D01*
X95716908Y-45556071D01*
X95783833Y-45556500D01*
X96034000Y-45556500D01*
X96034000Y-45090834D01*
X96039400Y-44858550D01*
X96053639Y-44678584D01*
X96073776Y-44586237D01*
X96076333Y-44582834D01*
X96153257Y-44565953D01*
X96329903Y-44552268D01*
X96579001Y-44543296D01*
X96838333Y-44540500D01*
X97558000Y-44540500D01*
X97558000Y-44790667D01*
X97550356Y-44952447D01*
X97503944Y-45027193D01*
X97383544Y-45054821D01*
X97319875Y-45060542D01*
X97081750Y-45080250D01*
X97070538Y-45377257D01*
X97568853Y-45377257D01*
X97570275Y-45183743D01*
X97653651Y-45080125D01*
X97833761Y-45048523D01*
X97840547Y-45048500D01*
X97999271Y-45065003D01*
X98077258Y-45132189D01*
X98103388Y-45207109D01*
X98123604Y-45405192D01*
X98055230Y-45515174D01*
X97889688Y-45547578D01*
X97828385Y-45544489D01*
X97663943Y-45515622D01*
X97588132Y-45449440D01*
X97568853Y-45377257D01*
X97070538Y-45377257D01*
X97063232Y-45570776D01*
X97044715Y-46061302D01*
X96047232Y-46078776D01*
X95049750Y-46096250D01*
X95018759Y-46840051D01*
X97567448Y-46840051D01*
X97569164Y-46819842D01*
X97594888Y-46676791D01*
X97662383Y-46611256D01*
X97812785Y-46585820D01*
X97827875Y-46584542D01*
X98066000Y-46564834D01*
X98066000Y-46161111D01*
X98071810Y-45876866D01*
X98096848Y-45697573D01*
X98152519Y-45601423D01*
X98250231Y-45566609D01*
X98375704Y-45569024D01*
X98605750Y-45588250D01*
X98623747Y-46064500D01*
X99145500Y-46064500D01*
X99145500Y-44540500D01*
X100669500Y-44540500D01*
X100669500Y-46064500D01*
X99145500Y-46064500D01*
X98623747Y-46064500D01*
X98624248Y-46077752D01*
X98642747Y-46567253D01*
X99132248Y-46585752D01*
X99621750Y-46604250D01*
X99640005Y-46896341D01*
X101182919Y-46896341D01*
X101197030Y-46715448D01*
X101241862Y-46617777D01*
X101326692Y-46581729D01*
X101446938Y-46584320D01*
X101653750Y-46604250D01*
X101653750Y-47620250D01*
X101209250Y-47620250D01*
X101190255Y-47182051D01*
X101182919Y-46896341D01*
X99640005Y-46896341D01*
X99685250Y-47620250D01*
X99919757Y-47639743D01*
X100000551Y-47652000D01*
X100661833Y-47652000D01*
X101185166Y-47652000D01*
X101165458Y-47890125D01*
X101143342Y-48046173D01*
X101086780Y-48112942D01*
X100957501Y-48128097D01*
X100923500Y-48128250D01*
X100777039Y-48118393D01*
X100710196Y-48063712D01*
X100684698Y-47926542D01*
X100681541Y-47890125D01*
X100661833Y-47652000D01*
X100000551Y-47652000D01*
X100075559Y-47663379D01*
X100145769Y-47726573D01*
X100171779Y-47870719D01*
X100173757Y-47893743D01*
X100196661Y-48047792D01*
X100257744Y-48118316D01*
X100397684Y-48144938D01*
X100434966Y-48148173D01*
X100591556Y-48168472D01*
X100655730Y-48220222D01*
X100661833Y-48342673D01*
X100657216Y-48402173D01*
X100637750Y-48636250D01*
X99895576Y-48654107D01*
X99153402Y-48671963D01*
X99133576Y-48431857D01*
X99113750Y-48191750D01*
X98639353Y-48172811D01*
X98382097Y-48152760D01*
X98198296Y-48118674D01*
X98116450Y-48077561D01*
X98091581Y-47978346D01*
X98073748Y-47793105D01*
X98066972Y-47572625D01*
X98064305Y-47345647D01*
X98049893Y-47217385D01*
X98012175Y-47159555D01*
X97939591Y-47143875D01*
X97891375Y-47143028D01*
X97688986Y-47114073D01*
X97586660Y-47018747D01*
X97567448Y-46840051D01*
X95018759Y-46840051D01*
X94986250Y-47620250D01*
X94240125Y-47638141D01*
X93494000Y-47656031D01*
X93493027Y-47828641D01*
X93466001Y-48022014D01*
X93369768Y-48126311D01*
X93177410Y-48170570D01*
X93175945Y-48170710D01*
X93028187Y-48196595D01*
X92961232Y-48263792D01*
X92935802Y-48413918D01*
X92934757Y-48426258D01*
X92911121Y-48582060D01*
X92847927Y-48652270D01*
X92703781Y-48678280D01*
X92680757Y-48680258D01*
X92446250Y-48699750D01*
X92427637Y-49195546D01*
X92409025Y-49691341D01*
X92173637Y-49671796D01*
X92017475Y-49648257D01*
X91946992Y-49585530D01*
X91920884Y-49442442D01*
X91918757Y-49417743D01*
X91895121Y-49261941D01*
X91831927Y-49191731D01*
X91687781Y-49165721D01*
X91664757Y-49163743D01*
X91509844Y-49140481D01*
X91439472Y-49078365D01*
X91413152Y-48936364D01*
X91410541Y-48906125D01*
X91390833Y-48668000D01*
X90890500Y-48668000D01*
X90890500Y-49684000D01*
X90382500Y-49684000D01*
X90382500Y-49938000D01*
X90376321Y-50100582D01*
X90333713Y-50172825D01*
X90218569Y-50191390D01*
X90132333Y-50192000D01*
X89970553Y-50184357D01*
X89895807Y-50137945D01*
X89868179Y-50017545D01*
X89862458Y-49953875D01*
X89842750Y-49715750D01*
X89354076Y-49697267D01*
X89101291Y-49683484D01*
X88947721Y-49660703D01*
X88865591Y-49621409D01*
X88827123Y-49558089D01*
X88825921Y-49554392D01*
X88811295Y-49387175D01*
X88318750Y-49387175D01*
X88318750Y-50160250D01*
X89842750Y-50223750D01*
X89882166Y-50700000D01*
X90885157Y-50700000D01*
X90903703Y-50207875D01*
X90922250Y-49715750D01*
X91906500Y-49678658D01*
X91906500Y-49931496D01*
X91906205Y-49938000D01*
X92954250Y-49938000D01*
X92954250Y-49715750D01*
X94478250Y-49652250D01*
X94478250Y-49207750D01*
X92954250Y-49144250D01*
X92954250Y-48699750D01*
X93970250Y-48636250D01*
X93989958Y-48398125D01*
X94010683Y-48244735D01*
X94065028Y-48177243D01*
X94192908Y-48160430D01*
X94259833Y-48160000D01*
X94419139Y-48166070D01*
X94490529Y-48208537D01*
X94509307Y-48323791D01*
X94510000Y-48417834D01*
X94510000Y-48675667D01*
X94748125Y-48655959D01*
X94986250Y-48636250D01*
X95023342Y-47652000D01*
X95530030Y-47652000D01*
X95494250Y-49144250D01*
X95256125Y-49163959D01*
X95101899Y-49185006D01*
X95034655Y-49240279D01*
X95018348Y-49370049D01*
X95018000Y-49430000D01*
X95018191Y-49433834D01*
X95526000Y-49433834D01*
X95533643Y-49272054D01*
X95580055Y-49197308D01*
X95700455Y-49169680D01*
X95764125Y-49163959D01*
X96002250Y-49144250D01*
X96020117Y-48400761D01*
X96037984Y-47657271D01*
X96528117Y-47638761D01*
X97018250Y-47620250D01*
X97039290Y-47398555D01*
X97085225Y-47201639D01*
X97188544Y-47107187D01*
X97367500Y-47095801D01*
X97434531Y-47106719D01*
X97480446Y-47137429D01*
X97510530Y-47209531D01*
X97530071Y-47344627D01*
X97544353Y-47564317D01*
X97558000Y-47874250D01*
X97589750Y-48636250D01*
X98097750Y-48699750D01*
X98097750Y-49652250D01*
X97843750Y-49652250D01*
X97680369Y-49644877D01*
X97604405Y-49600157D01*
X97576321Y-49484189D01*
X97570257Y-49417743D01*
X97546621Y-49261941D01*
X97483427Y-49191731D01*
X97339281Y-49165721D01*
X97316257Y-49163743D01*
X97162208Y-49140839D01*
X97091684Y-49079756D01*
X97065062Y-48939816D01*
X97061827Y-48902534D01*
X97041528Y-48745944D01*
X96989778Y-48681770D01*
X96867327Y-48675667D01*
X96807827Y-48680284D01*
X96653503Y-48702763D01*
X96588165Y-48761166D01*
X96573845Y-48894701D01*
X96573750Y-48922000D01*
X96583607Y-49068461D01*
X96638288Y-49135304D01*
X96775458Y-49160802D01*
X96811875Y-49163959D01*
X96966100Y-49185006D01*
X97033344Y-49240279D01*
X97049651Y-49370049D01*
X97050000Y-49430000D01*
X97041992Y-49590205D01*
X96993941Y-49663744D01*
X96869800Y-49690888D01*
X96811875Y-49696042D01*
X96654662Y-49719193D01*
X96583345Y-49780631D01*
X96556850Y-49921429D01*
X96554041Y-49953875D01*
X96533316Y-50107266D01*
X96478971Y-50174758D01*
X96351091Y-50191571D01*
X96284166Y-50192000D01*
X96124039Y-50185727D01*
X96052886Y-50142467D01*
X96034601Y-50025558D01*
X96034000Y-49938000D01*
X96034000Y-49684000D01*
X95780000Y-49684000D01*
X95617418Y-49677822D01*
X95545175Y-49635214D01*
X95526610Y-49520070D01*
X95526000Y-49433834D01*
X95018191Y-49433834D01*
X95026007Y-49590205D01*
X95074058Y-49663744D01*
X95198199Y-49690888D01*
X95256125Y-49696042D01*
X95494250Y-49715750D01*
X95512748Y-50205252D01*
X95531247Y-50694753D01*
X96020748Y-50713252D01*
X96510250Y-50731750D01*
X96529742Y-50966258D01*
X96553378Y-51122060D01*
X96616572Y-51192270D01*
X96659544Y-51200024D01*
X97044801Y-51200024D01*
X97063275Y-50711887D01*
X97081750Y-50223750D01*
X97552404Y-50204886D01*
X97825277Y-50201498D01*
X97995681Y-50226799D01*
X98087208Y-50294071D01*
X98123453Y-50416594D01*
X98128527Y-50529209D01*
X98139865Y-50645053D01*
X98196966Y-50690541D01*
X98337063Y-50690396D01*
X98367625Y-50687959D01*
X98523672Y-50665843D01*
X98590441Y-50609281D01*
X98605596Y-50480002D01*
X98605750Y-50446000D01*
X98596145Y-50300322D01*
X98542400Y-50233339D01*
X98407113Y-50207575D01*
X98364080Y-50203831D01*
X98168089Y-50158243D01*
X98079160Y-50052722D01*
X98085256Y-49871441D01*
X98091443Y-49845270D01*
X98119925Y-49766263D01*
X98175404Y-49718065D01*
X98286367Y-49691312D01*
X98481303Y-49676636D01*
X98622166Y-49670787D01*
X99113750Y-49652250D01*
X99133672Y-49410534D01*
X99153971Y-49253944D01*
X99205721Y-49189770D01*
X99328172Y-49183667D01*
X99387672Y-49188284D01*
X99621750Y-49207750D01*
X99658842Y-50192000D01*
X100161500Y-50192000D01*
X100161500Y-49176000D01*
X101177500Y-49176000D01*
X101177500Y-48668000D01*
X101685500Y-48668000D01*
X101685500Y-48160000D01*
X102193500Y-48160000D01*
X102193500Y-49168334D01*
X101717250Y-49207750D01*
X101698770Y-49696198D01*
X101680290Y-50184645D01*
X101444770Y-50204198D01*
X101288553Y-50227721D01*
X101218029Y-50290379D01*
X101191906Y-50433309D01*
X101189757Y-50458258D01*
X101166121Y-50614060D01*
X101102927Y-50684270D01*
X100958781Y-50710280D01*
X100935757Y-50712258D01*
X100780844Y-50735520D01*
X100710472Y-50797636D01*
X100684152Y-50939637D01*
X100681541Y-50969875D01*
X100660494Y-51124101D01*
X100605221Y-51191345D01*
X100475451Y-51207652D01*
X100415500Y-51208000D01*
X100255295Y-51199993D01*
X100181756Y-51151942D01*
X100154612Y-51027801D01*
X100149458Y-50969875D01*
X100129750Y-50731750D01*
X99145500Y-50694658D01*
X99145500Y-50947496D01*
X99138097Y-51110369D01*
X99092780Y-51185957D01*
X98974887Y-51213934D01*
X98907375Y-51220042D01*
X98749595Y-51243846D01*
X98677557Y-51305389D01*
X98650002Y-51443099D01*
X98648209Y-51461446D01*
X98640269Y-51506327D01*
X99653500Y-51506327D01*
X99669585Y-51320607D01*
X99735619Y-51232878D01*
X99878272Y-51216286D01*
X99936967Y-51220866D01*
X100066232Y-51248217D01*
X100125997Y-51323058D01*
X100149330Y-51475736D01*
X100151087Y-51635700D01*
X100105681Y-51714702D01*
X100006597Y-51752459D01*
X99807483Y-51770719D01*
X99693288Y-51697748D01*
X99653747Y-51526390D01*
X99653500Y-51506327D01*
X98640269Y-51506327D01*
X98620457Y-51618308D01*
X98556135Y-51712953D01*
X98428671Y-51760637D01*
X98211495Y-51776620D01*
X98097750Y-51777556D01*
X97838742Y-51769743D01*
X97679726Y-51736131D01*
X97594130Y-51661462D01*
X97555383Y-51530477D01*
X97547290Y-51461446D01*
X97522085Y-51315153D01*
X97456805Y-51247957D01*
X97310447Y-51222021D01*
X97285525Y-51219887D01*
X97044801Y-51200024D01*
X96659544Y-51200024D01*
X96760718Y-51218280D01*
X96783742Y-51220258D01*
X97018250Y-51239750D01*
X97035697Y-52271625D01*
X97047472Y-52968051D01*
X97566282Y-52968051D01*
X97582735Y-52886132D01*
X97666691Y-52820375D01*
X97815681Y-52794892D01*
X97974464Y-52809179D01*
X98087797Y-52862737D01*
X98106591Y-52890892D01*
X98119962Y-53023286D01*
X98102458Y-53148598D01*
X98058930Y-53255315D01*
X97973493Y-53294726D01*
X97825735Y-53291331D01*
X97662254Y-53262078D01*
X97587252Y-53194502D01*
X97568853Y-53124257D01*
X97566282Y-52968051D01*
X97047472Y-52968051D01*
X97053145Y-53303500D01*
X96542000Y-53303500D01*
X96542000Y-53608257D01*
X97055362Y-53608257D01*
X97072401Y-53437451D01*
X97124831Y-53345582D01*
X97223763Y-53308961D01*
X97333757Y-53303500D01*
X97558000Y-53303500D01*
X97558000Y-53456971D01*
X98071873Y-53456971D01*
X98138473Y-53345867D01*
X98301615Y-53312365D01*
X98367114Y-53315512D01*
X98523378Y-53337583D01*
X98590327Y-53393920D01*
X98605588Y-53522678D01*
X98605750Y-53557500D01*
X98595735Y-53704440D01*
X98540474Y-53771196D01*
X98402140Y-53796531D01*
X98369764Y-53799331D01*
X98209800Y-53801088D01*
X98130798Y-53755682D01*
X98093041Y-53656598D01*
X98071873Y-53456971D01*
X97558000Y-53456971D01*
X97558000Y-54327167D01*
X97319875Y-54307459D01*
X97081750Y-54287750D01*
X97062606Y-53881689D01*
X97055362Y-53608257D01*
X96542000Y-53608257D01*
X96542000Y-54827500D01*
X96034000Y-54827500D01*
X96034000Y-54319500D01*
X95780000Y-54319500D01*
X95617418Y-54313322D01*
X95545175Y-54270714D01*
X95526610Y-54155570D01*
X95526000Y-54069334D01*
X95533643Y-53907554D01*
X95580055Y-53832808D01*
X95700455Y-53805180D01*
X95764125Y-53799459D01*
X95921337Y-53776308D01*
X95992654Y-53714870D01*
X96019149Y-53574072D01*
X96021958Y-53541625D01*
X96041666Y-53303501D01*
X95787666Y-53303500D01*
X95624319Y-53310801D01*
X95548364Y-53355653D01*
X95520233Y-53472480D01*
X95513958Y-53541625D01*
X95490807Y-53698838D01*
X95429369Y-53770155D01*
X95288571Y-53796650D01*
X95256125Y-53799459D01*
X95018000Y-53819167D01*
X95018000Y-52803167D01*
X95256125Y-52783459D01*
X95413337Y-52760308D01*
X95484654Y-52698870D01*
X95511149Y-52558072D01*
X95513958Y-52525625D01*
X95535005Y-52371400D01*
X95590278Y-52304156D01*
X95720048Y-52287849D01*
X95780000Y-52287500D01*
X95940204Y-52295508D01*
X96013743Y-52343559D01*
X96040887Y-52467700D01*
X96046041Y-52525625D01*
X96068157Y-52681673D01*
X96124719Y-52748442D01*
X96253998Y-52763597D01*
X96288000Y-52763750D01*
X96435371Y-52753592D01*
X96502047Y-52697804D01*
X96527236Y-52558416D01*
X96529716Y-52529673D01*
X96534794Y-52376816D01*
X96492621Y-52307026D01*
X96368853Y-52281053D01*
X96307466Y-52275673D01*
X96148791Y-52252884D01*
X96076355Y-52193227D01*
X96049442Y-52056508D01*
X96046041Y-52017625D01*
X96021889Y-51860150D01*
X95965391Y-51792743D01*
X95855541Y-51778528D01*
X95663153Y-51751279D01*
X95559317Y-51654471D01*
X95515290Y-51461446D01*
X95489405Y-51313688D01*
X95422208Y-51246733D01*
X95272082Y-51221303D01*
X95259742Y-51220258D01*
X95103940Y-51196622D01*
X95033730Y-51133428D01*
X95007720Y-50989282D01*
X95005742Y-50966258D01*
X94986250Y-50731750D01*
X93462250Y-50668250D01*
X93442757Y-50433743D01*
X93419121Y-50277941D01*
X93355927Y-50207731D01*
X93211781Y-50181721D01*
X93188757Y-50179743D01*
X93034249Y-50157304D01*
X92968759Y-50099102D01*
X92954350Y-49966028D01*
X92954250Y-49938000D01*
X91906205Y-49938000D01*
X91899097Y-50094369D01*
X91853780Y-50169957D01*
X91735887Y-50197934D01*
X91668375Y-50204042D01*
X91511086Y-50227299D01*
X91439750Y-50288600D01*
X91413341Y-50428367D01*
X91410783Y-50457828D01*
X91409770Y-50488334D01*
X91906500Y-50488334D01*
X91920775Y-50307538D01*
X91985291Y-50219969D01*
X92132579Y-50193095D01*
X92202833Y-50192000D01*
X92338396Y-50200362D01*
X92398646Y-50249826D01*
X92414059Y-50376962D01*
X92414500Y-50446000D01*
X92414500Y-50700000D01*
X92160500Y-50700000D01*
X91997824Y-50693032D01*
X91925523Y-50651812D01*
X91907029Y-50545866D01*
X91906500Y-50488334D01*
X91409770Y-50488334D01*
X91405705Y-50610685D01*
X91447878Y-50680475D01*
X91571646Y-50706448D01*
X91633033Y-50711828D01*
X91791781Y-50734721D01*
X91864236Y-50794254D01*
X91891070Y-50929981D01*
X91894216Y-50965828D01*
X91899294Y-51118685D01*
X91857121Y-51188475D01*
X91733353Y-51214448D01*
X91671966Y-51219828D01*
X91513242Y-51242687D01*
X91440794Y-51302259D01*
X91413934Y-51438306D01*
X91410704Y-51475138D01*
X91391159Y-51710526D01*
X91886954Y-51729138D01*
X92382750Y-51747750D01*
X92382750Y-52255750D01*
X90922250Y-52255750D01*
X90902541Y-52017625D01*
X90881494Y-51863400D01*
X90826221Y-51796156D01*
X90696451Y-51779849D01*
X90636500Y-51779500D01*
X90476295Y-51787508D01*
X90402756Y-51835559D01*
X90375612Y-51959700D01*
X90370458Y-52017625D01*
X90350750Y-52255750D01*
X89858625Y-52274297D01*
X89508279Y-52287500D01*
X92406833Y-52287500D01*
X92922500Y-52287500D01*
X92922500Y-52803167D01*
X92684375Y-52783459D01*
X92527162Y-52760308D01*
X92455845Y-52698870D01*
X92429350Y-52558072D01*
X92426541Y-52525625D01*
X92406833Y-52287500D01*
X89508279Y-52287500D01*
X89366500Y-52292843D01*
X89366500Y-52800843D01*
X89858625Y-52782297D01*
X90350750Y-52763750D01*
X90370458Y-52525625D01*
X90391505Y-52371400D01*
X90446778Y-52304156D01*
X90576548Y-52287849D01*
X90636500Y-52287501D01*
X90796704Y-52295508D01*
X90870243Y-52343559D01*
X90897387Y-52467700D01*
X90902541Y-52525626D01*
X90922250Y-52763750D01*
X91665739Y-52781618D01*
X92409229Y-52799485D01*
X92427739Y-53289618D01*
X92446250Y-53779750D01*
X92680327Y-53799217D01*
X92833184Y-53804295D01*
X92902974Y-53762122D01*
X92928947Y-53638354D01*
X92934327Y-53576967D01*
X92954688Y-53422116D01*
X93007627Y-53353370D01*
X93132744Y-53335786D01*
X93208250Y-53335250D01*
X93462250Y-53335250D01*
X93480172Y-54085087D01*
X93498094Y-54834923D01*
X93734172Y-54815337D01*
X93970250Y-54795750D01*
X93970250Y-52319250D01*
X92954250Y-52255750D01*
X92954250Y-51239750D01*
X93169841Y-51219165D01*
X93356658Y-51231898D01*
X93458614Y-51326258D01*
X93492709Y-51519194D01*
X93493027Y-51541375D01*
X93505688Y-51654177D01*
X93566318Y-51703881D01*
X93711438Y-51715882D01*
X93744166Y-51716000D01*
X93905946Y-51708357D01*
X93980692Y-51661945D01*
X94008320Y-51541545D01*
X94014041Y-51477875D01*
X94036157Y-51321828D01*
X94092719Y-51255059D01*
X94221998Y-51239904D01*
X94256000Y-51239750D01*
X94478250Y-51239750D01*
X94541750Y-52255750D01*
X94783466Y-52275673D01*
X94940056Y-52295972D01*
X95004230Y-52347722D01*
X95010333Y-52470173D01*
X95005716Y-52529673D01*
X94982440Y-52684313D01*
X94920242Y-52754573D01*
X94778094Y-52780872D01*
X94748125Y-52783459D01*
X94510000Y-52803167D01*
X94510000Y-55835834D01*
X94748125Y-55855542D01*
X94906066Y-55879537D01*
X94978145Y-55940945D01*
X95005498Y-56077180D01*
X95006835Y-56090842D01*
X94994419Y-56276952D01*
X94900965Y-56378812D01*
X94709181Y-56413563D01*
X94680791Y-56414028D01*
X94564947Y-56425366D01*
X94519459Y-56482467D01*
X94519604Y-56622564D01*
X94522041Y-56653125D01*
X94541750Y-56891250D01*
X95494250Y-56891250D01*
X95494250Y-55875250D01*
X95018000Y-55835834D01*
X95018000Y-54319500D01*
X95526000Y-54319500D01*
X95526000Y-55123834D01*
X96542000Y-55123834D01*
X96556275Y-54943038D01*
X96620791Y-54855469D01*
X96768079Y-54828595D01*
X96838333Y-54827500D01*
X96973896Y-54835862D01*
X97034146Y-54885326D01*
X97049559Y-55012462D01*
X97050000Y-55081500D01*
X97050000Y-55156257D01*
X97568853Y-55156257D01*
X97570275Y-54962743D01*
X97653651Y-54859125D01*
X97833761Y-54827523D01*
X97840547Y-54827500D01*
X97999271Y-54844003D01*
X98077258Y-54911189D01*
X98103388Y-54986109D01*
X98123604Y-55184192D01*
X98055230Y-55294174D01*
X97889688Y-55326578D01*
X97828385Y-55323489D01*
X97663943Y-55294622D01*
X97588132Y-55228440D01*
X97568853Y-55156257D01*
X97050000Y-55156257D01*
X97050000Y-55335500D01*
X96796000Y-55335500D01*
X96633324Y-55328532D01*
X96561023Y-55287312D01*
X96542529Y-55181366D01*
X96542000Y-55123834D01*
X95526000Y-55123834D01*
X95526000Y-55327834D01*
X95764125Y-55347542D01*
X95921385Y-55370761D01*
X95992714Y-55432110D01*
X96019154Y-55572243D01*
X96021802Y-55602771D01*
X96024214Y-55631834D01*
X97050000Y-55631834D01*
X97064275Y-55451038D01*
X97128791Y-55363469D01*
X97276079Y-55336595D01*
X97346333Y-55335500D01*
X97481896Y-55343862D01*
X97542146Y-55393326D01*
X97557559Y-55520462D01*
X97558000Y-55589500D01*
X97558000Y-55843500D01*
X97304000Y-55843500D01*
X97141324Y-55836532D01*
X97069023Y-55795312D01*
X97050529Y-55689366D01*
X97050000Y-55631834D01*
X96024214Y-55631834D01*
X96041355Y-55838291D01*
X96529802Y-55856771D01*
X97018250Y-55875250D01*
X97033455Y-56058183D01*
X97568784Y-56058183D01*
X97569286Y-56053715D01*
X97599948Y-55933496D01*
X97681588Y-55877044D01*
X97827875Y-55855542D01*
X97986636Y-55830095D01*
X98054034Y-55772730D01*
X98066000Y-55686111D01*
X98087210Y-55479498D01*
X98164126Y-55372988D01*
X98316674Y-55344827D01*
X98375704Y-55348024D01*
X98605750Y-55367250D01*
X98624656Y-55801591D01*
X98627433Y-56084305D01*
X98592910Y-56264124D01*
X98501441Y-56363922D01*
X98333376Y-56406572D01*
X98097750Y-56415000D01*
X97823129Y-56398597D01*
X97654929Y-56341522D01*
X97575898Y-56231983D01*
X97568784Y-56058183D01*
X97033455Y-56058183D01*
X97037742Y-56109758D01*
X97061378Y-56265560D01*
X97124572Y-56335770D01*
X97268718Y-56361780D01*
X97291742Y-56363758D01*
X97446716Y-56387046D01*
X97517077Y-56449235D01*
X97543376Y-56591383D01*
X97545943Y-56621124D01*
X97564025Y-56744776D01*
X97607507Y-56830121D01*
X97696219Y-56883294D01*
X97849991Y-56910433D01*
X98088652Y-56917675D01*
X98432033Y-56911158D01*
G37*
X98432033Y-56911158D02*
X98478750Y-56909815D01*
X99113750Y-56891250D01*
X99113750Y-55367250D01*
X98637500Y-55327834D01*
X98637500Y-54327167D01*
X98875625Y-54307459D01*
X99113750Y-54287750D01*
X99113750Y-53335250D01*
X98879242Y-53315758D01*
X98723440Y-53292122D01*
X98653230Y-53228928D01*
X98627220Y-53084782D01*
X98625242Y-53061758D01*
X98601954Y-52906784D01*
X98539765Y-52836423D01*
X98397617Y-52810124D01*
X98367876Y-52807557D01*
X98199421Y-52776175D01*
X98115877Y-52701996D01*
X98091153Y-52633074D01*
X98066737Y-52477423D01*
X98099924Y-52376124D01*
X98209497Y-52316404D01*
X98414240Y-52285486D01*
X98618586Y-52274351D01*
X99113750Y-52255750D01*
X99133669Y-52014081D01*
X99179257Y-51818090D01*
X99284778Y-51729161D01*
X99466059Y-51735257D01*
X99492230Y-51741444D01*
X99571237Y-51769926D01*
X99619435Y-51825405D01*
X99646188Y-51936368D01*
X99660864Y-52131304D01*
X99666713Y-52272167D01*
X99685250Y-52763750D01*
X99907500Y-52763750D01*
X100053960Y-52753893D01*
X100120803Y-52699212D01*
X100146301Y-52562042D01*
X100149458Y-52525625D01*
X100169166Y-52287500D01*
X101169833Y-52287500D01*
X101189541Y-52525625D01*
X101211657Y-52681673D01*
X101268219Y-52748442D01*
X101397498Y-52763597D01*
X101431500Y-52763750D01*
X101578871Y-52753592D01*
X101645547Y-52697804D01*
X101670736Y-52558416D01*
X101673216Y-52529673D01*
X101678294Y-52376816D01*
X101636121Y-52307026D01*
X101512353Y-52281053D01*
X101450966Y-52275673D01*
X101292291Y-52252884D01*
X101219855Y-52193227D01*
X101192942Y-52056508D01*
X101189541Y-52017625D01*
X101165389Y-51860150D01*
X101108891Y-51792743D01*
X100999041Y-51778528D01*
X100798170Y-51748895D01*
X100697140Y-51651692D01*
X100679369Y-51470085D01*
X100680664Y-51455342D01*
X100706795Y-51311449D01*
X100775439Y-51246047D01*
X100928084Y-51220903D01*
X100935757Y-51220258D01*
X101091559Y-51196622D01*
X101161769Y-51133428D01*
X101187779Y-50989282D01*
X101189757Y-50966258D01*
X101209250Y-50731750D01*
X101697697Y-50713271D01*
X102186144Y-50694791D01*
X102205697Y-50459271D01*
X102225250Y-50223750D01*
X103241250Y-50160250D01*
X103241250Y-49207750D01*
X103019554Y-49186710D01*
X102857454Y-49152929D01*
X102755921Y-49098363D01*
X102750652Y-49091460D01*
X102731126Y-49000324D01*
X102715341Y-48812126D01*
X102705209Y-48556789D01*
X102702472Y-48338459D01*
X102701500Y-47659667D01*
X102463375Y-47639959D01*
X102225250Y-47620250D01*
X102225250Y-46096250D01*
X103241250Y-46032750D01*
X103241250Y-45810500D01*
X103231645Y-45664822D01*
X103177900Y-45597839D01*
X103042613Y-45572075D01*
X102999580Y-45568331D01*
X102803523Y-45522681D01*
X102714551Y-45417108D01*
X102720721Y-45235969D01*
X102726653Y-45210927D01*
X102780799Y-45101952D01*
X102897187Y-45050067D01*
X103003376Y-45036444D01*
X103159317Y-45014307D01*
X103225997Y-44957633D01*
X103241100Y-44828096D01*
X103241250Y-44794500D01*
X103231091Y-44647129D01*
X103175303Y-44580453D01*
X103035915Y-44555264D01*
X103007172Y-44552784D01*
X102854315Y-44547706D01*
X102784525Y-44589879D01*
X102758552Y-44713647D01*
X102753172Y-44775034D01*
X102730917Y-44931254D01*
X102672423Y-45006684D01*
X102538232Y-45040716D01*
X102479250Y-45048500D01*
X102315593Y-45077883D01*
X102239125Y-45137190D01*
X102210388Y-45265815D01*
X102205327Y-45321967D01*
X102185028Y-45478557D01*
X102133278Y-45542731D01*
X102010827Y-45548834D01*
X101951327Y-45544217D01*
X101717250Y-45524750D01*
X101717250Y-44572250D01*
X101955375Y-44552542D01*
X102109600Y-44531495D01*
X102176844Y-44476222D01*
X102193151Y-44346452D01*
X102193500Y-44286500D01*
X102185492Y-44126296D01*
X102137441Y-44052757D01*
X102013300Y-44025613D01*
X101955375Y-44020459D01*
X101798162Y-43997308D01*
X101726845Y-43935870D01*
X101700350Y-43795072D01*
X101697541Y-43762625D01*
X101678253Y-43529570D01*
X101193375Y-43511297D01*
X100701250Y-43492750D01*
X100682703Y-43000625D01*
X100671665Y-42753585D01*
X100654831Y-42607103D01*
X100622016Y-42534817D01*
X100563034Y-42510361D01*
X100492203Y-42507528D01*
X100299185Y-42480422D01*
X100195055Y-42383983D01*
X100150875Y-42191333D01*
X100150790Y-42190446D01*
X100129750Y-41968750D01*
X97589750Y-41968750D01*
X97526250Y-42984750D01*
X97288125Y-43004459D01*
X97134734Y-43025184D01*
X97067242Y-43079529D01*
X97050429Y-43207409D01*
X97050000Y-43274334D01*
X97050000Y-43492750D01*
X97589750Y-43492750D01*
X97589750Y-43270500D01*
X97599607Y-43124040D01*
X97654288Y-43057197D01*
X97791458Y-43031699D01*
X97827875Y-43028542D01*
X97984166Y-43005940D01*
X98051003Y-42949794D01*
X98065917Y-42824574D01*
X98066000Y-42803117D01*
X98088231Y-42636011D01*
X98141737Y-42521667D01*
X98142200Y-42521200D01*
X98285703Y-42453078D01*
X98454594Y-42463227D01*
X98569256Y-42534535D01*
X98609774Y-42654195D01*
X98627257Y-42871822D01*
X98624656Y-43058410D01*
X98615258Y-43274334D01*
X99145500Y-43274334D01*
X99153143Y-43112554D01*
X99199555Y-43037808D01*
X99319955Y-43010180D01*
X99383625Y-43004459D01*
X99542480Y-42979507D01*
X99614794Y-42918278D01*
X99640355Y-42794250D01*
X99662476Y-42630286D01*
X99685987Y-42524375D01*
X99764365Y-42463756D01*
X99905505Y-42448211D01*
X100052095Y-42481436D01*
X100084305Y-42498693D01*
X100121653Y-42560840D01*
X100143785Y-42700559D01*
X100152036Y-42934195D01*
X100147805Y-43275596D01*
X100129750Y-44000750D01*
X99891625Y-44020459D01*
X99746138Y-44032500D01*
X101169833Y-44032500D01*
X101685500Y-44032500D01*
X101685500Y-44548167D01*
X101447375Y-44528459D01*
X101290162Y-44505308D01*
X101218845Y-44443870D01*
X101192350Y-44303072D01*
X101189541Y-44270625D01*
X101169833Y-44032500D01*
X99746138Y-44032500D01*
X99653500Y-44040167D01*
X99653500Y-43524500D01*
X99399500Y-43524500D01*
X99236918Y-43518322D01*
X99164675Y-43475714D01*
X99146110Y-43360570D01*
X99145500Y-43274334D01*
X98615258Y-43274334D01*
X98605750Y-43492750D01*
X97589750Y-43492750D01*
X97050000Y-43492750D01*
X97050000Y-43516834D01*
X98637500Y-43516834D01*
X98875625Y-43536542D01*
X99031672Y-43558658D01*
X99098441Y-43615220D01*
X99113596Y-43744499D01*
X99113750Y-43778500D01*
X99103892Y-43924961D01*
X99049211Y-43991804D01*
X98912041Y-44017302D01*
X98875625Y-44020459D01*
X98637500Y-44040167D01*
X98637500Y-43516834D01*
X97050000Y-43516834D01*
X97050000Y-43524500D01*
X96034000Y-43524500D01*
X96034000Y-44203783D01*
X97558598Y-44203783D01*
X97596067Y-44106046D01*
X97702251Y-44055864D01*
X97898145Y-44041056D01*
X98112663Y-44045687D01*
X98605750Y-44064250D01*
X98605750Y-45016750D01*
X98390158Y-45037336D01*
X98202635Y-45024282D01*
X98100582Y-44929021D01*
X98067167Y-44734970D01*
X98066972Y-44718959D01*
X98050819Y-44604774D01*
X97979518Y-44550756D01*
X97827875Y-44528459D01*
X97663618Y-44499519D01*
X97587963Y-44433072D01*
X97568853Y-44361257D01*
X97558598Y-44203783D01*
X96034000Y-44203783D01*
X96034000Y-44540500D01*
X95018000Y-44540500D01*
X95018000Y-44290334D01*
X95025643Y-44128554D01*
X95072055Y-44053808D01*
X95192455Y-44026180D01*
X95256125Y-44020459D01*
X95413337Y-43997308D01*
X95484654Y-43935870D01*
X95511149Y-43795072D01*
X95513958Y-43762625D01*
X95533666Y-43524500D01*
X94514030Y-43524500D01*
X94478250Y-45016750D01*
X94244172Y-45036217D01*
X94091315Y-45041295D01*
X94021525Y-44999122D01*
X93995552Y-44875354D01*
X93990172Y-44813967D01*
X93967303Y-44655236D01*
X93907742Y-44582786D01*
X93771790Y-44555933D01*
X93735246Y-44552728D01*
X93543632Y-44493397D01*
X93440768Y-44377386D01*
X93426654Y-44238861D01*
X93501290Y-44111984D01*
X93664676Y-44030920D01*
X93735246Y-44020273D01*
X93890474Y-43997026D01*
X93960975Y-43935005D01*
X93987319Y-43793172D01*
X93989958Y-43762625D01*
X94010519Y-43609668D01*
X94064388Y-43542051D01*
X94191298Y-43524976D01*
X94261848Y-43524500D01*
X94510000Y-43524500D01*
X94510000Y-43274334D01*
X94502356Y-43112554D01*
X94455944Y-43037808D01*
X94335544Y-43010180D01*
X94271875Y-43004459D01*
X94119303Y-42984044D01*
X94051576Y-42930597D01*
X94034268Y-42804548D01*
X94033750Y-42730750D01*
X94033750Y-42476750D01*
X94379606Y-42457124D01*
X94669555Y-42449236D01*
X94857101Y-42471974D01*
X94965188Y-42535559D01*
X95016764Y-42650212D01*
X95030056Y-42746877D01*
X95049750Y-42984750D01*
X96510250Y-42984750D01*
X96510250Y-41968750D01*
X94033750Y-41968750D01*
X94012709Y-42190446D01*
X93984957Y-42347308D01*
X93920635Y-42441953D01*
X93793171Y-42489637D01*
X93575995Y-42505620D01*
X93462250Y-42506556D01*
X93203242Y-42498743D01*
X93044226Y-42465131D01*
X92958630Y-42390462D01*
X92919883Y-42259477D01*
X92911790Y-42190446D01*
X92882945Y-42038098D01*
X92811221Y-41970728D01*
X92697967Y-41949866D01*
X92547396Y-41949972D01*
X92459842Y-41976324D01*
X92428447Y-42065947D01*
X92414538Y-42220851D01*
X92414500Y-42229501D01*
X92425501Y-42366788D01*
X92483541Y-42429918D01*
X92626173Y-42454773D01*
X92652625Y-42457042D01*
X92805196Y-42477457D01*
X92872923Y-42530904D01*
X92890231Y-42656953D01*
X92890750Y-42730750D01*
X92883500Y-42894075D01*
X92838551Y-42970024D01*
X92721102Y-42998189D01*
X92650025Y-43004614D01*
X92409301Y-43024477D01*
X92420425Y-43318416D01*
X92927505Y-43318416D01*
X92943937Y-43146206D01*
X92995767Y-43055755D01*
X93094361Y-43024757D01*
X93223614Y-43028512D01*
X93462250Y-43048250D01*
X93481876Y-43394107D01*
X93490204Y-43689308D01*
X93468774Y-43879060D01*
X93408325Y-43983250D01*
X93299595Y-44021763D01*
X93190235Y-44020331D01*
X92954250Y-44000750D01*
X92935106Y-43594689D01*
X92927505Y-43318416D01*
X92420425Y-43318416D01*
X92427775Y-43512614D01*
X92446250Y-44000750D01*
X92684375Y-44020459D01*
X92838600Y-44041506D01*
X92905844Y-44096779D01*
X92922151Y-44226549D01*
X92922500Y-44286500D01*
X92914492Y-44446705D01*
X92866441Y-44520244D01*
X92742300Y-44547388D01*
X92684375Y-44552542D01*
X92446250Y-44572250D01*
X92428382Y-45315740D01*
X92421695Y-45594015D01*
X92931462Y-45594015D01*
X92933617Y-45352798D01*
X92941870Y-45185700D01*
X92950939Y-45129480D01*
X93004403Y-45084037D01*
X93134427Y-45061166D01*
X93361791Y-45058191D01*
X93477163Y-45061687D01*
X93970250Y-45080250D01*
X93970250Y-46540750D01*
X92954250Y-46540750D01*
X92936025Y-45878293D01*
X92931462Y-45594015D01*
X92421695Y-45594015D01*
X92410515Y-46059230D01*
X91920382Y-46077740D01*
X91430250Y-46096250D01*
X91410757Y-46330758D01*
X91387121Y-46486560D01*
X91323927Y-46556770D01*
X91179781Y-46582780D01*
X91156757Y-46584758D01*
X91002697Y-46607667D01*
X90932175Y-46668763D01*
X90905557Y-46808730D01*
X90902330Y-46845920D01*
X90897282Y-46867624D01*
X91398500Y-46867624D01*
X91414951Y-46683160D01*
X91482283Y-46596575D01*
X91627458Y-46581021D01*
X91681967Y-46585366D01*
X91810662Y-46612399D01*
X91870499Y-46686343D01*
X91894488Y-46842886D01*
X91892744Y-46867624D01*
X92414500Y-46867624D01*
X92430951Y-46683160D01*
X92498283Y-46596575D01*
X92643458Y-46581021D01*
X92697967Y-46585366D01*
X92826662Y-46612399D01*
X92886499Y-46686343D01*
X92910488Y-46842886D01*
X92896896Y-47035642D01*
X92808517Y-47128954D01*
X92634828Y-47131401D01*
X92573108Y-47117889D01*
X92460399Y-47064094D01*
X92418098Y-46951955D01*
X92414500Y-46867624D01*
X91892744Y-46867624D01*
X91880896Y-47035642D01*
X91792517Y-47128954D01*
X91618828Y-47131401D01*
X91557108Y-47117889D01*
X91444399Y-47064094D01*
X91402098Y-46951955D01*
X91398500Y-46867624D01*
X90897282Y-46867624D01*
X90856742Y-47041911D01*
X90751221Y-47130840D01*
X90569940Y-47124744D01*
X90543769Y-47118557D01*
X90464762Y-47090075D01*
X90416564Y-47034596D01*
X90389811Y-46923633D01*
X90375135Y-46728697D01*
X90369286Y-46587834D01*
X90350750Y-46096250D01*
X88858500Y-46060470D01*
X88858500Y-46567158D01*
X89842750Y-46604250D01*
X89863335Y-46819842D01*
X89850919Y-47005952D01*
X89757465Y-47107812D01*
X89565681Y-47142563D01*
X89537291Y-47143028D01*
X89421447Y-47154366D01*
X89375959Y-47211467D01*
X89376025Y-47275693D01*
X89881855Y-47275693D01*
X89899521Y-47170386D01*
X89984848Y-47101482D01*
X90131780Y-47083802D01*
X90283711Y-47122147D01*
X90307835Y-47135757D01*
X90364283Y-47238387D01*
X90371335Y-47404659D01*
X90345633Y-47549745D01*
X90278392Y-47608978D01*
X90128500Y-47620250D01*
X89976377Y-47607412D01*
X89908380Y-47548173D01*
X89885639Y-47440261D01*
X89881855Y-47275693D01*
X89376025Y-47275693D01*
X89376104Y-47351564D01*
X89378541Y-47382125D01*
X89401337Y-47538464D01*
X89461750Y-47609938D01*
X89600498Y-47636740D01*
X89639966Y-47640173D01*
X89796556Y-47660472D01*
X89860730Y-47712222D01*
X89862180Y-47741316D01*
X90389705Y-47741316D01*
X90431878Y-47671526D01*
X90555646Y-47645553D01*
X90617033Y-47640173D01*
X90777309Y-47615609D01*
X90850730Y-47556083D01*
X90877355Y-47429750D01*
X90906741Y-47225547D01*
X90958899Y-47120776D01*
X91056914Y-47087869D01*
X91159938Y-47092320D01*
X91294915Y-47117784D01*
X91361671Y-47185637D01*
X91394499Y-47335257D01*
X91398500Y-47366250D01*
X91405395Y-47404659D01*
X91917664Y-47404659D01*
X91933449Y-47210748D01*
X92032931Y-47110638D01*
X92224000Y-47095801D01*
X92326907Y-47122206D01*
X92372370Y-47197986D01*
X92382746Y-47361228D01*
X92382750Y-47366250D01*
X92376021Y-47528878D01*
X92334477Y-47601150D01*
X92226080Y-47619683D01*
X92160500Y-47620250D01*
X92009836Y-47608757D01*
X91943069Y-47549016D01*
X91917664Y-47404659D01*
X91405395Y-47404659D01*
X91427882Y-47529907D01*
X91487189Y-47606375D01*
X91615814Y-47635112D01*
X91671966Y-47640173D01*
X91828556Y-47660472D01*
X91892730Y-47712222D01*
X91898833Y-47834673D01*
X91894216Y-47894173D01*
X91870566Y-48049701D01*
X91807289Y-48119799D01*
X91662995Y-48145789D01*
X91640242Y-48147743D01*
X91484440Y-48171379D01*
X91414230Y-48234573D01*
X91388220Y-48378719D01*
X91386242Y-48401743D01*
X91363803Y-48556251D01*
X91305601Y-48621741D01*
X91172527Y-48636150D01*
X91144500Y-48636250D01*
X90997226Y-48626125D01*
X90930532Y-48570456D01*
X90905310Y-48431308D01*
X90902757Y-48401743D01*
X90879121Y-48245941D01*
X90815927Y-48175731D01*
X90671781Y-48149721D01*
X90648757Y-48147743D01*
X90492946Y-48124096D01*
X90422734Y-48060917D01*
X90396734Y-47916884D01*
X90394783Y-47894173D01*
X90389705Y-47741316D01*
X89862180Y-47741316D01*
X89866833Y-47834673D01*
X89862216Y-47894173D01*
X89838566Y-48049701D01*
X89775289Y-48119799D01*
X89630995Y-48145789D01*
X89608242Y-48147743D01*
X89452440Y-48171379D01*
X89382230Y-48234573D01*
X89356220Y-48378719D01*
X89354242Y-48401743D01*
X89334750Y-48636250D01*
X88318750Y-48699750D01*
X88318750Y-49387175D01*
X88811295Y-49387175D01*
X88825921Y-49305609D01*
X88863019Y-49240974D01*
X88942473Y-49200718D01*
X89092058Y-49177329D01*
X89339552Y-49163291D01*
X89354076Y-49162734D01*
X89842750Y-49144250D01*
X89882166Y-48668000D01*
X90890500Y-48668000D01*
X91390833Y-48668000D01*
X91906500Y-48668000D01*
X91906500Y-48160000D01*
X92160500Y-48160000D01*
X92323081Y-48153822D01*
X92395324Y-48111214D01*
X92413889Y-47996070D01*
X92414500Y-47909834D01*
X92422143Y-47748054D01*
X92468555Y-47673308D01*
X92588955Y-47645680D01*
X92652625Y-47639959D01*
X92810404Y-47616155D01*
X92882442Y-47554612D01*
X92909997Y-47416902D01*
X92911790Y-47398555D01*
X92945571Y-47236455D01*
X93000137Y-47134922D01*
X93007040Y-47129653D01*
X93104064Y-47106152D01*
X93289120Y-47088932D01*
X93523273Y-47081527D01*
X93537791Y-47081473D01*
X93994333Y-47080500D01*
X94014041Y-46842375D01*
X94037192Y-46685163D01*
X94098630Y-46613846D01*
X94239428Y-46587351D01*
X94271875Y-46584542D01*
X94510000Y-46564834D01*
X94510000Y-45556500D01*
X95018000Y-45556500D01*
X95018000Y-45040834D01*
X95256125Y-45060542D01*
X95413337Y-45083693D01*
X95484654Y-45145131D01*
X95511149Y-45285929D01*
X95513958Y-45318375D01*
X95534683Y-45471766D01*
X95589028Y-45539258D01*
X95716908Y-45556071D01*
X95783833Y-45556500D01*
X96034000Y-45556500D01*
X96034000Y-45090834D01*
X96039400Y-44858550D01*
X96053639Y-44678584D01*
X96073776Y-44586237D01*
X96076333Y-44582834D01*
X96153257Y-44565953D01*
X96329903Y-44552268D01*
X96579001Y-44543296D01*
X96838333Y-44540500D01*
X97558000Y-44540500D01*
X97558000Y-44790667D01*
X97550356Y-44952447D01*
X97503944Y-45027193D01*
X97383544Y-45054821D01*
X97319875Y-45060542D01*
X97081750Y-45080250D01*
X97070538Y-45377257D01*
X97568853Y-45377257D01*
X97570275Y-45183743D01*
X97653651Y-45080125D01*
X97833761Y-45048523D01*
X97840547Y-45048500D01*
X97999271Y-45065003D01*
X98077258Y-45132189D01*
X98103388Y-45207109D01*
X98123604Y-45405192D01*
X98055230Y-45515174D01*
X97889688Y-45547578D01*
X97828385Y-45544489D01*
X97663943Y-45515622D01*
X97588132Y-45449440D01*
X97568853Y-45377257D01*
X97070538Y-45377257D01*
X97063232Y-45570776D01*
X97044715Y-46061302D01*
X96047232Y-46078776D01*
X95049750Y-46096250D01*
X95018759Y-46840051D01*
X97567448Y-46840051D01*
X97569164Y-46819842D01*
X97594888Y-46676791D01*
X97662383Y-46611256D01*
X97812785Y-46585820D01*
X97827875Y-46584542D01*
X98066000Y-46564834D01*
X98066000Y-46161111D01*
X98071810Y-45876866D01*
X98096848Y-45697573D01*
X98152519Y-45601423D01*
X98250231Y-45566609D01*
X98375704Y-45569024D01*
X98605750Y-45588250D01*
X98623747Y-46064500D01*
X99145500Y-46064500D01*
X99145500Y-44540500D01*
X100669500Y-44540500D01*
X100669500Y-46064500D01*
X99145500Y-46064500D01*
X98623747Y-46064500D01*
X98624248Y-46077752D01*
X98642747Y-46567253D01*
X99132248Y-46585752D01*
X99621750Y-46604250D01*
X99640005Y-46896341D01*
X101182919Y-46896341D01*
X101197030Y-46715448D01*
X101241862Y-46617777D01*
X101326692Y-46581729D01*
X101446938Y-46584320D01*
X101653750Y-46604250D01*
X101653750Y-47620250D01*
X101209250Y-47620250D01*
X101190255Y-47182051D01*
X101182919Y-46896341D01*
X99640005Y-46896341D01*
X99685250Y-47620250D01*
X99919757Y-47639743D01*
X100000551Y-47652000D01*
X100661833Y-47652000D01*
X101185166Y-47652000D01*
X101165458Y-47890125D01*
X101143342Y-48046173D01*
X101086780Y-48112942D01*
X100957501Y-48128097D01*
X100923500Y-48128250D01*
X100777039Y-48118393D01*
X100710196Y-48063712D01*
X100684698Y-47926542D01*
X100681541Y-47890125D01*
X100661833Y-47652000D01*
X100000551Y-47652000D01*
X100075559Y-47663379D01*
X100145769Y-47726573D01*
X100171779Y-47870719D01*
X100173757Y-47893743D01*
X100196661Y-48047792D01*
X100257744Y-48118316D01*
X100397684Y-48144938D01*
X100434966Y-48148173D01*
X100591556Y-48168472D01*
X100655730Y-48220222D01*
X100661833Y-48342673D01*
X100657216Y-48402173D01*
X100637750Y-48636250D01*
X99895576Y-48654107D01*
X99153402Y-48671963D01*
X99133576Y-48431857D01*
X99113750Y-48191750D01*
X98639353Y-48172811D01*
X98382097Y-48152760D01*
X98198296Y-48118674D01*
X98116450Y-48077561D01*
X98091581Y-47978346D01*
X98073748Y-47793105D01*
X98066972Y-47572625D01*
X98064305Y-47345647D01*
X98049893Y-47217385D01*
X98012175Y-47159555D01*
X97939591Y-47143875D01*
X97891375Y-47143028D01*
X97688986Y-47114073D01*
X97586660Y-47018747D01*
X97567448Y-46840051D01*
X95018759Y-46840051D01*
X94986250Y-47620250D01*
X94240125Y-47638141D01*
X93494000Y-47656031D01*
X93493027Y-47828641D01*
X93466001Y-48022014D01*
X93369768Y-48126311D01*
X93177410Y-48170570D01*
X93175945Y-48170710D01*
X93028187Y-48196595D01*
X92961232Y-48263792D01*
X92935802Y-48413918D01*
X92934757Y-48426258D01*
X92911121Y-48582060D01*
X92847927Y-48652270D01*
X92703781Y-48678280D01*
X92680757Y-48680258D01*
X92446250Y-48699750D01*
X92427637Y-49195546D01*
X92409025Y-49691341D01*
X92173637Y-49671796D01*
X92017475Y-49648257D01*
X91946992Y-49585530D01*
X91920884Y-49442442D01*
X91918757Y-49417743D01*
X91895121Y-49261941D01*
X91831927Y-49191731D01*
X91687781Y-49165721D01*
X91664757Y-49163743D01*
X91509844Y-49140481D01*
X91439472Y-49078365D01*
X91413152Y-48936364D01*
X91410541Y-48906125D01*
X91390833Y-48668000D01*
X90890500Y-48668000D01*
X90890500Y-49684000D01*
X90382500Y-49684000D01*
X90382500Y-49938000D01*
X90376321Y-50100582D01*
X90333713Y-50172825D01*
X90218569Y-50191390D01*
X90132333Y-50192000D01*
X89970553Y-50184357D01*
X89895807Y-50137945D01*
X89868179Y-50017545D01*
X89862458Y-49953875D01*
X89842750Y-49715750D01*
X89354076Y-49697267D01*
X89101291Y-49683484D01*
X88947721Y-49660703D01*
X88865591Y-49621409D01*
X88827123Y-49558089D01*
X88825921Y-49554392D01*
X88811295Y-49387175D01*
X88318750Y-49387175D01*
X88318750Y-50160250D01*
X89842750Y-50223750D01*
X89882166Y-50700000D01*
X90885157Y-50700000D01*
X90903703Y-50207875D01*
X90922250Y-49715750D01*
X91906500Y-49678658D01*
X91906500Y-49931496D01*
X91906205Y-49938000D01*
X92954250Y-49938000D01*
X92954250Y-49715750D01*
X94478250Y-49652250D01*
X94478250Y-49207750D01*
X92954250Y-49144250D01*
X92954250Y-48699750D01*
X93970250Y-48636250D01*
X93989958Y-48398125D01*
X94010683Y-48244735D01*
X94065028Y-48177243D01*
X94192908Y-48160430D01*
X94259833Y-48160000D01*
X94419139Y-48166070D01*
X94490529Y-48208537D01*
X94509307Y-48323791D01*
X94510000Y-48417834D01*
X94510000Y-48675667D01*
X94748125Y-48655959D01*
X94986250Y-48636250D01*
X95023342Y-47652000D01*
X95530030Y-47652000D01*
X95494250Y-49144250D01*
X95256125Y-49163959D01*
X95101899Y-49185006D01*
X95034655Y-49240279D01*
X95018348Y-49370049D01*
X95018000Y-49430000D01*
X95018191Y-49433834D01*
X95526000Y-49433834D01*
X95533643Y-49272054D01*
X95580055Y-49197308D01*
X95700455Y-49169680D01*
X95764125Y-49163959D01*
X96002250Y-49144250D01*
X96020117Y-48400761D01*
X96037984Y-47657271D01*
X96528117Y-47638761D01*
X97018250Y-47620250D01*
X97039290Y-47398555D01*
X97085225Y-47201639D01*
X97188544Y-47107187D01*
X97367500Y-47095801D01*
X97434531Y-47106719D01*
X97480446Y-47137429D01*
X97510530Y-47209531D01*
X97530071Y-47344627D01*
X97544353Y-47564317D01*
X97558000Y-47874250D01*
X97589750Y-48636250D01*
X98097750Y-48699750D01*
X98097750Y-49652250D01*
X97843750Y-49652250D01*
X97680369Y-49644877D01*
X97604405Y-49600157D01*
X97576321Y-49484189D01*
X97570257Y-49417743D01*
X97546621Y-49261941D01*
X97483427Y-49191731D01*
X97339281Y-49165721D01*
X97316257Y-49163743D01*
X97162208Y-49140839D01*
X97091684Y-49079756D01*
X97065062Y-48939816D01*
X97061827Y-48902534D01*
X97041528Y-48745944D01*
X96989778Y-48681770D01*
X96867327Y-48675667D01*
X96807827Y-48680284D01*
X96653503Y-48702763D01*
X96588165Y-48761166D01*
X96573845Y-48894701D01*
X96573750Y-48922000D01*
X96583607Y-49068461D01*
X96638288Y-49135304D01*
X96775458Y-49160802D01*
X96811875Y-49163959D01*
X96966100Y-49185006D01*
X97033344Y-49240279D01*
X97049651Y-49370049D01*
X97050000Y-49430000D01*
X97041992Y-49590205D01*
X96993941Y-49663744D01*
X96869800Y-49690888D01*
X96811875Y-49696042D01*
X96654662Y-49719193D01*
X96583345Y-49780631D01*
X96556850Y-49921429D01*
X96554041Y-49953875D01*
X96533316Y-50107266D01*
X96478971Y-50174758D01*
X96351091Y-50191571D01*
X96284166Y-50192000D01*
X96124039Y-50185727D01*
X96052886Y-50142467D01*
X96034601Y-50025558D01*
X96034000Y-49938000D01*
X96034000Y-49684000D01*
X95780000Y-49684000D01*
X95617418Y-49677822D01*
X95545175Y-49635214D01*
X95526610Y-49520070D01*
X95526000Y-49433834D01*
X95018191Y-49433834D01*
X95026007Y-49590205D01*
X95074058Y-49663744D01*
X95198199Y-49690888D01*
X95256125Y-49696042D01*
X95494250Y-49715750D01*
X95512748Y-50205252D01*
X95531247Y-50694753D01*
X96020748Y-50713252D01*
X96510250Y-50731750D01*
X96529742Y-50966258D01*
X96553378Y-51122060D01*
X96616572Y-51192270D01*
X96659544Y-51200024D01*
X97044801Y-51200024D01*
X97063275Y-50711887D01*
X97081750Y-50223750D01*
X97552404Y-50204886D01*
X97825277Y-50201498D01*
X97995681Y-50226799D01*
X98087208Y-50294071D01*
X98123453Y-50416594D01*
X98128527Y-50529209D01*
X98139865Y-50645053D01*
X98196966Y-50690541D01*
X98337063Y-50690396D01*
X98367625Y-50687959D01*
X98523672Y-50665843D01*
X98590441Y-50609281D01*
X98605596Y-50480002D01*
X98605750Y-50446000D01*
X98596145Y-50300322D01*
X98542400Y-50233339D01*
X98407113Y-50207575D01*
X98364080Y-50203831D01*
X98168089Y-50158243D01*
X98079160Y-50052722D01*
X98085256Y-49871441D01*
X98091443Y-49845270D01*
X98119925Y-49766263D01*
X98175404Y-49718065D01*
X98286367Y-49691312D01*
X98481303Y-49676636D01*
X98622166Y-49670787D01*
X99113750Y-49652250D01*
X99133672Y-49410534D01*
X99153971Y-49253944D01*
X99205721Y-49189770D01*
X99328172Y-49183667D01*
X99387672Y-49188284D01*
X99621750Y-49207750D01*
X99658842Y-50192000D01*
X100161500Y-50192000D01*
X100161500Y-49176000D01*
X101177500Y-49176000D01*
X101177500Y-48668000D01*
X101685500Y-48668000D01*
X101685500Y-48160000D01*
X102193500Y-48160000D01*
X102193500Y-49168334D01*
X101717250Y-49207750D01*
X101698770Y-49696198D01*
X101680290Y-50184645D01*
X101444770Y-50204198D01*
X101288553Y-50227721D01*
X101218029Y-50290379D01*
X101191906Y-50433309D01*
X101189757Y-50458258D01*
X101166121Y-50614060D01*
X101102927Y-50684270D01*
X100958781Y-50710280D01*
X100935757Y-50712258D01*
X100780844Y-50735520D01*
X100710472Y-50797636D01*
X100684152Y-50939637D01*
X100681541Y-50969875D01*
X100660494Y-51124101D01*
X100605221Y-51191345D01*
X100475451Y-51207652D01*
X100415500Y-51208000D01*
X100255295Y-51199993D01*
X100181756Y-51151942D01*
X100154612Y-51027801D01*
X100149458Y-50969875D01*
X100129750Y-50731750D01*
X99145500Y-50694658D01*
X99145500Y-50947496D01*
X99138097Y-51110369D01*
X99092780Y-51185957D01*
X98974887Y-51213934D01*
X98907375Y-51220042D01*
X98749595Y-51243846D01*
X98677557Y-51305389D01*
X98650002Y-51443099D01*
X98648209Y-51461446D01*
X98640269Y-51506327D01*
X99653500Y-51506327D01*
X99669585Y-51320607D01*
X99735619Y-51232878D01*
X99878272Y-51216286D01*
X99936967Y-51220866D01*
X100066232Y-51248217D01*
X100125997Y-51323058D01*
X100149330Y-51475736D01*
X100151087Y-51635700D01*
X100105681Y-51714702D01*
X100006597Y-51752459D01*
X99807483Y-51770719D01*
X99693288Y-51697748D01*
X99653747Y-51526390D01*
X99653500Y-51506327D01*
X98640269Y-51506327D01*
X98620457Y-51618308D01*
X98556135Y-51712953D01*
X98428671Y-51760637D01*
X98211495Y-51776620D01*
X98097750Y-51777556D01*
X97838742Y-51769743D01*
X97679726Y-51736131D01*
X97594130Y-51661462D01*
X97555383Y-51530477D01*
X97547290Y-51461446D01*
X97522085Y-51315153D01*
X97456805Y-51247957D01*
X97310447Y-51222021D01*
X97285525Y-51219887D01*
X97044801Y-51200024D01*
X96659544Y-51200024D01*
X96760718Y-51218280D01*
X96783742Y-51220258D01*
X97018250Y-51239750D01*
X97035697Y-52271625D01*
X97047472Y-52968051D01*
X97566282Y-52968051D01*
X97582735Y-52886132D01*
X97666691Y-52820375D01*
X97815681Y-52794892D01*
X97974464Y-52809179D01*
X98087797Y-52862737D01*
X98106591Y-52890892D01*
X98119962Y-53023286D01*
X98102458Y-53148598D01*
X98058930Y-53255315D01*
X97973493Y-53294726D01*
X97825735Y-53291331D01*
X97662254Y-53262078D01*
X97587252Y-53194502D01*
X97568853Y-53124257D01*
X97566282Y-52968051D01*
X97047472Y-52968051D01*
X97053145Y-53303500D01*
X96542000Y-53303500D01*
X96542000Y-53608257D01*
X97055362Y-53608257D01*
X97072401Y-53437451D01*
X97124831Y-53345582D01*
X97223763Y-53308961D01*
X97333757Y-53303500D01*
X97558000Y-53303500D01*
X97558000Y-53456971D01*
X98071873Y-53456971D01*
X98138473Y-53345867D01*
X98301615Y-53312365D01*
X98367114Y-53315512D01*
X98523378Y-53337583D01*
X98590327Y-53393920D01*
X98605588Y-53522678D01*
X98605750Y-53557500D01*
X98595735Y-53704440D01*
X98540474Y-53771196D01*
X98402140Y-53796531D01*
X98369764Y-53799331D01*
X98209800Y-53801088D01*
X98130798Y-53755682D01*
X98093041Y-53656598D01*
X98071873Y-53456971D01*
X97558000Y-53456971D01*
X97558000Y-54327167D01*
X97319875Y-54307459D01*
X97081750Y-54287750D01*
X97062606Y-53881689D01*
X97055362Y-53608257D01*
X96542000Y-53608257D01*
X96542000Y-54827500D01*
X96034000Y-54827500D01*
X96034000Y-54319500D01*
X95780000Y-54319500D01*
X95617418Y-54313322D01*
X95545175Y-54270714D01*
X95526610Y-54155570D01*
X95526000Y-54069334D01*
X95533643Y-53907554D01*
X95580055Y-53832808D01*
X95700455Y-53805180D01*
X95764125Y-53799459D01*
X95921337Y-53776308D01*
X95992654Y-53714870D01*
X96019149Y-53574072D01*
X96021958Y-53541625D01*
X96041666Y-53303501D01*
X95787666Y-53303500D01*
X95624319Y-53310801D01*
X95548364Y-53355653D01*
X95520233Y-53472480D01*
X95513958Y-53541625D01*
X95490807Y-53698838D01*
X95429369Y-53770155D01*
X95288571Y-53796650D01*
X95256125Y-53799459D01*
X95018000Y-53819167D01*
X95018000Y-52803167D01*
X95256125Y-52783459D01*
X95413337Y-52760308D01*
X95484654Y-52698870D01*
X95511149Y-52558072D01*
X95513958Y-52525625D01*
X95535005Y-52371400D01*
X95590278Y-52304156D01*
X95720048Y-52287849D01*
X95780000Y-52287500D01*
X95940204Y-52295508D01*
X96013743Y-52343559D01*
X96040887Y-52467700D01*
X96046041Y-52525625D01*
X96068157Y-52681673D01*
X96124719Y-52748442D01*
X96253998Y-52763597D01*
X96288000Y-52763750D01*
X96435371Y-52753592D01*
X96502047Y-52697804D01*
X96527236Y-52558416D01*
X96529716Y-52529673D01*
X96534794Y-52376816D01*
X96492621Y-52307026D01*
X96368853Y-52281053D01*
X96307466Y-52275673D01*
X96148791Y-52252884D01*
X96076355Y-52193227D01*
X96049442Y-52056508D01*
X96046041Y-52017625D01*
X96021889Y-51860150D01*
X95965391Y-51792743D01*
X95855541Y-51778528D01*
X95663153Y-51751279D01*
X95559317Y-51654471D01*
X95515290Y-51461446D01*
X95489405Y-51313688D01*
X95422208Y-51246733D01*
X95272082Y-51221303D01*
X95259742Y-51220258D01*
X95103940Y-51196622D01*
X95033730Y-51133428D01*
X95007720Y-50989282D01*
X95005742Y-50966258D01*
X94986250Y-50731750D01*
X93462250Y-50668250D01*
X93442757Y-50433743D01*
X93419121Y-50277941D01*
X93355927Y-50207731D01*
X93211781Y-50181721D01*
X93188757Y-50179743D01*
X93034249Y-50157304D01*
X92968759Y-50099102D01*
X92954350Y-49966028D01*
X92954250Y-49938000D01*
X91906205Y-49938000D01*
X91899097Y-50094369D01*
X91853780Y-50169957D01*
X91735887Y-50197934D01*
X91668375Y-50204042D01*
X91511086Y-50227299D01*
X91439750Y-50288600D01*
X91413341Y-50428367D01*
X91410783Y-50457828D01*
X91409770Y-50488334D01*
X91906500Y-50488334D01*
X91920775Y-50307538D01*
X91985291Y-50219969D01*
X92132579Y-50193095D01*
X92202833Y-50192000D01*
X92338396Y-50200362D01*
X92398646Y-50249826D01*
X92414059Y-50376962D01*
X92414500Y-50446000D01*
X92414500Y-50700000D01*
X92160500Y-50700000D01*
X91997824Y-50693032D01*
X91925523Y-50651812D01*
X91907029Y-50545866D01*
X91906500Y-50488334D01*
X91409770Y-50488334D01*
X91405705Y-50610685D01*
X91447878Y-50680475D01*
X91571646Y-50706448D01*
X91633033Y-50711828D01*
X91791781Y-50734721D01*
X91864236Y-50794254D01*
X91891070Y-50929981D01*
X91894216Y-50965828D01*
X91899294Y-51118685D01*
X91857121Y-51188475D01*
X91733353Y-51214448D01*
X91671966Y-51219828D01*
X91513242Y-51242687D01*
X91440794Y-51302259D01*
X91413934Y-51438306D01*
X91410704Y-51475138D01*
X91391159Y-51710526D01*
X91886954Y-51729138D01*
X92382750Y-51747750D01*
X92382750Y-52255750D01*
X90922250Y-52255750D01*
X90902541Y-52017625D01*
X90881494Y-51863400D01*
X90826221Y-51796156D01*
X90696451Y-51779849D01*
X90636500Y-51779500D01*
X90476295Y-51787508D01*
X90402756Y-51835559D01*
X90375612Y-51959700D01*
X90370458Y-52017625D01*
X90350750Y-52255750D01*
X89858625Y-52274297D01*
X89508279Y-52287500D01*
X92406833Y-52287500D01*
X92922500Y-52287500D01*
X92922500Y-52803167D01*
X92684375Y-52783459D01*
X92527162Y-52760308D01*
X92455845Y-52698870D01*
X92429350Y-52558072D01*
X92426541Y-52525625D01*
X92406833Y-52287500D01*
X89508279Y-52287500D01*
X89366500Y-52292843D01*
X89366500Y-52800843D01*
X89858625Y-52782297D01*
X90350750Y-52763750D01*
X90370458Y-52525625D01*
X90391505Y-52371400D01*
X90446778Y-52304156D01*
X90576548Y-52287849D01*
X90636500Y-52287501D01*
X90796704Y-52295508D01*
X90870243Y-52343559D01*
X90897387Y-52467700D01*
X90902541Y-52525626D01*
X90922250Y-52763750D01*
X91665739Y-52781618D01*
X92409229Y-52799485D01*
X92427739Y-53289618D01*
X92446250Y-53779750D01*
X92680327Y-53799217D01*
X92833184Y-53804295D01*
X92902974Y-53762122D01*
X92928947Y-53638354D01*
X92934327Y-53576967D01*
X92954688Y-53422116D01*
X93007627Y-53353370D01*
X93132744Y-53335786D01*
X93208250Y-53335250D01*
X93462250Y-53335250D01*
X93480172Y-54085087D01*
X93498094Y-54834923D01*
X93734172Y-54815337D01*
X93970250Y-54795750D01*
X93970250Y-52319250D01*
X92954250Y-52255750D01*
X92954250Y-51239750D01*
X93169841Y-51219165D01*
X93356658Y-51231898D01*
X93458614Y-51326258D01*
X93492709Y-51519194D01*
X93493027Y-51541375D01*
X93505688Y-51654177D01*
X93566318Y-51703881D01*
X93711438Y-51715882D01*
X93744166Y-51716000D01*
X93905946Y-51708357D01*
X93980692Y-51661945D01*
X94008320Y-51541545D01*
X94014041Y-51477875D01*
X94036157Y-51321828D01*
X94092719Y-51255059D01*
X94221998Y-51239904D01*
X94256000Y-51239750D01*
X94478250Y-51239750D01*
X94541750Y-52255750D01*
X94783466Y-52275673D01*
X94940056Y-52295972D01*
X95004230Y-52347722D01*
X95010333Y-52470173D01*
X95005716Y-52529673D01*
X94982440Y-52684313D01*
X94920242Y-52754573D01*
X94778094Y-52780872D01*
X94748125Y-52783459D01*
X94510000Y-52803167D01*
X94510000Y-55835834D01*
X94748125Y-55855542D01*
X94906066Y-55879537D01*
X94978145Y-55940945D01*
X95005498Y-56077180D01*
X95006835Y-56090842D01*
X94994419Y-56276952D01*
X94900965Y-56378812D01*
X94709181Y-56413563D01*
X94680791Y-56414028D01*
X94564947Y-56425366D01*
X94519459Y-56482467D01*
X94519604Y-56622564D01*
X94522041Y-56653125D01*
X94541750Y-56891250D01*
X95494250Y-56891250D01*
X95494250Y-55875250D01*
X95018000Y-55835834D01*
X95018000Y-54319500D01*
X95526000Y-54319500D01*
X95526000Y-55123834D01*
X96542000Y-55123834D01*
X96556275Y-54943038D01*
X96620791Y-54855469D01*
X96768079Y-54828595D01*
X96838333Y-54827500D01*
X96973896Y-54835862D01*
X97034146Y-54885326D01*
X97049559Y-55012462D01*
X97050000Y-55081500D01*
X97050000Y-55156257D01*
X97568853Y-55156257D01*
X97570275Y-54962743D01*
X97653651Y-54859125D01*
X97833761Y-54827523D01*
X97840547Y-54827500D01*
X97999271Y-54844003D01*
X98077258Y-54911189D01*
X98103388Y-54986109D01*
X98123604Y-55184192D01*
X98055230Y-55294174D01*
X97889688Y-55326578D01*
X97828385Y-55323489D01*
X97663943Y-55294622D01*
X97588132Y-55228440D01*
X97568853Y-55156257D01*
X97050000Y-55156257D01*
X97050000Y-55335500D01*
X96796000Y-55335500D01*
X96633324Y-55328532D01*
X96561023Y-55287312D01*
X96542529Y-55181366D01*
X96542000Y-55123834D01*
X95526000Y-55123834D01*
X95526000Y-55327834D01*
X95764125Y-55347542D01*
X95921385Y-55370761D01*
X95992714Y-55432110D01*
X96019154Y-55572243D01*
X96021802Y-55602771D01*
X96024214Y-55631834D01*
X97050000Y-55631834D01*
X97064275Y-55451038D01*
X97128791Y-55363469D01*
X97276079Y-55336595D01*
X97346333Y-55335500D01*
X97481896Y-55343862D01*
X97542146Y-55393326D01*
X97557559Y-55520462D01*
X97558000Y-55589500D01*
X97558000Y-55843500D01*
X97304000Y-55843500D01*
X97141324Y-55836532D01*
X97069023Y-55795312D01*
X97050529Y-55689366D01*
X97050000Y-55631834D01*
X96024214Y-55631834D01*
X96041355Y-55838291D01*
X96529802Y-55856771D01*
X97018250Y-55875250D01*
X97033455Y-56058183D01*
X97568784Y-56058183D01*
X97569286Y-56053715D01*
X97599948Y-55933496D01*
X97681588Y-55877044D01*
X97827875Y-55855542D01*
X97986636Y-55830095D01*
X98054034Y-55772730D01*
X98066000Y-55686111D01*
X98087210Y-55479498D01*
X98164126Y-55372988D01*
X98316674Y-55344827D01*
X98375704Y-55348024D01*
X98605750Y-55367250D01*
X98624656Y-55801591D01*
X98627433Y-56084305D01*
X98592910Y-56264124D01*
X98501441Y-56363922D01*
X98333376Y-56406572D01*
X98097750Y-56415000D01*
X97823129Y-56398597D01*
X97654929Y-56341522D01*
X97575898Y-56231983D01*
X97568784Y-56058183D01*
X97033455Y-56058183D01*
X97037742Y-56109758D01*
X97061378Y-56265560D01*
X97124572Y-56335770D01*
X97268718Y-56361780D01*
X97291742Y-56363758D01*
X97446716Y-56387046D01*
X97517077Y-56449235D01*
X97543376Y-56591383D01*
X97545943Y-56621124D01*
X97564025Y-56744776D01*
X97607507Y-56830121D01*
X97696219Y-56883294D01*
X97849991Y-56910433D01*
X98088652Y-56917675D01*
X98432033Y-56911158D01*
G36*
X91750636Y-45400637D02*
G01*
X91906500Y-45244773D01*
X91904480Y-43765512D01*
X91902987Y-43273383D01*
X91898211Y-42892159D01*
X91887443Y-42605747D01*
X91867973Y-42398054D01*
X91837091Y-42252986D01*
X91792088Y-42154451D01*
X91730253Y-42086353D01*
X91648878Y-42032602D01*
X91609049Y-42010873D01*
X91493079Y-41983773D01*
X91274052Y-41962626D01*
X90975769Y-41947371D01*
X90622031Y-41937946D01*
X90236638Y-41934291D01*
X89843392Y-41936346D01*
X89466093Y-41944048D01*
X89128542Y-41957337D01*
X88854539Y-41976153D01*
X88667886Y-42000434D01*
X88605751Y-42018563D01*
X88507277Y-42077592D01*
X88431456Y-42153339D01*
X88375353Y-42261945D01*
X88336034Y-42419553D01*
X88310564Y-42642304D01*
X88296009Y-42946339D01*
X88289434Y-43347802D01*
X88289036Y-43459206D01*
X88796337Y-43459206D01*
X88812499Y-43098337D01*
X88866614Y-42834699D01*
X88972762Y-42653598D01*
X89145023Y-42540339D01*
X89397476Y-42480227D01*
X89744201Y-42458566D01*
X90199277Y-42460663D01*
X90213526Y-42460917D01*
X90563141Y-42467915D01*
X90808933Y-42477064D01*
X90974062Y-42492718D01*
X91081687Y-42519232D01*
X91154965Y-42560959D01*
X91217056Y-42622253D01*
X91245401Y-42654916D01*
X91304442Y-42729549D01*
X91345966Y-42808390D01*
X91373048Y-42914135D01*
X91388763Y-43069477D01*
X91396185Y-43297112D01*
X91398390Y-43619734D01*
X91398500Y-43784928D01*
X91397679Y-44152120D01*
X91393137Y-44414483D01*
X91381755Y-44594185D01*
X91360414Y-44713396D01*
X91325994Y-44794284D01*
X91275375Y-44859019D01*
X91242636Y-44892637D01*
X91177631Y-44952630D01*
X91107678Y-44994848D01*
X91010609Y-45022410D01*
X90864252Y-45038436D01*
X90646441Y-45046045D01*
X90335005Y-45048357D01*
X90134927Y-45048500D01*
X89766767Y-45047550D01*
X89502911Y-45042648D01*
X89320665Y-45030717D01*
X89197336Y-45008679D01*
X89110230Y-44973457D01*
X89036654Y-44921974D01*
X89004915Y-44895268D01*
X88931500Y-44827708D01*
X88880928Y-44757550D01*
X88848088Y-44660282D01*
X88827871Y-44511394D01*
X88815163Y-44286375D01*
X88804855Y-43960714D01*
X88804049Y-43932002D01*
X88796337Y-43459206D01*
X88289036Y-43459206D01*
X88287936Y-43766800D01*
X88289284Y-44251002D01*
X88295716Y-44625153D01*
X88309686Y-44906178D01*
X88333645Y-45110998D01*
X88370047Y-45256536D01*
X88421342Y-45359716D01*
X88489984Y-45437459D01*
X88535497Y-45475106D01*
X88615527Y-45502624D01*
X88781459Y-45523784D01*
X89042611Y-45539056D01*
X89408299Y-45548905D01*
X89887841Y-45553802D01*
X90115511Y-45554481D01*
X91594772Y-45556500D01*
X91750636Y-45400637D01*
G37*
X91750636Y-45400637D02*
X91906500Y-45244773D01*
X91904480Y-43765512D01*
X91902987Y-43273383D01*
X91898211Y-42892159D01*
X91887443Y-42605747D01*
X91867973Y-42398054D01*
X91837091Y-42252986D01*
X91792088Y-42154451D01*
X91730253Y-42086353D01*
X91648878Y-42032602D01*
X91609049Y-42010873D01*
X91493079Y-41983773D01*
X91274052Y-41962626D01*
X90975769Y-41947371D01*
X90622031Y-41937946D01*
X90236638Y-41934291D01*
X89843392Y-41936346D01*
X89466093Y-41944048D01*
X89128542Y-41957337D01*
X88854539Y-41976153D01*
X88667886Y-42000434D01*
X88605751Y-42018563D01*
X88507277Y-42077592D01*
X88431456Y-42153339D01*
X88375353Y-42261945D01*
X88336034Y-42419553D01*
X88310564Y-42642304D01*
X88296009Y-42946339D01*
X88289434Y-43347802D01*
X88289036Y-43459206D01*
X88796337Y-43459206D01*
X88812499Y-43098337D01*
X88866614Y-42834699D01*
X88972762Y-42653598D01*
X89145023Y-42540339D01*
X89397476Y-42480227D01*
X89744201Y-42458566D01*
X90199277Y-42460663D01*
X90213526Y-42460917D01*
X90563141Y-42467915D01*
X90808933Y-42477064D01*
X90974062Y-42492718D01*
X91081687Y-42519232D01*
X91154965Y-42560959D01*
X91217056Y-42622253D01*
X91245401Y-42654916D01*
X91304442Y-42729549D01*
X91345966Y-42808390D01*
X91373048Y-42914135D01*
X91388763Y-43069477D01*
X91396185Y-43297112D01*
X91398390Y-43619734D01*
X91398500Y-43784928D01*
X91397679Y-44152120D01*
X91393137Y-44414483D01*
X91381755Y-44594185D01*
X91360414Y-44713396D01*
X91325994Y-44794284D01*
X91275375Y-44859019D01*
X91242636Y-44892637D01*
X91177631Y-44952630D01*
X91107678Y-44994848D01*
X91010609Y-45022410D01*
X90864252Y-45038436D01*
X90646441Y-45046045D01*
X90335005Y-45048357D01*
X90134927Y-45048500D01*
X89766767Y-45047550D01*
X89502911Y-45042648D01*
X89320665Y-45030717D01*
X89197336Y-45008679D01*
X89110230Y-44973457D01*
X89036654Y-44921974D01*
X89004915Y-44895268D01*
X88931500Y-44827708D01*
X88880928Y-44757550D01*
X88848088Y-44660282D01*
X88827871Y-44511394D01*
X88815163Y-44286375D01*
X88804855Y-43960714D01*
X88804049Y-43932002D01*
X88796337Y-43459206D01*
X88289036Y-43459206D01*
X88287936Y-43766800D01*
X88289284Y-44251002D01*
X88295716Y-44625153D01*
X88309686Y-44906178D01*
X88333645Y-45110998D01*
X88370047Y-45256536D01*
X88421342Y-45359716D01*
X88489984Y-45437459D01*
X88535497Y-45475106D01*
X88615527Y-45502624D01*
X88781459Y-45523784D01*
X89042611Y-45539056D01*
X89408299Y-45548905D01*
X89887841Y-45553802D01*
X90115511Y-45554481D01*
X91594772Y-45556500D01*
X91750636Y-45400637D01*
D12*
X75258578Y-36210000D02*
X74741422Y-36210000D01*
X75258578Y-34790000D02*
X74741422Y-34790000D01*
X87258578Y-36210000D02*
X86741422Y-36210000D01*
X87258578Y-34790000D02*
X86741422Y-34790000D01*
X99258578Y-34790000D02*
X98741422Y-34790000D01*
X99258578Y-36210000D02*
X98741422Y-36210000D01*
X20991422Y-36540000D02*
X21508578Y-36540000D01*
X20991422Y-37960000D02*
X21508578Y-37960000D01*
X34008578Y-51210000D02*
X33491422Y-51210000D01*
X34008578Y-49790000D02*
X33491422Y-49790000D01*
X45508578Y-49790000D02*
X44991422Y-49790000D01*
X45508578Y-51210000D02*
X44991422Y-51210000D01*
X34008578Y-34960000D02*
X33491422Y-34960000D01*
X34008578Y-33540000D02*
X33491422Y-33540000D01*
X45508578Y-33540000D02*
X44991422Y-33540000D01*
X45508578Y-34960000D02*
X44991422Y-34960000D01*
X56758578Y-33710000D02*
X56241422Y-33710000D01*
X56758578Y-32290000D02*
X56241422Y-32290000D01*
X21540000Y-41741422D02*
X21540000Y-42258578D01*
X22960000Y-41741422D02*
X22960000Y-42258578D01*
X56758578Y-48790000D02*
X56241422Y-48790000D01*
X56758578Y-50210000D02*
X56241422Y-50210000D01*
X55491422Y-59290000D02*
X56008578Y-59290000D01*
X55491422Y-60710000D02*
X56008578Y-60710000D01*
X47758578Y-74960000D02*
X47241422Y-74960000D01*
X47758578Y-73540000D02*
X47241422Y-73540000D01*
X27508578Y-73540000D02*
X26991422Y-73540000D01*
X27508578Y-74960000D02*
X26991422Y-74960000D01*
X100040000Y-14241422D02*
X100040000Y-14758578D01*
X101460000Y-14241422D02*
X101460000Y-14758578D01*
X103710000Y-14241422D02*
X103710000Y-14758578D01*
X102290000Y-14241422D02*
X102290000Y-14758578D01*
X82210000Y-61741422D02*
X82210000Y-62258578D01*
X80790000Y-61741422D02*
X80790000Y-62258578D01*
X109460000Y-71758578D02*
X109460000Y-71241422D01*
X108040000Y-71758578D02*
X108040000Y-71241422D01*
X127790000Y-27258578D02*
X127790000Y-26741422D01*
X129210000Y-27258578D02*
X129210000Y-26741422D01*
X124210000Y-27258578D02*
X124210000Y-26741422D01*
X122790000Y-27258578D02*
X122790000Y-26741422D01*
X73790000Y-60741422D02*
X73790000Y-61258578D01*
X75210000Y-60741422D02*
X75210000Y-61258578D01*
X63991422Y-29040000D02*
X64508578Y-29040000D01*
X63991422Y-30460000D02*
X64508578Y-30460000D01*
X82460000Y-38008578D02*
X82460000Y-37491422D01*
X81040000Y-38008578D02*
X81040000Y-37491422D01*
X94258578Y-38210000D02*
X93741422Y-38210000D01*
X94258578Y-36790000D02*
X93741422Y-36790000D01*
X71500000Y-34185000D02*
X68050000Y-34185000D01*
X71500000Y-34185000D02*
X73450000Y-34185000D01*
X71500000Y-25315000D02*
X69550000Y-25315000D01*
X71500000Y-25315000D02*
X73450000Y-25315000D01*
X83500000Y-25315000D02*
X85450000Y-25315000D01*
X83500000Y-25315000D02*
X81550000Y-25315000D01*
X83500000Y-34185000D02*
X85450000Y-34185000D01*
X83500000Y-34185000D02*
X80050000Y-34185000D01*
X97110000Y-19100000D02*
X97110000Y-21550000D01*
X93890000Y-20900000D02*
X93890000Y-19100000D01*
X81890000Y-20900000D02*
X81890000Y-19100000D01*
X85110000Y-19100000D02*
X85110000Y-21550000D01*
X95500000Y-34185000D02*
X92050000Y-34185000D01*
X95500000Y-34185000D02*
X97450000Y-34185000D01*
X95500000Y-25315000D02*
X93550000Y-25315000D01*
X95500000Y-25315000D02*
X97450000Y-25315000D01*
X11890000Y-35775000D02*
X10075000Y-35775000D01*
X11890000Y-36010000D02*
X11890000Y-35775000D01*
X15750000Y-36010000D02*
X11890000Y-36010000D01*
X19610000Y-36010000D02*
X19610000Y-35775000D01*
X15750000Y-36010000D02*
X19610000Y-36010000D01*
X11890000Y-22990000D02*
X11890000Y-23225000D01*
X15750000Y-22990000D02*
X11890000Y-22990000D01*
X19610000Y-22990000D02*
X19610000Y-23225000D01*
X15750000Y-22990000D02*
X19610000Y-22990000D01*
X41750000Y-39190000D02*
X43700000Y-39190000D01*
X41750000Y-39190000D02*
X39800000Y-39190000D01*
X41750000Y-49310000D02*
X43700000Y-49310000D01*
X41750000Y-49310000D02*
X38300000Y-49310000D01*
X30250000Y-49310000D02*
X26800000Y-49310000D01*
X30250000Y-49310000D02*
X32200000Y-49310000D01*
X30250000Y-39190000D02*
X28300000Y-39190000D01*
X30250000Y-39190000D02*
X32200000Y-39190000D01*
X39890000Y-18900000D02*
X39890000Y-17100000D01*
X43110000Y-17100000D02*
X43110000Y-19550000D01*
X41750000Y-33060000D02*
X38300000Y-33060000D01*
X41750000Y-33060000D02*
X43700000Y-33060000D01*
X41750000Y-22940000D02*
X39800000Y-22940000D01*
X41750000Y-22940000D02*
X43700000Y-22940000D01*
X54610000Y-17100000D02*
X54610000Y-19550000D01*
X51390000Y-18900000D02*
X51390000Y-17100000D01*
X30250000Y-22940000D02*
X32200000Y-22940000D01*
X30250000Y-22940000D02*
X28300000Y-22940000D01*
X30250000Y-33060000D02*
X32200000Y-33060000D01*
X30250000Y-33060000D02*
X26800000Y-33060000D01*
X53000000Y-31685000D02*
X49550000Y-31685000D01*
X53000000Y-31685000D02*
X54950000Y-31685000D01*
X53000000Y-22815000D02*
X51050000Y-22815000D01*
X53000000Y-22815000D02*
X54950000Y-22815000D01*
X21060000Y-45500000D02*
X21060000Y-48950000D01*
X21060000Y-45500000D02*
X21060000Y-43550000D01*
X10940000Y-45500000D02*
X10940000Y-47450000D01*
X10940000Y-45500000D02*
X10940000Y-43550000D01*
X53000000Y-39315000D02*
X54950000Y-39315000D01*
X53000000Y-39315000D02*
X51050000Y-39315000D01*
X53000000Y-48185000D02*
X54950000Y-48185000D01*
X53000000Y-48185000D02*
X49550000Y-48185000D01*
D13*
X63025000Y-61500000D02*
X64550000Y-61500000D01*
X63025000Y-71775000D02*
X57475000Y-71775000D01*
X63025000Y-61225000D02*
X57475000Y-61225000D01*
X63025000Y-71775000D02*
X63025000Y-71420000D01*
X57475000Y-71775000D02*
X57475000Y-71420000D01*
X57475000Y-61225000D02*
X57475000Y-61580000D01*
X63025000Y-61225000D02*
X63025000Y-61500000D01*
D12*
X107275000Y-80860000D02*
X107275000Y-82675000D01*
X107510000Y-80860000D02*
X107275000Y-80860000D01*
X107510000Y-77000000D02*
X107510000Y-80860000D01*
X107510000Y-73140000D02*
X107275000Y-73140000D01*
X107510000Y-77000000D02*
X107510000Y-73140000D01*
X94490000Y-80860000D02*
X94725000Y-80860000D01*
X94490000Y-77000000D02*
X94490000Y-80860000D01*
X94490000Y-73140000D02*
X94725000Y-73140000D01*
X94490000Y-77000000D02*
X94490000Y-73140000D01*
X17890000Y-72775000D02*
X16075000Y-72775000D01*
X17890000Y-73010000D02*
X17890000Y-72775000D01*
X21750000Y-73010000D02*
X17890000Y-73010000D01*
X25610000Y-73010000D02*
X25610000Y-72775000D01*
X21750000Y-73010000D02*
X25610000Y-73010000D01*
X17890000Y-59990000D02*
X17890000Y-60225000D01*
X21750000Y-59990000D02*
X17890000Y-59990000D01*
X25610000Y-59990000D02*
X25610000Y-60225000D01*
X21750000Y-59990000D02*
X25610000Y-59990000D01*
X42000000Y-59990000D02*
X45860000Y-59990000D01*
X45860000Y-59990000D02*
X45860000Y-60225000D01*
X42000000Y-59990000D02*
X38140000Y-59990000D01*
X38140000Y-59990000D02*
X38140000Y-60225000D01*
X42000000Y-73010000D02*
X45860000Y-73010000D01*
X45860000Y-73010000D02*
X45860000Y-72775000D01*
X42000000Y-73010000D02*
X38140000Y-73010000D01*
X38140000Y-73010000D02*
X38140000Y-72775000D01*
X38140000Y-72775000D02*
X36325000Y-72775000D01*
X85258578Y-71290000D02*
X84741422Y-71290000D01*
X85258578Y-72710000D02*
X84741422Y-72710000D01*
X85758578Y-50710000D02*
X85241422Y-50710000D01*
X85758578Y-49290000D02*
X85241422Y-49290000D01*
X78760000Y-59420000D02*
X78760000Y-60350000D01*
X78760000Y-62580000D02*
X78760000Y-61650000D01*
X78760000Y-62580000D02*
X76600000Y-62580000D01*
X78760000Y-59420000D02*
X77300000Y-59420000D01*
X67690000Y-50000000D02*
X67690000Y-46140000D01*
X67690000Y-46140000D02*
X67955000Y-46140000D01*
X67690000Y-50000000D02*
X67690000Y-53860000D01*
X67690000Y-53860000D02*
X67955000Y-53860000D01*
X83310000Y-50000000D02*
X83310000Y-46140000D01*
X83310000Y-46140000D02*
X83045000Y-46140000D01*
X83310000Y-50000000D02*
X83310000Y-53860000D01*
X83310000Y-53860000D02*
X83045000Y-53860000D01*
X83045000Y-53860000D02*
X83045000Y-55675000D01*
X72440000Y-72000000D02*
X72440000Y-70050000D01*
X72440000Y-72000000D02*
X72440000Y-73950000D01*
X82560000Y-72000000D02*
X82560000Y-70050000D01*
X82560000Y-72000000D02*
X82560000Y-75450000D01*
D13*
X75166666Y-37857142D02*
X75214285Y-37904761D01*
X75357142Y-37952380D01*
X75452380Y-37952380D01*
X75595238Y-37904761D01*
X75690476Y-37809523D01*
X75738095Y-37714285D01*
X75785714Y-37523809D01*
X75785714Y-37380952D01*
X75738095Y-37190476D01*
X75690476Y-37095238D01*
X75595238Y-37000000D01*
X75452380Y-36952380D01*
X75357142Y-36952380D01*
X75214285Y-37000000D01*
X75166666Y-37047619D01*
X74214285Y-37952380D02*
X74785714Y-37952380D01*
X74500000Y-37952380D02*
X74500000Y-36952380D01*
X74595238Y-37095238D01*
X74690476Y-37190476D01*
X74785714Y-37238095D01*
X87166666Y-37857142D02*
X87214285Y-37904761D01*
X87357142Y-37952380D01*
X87452380Y-37952380D01*
X87595238Y-37904761D01*
X87690476Y-37809523D01*
X87738095Y-37714285D01*
X87785714Y-37523809D01*
X87785714Y-37380952D01*
X87738095Y-37190476D01*
X87690476Y-37095238D01*
X87595238Y-37000000D01*
X87452380Y-36952380D01*
X87357142Y-36952380D01*
X87214285Y-37000000D01*
X87166666Y-37047619D01*
X86785714Y-37047619D02*
X86738095Y-37000000D01*
X86642857Y-36952380D01*
X86404761Y-36952380D01*
X86309523Y-37000000D01*
X86261904Y-37047619D01*
X86214285Y-37142857D01*
X86214285Y-37238095D01*
X86261904Y-37380952D01*
X86833333Y-37952380D01*
X86214285Y-37952380D01*
X99166666Y-37857142D02*
X99214285Y-37904761D01*
X99357142Y-37952380D01*
X99452380Y-37952380D01*
X99595238Y-37904761D01*
X99690476Y-37809523D01*
X99738095Y-37714285D01*
X99785714Y-37523809D01*
X99785714Y-37380952D01*
X99738095Y-37190476D01*
X99690476Y-37095238D01*
X99595238Y-37000000D01*
X99452380Y-36952380D01*
X99357142Y-36952380D01*
X99214285Y-37000000D01*
X99166666Y-37047619D01*
X98833333Y-36952380D02*
X98214285Y-36952380D01*
X98547619Y-37333333D01*
X98404761Y-37333333D01*
X98309523Y-37380952D01*
X98261904Y-37428571D01*
X98214285Y-37523809D01*
X98214285Y-37761904D01*
X98261904Y-37857142D01*
X98309523Y-37904761D01*
X98404761Y-37952380D01*
X98690476Y-37952380D01*
X98785714Y-37904761D01*
X98833333Y-37857142D01*
X21416666Y-39257142D02*
X21464285Y-39304761D01*
X21607142Y-39352380D01*
X21702380Y-39352380D01*
X21845238Y-39304761D01*
X21940476Y-39209523D01*
X21988095Y-39114285D01*
X22035714Y-38923809D01*
X22035714Y-38780952D01*
X21988095Y-38590476D01*
X21940476Y-38495238D01*
X21845238Y-38400000D01*
X21702380Y-38352380D01*
X21607142Y-38352380D01*
X21464285Y-38400000D01*
X21416666Y-38447619D01*
X20559523Y-38685714D02*
X20559523Y-39352380D01*
X20797619Y-38304761D02*
X21035714Y-39019047D01*
X20416666Y-39019047D01*
X33916666Y-52857142D02*
X33964285Y-52904761D01*
X34107142Y-52952380D01*
X34202380Y-52952380D01*
X34345238Y-52904761D01*
X34440476Y-52809523D01*
X34488095Y-52714285D01*
X34535714Y-52523809D01*
X34535714Y-52380952D01*
X34488095Y-52190476D01*
X34440476Y-52095238D01*
X34345238Y-52000000D01*
X34202380Y-51952380D01*
X34107142Y-51952380D01*
X33964285Y-52000000D01*
X33916666Y-52047619D01*
X33011904Y-51952380D02*
X33488095Y-51952380D01*
X33535714Y-52428571D01*
X33488095Y-52380952D01*
X33392857Y-52333333D01*
X33154761Y-52333333D01*
X33059523Y-52380952D01*
X33011904Y-52428571D01*
X32964285Y-52523809D01*
X32964285Y-52761904D01*
X33011904Y-52857142D01*
X33059523Y-52904761D01*
X33154761Y-52952380D01*
X33392857Y-52952380D01*
X33488095Y-52904761D01*
X33535714Y-52857142D01*
X45416666Y-52857142D02*
X45464285Y-52904761D01*
X45607142Y-52952380D01*
X45702380Y-52952380D01*
X45845238Y-52904761D01*
X45940476Y-52809523D01*
X45988095Y-52714285D01*
X46035714Y-52523809D01*
X46035714Y-52380952D01*
X45988095Y-52190476D01*
X45940476Y-52095238D01*
X45845238Y-52000000D01*
X45702380Y-51952380D01*
X45607142Y-51952380D01*
X45464285Y-52000000D01*
X45416666Y-52047619D01*
X44559523Y-51952380D02*
X44750000Y-51952380D01*
X44845238Y-52000000D01*
X44892857Y-52047619D01*
X44988095Y-52190476D01*
X45035714Y-52380952D01*
X45035714Y-52761904D01*
X44988095Y-52857142D01*
X44940476Y-52904761D01*
X44845238Y-52952380D01*
X44654761Y-52952380D01*
X44559523Y-52904761D01*
X44511904Y-52857142D01*
X44464285Y-52761904D01*
X44464285Y-52523809D01*
X44511904Y-52428571D01*
X44559523Y-52380952D01*
X44654761Y-52333333D01*
X44845238Y-52333333D01*
X44940476Y-52380952D01*
X44988095Y-52428571D01*
X45035714Y-52523809D01*
X33916666Y-36357142D02*
X33964285Y-36404761D01*
X34107142Y-36452380D01*
X34202380Y-36452380D01*
X34345238Y-36404761D01*
X34440476Y-36309523D01*
X34488095Y-36214285D01*
X34535714Y-36023809D01*
X34535714Y-35880952D01*
X34488095Y-35690476D01*
X34440476Y-35595238D01*
X34345238Y-35500000D01*
X34202380Y-35452380D01*
X34107142Y-35452380D01*
X33964285Y-35500000D01*
X33916666Y-35547619D01*
X33345238Y-35880952D02*
X33440476Y-35833333D01*
X33488095Y-35785714D01*
X33535714Y-35690476D01*
X33535714Y-35642857D01*
X33488095Y-35547619D01*
X33440476Y-35500000D01*
X33345238Y-35452380D01*
X33154761Y-35452380D01*
X33059523Y-35500000D01*
X33011904Y-35547619D01*
X32964285Y-35642857D01*
X32964285Y-35690476D01*
X33011904Y-35785714D01*
X33059523Y-35833333D01*
X33154761Y-35880952D01*
X33345238Y-35880952D01*
X33440476Y-35928571D01*
X33488095Y-35976190D01*
X33535714Y-36071428D01*
X33535714Y-36261904D01*
X33488095Y-36357142D01*
X33440476Y-36404761D01*
X33345238Y-36452380D01*
X33154761Y-36452380D01*
X33059523Y-36404761D01*
X33011904Y-36357142D01*
X32964285Y-36261904D01*
X32964285Y-36071428D01*
X33011904Y-35976190D01*
X33059523Y-35928571D01*
X33154761Y-35880952D01*
X45892857Y-36357142D02*
X45940476Y-36404761D01*
X46083333Y-36452380D01*
X46178571Y-36452380D01*
X46321428Y-36404761D01*
X46416666Y-36309523D01*
X46464285Y-36214285D01*
X46511904Y-36023809D01*
X46511904Y-35880952D01*
X46464285Y-35690476D01*
X46416666Y-35595238D01*
X46321428Y-35500000D01*
X46178571Y-35452380D01*
X46083333Y-35452380D01*
X45940476Y-35500000D01*
X45892857Y-35547619D01*
X44940476Y-36452380D02*
X45511904Y-36452380D01*
X45226190Y-36452380D02*
X45226190Y-35452380D01*
X45321428Y-35595238D01*
X45416666Y-35690476D01*
X45511904Y-35738095D01*
X44321428Y-35452380D02*
X44226190Y-35452380D01*
X44130952Y-35500000D01*
X44083333Y-35547619D01*
X44035714Y-35642857D01*
X43988095Y-35833333D01*
X43988095Y-36071428D01*
X44035714Y-36261904D01*
X44083333Y-36357142D01*
X44130952Y-36404761D01*
X44226190Y-36452380D01*
X44321428Y-36452380D01*
X44416666Y-36404761D01*
X44464285Y-36357142D01*
X44511904Y-36261904D01*
X44559523Y-36071428D01*
X44559523Y-35833333D01*
X44511904Y-35642857D01*
X44464285Y-35547619D01*
X44416666Y-35500000D01*
X44321428Y-35452380D01*
X57142857Y-35357142D02*
X57190476Y-35404761D01*
X57333333Y-35452380D01*
X57428571Y-35452380D01*
X57571428Y-35404761D01*
X57666666Y-35309523D01*
X57714285Y-35214285D01*
X57761904Y-35023809D01*
X57761904Y-34880952D01*
X57714285Y-34690476D01*
X57666666Y-34595238D01*
X57571428Y-34500000D01*
X57428571Y-34452380D01*
X57333333Y-34452380D01*
X57190476Y-34500000D01*
X57142857Y-34547619D01*
X56190476Y-35452380D02*
X56761904Y-35452380D01*
X56476190Y-35452380D02*
X56476190Y-34452380D01*
X56571428Y-34595238D01*
X56666666Y-34690476D01*
X56761904Y-34738095D01*
X55238095Y-35452380D02*
X55809523Y-35452380D01*
X55523809Y-35452380D02*
X55523809Y-34452380D01*
X55619047Y-34595238D01*
X55714285Y-34690476D01*
X55809523Y-34738095D01*
X24357142Y-41357142D02*
X24404761Y-41309523D01*
X24452380Y-41166666D01*
X24452380Y-41071428D01*
X24404761Y-40928571D01*
X24309523Y-40833333D01*
X24214285Y-40785714D01*
X24023809Y-40738095D01*
X23880952Y-40738095D01*
X23690476Y-40785714D01*
X23595238Y-40833333D01*
X23500000Y-40928571D01*
X23452380Y-41071428D01*
X23452380Y-41166666D01*
X23500000Y-41309523D01*
X23547619Y-41357142D01*
X24452380Y-42309523D02*
X24452380Y-41738095D01*
X24452380Y-42023809D02*
X23452380Y-42023809D01*
X23595238Y-41928571D01*
X23690476Y-41833333D01*
X23738095Y-41738095D01*
X23547619Y-42690476D02*
X23500000Y-42738095D01*
X23452380Y-42833333D01*
X23452380Y-43071428D01*
X23500000Y-43166666D01*
X23547619Y-43214285D01*
X23642857Y-43261904D01*
X23738095Y-43261904D01*
X23880952Y-43214285D01*
X24452380Y-42642857D01*
X24452380Y-43261904D01*
X57142857Y-51857142D02*
X57190476Y-51904761D01*
X57333333Y-51952380D01*
X57428571Y-51952380D01*
X57571428Y-51904761D01*
X57666666Y-51809523D01*
X57714285Y-51714285D01*
X57761904Y-51523809D01*
X57761904Y-51380952D01*
X57714285Y-51190476D01*
X57666666Y-51095238D01*
X57571428Y-51000000D01*
X57428571Y-50952380D01*
X57333333Y-50952380D01*
X57190476Y-51000000D01*
X57142857Y-51047619D01*
X56190476Y-51952380D02*
X56761904Y-51952380D01*
X56476190Y-51952380D02*
X56476190Y-50952380D01*
X56571428Y-51095238D01*
X56666666Y-51190476D01*
X56761904Y-51238095D01*
X55857142Y-50952380D02*
X55238095Y-50952380D01*
X55571428Y-51333333D01*
X55428571Y-51333333D01*
X55333333Y-51380952D01*
X55285714Y-51428571D01*
X55238095Y-51523809D01*
X55238095Y-51761904D01*
X55285714Y-51857142D01*
X55333333Y-51904761D01*
X55428571Y-51952380D01*
X55714285Y-51952380D01*
X55809523Y-51904761D01*
X55857142Y-51857142D01*
X56392857Y-58357142D02*
X56440476Y-58404761D01*
X56583333Y-58452380D01*
X56678571Y-58452380D01*
X56821428Y-58404761D01*
X56916666Y-58309523D01*
X56964285Y-58214285D01*
X57011904Y-58023809D01*
X57011904Y-57880952D01*
X56964285Y-57690476D01*
X56916666Y-57595238D01*
X56821428Y-57500000D01*
X56678571Y-57452380D01*
X56583333Y-57452380D01*
X56440476Y-57500000D01*
X56392857Y-57547619D01*
X55440476Y-58452380D02*
X56011904Y-58452380D01*
X55726190Y-58452380D02*
X55726190Y-57452380D01*
X55821428Y-57595238D01*
X55916666Y-57690476D01*
X56011904Y-57738095D01*
X54583333Y-57785714D02*
X54583333Y-58452380D01*
X54821428Y-57404761D02*
X55059523Y-58119047D01*
X54440476Y-58119047D01*
X48142857Y-76357142D02*
X48190476Y-76404761D01*
X48333333Y-76452380D01*
X48428571Y-76452380D01*
X48571428Y-76404761D01*
X48666666Y-76309523D01*
X48714285Y-76214285D01*
X48761904Y-76023809D01*
X48761904Y-75880952D01*
X48714285Y-75690476D01*
X48666666Y-75595238D01*
X48571428Y-75500000D01*
X48428571Y-75452380D01*
X48333333Y-75452380D01*
X48190476Y-75500000D01*
X48142857Y-75547619D01*
X47190476Y-76452380D02*
X47761904Y-76452380D01*
X47476190Y-76452380D02*
X47476190Y-75452380D01*
X47571428Y-75595238D01*
X47666666Y-75690476D01*
X47761904Y-75738095D01*
X46333333Y-75452380D02*
X46523809Y-75452380D01*
X46619047Y-75500000D01*
X46666666Y-75547619D01*
X46761904Y-75690476D01*
X46809523Y-75880952D01*
X46809523Y-76261904D01*
X46761904Y-76357142D01*
X46714285Y-76404761D01*
X46619047Y-76452380D01*
X46428571Y-76452380D01*
X46333333Y-76404761D01*
X46285714Y-76357142D01*
X46238095Y-76261904D01*
X46238095Y-76023809D01*
X46285714Y-75928571D01*
X46333333Y-75880952D01*
X46428571Y-75833333D01*
X46619047Y-75833333D01*
X46714285Y-75880952D01*
X46761904Y-75928571D01*
X46809523Y-76023809D01*
X27892857Y-76357142D02*
X27940476Y-76404761D01*
X28083333Y-76452380D01*
X28178571Y-76452380D01*
X28321428Y-76404761D01*
X28416666Y-76309523D01*
X28464285Y-76214285D01*
X28511904Y-76023809D01*
X28511904Y-75880952D01*
X28464285Y-75690476D01*
X28416666Y-75595238D01*
X28321428Y-75500000D01*
X28178571Y-75452380D01*
X28083333Y-75452380D01*
X27940476Y-75500000D01*
X27892857Y-75547619D01*
X26940476Y-76452380D02*
X27511904Y-76452380D01*
X27226190Y-76452380D02*
X27226190Y-75452380D01*
X27321428Y-75595238D01*
X27416666Y-75690476D01*
X27511904Y-75738095D01*
X26607142Y-75452380D02*
X25940476Y-75452380D01*
X26369047Y-76452380D01*
X99457142Y-13857142D02*
X99504761Y-13809523D01*
X99552380Y-13666666D01*
X99552380Y-13571428D01*
X99504761Y-13428571D01*
X99409523Y-13333333D01*
X99314285Y-13285714D01*
X99123809Y-13238095D01*
X98980952Y-13238095D01*
X98790476Y-13285714D01*
X98695238Y-13333333D01*
X98600000Y-13428571D01*
X98552380Y-13571428D01*
X98552380Y-13666666D01*
X98600000Y-13809523D01*
X98647619Y-13857142D01*
X98552380Y-14190476D02*
X98552380Y-14809523D01*
X98933333Y-14476190D01*
X98933333Y-14619047D01*
X98980952Y-14714285D01*
X99028571Y-14761904D01*
X99123809Y-14809523D01*
X99361904Y-14809523D01*
X99457142Y-14761904D01*
X99504761Y-14714285D01*
X99552380Y-14619047D01*
X99552380Y-14333333D01*
X99504761Y-14238095D01*
X99457142Y-14190476D01*
X98552380Y-15428571D02*
X98552380Y-15523809D01*
X98600000Y-15619047D01*
X98647619Y-15666666D01*
X98742857Y-15714285D01*
X98933333Y-15761904D01*
X99171428Y-15761904D01*
X99361904Y-15714285D01*
X99457142Y-15666666D01*
X99504761Y-15619047D01*
X99552380Y-15523809D01*
X99552380Y-15428571D01*
X99504761Y-15333333D01*
X99457142Y-15285714D01*
X99361904Y-15238095D01*
X99171428Y-15190476D01*
X98933333Y-15190476D01*
X98742857Y-15238095D01*
X98647619Y-15285714D01*
X98600000Y-15333333D01*
X98552380Y-15428571D01*
X105357142Y-13857142D02*
X105404761Y-13809523D01*
X105452380Y-13666666D01*
X105452380Y-13571428D01*
X105404761Y-13428571D01*
X105309523Y-13333333D01*
X105214285Y-13285714D01*
X105023809Y-13238095D01*
X104880952Y-13238095D01*
X104690476Y-13285714D01*
X104595238Y-13333333D01*
X104500000Y-13428571D01*
X104452380Y-13571428D01*
X104452380Y-13666666D01*
X104500000Y-13809523D01*
X104547619Y-13857142D01*
X104452380Y-14190476D02*
X104452380Y-14809523D01*
X104833333Y-14476190D01*
X104833333Y-14619047D01*
X104880952Y-14714285D01*
X104928571Y-14761904D01*
X105023809Y-14809523D01*
X105261904Y-14809523D01*
X105357142Y-14761904D01*
X105404761Y-14714285D01*
X105452380Y-14619047D01*
X105452380Y-14333333D01*
X105404761Y-14238095D01*
X105357142Y-14190476D01*
X105452380Y-15761904D02*
X105452380Y-15190476D01*
X105452380Y-15476190D02*
X104452380Y-15476190D01*
X104595238Y-15380952D01*
X104690476Y-15285714D01*
X104738095Y-15190476D01*
X83607142Y-61357142D02*
X83654761Y-61309523D01*
X83702380Y-61166666D01*
X83702380Y-61071428D01*
X83654761Y-60928571D01*
X83559523Y-60833333D01*
X83464285Y-60785714D01*
X83273809Y-60738095D01*
X83130952Y-60738095D01*
X82940476Y-60785714D01*
X82845238Y-60833333D01*
X82750000Y-60928571D01*
X82702380Y-61071428D01*
X82702380Y-61166666D01*
X82750000Y-61309523D01*
X82797619Y-61357142D01*
X82702380Y-61690476D02*
X82702380Y-62309523D01*
X83083333Y-61976190D01*
X83083333Y-62119047D01*
X83130952Y-62214285D01*
X83178571Y-62261904D01*
X83273809Y-62309523D01*
X83511904Y-62309523D01*
X83607142Y-62261904D01*
X83654761Y-62214285D01*
X83702380Y-62119047D01*
X83702380Y-61833333D01*
X83654761Y-61738095D01*
X83607142Y-61690476D01*
X82702380Y-62642857D02*
X82702380Y-63261904D01*
X83083333Y-62928571D01*
X83083333Y-63071428D01*
X83130952Y-63166666D01*
X83178571Y-63214285D01*
X83273809Y-63261904D01*
X83511904Y-63261904D01*
X83607142Y-63214285D01*
X83654761Y-63166666D01*
X83702380Y-63071428D01*
X83702380Y-62785714D01*
X83654761Y-62690476D01*
X83607142Y-62642857D01*
X110757142Y-70857142D02*
X110804761Y-70809523D01*
X110852380Y-70666666D01*
X110852380Y-70571428D01*
X110804761Y-70428571D01*
X110709523Y-70333333D01*
X110614285Y-70285714D01*
X110423809Y-70238095D01*
X110280952Y-70238095D01*
X110090476Y-70285714D01*
X109995238Y-70333333D01*
X109900000Y-70428571D01*
X109852380Y-70571428D01*
X109852380Y-70666666D01*
X109900000Y-70809523D01*
X109947619Y-70857142D01*
X109852380Y-71190476D02*
X109852380Y-71809523D01*
X110233333Y-71476190D01*
X110233333Y-71619047D01*
X110280952Y-71714285D01*
X110328571Y-71761904D01*
X110423809Y-71809523D01*
X110661904Y-71809523D01*
X110757142Y-71761904D01*
X110804761Y-71714285D01*
X110852380Y-71619047D01*
X110852380Y-71333333D01*
X110804761Y-71238095D01*
X110757142Y-71190476D01*
X109852380Y-72714285D02*
X109852380Y-72238095D01*
X110328571Y-72190476D01*
X110280952Y-72238095D01*
X110233333Y-72333333D01*
X110233333Y-72571428D01*
X110280952Y-72666666D01*
X110328571Y-72714285D01*
X110423809Y-72761904D01*
X110661904Y-72761904D01*
X110757142Y-72714285D01*
X110804761Y-72666666D01*
X110852380Y-72571428D01*
X110852380Y-72333333D01*
X110804761Y-72238095D01*
X110757142Y-72190476D01*
X130507142Y-26357142D02*
X130554761Y-26309523D01*
X130602380Y-26166666D01*
X130602380Y-26071428D01*
X130554761Y-25928571D01*
X130459523Y-25833333D01*
X130364285Y-25785714D01*
X130173809Y-25738095D01*
X130030952Y-25738095D01*
X129840476Y-25785714D01*
X129745238Y-25833333D01*
X129650000Y-25928571D01*
X129602380Y-26071428D01*
X129602380Y-26166666D01*
X129650000Y-26309523D01*
X129697619Y-26357142D01*
X129602380Y-26690476D02*
X129602380Y-27309523D01*
X129983333Y-26976190D01*
X129983333Y-27119047D01*
X130030952Y-27214285D01*
X130078571Y-27261904D01*
X130173809Y-27309523D01*
X130411904Y-27309523D01*
X130507142Y-27261904D01*
X130554761Y-27214285D01*
X130602380Y-27119047D01*
X130602380Y-26833333D01*
X130554761Y-26738095D01*
X130507142Y-26690476D01*
X129602380Y-28166666D02*
X129602380Y-27976190D01*
X129650000Y-27880952D01*
X129697619Y-27833333D01*
X129840476Y-27738095D01*
X130030952Y-27690476D01*
X130411904Y-27690476D01*
X130507142Y-27738095D01*
X130554761Y-27785714D01*
X130602380Y-27880952D01*
X130602380Y-28071428D01*
X130554761Y-28166666D01*
X130507142Y-28214285D01*
X130411904Y-28261904D01*
X130173809Y-28261904D01*
X130078571Y-28214285D01*
X130030952Y-28166666D01*
X129983333Y-28071428D01*
X129983333Y-27880952D01*
X130030952Y-27785714D01*
X130078571Y-27738095D01*
X130173809Y-27690476D01*
X125507142Y-26357142D02*
X125554761Y-26309523D01*
X125602380Y-26166666D01*
X125602380Y-26071428D01*
X125554761Y-25928571D01*
X125459523Y-25833333D01*
X125364285Y-25785714D01*
X125173809Y-25738095D01*
X125030952Y-25738095D01*
X124840476Y-25785714D01*
X124745238Y-25833333D01*
X124650000Y-25928571D01*
X124602380Y-26071428D01*
X124602380Y-26166666D01*
X124650000Y-26309523D01*
X124697619Y-26357142D01*
X124602380Y-26690476D02*
X124602380Y-27309523D01*
X124983333Y-26976190D01*
X124983333Y-27119047D01*
X125030952Y-27214285D01*
X125078571Y-27261904D01*
X125173809Y-27309523D01*
X125411904Y-27309523D01*
X125507142Y-27261904D01*
X125554761Y-27214285D01*
X125602380Y-27119047D01*
X125602380Y-26833333D01*
X125554761Y-26738095D01*
X125507142Y-26690476D01*
X125030952Y-27880952D02*
X124983333Y-27785714D01*
X124935714Y-27738095D01*
X124840476Y-27690476D01*
X124792857Y-27690476D01*
X124697619Y-27738095D01*
X124650000Y-27785714D01*
X124602380Y-27880952D01*
X124602380Y-28071428D01*
X124650000Y-28166666D01*
X124697619Y-28214285D01*
X124792857Y-28261904D01*
X124840476Y-28261904D01*
X124935714Y-28214285D01*
X124983333Y-28166666D01*
X125030952Y-28071428D01*
X125030952Y-27880952D01*
X125078571Y-27785714D01*
X125126190Y-27738095D01*
X125221428Y-27690476D01*
X125411904Y-27690476D01*
X125507142Y-27738095D01*
X125554761Y-27785714D01*
X125602380Y-27880952D01*
X125602380Y-28071428D01*
X125554761Y-28166666D01*
X125507142Y-28214285D01*
X125411904Y-28261904D01*
X125221428Y-28261904D01*
X125126190Y-28214285D01*
X125078571Y-28166666D01*
X125030952Y-28071428D01*
X73207142Y-60357142D02*
X73254761Y-60309523D01*
X73302380Y-60166666D01*
X73302380Y-60071428D01*
X73254761Y-59928571D01*
X73159523Y-59833333D01*
X73064285Y-59785714D01*
X72873809Y-59738095D01*
X72730952Y-59738095D01*
X72540476Y-59785714D01*
X72445238Y-59833333D01*
X72350000Y-59928571D01*
X72302380Y-60071428D01*
X72302380Y-60166666D01*
X72350000Y-60309523D01*
X72397619Y-60357142D01*
X72635714Y-61214285D02*
X73302380Y-61214285D01*
X72254761Y-60976190D02*
X72969047Y-60738095D01*
X72969047Y-61357142D01*
X72302380Y-61928571D02*
X72302380Y-62023809D01*
X72350000Y-62119047D01*
X72397619Y-62166666D01*
X72492857Y-62214285D01*
X72683333Y-62261904D01*
X72921428Y-62261904D01*
X73111904Y-62214285D01*
X73207142Y-62166666D01*
X73254761Y-62119047D01*
X73302380Y-62023809D01*
X73302380Y-61928571D01*
X73254761Y-61833333D01*
X73207142Y-61785714D01*
X73111904Y-61738095D01*
X72921428Y-61690476D01*
X72683333Y-61690476D01*
X72492857Y-61738095D01*
X72397619Y-61785714D01*
X72350000Y-61833333D01*
X72302380Y-61928571D01*
X64416666Y-31852380D02*
X64750000Y-31376190D01*
X64988095Y-31852380D02*
X64988095Y-30852380D01*
X64607142Y-30852380D01*
X64511904Y-30900000D01*
X64464285Y-30947619D01*
X64416666Y-31042857D01*
X64416666Y-31185714D01*
X64464285Y-31280952D01*
X64511904Y-31328571D01*
X64607142Y-31376190D01*
X64988095Y-31376190D01*
X63464285Y-31852380D02*
X64035714Y-31852380D01*
X63750000Y-31852380D02*
X63750000Y-30852380D01*
X63845238Y-30995238D01*
X63940476Y-31090476D01*
X64035714Y-31138095D01*
X83852380Y-37583333D02*
X83376190Y-37250000D01*
X83852380Y-37011904D02*
X82852380Y-37011904D01*
X82852380Y-37392857D01*
X82900000Y-37488095D01*
X82947619Y-37535714D01*
X83042857Y-37583333D01*
X83185714Y-37583333D01*
X83280952Y-37535714D01*
X83328571Y-37488095D01*
X83376190Y-37392857D01*
X83376190Y-37011904D01*
X82947619Y-37964285D02*
X82900000Y-38011904D01*
X82852380Y-38107142D01*
X82852380Y-38345238D01*
X82900000Y-38440476D01*
X82947619Y-38488095D01*
X83042857Y-38535714D01*
X83138095Y-38535714D01*
X83280952Y-38488095D01*
X83852380Y-37916666D01*
X83852380Y-38535714D01*
X94166666Y-39952380D02*
X94500000Y-39476190D01*
X94738095Y-39952380D02*
X94738095Y-38952380D01*
X94357142Y-38952380D01*
X94261904Y-39000000D01*
X94214285Y-39047619D01*
X94166666Y-39142857D01*
X94166666Y-39285714D01*
X94214285Y-39380952D01*
X94261904Y-39428571D01*
X94357142Y-39476190D01*
X94738095Y-39476190D01*
X93833333Y-38952380D02*
X93214285Y-38952380D01*
X93547619Y-39333333D01*
X93404761Y-39333333D01*
X93309523Y-39380952D01*
X93261904Y-39428571D01*
X93214285Y-39523809D01*
X93214285Y-39761904D01*
X93261904Y-39857142D01*
X93309523Y-39904761D01*
X93404761Y-39952380D01*
X93690476Y-39952380D01*
X93785714Y-39904761D01*
X93833333Y-39857142D01*
X72261904Y-34482380D02*
X72261904Y-35291904D01*
X72214285Y-35387142D01*
X72166666Y-35434761D01*
X72071428Y-35482380D01*
X71880952Y-35482380D01*
X71785714Y-35434761D01*
X71738095Y-35387142D01*
X71690476Y-35291904D01*
X71690476Y-34482380D01*
X70690476Y-35482380D02*
X71261904Y-35482380D01*
X70976190Y-35482380D02*
X70976190Y-34482380D01*
X71071428Y-34625238D01*
X71166666Y-34720476D01*
X71261904Y-34768095D01*
X84261904Y-34482380D02*
X84261904Y-35291904D01*
X84214285Y-35387142D01*
X84166666Y-35434761D01*
X84071428Y-35482380D01*
X83880952Y-35482380D01*
X83785714Y-35434761D01*
X83738095Y-35387142D01*
X83690476Y-35291904D01*
X83690476Y-34482380D01*
X83261904Y-34577619D02*
X83214285Y-34530000D01*
X83119047Y-34482380D01*
X82880952Y-34482380D01*
X82785714Y-34530000D01*
X82738095Y-34577619D01*
X82690476Y-34672857D01*
X82690476Y-34768095D01*
X82738095Y-34910952D01*
X83309523Y-35482380D01*
X82690476Y-35482380D01*
X97852380Y-19238095D02*
X98661904Y-19238095D01*
X98757142Y-19285714D01*
X98804761Y-19333333D01*
X98852380Y-19428571D01*
X98852380Y-19619047D01*
X98804761Y-19714285D01*
X98757142Y-19761904D01*
X98661904Y-19809523D01*
X97852380Y-19809523D01*
X97852380Y-20190476D02*
X97852380Y-20809523D01*
X98233333Y-20476190D01*
X98233333Y-20619047D01*
X98280952Y-20714285D01*
X98328571Y-20761904D01*
X98423809Y-20809523D01*
X98661904Y-20809523D01*
X98757142Y-20761904D01*
X98804761Y-20714285D01*
X98852380Y-20619047D01*
X98852380Y-20333333D01*
X98804761Y-20238095D01*
X98757142Y-20190476D01*
X85852380Y-19238095D02*
X86661904Y-19238095D01*
X86757142Y-19285714D01*
X86804761Y-19333333D01*
X86852380Y-19428571D01*
X86852380Y-19619047D01*
X86804761Y-19714285D01*
X86757142Y-19761904D01*
X86661904Y-19809523D01*
X85852380Y-19809523D01*
X86185714Y-20714285D02*
X86852380Y-20714285D01*
X85804761Y-20476190D02*
X86519047Y-20238095D01*
X86519047Y-20857142D01*
X96261904Y-34482380D02*
X96261904Y-35291904D01*
X96214285Y-35387142D01*
X96166666Y-35434761D01*
X96071428Y-35482380D01*
X95880952Y-35482380D01*
X95785714Y-35434761D01*
X95738095Y-35387142D01*
X95690476Y-35291904D01*
X95690476Y-34482380D01*
X94738095Y-34482380D02*
X95214285Y-34482380D01*
X95261904Y-34958571D01*
X95214285Y-34910952D01*
X95119047Y-34863333D01*
X94880952Y-34863333D01*
X94785714Y-34910952D01*
X94738095Y-34958571D01*
X94690476Y-35053809D01*
X94690476Y-35291904D01*
X94738095Y-35387142D01*
X94785714Y-35434761D01*
X94880952Y-35482380D01*
X95119047Y-35482380D01*
X95214285Y-35434761D01*
X95261904Y-35387142D01*
X16511904Y-36302380D02*
X16511904Y-37111904D01*
X16464285Y-37207142D01*
X16416666Y-37254761D01*
X16321428Y-37302380D01*
X16130952Y-37302380D01*
X16035714Y-37254761D01*
X15988095Y-37207142D01*
X15940476Y-37111904D01*
X15940476Y-36302380D01*
X15559523Y-36302380D02*
X14892857Y-36302380D01*
X15321428Y-37302380D01*
X42511904Y-49602380D02*
X42511904Y-50411904D01*
X42464285Y-50507142D01*
X42416666Y-50554761D01*
X42321428Y-50602380D01*
X42130952Y-50602380D01*
X42035714Y-50554761D01*
X41988095Y-50507142D01*
X41940476Y-50411904D01*
X41940476Y-49602380D01*
X41321428Y-50030952D02*
X41416666Y-49983333D01*
X41464285Y-49935714D01*
X41511904Y-49840476D01*
X41511904Y-49792857D01*
X41464285Y-49697619D01*
X41416666Y-49650000D01*
X41321428Y-49602380D01*
X41130952Y-49602380D01*
X41035714Y-49650000D01*
X40988095Y-49697619D01*
X40940476Y-49792857D01*
X40940476Y-49840476D01*
X40988095Y-49935714D01*
X41035714Y-49983333D01*
X41130952Y-50030952D01*
X41321428Y-50030952D01*
X41416666Y-50078571D01*
X41464285Y-50126190D01*
X41511904Y-50221428D01*
X41511904Y-50411904D01*
X41464285Y-50507142D01*
X41416666Y-50554761D01*
X41321428Y-50602380D01*
X41130952Y-50602380D01*
X41035714Y-50554761D01*
X40988095Y-50507142D01*
X40940476Y-50411904D01*
X40940476Y-50221428D01*
X40988095Y-50126190D01*
X41035714Y-50078571D01*
X41130952Y-50030952D01*
X31011904Y-49602380D02*
X31011904Y-50411904D01*
X30964285Y-50507142D01*
X30916666Y-50554761D01*
X30821428Y-50602380D01*
X30630952Y-50602380D01*
X30535714Y-50554761D01*
X30488095Y-50507142D01*
X30440476Y-50411904D01*
X30440476Y-49602380D01*
X29916666Y-50602380D02*
X29726190Y-50602380D01*
X29630952Y-50554761D01*
X29583333Y-50507142D01*
X29488095Y-50364285D01*
X29440476Y-50173809D01*
X29440476Y-49792857D01*
X29488095Y-49697619D01*
X29535714Y-49650000D01*
X29630952Y-49602380D01*
X29821428Y-49602380D01*
X29916666Y-49650000D01*
X29964285Y-49697619D01*
X30011904Y-49792857D01*
X30011904Y-50030952D01*
X29964285Y-50126190D01*
X29916666Y-50173809D01*
X29821428Y-50221428D01*
X29630952Y-50221428D01*
X29535714Y-50173809D01*
X29488095Y-50126190D01*
X29440476Y-50030952D01*
X43852380Y-16761904D02*
X44661904Y-16761904D01*
X44757142Y-16809523D01*
X44804761Y-16857142D01*
X44852380Y-16952380D01*
X44852380Y-17142857D01*
X44804761Y-17238095D01*
X44757142Y-17285714D01*
X44661904Y-17333333D01*
X43852380Y-17333333D01*
X44852380Y-18333333D02*
X44852380Y-17761904D01*
X44852380Y-18047619D02*
X43852380Y-18047619D01*
X43995238Y-17952380D01*
X44090476Y-17857142D01*
X44138095Y-17761904D01*
X43852380Y-18952380D02*
X43852380Y-19047619D01*
X43900000Y-19142857D01*
X43947619Y-19190476D01*
X44042857Y-19238095D01*
X44233333Y-19285714D01*
X44471428Y-19285714D01*
X44661904Y-19238095D01*
X44757142Y-19190476D01*
X44804761Y-19142857D01*
X44852380Y-19047619D01*
X44852380Y-18952380D01*
X44804761Y-18857142D01*
X44757142Y-18809523D01*
X44661904Y-18761904D01*
X44471428Y-18714285D01*
X44233333Y-18714285D01*
X44042857Y-18761904D01*
X43947619Y-18809523D01*
X43900000Y-18857142D01*
X43852380Y-18952380D01*
X42988095Y-33352380D02*
X42988095Y-34161904D01*
X42940476Y-34257142D01*
X42892857Y-34304761D01*
X42797619Y-34352380D01*
X42607142Y-34352380D01*
X42511904Y-34304761D01*
X42464285Y-34257142D01*
X42416666Y-34161904D01*
X42416666Y-33352380D01*
X41416666Y-34352380D02*
X41988095Y-34352380D01*
X41702380Y-34352380D02*
X41702380Y-33352380D01*
X41797619Y-33495238D01*
X41892857Y-33590476D01*
X41988095Y-33638095D01*
X40464285Y-34352380D02*
X41035714Y-34352380D01*
X40750000Y-34352380D02*
X40750000Y-33352380D01*
X40845238Y-33495238D01*
X40940476Y-33590476D01*
X41035714Y-33638095D01*
X55352380Y-16761904D02*
X56161904Y-16761904D01*
X56257142Y-16809523D01*
X56304761Y-16857142D01*
X56352380Y-16952380D01*
X56352380Y-17142857D01*
X56304761Y-17238095D01*
X56257142Y-17285714D01*
X56161904Y-17333333D01*
X55352380Y-17333333D01*
X56352380Y-18333333D02*
X56352380Y-17761904D01*
X56352380Y-18047619D02*
X55352380Y-18047619D01*
X55495238Y-17952380D01*
X55590476Y-17857142D01*
X55638095Y-17761904D01*
X55447619Y-18714285D02*
X55400000Y-18761904D01*
X55352380Y-18857142D01*
X55352380Y-19095238D01*
X55400000Y-19190476D01*
X55447619Y-19238095D01*
X55542857Y-19285714D01*
X55638095Y-19285714D01*
X55780952Y-19238095D01*
X56352380Y-18666666D01*
X56352380Y-19285714D01*
X31488095Y-33352380D02*
X31488095Y-34161904D01*
X31440476Y-34257142D01*
X31392857Y-34304761D01*
X31297619Y-34352380D01*
X31107142Y-34352380D01*
X31011904Y-34304761D01*
X30964285Y-34257142D01*
X30916666Y-34161904D01*
X30916666Y-33352380D01*
X29916666Y-34352380D02*
X30488095Y-34352380D01*
X30202380Y-34352380D02*
X30202380Y-33352380D01*
X30297619Y-33495238D01*
X30392857Y-33590476D01*
X30488095Y-33638095D01*
X29583333Y-33352380D02*
X28964285Y-33352380D01*
X29297619Y-33733333D01*
X29154761Y-33733333D01*
X29059523Y-33780952D01*
X29011904Y-33828571D01*
X28964285Y-33923809D01*
X28964285Y-34161904D01*
X29011904Y-34257142D01*
X29059523Y-34304761D01*
X29154761Y-34352380D01*
X29440476Y-34352380D01*
X29535714Y-34304761D01*
X29583333Y-34257142D01*
X54238095Y-31982380D02*
X54238095Y-32791904D01*
X54190476Y-32887142D01*
X54142857Y-32934761D01*
X54047619Y-32982380D01*
X53857142Y-32982380D01*
X53761904Y-32934761D01*
X53714285Y-32887142D01*
X53666666Y-32791904D01*
X53666666Y-31982380D01*
X52666666Y-32982380D02*
X53238095Y-32982380D01*
X52952380Y-32982380D02*
X52952380Y-31982380D01*
X53047619Y-32125238D01*
X53142857Y-32220476D01*
X53238095Y-32268095D01*
X51809523Y-32315714D02*
X51809523Y-32982380D01*
X52047619Y-31934761D02*
X52285714Y-32649047D01*
X51666666Y-32649047D01*
X21352380Y-44261904D02*
X22161904Y-44261904D01*
X22257142Y-44309523D01*
X22304761Y-44357142D01*
X22352380Y-44452380D01*
X22352380Y-44642857D01*
X22304761Y-44738095D01*
X22257142Y-44785714D01*
X22161904Y-44833333D01*
X21352380Y-44833333D01*
X22352380Y-45833333D02*
X22352380Y-45261904D01*
X22352380Y-45547619D02*
X21352380Y-45547619D01*
X21495238Y-45452380D01*
X21590476Y-45357142D01*
X21638095Y-45261904D01*
X21352380Y-46738095D02*
X21352380Y-46261904D01*
X21828571Y-46214285D01*
X21780952Y-46261904D01*
X21733333Y-46357142D01*
X21733333Y-46595238D01*
X21780952Y-46690476D01*
X21828571Y-46738095D01*
X21923809Y-46785714D01*
X22161904Y-46785714D01*
X22257142Y-46738095D01*
X22304761Y-46690476D01*
X22352380Y-46595238D01*
X22352380Y-46357142D01*
X22304761Y-46261904D01*
X22257142Y-46214285D01*
X54238095Y-48482380D02*
X54238095Y-49291904D01*
X54190476Y-49387142D01*
X54142857Y-49434761D01*
X54047619Y-49482380D01*
X53857142Y-49482380D01*
X53761904Y-49434761D01*
X53714285Y-49387142D01*
X53666666Y-49291904D01*
X53666666Y-48482380D01*
X52666666Y-49482380D02*
X53238095Y-49482380D01*
X52952380Y-49482380D02*
X52952380Y-48482380D01*
X53047619Y-48625238D01*
X53142857Y-48720476D01*
X53238095Y-48768095D01*
X51809523Y-48482380D02*
X52000000Y-48482380D01*
X52095238Y-48530000D01*
X52142857Y-48577619D01*
X52238095Y-48720476D01*
X52285714Y-48910952D01*
X52285714Y-49291904D01*
X52238095Y-49387142D01*
X52190476Y-49434761D01*
X52095238Y-49482380D01*
X51904761Y-49482380D01*
X51809523Y-49434761D01*
X51761904Y-49387142D01*
X51714285Y-49291904D01*
X51714285Y-49053809D01*
X51761904Y-48958571D01*
X51809523Y-48910952D01*
X51904761Y-48863333D01*
X52095238Y-48863333D01*
X52190476Y-48910952D01*
X52238095Y-48958571D01*
X52285714Y-49053809D01*
X62738095Y-59752380D02*
X62738095Y-60561904D01*
X62690476Y-60657142D01*
X62642857Y-60704761D01*
X62547619Y-60752380D01*
X62357142Y-60752380D01*
X62261904Y-60704761D01*
X62214285Y-60657142D01*
X62166666Y-60561904D01*
X62166666Y-59752380D01*
X61166666Y-60752380D02*
X61738095Y-60752380D01*
X61452380Y-60752380D02*
X61452380Y-59752380D01*
X61547619Y-59895238D01*
X61642857Y-59990476D01*
X61738095Y-60038095D01*
X60833333Y-59752380D02*
X60166666Y-59752380D01*
X60595238Y-60752380D01*
X107952380Y-75761904D02*
X108761904Y-75761904D01*
X108857142Y-75809523D01*
X108904761Y-75857142D01*
X108952380Y-75952380D01*
X108952380Y-76142857D01*
X108904761Y-76238095D01*
X108857142Y-76285714D01*
X108761904Y-76333333D01*
X107952380Y-76333333D01*
X107952380Y-76714285D02*
X107952380Y-77333333D01*
X108333333Y-77000000D01*
X108333333Y-77142857D01*
X108380952Y-77238095D01*
X108428571Y-77285714D01*
X108523809Y-77333333D01*
X108761904Y-77333333D01*
X108857142Y-77285714D01*
X108904761Y-77238095D01*
X108952380Y-77142857D01*
X108952380Y-76857142D01*
X108904761Y-76761904D01*
X108857142Y-76714285D01*
X107952380Y-77666666D02*
X107952380Y-78333333D01*
X108952380Y-77904761D01*
X22988095Y-73302380D02*
X22988095Y-74111904D01*
X22940476Y-74207142D01*
X22892857Y-74254761D01*
X22797619Y-74302380D01*
X22607142Y-74302380D01*
X22511904Y-74254761D01*
X22464285Y-74207142D01*
X22416666Y-74111904D01*
X22416666Y-73302380D01*
X21416666Y-74302380D02*
X21988095Y-74302380D01*
X21702380Y-74302380D02*
X21702380Y-73302380D01*
X21797619Y-73445238D01*
X21892857Y-73540476D01*
X21988095Y-73588095D01*
X20940476Y-74302380D02*
X20750000Y-74302380D01*
X20654761Y-74254761D01*
X20607142Y-74207142D01*
X20511904Y-74064285D01*
X20464285Y-73873809D01*
X20464285Y-73492857D01*
X20511904Y-73397619D01*
X20559523Y-73350000D01*
X20654761Y-73302380D01*
X20845238Y-73302380D01*
X20940476Y-73350000D01*
X20988095Y-73397619D01*
X21035714Y-73492857D01*
X21035714Y-73730952D01*
X20988095Y-73826190D01*
X20940476Y-73873809D01*
X20845238Y-73921428D01*
X20654761Y-73921428D01*
X20559523Y-73873809D01*
X20511904Y-73826190D01*
X20464285Y-73730952D01*
X43238095Y-73302380D02*
X43238095Y-74111904D01*
X43190476Y-74207142D01*
X43142857Y-74254761D01*
X43047619Y-74302380D01*
X42857142Y-74302380D01*
X42761904Y-74254761D01*
X42714285Y-74207142D01*
X42666666Y-74111904D01*
X42666666Y-73302380D01*
X42238095Y-73397619D02*
X42190476Y-73350000D01*
X42095238Y-73302380D01*
X41857142Y-73302380D01*
X41761904Y-73350000D01*
X41714285Y-73397619D01*
X41666666Y-73492857D01*
X41666666Y-73588095D01*
X41714285Y-73730952D01*
X42285714Y-74302380D01*
X41666666Y-74302380D01*
X40714285Y-74302380D02*
X41285714Y-74302380D01*
X41000000Y-74302380D02*
X41000000Y-73302380D01*
X41095238Y-73445238D01*
X41190476Y-73540476D01*
X41285714Y-73588095D01*
X85642857Y-70707142D02*
X85690476Y-70754761D01*
X85833333Y-70802380D01*
X85928571Y-70802380D01*
X86071428Y-70754761D01*
X86166666Y-70659523D01*
X86214285Y-70564285D01*
X86261904Y-70373809D01*
X86261904Y-70230952D01*
X86214285Y-70040476D01*
X86166666Y-69945238D01*
X86071428Y-69850000D01*
X85928571Y-69802380D01*
X85833333Y-69802380D01*
X85690476Y-69850000D01*
X85642857Y-69897619D01*
X84785714Y-70135714D02*
X84785714Y-70802380D01*
X85023809Y-69754761D02*
X85261904Y-70469047D01*
X84642857Y-70469047D01*
X83833333Y-70135714D02*
X83833333Y-70802380D01*
X84071428Y-69754761D02*
X84309523Y-70469047D01*
X83690476Y-70469047D01*
X86142857Y-48707142D02*
X86190476Y-48754761D01*
X86333333Y-48802380D01*
X86428571Y-48802380D01*
X86571428Y-48754761D01*
X86666666Y-48659523D01*
X86714285Y-48564285D01*
X86761904Y-48373809D01*
X86761904Y-48230952D01*
X86714285Y-48040476D01*
X86666666Y-47945238D01*
X86571428Y-47850000D01*
X86428571Y-47802380D01*
X86333333Y-47802380D01*
X86190476Y-47850000D01*
X86142857Y-47897619D01*
X85285714Y-48135714D02*
X85285714Y-48802380D01*
X85523809Y-47754761D02*
X85761904Y-48469047D01*
X85142857Y-48469047D01*
X84285714Y-47802380D02*
X84761904Y-47802380D01*
X84809523Y-48278571D01*
X84761904Y-48230952D01*
X84666666Y-48183333D01*
X84428571Y-48183333D01*
X84333333Y-48230952D01*
X84285714Y-48278571D01*
X84238095Y-48373809D01*
X84238095Y-48611904D01*
X84285714Y-48707142D01*
X84333333Y-48754761D01*
X84428571Y-48802380D01*
X84666666Y-48802380D01*
X84761904Y-48754761D01*
X84809523Y-48707142D01*
X79238095Y-62952380D02*
X79238095Y-63761904D01*
X79190476Y-63857142D01*
X79142857Y-63904761D01*
X79047619Y-63952380D01*
X78857142Y-63952380D01*
X78761904Y-63904761D01*
X78714285Y-63857142D01*
X78666666Y-63761904D01*
X78666666Y-62952380D01*
X78238095Y-63047619D02*
X78190476Y-63000000D01*
X78095238Y-62952380D01*
X77857142Y-62952380D01*
X77761904Y-63000000D01*
X77714285Y-63047619D01*
X77666666Y-63142857D01*
X77666666Y-63238095D01*
X77714285Y-63380952D01*
X78285714Y-63952380D01*
X77666666Y-63952380D01*
X77095238Y-63380952D02*
X77190476Y-63333333D01*
X77238095Y-63285714D01*
X77285714Y-63190476D01*
X77285714Y-63142857D01*
X77238095Y-63047619D01*
X77190476Y-63000000D01*
X77095238Y-62952380D01*
X76904761Y-62952380D01*
X76809523Y-63000000D01*
X76761904Y-63047619D01*
X76714285Y-63142857D01*
X76714285Y-63190476D01*
X76761904Y-63285714D01*
X76809523Y-63333333D01*
X76904761Y-63380952D01*
X77095238Y-63380952D01*
X77190476Y-63428571D01*
X77238095Y-63476190D01*
X77285714Y-63571428D01*
X77285714Y-63761904D01*
X77238095Y-63857142D01*
X77190476Y-63904761D01*
X77095238Y-63952380D01*
X76904761Y-63952380D01*
X76809523Y-63904761D01*
X76761904Y-63857142D01*
X76714285Y-63761904D01*
X76714285Y-63571428D01*
X76761904Y-63476190D01*
X76809523Y-63428571D01*
X76904761Y-63380952D01*
X65952380Y-48761904D02*
X66761904Y-48761904D01*
X66857142Y-48809523D01*
X66904761Y-48857142D01*
X66952380Y-48952380D01*
X66952380Y-49142857D01*
X66904761Y-49238095D01*
X66857142Y-49285714D01*
X66761904Y-49333333D01*
X65952380Y-49333333D01*
X65952380Y-49714285D02*
X65952380Y-50333333D01*
X66333333Y-50000000D01*
X66333333Y-50142857D01*
X66380952Y-50238095D01*
X66428571Y-50285714D01*
X66523809Y-50333333D01*
X66761904Y-50333333D01*
X66857142Y-50285714D01*
X66904761Y-50238095D01*
X66952380Y-50142857D01*
X66952380Y-49857142D01*
X66904761Y-49761904D01*
X66857142Y-49714285D01*
X65952380Y-50952380D02*
X65952380Y-51047619D01*
X66000000Y-51142857D01*
X66047619Y-51190476D01*
X66142857Y-51238095D01*
X66333333Y-51285714D01*
X66571428Y-51285714D01*
X66761904Y-51238095D01*
X66857142Y-51190476D01*
X66904761Y-51142857D01*
X66952380Y-51047619D01*
X66952380Y-50952380D01*
X66904761Y-50857142D01*
X66857142Y-50809523D01*
X66761904Y-50761904D01*
X66571428Y-50714285D01*
X66333333Y-50714285D01*
X66142857Y-50761904D01*
X66047619Y-50809523D01*
X66000000Y-50857142D01*
X65952380Y-50952380D01*
X70452380Y-70761904D02*
X71261904Y-70761904D01*
X71357142Y-70809523D01*
X71404761Y-70857142D01*
X71452380Y-70952380D01*
X71452380Y-71142857D01*
X71404761Y-71238095D01*
X71357142Y-71285714D01*
X71261904Y-71333333D01*
X70452380Y-71333333D01*
X70452380Y-71714285D02*
X70452380Y-72333333D01*
X70833333Y-72000000D01*
X70833333Y-72142857D01*
X70880952Y-72238095D01*
X70928571Y-72285714D01*
X71023809Y-72333333D01*
X71261904Y-72333333D01*
X71357142Y-72285714D01*
X71404761Y-72238095D01*
X71452380Y-72142857D01*
X71452380Y-71857142D01*
X71404761Y-71761904D01*
X71357142Y-71714285D01*
X70547619Y-72714285D02*
X70500000Y-72761904D01*
X70452380Y-72857142D01*
X70452380Y-73095238D01*
X70500000Y-73190476D01*
X70547619Y-73238095D01*
X70642857Y-73285714D01*
X70738095Y-73285714D01*
X70880952Y-73238095D01*
X71452380Y-72666666D01*
X71452380Y-73285714D01*
M02*
