G04 #@! TF.GenerationSoftware,KiCad,Pcbnew,(5.1.10)-1*
G04 #@! TF.CreationDate,2021-07-12T23:35:15+02:00*
G04 #@! TF.ProjectId,Project_GP8B,50726f6a-6563-4745-9f47-5038422e6b69,V5.1*
G04 #@! TF.SameCoordinates,PX3a2c940PY1e0a6e0*
G04 #@! TF.FileFunction,Soldermask,Bot*
G04 #@! TF.FilePolarity,Negative*
%FSLAX46Y46*%
G04 Gerber Fmt 4.6, Leading zero omitted, Abs format (unit mm)*
G04 Created by KiCad (PCBNEW (5.1.10)-1) date 2021-07-12 23:35:15*
%MOMM*%
%LPD*%
G01*
G04 APERTURE LIST*
%ADD10C,2.000000*%
%ADD11C,3.500000*%
%ADD12C,1.750000*%
%ADD13R,1.600000X1.600000*%
%ADD14O,1.600000X1.600000*%
%ADD15R,0.650000X1.060000*%
%ADD16R,1.500000X0.600000*%
%ADD17C,3.000000*%
%ADD18R,1.000000X1.000000*%
%ADD19O,1.000000X1.000000*%
%ADD20R,0.900000X0.800000*%
%ADD21R,1.060000X0.650000*%
%ADD22R,1.700000X1.700000*%
%ADD23O,1.700000X1.700000*%
G04 APERTURE END LIST*
D10*
X128400000Y-30810000D03*
X123540000Y-30810000D03*
X128400000Y-33350000D03*
X123540000Y-33350000D03*
X128400000Y-35890000D03*
X123540000Y-35890000D03*
X128400000Y-38430000D03*
X123540000Y-38430000D03*
X128400000Y-40970000D03*
X123540000Y-40970000D03*
X128400000Y-43510000D03*
X123540000Y-43510000D03*
X128400000Y-46050000D03*
X123540000Y-46050000D03*
X128400000Y-48590000D03*
X123540000Y-48590000D03*
X128400000Y-51130000D03*
X123540000Y-51130000D03*
X128400000Y-53670000D03*
X123540000Y-53670000D03*
X128400000Y-56210000D03*
X123540000Y-56210000D03*
X128400000Y-58750000D03*
X123540000Y-58750000D03*
X128400000Y-61290000D03*
X123540000Y-61290000D03*
X128400000Y-63830000D03*
X123540000Y-63830000D03*
X128400000Y-66360000D03*
X123540000Y-66370000D03*
D11*
X21820000Y-2920000D03*
X110720000Y-2920000D03*
D12*
X105640000Y-10540000D03*
X103100000Y-10540000D03*
X100560000Y-10540000D03*
X98020000Y-10540000D03*
X95480000Y-10540000D03*
X92940000Y-10540000D03*
X90400000Y-10540000D03*
X87860000Y-10540000D03*
X85320000Y-10540000D03*
X82780000Y-10540000D03*
X80240000Y-10540000D03*
X77700000Y-10540000D03*
X75160000Y-10540000D03*
X72620000Y-10540000D03*
X70080000Y-10540000D03*
X67540000Y-10540000D03*
X65000000Y-10540000D03*
X62460000Y-10540000D03*
X59920000Y-10540000D03*
X57380000Y-10540000D03*
X54840000Y-10540000D03*
X52300000Y-10540000D03*
X49760000Y-10540000D03*
X47220000Y-10540000D03*
X44680000Y-10540000D03*
X42140000Y-10540000D03*
X39600000Y-10540000D03*
X37060000Y-10540000D03*
X34520000Y-10540000D03*
X31980000Y-10540000D03*
X29440000Y-10540000D03*
X26900000Y-10540000D03*
X105640000Y-8000000D03*
X103100000Y-8000000D03*
X100560000Y-8000000D03*
X98020000Y-8000000D03*
X95480000Y-8000000D03*
X92940000Y-8000000D03*
X90400000Y-8000000D03*
X87860000Y-8000000D03*
X85320000Y-8000000D03*
X82780000Y-8000000D03*
X80240000Y-8000000D03*
X77700000Y-8000000D03*
X75160000Y-8000000D03*
X72620000Y-8000000D03*
X70080000Y-8000000D03*
X67540000Y-8000000D03*
X65000000Y-8000000D03*
X62460000Y-8000000D03*
X59920000Y-8000000D03*
X57380000Y-8000000D03*
X54840000Y-8000000D03*
X52300000Y-8000000D03*
X49760000Y-8000000D03*
X47220000Y-8000000D03*
X44680000Y-8000000D03*
X42140000Y-8000000D03*
X39600000Y-8000000D03*
X37060000Y-8000000D03*
X34520000Y-8000000D03*
X31980000Y-8000000D03*
X29440000Y-8000000D03*
X26900000Y-8000000D03*
X105640000Y-5460000D03*
X103100000Y-5460000D03*
X100560000Y-5460000D03*
X98020000Y-5460000D03*
X95480000Y-5460000D03*
X92940000Y-5460000D03*
X90400000Y-5460000D03*
X87860000Y-5460000D03*
X85320000Y-5460000D03*
X82780000Y-5460000D03*
X80240000Y-5460000D03*
X77700000Y-5460000D03*
X75160000Y-5460000D03*
X72620000Y-5460000D03*
X70080000Y-5460000D03*
X67540000Y-5460000D03*
X65000000Y-5460000D03*
X62460000Y-5460000D03*
X59920000Y-5460000D03*
X57380000Y-5460000D03*
X54840000Y-5460000D03*
X52300000Y-5460000D03*
X49760000Y-5460000D03*
X47220000Y-5460000D03*
X44680000Y-5460000D03*
X42140000Y-5460000D03*
X39600000Y-5460000D03*
X37060000Y-5460000D03*
X34520000Y-5460000D03*
X31980000Y-5460000D03*
X29440000Y-5460000D03*
X26900000Y-5460000D03*
G36*
G01*
X76425000Y-35043750D02*
X76425000Y-35956250D01*
G75*
G02*
X76181250Y-36200000I-243750J0D01*
G01*
X75693750Y-36200000D01*
G75*
G02*
X75450000Y-35956250I0J243750D01*
G01*
X75450000Y-35043750D01*
G75*
G02*
X75693750Y-34800000I243750J0D01*
G01*
X76181250Y-34800000D01*
G75*
G02*
X76425000Y-35043750I0J-243750D01*
G01*
G37*
G36*
G01*
X74550000Y-35043750D02*
X74550000Y-35956250D01*
G75*
G02*
X74306250Y-36200000I-243750J0D01*
G01*
X73818750Y-36200000D01*
G75*
G02*
X73575000Y-35956250I0J243750D01*
G01*
X73575000Y-35043750D01*
G75*
G02*
X73818750Y-34800000I243750J0D01*
G01*
X74306250Y-34800000D01*
G75*
G02*
X74550000Y-35043750I0J-243750D01*
G01*
G37*
G36*
G01*
X88425000Y-35043750D02*
X88425000Y-35956250D01*
G75*
G02*
X88181250Y-36200000I-243750J0D01*
G01*
X87693750Y-36200000D01*
G75*
G02*
X87450000Y-35956250I0J243750D01*
G01*
X87450000Y-35043750D01*
G75*
G02*
X87693750Y-34800000I243750J0D01*
G01*
X88181250Y-34800000D01*
G75*
G02*
X88425000Y-35043750I0J-243750D01*
G01*
G37*
G36*
G01*
X86550000Y-35043750D02*
X86550000Y-35956250D01*
G75*
G02*
X86306250Y-36200000I-243750J0D01*
G01*
X85818750Y-36200000D01*
G75*
G02*
X85575000Y-35956250I0J243750D01*
G01*
X85575000Y-35043750D01*
G75*
G02*
X85818750Y-34800000I243750J0D01*
G01*
X86306250Y-34800000D01*
G75*
G02*
X86550000Y-35043750I0J-243750D01*
G01*
G37*
G36*
G01*
X98550000Y-35043750D02*
X98550000Y-35956250D01*
G75*
G02*
X98306250Y-36200000I-243750J0D01*
G01*
X97818750Y-36200000D01*
G75*
G02*
X97575000Y-35956250I0J243750D01*
G01*
X97575000Y-35043750D01*
G75*
G02*
X97818750Y-34800000I243750J0D01*
G01*
X98306250Y-34800000D01*
G75*
G02*
X98550000Y-35043750I0J-243750D01*
G01*
G37*
G36*
G01*
X100425000Y-35043750D02*
X100425000Y-35956250D01*
G75*
G02*
X100181250Y-36200000I-243750J0D01*
G01*
X99693750Y-36200000D01*
G75*
G02*
X99450000Y-35956250I0J243750D01*
G01*
X99450000Y-35043750D01*
G75*
G02*
X99693750Y-34800000I243750J0D01*
G01*
X100181250Y-34800000D01*
G75*
G02*
X100425000Y-35043750I0J-243750D01*
G01*
G37*
G36*
G01*
X19825000Y-37706250D02*
X19825000Y-36793750D01*
G75*
G02*
X20068750Y-36550000I243750J0D01*
G01*
X20556250Y-36550000D01*
G75*
G02*
X20800000Y-36793750I0J-243750D01*
G01*
X20800000Y-37706250D01*
G75*
G02*
X20556250Y-37950000I-243750J0D01*
G01*
X20068750Y-37950000D01*
G75*
G02*
X19825000Y-37706250I0J243750D01*
G01*
G37*
G36*
G01*
X21700000Y-37706250D02*
X21700000Y-36793750D01*
G75*
G02*
X21943750Y-36550000I243750J0D01*
G01*
X22431250Y-36550000D01*
G75*
G02*
X22675000Y-36793750I0J-243750D01*
G01*
X22675000Y-37706250D01*
G75*
G02*
X22431250Y-37950000I-243750J0D01*
G01*
X21943750Y-37950000D01*
G75*
G02*
X21700000Y-37706250I0J243750D01*
G01*
G37*
G36*
G01*
X35175000Y-50043750D02*
X35175000Y-50956250D01*
G75*
G02*
X34931250Y-51200000I-243750J0D01*
G01*
X34443750Y-51200000D01*
G75*
G02*
X34200000Y-50956250I0J243750D01*
G01*
X34200000Y-50043750D01*
G75*
G02*
X34443750Y-49800000I243750J0D01*
G01*
X34931250Y-49800000D01*
G75*
G02*
X35175000Y-50043750I0J-243750D01*
G01*
G37*
G36*
G01*
X33300000Y-50043750D02*
X33300000Y-50956250D01*
G75*
G02*
X33056250Y-51200000I-243750J0D01*
G01*
X32568750Y-51200000D01*
G75*
G02*
X32325000Y-50956250I0J243750D01*
G01*
X32325000Y-50043750D01*
G75*
G02*
X32568750Y-49800000I243750J0D01*
G01*
X33056250Y-49800000D01*
G75*
G02*
X33300000Y-50043750I0J-243750D01*
G01*
G37*
G36*
G01*
X44800000Y-50043750D02*
X44800000Y-50956250D01*
G75*
G02*
X44556250Y-51200000I-243750J0D01*
G01*
X44068750Y-51200000D01*
G75*
G02*
X43825000Y-50956250I0J243750D01*
G01*
X43825000Y-50043750D01*
G75*
G02*
X44068750Y-49800000I243750J0D01*
G01*
X44556250Y-49800000D01*
G75*
G02*
X44800000Y-50043750I0J-243750D01*
G01*
G37*
G36*
G01*
X46675000Y-50043750D02*
X46675000Y-50956250D01*
G75*
G02*
X46431250Y-51200000I-243750J0D01*
G01*
X45943750Y-51200000D01*
G75*
G02*
X45700000Y-50956250I0J243750D01*
G01*
X45700000Y-50043750D01*
G75*
G02*
X45943750Y-49800000I243750J0D01*
G01*
X46431250Y-49800000D01*
G75*
G02*
X46675000Y-50043750I0J-243750D01*
G01*
G37*
G36*
G01*
X35175000Y-33793750D02*
X35175000Y-34706250D01*
G75*
G02*
X34931250Y-34950000I-243750J0D01*
G01*
X34443750Y-34950000D01*
G75*
G02*
X34200000Y-34706250I0J243750D01*
G01*
X34200000Y-33793750D01*
G75*
G02*
X34443750Y-33550000I243750J0D01*
G01*
X34931250Y-33550000D01*
G75*
G02*
X35175000Y-33793750I0J-243750D01*
G01*
G37*
G36*
G01*
X33300000Y-33793750D02*
X33300000Y-34706250D01*
G75*
G02*
X33056250Y-34950000I-243750J0D01*
G01*
X32568750Y-34950000D01*
G75*
G02*
X32325000Y-34706250I0J243750D01*
G01*
X32325000Y-33793750D01*
G75*
G02*
X32568750Y-33550000I243750J0D01*
G01*
X33056250Y-33550000D01*
G75*
G02*
X33300000Y-33793750I0J-243750D01*
G01*
G37*
G36*
G01*
X44800000Y-33793750D02*
X44800000Y-34706250D01*
G75*
G02*
X44556250Y-34950000I-243750J0D01*
G01*
X44068750Y-34950000D01*
G75*
G02*
X43825000Y-34706250I0J243750D01*
G01*
X43825000Y-33793750D01*
G75*
G02*
X44068750Y-33550000I243750J0D01*
G01*
X44556250Y-33550000D01*
G75*
G02*
X44800000Y-33793750I0J-243750D01*
G01*
G37*
G36*
G01*
X46675000Y-33793750D02*
X46675000Y-34706250D01*
G75*
G02*
X46431250Y-34950000I-243750J0D01*
G01*
X45943750Y-34950000D01*
G75*
G02*
X45700000Y-34706250I0J243750D01*
G01*
X45700000Y-33793750D01*
G75*
G02*
X45943750Y-33550000I243750J0D01*
G01*
X46431250Y-33550000D01*
G75*
G02*
X46675000Y-33793750I0J-243750D01*
G01*
G37*
G36*
G01*
X57925000Y-32543750D02*
X57925000Y-33456250D01*
G75*
G02*
X57681250Y-33700000I-243750J0D01*
G01*
X57193750Y-33700000D01*
G75*
G02*
X56950000Y-33456250I0J243750D01*
G01*
X56950000Y-32543750D01*
G75*
G02*
X57193750Y-32300000I243750J0D01*
G01*
X57681250Y-32300000D01*
G75*
G02*
X57925000Y-32543750I0J-243750D01*
G01*
G37*
G36*
G01*
X56050000Y-32543750D02*
X56050000Y-33456250D01*
G75*
G02*
X55806250Y-33700000I-243750J0D01*
G01*
X55318750Y-33700000D01*
G75*
G02*
X55075000Y-33456250I0J243750D01*
G01*
X55075000Y-32543750D01*
G75*
G02*
X55318750Y-32300000I243750J0D01*
G01*
X55806250Y-32300000D01*
G75*
G02*
X56050000Y-32543750I0J-243750D01*
G01*
G37*
G36*
G01*
X21793750Y-42450000D02*
X22706250Y-42450000D01*
G75*
G02*
X22950000Y-42693750I0J-243750D01*
G01*
X22950000Y-43181250D01*
G75*
G02*
X22706250Y-43425000I-243750J0D01*
G01*
X21793750Y-43425000D01*
G75*
G02*
X21550000Y-43181250I0J243750D01*
G01*
X21550000Y-42693750D01*
G75*
G02*
X21793750Y-42450000I243750J0D01*
G01*
G37*
G36*
G01*
X21793750Y-40575000D02*
X22706250Y-40575000D01*
G75*
G02*
X22950000Y-40818750I0J-243750D01*
G01*
X22950000Y-41306250D01*
G75*
G02*
X22706250Y-41550000I-243750J0D01*
G01*
X21793750Y-41550000D01*
G75*
G02*
X21550000Y-41306250I0J243750D01*
G01*
X21550000Y-40818750D01*
G75*
G02*
X21793750Y-40575000I243750J0D01*
G01*
G37*
G36*
G01*
X56050000Y-49043750D02*
X56050000Y-49956250D01*
G75*
G02*
X55806250Y-50200000I-243750J0D01*
G01*
X55318750Y-50200000D01*
G75*
G02*
X55075000Y-49956250I0J243750D01*
G01*
X55075000Y-49043750D01*
G75*
G02*
X55318750Y-48800000I243750J0D01*
G01*
X55806250Y-48800000D01*
G75*
G02*
X56050000Y-49043750I0J-243750D01*
G01*
G37*
G36*
G01*
X57925000Y-49043750D02*
X57925000Y-49956250D01*
G75*
G02*
X57681250Y-50200000I-243750J0D01*
G01*
X57193750Y-50200000D01*
G75*
G02*
X56950000Y-49956250I0J243750D01*
G01*
X56950000Y-49043750D01*
G75*
G02*
X57193750Y-48800000I243750J0D01*
G01*
X57681250Y-48800000D01*
G75*
G02*
X57925000Y-49043750I0J-243750D01*
G01*
G37*
G36*
G01*
X54325000Y-60456250D02*
X54325000Y-59543750D01*
G75*
G02*
X54568750Y-59300000I243750J0D01*
G01*
X55056250Y-59300000D01*
G75*
G02*
X55300000Y-59543750I0J-243750D01*
G01*
X55300000Y-60456250D01*
G75*
G02*
X55056250Y-60700000I-243750J0D01*
G01*
X54568750Y-60700000D01*
G75*
G02*
X54325000Y-60456250I0J243750D01*
G01*
G37*
G36*
G01*
X56200000Y-60456250D02*
X56200000Y-59543750D01*
G75*
G02*
X56443750Y-59300000I243750J0D01*
G01*
X56931250Y-59300000D01*
G75*
G02*
X57175000Y-59543750I0J-243750D01*
G01*
X57175000Y-60456250D01*
G75*
G02*
X56931250Y-60700000I-243750J0D01*
G01*
X56443750Y-60700000D01*
G75*
G02*
X56200000Y-60456250I0J243750D01*
G01*
G37*
G36*
G01*
X48925000Y-73793750D02*
X48925000Y-74706250D01*
G75*
G02*
X48681250Y-74950000I-243750J0D01*
G01*
X48193750Y-74950000D01*
G75*
G02*
X47950000Y-74706250I0J243750D01*
G01*
X47950000Y-73793750D01*
G75*
G02*
X48193750Y-73550000I243750J0D01*
G01*
X48681250Y-73550000D01*
G75*
G02*
X48925000Y-73793750I0J-243750D01*
G01*
G37*
G36*
G01*
X47050000Y-73793750D02*
X47050000Y-74706250D01*
G75*
G02*
X46806250Y-74950000I-243750J0D01*
G01*
X46318750Y-74950000D01*
G75*
G02*
X46075000Y-74706250I0J243750D01*
G01*
X46075000Y-73793750D01*
G75*
G02*
X46318750Y-73550000I243750J0D01*
G01*
X46806250Y-73550000D01*
G75*
G02*
X47050000Y-73793750I0J-243750D01*
G01*
G37*
G36*
G01*
X26800000Y-73793750D02*
X26800000Y-74706250D01*
G75*
G02*
X26556250Y-74950000I-243750J0D01*
G01*
X26068750Y-74950000D01*
G75*
G02*
X25825000Y-74706250I0J243750D01*
G01*
X25825000Y-73793750D01*
G75*
G02*
X26068750Y-73550000I243750J0D01*
G01*
X26556250Y-73550000D01*
G75*
G02*
X26800000Y-73793750I0J-243750D01*
G01*
G37*
G36*
G01*
X28675000Y-73793750D02*
X28675000Y-74706250D01*
G75*
G02*
X28431250Y-74950000I-243750J0D01*
G01*
X27943750Y-74950000D01*
G75*
G02*
X27700000Y-74706250I0J243750D01*
G01*
X27700000Y-73793750D01*
G75*
G02*
X27943750Y-73550000I243750J0D01*
G01*
X28431250Y-73550000D01*
G75*
G02*
X28675000Y-73793750I0J-243750D01*
G01*
G37*
G36*
G01*
X100293750Y-14950000D02*
X101206250Y-14950000D01*
G75*
G02*
X101450000Y-15193750I0J-243750D01*
G01*
X101450000Y-15681250D01*
G75*
G02*
X101206250Y-15925000I-243750J0D01*
G01*
X100293750Y-15925000D01*
G75*
G02*
X100050000Y-15681250I0J243750D01*
G01*
X100050000Y-15193750D01*
G75*
G02*
X100293750Y-14950000I243750J0D01*
G01*
G37*
G36*
G01*
X100293750Y-13075000D02*
X101206250Y-13075000D01*
G75*
G02*
X101450000Y-13318750I0J-243750D01*
G01*
X101450000Y-13806250D01*
G75*
G02*
X101206250Y-14050000I-243750J0D01*
G01*
X100293750Y-14050000D01*
G75*
G02*
X100050000Y-13806250I0J243750D01*
G01*
X100050000Y-13318750D01*
G75*
G02*
X100293750Y-13075000I243750J0D01*
G01*
G37*
G36*
G01*
X102543750Y-13075000D02*
X103456250Y-13075000D01*
G75*
G02*
X103700000Y-13318750I0J-243750D01*
G01*
X103700000Y-13806250D01*
G75*
G02*
X103456250Y-14050000I-243750J0D01*
G01*
X102543750Y-14050000D01*
G75*
G02*
X102300000Y-13806250I0J243750D01*
G01*
X102300000Y-13318750D01*
G75*
G02*
X102543750Y-13075000I243750J0D01*
G01*
G37*
G36*
G01*
X102543750Y-14950000D02*
X103456250Y-14950000D01*
G75*
G02*
X103700000Y-15193750I0J-243750D01*
G01*
X103700000Y-15681250D01*
G75*
G02*
X103456250Y-15925000I-243750J0D01*
G01*
X102543750Y-15925000D01*
G75*
G02*
X102300000Y-15681250I0J243750D01*
G01*
X102300000Y-15193750D01*
G75*
G02*
X102543750Y-14950000I243750J0D01*
G01*
G37*
G36*
G01*
X81043750Y-60575000D02*
X81956250Y-60575000D01*
G75*
G02*
X82200000Y-60818750I0J-243750D01*
G01*
X82200000Y-61306250D01*
G75*
G02*
X81956250Y-61550000I-243750J0D01*
G01*
X81043750Y-61550000D01*
G75*
G02*
X80800000Y-61306250I0J243750D01*
G01*
X80800000Y-60818750D01*
G75*
G02*
X81043750Y-60575000I243750J0D01*
G01*
G37*
G36*
G01*
X81043750Y-62450000D02*
X81956250Y-62450000D01*
G75*
G02*
X82200000Y-62693750I0J-243750D01*
G01*
X82200000Y-63181250D01*
G75*
G02*
X81956250Y-63425000I-243750J0D01*
G01*
X81043750Y-63425000D01*
G75*
G02*
X80800000Y-63181250I0J243750D01*
G01*
X80800000Y-62693750D01*
G75*
G02*
X81043750Y-62450000I243750J0D01*
G01*
G37*
G36*
G01*
X109206250Y-71050000D02*
X108293750Y-71050000D01*
G75*
G02*
X108050000Y-70806250I0J243750D01*
G01*
X108050000Y-70318750D01*
G75*
G02*
X108293750Y-70075000I243750J0D01*
G01*
X109206250Y-70075000D01*
G75*
G02*
X109450000Y-70318750I0J-243750D01*
G01*
X109450000Y-70806250D01*
G75*
G02*
X109206250Y-71050000I-243750J0D01*
G01*
G37*
G36*
G01*
X109206250Y-72925000D02*
X108293750Y-72925000D01*
G75*
G02*
X108050000Y-72681250I0J243750D01*
G01*
X108050000Y-72193750D01*
G75*
G02*
X108293750Y-71950000I243750J0D01*
G01*
X109206250Y-71950000D01*
G75*
G02*
X109450000Y-72193750I0J-243750D01*
G01*
X109450000Y-72681250D01*
G75*
G02*
X109206250Y-72925000I-243750J0D01*
G01*
G37*
G36*
G01*
X128956250Y-28425000D02*
X128043750Y-28425000D01*
G75*
G02*
X127800000Y-28181250I0J243750D01*
G01*
X127800000Y-27693750D01*
G75*
G02*
X128043750Y-27450000I243750J0D01*
G01*
X128956250Y-27450000D01*
G75*
G02*
X129200000Y-27693750I0J-243750D01*
G01*
X129200000Y-28181250D01*
G75*
G02*
X128956250Y-28425000I-243750J0D01*
G01*
G37*
G36*
G01*
X128956250Y-26550000D02*
X128043750Y-26550000D01*
G75*
G02*
X127800000Y-26306250I0J243750D01*
G01*
X127800000Y-25818750D01*
G75*
G02*
X128043750Y-25575000I243750J0D01*
G01*
X128956250Y-25575000D01*
G75*
G02*
X129200000Y-25818750I0J-243750D01*
G01*
X129200000Y-26306250D01*
G75*
G02*
X128956250Y-26550000I-243750J0D01*
G01*
G37*
G36*
G01*
X123956250Y-26550000D02*
X123043750Y-26550000D01*
G75*
G02*
X122800000Y-26306250I0J243750D01*
G01*
X122800000Y-25818750D01*
G75*
G02*
X123043750Y-25575000I243750J0D01*
G01*
X123956250Y-25575000D01*
G75*
G02*
X124200000Y-25818750I0J-243750D01*
G01*
X124200000Y-26306250D01*
G75*
G02*
X123956250Y-26550000I-243750J0D01*
G01*
G37*
G36*
G01*
X123956250Y-28425000D02*
X123043750Y-28425000D01*
G75*
G02*
X122800000Y-28181250I0J243750D01*
G01*
X122800000Y-27693750D01*
G75*
G02*
X123043750Y-27450000I243750J0D01*
G01*
X123956250Y-27450000D01*
G75*
G02*
X124200000Y-27693750I0J-243750D01*
G01*
X124200000Y-28181250D01*
G75*
G02*
X123956250Y-28425000I-243750J0D01*
G01*
G37*
G36*
G01*
X74043750Y-61450000D02*
X74956250Y-61450000D01*
G75*
G02*
X75200000Y-61693750I0J-243750D01*
G01*
X75200000Y-62181250D01*
G75*
G02*
X74956250Y-62425000I-243750J0D01*
G01*
X74043750Y-62425000D01*
G75*
G02*
X73800000Y-62181250I0J243750D01*
G01*
X73800000Y-61693750D01*
G75*
G02*
X74043750Y-61450000I243750J0D01*
G01*
G37*
G36*
G01*
X74043750Y-59575000D02*
X74956250Y-59575000D01*
G75*
G02*
X75200000Y-59818750I0J-243750D01*
G01*
X75200000Y-60306250D01*
G75*
G02*
X74956250Y-60550000I-243750J0D01*
G01*
X74043750Y-60550000D01*
G75*
G02*
X73800000Y-60306250I0J243750D01*
G01*
X73800000Y-59818750D01*
G75*
G02*
X74043750Y-59575000I243750J0D01*
G01*
G37*
G36*
G01*
X62825000Y-30206250D02*
X62825000Y-29293750D01*
G75*
G02*
X63068750Y-29050000I243750J0D01*
G01*
X63556250Y-29050000D01*
G75*
G02*
X63800000Y-29293750I0J-243750D01*
G01*
X63800000Y-30206250D01*
G75*
G02*
X63556250Y-30450000I-243750J0D01*
G01*
X63068750Y-30450000D01*
G75*
G02*
X62825000Y-30206250I0J243750D01*
G01*
G37*
G36*
G01*
X64700000Y-30206250D02*
X64700000Y-29293750D01*
G75*
G02*
X64943750Y-29050000I243750J0D01*
G01*
X65431250Y-29050000D01*
G75*
G02*
X65675000Y-29293750I0J-243750D01*
G01*
X65675000Y-30206250D01*
G75*
G02*
X65431250Y-30450000I-243750J0D01*
G01*
X64943750Y-30450000D01*
G75*
G02*
X64700000Y-30206250I0J243750D01*
G01*
G37*
G36*
G01*
X82206250Y-37300000D02*
X81293750Y-37300000D01*
G75*
G02*
X81050000Y-37056250I0J243750D01*
G01*
X81050000Y-36568750D01*
G75*
G02*
X81293750Y-36325000I243750J0D01*
G01*
X82206250Y-36325000D01*
G75*
G02*
X82450000Y-36568750I0J-243750D01*
G01*
X82450000Y-37056250D01*
G75*
G02*
X82206250Y-37300000I-243750J0D01*
G01*
G37*
G36*
G01*
X82206250Y-39175000D02*
X81293750Y-39175000D01*
G75*
G02*
X81050000Y-38931250I0J243750D01*
G01*
X81050000Y-38443750D01*
G75*
G02*
X81293750Y-38200000I243750J0D01*
G01*
X82206250Y-38200000D01*
G75*
G02*
X82450000Y-38443750I0J-243750D01*
G01*
X82450000Y-38931250D01*
G75*
G02*
X82206250Y-39175000I-243750J0D01*
G01*
G37*
G36*
G01*
X95425000Y-37043750D02*
X95425000Y-37956250D01*
G75*
G02*
X95181250Y-38200000I-243750J0D01*
G01*
X94693750Y-38200000D01*
G75*
G02*
X94450000Y-37956250I0J243750D01*
G01*
X94450000Y-37043750D01*
G75*
G02*
X94693750Y-36800000I243750J0D01*
G01*
X95181250Y-36800000D01*
G75*
G02*
X95425000Y-37043750I0J-243750D01*
G01*
G37*
G36*
G01*
X93550000Y-37043750D02*
X93550000Y-37956250D01*
G75*
G02*
X93306250Y-38200000I-243750J0D01*
G01*
X92818750Y-38200000D01*
G75*
G02*
X92575000Y-37956250I0J243750D01*
G01*
X92575000Y-37043750D01*
G75*
G02*
X92818750Y-36800000I243750J0D01*
G01*
X93306250Y-36800000D01*
G75*
G02*
X93550000Y-37043750I0J-243750D01*
G01*
G37*
D13*
X34500000Y-86500000D03*
D14*
X31960000Y-86500000D03*
X29420000Y-86500000D03*
X26880000Y-86500000D03*
X24340000Y-86500000D03*
X21800000Y-86500000D03*
X19260000Y-86500000D03*
X16720000Y-86500000D03*
X14180000Y-86500000D03*
X111500000Y-50820000D03*
X111500000Y-48280000D03*
X111500000Y-45740000D03*
X111500000Y-43200000D03*
X111500000Y-40660000D03*
X111500000Y-38120000D03*
X111500000Y-35580000D03*
X111500000Y-33040000D03*
D13*
X111500000Y-30500000D03*
G36*
G01*
X68050000Y-33710000D02*
X68050000Y-33410000D01*
G75*
G02*
X68200000Y-33260000I150000J0D01*
G01*
X69850000Y-33260000D01*
G75*
G02*
X70000000Y-33410000I0J-150000D01*
G01*
X70000000Y-33710000D01*
G75*
G02*
X69850000Y-33860000I-150000J0D01*
G01*
X68200000Y-33860000D01*
G75*
G02*
X68050000Y-33710000I0J150000D01*
G01*
G37*
G36*
G01*
X68050000Y-32440000D02*
X68050000Y-32140000D01*
G75*
G02*
X68200000Y-31990000I150000J0D01*
G01*
X69850000Y-31990000D01*
G75*
G02*
X70000000Y-32140000I0J-150000D01*
G01*
X70000000Y-32440000D01*
G75*
G02*
X69850000Y-32590000I-150000J0D01*
G01*
X68200000Y-32590000D01*
G75*
G02*
X68050000Y-32440000I0J150000D01*
G01*
G37*
G36*
G01*
X68050000Y-31170000D02*
X68050000Y-30870000D01*
G75*
G02*
X68200000Y-30720000I150000J0D01*
G01*
X69850000Y-30720000D01*
G75*
G02*
X70000000Y-30870000I0J-150000D01*
G01*
X70000000Y-31170000D01*
G75*
G02*
X69850000Y-31320000I-150000J0D01*
G01*
X68200000Y-31320000D01*
G75*
G02*
X68050000Y-31170000I0J150000D01*
G01*
G37*
G36*
G01*
X68050000Y-29900000D02*
X68050000Y-29600000D01*
G75*
G02*
X68200000Y-29450000I150000J0D01*
G01*
X69850000Y-29450000D01*
G75*
G02*
X70000000Y-29600000I0J-150000D01*
G01*
X70000000Y-29900000D01*
G75*
G02*
X69850000Y-30050000I-150000J0D01*
G01*
X68200000Y-30050000D01*
G75*
G02*
X68050000Y-29900000I0J150000D01*
G01*
G37*
G36*
G01*
X68050000Y-28630000D02*
X68050000Y-28330000D01*
G75*
G02*
X68200000Y-28180000I150000J0D01*
G01*
X69850000Y-28180000D01*
G75*
G02*
X70000000Y-28330000I0J-150000D01*
G01*
X70000000Y-28630000D01*
G75*
G02*
X69850000Y-28780000I-150000J0D01*
G01*
X68200000Y-28780000D01*
G75*
G02*
X68050000Y-28630000I0J150000D01*
G01*
G37*
G36*
G01*
X68050000Y-27360000D02*
X68050000Y-27060000D01*
G75*
G02*
X68200000Y-26910000I150000J0D01*
G01*
X69850000Y-26910000D01*
G75*
G02*
X70000000Y-27060000I0J-150000D01*
G01*
X70000000Y-27360000D01*
G75*
G02*
X69850000Y-27510000I-150000J0D01*
G01*
X68200000Y-27510000D01*
G75*
G02*
X68050000Y-27360000I0J150000D01*
G01*
G37*
G36*
G01*
X68050000Y-26090000D02*
X68050000Y-25790000D01*
G75*
G02*
X68200000Y-25640000I150000J0D01*
G01*
X69850000Y-25640000D01*
G75*
G02*
X70000000Y-25790000I0J-150000D01*
G01*
X70000000Y-26090000D01*
G75*
G02*
X69850000Y-26240000I-150000J0D01*
G01*
X68200000Y-26240000D01*
G75*
G02*
X68050000Y-26090000I0J150000D01*
G01*
G37*
G36*
G01*
X73000000Y-26090000D02*
X73000000Y-25790000D01*
G75*
G02*
X73150000Y-25640000I150000J0D01*
G01*
X74800000Y-25640000D01*
G75*
G02*
X74950000Y-25790000I0J-150000D01*
G01*
X74950000Y-26090000D01*
G75*
G02*
X74800000Y-26240000I-150000J0D01*
G01*
X73150000Y-26240000D01*
G75*
G02*
X73000000Y-26090000I0J150000D01*
G01*
G37*
G36*
G01*
X73000000Y-27360000D02*
X73000000Y-27060000D01*
G75*
G02*
X73150000Y-26910000I150000J0D01*
G01*
X74800000Y-26910000D01*
G75*
G02*
X74950000Y-27060000I0J-150000D01*
G01*
X74950000Y-27360000D01*
G75*
G02*
X74800000Y-27510000I-150000J0D01*
G01*
X73150000Y-27510000D01*
G75*
G02*
X73000000Y-27360000I0J150000D01*
G01*
G37*
G36*
G01*
X73000000Y-28630000D02*
X73000000Y-28330000D01*
G75*
G02*
X73150000Y-28180000I150000J0D01*
G01*
X74800000Y-28180000D01*
G75*
G02*
X74950000Y-28330000I0J-150000D01*
G01*
X74950000Y-28630000D01*
G75*
G02*
X74800000Y-28780000I-150000J0D01*
G01*
X73150000Y-28780000D01*
G75*
G02*
X73000000Y-28630000I0J150000D01*
G01*
G37*
G36*
G01*
X73000000Y-29900000D02*
X73000000Y-29600000D01*
G75*
G02*
X73150000Y-29450000I150000J0D01*
G01*
X74800000Y-29450000D01*
G75*
G02*
X74950000Y-29600000I0J-150000D01*
G01*
X74950000Y-29900000D01*
G75*
G02*
X74800000Y-30050000I-150000J0D01*
G01*
X73150000Y-30050000D01*
G75*
G02*
X73000000Y-29900000I0J150000D01*
G01*
G37*
G36*
G01*
X73000000Y-31170000D02*
X73000000Y-30870000D01*
G75*
G02*
X73150000Y-30720000I150000J0D01*
G01*
X74800000Y-30720000D01*
G75*
G02*
X74950000Y-30870000I0J-150000D01*
G01*
X74950000Y-31170000D01*
G75*
G02*
X74800000Y-31320000I-150000J0D01*
G01*
X73150000Y-31320000D01*
G75*
G02*
X73000000Y-31170000I0J150000D01*
G01*
G37*
G36*
G01*
X73000000Y-32440000D02*
X73000000Y-32140000D01*
G75*
G02*
X73150000Y-31990000I150000J0D01*
G01*
X74800000Y-31990000D01*
G75*
G02*
X74950000Y-32140000I0J-150000D01*
G01*
X74950000Y-32440000D01*
G75*
G02*
X74800000Y-32590000I-150000J0D01*
G01*
X73150000Y-32590000D01*
G75*
G02*
X73000000Y-32440000I0J150000D01*
G01*
G37*
G36*
G01*
X73000000Y-33710000D02*
X73000000Y-33410000D01*
G75*
G02*
X73150000Y-33260000I150000J0D01*
G01*
X74800000Y-33260000D01*
G75*
G02*
X74950000Y-33410000I0J-150000D01*
G01*
X74950000Y-33710000D01*
G75*
G02*
X74800000Y-33860000I-150000J0D01*
G01*
X73150000Y-33860000D01*
G75*
G02*
X73000000Y-33710000I0J150000D01*
G01*
G37*
G36*
G01*
X85000000Y-33710000D02*
X85000000Y-33410000D01*
G75*
G02*
X85150000Y-33260000I150000J0D01*
G01*
X86800000Y-33260000D01*
G75*
G02*
X86950000Y-33410000I0J-150000D01*
G01*
X86950000Y-33710000D01*
G75*
G02*
X86800000Y-33860000I-150000J0D01*
G01*
X85150000Y-33860000D01*
G75*
G02*
X85000000Y-33710000I0J150000D01*
G01*
G37*
G36*
G01*
X85000000Y-32440000D02*
X85000000Y-32140000D01*
G75*
G02*
X85150000Y-31990000I150000J0D01*
G01*
X86800000Y-31990000D01*
G75*
G02*
X86950000Y-32140000I0J-150000D01*
G01*
X86950000Y-32440000D01*
G75*
G02*
X86800000Y-32590000I-150000J0D01*
G01*
X85150000Y-32590000D01*
G75*
G02*
X85000000Y-32440000I0J150000D01*
G01*
G37*
G36*
G01*
X85000000Y-31170000D02*
X85000000Y-30870000D01*
G75*
G02*
X85150000Y-30720000I150000J0D01*
G01*
X86800000Y-30720000D01*
G75*
G02*
X86950000Y-30870000I0J-150000D01*
G01*
X86950000Y-31170000D01*
G75*
G02*
X86800000Y-31320000I-150000J0D01*
G01*
X85150000Y-31320000D01*
G75*
G02*
X85000000Y-31170000I0J150000D01*
G01*
G37*
G36*
G01*
X85000000Y-29900000D02*
X85000000Y-29600000D01*
G75*
G02*
X85150000Y-29450000I150000J0D01*
G01*
X86800000Y-29450000D01*
G75*
G02*
X86950000Y-29600000I0J-150000D01*
G01*
X86950000Y-29900000D01*
G75*
G02*
X86800000Y-30050000I-150000J0D01*
G01*
X85150000Y-30050000D01*
G75*
G02*
X85000000Y-29900000I0J150000D01*
G01*
G37*
G36*
G01*
X85000000Y-28630000D02*
X85000000Y-28330000D01*
G75*
G02*
X85150000Y-28180000I150000J0D01*
G01*
X86800000Y-28180000D01*
G75*
G02*
X86950000Y-28330000I0J-150000D01*
G01*
X86950000Y-28630000D01*
G75*
G02*
X86800000Y-28780000I-150000J0D01*
G01*
X85150000Y-28780000D01*
G75*
G02*
X85000000Y-28630000I0J150000D01*
G01*
G37*
G36*
G01*
X85000000Y-27360000D02*
X85000000Y-27060000D01*
G75*
G02*
X85150000Y-26910000I150000J0D01*
G01*
X86800000Y-26910000D01*
G75*
G02*
X86950000Y-27060000I0J-150000D01*
G01*
X86950000Y-27360000D01*
G75*
G02*
X86800000Y-27510000I-150000J0D01*
G01*
X85150000Y-27510000D01*
G75*
G02*
X85000000Y-27360000I0J150000D01*
G01*
G37*
G36*
G01*
X85000000Y-26090000D02*
X85000000Y-25790000D01*
G75*
G02*
X85150000Y-25640000I150000J0D01*
G01*
X86800000Y-25640000D01*
G75*
G02*
X86950000Y-25790000I0J-150000D01*
G01*
X86950000Y-26090000D01*
G75*
G02*
X86800000Y-26240000I-150000J0D01*
G01*
X85150000Y-26240000D01*
G75*
G02*
X85000000Y-26090000I0J150000D01*
G01*
G37*
G36*
G01*
X80050000Y-26090000D02*
X80050000Y-25790000D01*
G75*
G02*
X80200000Y-25640000I150000J0D01*
G01*
X81850000Y-25640000D01*
G75*
G02*
X82000000Y-25790000I0J-150000D01*
G01*
X82000000Y-26090000D01*
G75*
G02*
X81850000Y-26240000I-150000J0D01*
G01*
X80200000Y-26240000D01*
G75*
G02*
X80050000Y-26090000I0J150000D01*
G01*
G37*
G36*
G01*
X80050000Y-27360000D02*
X80050000Y-27060000D01*
G75*
G02*
X80200000Y-26910000I150000J0D01*
G01*
X81850000Y-26910000D01*
G75*
G02*
X82000000Y-27060000I0J-150000D01*
G01*
X82000000Y-27360000D01*
G75*
G02*
X81850000Y-27510000I-150000J0D01*
G01*
X80200000Y-27510000D01*
G75*
G02*
X80050000Y-27360000I0J150000D01*
G01*
G37*
G36*
G01*
X80050000Y-28630000D02*
X80050000Y-28330000D01*
G75*
G02*
X80200000Y-28180000I150000J0D01*
G01*
X81850000Y-28180000D01*
G75*
G02*
X82000000Y-28330000I0J-150000D01*
G01*
X82000000Y-28630000D01*
G75*
G02*
X81850000Y-28780000I-150000J0D01*
G01*
X80200000Y-28780000D01*
G75*
G02*
X80050000Y-28630000I0J150000D01*
G01*
G37*
G36*
G01*
X80050000Y-29900000D02*
X80050000Y-29600000D01*
G75*
G02*
X80200000Y-29450000I150000J0D01*
G01*
X81850000Y-29450000D01*
G75*
G02*
X82000000Y-29600000I0J-150000D01*
G01*
X82000000Y-29900000D01*
G75*
G02*
X81850000Y-30050000I-150000J0D01*
G01*
X80200000Y-30050000D01*
G75*
G02*
X80050000Y-29900000I0J150000D01*
G01*
G37*
G36*
G01*
X80050000Y-31170000D02*
X80050000Y-30870000D01*
G75*
G02*
X80200000Y-30720000I150000J0D01*
G01*
X81850000Y-30720000D01*
G75*
G02*
X82000000Y-30870000I0J-150000D01*
G01*
X82000000Y-31170000D01*
G75*
G02*
X81850000Y-31320000I-150000J0D01*
G01*
X80200000Y-31320000D01*
G75*
G02*
X80050000Y-31170000I0J150000D01*
G01*
G37*
G36*
G01*
X80050000Y-32440000D02*
X80050000Y-32140000D01*
G75*
G02*
X80200000Y-31990000I150000J0D01*
G01*
X81850000Y-31990000D01*
G75*
G02*
X82000000Y-32140000I0J-150000D01*
G01*
X82000000Y-32440000D01*
G75*
G02*
X81850000Y-32590000I-150000J0D01*
G01*
X80200000Y-32590000D01*
G75*
G02*
X80050000Y-32440000I0J150000D01*
G01*
G37*
G36*
G01*
X80050000Y-33710000D02*
X80050000Y-33410000D01*
G75*
G02*
X80200000Y-33260000I150000J0D01*
G01*
X81850000Y-33260000D01*
G75*
G02*
X82000000Y-33410000I0J-150000D01*
G01*
X82000000Y-33710000D01*
G75*
G02*
X81850000Y-33860000I-150000J0D01*
G01*
X80200000Y-33860000D01*
G75*
G02*
X80050000Y-33710000I0J150000D01*
G01*
G37*
D15*
X96450000Y-21100000D03*
X95500000Y-21100000D03*
X94550000Y-21100000D03*
X94550000Y-18900000D03*
X96450000Y-18900000D03*
X84450000Y-18900000D03*
X82550000Y-18900000D03*
X82550000Y-21100000D03*
X83500000Y-21100000D03*
X84450000Y-21100000D03*
G36*
G01*
X92050000Y-33710000D02*
X92050000Y-33410000D01*
G75*
G02*
X92200000Y-33260000I150000J0D01*
G01*
X93850000Y-33260000D01*
G75*
G02*
X94000000Y-33410000I0J-150000D01*
G01*
X94000000Y-33710000D01*
G75*
G02*
X93850000Y-33860000I-150000J0D01*
G01*
X92200000Y-33860000D01*
G75*
G02*
X92050000Y-33710000I0J150000D01*
G01*
G37*
G36*
G01*
X92050000Y-32440000D02*
X92050000Y-32140000D01*
G75*
G02*
X92200000Y-31990000I150000J0D01*
G01*
X93850000Y-31990000D01*
G75*
G02*
X94000000Y-32140000I0J-150000D01*
G01*
X94000000Y-32440000D01*
G75*
G02*
X93850000Y-32590000I-150000J0D01*
G01*
X92200000Y-32590000D01*
G75*
G02*
X92050000Y-32440000I0J150000D01*
G01*
G37*
G36*
G01*
X92050000Y-31170000D02*
X92050000Y-30870000D01*
G75*
G02*
X92200000Y-30720000I150000J0D01*
G01*
X93850000Y-30720000D01*
G75*
G02*
X94000000Y-30870000I0J-150000D01*
G01*
X94000000Y-31170000D01*
G75*
G02*
X93850000Y-31320000I-150000J0D01*
G01*
X92200000Y-31320000D01*
G75*
G02*
X92050000Y-31170000I0J150000D01*
G01*
G37*
G36*
G01*
X92050000Y-29900000D02*
X92050000Y-29600000D01*
G75*
G02*
X92200000Y-29450000I150000J0D01*
G01*
X93850000Y-29450000D01*
G75*
G02*
X94000000Y-29600000I0J-150000D01*
G01*
X94000000Y-29900000D01*
G75*
G02*
X93850000Y-30050000I-150000J0D01*
G01*
X92200000Y-30050000D01*
G75*
G02*
X92050000Y-29900000I0J150000D01*
G01*
G37*
G36*
G01*
X92050000Y-28630000D02*
X92050000Y-28330000D01*
G75*
G02*
X92200000Y-28180000I150000J0D01*
G01*
X93850000Y-28180000D01*
G75*
G02*
X94000000Y-28330000I0J-150000D01*
G01*
X94000000Y-28630000D01*
G75*
G02*
X93850000Y-28780000I-150000J0D01*
G01*
X92200000Y-28780000D01*
G75*
G02*
X92050000Y-28630000I0J150000D01*
G01*
G37*
G36*
G01*
X92050000Y-27360000D02*
X92050000Y-27060000D01*
G75*
G02*
X92200000Y-26910000I150000J0D01*
G01*
X93850000Y-26910000D01*
G75*
G02*
X94000000Y-27060000I0J-150000D01*
G01*
X94000000Y-27360000D01*
G75*
G02*
X93850000Y-27510000I-150000J0D01*
G01*
X92200000Y-27510000D01*
G75*
G02*
X92050000Y-27360000I0J150000D01*
G01*
G37*
G36*
G01*
X92050000Y-26090000D02*
X92050000Y-25790000D01*
G75*
G02*
X92200000Y-25640000I150000J0D01*
G01*
X93850000Y-25640000D01*
G75*
G02*
X94000000Y-25790000I0J-150000D01*
G01*
X94000000Y-26090000D01*
G75*
G02*
X93850000Y-26240000I-150000J0D01*
G01*
X92200000Y-26240000D01*
G75*
G02*
X92050000Y-26090000I0J150000D01*
G01*
G37*
G36*
G01*
X97000000Y-26090000D02*
X97000000Y-25790000D01*
G75*
G02*
X97150000Y-25640000I150000J0D01*
G01*
X98800000Y-25640000D01*
G75*
G02*
X98950000Y-25790000I0J-150000D01*
G01*
X98950000Y-26090000D01*
G75*
G02*
X98800000Y-26240000I-150000J0D01*
G01*
X97150000Y-26240000D01*
G75*
G02*
X97000000Y-26090000I0J150000D01*
G01*
G37*
G36*
G01*
X97000000Y-27360000D02*
X97000000Y-27060000D01*
G75*
G02*
X97150000Y-26910000I150000J0D01*
G01*
X98800000Y-26910000D01*
G75*
G02*
X98950000Y-27060000I0J-150000D01*
G01*
X98950000Y-27360000D01*
G75*
G02*
X98800000Y-27510000I-150000J0D01*
G01*
X97150000Y-27510000D01*
G75*
G02*
X97000000Y-27360000I0J150000D01*
G01*
G37*
G36*
G01*
X97000000Y-28630000D02*
X97000000Y-28330000D01*
G75*
G02*
X97150000Y-28180000I150000J0D01*
G01*
X98800000Y-28180000D01*
G75*
G02*
X98950000Y-28330000I0J-150000D01*
G01*
X98950000Y-28630000D01*
G75*
G02*
X98800000Y-28780000I-150000J0D01*
G01*
X97150000Y-28780000D01*
G75*
G02*
X97000000Y-28630000I0J150000D01*
G01*
G37*
G36*
G01*
X97000000Y-29900000D02*
X97000000Y-29600000D01*
G75*
G02*
X97150000Y-29450000I150000J0D01*
G01*
X98800000Y-29450000D01*
G75*
G02*
X98950000Y-29600000I0J-150000D01*
G01*
X98950000Y-29900000D01*
G75*
G02*
X98800000Y-30050000I-150000J0D01*
G01*
X97150000Y-30050000D01*
G75*
G02*
X97000000Y-29900000I0J150000D01*
G01*
G37*
G36*
G01*
X97000000Y-31170000D02*
X97000000Y-30870000D01*
G75*
G02*
X97150000Y-30720000I150000J0D01*
G01*
X98800000Y-30720000D01*
G75*
G02*
X98950000Y-30870000I0J-150000D01*
G01*
X98950000Y-31170000D01*
G75*
G02*
X98800000Y-31320000I-150000J0D01*
G01*
X97150000Y-31320000D01*
G75*
G02*
X97000000Y-31170000I0J150000D01*
G01*
G37*
G36*
G01*
X97000000Y-32440000D02*
X97000000Y-32140000D01*
G75*
G02*
X97150000Y-31990000I150000J0D01*
G01*
X98800000Y-31990000D01*
G75*
G02*
X98950000Y-32140000I0J-150000D01*
G01*
X98950000Y-32440000D01*
G75*
G02*
X98800000Y-32590000I-150000J0D01*
G01*
X97150000Y-32590000D01*
G75*
G02*
X97000000Y-32440000I0J150000D01*
G01*
G37*
G36*
G01*
X97000000Y-33710000D02*
X97000000Y-33410000D01*
G75*
G02*
X97150000Y-33260000I150000J0D01*
G01*
X98800000Y-33260000D01*
G75*
G02*
X98950000Y-33410000I0J-150000D01*
G01*
X98950000Y-33710000D01*
G75*
G02*
X98800000Y-33860000I-150000J0D01*
G01*
X97150000Y-33860000D01*
G75*
G02*
X97000000Y-33710000I0J150000D01*
G01*
G37*
G36*
G01*
X10075000Y-35365000D02*
X10075000Y-35065000D01*
G75*
G02*
X10225000Y-34915000I150000J0D01*
G01*
X11975000Y-34915000D01*
G75*
G02*
X12125000Y-35065000I0J-150000D01*
G01*
X12125000Y-35365000D01*
G75*
G02*
X11975000Y-35515000I-150000J0D01*
G01*
X10225000Y-35515000D01*
G75*
G02*
X10075000Y-35365000I0J150000D01*
G01*
G37*
G36*
G01*
X10075000Y-34095000D02*
X10075000Y-33795000D01*
G75*
G02*
X10225000Y-33645000I150000J0D01*
G01*
X11975000Y-33645000D01*
G75*
G02*
X12125000Y-33795000I0J-150000D01*
G01*
X12125000Y-34095000D01*
G75*
G02*
X11975000Y-34245000I-150000J0D01*
G01*
X10225000Y-34245000D01*
G75*
G02*
X10075000Y-34095000I0J150000D01*
G01*
G37*
G36*
G01*
X10075000Y-32825000D02*
X10075000Y-32525000D01*
G75*
G02*
X10225000Y-32375000I150000J0D01*
G01*
X11975000Y-32375000D01*
G75*
G02*
X12125000Y-32525000I0J-150000D01*
G01*
X12125000Y-32825000D01*
G75*
G02*
X11975000Y-32975000I-150000J0D01*
G01*
X10225000Y-32975000D01*
G75*
G02*
X10075000Y-32825000I0J150000D01*
G01*
G37*
G36*
G01*
X10075000Y-31555000D02*
X10075000Y-31255000D01*
G75*
G02*
X10225000Y-31105000I150000J0D01*
G01*
X11975000Y-31105000D01*
G75*
G02*
X12125000Y-31255000I0J-150000D01*
G01*
X12125000Y-31555000D01*
G75*
G02*
X11975000Y-31705000I-150000J0D01*
G01*
X10225000Y-31705000D01*
G75*
G02*
X10075000Y-31555000I0J150000D01*
G01*
G37*
G36*
G01*
X10075000Y-30285000D02*
X10075000Y-29985000D01*
G75*
G02*
X10225000Y-29835000I150000J0D01*
G01*
X11975000Y-29835000D01*
G75*
G02*
X12125000Y-29985000I0J-150000D01*
G01*
X12125000Y-30285000D01*
G75*
G02*
X11975000Y-30435000I-150000J0D01*
G01*
X10225000Y-30435000D01*
G75*
G02*
X10075000Y-30285000I0J150000D01*
G01*
G37*
G36*
G01*
X10075000Y-29015000D02*
X10075000Y-28715000D01*
G75*
G02*
X10225000Y-28565000I150000J0D01*
G01*
X11975000Y-28565000D01*
G75*
G02*
X12125000Y-28715000I0J-150000D01*
G01*
X12125000Y-29015000D01*
G75*
G02*
X11975000Y-29165000I-150000J0D01*
G01*
X10225000Y-29165000D01*
G75*
G02*
X10075000Y-29015000I0J150000D01*
G01*
G37*
G36*
G01*
X10075000Y-27745000D02*
X10075000Y-27445000D01*
G75*
G02*
X10225000Y-27295000I150000J0D01*
G01*
X11975000Y-27295000D01*
G75*
G02*
X12125000Y-27445000I0J-150000D01*
G01*
X12125000Y-27745000D01*
G75*
G02*
X11975000Y-27895000I-150000J0D01*
G01*
X10225000Y-27895000D01*
G75*
G02*
X10075000Y-27745000I0J150000D01*
G01*
G37*
G36*
G01*
X10075000Y-26475000D02*
X10075000Y-26175000D01*
G75*
G02*
X10225000Y-26025000I150000J0D01*
G01*
X11975000Y-26025000D01*
G75*
G02*
X12125000Y-26175000I0J-150000D01*
G01*
X12125000Y-26475000D01*
G75*
G02*
X11975000Y-26625000I-150000J0D01*
G01*
X10225000Y-26625000D01*
G75*
G02*
X10075000Y-26475000I0J150000D01*
G01*
G37*
G36*
G01*
X10075000Y-25205000D02*
X10075000Y-24905000D01*
G75*
G02*
X10225000Y-24755000I150000J0D01*
G01*
X11975000Y-24755000D01*
G75*
G02*
X12125000Y-24905000I0J-150000D01*
G01*
X12125000Y-25205000D01*
G75*
G02*
X11975000Y-25355000I-150000J0D01*
G01*
X10225000Y-25355000D01*
G75*
G02*
X10075000Y-25205000I0J150000D01*
G01*
G37*
G36*
G01*
X10075000Y-23935000D02*
X10075000Y-23635000D01*
G75*
G02*
X10225000Y-23485000I150000J0D01*
G01*
X11975000Y-23485000D01*
G75*
G02*
X12125000Y-23635000I0J-150000D01*
G01*
X12125000Y-23935000D01*
G75*
G02*
X11975000Y-24085000I-150000J0D01*
G01*
X10225000Y-24085000D01*
G75*
G02*
X10075000Y-23935000I0J150000D01*
G01*
G37*
G36*
G01*
X19375000Y-23935000D02*
X19375000Y-23635000D01*
G75*
G02*
X19525000Y-23485000I150000J0D01*
G01*
X21275000Y-23485000D01*
G75*
G02*
X21425000Y-23635000I0J-150000D01*
G01*
X21425000Y-23935000D01*
G75*
G02*
X21275000Y-24085000I-150000J0D01*
G01*
X19525000Y-24085000D01*
G75*
G02*
X19375000Y-23935000I0J150000D01*
G01*
G37*
G36*
G01*
X19375000Y-25205000D02*
X19375000Y-24905000D01*
G75*
G02*
X19525000Y-24755000I150000J0D01*
G01*
X21275000Y-24755000D01*
G75*
G02*
X21425000Y-24905000I0J-150000D01*
G01*
X21425000Y-25205000D01*
G75*
G02*
X21275000Y-25355000I-150000J0D01*
G01*
X19525000Y-25355000D01*
G75*
G02*
X19375000Y-25205000I0J150000D01*
G01*
G37*
G36*
G01*
X19375000Y-26475000D02*
X19375000Y-26175000D01*
G75*
G02*
X19525000Y-26025000I150000J0D01*
G01*
X21275000Y-26025000D01*
G75*
G02*
X21425000Y-26175000I0J-150000D01*
G01*
X21425000Y-26475000D01*
G75*
G02*
X21275000Y-26625000I-150000J0D01*
G01*
X19525000Y-26625000D01*
G75*
G02*
X19375000Y-26475000I0J150000D01*
G01*
G37*
G36*
G01*
X19375000Y-27745000D02*
X19375000Y-27445000D01*
G75*
G02*
X19525000Y-27295000I150000J0D01*
G01*
X21275000Y-27295000D01*
G75*
G02*
X21425000Y-27445000I0J-150000D01*
G01*
X21425000Y-27745000D01*
G75*
G02*
X21275000Y-27895000I-150000J0D01*
G01*
X19525000Y-27895000D01*
G75*
G02*
X19375000Y-27745000I0J150000D01*
G01*
G37*
G36*
G01*
X19375000Y-29015000D02*
X19375000Y-28715000D01*
G75*
G02*
X19525000Y-28565000I150000J0D01*
G01*
X21275000Y-28565000D01*
G75*
G02*
X21425000Y-28715000I0J-150000D01*
G01*
X21425000Y-29015000D01*
G75*
G02*
X21275000Y-29165000I-150000J0D01*
G01*
X19525000Y-29165000D01*
G75*
G02*
X19375000Y-29015000I0J150000D01*
G01*
G37*
G36*
G01*
X19375000Y-30285000D02*
X19375000Y-29985000D01*
G75*
G02*
X19525000Y-29835000I150000J0D01*
G01*
X21275000Y-29835000D01*
G75*
G02*
X21425000Y-29985000I0J-150000D01*
G01*
X21425000Y-30285000D01*
G75*
G02*
X21275000Y-30435000I-150000J0D01*
G01*
X19525000Y-30435000D01*
G75*
G02*
X19375000Y-30285000I0J150000D01*
G01*
G37*
G36*
G01*
X19375000Y-31555000D02*
X19375000Y-31255000D01*
G75*
G02*
X19525000Y-31105000I150000J0D01*
G01*
X21275000Y-31105000D01*
G75*
G02*
X21425000Y-31255000I0J-150000D01*
G01*
X21425000Y-31555000D01*
G75*
G02*
X21275000Y-31705000I-150000J0D01*
G01*
X19525000Y-31705000D01*
G75*
G02*
X19375000Y-31555000I0J150000D01*
G01*
G37*
G36*
G01*
X19375000Y-32825000D02*
X19375000Y-32525000D01*
G75*
G02*
X19525000Y-32375000I150000J0D01*
G01*
X21275000Y-32375000D01*
G75*
G02*
X21425000Y-32525000I0J-150000D01*
G01*
X21425000Y-32825000D01*
G75*
G02*
X21275000Y-32975000I-150000J0D01*
G01*
X19525000Y-32975000D01*
G75*
G02*
X19375000Y-32825000I0J150000D01*
G01*
G37*
G36*
G01*
X19375000Y-34095000D02*
X19375000Y-33795000D01*
G75*
G02*
X19525000Y-33645000I150000J0D01*
G01*
X21275000Y-33645000D01*
G75*
G02*
X21425000Y-33795000I0J-150000D01*
G01*
X21425000Y-34095000D01*
G75*
G02*
X21275000Y-34245000I-150000J0D01*
G01*
X19525000Y-34245000D01*
G75*
G02*
X19375000Y-34095000I0J150000D01*
G01*
G37*
G36*
G01*
X19375000Y-35365000D02*
X19375000Y-35065000D01*
G75*
G02*
X19525000Y-34915000I150000J0D01*
G01*
X21275000Y-34915000D01*
G75*
G02*
X21425000Y-35065000I0J-150000D01*
G01*
X21425000Y-35365000D01*
G75*
G02*
X21275000Y-35515000I-150000J0D01*
G01*
X19525000Y-35515000D01*
G75*
G02*
X19375000Y-35365000I0J150000D01*
G01*
G37*
G36*
G01*
X43250000Y-48845000D02*
X43250000Y-48545000D01*
G75*
G02*
X43400000Y-48395000I150000J0D01*
G01*
X45050000Y-48395000D01*
G75*
G02*
X45200000Y-48545000I0J-150000D01*
G01*
X45200000Y-48845000D01*
G75*
G02*
X45050000Y-48995000I-150000J0D01*
G01*
X43400000Y-48995000D01*
G75*
G02*
X43250000Y-48845000I0J150000D01*
G01*
G37*
G36*
G01*
X43250000Y-47575000D02*
X43250000Y-47275000D01*
G75*
G02*
X43400000Y-47125000I150000J0D01*
G01*
X45050000Y-47125000D01*
G75*
G02*
X45200000Y-47275000I0J-150000D01*
G01*
X45200000Y-47575000D01*
G75*
G02*
X45050000Y-47725000I-150000J0D01*
G01*
X43400000Y-47725000D01*
G75*
G02*
X43250000Y-47575000I0J150000D01*
G01*
G37*
G36*
G01*
X43250000Y-46305000D02*
X43250000Y-46005000D01*
G75*
G02*
X43400000Y-45855000I150000J0D01*
G01*
X45050000Y-45855000D01*
G75*
G02*
X45200000Y-46005000I0J-150000D01*
G01*
X45200000Y-46305000D01*
G75*
G02*
X45050000Y-46455000I-150000J0D01*
G01*
X43400000Y-46455000D01*
G75*
G02*
X43250000Y-46305000I0J150000D01*
G01*
G37*
G36*
G01*
X43250000Y-45035000D02*
X43250000Y-44735000D01*
G75*
G02*
X43400000Y-44585000I150000J0D01*
G01*
X45050000Y-44585000D01*
G75*
G02*
X45200000Y-44735000I0J-150000D01*
G01*
X45200000Y-45035000D01*
G75*
G02*
X45050000Y-45185000I-150000J0D01*
G01*
X43400000Y-45185000D01*
G75*
G02*
X43250000Y-45035000I0J150000D01*
G01*
G37*
G36*
G01*
X43250000Y-43765000D02*
X43250000Y-43465000D01*
G75*
G02*
X43400000Y-43315000I150000J0D01*
G01*
X45050000Y-43315000D01*
G75*
G02*
X45200000Y-43465000I0J-150000D01*
G01*
X45200000Y-43765000D01*
G75*
G02*
X45050000Y-43915000I-150000J0D01*
G01*
X43400000Y-43915000D01*
G75*
G02*
X43250000Y-43765000I0J150000D01*
G01*
G37*
G36*
G01*
X43250000Y-42495000D02*
X43250000Y-42195000D01*
G75*
G02*
X43400000Y-42045000I150000J0D01*
G01*
X45050000Y-42045000D01*
G75*
G02*
X45200000Y-42195000I0J-150000D01*
G01*
X45200000Y-42495000D01*
G75*
G02*
X45050000Y-42645000I-150000J0D01*
G01*
X43400000Y-42645000D01*
G75*
G02*
X43250000Y-42495000I0J150000D01*
G01*
G37*
G36*
G01*
X43250000Y-41225000D02*
X43250000Y-40925000D01*
G75*
G02*
X43400000Y-40775000I150000J0D01*
G01*
X45050000Y-40775000D01*
G75*
G02*
X45200000Y-40925000I0J-150000D01*
G01*
X45200000Y-41225000D01*
G75*
G02*
X45050000Y-41375000I-150000J0D01*
G01*
X43400000Y-41375000D01*
G75*
G02*
X43250000Y-41225000I0J150000D01*
G01*
G37*
G36*
G01*
X43250000Y-39955000D02*
X43250000Y-39655000D01*
G75*
G02*
X43400000Y-39505000I150000J0D01*
G01*
X45050000Y-39505000D01*
G75*
G02*
X45200000Y-39655000I0J-150000D01*
G01*
X45200000Y-39955000D01*
G75*
G02*
X45050000Y-40105000I-150000J0D01*
G01*
X43400000Y-40105000D01*
G75*
G02*
X43250000Y-39955000I0J150000D01*
G01*
G37*
G36*
G01*
X38300000Y-39955000D02*
X38300000Y-39655000D01*
G75*
G02*
X38450000Y-39505000I150000J0D01*
G01*
X40100000Y-39505000D01*
G75*
G02*
X40250000Y-39655000I0J-150000D01*
G01*
X40250000Y-39955000D01*
G75*
G02*
X40100000Y-40105000I-150000J0D01*
G01*
X38450000Y-40105000D01*
G75*
G02*
X38300000Y-39955000I0J150000D01*
G01*
G37*
G36*
G01*
X38300000Y-41225000D02*
X38300000Y-40925000D01*
G75*
G02*
X38450000Y-40775000I150000J0D01*
G01*
X40100000Y-40775000D01*
G75*
G02*
X40250000Y-40925000I0J-150000D01*
G01*
X40250000Y-41225000D01*
G75*
G02*
X40100000Y-41375000I-150000J0D01*
G01*
X38450000Y-41375000D01*
G75*
G02*
X38300000Y-41225000I0J150000D01*
G01*
G37*
G36*
G01*
X38300000Y-42495000D02*
X38300000Y-42195000D01*
G75*
G02*
X38450000Y-42045000I150000J0D01*
G01*
X40100000Y-42045000D01*
G75*
G02*
X40250000Y-42195000I0J-150000D01*
G01*
X40250000Y-42495000D01*
G75*
G02*
X40100000Y-42645000I-150000J0D01*
G01*
X38450000Y-42645000D01*
G75*
G02*
X38300000Y-42495000I0J150000D01*
G01*
G37*
G36*
G01*
X38300000Y-43765000D02*
X38300000Y-43465000D01*
G75*
G02*
X38450000Y-43315000I150000J0D01*
G01*
X40100000Y-43315000D01*
G75*
G02*
X40250000Y-43465000I0J-150000D01*
G01*
X40250000Y-43765000D01*
G75*
G02*
X40100000Y-43915000I-150000J0D01*
G01*
X38450000Y-43915000D01*
G75*
G02*
X38300000Y-43765000I0J150000D01*
G01*
G37*
G36*
G01*
X38300000Y-45035000D02*
X38300000Y-44735000D01*
G75*
G02*
X38450000Y-44585000I150000J0D01*
G01*
X40100000Y-44585000D01*
G75*
G02*
X40250000Y-44735000I0J-150000D01*
G01*
X40250000Y-45035000D01*
G75*
G02*
X40100000Y-45185000I-150000J0D01*
G01*
X38450000Y-45185000D01*
G75*
G02*
X38300000Y-45035000I0J150000D01*
G01*
G37*
G36*
G01*
X38300000Y-46305000D02*
X38300000Y-46005000D01*
G75*
G02*
X38450000Y-45855000I150000J0D01*
G01*
X40100000Y-45855000D01*
G75*
G02*
X40250000Y-46005000I0J-150000D01*
G01*
X40250000Y-46305000D01*
G75*
G02*
X40100000Y-46455000I-150000J0D01*
G01*
X38450000Y-46455000D01*
G75*
G02*
X38300000Y-46305000I0J150000D01*
G01*
G37*
G36*
G01*
X38300000Y-47575000D02*
X38300000Y-47275000D01*
G75*
G02*
X38450000Y-47125000I150000J0D01*
G01*
X40100000Y-47125000D01*
G75*
G02*
X40250000Y-47275000I0J-150000D01*
G01*
X40250000Y-47575000D01*
G75*
G02*
X40100000Y-47725000I-150000J0D01*
G01*
X38450000Y-47725000D01*
G75*
G02*
X38300000Y-47575000I0J150000D01*
G01*
G37*
G36*
G01*
X38300000Y-48845000D02*
X38300000Y-48545000D01*
G75*
G02*
X38450000Y-48395000I150000J0D01*
G01*
X40100000Y-48395000D01*
G75*
G02*
X40250000Y-48545000I0J-150000D01*
G01*
X40250000Y-48845000D01*
G75*
G02*
X40100000Y-48995000I-150000J0D01*
G01*
X38450000Y-48995000D01*
G75*
G02*
X38300000Y-48845000I0J150000D01*
G01*
G37*
G36*
G01*
X26800000Y-48845000D02*
X26800000Y-48545000D01*
G75*
G02*
X26950000Y-48395000I150000J0D01*
G01*
X28600000Y-48395000D01*
G75*
G02*
X28750000Y-48545000I0J-150000D01*
G01*
X28750000Y-48845000D01*
G75*
G02*
X28600000Y-48995000I-150000J0D01*
G01*
X26950000Y-48995000D01*
G75*
G02*
X26800000Y-48845000I0J150000D01*
G01*
G37*
G36*
G01*
X26800000Y-47575000D02*
X26800000Y-47275000D01*
G75*
G02*
X26950000Y-47125000I150000J0D01*
G01*
X28600000Y-47125000D01*
G75*
G02*
X28750000Y-47275000I0J-150000D01*
G01*
X28750000Y-47575000D01*
G75*
G02*
X28600000Y-47725000I-150000J0D01*
G01*
X26950000Y-47725000D01*
G75*
G02*
X26800000Y-47575000I0J150000D01*
G01*
G37*
G36*
G01*
X26800000Y-46305000D02*
X26800000Y-46005000D01*
G75*
G02*
X26950000Y-45855000I150000J0D01*
G01*
X28600000Y-45855000D01*
G75*
G02*
X28750000Y-46005000I0J-150000D01*
G01*
X28750000Y-46305000D01*
G75*
G02*
X28600000Y-46455000I-150000J0D01*
G01*
X26950000Y-46455000D01*
G75*
G02*
X26800000Y-46305000I0J150000D01*
G01*
G37*
G36*
G01*
X26800000Y-45035000D02*
X26800000Y-44735000D01*
G75*
G02*
X26950000Y-44585000I150000J0D01*
G01*
X28600000Y-44585000D01*
G75*
G02*
X28750000Y-44735000I0J-150000D01*
G01*
X28750000Y-45035000D01*
G75*
G02*
X28600000Y-45185000I-150000J0D01*
G01*
X26950000Y-45185000D01*
G75*
G02*
X26800000Y-45035000I0J150000D01*
G01*
G37*
G36*
G01*
X26800000Y-43765000D02*
X26800000Y-43465000D01*
G75*
G02*
X26950000Y-43315000I150000J0D01*
G01*
X28600000Y-43315000D01*
G75*
G02*
X28750000Y-43465000I0J-150000D01*
G01*
X28750000Y-43765000D01*
G75*
G02*
X28600000Y-43915000I-150000J0D01*
G01*
X26950000Y-43915000D01*
G75*
G02*
X26800000Y-43765000I0J150000D01*
G01*
G37*
G36*
G01*
X26800000Y-42495000D02*
X26800000Y-42195000D01*
G75*
G02*
X26950000Y-42045000I150000J0D01*
G01*
X28600000Y-42045000D01*
G75*
G02*
X28750000Y-42195000I0J-150000D01*
G01*
X28750000Y-42495000D01*
G75*
G02*
X28600000Y-42645000I-150000J0D01*
G01*
X26950000Y-42645000D01*
G75*
G02*
X26800000Y-42495000I0J150000D01*
G01*
G37*
G36*
G01*
X26800000Y-41225000D02*
X26800000Y-40925000D01*
G75*
G02*
X26950000Y-40775000I150000J0D01*
G01*
X28600000Y-40775000D01*
G75*
G02*
X28750000Y-40925000I0J-150000D01*
G01*
X28750000Y-41225000D01*
G75*
G02*
X28600000Y-41375000I-150000J0D01*
G01*
X26950000Y-41375000D01*
G75*
G02*
X26800000Y-41225000I0J150000D01*
G01*
G37*
G36*
G01*
X26800000Y-39955000D02*
X26800000Y-39655000D01*
G75*
G02*
X26950000Y-39505000I150000J0D01*
G01*
X28600000Y-39505000D01*
G75*
G02*
X28750000Y-39655000I0J-150000D01*
G01*
X28750000Y-39955000D01*
G75*
G02*
X28600000Y-40105000I-150000J0D01*
G01*
X26950000Y-40105000D01*
G75*
G02*
X26800000Y-39955000I0J150000D01*
G01*
G37*
G36*
G01*
X31750000Y-39955000D02*
X31750000Y-39655000D01*
G75*
G02*
X31900000Y-39505000I150000J0D01*
G01*
X33550000Y-39505000D01*
G75*
G02*
X33700000Y-39655000I0J-150000D01*
G01*
X33700000Y-39955000D01*
G75*
G02*
X33550000Y-40105000I-150000J0D01*
G01*
X31900000Y-40105000D01*
G75*
G02*
X31750000Y-39955000I0J150000D01*
G01*
G37*
G36*
G01*
X31750000Y-41225000D02*
X31750000Y-40925000D01*
G75*
G02*
X31900000Y-40775000I150000J0D01*
G01*
X33550000Y-40775000D01*
G75*
G02*
X33700000Y-40925000I0J-150000D01*
G01*
X33700000Y-41225000D01*
G75*
G02*
X33550000Y-41375000I-150000J0D01*
G01*
X31900000Y-41375000D01*
G75*
G02*
X31750000Y-41225000I0J150000D01*
G01*
G37*
G36*
G01*
X31750000Y-42495000D02*
X31750000Y-42195000D01*
G75*
G02*
X31900000Y-42045000I150000J0D01*
G01*
X33550000Y-42045000D01*
G75*
G02*
X33700000Y-42195000I0J-150000D01*
G01*
X33700000Y-42495000D01*
G75*
G02*
X33550000Y-42645000I-150000J0D01*
G01*
X31900000Y-42645000D01*
G75*
G02*
X31750000Y-42495000I0J150000D01*
G01*
G37*
G36*
G01*
X31750000Y-43765000D02*
X31750000Y-43465000D01*
G75*
G02*
X31900000Y-43315000I150000J0D01*
G01*
X33550000Y-43315000D01*
G75*
G02*
X33700000Y-43465000I0J-150000D01*
G01*
X33700000Y-43765000D01*
G75*
G02*
X33550000Y-43915000I-150000J0D01*
G01*
X31900000Y-43915000D01*
G75*
G02*
X31750000Y-43765000I0J150000D01*
G01*
G37*
G36*
G01*
X31750000Y-45035000D02*
X31750000Y-44735000D01*
G75*
G02*
X31900000Y-44585000I150000J0D01*
G01*
X33550000Y-44585000D01*
G75*
G02*
X33700000Y-44735000I0J-150000D01*
G01*
X33700000Y-45035000D01*
G75*
G02*
X33550000Y-45185000I-150000J0D01*
G01*
X31900000Y-45185000D01*
G75*
G02*
X31750000Y-45035000I0J150000D01*
G01*
G37*
G36*
G01*
X31750000Y-46305000D02*
X31750000Y-46005000D01*
G75*
G02*
X31900000Y-45855000I150000J0D01*
G01*
X33550000Y-45855000D01*
G75*
G02*
X33700000Y-46005000I0J-150000D01*
G01*
X33700000Y-46305000D01*
G75*
G02*
X33550000Y-46455000I-150000J0D01*
G01*
X31900000Y-46455000D01*
G75*
G02*
X31750000Y-46305000I0J150000D01*
G01*
G37*
G36*
G01*
X31750000Y-47575000D02*
X31750000Y-47275000D01*
G75*
G02*
X31900000Y-47125000I150000J0D01*
G01*
X33550000Y-47125000D01*
G75*
G02*
X33700000Y-47275000I0J-150000D01*
G01*
X33700000Y-47575000D01*
G75*
G02*
X33550000Y-47725000I-150000J0D01*
G01*
X31900000Y-47725000D01*
G75*
G02*
X31750000Y-47575000I0J150000D01*
G01*
G37*
G36*
G01*
X31750000Y-48845000D02*
X31750000Y-48545000D01*
G75*
G02*
X31900000Y-48395000I150000J0D01*
G01*
X33550000Y-48395000D01*
G75*
G02*
X33700000Y-48545000I0J-150000D01*
G01*
X33700000Y-48845000D01*
G75*
G02*
X33550000Y-48995000I-150000J0D01*
G01*
X31900000Y-48995000D01*
G75*
G02*
X31750000Y-48845000I0J150000D01*
G01*
G37*
X42450000Y-16900000D03*
X40550000Y-16900000D03*
X40550000Y-19100000D03*
X41500000Y-19100000D03*
X42450000Y-19100000D03*
G36*
G01*
X38300000Y-32595000D02*
X38300000Y-32295000D01*
G75*
G02*
X38450000Y-32145000I150000J0D01*
G01*
X40100000Y-32145000D01*
G75*
G02*
X40250000Y-32295000I0J-150000D01*
G01*
X40250000Y-32595000D01*
G75*
G02*
X40100000Y-32745000I-150000J0D01*
G01*
X38450000Y-32745000D01*
G75*
G02*
X38300000Y-32595000I0J150000D01*
G01*
G37*
G36*
G01*
X38300000Y-31325000D02*
X38300000Y-31025000D01*
G75*
G02*
X38450000Y-30875000I150000J0D01*
G01*
X40100000Y-30875000D01*
G75*
G02*
X40250000Y-31025000I0J-150000D01*
G01*
X40250000Y-31325000D01*
G75*
G02*
X40100000Y-31475000I-150000J0D01*
G01*
X38450000Y-31475000D01*
G75*
G02*
X38300000Y-31325000I0J150000D01*
G01*
G37*
G36*
G01*
X38300000Y-30055000D02*
X38300000Y-29755000D01*
G75*
G02*
X38450000Y-29605000I150000J0D01*
G01*
X40100000Y-29605000D01*
G75*
G02*
X40250000Y-29755000I0J-150000D01*
G01*
X40250000Y-30055000D01*
G75*
G02*
X40100000Y-30205000I-150000J0D01*
G01*
X38450000Y-30205000D01*
G75*
G02*
X38300000Y-30055000I0J150000D01*
G01*
G37*
G36*
G01*
X38300000Y-28785000D02*
X38300000Y-28485000D01*
G75*
G02*
X38450000Y-28335000I150000J0D01*
G01*
X40100000Y-28335000D01*
G75*
G02*
X40250000Y-28485000I0J-150000D01*
G01*
X40250000Y-28785000D01*
G75*
G02*
X40100000Y-28935000I-150000J0D01*
G01*
X38450000Y-28935000D01*
G75*
G02*
X38300000Y-28785000I0J150000D01*
G01*
G37*
G36*
G01*
X38300000Y-27515000D02*
X38300000Y-27215000D01*
G75*
G02*
X38450000Y-27065000I150000J0D01*
G01*
X40100000Y-27065000D01*
G75*
G02*
X40250000Y-27215000I0J-150000D01*
G01*
X40250000Y-27515000D01*
G75*
G02*
X40100000Y-27665000I-150000J0D01*
G01*
X38450000Y-27665000D01*
G75*
G02*
X38300000Y-27515000I0J150000D01*
G01*
G37*
G36*
G01*
X38300000Y-26245000D02*
X38300000Y-25945000D01*
G75*
G02*
X38450000Y-25795000I150000J0D01*
G01*
X40100000Y-25795000D01*
G75*
G02*
X40250000Y-25945000I0J-150000D01*
G01*
X40250000Y-26245000D01*
G75*
G02*
X40100000Y-26395000I-150000J0D01*
G01*
X38450000Y-26395000D01*
G75*
G02*
X38300000Y-26245000I0J150000D01*
G01*
G37*
G36*
G01*
X38300000Y-24975000D02*
X38300000Y-24675000D01*
G75*
G02*
X38450000Y-24525000I150000J0D01*
G01*
X40100000Y-24525000D01*
G75*
G02*
X40250000Y-24675000I0J-150000D01*
G01*
X40250000Y-24975000D01*
G75*
G02*
X40100000Y-25125000I-150000J0D01*
G01*
X38450000Y-25125000D01*
G75*
G02*
X38300000Y-24975000I0J150000D01*
G01*
G37*
G36*
G01*
X38300000Y-23705000D02*
X38300000Y-23405000D01*
G75*
G02*
X38450000Y-23255000I150000J0D01*
G01*
X40100000Y-23255000D01*
G75*
G02*
X40250000Y-23405000I0J-150000D01*
G01*
X40250000Y-23705000D01*
G75*
G02*
X40100000Y-23855000I-150000J0D01*
G01*
X38450000Y-23855000D01*
G75*
G02*
X38300000Y-23705000I0J150000D01*
G01*
G37*
G36*
G01*
X43250000Y-23705000D02*
X43250000Y-23405000D01*
G75*
G02*
X43400000Y-23255000I150000J0D01*
G01*
X45050000Y-23255000D01*
G75*
G02*
X45200000Y-23405000I0J-150000D01*
G01*
X45200000Y-23705000D01*
G75*
G02*
X45050000Y-23855000I-150000J0D01*
G01*
X43400000Y-23855000D01*
G75*
G02*
X43250000Y-23705000I0J150000D01*
G01*
G37*
G36*
G01*
X43250000Y-24975000D02*
X43250000Y-24675000D01*
G75*
G02*
X43400000Y-24525000I150000J0D01*
G01*
X45050000Y-24525000D01*
G75*
G02*
X45200000Y-24675000I0J-150000D01*
G01*
X45200000Y-24975000D01*
G75*
G02*
X45050000Y-25125000I-150000J0D01*
G01*
X43400000Y-25125000D01*
G75*
G02*
X43250000Y-24975000I0J150000D01*
G01*
G37*
G36*
G01*
X43250000Y-26245000D02*
X43250000Y-25945000D01*
G75*
G02*
X43400000Y-25795000I150000J0D01*
G01*
X45050000Y-25795000D01*
G75*
G02*
X45200000Y-25945000I0J-150000D01*
G01*
X45200000Y-26245000D01*
G75*
G02*
X45050000Y-26395000I-150000J0D01*
G01*
X43400000Y-26395000D01*
G75*
G02*
X43250000Y-26245000I0J150000D01*
G01*
G37*
G36*
G01*
X43250000Y-27515000D02*
X43250000Y-27215000D01*
G75*
G02*
X43400000Y-27065000I150000J0D01*
G01*
X45050000Y-27065000D01*
G75*
G02*
X45200000Y-27215000I0J-150000D01*
G01*
X45200000Y-27515000D01*
G75*
G02*
X45050000Y-27665000I-150000J0D01*
G01*
X43400000Y-27665000D01*
G75*
G02*
X43250000Y-27515000I0J150000D01*
G01*
G37*
G36*
G01*
X43250000Y-28785000D02*
X43250000Y-28485000D01*
G75*
G02*
X43400000Y-28335000I150000J0D01*
G01*
X45050000Y-28335000D01*
G75*
G02*
X45200000Y-28485000I0J-150000D01*
G01*
X45200000Y-28785000D01*
G75*
G02*
X45050000Y-28935000I-150000J0D01*
G01*
X43400000Y-28935000D01*
G75*
G02*
X43250000Y-28785000I0J150000D01*
G01*
G37*
G36*
G01*
X43250000Y-30055000D02*
X43250000Y-29755000D01*
G75*
G02*
X43400000Y-29605000I150000J0D01*
G01*
X45050000Y-29605000D01*
G75*
G02*
X45200000Y-29755000I0J-150000D01*
G01*
X45200000Y-30055000D01*
G75*
G02*
X45050000Y-30205000I-150000J0D01*
G01*
X43400000Y-30205000D01*
G75*
G02*
X43250000Y-30055000I0J150000D01*
G01*
G37*
G36*
G01*
X43250000Y-31325000D02*
X43250000Y-31025000D01*
G75*
G02*
X43400000Y-30875000I150000J0D01*
G01*
X45050000Y-30875000D01*
G75*
G02*
X45200000Y-31025000I0J-150000D01*
G01*
X45200000Y-31325000D01*
G75*
G02*
X45050000Y-31475000I-150000J0D01*
G01*
X43400000Y-31475000D01*
G75*
G02*
X43250000Y-31325000I0J150000D01*
G01*
G37*
G36*
G01*
X43250000Y-32595000D02*
X43250000Y-32295000D01*
G75*
G02*
X43400000Y-32145000I150000J0D01*
G01*
X45050000Y-32145000D01*
G75*
G02*
X45200000Y-32295000I0J-150000D01*
G01*
X45200000Y-32595000D01*
G75*
G02*
X45050000Y-32745000I-150000J0D01*
G01*
X43400000Y-32745000D01*
G75*
G02*
X43250000Y-32595000I0J150000D01*
G01*
G37*
X53950000Y-19100000D03*
X53000000Y-19100000D03*
X52050000Y-19100000D03*
X52050000Y-16900000D03*
X53950000Y-16900000D03*
G36*
G01*
X31750000Y-32595000D02*
X31750000Y-32295000D01*
G75*
G02*
X31900000Y-32145000I150000J0D01*
G01*
X33550000Y-32145000D01*
G75*
G02*
X33700000Y-32295000I0J-150000D01*
G01*
X33700000Y-32595000D01*
G75*
G02*
X33550000Y-32745000I-150000J0D01*
G01*
X31900000Y-32745000D01*
G75*
G02*
X31750000Y-32595000I0J150000D01*
G01*
G37*
G36*
G01*
X31750000Y-31325000D02*
X31750000Y-31025000D01*
G75*
G02*
X31900000Y-30875000I150000J0D01*
G01*
X33550000Y-30875000D01*
G75*
G02*
X33700000Y-31025000I0J-150000D01*
G01*
X33700000Y-31325000D01*
G75*
G02*
X33550000Y-31475000I-150000J0D01*
G01*
X31900000Y-31475000D01*
G75*
G02*
X31750000Y-31325000I0J150000D01*
G01*
G37*
G36*
G01*
X31750000Y-30055000D02*
X31750000Y-29755000D01*
G75*
G02*
X31900000Y-29605000I150000J0D01*
G01*
X33550000Y-29605000D01*
G75*
G02*
X33700000Y-29755000I0J-150000D01*
G01*
X33700000Y-30055000D01*
G75*
G02*
X33550000Y-30205000I-150000J0D01*
G01*
X31900000Y-30205000D01*
G75*
G02*
X31750000Y-30055000I0J150000D01*
G01*
G37*
G36*
G01*
X31750000Y-28785000D02*
X31750000Y-28485000D01*
G75*
G02*
X31900000Y-28335000I150000J0D01*
G01*
X33550000Y-28335000D01*
G75*
G02*
X33700000Y-28485000I0J-150000D01*
G01*
X33700000Y-28785000D01*
G75*
G02*
X33550000Y-28935000I-150000J0D01*
G01*
X31900000Y-28935000D01*
G75*
G02*
X31750000Y-28785000I0J150000D01*
G01*
G37*
G36*
G01*
X31750000Y-27515000D02*
X31750000Y-27215000D01*
G75*
G02*
X31900000Y-27065000I150000J0D01*
G01*
X33550000Y-27065000D01*
G75*
G02*
X33700000Y-27215000I0J-150000D01*
G01*
X33700000Y-27515000D01*
G75*
G02*
X33550000Y-27665000I-150000J0D01*
G01*
X31900000Y-27665000D01*
G75*
G02*
X31750000Y-27515000I0J150000D01*
G01*
G37*
G36*
G01*
X31750000Y-26245000D02*
X31750000Y-25945000D01*
G75*
G02*
X31900000Y-25795000I150000J0D01*
G01*
X33550000Y-25795000D01*
G75*
G02*
X33700000Y-25945000I0J-150000D01*
G01*
X33700000Y-26245000D01*
G75*
G02*
X33550000Y-26395000I-150000J0D01*
G01*
X31900000Y-26395000D01*
G75*
G02*
X31750000Y-26245000I0J150000D01*
G01*
G37*
G36*
G01*
X31750000Y-24975000D02*
X31750000Y-24675000D01*
G75*
G02*
X31900000Y-24525000I150000J0D01*
G01*
X33550000Y-24525000D01*
G75*
G02*
X33700000Y-24675000I0J-150000D01*
G01*
X33700000Y-24975000D01*
G75*
G02*
X33550000Y-25125000I-150000J0D01*
G01*
X31900000Y-25125000D01*
G75*
G02*
X31750000Y-24975000I0J150000D01*
G01*
G37*
G36*
G01*
X31750000Y-23705000D02*
X31750000Y-23405000D01*
G75*
G02*
X31900000Y-23255000I150000J0D01*
G01*
X33550000Y-23255000D01*
G75*
G02*
X33700000Y-23405000I0J-150000D01*
G01*
X33700000Y-23705000D01*
G75*
G02*
X33550000Y-23855000I-150000J0D01*
G01*
X31900000Y-23855000D01*
G75*
G02*
X31750000Y-23705000I0J150000D01*
G01*
G37*
G36*
G01*
X26800000Y-23705000D02*
X26800000Y-23405000D01*
G75*
G02*
X26950000Y-23255000I150000J0D01*
G01*
X28600000Y-23255000D01*
G75*
G02*
X28750000Y-23405000I0J-150000D01*
G01*
X28750000Y-23705000D01*
G75*
G02*
X28600000Y-23855000I-150000J0D01*
G01*
X26950000Y-23855000D01*
G75*
G02*
X26800000Y-23705000I0J150000D01*
G01*
G37*
G36*
G01*
X26800000Y-24975000D02*
X26800000Y-24675000D01*
G75*
G02*
X26950000Y-24525000I150000J0D01*
G01*
X28600000Y-24525000D01*
G75*
G02*
X28750000Y-24675000I0J-150000D01*
G01*
X28750000Y-24975000D01*
G75*
G02*
X28600000Y-25125000I-150000J0D01*
G01*
X26950000Y-25125000D01*
G75*
G02*
X26800000Y-24975000I0J150000D01*
G01*
G37*
G36*
G01*
X26800000Y-26245000D02*
X26800000Y-25945000D01*
G75*
G02*
X26950000Y-25795000I150000J0D01*
G01*
X28600000Y-25795000D01*
G75*
G02*
X28750000Y-25945000I0J-150000D01*
G01*
X28750000Y-26245000D01*
G75*
G02*
X28600000Y-26395000I-150000J0D01*
G01*
X26950000Y-26395000D01*
G75*
G02*
X26800000Y-26245000I0J150000D01*
G01*
G37*
G36*
G01*
X26800000Y-27515000D02*
X26800000Y-27215000D01*
G75*
G02*
X26950000Y-27065000I150000J0D01*
G01*
X28600000Y-27065000D01*
G75*
G02*
X28750000Y-27215000I0J-150000D01*
G01*
X28750000Y-27515000D01*
G75*
G02*
X28600000Y-27665000I-150000J0D01*
G01*
X26950000Y-27665000D01*
G75*
G02*
X26800000Y-27515000I0J150000D01*
G01*
G37*
G36*
G01*
X26800000Y-28785000D02*
X26800000Y-28485000D01*
G75*
G02*
X26950000Y-28335000I150000J0D01*
G01*
X28600000Y-28335000D01*
G75*
G02*
X28750000Y-28485000I0J-150000D01*
G01*
X28750000Y-28785000D01*
G75*
G02*
X28600000Y-28935000I-150000J0D01*
G01*
X26950000Y-28935000D01*
G75*
G02*
X26800000Y-28785000I0J150000D01*
G01*
G37*
G36*
G01*
X26800000Y-30055000D02*
X26800000Y-29755000D01*
G75*
G02*
X26950000Y-29605000I150000J0D01*
G01*
X28600000Y-29605000D01*
G75*
G02*
X28750000Y-29755000I0J-150000D01*
G01*
X28750000Y-30055000D01*
G75*
G02*
X28600000Y-30205000I-150000J0D01*
G01*
X26950000Y-30205000D01*
G75*
G02*
X26800000Y-30055000I0J150000D01*
G01*
G37*
G36*
G01*
X26800000Y-31325000D02*
X26800000Y-31025000D01*
G75*
G02*
X26950000Y-30875000I150000J0D01*
G01*
X28600000Y-30875000D01*
G75*
G02*
X28750000Y-31025000I0J-150000D01*
G01*
X28750000Y-31325000D01*
G75*
G02*
X28600000Y-31475000I-150000J0D01*
G01*
X26950000Y-31475000D01*
G75*
G02*
X26800000Y-31325000I0J150000D01*
G01*
G37*
G36*
G01*
X26800000Y-32595000D02*
X26800000Y-32295000D01*
G75*
G02*
X26950000Y-32145000I150000J0D01*
G01*
X28600000Y-32145000D01*
G75*
G02*
X28750000Y-32295000I0J-150000D01*
G01*
X28750000Y-32595000D01*
G75*
G02*
X28600000Y-32745000I-150000J0D01*
G01*
X26950000Y-32745000D01*
G75*
G02*
X26800000Y-32595000I0J150000D01*
G01*
G37*
G36*
G01*
X49550000Y-31210000D02*
X49550000Y-30910000D01*
G75*
G02*
X49700000Y-30760000I150000J0D01*
G01*
X51350000Y-30760000D01*
G75*
G02*
X51500000Y-30910000I0J-150000D01*
G01*
X51500000Y-31210000D01*
G75*
G02*
X51350000Y-31360000I-150000J0D01*
G01*
X49700000Y-31360000D01*
G75*
G02*
X49550000Y-31210000I0J150000D01*
G01*
G37*
G36*
G01*
X49550000Y-29940000D02*
X49550000Y-29640000D01*
G75*
G02*
X49700000Y-29490000I150000J0D01*
G01*
X51350000Y-29490000D01*
G75*
G02*
X51500000Y-29640000I0J-150000D01*
G01*
X51500000Y-29940000D01*
G75*
G02*
X51350000Y-30090000I-150000J0D01*
G01*
X49700000Y-30090000D01*
G75*
G02*
X49550000Y-29940000I0J150000D01*
G01*
G37*
G36*
G01*
X49550000Y-28670000D02*
X49550000Y-28370000D01*
G75*
G02*
X49700000Y-28220000I150000J0D01*
G01*
X51350000Y-28220000D01*
G75*
G02*
X51500000Y-28370000I0J-150000D01*
G01*
X51500000Y-28670000D01*
G75*
G02*
X51350000Y-28820000I-150000J0D01*
G01*
X49700000Y-28820000D01*
G75*
G02*
X49550000Y-28670000I0J150000D01*
G01*
G37*
G36*
G01*
X49550000Y-27400000D02*
X49550000Y-27100000D01*
G75*
G02*
X49700000Y-26950000I150000J0D01*
G01*
X51350000Y-26950000D01*
G75*
G02*
X51500000Y-27100000I0J-150000D01*
G01*
X51500000Y-27400000D01*
G75*
G02*
X51350000Y-27550000I-150000J0D01*
G01*
X49700000Y-27550000D01*
G75*
G02*
X49550000Y-27400000I0J150000D01*
G01*
G37*
G36*
G01*
X49550000Y-26130000D02*
X49550000Y-25830000D01*
G75*
G02*
X49700000Y-25680000I150000J0D01*
G01*
X51350000Y-25680000D01*
G75*
G02*
X51500000Y-25830000I0J-150000D01*
G01*
X51500000Y-26130000D01*
G75*
G02*
X51350000Y-26280000I-150000J0D01*
G01*
X49700000Y-26280000D01*
G75*
G02*
X49550000Y-26130000I0J150000D01*
G01*
G37*
G36*
G01*
X49550000Y-24860000D02*
X49550000Y-24560000D01*
G75*
G02*
X49700000Y-24410000I150000J0D01*
G01*
X51350000Y-24410000D01*
G75*
G02*
X51500000Y-24560000I0J-150000D01*
G01*
X51500000Y-24860000D01*
G75*
G02*
X51350000Y-25010000I-150000J0D01*
G01*
X49700000Y-25010000D01*
G75*
G02*
X49550000Y-24860000I0J150000D01*
G01*
G37*
G36*
G01*
X49550000Y-23590000D02*
X49550000Y-23290000D01*
G75*
G02*
X49700000Y-23140000I150000J0D01*
G01*
X51350000Y-23140000D01*
G75*
G02*
X51500000Y-23290000I0J-150000D01*
G01*
X51500000Y-23590000D01*
G75*
G02*
X51350000Y-23740000I-150000J0D01*
G01*
X49700000Y-23740000D01*
G75*
G02*
X49550000Y-23590000I0J150000D01*
G01*
G37*
G36*
G01*
X54500000Y-23590000D02*
X54500000Y-23290000D01*
G75*
G02*
X54650000Y-23140000I150000J0D01*
G01*
X56300000Y-23140000D01*
G75*
G02*
X56450000Y-23290000I0J-150000D01*
G01*
X56450000Y-23590000D01*
G75*
G02*
X56300000Y-23740000I-150000J0D01*
G01*
X54650000Y-23740000D01*
G75*
G02*
X54500000Y-23590000I0J150000D01*
G01*
G37*
G36*
G01*
X54500000Y-24860000D02*
X54500000Y-24560000D01*
G75*
G02*
X54650000Y-24410000I150000J0D01*
G01*
X56300000Y-24410000D01*
G75*
G02*
X56450000Y-24560000I0J-150000D01*
G01*
X56450000Y-24860000D01*
G75*
G02*
X56300000Y-25010000I-150000J0D01*
G01*
X54650000Y-25010000D01*
G75*
G02*
X54500000Y-24860000I0J150000D01*
G01*
G37*
G36*
G01*
X54500000Y-26130000D02*
X54500000Y-25830000D01*
G75*
G02*
X54650000Y-25680000I150000J0D01*
G01*
X56300000Y-25680000D01*
G75*
G02*
X56450000Y-25830000I0J-150000D01*
G01*
X56450000Y-26130000D01*
G75*
G02*
X56300000Y-26280000I-150000J0D01*
G01*
X54650000Y-26280000D01*
G75*
G02*
X54500000Y-26130000I0J150000D01*
G01*
G37*
G36*
G01*
X54500000Y-27400000D02*
X54500000Y-27100000D01*
G75*
G02*
X54650000Y-26950000I150000J0D01*
G01*
X56300000Y-26950000D01*
G75*
G02*
X56450000Y-27100000I0J-150000D01*
G01*
X56450000Y-27400000D01*
G75*
G02*
X56300000Y-27550000I-150000J0D01*
G01*
X54650000Y-27550000D01*
G75*
G02*
X54500000Y-27400000I0J150000D01*
G01*
G37*
G36*
G01*
X54500000Y-28670000D02*
X54500000Y-28370000D01*
G75*
G02*
X54650000Y-28220000I150000J0D01*
G01*
X56300000Y-28220000D01*
G75*
G02*
X56450000Y-28370000I0J-150000D01*
G01*
X56450000Y-28670000D01*
G75*
G02*
X56300000Y-28820000I-150000J0D01*
G01*
X54650000Y-28820000D01*
G75*
G02*
X54500000Y-28670000I0J150000D01*
G01*
G37*
G36*
G01*
X54500000Y-29940000D02*
X54500000Y-29640000D01*
G75*
G02*
X54650000Y-29490000I150000J0D01*
G01*
X56300000Y-29490000D01*
G75*
G02*
X56450000Y-29640000I0J-150000D01*
G01*
X56450000Y-29940000D01*
G75*
G02*
X56300000Y-30090000I-150000J0D01*
G01*
X54650000Y-30090000D01*
G75*
G02*
X54500000Y-29940000I0J150000D01*
G01*
G37*
G36*
G01*
X54500000Y-31210000D02*
X54500000Y-30910000D01*
G75*
G02*
X54650000Y-30760000I150000J0D01*
G01*
X56300000Y-30760000D01*
G75*
G02*
X56450000Y-30910000I0J-150000D01*
G01*
X56450000Y-31210000D01*
G75*
G02*
X56300000Y-31360000I-150000J0D01*
G01*
X54650000Y-31360000D01*
G75*
G02*
X54500000Y-31210000I0J150000D01*
G01*
G37*
G36*
G01*
X20595000Y-48950000D02*
X20295000Y-48950000D01*
G75*
G02*
X20145000Y-48800000I0J150000D01*
G01*
X20145000Y-47150000D01*
G75*
G02*
X20295000Y-47000000I150000J0D01*
G01*
X20595000Y-47000000D01*
G75*
G02*
X20745000Y-47150000I0J-150000D01*
G01*
X20745000Y-48800000D01*
G75*
G02*
X20595000Y-48950000I-150000J0D01*
G01*
G37*
G36*
G01*
X19325000Y-48950000D02*
X19025000Y-48950000D01*
G75*
G02*
X18875000Y-48800000I0J150000D01*
G01*
X18875000Y-47150000D01*
G75*
G02*
X19025000Y-47000000I150000J0D01*
G01*
X19325000Y-47000000D01*
G75*
G02*
X19475000Y-47150000I0J-150000D01*
G01*
X19475000Y-48800000D01*
G75*
G02*
X19325000Y-48950000I-150000J0D01*
G01*
G37*
G36*
G01*
X18055000Y-48950000D02*
X17755000Y-48950000D01*
G75*
G02*
X17605000Y-48800000I0J150000D01*
G01*
X17605000Y-47150000D01*
G75*
G02*
X17755000Y-47000000I150000J0D01*
G01*
X18055000Y-47000000D01*
G75*
G02*
X18205000Y-47150000I0J-150000D01*
G01*
X18205000Y-48800000D01*
G75*
G02*
X18055000Y-48950000I-150000J0D01*
G01*
G37*
G36*
G01*
X16785000Y-48950000D02*
X16485000Y-48950000D01*
G75*
G02*
X16335000Y-48800000I0J150000D01*
G01*
X16335000Y-47150000D01*
G75*
G02*
X16485000Y-47000000I150000J0D01*
G01*
X16785000Y-47000000D01*
G75*
G02*
X16935000Y-47150000I0J-150000D01*
G01*
X16935000Y-48800000D01*
G75*
G02*
X16785000Y-48950000I-150000J0D01*
G01*
G37*
G36*
G01*
X15515000Y-48950000D02*
X15215000Y-48950000D01*
G75*
G02*
X15065000Y-48800000I0J150000D01*
G01*
X15065000Y-47150000D01*
G75*
G02*
X15215000Y-47000000I150000J0D01*
G01*
X15515000Y-47000000D01*
G75*
G02*
X15665000Y-47150000I0J-150000D01*
G01*
X15665000Y-48800000D01*
G75*
G02*
X15515000Y-48950000I-150000J0D01*
G01*
G37*
G36*
G01*
X14245000Y-48950000D02*
X13945000Y-48950000D01*
G75*
G02*
X13795000Y-48800000I0J150000D01*
G01*
X13795000Y-47150000D01*
G75*
G02*
X13945000Y-47000000I150000J0D01*
G01*
X14245000Y-47000000D01*
G75*
G02*
X14395000Y-47150000I0J-150000D01*
G01*
X14395000Y-48800000D01*
G75*
G02*
X14245000Y-48950000I-150000J0D01*
G01*
G37*
G36*
G01*
X12975000Y-48950000D02*
X12675000Y-48950000D01*
G75*
G02*
X12525000Y-48800000I0J150000D01*
G01*
X12525000Y-47150000D01*
G75*
G02*
X12675000Y-47000000I150000J0D01*
G01*
X12975000Y-47000000D01*
G75*
G02*
X13125000Y-47150000I0J-150000D01*
G01*
X13125000Y-48800000D01*
G75*
G02*
X12975000Y-48950000I-150000J0D01*
G01*
G37*
G36*
G01*
X11705000Y-48950000D02*
X11405000Y-48950000D01*
G75*
G02*
X11255000Y-48800000I0J150000D01*
G01*
X11255000Y-47150000D01*
G75*
G02*
X11405000Y-47000000I150000J0D01*
G01*
X11705000Y-47000000D01*
G75*
G02*
X11855000Y-47150000I0J-150000D01*
G01*
X11855000Y-48800000D01*
G75*
G02*
X11705000Y-48950000I-150000J0D01*
G01*
G37*
G36*
G01*
X11705000Y-44000000D02*
X11405000Y-44000000D01*
G75*
G02*
X11255000Y-43850000I0J150000D01*
G01*
X11255000Y-42200000D01*
G75*
G02*
X11405000Y-42050000I150000J0D01*
G01*
X11705000Y-42050000D01*
G75*
G02*
X11855000Y-42200000I0J-150000D01*
G01*
X11855000Y-43850000D01*
G75*
G02*
X11705000Y-44000000I-150000J0D01*
G01*
G37*
G36*
G01*
X12975000Y-44000000D02*
X12675000Y-44000000D01*
G75*
G02*
X12525000Y-43850000I0J150000D01*
G01*
X12525000Y-42200000D01*
G75*
G02*
X12675000Y-42050000I150000J0D01*
G01*
X12975000Y-42050000D01*
G75*
G02*
X13125000Y-42200000I0J-150000D01*
G01*
X13125000Y-43850000D01*
G75*
G02*
X12975000Y-44000000I-150000J0D01*
G01*
G37*
G36*
G01*
X14245000Y-44000000D02*
X13945000Y-44000000D01*
G75*
G02*
X13795000Y-43850000I0J150000D01*
G01*
X13795000Y-42200000D01*
G75*
G02*
X13945000Y-42050000I150000J0D01*
G01*
X14245000Y-42050000D01*
G75*
G02*
X14395000Y-42200000I0J-150000D01*
G01*
X14395000Y-43850000D01*
G75*
G02*
X14245000Y-44000000I-150000J0D01*
G01*
G37*
G36*
G01*
X15515000Y-44000000D02*
X15215000Y-44000000D01*
G75*
G02*
X15065000Y-43850000I0J150000D01*
G01*
X15065000Y-42200000D01*
G75*
G02*
X15215000Y-42050000I150000J0D01*
G01*
X15515000Y-42050000D01*
G75*
G02*
X15665000Y-42200000I0J-150000D01*
G01*
X15665000Y-43850000D01*
G75*
G02*
X15515000Y-44000000I-150000J0D01*
G01*
G37*
G36*
G01*
X16785000Y-44000000D02*
X16485000Y-44000000D01*
G75*
G02*
X16335000Y-43850000I0J150000D01*
G01*
X16335000Y-42200000D01*
G75*
G02*
X16485000Y-42050000I150000J0D01*
G01*
X16785000Y-42050000D01*
G75*
G02*
X16935000Y-42200000I0J-150000D01*
G01*
X16935000Y-43850000D01*
G75*
G02*
X16785000Y-44000000I-150000J0D01*
G01*
G37*
G36*
G01*
X18055000Y-44000000D02*
X17755000Y-44000000D01*
G75*
G02*
X17605000Y-43850000I0J150000D01*
G01*
X17605000Y-42200000D01*
G75*
G02*
X17755000Y-42050000I150000J0D01*
G01*
X18055000Y-42050000D01*
G75*
G02*
X18205000Y-42200000I0J-150000D01*
G01*
X18205000Y-43850000D01*
G75*
G02*
X18055000Y-44000000I-150000J0D01*
G01*
G37*
G36*
G01*
X19325000Y-44000000D02*
X19025000Y-44000000D01*
G75*
G02*
X18875000Y-43850000I0J150000D01*
G01*
X18875000Y-42200000D01*
G75*
G02*
X19025000Y-42050000I150000J0D01*
G01*
X19325000Y-42050000D01*
G75*
G02*
X19475000Y-42200000I0J-150000D01*
G01*
X19475000Y-43850000D01*
G75*
G02*
X19325000Y-44000000I-150000J0D01*
G01*
G37*
G36*
G01*
X20595000Y-44000000D02*
X20295000Y-44000000D01*
G75*
G02*
X20145000Y-43850000I0J150000D01*
G01*
X20145000Y-42200000D01*
G75*
G02*
X20295000Y-42050000I150000J0D01*
G01*
X20595000Y-42050000D01*
G75*
G02*
X20745000Y-42200000I0J-150000D01*
G01*
X20745000Y-43850000D01*
G75*
G02*
X20595000Y-44000000I-150000J0D01*
G01*
G37*
G36*
G01*
X54500000Y-47710000D02*
X54500000Y-47410000D01*
G75*
G02*
X54650000Y-47260000I150000J0D01*
G01*
X56300000Y-47260000D01*
G75*
G02*
X56450000Y-47410000I0J-150000D01*
G01*
X56450000Y-47710000D01*
G75*
G02*
X56300000Y-47860000I-150000J0D01*
G01*
X54650000Y-47860000D01*
G75*
G02*
X54500000Y-47710000I0J150000D01*
G01*
G37*
G36*
G01*
X54500000Y-46440000D02*
X54500000Y-46140000D01*
G75*
G02*
X54650000Y-45990000I150000J0D01*
G01*
X56300000Y-45990000D01*
G75*
G02*
X56450000Y-46140000I0J-150000D01*
G01*
X56450000Y-46440000D01*
G75*
G02*
X56300000Y-46590000I-150000J0D01*
G01*
X54650000Y-46590000D01*
G75*
G02*
X54500000Y-46440000I0J150000D01*
G01*
G37*
G36*
G01*
X54500000Y-45170000D02*
X54500000Y-44870000D01*
G75*
G02*
X54650000Y-44720000I150000J0D01*
G01*
X56300000Y-44720000D01*
G75*
G02*
X56450000Y-44870000I0J-150000D01*
G01*
X56450000Y-45170000D01*
G75*
G02*
X56300000Y-45320000I-150000J0D01*
G01*
X54650000Y-45320000D01*
G75*
G02*
X54500000Y-45170000I0J150000D01*
G01*
G37*
G36*
G01*
X54500000Y-43900000D02*
X54500000Y-43600000D01*
G75*
G02*
X54650000Y-43450000I150000J0D01*
G01*
X56300000Y-43450000D01*
G75*
G02*
X56450000Y-43600000I0J-150000D01*
G01*
X56450000Y-43900000D01*
G75*
G02*
X56300000Y-44050000I-150000J0D01*
G01*
X54650000Y-44050000D01*
G75*
G02*
X54500000Y-43900000I0J150000D01*
G01*
G37*
G36*
G01*
X54500000Y-42630000D02*
X54500000Y-42330000D01*
G75*
G02*
X54650000Y-42180000I150000J0D01*
G01*
X56300000Y-42180000D01*
G75*
G02*
X56450000Y-42330000I0J-150000D01*
G01*
X56450000Y-42630000D01*
G75*
G02*
X56300000Y-42780000I-150000J0D01*
G01*
X54650000Y-42780000D01*
G75*
G02*
X54500000Y-42630000I0J150000D01*
G01*
G37*
G36*
G01*
X54500000Y-41360000D02*
X54500000Y-41060000D01*
G75*
G02*
X54650000Y-40910000I150000J0D01*
G01*
X56300000Y-40910000D01*
G75*
G02*
X56450000Y-41060000I0J-150000D01*
G01*
X56450000Y-41360000D01*
G75*
G02*
X56300000Y-41510000I-150000J0D01*
G01*
X54650000Y-41510000D01*
G75*
G02*
X54500000Y-41360000I0J150000D01*
G01*
G37*
G36*
G01*
X54500000Y-40090000D02*
X54500000Y-39790000D01*
G75*
G02*
X54650000Y-39640000I150000J0D01*
G01*
X56300000Y-39640000D01*
G75*
G02*
X56450000Y-39790000I0J-150000D01*
G01*
X56450000Y-40090000D01*
G75*
G02*
X56300000Y-40240000I-150000J0D01*
G01*
X54650000Y-40240000D01*
G75*
G02*
X54500000Y-40090000I0J150000D01*
G01*
G37*
G36*
G01*
X49550000Y-40090000D02*
X49550000Y-39790000D01*
G75*
G02*
X49700000Y-39640000I150000J0D01*
G01*
X51350000Y-39640000D01*
G75*
G02*
X51500000Y-39790000I0J-150000D01*
G01*
X51500000Y-40090000D01*
G75*
G02*
X51350000Y-40240000I-150000J0D01*
G01*
X49700000Y-40240000D01*
G75*
G02*
X49550000Y-40090000I0J150000D01*
G01*
G37*
G36*
G01*
X49550000Y-41360000D02*
X49550000Y-41060000D01*
G75*
G02*
X49700000Y-40910000I150000J0D01*
G01*
X51350000Y-40910000D01*
G75*
G02*
X51500000Y-41060000I0J-150000D01*
G01*
X51500000Y-41360000D01*
G75*
G02*
X51350000Y-41510000I-150000J0D01*
G01*
X49700000Y-41510000D01*
G75*
G02*
X49550000Y-41360000I0J150000D01*
G01*
G37*
G36*
G01*
X49550000Y-42630000D02*
X49550000Y-42330000D01*
G75*
G02*
X49700000Y-42180000I150000J0D01*
G01*
X51350000Y-42180000D01*
G75*
G02*
X51500000Y-42330000I0J-150000D01*
G01*
X51500000Y-42630000D01*
G75*
G02*
X51350000Y-42780000I-150000J0D01*
G01*
X49700000Y-42780000D01*
G75*
G02*
X49550000Y-42630000I0J150000D01*
G01*
G37*
G36*
G01*
X49550000Y-43900000D02*
X49550000Y-43600000D01*
G75*
G02*
X49700000Y-43450000I150000J0D01*
G01*
X51350000Y-43450000D01*
G75*
G02*
X51500000Y-43600000I0J-150000D01*
G01*
X51500000Y-43900000D01*
G75*
G02*
X51350000Y-44050000I-150000J0D01*
G01*
X49700000Y-44050000D01*
G75*
G02*
X49550000Y-43900000I0J150000D01*
G01*
G37*
G36*
G01*
X49550000Y-45170000D02*
X49550000Y-44870000D01*
G75*
G02*
X49700000Y-44720000I150000J0D01*
G01*
X51350000Y-44720000D01*
G75*
G02*
X51500000Y-44870000I0J-150000D01*
G01*
X51500000Y-45170000D01*
G75*
G02*
X51350000Y-45320000I-150000J0D01*
G01*
X49700000Y-45320000D01*
G75*
G02*
X49550000Y-45170000I0J150000D01*
G01*
G37*
G36*
G01*
X49550000Y-46440000D02*
X49550000Y-46140000D01*
G75*
G02*
X49700000Y-45990000I150000J0D01*
G01*
X51350000Y-45990000D01*
G75*
G02*
X51500000Y-46140000I0J-150000D01*
G01*
X51500000Y-46440000D01*
G75*
G02*
X51350000Y-46590000I-150000J0D01*
G01*
X49700000Y-46590000D01*
G75*
G02*
X49550000Y-46440000I0J150000D01*
G01*
G37*
G36*
G01*
X49550000Y-47710000D02*
X49550000Y-47410000D01*
G75*
G02*
X49700000Y-47260000I150000J0D01*
G01*
X51350000Y-47260000D01*
G75*
G02*
X51500000Y-47410000I0J-150000D01*
G01*
X51500000Y-47710000D01*
G75*
G02*
X51350000Y-47860000I-150000J0D01*
G01*
X49700000Y-47860000D01*
G75*
G02*
X49550000Y-47710000I0J150000D01*
G01*
G37*
D16*
X63800000Y-62055000D03*
X63800000Y-63325000D03*
X63800000Y-64595000D03*
X63800000Y-65865000D03*
X63800000Y-67135000D03*
X63800000Y-68405000D03*
X63800000Y-69675000D03*
X63800000Y-70945000D03*
X56700000Y-70945000D03*
X56700000Y-69675000D03*
X56700000Y-68405000D03*
X56700000Y-67135000D03*
X56700000Y-65865000D03*
X56700000Y-64595000D03*
X56700000Y-63325000D03*
X56700000Y-62055000D03*
G36*
G01*
X106865000Y-82675000D02*
X106565000Y-82675000D01*
G75*
G02*
X106415000Y-82525000I0J150000D01*
G01*
X106415000Y-80775000D01*
G75*
G02*
X106565000Y-80625000I150000J0D01*
G01*
X106865000Y-80625000D01*
G75*
G02*
X107015000Y-80775000I0J-150000D01*
G01*
X107015000Y-82525000D01*
G75*
G02*
X106865000Y-82675000I-150000J0D01*
G01*
G37*
G36*
G01*
X105595000Y-82675000D02*
X105295000Y-82675000D01*
G75*
G02*
X105145000Y-82525000I0J150000D01*
G01*
X105145000Y-80775000D01*
G75*
G02*
X105295000Y-80625000I150000J0D01*
G01*
X105595000Y-80625000D01*
G75*
G02*
X105745000Y-80775000I0J-150000D01*
G01*
X105745000Y-82525000D01*
G75*
G02*
X105595000Y-82675000I-150000J0D01*
G01*
G37*
G36*
G01*
X104325000Y-82675000D02*
X104025000Y-82675000D01*
G75*
G02*
X103875000Y-82525000I0J150000D01*
G01*
X103875000Y-80775000D01*
G75*
G02*
X104025000Y-80625000I150000J0D01*
G01*
X104325000Y-80625000D01*
G75*
G02*
X104475000Y-80775000I0J-150000D01*
G01*
X104475000Y-82525000D01*
G75*
G02*
X104325000Y-82675000I-150000J0D01*
G01*
G37*
G36*
G01*
X103055000Y-82675000D02*
X102755000Y-82675000D01*
G75*
G02*
X102605000Y-82525000I0J150000D01*
G01*
X102605000Y-80775000D01*
G75*
G02*
X102755000Y-80625000I150000J0D01*
G01*
X103055000Y-80625000D01*
G75*
G02*
X103205000Y-80775000I0J-150000D01*
G01*
X103205000Y-82525000D01*
G75*
G02*
X103055000Y-82675000I-150000J0D01*
G01*
G37*
G36*
G01*
X101785000Y-82675000D02*
X101485000Y-82675000D01*
G75*
G02*
X101335000Y-82525000I0J150000D01*
G01*
X101335000Y-80775000D01*
G75*
G02*
X101485000Y-80625000I150000J0D01*
G01*
X101785000Y-80625000D01*
G75*
G02*
X101935000Y-80775000I0J-150000D01*
G01*
X101935000Y-82525000D01*
G75*
G02*
X101785000Y-82675000I-150000J0D01*
G01*
G37*
G36*
G01*
X100515000Y-82675000D02*
X100215000Y-82675000D01*
G75*
G02*
X100065000Y-82525000I0J150000D01*
G01*
X100065000Y-80775000D01*
G75*
G02*
X100215000Y-80625000I150000J0D01*
G01*
X100515000Y-80625000D01*
G75*
G02*
X100665000Y-80775000I0J-150000D01*
G01*
X100665000Y-82525000D01*
G75*
G02*
X100515000Y-82675000I-150000J0D01*
G01*
G37*
G36*
G01*
X99245000Y-82675000D02*
X98945000Y-82675000D01*
G75*
G02*
X98795000Y-82525000I0J150000D01*
G01*
X98795000Y-80775000D01*
G75*
G02*
X98945000Y-80625000I150000J0D01*
G01*
X99245000Y-80625000D01*
G75*
G02*
X99395000Y-80775000I0J-150000D01*
G01*
X99395000Y-82525000D01*
G75*
G02*
X99245000Y-82675000I-150000J0D01*
G01*
G37*
G36*
G01*
X97975000Y-82675000D02*
X97675000Y-82675000D01*
G75*
G02*
X97525000Y-82525000I0J150000D01*
G01*
X97525000Y-80775000D01*
G75*
G02*
X97675000Y-80625000I150000J0D01*
G01*
X97975000Y-80625000D01*
G75*
G02*
X98125000Y-80775000I0J-150000D01*
G01*
X98125000Y-82525000D01*
G75*
G02*
X97975000Y-82675000I-150000J0D01*
G01*
G37*
G36*
G01*
X96705000Y-82675000D02*
X96405000Y-82675000D01*
G75*
G02*
X96255000Y-82525000I0J150000D01*
G01*
X96255000Y-80775000D01*
G75*
G02*
X96405000Y-80625000I150000J0D01*
G01*
X96705000Y-80625000D01*
G75*
G02*
X96855000Y-80775000I0J-150000D01*
G01*
X96855000Y-82525000D01*
G75*
G02*
X96705000Y-82675000I-150000J0D01*
G01*
G37*
G36*
G01*
X95435000Y-82675000D02*
X95135000Y-82675000D01*
G75*
G02*
X94985000Y-82525000I0J150000D01*
G01*
X94985000Y-80775000D01*
G75*
G02*
X95135000Y-80625000I150000J0D01*
G01*
X95435000Y-80625000D01*
G75*
G02*
X95585000Y-80775000I0J-150000D01*
G01*
X95585000Y-82525000D01*
G75*
G02*
X95435000Y-82675000I-150000J0D01*
G01*
G37*
G36*
G01*
X95435000Y-73375000D02*
X95135000Y-73375000D01*
G75*
G02*
X94985000Y-73225000I0J150000D01*
G01*
X94985000Y-71475000D01*
G75*
G02*
X95135000Y-71325000I150000J0D01*
G01*
X95435000Y-71325000D01*
G75*
G02*
X95585000Y-71475000I0J-150000D01*
G01*
X95585000Y-73225000D01*
G75*
G02*
X95435000Y-73375000I-150000J0D01*
G01*
G37*
G36*
G01*
X96705000Y-73375000D02*
X96405000Y-73375000D01*
G75*
G02*
X96255000Y-73225000I0J150000D01*
G01*
X96255000Y-71475000D01*
G75*
G02*
X96405000Y-71325000I150000J0D01*
G01*
X96705000Y-71325000D01*
G75*
G02*
X96855000Y-71475000I0J-150000D01*
G01*
X96855000Y-73225000D01*
G75*
G02*
X96705000Y-73375000I-150000J0D01*
G01*
G37*
G36*
G01*
X97975000Y-73375000D02*
X97675000Y-73375000D01*
G75*
G02*
X97525000Y-73225000I0J150000D01*
G01*
X97525000Y-71475000D01*
G75*
G02*
X97675000Y-71325000I150000J0D01*
G01*
X97975000Y-71325000D01*
G75*
G02*
X98125000Y-71475000I0J-150000D01*
G01*
X98125000Y-73225000D01*
G75*
G02*
X97975000Y-73375000I-150000J0D01*
G01*
G37*
G36*
G01*
X99245000Y-73375000D02*
X98945000Y-73375000D01*
G75*
G02*
X98795000Y-73225000I0J150000D01*
G01*
X98795000Y-71475000D01*
G75*
G02*
X98945000Y-71325000I150000J0D01*
G01*
X99245000Y-71325000D01*
G75*
G02*
X99395000Y-71475000I0J-150000D01*
G01*
X99395000Y-73225000D01*
G75*
G02*
X99245000Y-73375000I-150000J0D01*
G01*
G37*
G36*
G01*
X100515000Y-73375000D02*
X100215000Y-73375000D01*
G75*
G02*
X100065000Y-73225000I0J150000D01*
G01*
X100065000Y-71475000D01*
G75*
G02*
X100215000Y-71325000I150000J0D01*
G01*
X100515000Y-71325000D01*
G75*
G02*
X100665000Y-71475000I0J-150000D01*
G01*
X100665000Y-73225000D01*
G75*
G02*
X100515000Y-73375000I-150000J0D01*
G01*
G37*
G36*
G01*
X101785000Y-73375000D02*
X101485000Y-73375000D01*
G75*
G02*
X101335000Y-73225000I0J150000D01*
G01*
X101335000Y-71475000D01*
G75*
G02*
X101485000Y-71325000I150000J0D01*
G01*
X101785000Y-71325000D01*
G75*
G02*
X101935000Y-71475000I0J-150000D01*
G01*
X101935000Y-73225000D01*
G75*
G02*
X101785000Y-73375000I-150000J0D01*
G01*
G37*
G36*
G01*
X103055000Y-73375000D02*
X102755000Y-73375000D01*
G75*
G02*
X102605000Y-73225000I0J150000D01*
G01*
X102605000Y-71475000D01*
G75*
G02*
X102755000Y-71325000I150000J0D01*
G01*
X103055000Y-71325000D01*
G75*
G02*
X103205000Y-71475000I0J-150000D01*
G01*
X103205000Y-73225000D01*
G75*
G02*
X103055000Y-73375000I-150000J0D01*
G01*
G37*
G36*
G01*
X104325000Y-73375000D02*
X104025000Y-73375000D01*
G75*
G02*
X103875000Y-73225000I0J150000D01*
G01*
X103875000Y-71475000D01*
G75*
G02*
X104025000Y-71325000I150000J0D01*
G01*
X104325000Y-71325000D01*
G75*
G02*
X104475000Y-71475000I0J-150000D01*
G01*
X104475000Y-73225000D01*
G75*
G02*
X104325000Y-73375000I-150000J0D01*
G01*
G37*
G36*
G01*
X105595000Y-73375000D02*
X105295000Y-73375000D01*
G75*
G02*
X105145000Y-73225000I0J150000D01*
G01*
X105145000Y-71475000D01*
G75*
G02*
X105295000Y-71325000I150000J0D01*
G01*
X105595000Y-71325000D01*
G75*
G02*
X105745000Y-71475000I0J-150000D01*
G01*
X105745000Y-73225000D01*
G75*
G02*
X105595000Y-73375000I-150000J0D01*
G01*
G37*
G36*
G01*
X106865000Y-73375000D02*
X106565000Y-73375000D01*
G75*
G02*
X106415000Y-73225000I0J150000D01*
G01*
X106415000Y-71475000D01*
G75*
G02*
X106565000Y-71325000I150000J0D01*
G01*
X106865000Y-71325000D01*
G75*
G02*
X107015000Y-71475000I0J-150000D01*
G01*
X107015000Y-73225000D01*
G75*
G02*
X106865000Y-73375000I-150000J0D01*
G01*
G37*
G36*
G01*
X16075000Y-72365000D02*
X16075000Y-72065000D01*
G75*
G02*
X16225000Y-71915000I150000J0D01*
G01*
X17975000Y-71915000D01*
G75*
G02*
X18125000Y-72065000I0J-150000D01*
G01*
X18125000Y-72365000D01*
G75*
G02*
X17975000Y-72515000I-150000J0D01*
G01*
X16225000Y-72515000D01*
G75*
G02*
X16075000Y-72365000I0J150000D01*
G01*
G37*
G36*
G01*
X16075000Y-71095000D02*
X16075000Y-70795000D01*
G75*
G02*
X16225000Y-70645000I150000J0D01*
G01*
X17975000Y-70645000D01*
G75*
G02*
X18125000Y-70795000I0J-150000D01*
G01*
X18125000Y-71095000D01*
G75*
G02*
X17975000Y-71245000I-150000J0D01*
G01*
X16225000Y-71245000D01*
G75*
G02*
X16075000Y-71095000I0J150000D01*
G01*
G37*
G36*
G01*
X16075000Y-69825000D02*
X16075000Y-69525000D01*
G75*
G02*
X16225000Y-69375000I150000J0D01*
G01*
X17975000Y-69375000D01*
G75*
G02*
X18125000Y-69525000I0J-150000D01*
G01*
X18125000Y-69825000D01*
G75*
G02*
X17975000Y-69975000I-150000J0D01*
G01*
X16225000Y-69975000D01*
G75*
G02*
X16075000Y-69825000I0J150000D01*
G01*
G37*
G36*
G01*
X16075000Y-68555000D02*
X16075000Y-68255000D01*
G75*
G02*
X16225000Y-68105000I150000J0D01*
G01*
X17975000Y-68105000D01*
G75*
G02*
X18125000Y-68255000I0J-150000D01*
G01*
X18125000Y-68555000D01*
G75*
G02*
X17975000Y-68705000I-150000J0D01*
G01*
X16225000Y-68705000D01*
G75*
G02*
X16075000Y-68555000I0J150000D01*
G01*
G37*
G36*
G01*
X16075000Y-67285000D02*
X16075000Y-66985000D01*
G75*
G02*
X16225000Y-66835000I150000J0D01*
G01*
X17975000Y-66835000D01*
G75*
G02*
X18125000Y-66985000I0J-150000D01*
G01*
X18125000Y-67285000D01*
G75*
G02*
X17975000Y-67435000I-150000J0D01*
G01*
X16225000Y-67435000D01*
G75*
G02*
X16075000Y-67285000I0J150000D01*
G01*
G37*
G36*
G01*
X16075000Y-66015000D02*
X16075000Y-65715000D01*
G75*
G02*
X16225000Y-65565000I150000J0D01*
G01*
X17975000Y-65565000D01*
G75*
G02*
X18125000Y-65715000I0J-150000D01*
G01*
X18125000Y-66015000D01*
G75*
G02*
X17975000Y-66165000I-150000J0D01*
G01*
X16225000Y-66165000D01*
G75*
G02*
X16075000Y-66015000I0J150000D01*
G01*
G37*
G36*
G01*
X16075000Y-64745000D02*
X16075000Y-64445000D01*
G75*
G02*
X16225000Y-64295000I150000J0D01*
G01*
X17975000Y-64295000D01*
G75*
G02*
X18125000Y-64445000I0J-150000D01*
G01*
X18125000Y-64745000D01*
G75*
G02*
X17975000Y-64895000I-150000J0D01*
G01*
X16225000Y-64895000D01*
G75*
G02*
X16075000Y-64745000I0J150000D01*
G01*
G37*
G36*
G01*
X16075000Y-63475000D02*
X16075000Y-63175000D01*
G75*
G02*
X16225000Y-63025000I150000J0D01*
G01*
X17975000Y-63025000D01*
G75*
G02*
X18125000Y-63175000I0J-150000D01*
G01*
X18125000Y-63475000D01*
G75*
G02*
X17975000Y-63625000I-150000J0D01*
G01*
X16225000Y-63625000D01*
G75*
G02*
X16075000Y-63475000I0J150000D01*
G01*
G37*
G36*
G01*
X16075000Y-62205000D02*
X16075000Y-61905000D01*
G75*
G02*
X16225000Y-61755000I150000J0D01*
G01*
X17975000Y-61755000D01*
G75*
G02*
X18125000Y-61905000I0J-150000D01*
G01*
X18125000Y-62205000D01*
G75*
G02*
X17975000Y-62355000I-150000J0D01*
G01*
X16225000Y-62355000D01*
G75*
G02*
X16075000Y-62205000I0J150000D01*
G01*
G37*
G36*
G01*
X16075000Y-60935000D02*
X16075000Y-60635000D01*
G75*
G02*
X16225000Y-60485000I150000J0D01*
G01*
X17975000Y-60485000D01*
G75*
G02*
X18125000Y-60635000I0J-150000D01*
G01*
X18125000Y-60935000D01*
G75*
G02*
X17975000Y-61085000I-150000J0D01*
G01*
X16225000Y-61085000D01*
G75*
G02*
X16075000Y-60935000I0J150000D01*
G01*
G37*
G36*
G01*
X25375000Y-60935000D02*
X25375000Y-60635000D01*
G75*
G02*
X25525000Y-60485000I150000J0D01*
G01*
X27275000Y-60485000D01*
G75*
G02*
X27425000Y-60635000I0J-150000D01*
G01*
X27425000Y-60935000D01*
G75*
G02*
X27275000Y-61085000I-150000J0D01*
G01*
X25525000Y-61085000D01*
G75*
G02*
X25375000Y-60935000I0J150000D01*
G01*
G37*
G36*
G01*
X25375000Y-62205000D02*
X25375000Y-61905000D01*
G75*
G02*
X25525000Y-61755000I150000J0D01*
G01*
X27275000Y-61755000D01*
G75*
G02*
X27425000Y-61905000I0J-150000D01*
G01*
X27425000Y-62205000D01*
G75*
G02*
X27275000Y-62355000I-150000J0D01*
G01*
X25525000Y-62355000D01*
G75*
G02*
X25375000Y-62205000I0J150000D01*
G01*
G37*
G36*
G01*
X25375000Y-63475000D02*
X25375000Y-63175000D01*
G75*
G02*
X25525000Y-63025000I150000J0D01*
G01*
X27275000Y-63025000D01*
G75*
G02*
X27425000Y-63175000I0J-150000D01*
G01*
X27425000Y-63475000D01*
G75*
G02*
X27275000Y-63625000I-150000J0D01*
G01*
X25525000Y-63625000D01*
G75*
G02*
X25375000Y-63475000I0J150000D01*
G01*
G37*
G36*
G01*
X25375000Y-64745000D02*
X25375000Y-64445000D01*
G75*
G02*
X25525000Y-64295000I150000J0D01*
G01*
X27275000Y-64295000D01*
G75*
G02*
X27425000Y-64445000I0J-150000D01*
G01*
X27425000Y-64745000D01*
G75*
G02*
X27275000Y-64895000I-150000J0D01*
G01*
X25525000Y-64895000D01*
G75*
G02*
X25375000Y-64745000I0J150000D01*
G01*
G37*
G36*
G01*
X25375000Y-66015000D02*
X25375000Y-65715000D01*
G75*
G02*
X25525000Y-65565000I150000J0D01*
G01*
X27275000Y-65565000D01*
G75*
G02*
X27425000Y-65715000I0J-150000D01*
G01*
X27425000Y-66015000D01*
G75*
G02*
X27275000Y-66165000I-150000J0D01*
G01*
X25525000Y-66165000D01*
G75*
G02*
X25375000Y-66015000I0J150000D01*
G01*
G37*
G36*
G01*
X25375000Y-67285000D02*
X25375000Y-66985000D01*
G75*
G02*
X25525000Y-66835000I150000J0D01*
G01*
X27275000Y-66835000D01*
G75*
G02*
X27425000Y-66985000I0J-150000D01*
G01*
X27425000Y-67285000D01*
G75*
G02*
X27275000Y-67435000I-150000J0D01*
G01*
X25525000Y-67435000D01*
G75*
G02*
X25375000Y-67285000I0J150000D01*
G01*
G37*
G36*
G01*
X25375000Y-68555000D02*
X25375000Y-68255000D01*
G75*
G02*
X25525000Y-68105000I150000J0D01*
G01*
X27275000Y-68105000D01*
G75*
G02*
X27425000Y-68255000I0J-150000D01*
G01*
X27425000Y-68555000D01*
G75*
G02*
X27275000Y-68705000I-150000J0D01*
G01*
X25525000Y-68705000D01*
G75*
G02*
X25375000Y-68555000I0J150000D01*
G01*
G37*
G36*
G01*
X25375000Y-69825000D02*
X25375000Y-69525000D01*
G75*
G02*
X25525000Y-69375000I150000J0D01*
G01*
X27275000Y-69375000D01*
G75*
G02*
X27425000Y-69525000I0J-150000D01*
G01*
X27425000Y-69825000D01*
G75*
G02*
X27275000Y-69975000I-150000J0D01*
G01*
X25525000Y-69975000D01*
G75*
G02*
X25375000Y-69825000I0J150000D01*
G01*
G37*
G36*
G01*
X25375000Y-71095000D02*
X25375000Y-70795000D01*
G75*
G02*
X25525000Y-70645000I150000J0D01*
G01*
X27275000Y-70645000D01*
G75*
G02*
X27425000Y-70795000I0J-150000D01*
G01*
X27425000Y-71095000D01*
G75*
G02*
X27275000Y-71245000I-150000J0D01*
G01*
X25525000Y-71245000D01*
G75*
G02*
X25375000Y-71095000I0J150000D01*
G01*
G37*
G36*
G01*
X25375000Y-72365000D02*
X25375000Y-72065000D01*
G75*
G02*
X25525000Y-71915000I150000J0D01*
G01*
X27275000Y-71915000D01*
G75*
G02*
X27425000Y-72065000I0J-150000D01*
G01*
X27425000Y-72365000D01*
G75*
G02*
X27275000Y-72515000I-150000J0D01*
G01*
X25525000Y-72515000D01*
G75*
G02*
X25375000Y-72365000I0J150000D01*
G01*
G37*
G36*
G01*
X45625000Y-72365000D02*
X45625000Y-72065000D01*
G75*
G02*
X45775000Y-71915000I150000J0D01*
G01*
X47525000Y-71915000D01*
G75*
G02*
X47675000Y-72065000I0J-150000D01*
G01*
X47675000Y-72365000D01*
G75*
G02*
X47525000Y-72515000I-150000J0D01*
G01*
X45775000Y-72515000D01*
G75*
G02*
X45625000Y-72365000I0J150000D01*
G01*
G37*
G36*
G01*
X45625000Y-71095000D02*
X45625000Y-70795000D01*
G75*
G02*
X45775000Y-70645000I150000J0D01*
G01*
X47525000Y-70645000D01*
G75*
G02*
X47675000Y-70795000I0J-150000D01*
G01*
X47675000Y-71095000D01*
G75*
G02*
X47525000Y-71245000I-150000J0D01*
G01*
X45775000Y-71245000D01*
G75*
G02*
X45625000Y-71095000I0J150000D01*
G01*
G37*
G36*
G01*
X45625000Y-69825000D02*
X45625000Y-69525000D01*
G75*
G02*
X45775000Y-69375000I150000J0D01*
G01*
X47525000Y-69375000D01*
G75*
G02*
X47675000Y-69525000I0J-150000D01*
G01*
X47675000Y-69825000D01*
G75*
G02*
X47525000Y-69975000I-150000J0D01*
G01*
X45775000Y-69975000D01*
G75*
G02*
X45625000Y-69825000I0J150000D01*
G01*
G37*
G36*
G01*
X45625000Y-68555000D02*
X45625000Y-68255000D01*
G75*
G02*
X45775000Y-68105000I150000J0D01*
G01*
X47525000Y-68105000D01*
G75*
G02*
X47675000Y-68255000I0J-150000D01*
G01*
X47675000Y-68555000D01*
G75*
G02*
X47525000Y-68705000I-150000J0D01*
G01*
X45775000Y-68705000D01*
G75*
G02*
X45625000Y-68555000I0J150000D01*
G01*
G37*
G36*
G01*
X45625000Y-67285000D02*
X45625000Y-66985000D01*
G75*
G02*
X45775000Y-66835000I150000J0D01*
G01*
X47525000Y-66835000D01*
G75*
G02*
X47675000Y-66985000I0J-150000D01*
G01*
X47675000Y-67285000D01*
G75*
G02*
X47525000Y-67435000I-150000J0D01*
G01*
X45775000Y-67435000D01*
G75*
G02*
X45625000Y-67285000I0J150000D01*
G01*
G37*
G36*
G01*
X45625000Y-66015000D02*
X45625000Y-65715000D01*
G75*
G02*
X45775000Y-65565000I150000J0D01*
G01*
X47525000Y-65565000D01*
G75*
G02*
X47675000Y-65715000I0J-150000D01*
G01*
X47675000Y-66015000D01*
G75*
G02*
X47525000Y-66165000I-150000J0D01*
G01*
X45775000Y-66165000D01*
G75*
G02*
X45625000Y-66015000I0J150000D01*
G01*
G37*
G36*
G01*
X45625000Y-64745000D02*
X45625000Y-64445000D01*
G75*
G02*
X45775000Y-64295000I150000J0D01*
G01*
X47525000Y-64295000D01*
G75*
G02*
X47675000Y-64445000I0J-150000D01*
G01*
X47675000Y-64745000D01*
G75*
G02*
X47525000Y-64895000I-150000J0D01*
G01*
X45775000Y-64895000D01*
G75*
G02*
X45625000Y-64745000I0J150000D01*
G01*
G37*
G36*
G01*
X45625000Y-63475000D02*
X45625000Y-63175000D01*
G75*
G02*
X45775000Y-63025000I150000J0D01*
G01*
X47525000Y-63025000D01*
G75*
G02*
X47675000Y-63175000I0J-150000D01*
G01*
X47675000Y-63475000D01*
G75*
G02*
X47525000Y-63625000I-150000J0D01*
G01*
X45775000Y-63625000D01*
G75*
G02*
X45625000Y-63475000I0J150000D01*
G01*
G37*
G36*
G01*
X45625000Y-62205000D02*
X45625000Y-61905000D01*
G75*
G02*
X45775000Y-61755000I150000J0D01*
G01*
X47525000Y-61755000D01*
G75*
G02*
X47675000Y-61905000I0J-150000D01*
G01*
X47675000Y-62205000D01*
G75*
G02*
X47525000Y-62355000I-150000J0D01*
G01*
X45775000Y-62355000D01*
G75*
G02*
X45625000Y-62205000I0J150000D01*
G01*
G37*
G36*
G01*
X45625000Y-60935000D02*
X45625000Y-60635000D01*
G75*
G02*
X45775000Y-60485000I150000J0D01*
G01*
X47525000Y-60485000D01*
G75*
G02*
X47675000Y-60635000I0J-150000D01*
G01*
X47675000Y-60935000D01*
G75*
G02*
X47525000Y-61085000I-150000J0D01*
G01*
X45775000Y-61085000D01*
G75*
G02*
X45625000Y-60935000I0J150000D01*
G01*
G37*
G36*
G01*
X36325000Y-60935000D02*
X36325000Y-60635000D01*
G75*
G02*
X36475000Y-60485000I150000J0D01*
G01*
X38225000Y-60485000D01*
G75*
G02*
X38375000Y-60635000I0J-150000D01*
G01*
X38375000Y-60935000D01*
G75*
G02*
X38225000Y-61085000I-150000J0D01*
G01*
X36475000Y-61085000D01*
G75*
G02*
X36325000Y-60935000I0J150000D01*
G01*
G37*
G36*
G01*
X36325000Y-62205000D02*
X36325000Y-61905000D01*
G75*
G02*
X36475000Y-61755000I150000J0D01*
G01*
X38225000Y-61755000D01*
G75*
G02*
X38375000Y-61905000I0J-150000D01*
G01*
X38375000Y-62205000D01*
G75*
G02*
X38225000Y-62355000I-150000J0D01*
G01*
X36475000Y-62355000D01*
G75*
G02*
X36325000Y-62205000I0J150000D01*
G01*
G37*
G36*
G01*
X36325000Y-63475000D02*
X36325000Y-63175000D01*
G75*
G02*
X36475000Y-63025000I150000J0D01*
G01*
X38225000Y-63025000D01*
G75*
G02*
X38375000Y-63175000I0J-150000D01*
G01*
X38375000Y-63475000D01*
G75*
G02*
X38225000Y-63625000I-150000J0D01*
G01*
X36475000Y-63625000D01*
G75*
G02*
X36325000Y-63475000I0J150000D01*
G01*
G37*
G36*
G01*
X36325000Y-64745000D02*
X36325000Y-64445000D01*
G75*
G02*
X36475000Y-64295000I150000J0D01*
G01*
X38225000Y-64295000D01*
G75*
G02*
X38375000Y-64445000I0J-150000D01*
G01*
X38375000Y-64745000D01*
G75*
G02*
X38225000Y-64895000I-150000J0D01*
G01*
X36475000Y-64895000D01*
G75*
G02*
X36325000Y-64745000I0J150000D01*
G01*
G37*
G36*
G01*
X36325000Y-66015000D02*
X36325000Y-65715000D01*
G75*
G02*
X36475000Y-65565000I150000J0D01*
G01*
X38225000Y-65565000D01*
G75*
G02*
X38375000Y-65715000I0J-150000D01*
G01*
X38375000Y-66015000D01*
G75*
G02*
X38225000Y-66165000I-150000J0D01*
G01*
X36475000Y-66165000D01*
G75*
G02*
X36325000Y-66015000I0J150000D01*
G01*
G37*
G36*
G01*
X36325000Y-67285000D02*
X36325000Y-66985000D01*
G75*
G02*
X36475000Y-66835000I150000J0D01*
G01*
X38225000Y-66835000D01*
G75*
G02*
X38375000Y-66985000I0J-150000D01*
G01*
X38375000Y-67285000D01*
G75*
G02*
X38225000Y-67435000I-150000J0D01*
G01*
X36475000Y-67435000D01*
G75*
G02*
X36325000Y-67285000I0J150000D01*
G01*
G37*
G36*
G01*
X36325000Y-68555000D02*
X36325000Y-68255000D01*
G75*
G02*
X36475000Y-68105000I150000J0D01*
G01*
X38225000Y-68105000D01*
G75*
G02*
X38375000Y-68255000I0J-150000D01*
G01*
X38375000Y-68555000D01*
G75*
G02*
X38225000Y-68705000I-150000J0D01*
G01*
X36475000Y-68705000D01*
G75*
G02*
X36325000Y-68555000I0J150000D01*
G01*
G37*
G36*
G01*
X36325000Y-69825000D02*
X36325000Y-69525000D01*
G75*
G02*
X36475000Y-69375000I150000J0D01*
G01*
X38225000Y-69375000D01*
G75*
G02*
X38375000Y-69525000I0J-150000D01*
G01*
X38375000Y-69825000D01*
G75*
G02*
X38225000Y-69975000I-150000J0D01*
G01*
X36475000Y-69975000D01*
G75*
G02*
X36325000Y-69825000I0J150000D01*
G01*
G37*
G36*
G01*
X36325000Y-71095000D02*
X36325000Y-70795000D01*
G75*
G02*
X36475000Y-70645000I150000J0D01*
G01*
X38225000Y-70645000D01*
G75*
G02*
X38375000Y-70795000I0J-150000D01*
G01*
X38375000Y-71095000D01*
G75*
G02*
X38225000Y-71245000I-150000J0D01*
G01*
X36475000Y-71245000D01*
G75*
G02*
X36325000Y-71095000I0J150000D01*
G01*
G37*
G36*
G01*
X36325000Y-72365000D02*
X36325000Y-72065000D01*
G75*
G02*
X36475000Y-71915000I150000J0D01*
G01*
X38225000Y-71915000D01*
G75*
G02*
X38375000Y-72065000I0J-150000D01*
G01*
X38375000Y-72365000D01*
G75*
G02*
X38225000Y-72515000I-150000J0D01*
G01*
X36475000Y-72515000D01*
G75*
G02*
X36325000Y-72365000I0J150000D01*
G01*
G37*
G36*
G01*
X86425000Y-71543750D02*
X86425000Y-72456250D01*
G75*
G02*
X86181250Y-72700000I-243750J0D01*
G01*
X85693750Y-72700000D01*
G75*
G02*
X85450000Y-72456250I0J243750D01*
G01*
X85450000Y-71543750D01*
G75*
G02*
X85693750Y-71300000I243750J0D01*
G01*
X86181250Y-71300000D01*
G75*
G02*
X86425000Y-71543750I0J-243750D01*
G01*
G37*
G36*
G01*
X84550000Y-71543750D02*
X84550000Y-72456250D01*
G75*
G02*
X84306250Y-72700000I-243750J0D01*
G01*
X83818750Y-72700000D01*
G75*
G02*
X83575000Y-72456250I0J243750D01*
G01*
X83575000Y-71543750D01*
G75*
G02*
X83818750Y-71300000I243750J0D01*
G01*
X84306250Y-71300000D01*
G75*
G02*
X84550000Y-71543750I0J-243750D01*
G01*
G37*
G36*
G01*
X85050000Y-49543750D02*
X85050000Y-50456250D01*
G75*
G02*
X84806250Y-50700000I-243750J0D01*
G01*
X84318750Y-50700000D01*
G75*
G02*
X84075000Y-50456250I0J243750D01*
G01*
X84075000Y-49543750D01*
G75*
G02*
X84318750Y-49300000I243750J0D01*
G01*
X84806250Y-49300000D01*
G75*
G02*
X85050000Y-49543750I0J-243750D01*
G01*
G37*
G36*
G01*
X86925000Y-49543750D02*
X86925000Y-50456250D01*
G75*
G02*
X86681250Y-50700000I-243750J0D01*
G01*
X86193750Y-50700000D01*
G75*
G02*
X85950000Y-50456250I0J243750D01*
G01*
X85950000Y-49543750D01*
G75*
G02*
X86193750Y-49300000I243750J0D01*
G01*
X86681250Y-49300000D01*
G75*
G02*
X86925000Y-49543750I0J-243750D01*
G01*
G37*
D17*
X5000000Y-5000000D03*
X128000000Y-5000000D03*
X5000000Y-88000000D03*
X128000000Y-88000000D03*
D18*
X40500000Y-82500000D03*
D19*
X40500000Y-81230000D03*
X41770000Y-82500000D03*
X41770000Y-81230000D03*
X43040000Y-82500000D03*
X43040000Y-81230000D03*
X44310000Y-82500000D03*
X44310000Y-81230000D03*
X45580000Y-82500000D03*
X45580000Y-81230000D03*
X46850000Y-82500000D03*
X46850000Y-81230000D03*
X48120000Y-82500000D03*
X48120000Y-81230000D03*
X49390000Y-82500000D03*
X49390000Y-81230000D03*
X50660000Y-82500000D03*
X50660000Y-81230000D03*
X51930000Y-82500000D03*
X51930000Y-81230000D03*
X53200000Y-82500000D03*
X53200000Y-81230000D03*
X54470000Y-82500000D03*
X54470000Y-81230000D03*
X55740000Y-82500000D03*
X55740000Y-81230000D03*
X57010000Y-82500000D03*
X57010000Y-81230000D03*
X58280000Y-82500000D03*
X58280000Y-81230000D03*
D18*
X40500000Y-89000000D03*
D19*
X40500000Y-87730000D03*
X41770000Y-89000000D03*
X41770000Y-87730000D03*
X43040000Y-89000000D03*
X43040000Y-87730000D03*
X44310000Y-89000000D03*
X44310000Y-87730000D03*
X45580000Y-89000000D03*
X45580000Y-87730000D03*
X46850000Y-89000000D03*
X46850000Y-87730000D03*
X48120000Y-89000000D03*
X48120000Y-87730000D03*
X49390000Y-89000000D03*
X49390000Y-87730000D03*
X50660000Y-89000000D03*
X50660000Y-87730000D03*
X51930000Y-89000000D03*
X51930000Y-87730000D03*
X53200000Y-89000000D03*
X53200000Y-87730000D03*
X54470000Y-89000000D03*
X54470000Y-87730000D03*
X55740000Y-89000000D03*
X55740000Y-87730000D03*
X57010000Y-89000000D03*
X57010000Y-87730000D03*
X58280000Y-89000000D03*
X58280000Y-87730000D03*
X59550000Y-89000000D03*
X59550000Y-87730000D03*
X60820000Y-89000000D03*
X60820000Y-87730000D03*
X62090000Y-89000000D03*
X62090000Y-87730000D03*
X63360000Y-89000000D03*
X63360000Y-87730000D03*
D20*
X77000000Y-61950000D03*
X77000000Y-60050000D03*
X79000000Y-61000000D03*
G36*
G01*
X82635000Y-55675000D02*
X82335000Y-55675000D01*
G75*
G02*
X82185000Y-55525000I0J150000D01*
G01*
X82185000Y-53775000D01*
G75*
G02*
X82335000Y-53625000I150000J0D01*
G01*
X82635000Y-53625000D01*
G75*
G02*
X82785000Y-53775000I0J-150000D01*
G01*
X82785000Y-55525000D01*
G75*
G02*
X82635000Y-55675000I-150000J0D01*
G01*
G37*
G36*
G01*
X81365000Y-55675000D02*
X81065000Y-55675000D01*
G75*
G02*
X80915000Y-55525000I0J150000D01*
G01*
X80915000Y-53775000D01*
G75*
G02*
X81065000Y-53625000I150000J0D01*
G01*
X81365000Y-53625000D01*
G75*
G02*
X81515000Y-53775000I0J-150000D01*
G01*
X81515000Y-55525000D01*
G75*
G02*
X81365000Y-55675000I-150000J0D01*
G01*
G37*
G36*
G01*
X80095000Y-55675000D02*
X79795000Y-55675000D01*
G75*
G02*
X79645000Y-55525000I0J150000D01*
G01*
X79645000Y-53775000D01*
G75*
G02*
X79795000Y-53625000I150000J0D01*
G01*
X80095000Y-53625000D01*
G75*
G02*
X80245000Y-53775000I0J-150000D01*
G01*
X80245000Y-55525000D01*
G75*
G02*
X80095000Y-55675000I-150000J0D01*
G01*
G37*
G36*
G01*
X78825000Y-55675000D02*
X78525000Y-55675000D01*
G75*
G02*
X78375000Y-55525000I0J150000D01*
G01*
X78375000Y-53775000D01*
G75*
G02*
X78525000Y-53625000I150000J0D01*
G01*
X78825000Y-53625000D01*
G75*
G02*
X78975000Y-53775000I0J-150000D01*
G01*
X78975000Y-55525000D01*
G75*
G02*
X78825000Y-55675000I-150000J0D01*
G01*
G37*
G36*
G01*
X77555000Y-55675000D02*
X77255000Y-55675000D01*
G75*
G02*
X77105000Y-55525000I0J150000D01*
G01*
X77105000Y-53775000D01*
G75*
G02*
X77255000Y-53625000I150000J0D01*
G01*
X77555000Y-53625000D01*
G75*
G02*
X77705000Y-53775000I0J-150000D01*
G01*
X77705000Y-55525000D01*
G75*
G02*
X77555000Y-55675000I-150000J0D01*
G01*
G37*
G36*
G01*
X76285000Y-55675000D02*
X75985000Y-55675000D01*
G75*
G02*
X75835000Y-55525000I0J150000D01*
G01*
X75835000Y-53775000D01*
G75*
G02*
X75985000Y-53625000I150000J0D01*
G01*
X76285000Y-53625000D01*
G75*
G02*
X76435000Y-53775000I0J-150000D01*
G01*
X76435000Y-55525000D01*
G75*
G02*
X76285000Y-55675000I-150000J0D01*
G01*
G37*
G36*
G01*
X75015000Y-55675000D02*
X74715000Y-55675000D01*
G75*
G02*
X74565000Y-55525000I0J150000D01*
G01*
X74565000Y-53775000D01*
G75*
G02*
X74715000Y-53625000I150000J0D01*
G01*
X75015000Y-53625000D01*
G75*
G02*
X75165000Y-53775000I0J-150000D01*
G01*
X75165000Y-55525000D01*
G75*
G02*
X75015000Y-55675000I-150000J0D01*
G01*
G37*
G36*
G01*
X73745000Y-55675000D02*
X73445000Y-55675000D01*
G75*
G02*
X73295000Y-55525000I0J150000D01*
G01*
X73295000Y-53775000D01*
G75*
G02*
X73445000Y-53625000I150000J0D01*
G01*
X73745000Y-53625000D01*
G75*
G02*
X73895000Y-53775000I0J-150000D01*
G01*
X73895000Y-55525000D01*
G75*
G02*
X73745000Y-55675000I-150000J0D01*
G01*
G37*
G36*
G01*
X72475000Y-55675000D02*
X72175000Y-55675000D01*
G75*
G02*
X72025000Y-55525000I0J150000D01*
G01*
X72025000Y-53775000D01*
G75*
G02*
X72175000Y-53625000I150000J0D01*
G01*
X72475000Y-53625000D01*
G75*
G02*
X72625000Y-53775000I0J-150000D01*
G01*
X72625000Y-55525000D01*
G75*
G02*
X72475000Y-55675000I-150000J0D01*
G01*
G37*
G36*
G01*
X71205000Y-55675000D02*
X70905000Y-55675000D01*
G75*
G02*
X70755000Y-55525000I0J150000D01*
G01*
X70755000Y-53775000D01*
G75*
G02*
X70905000Y-53625000I150000J0D01*
G01*
X71205000Y-53625000D01*
G75*
G02*
X71355000Y-53775000I0J-150000D01*
G01*
X71355000Y-55525000D01*
G75*
G02*
X71205000Y-55675000I-150000J0D01*
G01*
G37*
G36*
G01*
X69935000Y-55675000D02*
X69635000Y-55675000D01*
G75*
G02*
X69485000Y-55525000I0J150000D01*
G01*
X69485000Y-53775000D01*
G75*
G02*
X69635000Y-53625000I150000J0D01*
G01*
X69935000Y-53625000D01*
G75*
G02*
X70085000Y-53775000I0J-150000D01*
G01*
X70085000Y-55525000D01*
G75*
G02*
X69935000Y-55675000I-150000J0D01*
G01*
G37*
G36*
G01*
X68665000Y-55675000D02*
X68365000Y-55675000D01*
G75*
G02*
X68215000Y-55525000I0J150000D01*
G01*
X68215000Y-53775000D01*
G75*
G02*
X68365000Y-53625000I150000J0D01*
G01*
X68665000Y-53625000D01*
G75*
G02*
X68815000Y-53775000I0J-150000D01*
G01*
X68815000Y-55525000D01*
G75*
G02*
X68665000Y-55675000I-150000J0D01*
G01*
G37*
G36*
G01*
X68665000Y-46375000D02*
X68365000Y-46375000D01*
G75*
G02*
X68215000Y-46225000I0J150000D01*
G01*
X68215000Y-44475000D01*
G75*
G02*
X68365000Y-44325000I150000J0D01*
G01*
X68665000Y-44325000D01*
G75*
G02*
X68815000Y-44475000I0J-150000D01*
G01*
X68815000Y-46225000D01*
G75*
G02*
X68665000Y-46375000I-150000J0D01*
G01*
G37*
G36*
G01*
X69935000Y-46375000D02*
X69635000Y-46375000D01*
G75*
G02*
X69485000Y-46225000I0J150000D01*
G01*
X69485000Y-44475000D01*
G75*
G02*
X69635000Y-44325000I150000J0D01*
G01*
X69935000Y-44325000D01*
G75*
G02*
X70085000Y-44475000I0J-150000D01*
G01*
X70085000Y-46225000D01*
G75*
G02*
X69935000Y-46375000I-150000J0D01*
G01*
G37*
G36*
G01*
X71205000Y-46375000D02*
X70905000Y-46375000D01*
G75*
G02*
X70755000Y-46225000I0J150000D01*
G01*
X70755000Y-44475000D01*
G75*
G02*
X70905000Y-44325000I150000J0D01*
G01*
X71205000Y-44325000D01*
G75*
G02*
X71355000Y-44475000I0J-150000D01*
G01*
X71355000Y-46225000D01*
G75*
G02*
X71205000Y-46375000I-150000J0D01*
G01*
G37*
G36*
G01*
X72475000Y-46375000D02*
X72175000Y-46375000D01*
G75*
G02*
X72025000Y-46225000I0J150000D01*
G01*
X72025000Y-44475000D01*
G75*
G02*
X72175000Y-44325000I150000J0D01*
G01*
X72475000Y-44325000D01*
G75*
G02*
X72625000Y-44475000I0J-150000D01*
G01*
X72625000Y-46225000D01*
G75*
G02*
X72475000Y-46375000I-150000J0D01*
G01*
G37*
G36*
G01*
X73745000Y-46375000D02*
X73445000Y-46375000D01*
G75*
G02*
X73295000Y-46225000I0J150000D01*
G01*
X73295000Y-44475000D01*
G75*
G02*
X73445000Y-44325000I150000J0D01*
G01*
X73745000Y-44325000D01*
G75*
G02*
X73895000Y-44475000I0J-150000D01*
G01*
X73895000Y-46225000D01*
G75*
G02*
X73745000Y-46375000I-150000J0D01*
G01*
G37*
G36*
G01*
X75015000Y-46375000D02*
X74715000Y-46375000D01*
G75*
G02*
X74565000Y-46225000I0J150000D01*
G01*
X74565000Y-44475000D01*
G75*
G02*
X74715000Y-44325000I150000J0D01*
G01*
X75015000Y-44325000D01*
G75*
G02*
X75165000Y-44475000I0J-150000D01*
G01*
X75165000Y-46225000D01*
G75*
G02*
X75015000Y-46375000I-150000J0D01*
G01*
G37*
G36*
G01*
X76285000Y-46375000D02*
X75985000Y-46375000D01*
G75*
G02*
X75835000Y-46225000I0J150000D01*
G01*
X75835000Y-44475000D01*
G75*
G02*
X75985000Y-44325000I150000J0D01*
G01*
X76285000Y-44325000D01*
G75*
G02*
X76435000Y-44475000I0J-150000D01*
G01*
X76435000Y-46225000D01*
G75*
G02*
X76285000Y-46375000I-150000J0D01*
G01*
G37*
G36*
G01*
X77555000Y-46375000D02*
X77255000Y-46375000D01*
G75*
G02*
X77105000Y-46225000I0J150000D01*
G01*
X77105000Y-44475000D01*
G75*
G02*
X77255000Y-44325000I150000J0D01*
G01*
X77555000Y-44325000D01*
G75*
G02*
X77705000Y-44475000I0J-150000D01*
G01*
X77705000Y-46225000D01*
G75*
G02*
X77555000Y-46375000I-150000J0D01*
G01*
G37*
G36*
G01*
X78825000Y-46375000D02*
X78525000Y-46375000D01*
G75*
G02*
X78375000Y-46225000I0J150000D01*
G01*
X78375000Y-44475000D01*
G75*
G02*
X78525000Y-44325000I150000J0D01*
G01*
X78825000Y-44325000D01*
G75*
G02*
X78975000Y-44475000I0J-150000D01*
G01*
X78975000Y-46225000D01*
G75*
G02*
X78825000Y-46375000I-150000J0D01*
G01*
G37*
G36*
G01*
X80095000Y-46375000D02*
X79795000Y-46375000D01*
G75*
G02*
X79645000Y-46225000I0J150000D01*
G01*
X79645000Y-44475000D01*
G75*
G02*
X79795000Y-44325000I150000J0D01*
G01*
X80095000Y-44325000D01*
G75*
G02*
X80245000Y-44475000I0J-150000D01*
G01*
X80245000Y-46225000D01*
G75*
G02*
X80095000Y-46375000I-150000J0D01*
G01*
G37*
G36*
G01*
X81365000Y-46375000D02*
X81065000Y-46375000D01*
G75*
G02*
X80915000Y-46225000I0J150000D01*
G01*
X80915000Y-44475000D01*
G75*
G02*
X81065000Y-44325000I150000J0D01*
G01*
X81365000Y-44325000D01*
G75*
G02*
X81515000Y-44475000I0J-150000D01*
G01*
X81515000Y-46225000D01*
G75*
G02*
X81365000Y-46375000I-150000J0D01*
G01*
G37*
G36*
G01*
X82635000Y-46375000D02*
X82335000Y-46375000D01*
G75*
G02*
X82185000Y-46225000I0J150000D01*
G01*
X82185000Y-44475000D01*
G75*
G02*
X82335000Y-44325000I150000J0D01*
G01*
X82635000Y-44325000D01*
G75*
G02*
X82785000Y-44475000I0J-150000D01*
G01*
X82785000Y-46225000D01*
G75*
G02*
X82635000Y-46375000I-150000J0D01*
G01*
G37*
G36*
G01*
X82095000Y-75450000D02*
X81795000Y-75450000D01*
G75*
G02*
X81645000Y-75300000I0J150000D01*
G01*
X81645000Y-73650000D01*
G75*
G02*
X81795000Y-73500000I150000J0D01*
G01*
X82095000Y-73500000D01*
G75*
G02*
X82245000Y-73650000I0J-150000D01*
G01*
X82245000Y-75300000D01*
G75*
G02*
X82095000Y-75450000I-150000J0D01*
G01*
G37*
G36*
G01*
X80825000Y-75450000D02*
X80525000Y-75450000D01*
G75*
G02*
X80375000Y-75300000I0J150000D01*
G01*
X80375000Y-73650000D01*
G75*
G02*
X80525000Y-73500000I150000J0D01*
G01*
X80825000Y-73500000D01*
G75*
G02*
X80975000Y-73650000I0J-150000D01*
G01*
X80975000Y-75300000D01*
G75*
G02*
X80825000Y-75450000I-150000J0D01*
G01*
G37*
G36*
G01*
X79555000Y-75450000D02*
X79255000Y-75450000D01*
G75*
G02*
X79105000Y-75300000I0J150000D01*
G01*
X79105000Y-73650000D01*
G75*
G02*
X79255000Y-73500000I150000J0D01*
G01*
X79555000Y-73500000D01*
G75*
G02*
X79705000Y-73650000I0J-150000D01*
G01*
X79705000Y-75300000D01*
G75*
G02*
X79555000Y-75450000I-150000J0D01*
G01*
G37*
G36*
G01*
X78285000Y-75450000D02*
X77985000Y-75450000D01*
G75*
G02*
X77835000Y-75300000I0J150000D01*
G01*
X77835000Y-73650000D01*
G75*
G02*
X77985000Y-73500000I150000J0D01*
G01*
X78285000Y-73500000D01*
G75*
G02*
X78435000Y-73650000I0J-150000D01*
G01*
X78435000Y-75300000D01*
G75*
G02*
X78285000Y-75450000I-150000J0D01*
G01*
G37*
G36*
G01*
X77015000Y-75450000D02*
X76715000Y-75450000D01*
G75*
G02*
X76565000Y-75300000I0J150000D01*
G01*
X76565000Y-73650000D01*
G75*
G02*
X76715000Y-73500000I150000J0D01*
G01*
X77015000Y-73500000D01*
G75*
G02*
X77165000Y-73650000I0J-150000D01*
G01*
X77165000Y-75300000D01*
G75*
G02*
X77015000Y-75450000I-150000J0D01*
G01*
G37*
G36*
G01*
X75745000Y-75450000D02*
X75445000Y-75450000D01*
G75*
G02*
X75295000Y-75300000I0J150000D01*
G01*
X75295000Y-73650000D01*
G75*
G02*
X75445000Y-73500000I150000J0D01*
G01*
X75745000Y-73500000D01*
G75*
G02*
X75895000Y-73650000I0J-150000D01*
G01*
X75895000Y-75300000D01*
G75*
G02*
X75745000Y-75450000I-150000J0D01*
G01*
G37*
G36*
G01*
X74475000Y-75450000D02*
X74175000Y-75450000D01*
G75*
G02*
X74025000Y-75300000I0J150000D01*
G01*
X74025000Y-73650000D01*
G75*
G02*
X74175000Y-73500000I150000J0D01*
G01*
X74475000Y-73500000D01*
G75*
G02*
X74625000Y-73650000I0J-150000D01*
G01*
X74625000Y-75300000D01*
G75*
G02*
X74475000Y-75450000I-150000J0D01*
G01*
G37*
G36*
G01*
X73205000Y-75450000D02*
X72905000Y-75450000D01*
G75*
G02*
X72755000Y-75300000I0J150000D01*
G01*
X72755000Y-73650000D01*
G75*
G02*
X72905000Y-73500000I150000J0D01*
G01*
X73205000Y-73500000D01*
G75*
G02*
X73355000Y-73650000I0J-150000D01*
G01*
X73355000Y-75300000D01*
G75*
G02*
X73205000Y-75450000I-150000J0D01*
G01*
G37*
G36*
G01*
X73205000Y-70500000D02*
X72905000Y-70500000D01*
G75*
G02*
X72755000Y-70350000I0J150000D01*
G01*
X72755000Y-68700000D01*
G75*
G02*
X72905000Y-68550000I150000J0D01*
G01*
X73205000Y-68550000D01*
G75*
G02*
X73355000Y-68700000I0J-150000D01*
G01*
X73355000Y-70350000D01*
G75*
G02*
X73205000Y-70500000I-150000J0D01*
G01*
G37*
G36*
G01*
X74475000Y-70500000D02*
X74175000Y-70500000D01*
G75*
G02*
X74025000Y-70350000I0J150000D01*
G01*
X74025000Y-68700000D01*
G75*
G02*
X74175000Y-68550000I150000J0D01*
G01*
X74475000Y-68550000D01*
G75*
G02*
X74625000Y-68700000I0J-150000D01*
G01*
X74625000Y-70350000D01*
G75*
G02*
X74475000Y-70500000I-150000J0D01*
G01*
G37*
G36*
G01*
X75745000Y-70500000D02*
X75445000Y-70500000D01*
G75*
G02*
X75295000Y-70350000I0J150000D01*
G01*
X75295000Y-68700000D01*
G75*
G02*
X75445000Y-68550000I150000J0D01*
G01*
X75745000Y-68550000D01*
G75*
G02*
X75895000Y-68700000I0J-150000D01*
G01*
X75895000Y-70350000D01*
G75*
G02*
X75745000Y-70500000I-150000J0D01*
G01*
G37*
G36*
G01*
X77015000Y-70500000D02*
X76715000Y-70500000D01*
G75*
G02*
X76565000Y-70350000I0J150000D01*
G01*
X76565000Y-68700000D01*
G75*
G02*
X76715000Y-68550000I150000J0D01*
G01*
X77015000Y-68550000D01*
G75*
G02*
X77165000Y-68700000I0J-150000D01*
G01*
X77165000Y-70350000D01*
G75*
G02*
X77015000Y-70500000I-150000J0D01*
G01*
G37*
G36*
G01*
X78285000Y-70500000D02*
X77985000Y-70500000D01*
G75*
G02*
X77835000Y-70350000I0J150000D01*
G01*
X77835000Y-68700000D01*
G75*
G02*
X77985000Y-68550000I150000J0D01*
G01*
X78285000Y-68550000D01*
G75*
G02*
X78435000Y-68700000I0J-150000D01*
G01*
X78435000Y-70350000D01*
G75*
G02*
X78285000Y-70500000I-150000J0D01*
G01*
G37*
G36*
G01*
X79555000Y-70500000D02*
X79255000Y-70500000D01*
G75*
G02*
X79105000Y-70350000I0J150000D01*
G01*
X79105000Y-68700000D01*
G75*
G02*
X79255000Y-68550000I150000J0D01*
G01*
X79555000Y-68550000D01*
G75*
G02*
X79705000Y-68700000I0J-150000D01*
G01*
X79705000Y-70350000D01*
G75*
G02*
X79555000Y-70500000I-150000J0D01*
G01*
G37*
G36*
G01*
X80825000Y-70500000D02*
X80525000Y-70500000D01*
G75*
G02*
X80375000Y-70350000I0J150000D01*
G01*
X80375000Y-68700000D01*
G75*
G02*
X80525000Y-68550000I150000J0D01*
G01*
X80825000Y-68550000D01*
G75*
G02*
X80975000Y-68700000I0J-150000D01*
G01*
X80975000Y-70350000D01*
G75*
G02*
X80825000Y-70500000I-150000J0D01*
G01*
G37*
G36*
G01*
X82095000Y-70500000D02*
X81795000Y-70500000D01*
G75*
G02*
X81645000Y-70350000I0J150000D01*
G01*
X81645000Y-68700000D01*
G75*
G02*
X81795000Y-68550000I150000J0D01*
G01*
X82095000Y-68550000D01*
G75*
G02*
X82245000Y-68700000I0J-150000D01*
G01*
X82245000Y-70350000D01*
G75*
G02*
X82095000Y-70500000I-150000J0D01*
G01*
G37*
D21*
X106400000Y-59200000D03*
X106400000Y-58250000D03*
X106400000Y-57300000D03*
X108600000Y-57300000D03*
X108600000Y-59200000D03*
G36*
G01*
X94950000Y-16975000D02*
X94950000Y-16025000D01*
G75*
G02*
X95200000Y-15775000I250000J0D01*
G01*
X95700000Y-15775000D01*
G75*
G02*
X95950000Y-16025000I0J-250000D01*
G01*
X95950000Y-16975000D01*
G75*
G02*
X95700000Y-17225000I-250000J0D01*
G01*
X95200000Y-17225000D01*
G75*
G02*
X94950000Y-16975000I0J250000D01*
G01*
G37*
G36*
G01*
X93050000Y-16975000D02*
X93050000Y-16025000D01*
G75*
G02*
X93300000Y-15775000I250000J0D01*
G01*
X93800000Y-15775000D01*
G75*
G02*
X94050000Y-16025000I0J-250000D01*
G01*
X94050000Y-16975000D01*
G75*
G02*
X93800000Y-17225000I-250000J0D01*
G01*
X93300000Y-17225000D01*
G75*
G02*
X93050000Y-16975000I0J250000D01*
G01*
G37*
G36*
G01*
X81050000Y-16975000D02*
X81050000Y-16025000D01*
G75*
G02*
X81300000Y-15775000I250000J0D01*
G01*
X81800000Y-15775000D01*
G75*
G02*
X82050000Y-16025000I0J-250000D01*
G01*
X82050000Y-16975000D01*
G75*
G02*
X81800000Y-17225000I-250000J0D01*
G01*
X81300000Y-17225000D01*
G75*
G02*
X81050000Y-16975000I0J250000D01*
G01*
G37*
G36*
G01*
X82950000Y-16975000D02*
X82950000Y-16025000D01*
G75*
G02*
X83200000Y-15775000I250000J0D01*
G01*
X83700000Y-15775000D01*
G75*
G02*
X83950000Y-16025000I0J-250000D01*
G01*
X83950000Y-16975000D01*
G75*
G02*
X83700000Y-17225000I-250000J0D01*
G01*
X83200000Y-17225000D01*
G75*
G02*
X82950000Y-16975000I0J250000D01*
G01*
G37*
D22*
X74000000Y-86000000D03*
D23*
X76540000Y-86000000D03*
X79080000Y-86000000D03*
X81620000Y-86000000D03*
X84160000Y-86000000D03*
X86700000Y-86000000D03*
G36*
G01*
X73449999Y-20975000D02*
X74350001Y-20975000D01*
G75*
G02*
X74600000Y-21224999I0J-249999D01*
G01*
X74600000Y-21750001D01*
G75*
G02*
X74350001Y-22000000I-249999J0D01*
G01*
X73449999Y-22000000D01*
G75*
G02*
X73200000Y-21750001I0J249999D01*
G01*
X73200000Y-21224999D01*
G75*
G02*
X73449999Y-20975000I249999J0D01*
G01*
G37*
G36*
G01*
X73449999Y-22800000D02*
X74350001Y-22800000D01*
G75*
G02*
X74600000Y-23049999I0J-249999D01*
G01*
X74600000Y-23575001D01*
G75*
G02*
X74350001Y-23825000I-249999J0D01*
G01*
X73449999Y-23825000D01*
G75*
G02*
X73200000Y-23575001I0J249999D01*
G01*
X73200000Y-23049999D01*
G75*
G02*
X73449999Y-22800000I249999J0D01*
G01*
G37*
G36*
G01*
X102700000Y-30549999D02*
X102700000Y-31450001D01*
G75*
G02*
X102450001Y-31700000I-249999J0D01*
G01*
X101924999Y-31700000D01*
G75*
G02*
X101675000Y-31450001I0J249999D01*
G01*
X101675000Y-30549999D01*
G75*
G02*
X101924999Y-30300000I249999J0D01*
G01*
X102450001Y-30300000D01*
G75*
G02*
X102700000Y-30549999I0J-249999D01*
G01*
G37*
G36*
G01*
X104525000Y-30549999D02*
X104525000Y-31450001D01*
G75*
G02*
X104275001Y-31700000I-249999J0D01*
G01*
X103749999Y-31700000D01*
G75*
G02*
X103500000Y-31450001I0J249999D01*
G01*
X103500000Y-30549999D01*
G75*
G02*
X103749999Y-30300000I249999J0D01*
G01*
X104275001Y-30300000D01*
G75*
G02*
X104525000Y-30549999I0J-249999D01*
G01*
G37*
M02*
