M48
; DRILL file {KiCad (5.1.6)-1} date 08/19/20 00:23:50
; FORMAT={-:-/ absolute / metric / decimal}
; #@! TF.CreationDate,2020-08-19T00:23:50+02:00
; #@! TF.GenerationSoftware,Kicad,Pcbnew,(5.1.6)-1
; #@! TF.FileFunction,Plated,1,4,PTH
FMAT,2
METRIC
T1C0.200
T2C0.300
T3C0.650
T4C0.800
T5C1.000
T6C1.150
T7C1.168
%
G90
G05
T1
X5.71Y-47.48
X6.064Y-44.609
X6.561Y-37.87
X8.703Y-39.588
X8.783Y-24.191
X9.015Y-19.3
X9.262Y-25.011
X9.4Y-26.64
X10.925Y-44.188
X12.315Y-32.073
X12.775Y-32.741
X13.558Y-63.259
X13.923Y-27.595
X14.095Y-46.53
X14.24Y-70.333
X14.394Y-67.025
X14.699Y-26.093
X14.839Y-31.979
X15.199Y-41.612
X15.2Y-27.595
X15.216Y-65.665
X15.218Y-64.694
X15.219Y-68.284
X15.283Y-44.5
X18.057Y-39.549
X18.361Y-28.296
X18.379Y-40.363
X18.419Y-38.341
X18.445Y-23.108
X18.631Y-46.4
X18.732Y-68.976
X18.792Y-64.598
X18.954Y-26.581
X19.25Y-67.406
X19.3Y-63.368
X19.451Y-41.638
X19.851Y-21.676
X20.21Y-41.494
X20.25Y-70.926
X20.39Y-38.573
X20.814Y-65.416
X21.229Y-45.135
X21.427Y-47.675
X21.427Y-63.325
X21.589Y-28.237
X21.774Y-22.607
X22.038Y-31.502
X22.58Y-28.017
X23.04Y-27.076
X23.099Y-67.756
X23.131Y-25.725
X23.359Y-48.118
X23.4Y-74.218
X23.619Y-21.221
X23.624Y-17.359
X23.673Y-50.215
X23.726Y-32.869
X23.785Y-22.519
X23.895Y-28.865
X23.925Y-15.557
X23.952Y-33.637
X24.0Y-30.42
X24.025Y-62.193
X24.222Y-25.397
X24.23Y-69.68
X24.432Y-47.04
X24.698Y-61.803
X24.818Y-15.562
X24.82Y-14.48
X24.877Y-66.775
X24.902Y-65.731
X24.933Y-72.215
X24.964Y-68.405
X25.287Y-59.554
X25.974Y-34.656
X26.67Y-52.72
X26.712Y-16.317
X27.173Y-58.551
X28.765Y-6.855
X29.008Y-19.662
X29.198Y-43.865
X29.321Y-62.702
X29.458Y-70.425
X29.505Y-17.38
X29.654Y-63.912
X29.792Y-65.197
X29.961Y-40.055
X30.355Y-25.599
X30.355Y-27.193
X30.739Y-15.833
X30.849Y-67.392
X31.144Y-13.637
X31.255Y-45.909
X31.343Y-24.984
X31.44Y-15.47
X31.88Y-50.005
X32.15Y-17.76
X32.838Y-19.586
X33.044Y-66.836
X33.861Y-12.374
X33.928Y-66.92
X34.06Y-45.477
X34.134Y-23.64
X34.39Y-26.958
X34.417Y-30.42
X34.69Y-66.322
X34.867Y-46.782
X35.039Y-28.878
X35.086Y-48.53
X35.203Y-30.403
X35.209Y-27.675
X35.389Y-44.557
X37.474Y-52.246
X37.598Y-54.654
X37.87Y-52.746
X37.934Y-49.52
X38.303Y-53.954
X38.441Y-15.887
X38.637Y-49.525
X38.714Y-11.713
X38.782Y-70.945
X38.783Y-68.405
X38.947Y-53.312
X38.964Y-69.675
X39.283Y-65.865
X40.007Y-91.105
X40.242Y-50.45
X40.457Y-46.789
X40.669Y-26.035
X40.714Y-27.202
X40.856Y-46.274
X41.203Y-21.233
X41.266Y-49.675
X41.296Y-24.701
X41.346Y-23.865
X41.544Y-41.325
X41.718Y-43.619
X41.852Y-25.714
X41.898Y-46.202
X41.99Y-34.33
X42.171Y-12.221
X42.221Y-49.084
X42.225Y-64.595
X42.249Y-67.135
X42.316Y-29.561
X42.357Y-28.283
X42.462Y-44.09
X42.551Y-62.816
X42.839Y-31.824
X42.854Y-27.783
X42.863Y-49.313
X42.912Y-45.687
X42.971Y-29.398
X42.971Y-40.519
X43.291Y-86.023
X43.384Y-51.131
X43.455Y-21.896
X43.946Y-18.603
X44.104Y-16.727
X44.264Y-61.47
X44.769Y-69.433
X45.203Y-65.865
X45.387Y-48.045
X45.492Y-40.469
X45.515Y-39.082
X45.585Y-29.344
X45.627Y-27.739
X45.793Y-37.683
X45.912Y-20.055
X46.042Y-43.1
X46.143Y-28.309
X46.186Y-12.123
X46.894Y-11.833
X48.214Y-11.358
X48.35Y-32.48
X48.375Y-59.206
X48.782Y-64.595
X48.939Y-62.518
X48.939Y-70.694
X48.958Y-30.5
X48.973Y-22.302
X49.021Y-45.969
X49.034Y-40.766
X49.057Y-47.503
X49.087Y-50.1
X49.331Y-20.888
X49.797Y-66.217
X49.91Y-37.16
X50.18Y-18.68
X50.212Y-17.58
X50.261Y-64.947
X50.729Y-65.37
X50.838Y-63.852
X51.119Y-31.847
X51.668Y-25.345
X51.928Y-86.069
X52.038Y-25.917
X52.043Y-20.836
X52.152Y-58.815
X53.109Y-68.223
X53.186Y-44.613
X53.449Y-28.945
X53.531Y-42.952
X53.589Y-47.56
X53.624Y-57.969
X53.817Y-44.88
X53.877Y-90.775
X53.885Y-24.996
X54.094Y-46.355
X54.294Y-57.703
X54.8Y-55.904
X54.99Y-65.22
X55.218Y-20.055
X55.339Y-62.567
X56.225Y-12.958
X56.741Y-86.368
X56.743Y-12.546
X57.385Y-86.442
X57.726Y-4.17
X57.937Y-30.786
X58.016Y-86.459
X58.081Y-62.917
X58.449Y-42.541
X58.865Y-43.547
X58.972Y-85.228
X59.258Y-21.701
X59.285Y-79.005
X59.331Y-42.022
X59.453Y-43.046
X59.474Y-58.23
X59.534Y-70.945
X59.649Y-25.059
X60.06Y-72.465
X60.367Y-82.048
X60.412Y-73.105
X60.415Y-75.397
X60.449Y-69.168
X60.5Y-67.908
X60.654Y-70.457
X60.695Y-85.967
X60.79Y-54.046
X61.382Y-27.806
X61.413Y-85.28
X61.452Y-79.959
X61.745Y-40.674
X61.84Y-43.956
X61.874Y-81.102
X61.908Y-28.36
X62.033Y-86.276
X62.172Y-66.552
X62.254Y-80.589
X62.353Y-72.504
X62.503Y-83.533
X62.612Y-67.042
X62.74Y-52.423
X63.312Y-50.787
X63.312Y-52.0
X63.492Y-82.035
X64.086Y-49.291
X64.711Y-48.678
X64.756Y-76.981
X64.759Y-75.118
X64.889Y-27.944
X64.929Y-63.833
X64.955Y-69.675
X65.165Y-41.129
X65.227Y-79.005
X65.283Y-84.044
X65.424Y-47.451
X66.256Y-46.14
X66.298Y-40.578
X66.558Y-80.582
X66.781Y-86.026
X67.081Y-74.372
X67.596Y-73.996
X67.612Y-72.257
X67.674Y-63.845
X67.852Y-49.177
X67.914Y-77.571
X67.973Y-83.038
X68.01Y-63.066
X68.292Y-16.622
X68.807Y-60.935
X68.862Y-56.851
X68.989Y-64.012
X69.168Y-51.446
X69.181Y-52.991
X69.489Y-81.907
X69.767Y-79.119
X69.924Y-50.669
X69.935Y-39.45
X69.937Y-64.979
X70.429Y-26.268
X70.542Y-31.945
X70.553Y-71.999
X70.618Y-78.159
X70.736Y-79.629
X70.766Y-27.349
X70.813Y-37.826
X70.974Y-11.715
X71.212Y-51.073
X71.497Y-63.096
X71.548Y-55.967
X71.576Y-26.457
X71.624Y-29.653
X71.958Y-58.495
X72.03Y-59.238
X72.115Y-25.106
X72.56Y-27.922
X72.683Y-58.489
X72.775Y-81.401
X72.891Y-52.13
X73.12Y-52.777
X73.42Y-80.63
X73.422Y-62.616
X73.468Y-71.487
X73.673Y-53.131
X74.317Y-53.243
X74.317Y-67.744
X74.584Y-51.544
X74.806Y-57.83
X74.989Y-77.23
X75.115Y-46.782
X75.183Y-56.671
X75.476Y-59.343
X75.516Y-57.815
X75.631Y-57.114
X75.792Y-41.765
X75.834Y-52.499
X76.052Y-8.959
X76.077Y-68.222
X76.232Y-56.117
X76.317Y-51.967
X76.466Y-67.719
X76.981Y-67.096
X78.048Y-60.688
X78.074Y-32.294
X78.103Y-53.315
X78.273Y-63.831
X78.301Y-30.638
X78.489Y-51.869
X78.604Y-66.841
X78.653Y-31.276
X78.724Y-19.98
X78.791Y-23.985
X78.903Y-58.815
X78.978Y-68.111
X79.027Y-49.004
X79.302Y-60.172
X79.307Y-66.809
X79.353Y-33.853
X79.444Y-53.317
X79.486Y-67.457
X79.619Y-72.239
X79.624Y-31.166
X79.871Y-29.121
X80.037Y-14.803
X80.164Y-64.503
X80.238Y-57.115
X80.348Y-52.447
X80.455Y-11.972
X80.532Y-49.08
X80.597Y-59.684
X80.883Y-57.051
X81.086Y-52.151
X81.254Y-71.603
X81.266Y-72.239
X81.534Y-48.549
X81.588Y-19.7
X81.687Y-52.99
X82.081Y-67.256
X82.213Y-35.355
X82.62Y-57.246
X82.623Y-56.543
X82.65Y-67.583
X82.946Y-59.37
X83.016Y-60.0
X83.039Y-46.895
X83.044Y-69.097
X83.075Y-66.839
X83.161Y-55.968
X83.171Y-53.3
X83.245Y-55.202
X83.422Y-27.764
X83.426Y-29.559
X83.513Y-30.697
X83.524Y-28.524
X83.737Y-63.137
X83.932Y-25.246
X84.189Y-31.707
X84.219Y-61.5
X84.332Y-62.135
X84.532Y-26.573
X86.06Y-23.463
X86.202Y-12.637
X87.101Y-11.629
X87.931Y-40.163
X88.303Y-31.54
X88.415Y-26.897
X88.755Y-28.74
X89.01Y-27.66
X89.764Y-26.396
X91.792Y-29.064
X92.082Y-24.695
X92.785Y-15.635
X94.003Y-15.128
X94.061Y-35.112
X94.548Y-71.648
X94.698Y-12.527
X94.891Y-11.858
X95.882Y-27.092
X97.085Y-23.657
X98.6Y-80.123
X98.809Y-83.596
X99.158Y-70.697
X99.343Y-83.099
X99.493Y-79.632
X99.541Y-84.972
X100.214Y-68.945
X100.369Y-33.445
X100.413Y-80.216
X101.034Y-69.736
X101.222Y-79.71
X101.665Y-69.975
X103.035Y-70.592
X103.055Y-74.602
X103.54Y-71.095
X104.495Y-79.811
X105.182Y-70.899
X105.24Y-78.357
X105.514Y-80.13
X105.686Y-50.343
X106.165Y-70.854
X106.619Y-61.793
X109.23Y-56.06
X109.24Y-68.217
X109.48Y-39.96
X113.065Y-44.592
X115.307Y-73.925
X115.555Y-80.219
X116.807Y-74.325
X119.365Y-70.915
X120.018Y-73.772
X120.635Y-80.193
X121.759Y-70.668
X124.298Y-69.554
X124.781Y-68.7
X124.817Y-80.205
X125.303Y-73.762
X125.874Y-66.419
X127.302Y-68.418
T2
X22.248Y-35.828
X25.22Y-24.58
X28.24Y-76.3
X30.56Y-52.32
X33.61Y-36.09
X34.344Y-54.077
X34.768Y-18.185
X41.43Y-16.58
X41.7Y-74.84
X44.287Y-38.497
X47.5Y-34.56
X48.008Y-51.096
X51.633Y-18.084
X53.026Y-17.386
X57.263Y-34.547
X58.006Y-61.456
X58.487Y-33.31
X58.815Y-60.778
X62.36Y-55.37
X73.473Y-72.673
X74.36Y-43.577
X80.302Y-47.033
X80.916Y-21.176
X81.839Y-63.96
X85.793Y-47.486
X89.52Y-34.63
X90.428Y-32.732
X90.93Y-70.56
X96.257Y-32.081
X100.179Y-23.759
X100.44Y-61.32
X103.61Y-60.98
X110.288Y-72.313
X110.367Y-81.472
X110.53Y-70.88
X127.97Y-70.7
T3
X40.5Y-87.73
X40.5Y-89.0
X41.77Y-87.73
X41.77Y-89.0
X43.04Y-87.73
X43.04Y-89.0
X44.31Y-87.73
X44.31Y-89.0
X45.58Y-87.73
X45.58Y-89.0
X46.85Y-87.73
X46.85Y-89.0
X48.12Y-87.73
X48.12Y-89.0
X49.39Y-87.73
X49.39Y-89.0
X50.66Y-87.73
X50.66Y-89.0
X51.93Y-87.73
X51.93Y-89.0
X53.2Y-87.73
X53.2Y-89.0
X54.47Y-87.73
X54.47Y-89.0
X55.74Y-87.73
X55.74Y-89.0
X57.01Y-87.73
X57.01Y-89.0
X58.28Y-87.73
X58.28Y-89.0
X59.55Y-87.73
X59.55Y-89.0
X60.82Y-87.73
X60.82Y-89.0
X62.09Y-87.73
X62.09Y-89.0
X63.36Y-87.73
X63.36Y-89.0
X40.5Y-81.23
X40.5Y-82.5
X41.77Y-81.23
X41.77Y-82.5
X43.04Y-81.23
X43.04Y-82.5
X44.31Y-81.23
X44.31Y-82.5
X45.58Y-81.23
X45.58Y-82.5
X46.85Y-81.23
X46.85Y-82.5
X48.12Y-81.23
X48.12Y-82.5
X49.39Y-81.23
X49.39Y-82.5
X50.66Y-81.23
X50.66Y-82.5
X51.93Y-81.23
X51.93Y-82.5
X53.2Y-81.23
X53.2Y-82.5
X54.47Y-81.23
X54.47Y-82.5
X55.74Y-81.23
X55.74Y-82.5
X57.01Y-81.23
X57.01Y-82.5
X58.28Y-81.23
X58.28Y-82.5
T4
X111.5Y-30.5
X111.5Y-33.04
X111.5Y-35.58
X111.5Y-38.12
X111.5Y-40.66
X111.5Y-43.2
X111.5Y-45.74
X111.5Y-48.28
X111.5Y-50.82
X14.18Y-86.5
X16.72Y-86.5
X19.26Y-86.5
X21.8Y-86.5
X24.34Y-86.5
X26.88Y-86.5
X29.42Y-86.5
X31.96Y-86.5
X34.5Y-86.5
T5
X74.0Y-86.0
X76.54Y-86.0
X79.08Y-86.0
X81.62Y-86.0
X84.16Y-86.0
X86.7Y-86.0
T6
X26.9Y-5.46
X26.9Y-8.0
X26.9Y-10.54
X29.44Y-5.46
X29.44Y-8.0
X29.44Y-10.54
X31.98Y-5.46
X31.98Y-8.0
X31.98Y-10.54
X34.52Y-5.46
X34.52Y-8.0
X34.52Y-10.54
X37.06Y-5.46
X37.06Y-8.0
X37.06Y-10.54
X39.6Y-5.46
X39.6Y-8.0
X39.6Y-10.54
X42.14Y-5.46
X42.14Y-8.0
X42.14Y-10.54
X44.68Y-5.46
X44.68Y-8.0
X44.68Y-10.54
X47.22Y-5.46
X47.22Y-8.0
X47.22Y-10.54
X49.76Y-5.46
X49.76Y-8.0
X49.76Y-10.54
X52.3Y-5.46
X52.3Y-8.0
X52.3Y-10.54
X54.84Y-5.46
X54.84Y-8.0
X54.84Y-10.54
X57.38Y-5.46
X57.38Y-8.0
X57.38Y-10.54
X59.92Y-5.46
X59.92Y-8.0
X59.92Y-10.54
X62.46Y-5.46
X62.46Y-8.0
X62.46Y-10.54
X65.0Y-5.46
X65.0Y-8.0
X65.0Y-10.54
X67.54Y-5.46
X67.54Y-8.0
X67.54Y-10.54
X70.08Y-5.46
X70.08Y-8.0
X70.08Y-10.54
X72.62Y-5.46
X72.62Y-8.0
X72.62Y-10.54
X75.16Y-5.46
X75.16Y-8.0
X75.16Y-10.54
X77.7Y-5.46
X77.7Y-8.0
X77.7Y-10.54
X80.24Y-5.46
X80.24Y-8.0
X80.24Y-10.54
X82.78Y-5.46
X82.78Y-8.0
X82.78Y-10.54
X85.32Y-5.46
X85.32Y-8.0
X85.32Y-10.54
X87.86Y-5.46
X87.86Y-8.0
X87.86Y-10.54
X90.4Y-5.46
X90.4Y-8.0
X90.4Y-10.54
X92.94Y-5.46
X92.94Y-8.0
X92.94Y-10.54
X95.48Y-5.46
X95.48Y-8.0
X95.48Y-10.54
X98.02Y-5.46
X98.02Y-8.0
X98.02Y-10.54
X100.56Y-5.46
X100.56Y-8.0
X100.56Y-10.54
X103.1Y-5.46
X103.1Y-8.0
X103.1Y-10.54
X105.64Y-5.46
X105.64Y-8.0
X105.64Y-10.54
T7
X123.54Y-30.81
X123.54Y-33.35
X123.54Y-35.89
X123.54Y-38.43
X123.54Y-40.97
X123.54Y-43.51
X123.54Y-46.05
X123.54Y-48.59
X123.54Y-51.13
X123.54Y-53.67
X123.54Y-56.21
X123.54Y-58.75
X123.54Y-61.29
X123.54Y-63.83
X123.54Y-66.37
X128.4Y-30.81
X128.4Y-33.35
X128.4Y-35.89
X128.4Y-38.43
X128.4Y-40.97
X128.4Y-43.51
X128.4Y-46.05
X128.4Y-48.59
X128.4Y-51.13
X128.4Y-53.67
X128.4Y-56.21
X128.4Y-58.75
X128.4Y-61.29
X128.4Y-63.83
X128.4Y-66.36
T0
M30
