G04 #@! TF.GenerationSoftware,KiCad,Pcbnew,(5.1.6)-1*
G04 #@! TF.CreationDate,2020-08-14T22:49:57+02:00*
G04 #@! TF.ProjectId,Project_GP8B,50726f6a-6563-4745-9f47-5038422e6b69,V5.0*
G04 #@! TF.SameCoordinates,PX3a2c940PY1e0a6e0*
G04 #@! TF.FileFunction,Soldermask,Bot*
G04 #@! TF.FilePolarity,Negative*
%FSLAX46Y46*%
G04 Gerber Fmt 4.6, Leading zero omitted, Abs format (unit mm)*
G04 Created by KiCad (PCBNEW (5.1.6)-1) date 2020-08-14 22:49:57*
%MOMM*%
%LPD*%
G01*
G04 APERTURE LIST*
%ADD10C,2.400000*%
%ADD11C,3.900000*%
%ADD12C,2.150000*%
%ADD13R,2.000000X2.000000*%
%ADD14O,2.000000X2.000000*%
%ADD15R,1.050000X1.460000*%
%ADD16R,1.900000X1.000000*%
%ADD17C,3.400000*%
%ADD18R,2.100000X2.100000*%
%ADD19O,2.100000X2.100000*%
%ADD20R,1.400000X1.400000*%
%ADD21O,1.400000X1.400000*%
%ADD22R,1.300000X1.200000*%
%ADD23R,1.460000X1.050000*%
G04 APERTURE END LIST*
D10*
X128400000Y-30810000D03*
X123540000Y-30810000D03*
X128400000Y-33350000D03*
X123540000Y-33350000D03*
X128400000Y-35890000D03*
X123540000Y-35890000D03*
X128400000Y-38430000D03*
X123540000Y-38430000D03*
X128400000Y-40970000D03*
X123540000Y-40970000D03*
X128400000Y-43510000D03*
X123540000Y-43510000D03*
X128400000Y-46050000D03*
X123540000Y-46050000D03*
X128400000Y-48590000D03*
X123540000Y-48590000D03*
X128400000Y-51130000D03*
X123540000Y-51130000D03*
X128400000Y-53670000D03*
X123540000Y-53670000D03*
X128400000Y-56210000D03*
X123540000Y-56210000D03*
X128400000Y-58750000D03*
X123540000Y-58750000D03*
X128400000Y-61290000D03*
X123540000Y-61290000D03*
X128400000Y-63830000D03*
X123540000Y-63830000D03*
X128400000Y-66360000D03*
X123540000Y-66370000D03*
D11*
X21820000Y-2920000D03*
X110720000Y-2920000D03*
D12*
X105640000Y-10540000D03*
X103100000Y-10540000D03*
X100560000Y-10540000D03*
X98020000Y-10540000D03*
X95480000Y-10540000D03*
X92940000Y-10540000D03*
X90400000Y-10540000D03*
X87860000Y-10540000D03*
X85320000Y-10540000D03*
X82780000Y-10540000D03*
X80240000Y-10540000D03*
X77700000Y-10540000D03*
X75160000Y-10540000D03*
X72620000Y-10540000D03*
X70080000Y-10540000D03*
X67540000Y-10540000D03*
X65000000Y-10540000D03*
X62460000Y-10540000D03*
X59920000Y-10540000D03*
X57380000Y-10540000D03*
X54840000Y-10540000D03*
X52300000Y-10540000D03*
X49760000Y-10540000D03*
X47220000Y-10540000D03*
X44680000Y-10540000D03*
X42140000Y-10540000D03*
X39600000Y-10540000D03*
X37060000Y-10540000D03*
X34520000Y-10540000D03*
X31980000Y-10540000D03*
X29440000Y-10540000D03*
X26900000Y-10540000D03*
X105640000Y-8000000D03*
X103100000Y-8000000D03*
X100560000Y-8000000D03*
X98020000Y-8000000D03*
X95480000Y-8000000D03*
X92940000Y-8000000D03*
X90400000Y-8000000D03*
X87860000Y-8000000D03*
X85320000Y-8000000D03*
X82780000Y-8000000D03*
X80240000Y-8000000D03*
X77700000Y-8000000D03*
X75160000Y-8000000D03*
X72620000Y-8000000D03*
X70080000Y-8000000D03*
X67540000Y-8000000D03*
X65000000Y-8000000D03*
X62460000Y-8000000D03*
X59920000Y-8000000D03*
X57380000Y-8000000D03*
X54840000Y-8000000D03*
X52300000Y-8000000D03*
X49760000Y-8000000D03*
X47220000Y-8000000D03*
X44680000Y-8000000D03*
X42140000Y-8000000D03*
X39600000Y-8000000D03*
X37060000Y-8000000D03*
X34520000Y-8000000D03*
X31980000Y-8000000D03*
X29440000Y-8000000D03*
X26900000Y-8000000D03*
X105640000Y-5460000D03*
X103100000Y-5460000D03*
X100560000Y-5460000D03*
X98020000Y-5460000D03*
X95480000Y-5460000D03*
X92940000Y-5460000D03*
X90400000Y-5460000D03*
X87860000Y-5460000D03*
X85320000Y-5460000D03*
X82780000Y-5460000D03*
X80240000Y-5460000D03*
X77700000Y-5460000D03*
X75160000Y-5460000D03*
X72620000Y-5460000D03*
X70080000Y-5460000D03*
X67540000Y-5460000D03*
X65000000Y-5460000D03*
X62460000Y-5460000D03*
X59920000Y-5460000D03*
X57380000Y-5460000D03*
X54840000Y-5460000D03*
X52300000Y-5460000D03*
X49760000Y-5460000D03*
X47220000Y-5460000D03*
X44680000Y-5460000D03*
X42140000Y-5460000D03*
X39600000Y-5460000D03*
X37060000Y-5460000D03*
X34520000Y-5460000D03*
X31980000Y-5460000D03*
X29440000Y-5460000D03*
X26900000Y-5460000D03*
G36*
G01*
X76625000Y-34943750D02*
X76625000Y-36056250D01*
G75*
G02*
X76281250Y-36400000I-343750J0D01*
G01*
X75593750Y-36400000D01*
G75*
G02*
X75250000Y-36056250I0J343750D01*
G01*
X75250000Y-34943750D01*
G75*
G02*
X75593750Y-34600000I343750J0D01*
G01*
X76281250Y-34600000D01*
G75*
G02*
X76625000Y-34943750I0J-343750D01*
G01*
G37*
G36*
G01*
X74750000Y-34943750D02*
X74750000Y-36056250D01*
G75*
G02*
X74406250Y-36400000I-343750J0D01*
G01*
X73718750Y-36400000D01*
G75*
G02*
X73375000Y-36056250I0J343750D01*
G01*
X73375000Y-34943750D01*
G75*
G02*
X73718750Y-34600000I343750J0D01*
G01*
X74406250Y-34600000D01*
G75*
G02*
X74750000Y-34943750I0J-343750D01*
G01*
G37*
G36*
G01*
X88625000Y-34943750D02*
X88625000Y-36056250D01*
G75*
G02*
X88281250Y-36400000I-343750J0D01*
G01*
X87593750Y-36400000D01*
G75*
G02*
X87250000Y-36056250I0J343750D01*
G01*
X87250000Y-34943750D01*
G75*
G02*
X87593750Y-34600000I343750J0D01*
G01*
X88281250Y-34600000D01*
G75*
G02*
X88625000Y-34943750I0J-343750D01*
G01*
G37*
G36*
G01*
X86750000Y-34943750D02*
X86750000Y-36056250D01*
G75*
G02*
X86406250Y-36400000I-343750J0D01*
G01*
X85718750Y-36400000D01*
G75*
G02*
X85375000Y-36056250I0J343750D01*
G01*
X85375000Y-34943750D01*
G75*
G02*
X85718750Y-34600000I343750J0D01*
G01*
X86406250Y-34600000D01*
G75*
G02*
X86750000Y-34943750I0J-343750D01*
G01*
G37*
G36*
G01*
X98750000Y-34943750D02*
X98750000Y-36056250D01*
G75*
G02*
X98406250Y-36400000I-343750J0D01*
G01*
X97718750Y-36400000D01*
G75*
G02*
X97375000Y-36056250I0J343750D01*
G01*
X97375000Y-34943750D01*
G75*
G02*
X97718750Y-34600000I343750J0D01*
G01*
X98406250Y-34600000D01*
G75*
G02*
X98750000Y-34943750I0J-343750D01*
G01*
G37*
G36*
G01*
X100625000Y-34943750D02*
X100625000Y-36056250D01*
G75*
G02*
X100281250Y-36400000I-343750J0D01*
G01*
X99593750Y-36400000D01*
G75*
G02*
X99250000Y-36056250I0J343750D01*
G01*
X99250000Y-34943750D01*
G75*
G02*
X99593750Y-34600000I343750J0D01*
G01*
X100281250Y-34600000D01*
G75*
G02*
X100625000Y-34943750I0J-343750D01*
G01*
G37*
G36*
G01*
X19625000Y-37806250D02*
X19625000Y-36693750D01*
G75*
G02*
X19968750Y-36350000I343750J0D01*
G01*
X20656250Y-36350000D01*
G75*
G02*
X21000000Y-36693750I0J-343750D01*
G01*
X21000000Y-37806250D01*
G75*
G02*
X20656250Y-38150000I-343750J0D01*
G01*
X19968750Y-38150000D01*
G75*
G02*
X19625000Y-37806250I0J343750D01*
G01*
G37*
G36*
G01*
X21500000Y-37806250D02*
X21500000Y-36693750D01*
G75*
G02*
X21843750Y-36350000I343750J0D01*
G01*
X22531250Y-36350000D01*
G75*
G02*
X22875000Y-36693750I0J-343750D01*
G01*
X22875000Y-37806250D01*
G75*
G02*
X22531250Y-38150000I-343750J0D01*
G01*
X21843750Y-38150000D01*
G75*
G02*
X21500000Y-37806250I0J343750D01*
G01*
G37*
G36*
G01*
X35375000Y-49943750D02*
X35375000Y-51056250D01*
G75*
G02*
X35031250Y-51400000I-343750J0D01*
G01*
X34343750Y-51400000D01*
G75*
G02*
X34000000Y-51056250I0J343750D01*
G01*
X34000000Y-49943750D01*
G75*
G02*
X34343750Y-49600000I343750J0D01*
G01*
X35031250Y-49600000D01*
G75*
G02*
X35375000Y-49943750I0J-343750D01*
G01*
G37*
G36*
G01*
X33500000Y-49943750D02*
X33500000Y-51056250D01*
G75*
G02*
X33156250Y-51400000I-343750J0D01*
G01*
X32468750Y-51400000D01*
G75*
G02*
X32125000Y-51056250I0J343750D01*
G01*
X32125000Y-49943750D01*
G75*
G02*
X32468750Y-49600000I343750J0D01*
G01*
X33156250Y-49600000D01*
G75*
G02*
X33500000Y-49943750I0J-343750D01*
G01*
G37*
G36*
G01*
X45000000Y-49943750D02*
X45000000Y-51056250D01*
G75*
G02*
X44656250Y-51400000I-343750J0D01*
G01*
X43968750Y-51400000D01*
G75*
G02*
X43625000Y-51056250I0J343750D01*
G01*
X43625000Y-49943750D01*
G75*
G02*
X43968750Y-49600000I343750J0D01*
G01*
X44656250Y-49600000D01*
G75*
G02*
X45000000Y-49943750I0J-343750D01*
G01*
G37*
G36*
G01*
X46875000Y-49943750D02*
X46875000Y-51056250D01*
G75*
G02*
X46531250Y-51400000I-343750J0D01*
G01*
X45843750Y-51400000D01*
G75*
G02*
X45500000Y-51056250I0J343750D01*
G01*
X45500000Y-49943750D01*
G75*
G02*
X45843750Y-49600000I343750J0D01*
G01*
X46531250Y-49600000D01*
G75*
G02*
X46875000Y-49943750I0J-343750D01*
G01*
G37*
G36*
G01*
X35375000Y-33693750D02*
X35375000Y-34806250D01*
G75*
G02*
X35031250Y-35150000I-343750J0D01*
G01*
X34343750Y-35150000D01*
G75*
G02*
X34000000Y-34806250I0J343750D01*
G01*
X34000000Y-33693750D01*
G75*
G02*
X34343750Y-33350000I343750J0D01*
G01*
X35031250Y-33350000D01*
G75*
G02*
X35375000Y-33693750I0J-343750D01*
G01*
G37*
G36*
G01*
X33500000Y-33693750D02*
X33500000Y-34806250D01*
G75*
G02*
X33156250Y-35150000I-343750J0D01*
G01*
X32468750Y-35150000D01*
G75*
G02*
X32125000Y-34806250I0J343750D01*
G01*
X32125000Y-33693750D01*
G75*
G02*
X32468750Y-33350000I343750J0D01*
G01*
X33156250Y-33350000D01*
G75*
G02*
X33500000Y-33693750I0J-343750D01*
G01*
G37*
G36*
G01*
X45000000Y-33693750D02*
X45000000Y-34806250D01*
G75*
G02*
X44656250Y-35150000I-343750J0D01*
G01*
X43968750Y-35150000D01*
G75*
G02*
X43625000Y-34806250I0J343750D01*
G01*
X43625000Y-33693750D01*
G75*
G02*
X43968750Y-33350000I343750J0D01*
G01*
X44656250Y-33350000D01*
G75*
G02*
X45000000Y-33693750I0J-343750D01*
G01*
G37*
G36*
G01*
X46875000Y-33693750D02*
X46875000Y-34806250D01*
G75*
G02*
X46531250Y-35150000I-343750J0D01*
G01*
X45843750Y-35150000D01*
G75*
G02*
X45500000Y-34806250I0J343750D01*
G01*
X45500000Y-33693750D01*
G75*
G02*
X45843750Y-33350000I343750J0D01*
G01*
X46531250Y-33350000D01*
G75*
G02*
X46875000Y-33693750I0J-343750D01*
G01*
G37*
G36*
G01*
X58125000Y-32443750D02*
X58125000Y-33556250D01*
G75*
G02*
X57781250Y-33900000I-343750J0D01*
G01*
X57093750Y-33900000D01*
G75*
G02*
X56750000Y-33556250I0J343750D01*
G01*
X56750000Y-32443750D01*
G75*
G02*
X57093750Y-32100000I343750J0D01*
G01*
X57781250Y-32100000D01*
G75*
G02*
X58125000Y-32443750I0J-343750D01*
G01*
G37*
G36*
G01*
X56250000Y-32443750D02*
X56250000Y-33556250D01*
G75*
G02*
X55906250Y-33900000I-343750J0D01*
G01*
X55218750Y-33900000D01*
G75*
G02*
X54875000Y-33556250I0J343750D01*
G01*
X54875000Y-32443750D01*
G75*
G02*
X55218750Y-32100000I343750J0D01*
G01*
X55906250Y-32100000D01*
G75*
G02*
X56250000Y-32443750I0J-343750D01*
G01*
G37*
G36*
G01*
X21693750Y-42250000D02*
X22806250Y-42250000D01*
G75*
G02*
X23150000Y-42593750I0J-343750D01*
G01*
X23150000Y-43281250D01*
G75*
G02*
X22806250Y-43625000I-343750J0D01*
G01*
X21693750Y-43625000D01*
G75*
G02*
X21350000Y-43281250I0J343750D01*
G01*
X21350000Y-42593750D01*
G75*
G02*
X21693750Y-42250000I343750J0D01*
G01*
G37*
G36*
G01*
X21693750Y-40375000D02*
X22806250Y-40375000D01*
G75*
G02*
X23150000Y-40718750I0J-343750D01*
G01*
X23150000Y-41406250D01*
G75*
G02*
X22806250Y-41750000I-343750J0D01*
G01*
X21693750Y-41750000D01*
G75*
G02*
X21350000Y-41406250I0J343750D01*
G01*
X21350000Y-40718750D01*
G75*
G02*
X21693750Y-40375000I343750J0D01*
G01*
G37*
G36*
G01*
X56250000Y-48943750D02*
X56250000Y-50056250D01*
G75*
G02*
X55906250Y-50400000I-343750J0D01*
G01*
X55218750Y-50400000D01*
G75*
G02*
X54875000Y-50056250I0J343750D01*
G01*
X54875000Y-48943750D01*
G75*
G02*
X55218750Y-48600000I343750J0D01*
G01*
X55906250Y-48600000D01*
G75*
G02*
X56250000Y-48943750I0J-343750D01*
G01*
G37*
G36*
G01*
X58125000Y-48943750D02*
X58125000Y-50056250D01*
G75*
G02*
X57781250Y-50400000I-343750J0D01*
G01*
X57093750Y-50400000D01*
G75*
G02*
X56750000Y-50056250I0J343750D01*
G01*
X56750000Y-48943750D01*
G75*
G02*
X57093750Y-48600000I343750J0D01*
G01*
X57781250Y-48600000D01*
G75*
G02*
X58125000Y-48943750I0J-343750D01*
G01*
G37*
G36*
G01*
X54125000Y-60556250D02*
X54125000Y-59443750D01*
G75*
G02*
X54468750Y-59100000I343750J0D01*
G01*
X55156250Y-59100000D01*
G75*
G02*
X55500000Y-59443750I0J-343750D01*
G01*
X55500000Y-60556250D01*
G75*
G02*
X55156250Y-60900000I-343750J0D01*
G01*
X54468750Y-60900000D01*
G75*
G02*
X54125000Y-60556250I0J343750D01*
G01*
G37*
G36*
G01*
X56000000Y-60556250D02*
X56000000Y-59443750D01*
G75*
G02*
X56343750Y-59100000I343750J0D01*
G01*
X57031250Y-59100000D01*
G75*
G02*
X57375000Y-59443750I0J-343750D01*
G01*
X57375000Y-60556250D01*
G75*
G02*
X57031250Y-60900000I-343750J0D01*
G01*
X56343750Y-60900000D01*
G75*
G02*
X56000000Y-60556250I0J343750D01*
G01*
G37*
G36*
G01*
X49125000Y-73693750D02*
X49125000Y-74806250D01*
G75*
G02*
X48781250Y-75150000I-343750J0D01*
G01*
X48093750Y-75150000D01*
G75*
G02*
X47750000Y-74806250I0J343750D01*
G01*
X47750000Y-73693750D01*
G75*
G02*
X48093750Y-73350000I343750J0D01*
G01*
X48781250Y-73350000D01*
G75*
G02*
X49125000Y-73693750I0J-343750D01*
G01*
G37*
G36*
G01*
X47250000Y-73693750D02*
X47250000Y-74806250D01*
G75*
G02*
X46906250Y-75150000I-343750J0D01*
G01*
X46218750Y-75150000D01*
G75*
G02*
X45875000Y-74806250I0J343750D01*
G01*
X45875000Y-73693750D01*
G75*
G02*
X46218750Y-73350000I343750J0D01*
G01*
X46906250Y-73350000D01*
G75*
G02*
X47250000Y-73693750I0J-343750D01*
G01*
G37*
G36*
G01*
X27000000Y-73693750D02*
X27000000Y-74806250D01*
G75*
G02*
X26656250Y-75150000I-343750J0D01*
G01*
X25968750Y-75150000D01*
G75*
G02*
X25625000Y-74806250I0J343750D01*
G01*
X25625000Y-73693750D01*
G75*
G02*
X25968750Y-73350000I343750J0D01*
G01*
X26656250Y-73350000D01*
G75*
G02*
X27000000Y-73693750I0J-343750D01*
G01*
G37*
G36*
G01*
X28875000Y-73693750D02*
X28875000Y-74806250D01*
G75*
G02*
X28531250Y-75150000I-343750J0D01*
G01*
X27843750Y-75150000D01*
G75*
G02*
X27500000Y-74806250I0J343750D01*
G01*
X27500000Y-73693750D01*
G75*
G02*
X27843750Y-73350000I343750J0D01*
G01*
X28531250Y-73350000D01*
G75*
G02*
X28875000Y-73693750I0J-343750D01*
G01*
G37*
G36*
G01*
X100193750Y-14750000D02*
X101306250Y-14750000D01*
G75*
G02*
X101650000Y-15093750I0J-343750D01*
G01*
X101650000Y-15781250D01*
G75*
G02*
X101306250Y-16125000I-343750J0D01*
G01*
X100193750Y-16125000D01*
G75*
G02*
X99850000Y-15781250I0J343750D01*
G01*
X99850000Y-15093750D01*
G75*
G02*
X100193750Y-14750000I343750J0D01*
G01*
G37*
G36*
G01*
X100193750Y-12875000D02*
X101306250Y-12875000D01*
G75*
G02*
X101650000Y-13218750I0J-343750D01*
G01*
X101650000Y-13906250D01*
G75*
G02*
X101306250Y-14250000I-343750J0D01*
G01*
X100193750Y-14250000D01*
G75*
G02*
X99850000Y-13906250I0J343750D01*
G01*
X99850000Y-13218750D01*
G75*
G02*
X100193750Y-12875000I343750J0D01*
G01*
G37*
G36*
G01*
X102443750Y-12875000D02*
X103556250Y-12875000D01*
G75*
G02*
X103900000Y-13218750I0J-343750D01*
G01*
X103900000Y-13906250D01*
G75*
G02*
X103556250Y-14250000I-343750J0D01*
G01*
X102443750Y-14250000D01*
G75*
G02*
X102100000Y-13906250I0J343750D01*
G01*
X102100000Y-13218750D01*
G75*
G02*
X102443750Y-12875000I343750J0D01*
G01*
G37*
G36*
G01*
X102443750Y-14750000D02*
X103556250Y-14750000D01*
G75*
G02*
X103900000Y-15093750I0J-343750D01*
G01*
X103900000Y-15781250D01*
G75*
G02*
X103556250Y-16125000I-343750J0D01*
G01*
X102443750Y-16125000D01*
G75*
G02*
X102100000Y-15781250I0J343750D01*
G01*
X102100000Y-15093750D01*
G75*
G02*
X102443750Y-14750000I343750J0D01*
G01*
G37*
G36*
G01*
X80943750Y-60375000D02*
X82056250Y-60375000D01*
G75*
G02*
X82400000Y-60718750I0J-343750D01*
G01*
X82400000Y-61406250D01*
G75*
G02*
X82056250Y-61750000I-343750J0D01*
G01*
X80943750Y-61750000D01*
G75*
G02*
X80600000Y-61406250I0J343750D01*
G01*
X80600000Y-60718750D01*
G75*
G02*
X80943750Y-60375000I343750J0D01*
G01*
G37*
G36*
G01*
X80943750Y-62250000D02*
X82056250Y-62250000D01*
G75*
G02*
X82400000Y-62593750I0J-343750D01*
G01*
X82400000Y-63281250D01*
G75*
G02*
X82056250Y-63625000I-343750J0D01*
G01*
X80943750Y-63625000D01*
G75*
G02*
X80600000Y-63281250I0J343750D01*
G01*
X80600000Y-62593750D01*
G75*
G02*
X80943750Y-62250000I343750J0D01*
G01*
G37*
G36*
G01*
X109306250Y-71250000D02*
X108193750Y-71250000D01*
G75*
G02*
X107850000Y-70906250I0J343750D01*
G01*
X107850000Y-70218750D01*
G75*
G02*
X108193750Y-69875000I343750J0D01*
G01*
X109306250Y-69875000D01*
G75*
G02*
X109650000Y-70218750I0J-343750D01*
G01*
X109650000Y-70906250D01*
G75*
G02*
X109306250Y-71250000I-343750J0D01*
G01*
G37*
G36*
G01*
X109306250Y-73125000D02*
X108193750Y-73125000D01*
G75*
G02*
X107850000Y-72781250I0J343750D01*
G01*
X107850000Y-72093750D01*
G75*
G02*
X108193750Y-71750000I343750J0D01*
G01*
X109306250Y-71750000D01*
G75*
G02*
X109650000Y-72093750I0J-343750D01*
G01*
X109650000Y-72781250D01*
G75*
G02*
X109306250Y-73125000I-343750J0D01*
G01*
G37*
G36*
G01*
X129056250Y-28625000D02*
X127943750Y-28625000D01*
G75*
G02*
X127600000Y-28281250I0J343750D01*
G01*
X127600000Y-27593750D01*
G75*
G02*
X127943750Y-27250000I343750J0D01*
G01*
X129056250Y-27250000D01*
G75*
G02*
X129400000Y-27593750I0J-343750D01*
G01*
X129400000Y-28281250D01*
G75*
G02*
X129056250Y-28625000I-343750J0D01*
G01*
G37*
G36*
G01*
X129056250Y-26750000D02*
X127943750Y-26750000D01*
G75*
G02*
X127600000Y-26406250I0J343750D01*
G01*
X127600000Y-25718750D01*
G75*
G02*
X127943750Y-25375000I343750J0D01*
G01*
X129056250Y-25375000D01*
G75*
G02*
X129400000Y-25718750I0J-343750D01*
G01*
X129400000Y-26406250D01*
G75*
G02*
X129056250Y-26750000I-343750J0D01*
G01*
G37*
G36*
G01*
X124056250Y-26750000D02*
X122943750Y-26750000D01*
G75*
G02*
X122600000Y-26406250I0J343750D01*
G01*
X122600000Y-25718750D01*
G75*
G02*
X122943750Y-25375000I343750J0D01*
G01*
X124056250Y-25375000D01*
G75*
G02*
X124400000Y-25718750I0J-343750D01*
G01*
X124400000Y-26406250D01*
G75*
G02*
X124056250Y-26750000I-343750J0D01*
G01*
G37*
G36*
G01*
X124056250Y-28625000D02*
X122943750Y-28625000D01*
G75*
G02*
X122600000Y-28281250I0J343750D01*
G01*
X122600000Y-27593750D01*
G75*
G02*
X122943750Y-27250000I343750J0D01*
G01*
X124056250Y-27250000D01*
G75*
G02*
X124400000Y-27593750I0J-343750D01*
G01*
X124400000Y-28281250D01*
G75*
G02*
X124056250Y-28625000I-343750J0D01*
G01*
G37*
G36*
G01*
X73943750Y-61250000D02*
X75056250Y-61250000D01*
G75*
G02*
X75400000Y-61593750I0J-343750D01*
G01*
X75400000Y-62281250D01*
G75*
G02*
X75056250Y-62625000I-343750J0D01*
G01*
X73943750Y-62625000D01*
G75*
G02*
X73600000Y-62281250I0J343750D01*
G01*
X73600000Y-61593750D01*
G75*
G02*
X73943750Y-61250000I343750J0D01*
G01*
G37*
G36*
G01*
X73943750Y-59375000D02*
X75056250Y-59375000D01*
G75*
G02*
X75400000Y-59718750I0J-343750D01*
G01*
X75400000Y-60406250D01*
G75*
G02*
X75056250Y-60750000I-343750J0D01*
G01*
X73943750Y-60750000D01*
G75*
G02*
X73600000Y-60406250I0J343750D01*
G01*
X73600000Y-59718750D01*
G75*
G02*
X73943750Y-59375000I343750J0D01*
G01*
G37*
G36*
G01*
X62625000Y-30306250D02*
X62625000Y-29193750D01*
G75*
G02*
X62968750Y-28850000I343750J0D01*
G01*
X63656250Y-28850000D01*
G75*
G02*
X64000000Y-29193750I0J-343750D01*
G01*
X64000000Y-30306250D01*
G75*
G02*
X63656250Y-30650000I-343750J0D01*
G01*
X62968750Y-30650000D01*
G75*
G02*
X62625000Y-30306250I0J343750D01*
G01*
G37*
G36*
G01*
X64500000Y-30306250D02*
X64500000Y-29193750D01*
G75*
G02*
X64843750Y-28850000I343750J0D01*
G01*
X65531250Y-28850000D01*
G75*
G02*
X65875000Y-29193750I0J-343750D01*
G01*
X65875000Y-30306250D01*
G75*
G02*
X65531250Y-30650000I-343750J0D01*
G01*
X64843750Y-30650000D01*
G75*
G02*
X64500000Y-30306250I0J343750D01*
G01*
G37*
G36*
G01*
X82306250Y-37500000D02*
X81193750Y-37500000D01*
G75*
G02*
X80850000Y-37156250I0J343750D01*
G01*
X80850000Y-36468750D01*
G75*
G02*
X81193750Y-36125000I343750J0D01*
G01*
X82306250Y-36125000D01*
G75*
G02*
X82650000Y-36468750I0J-343750D01*
G01*
X82650000Y-37156250D01*
G75*
G02*
X82306250Y-37500000I-343750J0D01*
G01*
G37*
G36*
G01*
X82306250Y-39375000D02*
X81193750Y-39375000D01*
G75*
G02*
X80850000Y-39031250I0J343750D01*
G01*
X80850000Y-38343750D01*
G75*
G02*
X81193750Y-38000000I343750J0D01*
G01*
X82306250Y-38000000D01*
G75*
G02*
X82650000Y-38343750I0J-343750D01*
G01*
X82650000Y-39031250D01*
G75*
G02*
X82306250Y-39375000I-343750J0D01*
G01*
G37*
G36*
G01*
X95625000Y-36943750D02*
X95625000Y-38056250D01*
G75*
G02*
X95281250Y-38400000I-343750J0D01*
G01*
X94593750Y-38400000D01*
G75*
G02*
X94250000Y-38056250I0J343750D01*
G01*
X94250000Y-36943750D01*
G75*
G02*
X94593750Y-36600000I343750J0D01*
G01*
X95281250Y-36600000D01*
G75*
G02*
X95625000Y-36943750I0J-343750D01*
G01*
G37*
G36*
G01*
X93750000Y-36943750D02*
X93750000Y-38056250D01*
G75*
G02*
X93406250Y-38400000I-343750J0D01*
G01*
X92718750Y-38400000D01*
G75*
G02*
X92375000Y-38056250I0J343750D01*
G01*
X92375000Y-36943750D01*
G75*
G02*
X92718750Y-36600000I343750J0D01*
G01*
X93406250Y-36600000D01*
G75*
G02*
X93750000Y-36943750I0J-343750D01*
G01*
G37*
D13*
X34500000Y-86500000D03*
D14*
X31960000Y-86500000D03*
X29420000Y-86500000D03*
X26880000Y-86500000D03*
X24340000Y-86500000D03*
X21800000Y-86500000D03*
X19260000Y-86500000D03*
X16720000Y-86500000D03*
X14180000Y-86500000D03*
X111500000Y-50820000D03*
X111500000Y-48280000D03*
X111500000Y-45740000D03*
X111500000Y-43200000D03*
X111500000Y-40660000D03*
X111500000Y-38120000D03*
X111500000Y-35580000D03*
X111500000Y-33040000D03*
D13*
X111500000Y-30500000D03*
G36*
G01*
X67850000Y-33810000D02*
X67850000Y-33310000D01*
G75*
G02*
X68100000Y-33060000I250000J0D01*
G01*
X69950000Y-33060000D01*
G75*
G02*
X70200000Y-33310000I0J-250000D01*
G01*
X70200000Y-33810000D01*
G75*
G02*
X69950000Y-34060000I-250000J0D01*
G01*
X68100000Y-34060000D01*
G75*
G02*
X67850000Y-33810000I0J250000D01*
G01*
G37*
G36*
G01*
X67850000Y-32540000D02*
X67850000Y-32040000D01*
G75*
G02*
X68100000Y-31790000I250000J0D01*
G01*
X69950000Y-31790000D01*
G75*
G02*
X70200000Y-32040000I0J-250000D01*
G01*
X70200000Y-32540000D01*
G75*
G02*
X69950000Y-32790000I-250000J0D01*
G01*
X68100000Y-32790000D01*
G75*
G02*
X67850000Y-32540000I0J250000D01*
G01*
G37*
G36*
G01*
X67850000Y-31270000D02*
X67850000Y-30770000D01*
G75*
G02*
X68100000Y-30520000I250000J0D01*
G01*
X69950000Y-30520000D01*
G75*
G02*
X70200000Y-30770000I0J-250000D01*
G01*
X70200000Y-31270000D01*
G75*
G02*
X69950000Y-31520000I-250000J0D01*
G01*
X68100000Y-31520000D01*
G75*
G02*
X67850000Y-31270000I0J250000D01*
G01*
G37*
G36*
G01*
X67850000Y-30000000D02*
X67850000Y-29500000D01*
G75*
G02*
X68100000Y-29250000I250000J0D01*
G01*
X69950000Y-29250000D01*
G75*
G02*
X70200000Y-29500000I0J-250000D01*
G01*
X70200000Y-30000000D01*
G75*
G02*
X69950000Y-30250000I-250000J0D01*
G01*
X68100000Y-30250000D01*
G75*
G02*
X67850000Y-30000000I0J250000D01*
G01*
G37*
G36*
G01*
X67850000Y-28730000D02*
X67850000Y-28230000D01*
G75*
G02*
X68100000Y-27980000I250000J0D01*
G01*
X69950000Y-27980000D01*
G75*
G02*
X70200000Y-28230000I0J-250000D01*
G01*
X70200000Y-28730000D01*
G75*
G02*
X69950000Y-28980000I-250000J0D01*
G01*
X68100000Y-28980000D01*
G75*
G02*
X67850000Y-28730000I0J250000D01*
G01*
G37*
G36*
G01*
X67850000Y-27460000D02*
X67850000Y-26960000D01*
G75*
G02*
X68100000Y-26710000I250000J0D01*
G01*
X69950000Y-26710000D01*
G75*
G02*
X70200000Y-26960000I0J-250000D01*
G01*
X70200000Y-27460000D01*
G75*
G02*
X69950000Y-27710000I-250000J0D01*
G01*
X68100000Y-27710000D01*
G75*
G02*
X67850000Y-27460000I0J250000D01*
G01*
G37*
G36*
G01*
X67850000Y-26190000D02*
X67850000Y-25690000D01*
G75*
G02*
X68100000Y-25440000I250000J0D01*
G01*
X69950000Y-25440000D01*
G75*
G02*
X70200000Y-25690000I0J-250000D01*
G01*
X70200000Y-26190000D01*
G75*
G02*
X69950000Y-26440000I-250000J0D01*
G01*
X68100000Y-26440000D01*
G75*
G02*
X67850000Y-26190000I0J250000D01*
G01*
G37*
G36*
G01*
X72800000Y-26190000D02*
X72800000Y-25690000D01*
G75*
G02*
X73050000Y-25440000I250000J0D01*
G01*
X74900000Y-25440000D01*
G75*
G02*
X75150000Y-25690000I0J-250000D01*
G01*
X75150000Y-26190000D01*
G75*
G02*
X74900000Y-26440000I-250000J0D01*
G01*
X73050000Y-26440000D01*
G75*
G02*
X72800000Y-26190000I0J250000D01*
G01*
G37*
G36*
G01*
X72800000Y-27460000D02*
X72800000Y-26960000D01*
G75*
G02*
X73050000Y-26710000I250000J0D01*
G01*
X74900000Y-26710000D01*
G75*
G02*
X75150000Y-26960000I0J-250000D01*
G01*
X75150000Y-27460000D01*
G75*
G02*
X74900000Y-27710000I-250000J0D01*
G01*
X73050000Y-27710000D01*
G75*
G02*
X72800000Y-27460000I0J250000D01*
G01*
G37*
G36*
G01*
X72800000Y-28730000D02*
X72800000Y-28230000D01*
G75*
G02*
X73050000Y-27980000I250000J0D01*
G01*
X74900000Y-27980000D01*
G75*
G02*
X75150000Y-28230000I0J-250000D01*
G01*
X75150000Y-28730000D01*
G75*
G02*
X74900000Y-28980000I-250000J0D01*
G01*
X73050000Y-28980000D01*
G75*
G02*
X72800000Y-28730000I0J250000D01*
G01*
G37*
G36*
G01*
X72800000Y-30000000D02*
X72800000Y-29500000D01*
G75*
G02*
X73050000Y-29250000I250000J0D01*
G01*
X74900000Y-29250000D01*
G75*
G02*
X75150000Y-29500000I0J-250000D01*
G01*
X75150000Y-30000000D01*
G75*
G02*
X74900000Y-30250000I-250000J0D01*
G01*
X73050000Y-30250000D01*
G75*
G02*
X72800000Y-30000000I0J250000D01*
G01*
G37*
G36*
G01*
X72800000Y-31270000D02*
X72800000Y-30770000D01*
G75*
G02*
X73050000Y-30520000I250000J0D01*
G01*
X74900000Y-30520000D01*
G75*
G02*
X75150000Y-30770000I0J-250000D01*
G01*
X75150000Y-31270000D01*
G75*
G02*
X74900000Y-31520000I-250000J0D01*
G01*
X73050000Y-31520000D01*
G75*
G02*
X72800000Y-31270000I0J250000D01*
G01*
G37*
G36*
G01*
X72800000Y-32540000D02*
X72800000Y-32040000D01*
G75*
G02*
X73050000Y-31790000I250000J0D01*
G01*
X74900000Y-31790000D01*
G75*
G02*
X75150000Y-32040000I0J-250000D01*
G01*
X75150000Y-32540000D01*
G75*
G02*
X74900000Y-32790000I-250000J0D01*
G01*
X73050000Y-32790000D01*
G75*
G02*
X72800000Y-32540000I0J250000D01*
G01*
G37*
G36*
G01*
X72800000Y-33810000D02*
X72800000Y-33310000D01*
G75*
G02*
X73050000Y-33060000I250000J0D01*
G01*
X74900000Y-33060000D01*
G75*
G02*
X75150000Y-33310000I0J-250000D01*
G01*
X75150000Y-33810000D01*
G75*
G02*
X74900000Y-34060000I-250000J0D01*
G01*
X73050000Y-34060000D01*
G75*
G02*
X72800000Y-33810000I0J250000D01*
G01*
G37*
G36*
G01*
X84800000Y-33810000D02*
X84800000Y-33310000D01*
G75*
G02*
X85050000Y-33060000I250000J0D01*
G01*
X86900000Y-33060000D01*
G75*
G02*
X87150000Y-33310000I0J-250000D01*
G01*
X87150000Y-33810000D01*
G75*
G02*
X86900000Y-34060000I-250000J0D01*
G01*
X85050000Y-34060000D01*
G75*
G02*
X84800000Y-33810000I0J250000D01*
G01*
G37*
G36*
G01*
X84800000Y-32540000D02*
X84800000Y-32040000D01*
G75*
G02*
X85050000Y-31790000I250000J0D01*
G01*
X86900000Y-31790000D01*
G75*
G02*
X87150000Y-32040000I0J-250000D01*
G01*
X87150000Y-32540000D01*
G75*
G02*
X86900000Y-32790000I-250000J0D01*
G01*
X85050000Y-32790000D01*
G75*
G02*
X84800000Y-32540000I0J250000D01*
G01*
G37*
G36*
G01*
X84800000Y-31270000D02*
X84800000Y-30770000D01*
G75*
G02*
X85050000Y-30520000I250000J0D01*
G01*
X86900000Y-30520000D01*
G75*
G02*
X87150000Y-30770000I0J-250000D01*
G01*
X87150000Y-31270000D01*
G75*
G02*
X86900000Y-31520000I-250000J0D01*
G01*
X85050000Y-31520000D01*
G75*
G02*
X84800000Y-31270000I0J250000D01*
G01*
G37*
G36*
G01*
X84800000Y-30000000D02*
X84800000Y-29500000D01*
G75*
G02*
X85050000Y-29250000I250000J0D01*
G01*
X86900000Y-29250000D01*
G75*
G02*
X87150000Y-29500000I0J-250000D01*
G01*
X87150000Y-30000000D01*
G75*
G02*
X86900000Y-30250000I-250000J0D01*
G01*
X85050000Y-30250000D01*
G75*
G02*
X84800000Y-30000000I0J250000D01*
G01*
G37*
G36*
G01*
X84800000Y-28730000D02*
X84800000Y-28230000D01*
G75*
G02*
X85050000Y-27980000I250000J0D01*
G01*
X86900000Y-27980000D01*
G75*
G02*
X87150000Y-28230000I0J-250000D01*
G01*
X87150000Y-28730000D01*
G75*
G02*
X86900000Y-28980000I-250000J0D01*
G01*
X85050000Y-28980000D01*
G75*
G02*
X84800000Y-28730000I0J250000D01*
G01*
G37*
G36*
G01*
X84800000Y-27460000D02*
X84800000Y-26960000D01*
G75*
G02*
X85050000Y-26710000I250000J0D01*
G01*
X86900000Y-26710000D01*
G75*
G02*
X87150000Y-26960000I0J-250000D01*
G01*
X87150000Y-27460000D01*
G75*
G02*
X86900000Y-27710000I-250000J0D01*
G01*
X85050000Y-27710000D01*
G75*
G02*
X84800000Y-27460000I0J250000D01*
G01*
G37*
G36*
G01*
X84800000Y-26190000D02*
X84800000Y-25690000D01*
G75*
G02*
X85050000Y-25440000I250000J0D01*
G01*
X86900000Y-25440000D01*
G75*
G02*
X87150000Y-25690000I0J-250000D01*
G01*
X87150000Y-26190000D01*
G75*
G02*
X86900000Y-26440000I-250000J0D01*
G01*
X85050000Y-26440000D01*
G75*
G02*
X84800000Y-26190000I0J250000D01*
G01*
G37*
G36*
G01*
X79850000Y-26190000D02*
X79850000Y-25690000D01*
G75*
G02*
X80100000Y-25440000I250000J0D01*
G01*
X81950000Y-25440000D01*
G75*
G02*
X82200000Y-25690000I0J-250000D01*
G01*
X82200000Y-26190000D01*
G75*
G02*
X81950000Y-26440000I-250000J0D01*
G01*
X80100000Y-26440000D01*
G75*
G02*
X79850000Y-26190000I0J250000D01*
G01*
G37*
G36*
G01*
X79850000Y-27460000D02*
X79850000Y-26960000D01*
G75*
G02*
X80100000Y-26710000I250000J0D01*
G01*
X81950000Y-26710000D01*
G75*
G02*
X82200000Y-26960000I0J-250000D01*
G01*
X82200000Y-27460000D01*
G75*
G02*
X81950000Y-27710000I-250000J0D01*
G01*
X80100000Y-27710000D01*
G75*
G02*
X79850000Y-27460000I0J250000D01*
G01*
G37*
G36*
G01*
X79850000Y-28730000D02*
X79850000Y-28230000D01*
G75*
G02*
X80100000Y-27980000I250000J0D01*
G01*
X81950000Y-27980000D01*
G75*
G02*
X82200000Y-28230000I0J-250000D01*
G01*
X82200000Y-28730000D01*
G75*
G02*
X81950000Y-28980000I-250000J0D01*
G01*
X80100000Y-28980000D01*
G75*
G02*
X79850000Y-28730000I0J250000D01*
G01*
G37*
G36*
G01*
X79850000Y-30000000D02*
X79850000Y-29500000D01*
G75*
G02*
X80100000Y-29250000I250000J0D01*
G01*
X81950000Y-29250000D01*
G75*
G02*
X82200000Y-29500000I0J-250000D01*
G01*
X82200000Y-30000000D01*
G75*
G02*
X81950000Y-30250000I-250000J0D01*
G01*
X80100000Y-30250000D01*
G75*
G02*
X79850000Y-30000000I0J250000D01*
G01*
G37*
G36*
G01*
X79850000Y-31270000D02*
X79850000Y-30770000D01*
G75*
G02*
X80100000Y-30520000I250000J0D01*
G01*
X81950000Y-30520000D01*
G75*
G02*
X82200000Y-30770000I0J-250000D01*
G01*
X82200000Y-31270000D01*
G75*
G02*
X81950000Y-31520000I-250000J0D01*
G01*
X80100000Y-31520000D01*
G75*
G02*
X79850000Y-31270000I0J250000D01*
G01*
G37*
G36*
G01*
X79850000Y-32540000D02*
X79850000Y-32040000D01*
G75*
G02*
X80100000Y-31790000I250000J0D01*
G01*
X81950000Y-31790000D01*
G75*
G02*
X82200000Y-32040000I0J-250000D01*
G01*
X82200000Y-32540000D01*
G75*
G02*
X81950000Y-32790000I-250000J0D01*
G01*
X80100000Y-32790000D01*
G75*
G02*
X79850000Y-32540000I0J250000D01*
G01*
G37*
G36*
G01*
X79850000Y-33810000D02*
X79850000Y-33310000D01*
G75*
G02*
X80100000Y-33060000I250000J0D01*
G01*
X81950000Y-33060000D01*
G75*
G02*
X82200000Y-33310000I0J-250000D01*
G01*
X82200000Y-33810000D01*
G75*
G02*
X81950000Y-34060000I-250000J0D01*
G01*
X80100000Y-34060000D01*
G75*
G02*
X79850000Y-33810000I0J250000D01*
G01*
G37*
D15*
X96450000Y-21100000D03*
X95500000Y-21100000D03*
X94550000Y-21100000D03*
X94550000Y-18900000D03*
X96450000Y-18900000D03*
X84450000Y-18900000D03*
X82550000Y-18900000D03*
X82550000Y-21100000D03*
X83500000Y-21100000D03*
X84450000Y-21100000D03*
G36*
G01*
X91850000Y-33810000D02*
X91850000Y-33310000D01*
G75*
G02*
X92100000Y-33060000I250000J0D01*
G01*
X93950000Y-33060000D01*
G75*
G02*
X94200000Y-33310000I0J-250000D01*
G01*
X94200000Y-33810000D01*
G75*
G02*
X93950000Y-34060000I-250000J0D01*
G01*
X92100000Y-34060000D01*
G75*
G02*
X91850000Y-33810000I0J250000D01*
G01*
G37*
G36*
G01*
X91850000Y-32540000D02*
X91850000Y-32040000D01*
G75*
G02*
X92100000Y-31790000I250000J0D01*
G01*
X93950000Y-31790000D01*
G75*
G02*
X94200000Y-32040000I0J-250000D01*
G01*
X94200000Y-32540000D01*
G75*
G02*
X93950000Y-32790000I-250000J0D01*
G01*
X92100000Y-32790000D01*
G75*
G02*
X91850000Y-32540000I0J250000D01*
G01*
G37*
G36*
G01*
X91850000Y-31270000D02*
X91850000Y-30770000D01*
G75*
G02*
X92100000Y-30520000I250000J0D01*
G01*
X93950000Y-30520000D01*
G75*
G02*
X94200000Y-30770000I0J-250000D01*
G01*
X94200000Y-31270000D01*
G75*
G02*
X93950000Y-31520000I-250000J0D01*
G01*
X92100000Y-31520000D01*
G75*
G02*
X91850000Y-31270000I0J250000D01*
G01*
G37*
G36*
G01*
X91850000Y-30000000D02*
X91850000Y-29500000D01*
G75*
G02*
X92100000Y-29250000I250000J0D01*
G01*
X93950000Y-29250000D01*
G75*
G02*
X94200000Y-29500000I0J-250000D01*
G01*
X94200000Y-30000000D01*
G75*
G02*
X93950000Y-30250000I-250000J0D01*
G01*
X92100000Y-30250000D01*
G75*
G02*
X91850000Y-30000000I0J250000D01*
G01*
G37*
G36*
G01*
X91850000Y-28730000D02*
X91850000Y-28230000D01*
G75*
G02*
X92100000Y-27980000I250000J0D01*
G01*
X93950000Y-27980000D01*
G75*
G02*
X94200000Y-28230000I0J-250000D01*
G01*
X94200000Y-28730000D01*
G75*
G02*
X93950000Y-28980000I-250000J0D01*
G01*
X92100000Y-28980000D01*
G75*
G02*
X91850000Y-28730000I0J250000D01*
G01*
G37*
G36*
G01*
X91850000Y-27460000D02*
X91850000Y-26960000D01*
G75*
G02*
X92100000Y-26710000I250000J0D01*
G01*
X93950000Y-26710000D01*
G75*
G02*
X94200000Y-26960000I0J-250000D01*
G01*
X94200000Y-27460000D01*
G75*
G02*
X93950000Y-27710000I-250000J0D01*
G01*
X92100000Y-27710000D01*
G75*
G02*
X91850000Y-27460000I0J250000D01*
G01*
G37*
G36*
G01*
X91850000Y-26190000D02*
X91850000Y-25690000D01*
G75*
G02*
X92100000Y-25440000I250000J0D01*
G01*
X93950000Y-25440000D01*
G75*
G02*
X94200000Y-25690000I0J-250000D01*
G01*
X94200000Y-26190000D01*
G75*
G02*
X93950000Y-26440000I-250000J0D01*
G01*
X92100000Y-26440000D01*
G75*
G02*
X91850000Y-26190000I0J250000D01*
G01*
G37*
G36*
G01*
X96800000Y-26190000D02*
X96800000Y-25690000D01*
G75*
G02*
X97050000Y-25440000I250000J0D01*
G01*
X98900000Y-25440000D01*
G75*
G02*
X99150000Y-25690000I0J-250000D01*
G01*
X99150000Y-26190000D01*
G75*
G02*
X98900000Y-26440000I-250000J0D01*
G01*
X97050000Y-26440000D01*
G75*
G02*
X96800000Y-26190000I0J250000D01*
G01*
G37*
G36*
G01*
X96800000Y-27460000D02*
X96800000Y-26960000D01*
G75*
G02*
X97050000Y-26710000I250000J0D01*
G01*
X98900000Y-26710000D01*
G75*
G02*
X99150000Y-26960000I0J-250000D01*
G01*
X99150000Y-27460000D01*
G75*
G02*
X98900000Y-27710000I-250000J0D01*
G01*
X97050000Y-27710000D01*
G75*
G02*
X96800000Y-27460000I0J250000D01*
G01*
G37*
G36*
G01*
X96800000Y-28730000D02*
X96800000Y-28230000D01*
G75*
G02*
X97050000Y-27980000I250000J0D01*
G01*
X98900000Y-27980000D01*
G75*
G02*
X99150000Y-28230000I0J-250000D01*
G01*
X99150000Y-28730000D01*
G75*
G02*
X98900000Y-28980000I-250000J0D01*
G01*
X97050000Y-28980000D01*
G75*
G02*
X96800000Y-28730000I0J250000D01*
G01*
G37*
G36*
G01*
X96800000Y-30000000D02*
X96800000Y-29500000D01*
G75*
G02*
X97050000Y-29250000I250000J0D01*
G01*
X98900000Y-29250000D01*
G75*
G02*
X99150000Y-29500000I0J-250000D01*
G01*
X99150000Y-30000000D01*
G75*
G02*
X98900000Y-30250000I-250000J0D01*
G01*
X97050000Y-30250000D01*
G75*
G02*
X96800000Y-30000000I0J250000D01*
G01*
G37*
G36*
G01*
X96800000Y-31270000D02*
X96800000Y-30770000D01*
G75*
G02*
X97050000Y-30520000I250000J0D01*
G01*
X98900000Y-30520000D01*
G75*
G02*
X99150000Y-30770000I0J-250000D01*
G01*
X99150000Y-31270000D01*
G75*
G02*
X98900000Y-31520000I-250000J0D01*
G01*
X97050000Y-31520000D01*
G75*
G02*
X96800000Y-31270000I0J250000D01*
G01*
G37*
G36*
G01*
X96800000Y-32540000D02*
X96800000Y-32040000D01*
G75*
G02*
X97050000Y-31790000I250000J0D01*
G01*
X98900000Y-31790000D01*
G75*
G02*
X99150000Y-32040000I0J-250000D01*
G01*
X99150000Y-32540000D01*
G75*
G02*
X98900000Y-32790000I-250000J0D01*
G01*
X97050000Y-32790000D01*
G75*
G02*
X96800000Y-32540000I0J250000D01*
G01*
G37*
G36*
G01*
X96800000Y-33810000D02*
X96800000Y-33310000D01*
G75*
G02*
X97050000Y-33060000I250000J0D01*
G01*
X98900000Y-33060000D01*
G75*
G02*
X99150000Y-33310000I0J-250000D01*
G01*
X99150000Y-33810000D01*
G75*
G02*
X98900000Y-34060000I-250000J0D01*
G01*
X97050000Y-34060000D01*
G75*
G02*
X96800000Y-33810000I0J250000D01*
G01*
G37*
G36*
G01*
X9875000Y-35465000D02*
X9875000Y-34965000D01*
G75*
G02*
X10125000Y-34715000I250000J0D01*
G01*
X12075000Y-34715000D01*
G75*
G02*
X12325000Y-34965000I0J-250000D01*
G01*
X12325000Y-35465000D01*
G75*
G02*
X12075000Y-35715000I-250000J0D01*
G01*
X10125000Y-35715000D01*
G75*
G02*
X9875000Y-35465000I0J250000D01*
G01*
G37*
G36*
G01*
X9875000Y-34195000D02*
X9875000Y-33695000D01*
G75*
G02*
X10125000Y-33445000I250000J0D01*
G01*
X12075000Y-33445000D01*
G75*
G02*
X12325000Y-33695000I0J-250000D01*
G01*
X12325000Y-34195000D01*
G75*
G02*
X12075000Y-34445000I-250000J0D01*
G01*
X10125000Y-34445000D01*
G75*
G02*
X9875000Y-34195000I0J250000D01*
G01*
G37*
G36*
G01*
X9875000Y-32925000D02*
X9875000Y-32425000D01*
G75*
G02*
X10125000Y-32175000I250000J0D01*
G01*
X12075000Y-32175000D01*
G75*
G02*
X12325000Y-32425000I0J-250000D01*
G01*
X12325000Y-32925000D01*
G75*
G02*
X12075000Y-33175000I-250000J0D01*
G01*
X10125000Y-33175000D01*
G75*
G02*
X9875000Y-32925000I0J250000D01*
G01*
G37*
G36*
G01*
X9875000Y-31655000D02*
X9875000Y-31155000D01*
G75*
G02*
X10125000Y-30905000I250000J0D01*
G01*
X12075000Y-30905000D01*
G75*
G02*
X12325000Y-31155000I0J-250000D01*
G01*
X12325000Y-31655000D01*
G75*
G02*
X12075000Y-31905000I-250000J0D01*
G01*
X10125000Y-31905000D01*
G75*
G02*
X9875000Y-31655000I0J250000D01*
G01*
G37*
G36*
G01*
X9875000Y-30385000D02*
X9875000Y-29885000D01*
G75*
G02*
X10125000Y-29635000I250000J0D01*
G01*
X12075000Y-29635000D01*
G75*
G02*
X12325000Y-29885000I0J-250000D01*
G01*
X12325000Y-30385000D01*
G75*
G02*
X12075000Y-30635000I-250000J0D01*
G01*
X10125000Y-30635000D01*
G75*
G02*
X9875000Y-30385000I0J250000D01*
G01*
G37*
G36*
G01*
X9875000Y-29115000D02*
X9875000Y-28615000D01*
G75*
G02*
X10125000Y-28365000I250000J0D01*
G01*
X12075000Y-28365000D01*
G75*
G02*
X12325000Y-28615000I0J-250000D01*
G01*
X12325000Y-29115000D01*
G75*
G02*
X12075000Y-29365000I-250000J0D01*
G01*
X10125000Y-29365000D01*
G75*
G02*
X9875000Y-29115000I0J250000D01*
G01*
G37*
G36*
G01*
X9875000Y-27845000D02*
X9875000Y-27345000D01*
G75*
G02*
X10125000Y-27095000I250000J0D01*
G01*
X12075000Y-27095000D01*
G75*
G02*
X12325000Y-27345000I0J-250000D01*
G01*
X12325000Y-27845000D01*
G75*
G02*
X12075000Y-28095000I-250000J0D01*
G01*
X10125000Y-28095000D01*
G75*
G02*
X9875000Y-27845000I0J250000D01*
G01*
G37*
G36*
G01*
X9875000Y-26575000D02*
X9875000Y-26075000D01*
G75*
G02*
X10125000Y-25825000I250000J0D01*
G01*
X12075000Y-25825000D01*
G75*
G02*
X12325000Y-26075000I0J-250000D01*
G01*
X12325000Y-26575000D01*
G75*
G02*
X12075000Y-26825000I-250000J0D01*
G01*
X10125000Y-26825000D01*
G75*
G02*
X9875000Y-26575000I0J250000D01*
G01*
G37*
G36*
G01*
X9875000Y-25305000D02*
X9875000Y-24805000D01*
G75*
G02*
X10125000Y-24555000I250000J0D01*
G01*
X12075000Y-24555000D01*
G75*
G02*
X12325000Y-24805000I0J-250000D01*
G01*
X12325000Y-25305000D01*
G75*
G02*
X12075000Y-25555000I-250000J0D01*
G01*
X10125000Y-25555000D01*
G75*
G02*
X9875000Y-25305000I0J250000D01*
G01*
G37*
G36*
G01*
X9875000Y-24035000D02*
X9875000Y-23535000D01*
G75*
G02*
X10125000Y-23285000I250000J0D01*
G01*
X12075000Y-23285000D01*
G75*
G02*
X12325000Y-23535000I0J-250000D01*
G01*
X12325000Y-24035000D01*
G75*
G02*
X12075000Y-24285000I-250000J0D01*
G01*
X10125000Y-24285000D01*
G75*
G02*
X9875000Y-24035000I0J250000D01*
G01*
G37*
G36*
G01*
X19175000Y-24035000D02*
X19175000Y-23535000D01*
G75*
G02*
X19425000Y-23285000I250000J0D01*
G01*
X21375000Y-23285000D01*
G75*
G02*
X21625000Y-23535000I0J-250000D01*
G01*
X21625000Y-24035000D01*
G75*
G02*
X21375000Y-24285000I-250000J0D01*
G01*
X19425000Y-24285000D01*
G75*
G02*
X19175000Y-24035000I0J250000D01*
G01*
G37*
G36*
G01*
X19175000Y-25305000D02*
X19175000Y-24805000D01*
G75*
G02*
X19425000Y-24555000I250000J0D01*
G01*
X21375000Y-24555000D01*
G75*
G02*
X21625000Y-24805000I0J-250000D01*
G01*
X21625000Y-25305000D01*
G75*
G02*
X21375000Y-25555000I-250000J0D01*
G01*
X19425000Y-25555000D01*
G75*
G02*
X19175000Y-25305000I0J250000D01*
G01*
G37*
G36*
G01*
X19175000Y-26575000D02*
X19175000Y-26075000D01*
G75*
G02*
X19425000Y-25825000I250000J0D01*
G01*
X21375000Y-25825000D01*
G75*
G02*
X21625000Y-26075000I0J-250000D01*
G01*
X21625000Y-26575000D01*
G75*
G02*
X21375000Y-26825000I-250000J0D01*
G01*
X19425000Y-26825000D01*
G75*
G02*
X19175000Y-26575000I0J250000D01*
G01*
G37*
G36*
G01*
X19175000Y-27845000D02*
X19175000Y-27345000D01*
G75*
G02*
X19425000Y-27095000I250000J0D01*
G01*
X21375000Y-27095000D01*
G75*
G02*
X21625000Y-27345000I0J-250000D01*
G01*
X21625000Y-27845000D01*
G75*
G02*
X21375000Y-28095000I-250000J0D01*
G01*
X19425000Y-28095000D01*
G75*
G02*
X19175000Y-27845000I0J250000D01*
G01*
G37*
G36*
G01*
X19175000Y-29115000D02*
X19175000Y-28615000D01*
G75*
G02*
X19425000Y-28365000I250000J0D01*
G01*
X21375000Y-28365000D01*
G75*
G02*
X21625000Y-28615000I0J-250000D01*
G01*
X21625000Y-29115000D01*
G75*
G02*
X21375000Y-29365000I-250000J0D01*
G01*
X19425000Y-29365000D01*
G75*
G02*
X19175000Y-29115000I0J250000D01*
G01*
G37*
G36*
G01*
X19175000Y-30385000D02*
X19175000Y-29885000D01*
G75*
G02*
X19425000Y-29635000I250000J0D01*
G01*
X21375000Y-29635000D01*
G75*
G02*
X21625000Y-29885000I0J-250000D01*
G01*
X21625000Y-30385000D01*
G75*
G02*
X21375000Y-30635000I-250000J0D01*
G01*
X19425000Y-30635000D01*
G75*
G02*
X19175000Y-30385000I0J250000D01*
G01*
G37*
G36*
G01*
X19175000Y-31655000D02*
X19175000Y-31155000D01*
G75*
G02*
X19425000Y-30905000I250000J0D01*
G01*
X21375000Y-30905000D01*
G75*
G02*
X21625000Y-31155000I0J-250000D01*
G01*
X21625000Y-31655000D01*
G75*
G02*
X21375000Y-31905000I-250000J0D01*
G01*
X19425000Y-31905000D01*
G75*
G02*
X19175000Y-31655000I0J250000D01*
G01*
G37*
G36*
G01*
X19175000Y-32925000D02*
X19175000Y-32425000D01*
G75*
G02*
X19425000Y-32175000I250000J0D01*
G01*
X21375000Y-32175000D01*
G75*
G02*
X21625000Y-32425000I0J-250000D01*
G01*
X21625000Y-32925000D01*
G75*
G02*
X21375000Y-33175000I-250000J0D01*
G01*
X19425000Y-33175000D01*
G75*
G02*
X19175000Y-32925000I0J250000D01*
G01*
G37*
G36*
G01*
X19175000Y-34195000D02*
X19175000Y-33695000D01*
G75*
G02*
X19425000Y-33445000I250000J0D01*
G01*
X21375000Y-33445000D01*
G75*
G02*
X21625000Y-33695000I0J-250000D01*
G01*
X21625000Y-34195000D01*
G75*
G02*
X21375000Y-34445000I-250000J0D01*
G01*
X19425000Y-34445000D01*
G75*
G02*
X19175000Y-34195000I0J250000D01*
G01*
G37*
G36*
G01*
X19175000Y-35465000D02*
X19175000Y-34965000D01*
G75*
G02*
X19425000Y-34715000I250000J0D01*
G01*
X21375000Y-34715000D01*
G75*
G02*
X21625000Y-34965000I0J-250000D01*
G01*
X21625000Y-35465000D01*
G75*
G02*
X21375000Y-35715000I-250000J0D01*
G01*
X19425000Y-35715000D01*
G75*
G02*
X19175000Y-35465000I0J250000D01*
G01*
G37*
G36*
G01*
X43050000Y-48945000D02*
X43050000Y-48445000D01*
G75*
G02*
X43300000Y-48195000I250000J0D01*
G01*
X45150000Y-48195000D01*
G75*
G02*
X45400000Y-48445000I0J-250000D01*
G01*
X45400000Y-48945000D01*
G75*
G02*
X45150000Y-49195000I-250000J0D01*
G01*
X43300000Y-49195000D01*
G75*
G02*
X43050000Y-48945000I0J250000D01*
G01*
G37*
G36*
G01*
X43050000Y-47675000D02*
X43050000Y-47175000D01*
G75*
G02*
X43300000Y-46925000I250000J0D01*
G01*
X45150000Y-46925000D01*
G75*
G02*
X45400000Y-47175000I0J-250000D01*
G01*
X45400000Y-47675000D01*
G75*
G02*
X45150000Y-47925000I-250000J0D01*
G01*
X43300000Y-47925000D01*
G75*
G02*
X43050000Y-47675000I0J250000D01*
G01*
G37*
G36*
G01*
X43050000Y-46405000D02*
X43050000Y-45905000D01*
G75*
G02*
X43300000Y-45655000I250000J0D01*
G01*
X45150000Y-45655000D01*
G75*
G02*
X45400000Y-45905000I0J-250000D01*
G01*
X45400000Y-46405000D01*
G75*
G02*
X45150000Y-46655000I-250000J0D01*
G01*
X43300000Y-46655000D01*
G75*
G02*
X43050000Y-46405000I0J250000D01*
G01*
G37*
G36*
G01*
X43050000Y-45135000D02*
X43050000Y-44635000D01*
G75*
G02*
X43300000Y-44385000I250000J0D01*
G01*
X45150000Y-44385000D01*
G75*
G02*
X45400000Y-44635000I0J-250000D01*
G01*
X45400000Y-45135000D01*
G75*
G02*
X45150000Y-45385000I-250000J0D01*
G01*
X43300000Y-45385000D01*
G75*
G02*
X43050000Y-45135000I0J250000D01*
G01*
G37*
G36*
G01*
X43050000Y-43865000D02*
X43050000Y-43365000D01*
G75*
G02*
X43300000Y-43115000I250000J0D01*
G01*
X45150000Y-43115000D01*
G75*
G02*
X45400000Y-43365000I0J-250000D01*
G01*
X45400000Y-43865000D01*
G75*
G02*
X45150000Y-44115000I-250000J0D01*
G01*
X43300000Y-44115000D01*
G75*
G02*
X43050000Y-43865000I0J250000D01*
G01*
G37*
G36*
G01*
X43050000Y-42595000D02*
X43050000Y-42095000D01*
G75*
G02*
X43300000Y-41845000I250000J0D01*
G01*
X45150000Y-41845000D01*
G75*
G02*
X45400000Y-42095000I0J-250000D01*
G01*
X45400000Y-42595000D01*
G75*
G02*
X45150000Y-42845000I-250000J0D01*
G01*
X43300000Y-42845000D01*
G75*
G02*
X43050000Y-42595000I0J250000D01*
G01*
G37*
G36*
G01*
X43050000Y-41325000D02*
X43050000Y-40825000D01*
G75*
G02*
X43300000Y-40575000I250000J0D01*
G01*
X45150000Y-40575000D01*
G75*
G02*
X45400000Y-40825000I0J-250000D01*
G01*
X45400000Y-41325000D01*
G75*
G02*
X45150000Y-41575000I-250000J0D01*
G01*
X43300000Y-41575000D01*
G75*
G02*
X43050000Y-41325000I0J250000D01*
G01*
G37*
G36*
G01*
X43050000Y-40055000D02*
X43050000Y-39555000D01*
G75*
G02*
X43300000Y-39305000I250000J0D01*
G01*
X45150000Y-39305000D01*
G75*
G02*
X45400000Y-39555000I0J-250000D01*
G01*
X45400000Y-40055000D01*
G75*
G02*
X45150000Y-40305000I-250000J0D01*
G01*
X43300000Y-40305000D01*
G75*
G02*
X43050000Y-40055000I0J250000D01*
G01*
G37*
G36*
G01*
X38100000Y-40055000D02*
X38100000Y-39555000D01*
G75*
G02*
X38350000Y-39305000I250000J0D01*
G01*
X40200000Y-39305000D01*
G75*
G02*
X40450000Y-39555000I0J-250000D01*
G01*
X40450000Y-40055000D01*
G75*
G02*
X40200000Y-40305000I-250000J0D01*
G01*
X38350000Y-40305000D01*
G75*
G02*
X38100000Y-40055000I0J250000D01*
G01*
G37*
G36*
G01*
X38100000Y-41325000D02*
X38100000Y-40825000D01*
G75*
G02*
X38350000Y-40575000I250000J0D01*
G01*
X40200000Y-40575000D01*
G75*
G02*
X40450000Y-40825000I0J-250000D01*
G01*
X40450000Y-41325000D01*
G75*
G02*
X40200000Y-41575000I-250000J0D01*
G01*
X38350000Y-41575000D01*
G75*
G02*
X38100000Y-41325000I0J250000D01*
G01*
G37*
G36*
G01*
X38100000Y-42595000D02*
X38100000Y-42095000D01*
G75*
G02*
X38350000Y-41845000I250000J0D01*
G01*
X40200000Y-41845000D01*
G75*
G02*
X40450000Y-42095000I0J-250000D01*
G01*
X40450000Y-42595000D01*
G75*
G02*
X40200000Y-42845000I-250000J0D01*
G01*
X38350000Y-42845000D01*
G75*
G02*
X38100000Y-42595000I0J250000D01*
G01*
G37*
G36*
G01*
X38100000Y-43865000D02*
X38100000Y-43365000D01*
G75*
G02*
X38350000Y-43115000I250000J0D01*
G01*
X40200000Y-43115000D01*
G75*
G02*
X40450000Y-43365000I0J-250000D01*
G01*
X40450000Y-43865000D01*
G75*
G02*
X40200000Y-44115000I-250000J0D01*
G01*
X38350000Y-44115000D01*
G75*
G02*
X38100000Y-43865000I0J250000D01*
G01*
G37*
G36*
G01*
X38100000Y-45135000D02*
X38100000Y-44635000D01*
G75*
G02*
X38350000Y-44385000I250000J0D01*
G01*
X40200000Y-44385000D01*
G75*
G02*
X40450000Y-44635000I0J-250000D01*
G01*
X40450000Y-45135000D01*
G75*
G02*
X40200000Y-45385000I-250000J0D01*
G01*
X38350000Y-45385000D01*
G75*
G02*
X38100000Y-45135000I0J250000D01*
G01*
G37*
G36*
G01*
X38100000Y-46405000D02*
X38100000Y-45905000D01*
G75*
G02*
X38350000Y-45655000I250000J0D01*
G01*
X40200000Y-45655000D01*
G75*
G02*
X40450000Y-45905000I0J-250000D01*
G01*
X40450000Y-46405000D01*
G75*
G02*
X40200000Y-46655000I-250000J0D01*
G01*
X38350000Y-46655000D01*
G75*
G02*
X38100000Y-46405000I0J250000D01*
G01*
G37*
G36*
G01*
X38100000Y-47675000D02*
X38100000Y-47175000D01*
G75*
G02*
X38350000Y-46925000I250000J0D01*
G01*
X40200000Y-46925000D01*
G75*
G02*
X40450000Y-47175000I0J-250000D01*
G01*
X40450000Y-47675000D01*
G75*
G02*
X40200000Y-47925000I-250000J0D01*
G01*
X38350000Y-47925000D01*
G75*
G02*
X38100000Y-47675000I0J250000D01*
G01*
G37*
G36*
G01*
X38100000Y-48945000D02*
X38100000Y-48445000D01*
G75*
G02*
X38350000Y-48195000I250000J0D01*
G01*
X40200000Y-48195000D01*
G75*
G02*
X40450000Y-48445000I0J-250000D01*
G01*
X40450000Y-48945000D01*
G75*
G02*
X40200000Y-49195000I-250000J0D01*
G01*
X38350000Y-49195000D01*
G75*
G02*
X38100000Y-48945000I0J250000D01*
G01*
G37*
G36*
G01*
X26600000Y-48945000D02*
X26600000Y-48445000D01*
G75*
G02*
X26850000Y-48195000I250000J0D01*
G01*
X28700000Y-48195000D01*
G75*
G02*
X28950000Y-48445000I0J-250000D01*
G01*
X28950000Y-48945000D01*
G75*
G02*
X28700000Y-49195000I-250000J0D01*
G01*
X26850000Y-49195000D01*
G75*
G02*
X26600000Y-48945000I0J250000D01*
G01*
G37*
G36*
G01*
X26600000Y-47675000D02*
X26600000Y-47175000D01*
G75*
G02*
X26850000Y-46925000I250000J0D01*
G01*
X28700000Y-46925000D01*
G75*
G02*
X28950000Y-47175000I0J-250000D01*
G01*
X28950000Y-47675000D01*
G75*
G02*
X28700000Y-47925000I-250000J0D01*
G01*
X26850000Y-47925000D01*
G75*
G02*
X26600000Y-47675000I0J250000D01*
G01*
G37*
G36*
G01*
X26600000Y-46405000D02*
X26600000Y-45905000D01*
G75*
G02*
X26850000Y-45655000I250000J0D01*
G01*
X28700000Y-45655000D01*
G75*
G02*
X28950000Y-45905000I0J-250000D01*
G01*
X28950000Y-46405000D01*
G75*
G02*
X28700000Y-46655000I-250000J0D01*
G01*
X26850000Y-46655000D01*
G75*
G02*
X26600000Y-46405000I0J250000D01*
G01*
G37*
G36*
G01*
X26600000Y-45135000D02*
X26600000Y-44635000D01*
G75*
G02*
X26850000Y-44385000I250000J0D01*
G01*
X28700000Y-44385000D01*
G75*
G02*
X28950000Y-44635000I0J-250000D01*
G01*
X28950000Y-45135000D01*
G75*
G02*
X28700000Y-45385000I-250000J0D01*
G01*
X26850000Y-45385000D01*
G75*
G02*
X26600000Y-45135000I0J250000D01*
G01*
G37*
G36*
G01*
X26600000Y-43865000D02*
X26600000Y-43365000D01*
G75*
G02*
X26850000Y-43115000I250000J0D01*
G01*
X28700000Y-43115000D01*
G75*
G02*
X28950000Y-43365000I0J-250000D01*
G01*
X28950000Y-43865000D01*
G75*
G02*
X28700000Y-44115000I-250000J0D01*
G01*
X26850000Y-44115000D01*
G75*
G02*
X26600000Y-43865000I0J250000D01*
G01*
G37*
G36*
G01*
X26600000Y-42595000D02*
X26600000Y-42095000D01*
G75*
G02*
X26850000Y-41845000I250000J0D01*
G01*
X28700000Y-41845000D01*
G75*
G02*
X28950000Y-42095000I0J-250000D01*
G01*
X28950000Y-42595000D01*
G75*
G02*
X28700000Y-42845000I-250000J0D01*
G01*
X26850000Y-42845000D01*
G75*
G02*
X26600000Y-42595000I0J250000D01*
G01*
G37*
G36*
G01*
X26600000Y-41325000D02*
X26600000Y-40825000D01*
G75*
G02*
X26850000Y-40575000I250000J0D01*
G01*
X28700000Y-40575000D01*
G75*
G02*
X28950000Y-40825000I0J-250000D01*
G01*
X28950000Y-41325000D01*
G75*
G02*
X28700000Y-41575000I-250000J0D01*
G01*
X26850000Y-41575000D01*
G75*
G02*
X26600000Y-41325000I0J250000D01*
G01*
G37*
G36*
G01*
X26600000Y-40055000D02*
X26600000Y-39555000D01*
G75*
G02*
X26850000Y-39305000I250000J0D01*
G01*
X28700000Y-39305000D01*
G75*
G02*
X28950000Y-39555000I0J-250000D01*
G01*
X28950000Y-40055000D01*
G75*
G02*
X28700000Y-40305000I-250000J0D01*
G01*
X26850000Y-40305000D01*
G75*
G02*
X26600000Y-40055000I0J250000D01*
G01*
G37*
G36*
G01*
X31550000Y-40055000D02*
X31550000Y-39555000D01*
G75*
G02*
X31800000Y-39305000I250000J0D01*
G01*
X33650000Y-39305000D01*
G75*
G02*
X33900000Y-39555000I0J-250000D01*
G01*
X33900000Y-40055000D01*
G75*
G02*
X33650000Y-40305000I-250000J0D01*
G01*
X31800000Y-40305000D01*
G75*
G02*
X31550000Y-40055000I0J250000D01*
G01*
G37*
G36*
G01*
X31550000Y-41325000D02*
X31550000Y-40825000D01*
G75*
G02*
X31800000Y-40575000I250000J0D01*
G01*
X33650000Y-40575000D01*
G75*
G02*
X33900000Y-40825000I0J-250000D01*
G01*
X33900000Y-41325000D01*
G75*
G02*
X33650000Y-41575000I-250000J0D01*
G01*
X31800000Y-41575000D01*
G75*
G02*
X31550000Y-41325000I0J250000D01*
G01*
G37*
G36*
G01*
X31550000Y-42595000D02*
X31550000Y-42095000D01*
G75*
G02*
X31800000Y-41845000I250000J0D01*
G01*
X33650000Y-41845000D01*
G75*
G02*
X33900000Y-42095000I0J-250000D01*
G01*
X33900000Y-42595000D01*
G75*
G02*
X33650000Y-42845000I-250000J0D01*
G01*
X31800000Y-42845000D01*
G75*
G02*
X31550000Y-42595000I0J250000D01*
G01*
G37*
G36*
G01*
X31550000Y-43865000D02*
X31550000Y-43365000D01*
G75*
G02*
X31800000Y-43115000I250000J0D01*
G01*
X33650000Y-43115000D01*
G75*
G02*
X33900000Y-43365000I0J-250000D01*
G01*
X33900000Y-43865000D01*
G75*
G02*
X33650000Y-44115000I-250000J0D01*
G01*
X31800000Y-44115000D01*
G75*
G02*
X31550000Y-43865000I0J250000D01*
G01*
G37*
G36*
G01*
X31550000Y-45135000D02*
X31550000Y-44635000D01*
G75*
G02*
X31800000Y-44385000I250000J0D01*
G01*
X33650000Y-44385000D01*
G75*
G02*
X33900000Y-44635000I0J-250000D01*
G01*
X33900000Y-45135000D01*
G75*
G02*
X33650000Y-45385000I-250000J0D01*
G01*
X31800000Y-45385000D01*
G75*
G02*
X31550000Y-45135000I0J250000D01*
G01*
G37*
G36*
G01*
X31550000Y-46405000D02*
X31550000Y-45905000D01*
G75*
G02*
X31800000Y-45655000I250000J0D01*
G01*
X33650000Y-45655000D01*
G75*
G02*
X33900000Y-45905000I0J-250000D01*
G01*
X33900000Y-46405000D01*
G75*
G02*
X33650000Y-46655000I-250000J0D01*
G01*
X31800000Y-46655000D01*
G75*
G02*
X31550000Y-46405000I0J250000D01*
G01*
G37*
G36*
G01*
X31550000Y-47675000D02*
X31550000Y-47175000D01*
G75*
G02*
X31800000Y-46925000I250000J0D01*
G01*
X33650000Y-46925000D01*
G75*
G02*
X33900000Y-47175000I0J-250000D01*
G01*
X33900000Y-47675000D01*
G75*
G02*
X33650000Y-47925000I-250000J0D01*
G01*
X31800000Y-47925000D01*
G75*
G02*
X31550000Y-47675000I0J250000D01*
G01*
G37*
G36*
G01*
X31550000Y-48945000D02*
X31550000Y-48445000D01*
G75*
G02*
X31800000Y-48195000I250000J0D01*
G01*
X33650000Y-48195000D01*
G75*
G02*
X33900000Y-48445000I0J-250000D01*
G01*
X33900000Y-48945000D01*
G75*
G02*
X33650000Y-49195000I-250000J0D01*
G01*
X31800000Y-49195000D01*
G75*
G02*
X31550000Y-48945000I0J250000D01*
G01*
G37*
X42450000Y-16900000D03*
X40550000Y-16900000D03*
X40550000Y-19100000D03*
X41500000Y-19100000D03*
X42450000Y-19100000D03*
G36*
G01*
X38100000Y-32695000D02*
X38100000Y-32195000D01*
G75*
G02*
X38350000Y-31945000I250000J0D01*
G01*
X40200000Y-31945000D01*
G75*
G02*
X40450000Y-32195000I0J-250000D01*
G01*
X40450000Y-32695000D01*
G75*
G02*
X40200000Y-32945000I-250000J0D01*
G01*
X38350000Y-32945000D01*
G75*
G02*
X38100000Y-32695000I0J250000D01*
G01*
G37*
G36*
G01*
X38100000Y-31425000D02*
X38100000Y-30925000D01*
G75*
G02*
X38350000Y-30675000I250000J0D01*
G01*
X40200000Y-30675000D01*
G75*
G02*
X40450000Y-30925000I0J-250000D01*
G01*
X40450000Y-31425000D01*
G75*
G02*
X40200000Y-31675000I-250000J0D01*
G01*
X38350000Y-31675000D01*
G75*
G02*
X38100000Y-31425000I0J250000D01*
G01*
G37*
G36*
G01*
X38100000Y-30155000D02*
X38100000Y-29655000D01*
G75*
G02*
X38350000Y-29405000I250000J0D01*
G01*
X40200000Y-29405000D01*
G75*
G02*
X40450000Y-29655000I0J-250000D01*
G01*
X40450000Y-30155000D01*
G75*
G02*
X40200000Y-30405000I-250000J0D01*
G01*
X38350000Y-30405000D01*
G75*
G02*
X38100000Y-30155000I0J250000D01*
G01*
G37*
G36*
G01*
X38100000Y-28885000D02*
X38100000Y-28385000D01*
G75*
G02*
X38350000Y-28135000I250000J0D01*
G01*
X40200000Y-28135000D01*
G75*
G02*
X40450000Y-28385000I0J-250000D01*
G01*
X40450000Y-28885000D01*
G75*
G02*
X40200000Y-29135000I-250000J0D01*
G01*
X38350000Y-29135000D01*
G75*
G02*
X38100000Y-28885000I0J250000D01*
G01*
G37*
G36*
G01*
X38100000Y-27615000D02*
X38100000Y-27115000D01*
G75*
G02*
X38350000Y-26865000I250000J0D01*
G01*
X40200000Y-26865000D01*
G75*
G02*
X40450000Y-27115000I0J-250000D01*
G01*
X40450000Y-27615000D01*
G75*
G02*
X40200000Y-27865000I-250000J0D01*
G01*
X38350000Y-27865000D01*
G75*
G02*
X38100000Y-27615000I0J250000D01*
G01*
G37*
G36*
G01*
X38100000Y-26345000D02*
X38100000Y-25845000D01*
G75*
G02*
X38350000Y-25595000I250000J0D01*
G01*
X40200000Y-25595000D01*
G75*
G02*
X40450000Y-25845000I0J-250000D01*
G01*
X40450000Y-26345000D01*
G75*
G02*
X40200000Y-26595000I-250000J0D01*
G01*
X38350000Y-26595000D01*
G75*
G02*
X38100000Y-26345000I0J250000D01*
G01*
G37*
G36*
G01*
X38100000Y-25075000D02*
X38100000Y-24575000D01*
G75*
G02*
X38350000Y-24325000I250000J0D01*
G01*
X40200000Y-24325000D01*
G75*
G02*
X40450000Y-24575000I0J-250000D01*
G01*
X40450000Y-25075000D01*
G75*
G02*
X40200000Y-25325000I-250000J0D01*
G01*
X38350000Y-25325000D01*
G75*
G02*
X38100000Y-25075000I0J250000D01*
G01*
G37*
G36*
G01*
X38100000Y-23805000D02*
X38100000Y-23305000D01*
G75*
G02*
X38350000Y-23055000I250000J0D01*
G01*
X40200000Y-23055000D01*
G75*
G02*
X40450000Y-23305000I0J-250000D01*
G01*
X40450000Y-23805000D01*
G75*
G02*
X40200000Y-24055000I-250000J0D01*
G01*
X38350000Y-24055000D01*
G75*
G02*
X38100000Y-23805000I0J250000D01*
G01*
G37*
G36*
G01*
X43050000Y-23805000D02*
X43050000Y-23305000D01*
G75*
G02*
X43300000Y-23055000I250000J0D01*
G01*
X45150000Y-23055000D01*
G75*
G02*
X45400000Y-23305000I0J-250000D01*
G01*
X45400000Y-23805000D01*
G75*
G02*
X45150000Y-24055000I-250000J0D01*
G01*
X43300000Y-24055000D01*
G75*
G02*
X43050000Y-23805000I0J250000D01*
G01*
G37*
G36*
G01*
X43050000Y-25075000D02*
X43050000Y-24575000D01*
G75*
G02*
X43300000Y-24325000I250000J0D01*
G01*
X45150000Y-24325000D01*
G75*
G02*
X45400000Y-24575000I0J-250000D01*
G01*
X45400000Y-25075000D01*
G75*
G02*
X45150000Y-25325000I-250000J0D01*
G01*
X43300000Y-25325000D01*
G75*
G02*
X43050000Y-25075000I0J250000D01*
G01*
G37*
G36*
G01*
X43050000Y-26345000D02*
X43050000Y-25845000D01*
G75*
G02*
X43300000Y-25595000I250000J0D01*
G01*
X45150000Y-25595000D01*
G75*
G02*
X45400000Y-25845000I0J-250000D01*
G01*
X45400000Y-26345000D01*
G75*
G02*
X45150000Y-26595000I-250000J0D01*
G01*
X43300000Y-26595000D01*
G75*
G02*
X43050000Y-26345000I0J250000D01*
G01*
G37*
G36*
G01*
X43050000Y-27615000D02*
X43050000Y-27115000D01*
G75*
G02*
X43300000Y-26865000I250000J0D01*
G01*
X45150000Y-26865000D01*
G75*
G02*
X45400000Y-27115000I0J-250000D01*
G01*
X45400000Y-27615000D01*
G75*
G02*
X45150000Y-27865000I-250000J0D01*
G01*
X43300000Y-27865000D01*
G75*
G02*
X43050000Y-27615000I0J250000D01*
G01*
G37*
G36*
G01*
X43050000Y-28885000D02*
X43050000Y-28385000D01*
G75*
G02*
X43300000Y-28135000I250000J0D01*
G01*
X45150000Y-28135000D01*
G75*
G02*
X45400000Y-28385000I0J-250000D01*
G01*
X45400000Y-28885000D01*
G75*
G02*
X45150000Y-29135000I-250000J0D01*
G01*
X43300000Y-29135000D01*
G75*
G02*
X43050000Y-28885000I0J250000D01*
G01*
G37*
G36*
G01*
X43050000Y-30155000D02*
X43050000Y-29655000D01*
G75*
G02*
X43300000Y-29405000I250000J0D01*
G01*
X45150000Y-29405000D01*
G75*
G02*
X45400000Y-29655000I0J-250000D01*
G01*
X45400000Y-30155000D01*
G75*
G02*
X45150000Y-30405000I-250000J0D01*
G01*
X43300000Y-30405000D01*
G75*
G02*
X43050000Y-30155000I0J250000D01*
G01*
G37*
G36*
G01*
X43050000Y-31425000D02*
X43050000Y-30925000D01*
G75*
G02*
X43300000Y-30675000I250000J0D01*
G01*
X45150000Y-30675000D01*
G75*
G02*
X45400000Y-30925000I0J-250000D01*
G01*
X45400000Y-31425000D01*
G75*
G02*
X45150000Y-31675000I-250000J0D01*
G01*
X43300000Y-31675000D01*
G75*
G02*
X43050000Y-31425000I0J250000D01*
G01*
G37*
G36*
G01*
X43050000Y-32695000D02*
X43050000Y-32195000D01*
G75*
G02*
X43300000Y-31945000I250000J0D01*
G01*
X45150000Y-31945000D01*
G75*
G02*
X45400000Y-32195000I0J-250000D01*
G01*
X45400000Y-32695000D01*
G75*
G02*
X45150000Y-32945000I-250000J0D01*
G01*
X43300000Y-32945000D01*
G75*
G02*
X43050000Y-32695000I0J250000D01*
G01*
G37*
X53950000Y-19100000D03*
X53000000Y-19100000D03*
X52050000Y-19100000D03*
X52050000Y-16900000D03*
X53950000Y-16900000D03*
G36*
G01*
X31550000Y-32695000D02*
X31550000Y-32195000D01*
G75*
G02*
X31800000Y-31945000I250000J0D01*
G01*
X33650000Y-31945000D01*
G75*
G02*
X33900000Y-32195000I0J-250000D01*
G01*
X33900000Y-32695000D01*
G75*
G02*
X33650000Y-32945000I-250000J0D01*
G01*
X31800000Y-32945000D01*
G75*
G02*
X31550000Y-32695000I0J250000D01*
G01*
G37*
G36*
G01*
X31550000Y-31425000D02*
X31550000Y-30925000D01*
G75*
G02*
X31800000Y-30675000I250000J0D01*
G01*
X33650000Y-30675000D01*
G75*
G02*
X33900000Y-30925000I0J-250000D01*
G01*
X33900000Y-31425000D01*
G75*
G02*
X33650000Y-31675000I-250000J0D01*
G01*
X31800000Y-31675000D01*
G75*
G02*
X31550000Y-31425000I0J250000D01*
G01*
G37*
G36*
G01*
X31550000Y-30155000D02*
X31550000Y-29655000D01*
G75*
G02*
X31800000Y-29405000I250000J0D01*
G01*
X33650000Y-29405000D01*
G75*
G02*
X33900000Y-29655000I0J-250000D01*
G01*
X33900000Y-30155000D01*
G75*
G02*
X33650000Y-30405000I-250000J0D01*
G01*
X31800000Y-30405000D01*
G75*
G02*
X31550000Y-30155000I0J250000D01*
G01*
G37*
G36*
G01*
X31550000Y-28885000D02*
X31550000Y-28385000D01*
G75*
G02*
X31800000Y-28135000I250000J0D01*
G01*
X33650000Y-28135000D01*
G75*
G02*
X33900000Y-28385000I0J-250000D01*
G01*
X33900000Y-28885000D01*
G75*
G02*
X33650000Y-29135000I-250000J0D01*
G01*
X31800000Y-29135000D01*
G75*
G02*
X31550000Y-28885000I0J250000D01*
G01*
G37*
G36*
G01*
X31550000Y-27615000D02*
X31550000Y-27115000D01*
G75*
G02*
X31800000Y-26865000I250000J0D01*
G01*
X33650000Y-26865000D01*
G75*
G02*
X33900000Y-27115000I0J-250000D01*
G01*
X33900000Y-27615000D01*
G75*
G02*
X33650000Y-27865000I-250000J0D01*
G01*
X31800000Y-27865000D01*
G75*
G02*
X31550000Y-27615000I0J250000D01*
G01*
G37*
G36*
G01*
X31550000Y-26345000D02*
X31550000Y-25845000D01*
G75*
G02*
X31800000Y-25595000I250000J0D01*
G01*
X33650000Y-25595000D01*
G75*
G02*
X33900000Y-25845000I0J-250000D01*
G01*
X33900000Y-26345000D01*
G75*
G02*
X33650000Y-26595000I-250000J0D01*
G01*
X31800000Y-26595000D01*
G75*
G02*
X31550000Y-26345000I0J250000D01*
G01*
G37*
G36*
G01*
X31550000Y-25075000D02*
X31550000Y-24575000D01*
G75*
G02*
X31800000Y-24325000I250000J0D01*
G01*
X33650000Y-24325000D01*
G75*
G02*
X33900000Y-24575000I0J-250000D01*
G01*
X33900000Y-25075000D01*
G75*
G02*
X33650000Y-25325000I-250000J0D01*
G01*
X31800000Y-25325000D01*
G75*
G02*
X31550000Y-25075000I0J250000D01*
G01*
G37*
G36*
G01*
X31550000Y-23805000D02*
X31550000Y-23305000D01*
G75*
G02*
X31800000Y-23055000I250000J0D01*
G01*
X33650000Y-23055000D01*
G75*
G02*
X33900000Y-23305000I0J-250000D01*
G01*
X33900000Y-23805000D01*
G75*
G02*
X33650000Y-24055000I-250000J0D01*
G01*
X31800000Y-24055000D01*
G75*
G02*
X31550000Y-23805000I0J250000D01*
G01*
G37*
G36*
G01*
X26600000Y-23805000D02*
X26600000Y-23305000D01*
G75*
G02*
X26850000Y-23055000I250000J0D01*
G01*
X28700000Y-23055000D01*
G75*
G02*
X28950000Y-23305000I0J-250000D01*
G01*
X28950000Y-23805000D01*
G75*
G02*
X28700000Y-24055000I-250000J0D01*
G01*
X26850000Y-24055000D01*
G75*
G02*
X26600000Y-23805000I0J250000D01*
G01*
G37*
G36*
G01*
X26600000Y-25075000D02*
X26600000Y-24575000D01*
G75*
G02*
X26850000Y-24325000I250000J0D01*
G01*
X28700000Y-24325000D01*
G75*
G02*
X28950000Y-24575000I0J-250000D01*
G01*
X28950000Y-25075000D01*
G75*
G02*
X28700000Y-25325000I-250000J0D01*
G01*
X26850000Y-25325000D01*
G75*
G02*
X26600000Y-25075000I0J250000D01*
G01*
G37*
G36*
G01*
X26600000Y-26345000D02*
X26600000Y-25845000D01*
G75*
G02*
X26850000Y-25595000I250000J0D01*
G01*
X28700000Y-25595000D01*
G75*
G02*
X28950000Y-25845000I0J-250000D01*
G01*
X28950000Y-26345000D01*
G75*
G02*
X28700000Y-26595000I-250000J0D01*
G01*
X26850000Y-26595000D01*
G75*
G02*
X26600000Y-26345000I0J250000D01*
G01*
G37*
G36*
G01*
X26600000Y-27615000D02*
X26600000Y-27115000D01*
G75*
G02*
X26850000Y-26865000I250000J0D01*
G01*
X28700000Y-26865000D01*
G75*
G02*
X28950000Y-27115000I0J-250000D01*
G01*
X28950000Y-27615000D01*
G75*
G02*
X28700000Y-27865000I-250000J0D01*
G01*
X26850000Y-27865000D01*
G75*
G02*
X26600000Y-27615000I0J250000D01*
G01*
G37*
G36*
G01*
X26600000Y-28885000D02*
X26600000Y-28385000D01*
G75*
G02*
X26850000Y-28135000I250000J0D01*
G01*
X28700000Y-28135000D01*
G75*
G02*
X28950000Y-28385000I0J-250000D01*
G01*
X28950000Y-28885000D01*
G75*
G02*
X28700000Y-29135000I-250000J0D01*
G01*
X26850000Y-29135000D01*
G75*
G02*
X26600000Y-28885000I0J250000D01*
G01*
G37*
G36*
G01*
X26600000Y-30155000D02*
X26600000Y-29655000D01*
G75*
G02*
X26850000Y-29405000I250000J0D01*
G01*
X28700000Y-29405000D01*
G75*
G02*
X28950000Y-29655000I0J-250000D01*
G01*
X28950000Y-30155000D01*
G75*
G02*
X28700000Y-30405000I-250000J0D01*
G01*
X26850000Y-30405000D01*
G75*
G02*
X26600000Y-30155000I0J250000D01*
G01*
G37*
G36*
G01*
X26600000Y-31425000D02*
X26600000Y-30925000D01*
G75*
G02*
X26850000Y-30675000I250000J0D01*
G01*
X28700000Y-30675000D01*
G75*
G02*
X28950000Y-30925000I0J-250000D01*
G01*
X28950000Y-31425000D01*
G75*
G02*
X28700000Y-31675000I-250000J0D01*
G01*
X26850000Y-31675000D01*
G75*
G02*
X26600000Y-31425000I0J250000D01*
G01*
G37*
G36*
G01*
X26600000Y-32695000D02*
X26600000Y-32195000D01*
G75*
G02*
X26850000Y-31945000I250000J0D01*
G01*
X28700000Y-31945000D01*
G75*
G02*
X28950000Y-32195000I0J-250000D01*
G01*
X28950000Y-32695000D01*
G75*
G02*
X28700000Y-32945000I-250000J0D01*
G01*
X26850000Y-32945000D01*
G75*
G02*
X26600000Y-32695000I0J250000D01*
G01*
G37*
G36*
G01*
X49350000Y-31310000D02*
X49350000Y-30810000D01*
G75*
G02*
X49600000Y-30560000I250000J0D01*
G01*
X51450000Y-30560000D01*
G75*
G02*
X51700000Y-30810000I0J-250000D01*
G01*
X51700000Y-31310000D01*
G75*
G02*
X51450000Y-31560000I-250000J0D01*
G01*
X49600000Y-31560000D01*
G75*
G02*
X49350000Y-31310000I0J250000D01*
G01*
G37*
G36*
G01*
X49350000Y-30040000D02*
X49350000Y-29540000D01*
G75*
G02*
X49600000Y-29290000I250000J0D01*
G01*
X51450000Y-29290000D01*
G75*
G02*
X51700000Y-29540000I0J-250000D01*
G01*
X51700000Y-30040000D01*
G75*
G02*
X51450000Y-30290000I-250000J0D01*
G01*
X49600000Y-30290000D01*
G75*
G02*
X49350000Y-30040000I0J250000D01*
G01*
G37*
G36*
G01*
X49350000Y-28770000D02*
X49350000Y-28270000D01*
G75*
G02*
X49600000Y-28020000I250000J0D01*
G01*
X51450000Y-28020000D01*
G75*
G02*
X51700000Y-28270000I0J-250000D01*
G01*
X51700000Y-28770000D01*
G75*
G02*
X51450000Y-29020000I-250000J0D01*
G01*
X49600000Y-29020000D01*
G75*
G02*
X49350000Y-28770000I0J250000D01*
G01*
G37*
G36*
G01*
X49350000Y-27500000D02*
X49350000Y-27000000D01*
G75*
G02*
X49600000Y-26750000I250000J0D01*
G01*
X51450000Y-26750000D01*
G75*
G02*
X51700000Y-27000000I0J-250000D01*
G01*
X51700000Y-27500000D01*
G75*
G02*
X51450000Y-27750000I-250000J0D01*
G01*
X49600000Y-27750000D01*
G75*
G02*
X49350000Y-27500000I0J250000D01*
G01*
G37*
G36*
G01*
X49350000Y-26230000D02*
X49350000Y-25730000D01*
G75*
G02*
X49600000Y-25480000I250000J0D01*
G01*
X51450000Y-25480000D01*
G75*
G02*
X51700000Y-25730000I0J-250000D01*
G01*
X51700000Y-26230000D01*
G75*
G02*
X51450000Y-26480000I-250000J0D01*
G01*
X49600000Y-26480000D01*
G75*
G02*
X49350000Y-26230000I0J250000D01*
G01*
G37*
G36*
G01*
X49350000Y-24960000D02*
X49350000Y-24460000D01*
G75*
G02*
X49600000Y-24210000I250000J0D01*
G01*
X51450000Y-24210000D01*
G75*
G02*
X51700000Y-24460000I0J-250000D01*
G01*
X51700000Y-24960000D01*
G75*
G02*
X51450000Y-25210000I-250000J0D01*
G01*
X49600000Y-25210000D01*
G75*
G02*
X49350000Y-24960000I0J250000D01*
G01*
G37*
G36*
G01*
X49350000Y-23690000D02*
X49350000Y-23190000D01*
G75*
G02*
X49600000Y-22940000I250000J0D01*
G01*
X51450000Y-22940000D01*
G75*
G02*
X51700000Y-23190000I0J-250000D01*
G01*
X51700000Y-23690000D01*
G75*
G02*
X51450000Y-23940000I-250000J0D01*
G01*
X49600000Y-23940000D01*
G75*
G02*
X49350000Y-23690000I0J250000D01*
G01*
G37*
G36*
G01*
X54300000Y-23690000D02*
X54300000Y-23190000D01*
G75*
G02*
X54550000Y-22940000I250000J0D01*
G01*
X56400000Y-22940000D01*
G75*
G02*
X56650000Y-23190000I0J-250000D01*
G01*
X56650000Y-23690000D01*
G75*
G02*
X56400000Y-23940000I-250000J0D01*
G01*
X54550000Y-23940000D01*
G75*
G02*
X54300000Y-23690000I0J250000D01*
G01*
G37*
G36*
G01*
X54300000Y-24960000D02*
X54300000Y-24460000D01*
G75*
G02*
X54550000Y-24210000I250000J0D01*
G01*
X56400000Y-24210000D01*
G75*
G02*
X56650000Y-24460000I0J-250000D01*
G01*
X56650000Y-24960000D01*
G75*
G02*
X56400000Y-25210000I-250000J0D01*
G01*
X54550000Y-25210000D01*
G75*
G02*
X54300000Y-24960000I0J250000D01*
G01*
G37*
G36*
G01*
X54300000Y-26230000D02*
X54300000Y-25730000D01*
G75*
G02*
X54550000Y-25480000I250000J0D01*
G01*
X56400000Y-25480000D01*
G75*
G02*
X56650000Y-25730000I0J-250000D01*
G01*
X56650000Y-26230000D01*
G75*
G02*
X56400000Y-26480000I-250000J0D01*
G01*
X54550000Y-26480000D01*
G75*
G02*
X54300000Y-26230000I0J250000D01*
G01*
G37*
G36*
G01*
X54300000Y-27500000D02*
X54300000Y-27000000D01*
G75*
G02*
X54550000Y-26750000I250000J0D01*
G01*
X56400000Y-26750000D01*
G75*
G02*
X56650000Y-27000000I0J-250000D01*
G01*
X56650000Y-27500000D01*
G75*
G02*
X56400000Y-27750000I-250000J0D01*
G01*
X54550000Y-27750000D01*
G75*
G02*
X54300000Y-27500000I0J250000D01*
G01*
G37*
G36*
G01*
X54300000Y-28770000D02*
X54300000Y-28270000D01*
G75*
G02*
X54550000Y-28020000I250000J0D01*
G01*
X56400000Y-28020000D01*
G75*
G02*
X56650000Y-28270000I0J-250000D01*
G01*
X56650000Y-28770000D01*
G75*
G02*
X56400000Y-29020000I-250000J0D01*
G01*
X54550000Y-29020000D01*
G75*
G02*
X54300000Y-28770000I0J250000D01*
G01*
G37*
G36*
G01*
X54300000Y-30040000D02*
X54300000Y-29540000D01*
G75*
G02*
X54550000Y-29290000I250000J0D01*
G01*
X56400000Y-29290000D01*
G75*
G02*
X56650000Y-29540000I0J-250000D01*
G01*
X56650000Y-30040000D01*
G75*
G02*
X56400000Y-30290000I-250000J0D01*
G01*
X54550000Y-30290000D01*
G75*
G02*
X54300000Y-30040000I0J250000D01*
G01*
G37*
G36*
G01*
X54300000Y-31310000D02*
X54300000Y-30810000D01*
G75*
G02*
X54550000Y-30560000I250000J0D01*
G01*
X56400000Y-30560000D01*
G75*
G02*
X56650000Y-30810000I0J-250000D01*
G01*
X56650000Y-31310000D01*
G75*
G02*
X56400000Y-31560000I-250000J0D01*
G01*
X54550000Y-31560000D01*
G75*
G02*
X54300000Y-31310000I0J250000D01*
G01*
G37*
G36*
G01*
X20695000Y-49150000D02*
X20195000Y-49150000D01*
G75*
G02*
X19945000Y-48900000I0J250000D01*
G01*
X19945000Y-47050000D01*
G75*
G02*
X20195000Y-46800000I250000J0D01*
G01*
X20695000Y-46800000D01*
G75*
G02*
X20945000Y-47050000I0J-250000D01*
G01*
X20945000Y-48900000D01*
G75*
G02*
X20695000Y-49150000I-250000J0D01*
G01*
G37*
G36*
G01*
X19425000Y-49150000D02*
X18925000Y-49150000D01*
G75*
G02*
X18675000Y-48900000I0J250000D01*
G01*
X18675000Y-47050000D01*
G75*
G02*
X18925000Y-46800000I250000J0D01*
G01*
X19425000Y-46800000D01*
G75*
G02*
X19675000Y-47050000I0J-250000D01*
G01*
X19675000Y-48900000D01*
G75*
G02*
X19425000Y-49150000I-250000J0D01*
G01*
G37*
G36*
G01*
X18155000Y-49150000D02*
X17655000Y-49150000D01*
G75*
G02*
X17405000Y-48900000I0J250000D01*
G01*
X17405000Y-47050000D01*
G75*
G02*
X17655000Y-46800000I250000J0D01*
G01*
X18155000Y-46800000D01*
G75*
G02*
X18405000Y-47050000I0J-250000D01*
G01*
X18405000Y-48900000D01*
G75*
G02*
X18155000Y-49150000I-250000J0D01*
G01*
G37*
G36*
G01*
X16885000Y-49150000D02*
X16385000Y-49150000D01*
G75*
G02*
X16135000Y-48900000I0J250000D01*
G01*
X16135000Y-47050000D01*
G75*
G02*
X16385000Y-46800000I250000J0D01*
G01*
X16885000Y-46800000D01*
G75*
G02*
X17135000Y-47050000I0J-250000D01*
G01*
X17135000Y-48900000D01*
G75*
G02*
X16885000Y-49150000I-250000J0D01*
G01*
G37*
G36*
G01*
X15615000Y-49150000D02*
X15115000Y-49150000D01*
G75*
G02*
X14865000Y-48900000I0J250000D01*
G01*
X14865000Y-47050000D01*
G75*
G02*
X15115000Y-46800000I250000J0D01*
G01*
X15615000Y-46800000D01*
G75*
G02*
X15865000Y-47050000I0J-250000D01*
G01*
X15865000Y-48900000D01*
G75*
G02*
X15615000Y-49150000I-250000J0D01*
G01*
G37*
G36*
G01*
X14345000Y-49150000D02*
X13845000Y-49150000D01*
G75*
G02*
X13595000Y-48900000I0J250000D01*
G01*
X13595000Y-47050000D01*
G75*
G02*
X13845000Y-46800000I250000J0D01*
G01*
X14345000Y-46800000D01*
G75*
G02*
X14595000Y-47050000I0J-250000D01*
G01*
X14595000Y-48900000D01*
G75*
G02*
X14345000Y-49150000I-250000J0D01*
G01*
G37*
G36*
G01*
X13075000Y-49150000D02*
X12575000Y-49150000D01*
G75*
G02*
X12325000Y-48900000I0J250000D01*
G01*
X12325000Y-47050000D01*
G75*
G02*
X12575000Y-46800000I250000J0D01*
G01*
X13075000Y-46800000D01*
G75*
G02*
X13325000Y-47050000I0J-250000D01*
G01*
X13325000Y-48900000D01*
G75*
G02*
X13075000Y-49150000I-250000J0D01*
G01*
G37*
G36*
G01*
X11805000Y-49150000D02*
X11305000Y-49150000D01*
G75*
G02*
X11055000Y-48900000I0J250000D01*
G01*
X11055000Y-47050000D01*
G75*
G02*
X11305000Y-46800000I250000J0D01*
G01*
X11805000Y-46800000D01*
G75*
G02*
X12055000Y-47050000I0J-250000D01*
G01*
X12055000Y-48900000D01*
G75*
G02*
X11805000Y-49150000I-250000J0D01*
G01*
G37*
G36*
G01*
X11805000Y-44200000D02*
X11305000Y-44200000D01*
G75*
G02*
X11055000Y-43950000I0J250000D01*
G01*
X11055000Y-42100000D01*
G75*
G02*
X11305000Y-41850000I250000J0D01*
G01*
X11805000Y-41850000D01*
G75*
G02*
X12055000Y-42100000I0J-250000D01*
G01*
X12055000Y-43950000D01*
G75*
G02*
X11805000Y-44200000I-250000J0D01*
G01*
G37*
G36*
G01*
X13075000Y-44200000D02*
X12575000Y-44200000D01*
G75*
G02*
X12325000Y-43950000I0J250000D01*
G01*
X12325000Y-42100000D01*
G75*
G02*
X12575000Y-41850000I250000J0D01*
G01*
X13075000Y-41850000D01*
G75*
G02*
X13325000Y-42100000I0J-250000D01*
G01*
X13325000Y-43950000D01*
G75*
G02*
X13075000Y-44200000I-250000J0D01*
G01*
G37*
G36*
G01*
X14345000Y-44200000D02*
X13845000Y-44200000D01*
G75*
G02*
X13595000Y-43950000I0J250000D01*
G01*
X13595000Y-42100000D01*
G75*
G02*
X13845000Y-41850000I250000J0D01*
G01*
X14345000Y-41850000D01*
G75*
G02*
X14595000Y-42100000I0J-250000D01*
G01*
X14595000Y-43950000D01*
G75*
G02*
X14345000Y-44200000I-250000J0D01*
G01*
G37*
G36*
G01*
X15615000Y-44200000D02*
X15115000Y-44200000D01*
G75*
G02*
X14865000Y-43950000I0J250000D01*
G01*
X14865000Y-42100000D01*
G75*
G02*
X15115000Y-41850000I250000J0D01*
G01*
X15615000Y-41850000D01*
G75*
G02*
X15865000Y-42100000I0J-250000D01*
G01*
X15865000Y-43950000D01*
G75*
G02*
X15615000Y-44200000I-250000J0D01*
G01*
G37*
G36*
G01*
X16885000Y-44200000D02*
X16385000Y-44200000D01*
G75*
G02*
X16135000Y-43950000I0J250000D01*
G01*
X16135000Y-42100000D01*
G75*
G02*
X16385000Y-41850000I250000J0D01*
G01*
X16885000Y-41850000D01*
G75*
G02*
X17135000Y-42100000I0J-250000D01*
G01*
X17135000Y-43950000D01*
G75*
G02*
X16885000Y-44200000I-250000J0D01*
G01*
G37*
G36*
G01*
X18155000Y-44200000D02*
X17655000Y-44200000D01*
G75*
G02*
X17405000Y-43950000I0J250000D01*
G01*
X17405000Y-42100000D01*
G75*
G02*
X17655000Y-41850000I250000J0D01*
G01*
X18155000Y-41850000D01*
G75*
G02*
X18405000Y-42100000I0J-250000D01*
G01*
X18405000Y-43950000D01*
G75*
G02*
X18155000Y-44200000I-250000J0D01*
G01*
G37*
G36*
G01*
X19425000Y-44200000D02*
X18925000Y-44200000D01*
G75*
G02*
X18675000Y-43950000I0J250000D01*
G01*
X18675000Y-42100000D01*
G75*
G02*
X18925000Y-41850000I250000J0D01*
G01*
X19425000Y-41850000D01*
G75*
G02*
X19675000Y-42100000I0J-250000D01*
G01*
X19675000Y-43950000D01*
G75*
G02*
X19425000Y-44200000I-250000J0D01*
G01*
G37*
G36*
G01*
X20695000Y-44200000D02*
X20195000Y-44200000D01*
G75*
G02*
X19945000Y-43950000I0J250000D01*
G01*
X19945000Y-42100000D01*
G75*
G02*
X20195000Y-41850000I250000J0D01*
G01*
X20695000Y-41850000D01*
G75*
G02*
X20945000Y-42100000I0J-250000D01*
G01*
X20945000Y-43950000D01*
G75*
G02*
X20695000Y-44200000I-250000J0D01*
G01*
G37*
G36*
G01*
X54300000Y-47810000D02*
X54300000Y-47310000D01*
G75*
G02*
X54550000Y-47060000I250000J0D01*
G01*
X56400000Y-47060000D01*
G75*
G02*
X56650000Y-47310000I0J-250000D01*
G01*
X56650000Y-47810000D01*
G75*
G02*
X56400000Y-48060000I-250000J0D01*
G01*
X54550000Y-48060000D01*
G75*
G02*
X54300000Y-47810000I0J250000D01*
G01*
G37*
G36*
G01*
X54300000Y-46540000D02*
X54300000Y-46040000D01*
G75*
G02*
X54550000Y-45790000I250000J0D01*
G01*
X56400000Y-45790000D01*
G75*
G02*
X56650000Y-46040000I0J-250000D01*
G01*
X56650000Y-46540000D01*
G75*
G02*
X56400000Y-46790000I-250000J0D01*
G01*
X54550000Y-46790000D01*
G75*
G02*
X54300000Y-46540000I0J250000D01*
G01*
G37*
G36*
G01*
X54300000Y-45270000D02*
X54300000Y-44770000D01*
G75*
G02*
X54550000Y-44520000I250000J0D01*
G01*
X56400000Y-44520000D01*
G75*
G02*
X56650000Y-44770000I0J-250000D01*
G01*
X56650000Y-45270000D01*
G75*
G02*
X56400000Y-45520000I-250000J0D01*
G01*
X54550000Y-45520000D01*
G75*
G02*
X54300000Y-45270000I0J250000D01*
G01*
G37*
G36*
G01*
X54300000Y-44000000D02*
X54300000Y-43500000D01*
G75*
G02*
X54550000Y-43250000I250000J0D01*
G01*
X56400000Y-43250000D01*
G75*
G02*
X56650000Y-43500000I0J-250000D01*
G01*
X56650000Y-44000000D01*
G75*
G02*
X56400000Y-44250000I-250000J0D01*
G01*
X54550000Y-44250000D01*
G75*
G02*
X54300000Y-44000000I0J250000D01*
G01*
G37*
G36*
G01*
X54300000Y-42730000D02*
X54300000Y-42230000D01*
G75*
G02*
X54550000Y-41980000I250000J0D01*
G01*
X56400000Y-41980000D01*
G75*
G02*
X56650000Y-42230000I0J-250000D01*
G01*
X56650000Y-42730000D01*
G75*
G02*
X56400000Y-42980000I-250000J0D01*
G01*
X54550000Y-42980000D01*
G75*
G02*
X54300000Y-42730000I0J250000D01*
G01*
G37*
G36*
G01*
X54300000Y-41460000D02*
X54300000Y-40960000D01*
G75*
G02*
X54550000Y-40710000I250000J0D01*
G01*
X56400000Y-40710000D01*
G75*
G02*
X56650000Y-40960000I0J-250000D01*
G01*
X56650000Y-41460000D01*
G75*
G02*
X56400000Y-41710000I-250000J0D01*
G01*
X54550000Y-41710000D01*
G75*
G02*
X54300000Y-41460000I0J250000D01*
G01*
G37*
G36*
G01*
X54300000Y-40190000D02*
X54300000Y-39690000D01*
G75*
G02*
X54550000Y-39440000I250000J0D01*
G01*
X56400000Y-39440000D01*
G75*
G02*
X56650000Y-39690000I0J-250000D01*
G01*
X56650000Y-40190000D01*
G75*
G02*
X56400000Y-40440000I-250000J0D01*
G01*
X54550000Y-40440000D01*
G75*
G02*
X54300000Y-40190000I0J250000D01*
G01*
G37*
G36*
G01*
X49350000Y-40190000D02*
X49350000Y-39690000D01*
G75*
G02*
X49600000Y-39440000I250000J0D01*
G01*
X51450000Y-39440000D01*
G75*
G02*
X51700000Y-39690000I0J-250000D01*
G01*
X51700000Y-40190000D01*
G75*
G02*
X51450000Y-40440000I-250000J0D01*
G01*
X49600000Y-40440000D01*
G75*
G02*
X49350000Y-40190000I0J250000D01*
G01*
G37*
G36*
G01*
X49350000Y-41460000D02*
X49350000Y-40960000D01*
G75*
G02*
X49600000Y-40710000I250000J0D01*
G01*
X51450000Y-40710000D01*
G75*
G02*
X51700000Y-40960000I0J-250000D01*
G01*
X51700000Y-41460000D01*
G75*
G02*
X51450000Y-41710000I-250000J0D01*
G01*
X49600000Y-41710000D01*
G75*
G02*
X49350000Y-41460000I0J250000D01*
G01*
G37*
G36*
G01*
X49350000Y-42730000D02*
X49350000Y-42230000D01*
G75*
G02*
X49600000Y-41980000I250000J0D01*
G01*
X51450000Y-41980000D01*
G75*
G02*
X51700000Y-42230000I0J-250000D01*
G01*
X51700000Y-42730000D01*
G75*
G02*
X51450000Y-42980000I-250000J0D01*
G01*
X49600000Y-42980000D01*
G75*
G02*
X49350000Y-42730000I0J250000D01*
G01*
G37*
G36*
G01*
X49350000Y-44000000D02*
X49350000Y-43500000D01*
G75*
G02*
X49600000Y-43250000I250000J0D01*
G01*
X51450000Y-43250000D01*
G75*
G02*
X51700000Y-43500000I0J-250000D01*
G01*
X51700000Y-44000000D01*
G75*
G02*
X51450000Y-44250000I-250000J0D01*
G01*
X49600000Y-44250000D01*
G75*
G02*
X49350000Y-44000000I0J250000D01*
G01*
G37*
G36*
G01*
X49350000Y-45270000D02*
X49350000Y-44770000D01*
G75*
G02*
X49600000Y-44520000I250000J0D01*
G01*
X51450000Y-44520000D01*
G75*
G02*
X51700000Y-44770000I0J-250000D01*
G01*
X51700000Y-45270000D01*
G75*
G02*
X51450000Y-45520000I-250000J0D01*
G01*
X49600000Y-45520000D01*
G75*
G02*
X49350000Y-45270000I0J250000D01*
G01*
G37*
G36*
G01*
X49350000Y-46540000D02*
X49350000Y-46040000D01*
G75*
G02*
X49600000Y-45790000I250000J0D01*
G01*
X51450000Y-45790000D01*
G75*
G02*
X51700000Y-46040000I0J-250000D01*
G01*
X51700000Y-46540000D01*
G75*
G02*
X51450000Y-46790000I-250000J0D01*
G01*
X49600000Y-46790000D01*
G75*
G02*
X49350000Y-46540000I0J250000D01*
G01*
G37*
G36*
G01*
X49350000Y-47810000D02*
X49350000Y-47310000D01*
G75*
G02*
X49600000Y-47060000I250000J0D01*
G01*
X51450000Y-47060000D01*
G75*
G02*
X51700000Y-47310000I0J-250000D01*
G01*
X51700000Y-47810000D01*
G75*
G02*
X51450000Y-48060000I-250000J0D01*
G01*
X49600000Y-48060000D01*
G75*
G02*
X49350000Y-47810000I0J250000D01*
G01*
G37*
D16*
X63800000Y-62055000D03*
X63800000Y-63325000D03*
X63800000Y-64595000D03*
X63800000Y-65865000D03*
X63800000Y-67135000D03*
X63800000Y-68405000D03*
X63800000Y-69675000D03*
X63800000Y-70945000D03*
X56700000Y-70945000D03*
X56700000Y-69675000D03*
X56700000Y-68405000D03*
X56700000Y-67135000D03*
X56700000Y-65865000D03*
X56700000Y-64595000D03*
X56700000Y-63325000D03*
X56700000Y-62055000D03*
G36*
G01*
X106965000Y-82875000D02*
X106465000Y-82875000D01*
G75*
G02*
X106215000Y-82625000I0J250000D01*
G01*
X106215000Y-80675000D01*
G75*
G02*
X106465000Y-80425000I250000J0D01*
G01*
X106965000Y-80425000D01*
G75*
G02*
X107215000Y-80675000I0J-250000D01*
G01*
X107215000Y-82625000D01*
G75*
G02*
X106965000Y-82875000I-250000J0D01*
G01*
G37*
G36*
G01*
X105695000Y-82875000D02*
X105195000Y-82875000D01*
G75*
G02*
X104945000Y-82625000I0J250000D01*
G01*
X104945000Y-80675000D01*
G75*
G02*
X105195000Y-80425000I250000J0D01*
G01*
X105695000Y-80425000D01*
G75*
G02*
X105945000Y-80675000I0J-250000D01*
G01*
X105945000Y-82625000D01*
G75*
G02*
X105695000Y-82875000I-250000J0D01*
G01*
G37*
G36*
G01*
X104425000Y-82875000D02*
X103925000Y-82875000D01*
G75*
G02*
X103675000Y-82625000I0J250000D01*
G01*
X103675000Y-80675000D01*
G75*
G02*
X103925000Y-80425000I250000J0D01*
G01*
X104425000Y-80425000D01*
G75*
G02*
X104675000Y-80675000I0J-250000D01*
G01*
X104675000Y-82625000D01*
G75*
G02*
X104425000Y-82875000I-250000J0D01*
G01*
G37*
G36*
G01*
X103155000Y-82875000D02*
X102655000Y-82875000D01*
G75*
G02*
X102405000Y-82625000I0J250000D01*
G01*
X102405000Y-80675000D01*
G75*
G02*
X102655000Y-80425000I250000J0D01*
G01*
X103155000Y-80425000D01*
G75*
G02*
X103405000Y-80675000I0J-250000D01*
G01*
X103405000Y-82625000D01*
G75*
G02*
X103155000Y-82875000I-250000J0D01*
G01*
G37*
G36*
G01*
X101885000Y-82875000D02*
X101385000Y-82875000D01*
G75*
G02*
X101135000Y-82625000I0J250000D01*
G01*
X101135000Y-80675000D01*
G75*
G02*
X101385000Y-80425000I250000J0D01*
G01*
X101885000Y-80425000D01*
G75*
G02*
X102135000Y-80675000I0J-250000D01*
G01*
X102135000Y-82625000D01*
G75*
G02*
X101885000Y-82875000I-250000J0D01*
G01*
G37*
G36*
G01*
X100615000Y-82875000D02*
X100115000Y-82875000D01*
G75*
G02*
X99865000Y-82625000I0J250000D01*
G01*
X99865000Y-80675000D01*
G75*
G02*
X100115000Y-80425000I250000J0D01*
G01*
X100615000Y-80425000D01*
G75*
G02*
X100865000Y-80675000I0J-250000D01*
G01*
X100865000Y-82625000D01*
G75*
G02*
X100615000Y-82875000I-250000J0D01*
G01*
G37*
G36*
G01*
X99345000Y-82875000D02*
X98845000Y-82875000D01*
G75*
G02*
X98595000Y-82625000I0J250000D01*
G01*
X98595000Y-80675000D01*
G75*
G02*
X98845000Y-80425000I250000J0D01*
G01*
X99345000Y-80425000D01*
G75*
G02*
X99595000Y-80675000I0J-250000D01*
G01*
X99595000Y-82625000D01*
G75*
G02*
X99345000Y-82875000I-250000J0D01*
G01*
G37*
G36*
G01*
X98075000Y-82875000D02*
X97575000Y-82875000D01*
G75*
G02*
X97325000Y-82625000I0J250000D01*
G01*
X97325000Y-80675000D01*
G75*
G02*
X97575000Y-80425000I250000J0D01*
G01*
X98075000Y-80425000D01*
G75*
G02*
X98325000Y-80675000I0J-250000D01*
G01*
X98325000Y-82625000D01*
G75*
G02*
X98075000Y-82875000I-250000J0D01*
G01*
G37*
G36*
G01*
X96805000Y-82875000D02*
X96305000Y-82875000D01*
G75*
G02*
X96055000Y-82625000I0J250000D01*
G01*
X96055000Y-80675000D01*
G75*
G02*
X96305000Y-80425000I250000J0D01*
G01*
X96805000Y-80425000D01*
G75*
G02*
X97055000Y-80675000I0J-250000D01*
G01*
X97055000Y-82625000D01*
G75*
G02*
X96805000Y-82875000I-250000J0D01*
G01*
G37*
G36*
G01*
X95535000Y-82875000D02*
X95035000Y-82875000D01*
G75*
G02*
X94785000Y-82625000I0J250000D01*
G01*
X94785000Y-80675000D01*
G75*
G02*
X95035000Y-80425000I250000J0D01*
G01*
X95535000Y-80425000D01*
G75*
G02*
X95785000Y-80675000I0J-250000D01*
G01*
X95785000Y-82625000D01*
G75*
G02*
X95535000Y-82875000I-250000J0D01*
G01*
G37*
G36*
G01*
X95535000Y-73575000D02*
X95035000Y-73575000D01*
G75*
G02*
X94785000Y-73325000I0J250000D01*
G01*
X94785000Y-71375000D01*
G75*
G02*
X95035000Y-71125000I250000J0D01*
G01*
X95535000Y-71125000D01*
G75*
G02*
X95785000Y-71375000I0J-250000D01*
G01*
X95785000Y-73325000D01*
G75*
G02*
X95535000Y-73575000I-250000J0D01*
G01*
G37*
G36*
G01*
X96805000Y-73575000D02*
X96305000Y-73575000D01*
G75*
G02*
X96055000Y-73325000I0J250000D01*
G01*
X96055000Y-71375000D01*
G75*
G02*
X96305000Y-71125000I250000J0D01*
G01*
X96805000Y-71125000D01*
G75*
G02*
X97055000Y-71375000I0J-250000D01*
G01*
X97055000Y-73325000D01*
G75*
G02*
X96805000Y-73575000I-250000J0D01*
G01*
G37*
G36*
G01*
X98075000Y-73575000D02*
X97575000Y-73575000D01*
G75*
G02*
X97325000Y-73325000I0J250000D01*
G01*
X97325000Y-71375000D01*
G75*
G02*
X97575000Y-71125000I250000J0D01*
G01*
X98075000Y-71125000D01*
G75*
G02*
X98325000Y-71375000I0J-250000D01*
G01*
X98325000Y-73325000D01*
G75*
G02*
X98075000Y-73575000I-250000J0D01*
G01*
G37*
G36*
G01*
X99345000Y-73575000D02*
X98845000Y-73575000D01*
G75*
G02*
X98595000Y-73325000I0J250000D01*
G01*
X98595000Y-71375000D01*
G75*
G02*
X98845000Y-71125000I250000J0D01*
G01*
X99345000Y-71125000D01*
G75*
G02*
X99595000Y-71375000I0J-250000D01*
G01*
X99595000Y-73325000D01*
G75*
G02*
X99345000Y-73575000I-250000J0D01*
G01*
G37*
G36*
G01*
X100615000Y-73575000D02*
X100115000Y-73575000D01*
G75*
G02*
X99865000Y-73325000I0J250000D01*
G01*
X99865000Y-71375000D01*
G75*
G02*
X100115000Y-71125000I250000J0D01*
G01*
X100615000Y-71125000D01*
G75*
G02*
X100865000Y-71375000I0J-250000D01*
G01*
X100865000Y-73325000D01*
G75*
G02*
X100615000Y-73575000I-250000J0D01*
G01*
G37*
G36*
G01*
X101885000Y-73575000D02*
X101385000Y-73575000D01*
G75*
G02*
X101135000Y-73325000I0J250000D01*
G01*
X101135000Y-71375000D01*
G75*
G02*
X101385000Y-71125000I250000J0D01*
G01*
X101885000Y-71125000D01*
G75*
G02*
X102135000Y-71375000I0J-250000D01*
G01*
X102135000Y-73325000D01*
G75*
G02*
X101885000Y-73575000I-250000J0D01*
G01*
G37*
G36*
G01*
X103155000Y-73575000D02*
X102655000Y-73575000D01*
G75*
G02*
X102405000Y-73325000I0J250000D01*
G01*
X102405000Y-71375000D01*
G75*
G02*
X102655000Y-71125000I250000J0D01*
G01*
X103155000Y-71125000D01*
G75*
G02*
X103405000Y-71375000I0J-250000D01*
G01*
X103405000Y-73325000D01*
G75*
G02*
X103155000Y-73575000I-250000J0D01*
G01*
G37*
G36*
G01*
X104425000Y-73575000D02*
X103925000Y-73575000D01*
G75*
G02*
X103675000Y-73325000I0J250000D01*
G01*
X103675000Y-71375000D01*
G75*
G02*
X103925000Y-71125000I250000J0D01*
G01*
X104425000Y-71125000D01*
G75*
G02*
X104675000Y-71375000I0J-250000D01*
G01*
X104675000Y-73325000D01*
G75*
G02*
X104425000Y-73575000I-250000J0D01*
G01*
G37*
G36*
G01*
X105695000Y-73575000D02*
X105195000Y-73575000D01*
G75*
G02*
X104945000Y-73325000I0J250000D01*
G01*
X104945000Y-71375000D01*
G75*
G02*
X105195000Y-71125000I250000J0D01*
G01*
X105695000Y-71125000D01*
G75*
G02*
X105945000Y-71375000I0J-250000D01*
G01*
X105945000Y-73325000D01*
G75*
G02*
X105695000Y-73575000I-250000J0D01*
G01*
G37*
G36*
G01*
X106965000Y-73575000D02*
X106465000Y-73575000D01*
G75*
G02*
X106215000Y-73325000I0J250000D01*
G01*
X106215000Y-71375000D01*
G75*
G02*
X106465000Y-71125000I250000J0D01*
G01*
X106965000Y-71125000D01*
G75*
G02*
X107215000Y-71375000I0J-250000D01*
G01*
X107215000Y-73325000D01*
G75*
G02*
X106965000Y-73575000I-250000J0D01*
G01*
G37*
G36*
G01*
X15875000Y-72465000D02*
X15875000Y-71965000D01*
G75*
G02*
X16125000Y-71715000I250000J0D01*
G01*
X18075000Y-71715000D01*
G75*
G02*
X18325000Y-71965000I0J-250000D01*
G01*
X18325000Y-72465000D01*
G75*
G02*
X18075000Y-72715000I-250000J0D01*
G01*
X16125000Y-72715000D01*
G75*
G02*
X15875000Y-72465000I0J250000D01*
G01*
G37*
G36*
G01*
X15875000Y-71195000D02*
X15875000Y-70695000D01*
G75*
G02*
X16125000Y-70445000I250000J0D01*
G01*
X18075000Y-70445000D01*
G75*
G02*
X18325000Y-70695000I0J-250000D01*
G01*
X18325000Y-71195000D01*
G75*
G02*
X18075000Y-71445000I-250000J0D01*
G01*
X16125000Y-71445000D01*
G75*
G02*
X15875000Y-71195000I0J250000D01*
G01*
G37*
G36*
G01*
X15875000Y-69925000D02*
X15875000Y-69425000D01*
G75*
G02*
X16125000Y-69175000I250000J0D01*
G01*
X18075000Y-69175000D01*
G75*
G02*
X18325000Y-69425000I0J-250000D01*
G01*
X18325000Y-69925000D01*
G75*
G02*
X18075000Y-70175000I-250000J0D01*
G01*
X16125000Y-70175000D01*
G75*
G02*
X15875000Y-69925000I0J250000D01*
G01*
G37*
G36*
G01*
X15875000Y-68655000D02*
X15875000Y-68155000D01*
G75*
G02*
X16125000Y-67905000I250000J0D01*
G01*
X18075000Y-67905000D01*
G75*
G02*
X18325000Y-68155000I0J-250000D01*
G01*
X18325000Y-68655000D01*
G75*
G02*
X18075000Y-68905000I-250000J0D01*
G01*
X16125000Y-68905000D01*
G75*
G02*
X15875000Y-68655000I0J250000D01*
G01*
G37*
G36*
G01*
X15875000Y-67385000D02*
X15875000Y-66885000D01*
G75*
G02*
X16125000Y-66635000I250000J0D01*
G01*
X18075000Y-66635000D01*
G75*
G02*
X18325000Y-66885000I0J-250000D01*
G01*
X18325000Y-67385000D01*
G75*
G02*
X18075000Y-67635000I-250000J0D01*
G01*
X16125000Y-67635000D01*
G75*
G02*
X15875000Y-67385000I0J250000D01*
G01*
G37*
G36*
G01*
X15875000Y-66115000D02*
X15875000Y-65615000D01*
G75*
G02*
X16125000Y-65365000I250000J0D01*
G01*
X18075000Y-65365000D01*
G75*
G02*
X18325000Y-65615000I0J-250000D01*
G01*
X18325000Y-66115000D01*
G75*
G02*
X18075000Y-66365000I-250000J0D01*
G01*
X16125000Y-66365000D01*
G75*
G02*
X15875000Y-66115000I0J250000D01*
G01*
G37*
G36*
G01*
X15875000Y-64845000D02*
X15875000Y-64345000D01*
G75*
G02*
X16125000Y-64095000I250000J0D01*
G01*
X18075000Y-64095000D01*
G75*
G02*
X18325000Y-64345000I0J-250000D01*
G01*
X18325000Y-64845000D01*
G75*
G02*
X18075000Y-65095000I-250000J0D01*
G01*
X16125000Y-65095000D01*
G75*
G02*
X15875000Y-64845000I0J250000D01*
G01*
G37*
G36*
G01*
X15875000Y-63575000D02*
X15875000Y-63075000D01*
G75*
G02*
X16125000Y-62825000I250000J0D01*
G01*
X18075000Y-62825000D01*
G75*
G02*
X18325000Y-63075000I0J-250000D01*
G01*
X18325000Y-63575000D01*
G75*
G02*
X18075000Y-63825000I-250000J0D01*
G01*
X16125000Y-63825000D01*
G75*
G02*
X15875000Y-63575000I0J250000D01*
G01*
G37*
G36*
G01*
X15875000Y-62305000D02*
X15875000Y-61805000D01*
G75*
G02*
X16125000Y-61555000I250000J0D01*
G01*
X18075000Y-61555000D01*
G75*
G02*
X18325000Y-61805000I0J-250000D01*
G01*
X18325000Y-62305000D01*
G75*
G02*
X18075000Y-62555000I-250000J0D01*
G01*
X16125000Y-62555000D01*
G75*
G02*
X15875000Y-62305000I0J250000D01*
G01*
G37*
G36*
G01*
X15875000Y-61035000D02*
X15875000Y-60535000D01*
G75*
G02*
X16125000Y-60285000I250000J0D01*
G01*
X18075000Y-60285000D01*
G75*
G02*
X18325000Y-60535000I0J-250000D01*
G01*
X18325000Y-61035000D01*
G75*
G02*
X18075000Y-61285000I-250000J0D01*
G01*
X16125000Y-61285000D01*
G75*
G02*
X15875000Y-61035000I0J250000D01*
G01*
G37*
G36*
G01*
X25175000Y-61035000D02*
X25175000Y-60535000D01*
G75*
G02*
X25425000Y-60285000I250000J0D01*
G01*
X27375000Y-60285000D01*
G75*
G02*
X27625000Y-60535000I0J-250000D01*
G01*
X27625000Y-61035000D01*
G75*
G02*
X27375000Y-61285000I-250000J0D01*
G01*
X25425000Y-61285000D01*
G75*
G02*
X25175000Y-61035000I0J250000D01*
G01*
G37*
G36*
G01*
X25175000Y-62305000D02*
X25175000Y-61805000D01*
G75*
G02*
X25425000Y-61555000I250000J0D01*
G01*
X27375000Y-61555000D01*
G75*
G02*
X27625000Y-61805000I0J-250000D01*
G01*
X27625000Y-62305000D01*
G75*
G02*
X27375000Y-62555000I-250000J0D01*
G01*
X25425000Y-62555000D01*
G75*
G02*
X25175000Y-62305000I0J250000D01*
G01*
G37*
G36*
G01*
X25175000Y-63575000D02*
X25175000Y-63075000D01*
G75*
G02*
X25425000Y-62825000I250000J0D01*
G01*
X27375000Y-62825000D01*
G75*
G02*
X27625000Y-63075000I0J-250000D01*
G01*
X27625000Y-63575000D01*
G75*
G02*
X27375000Y-63825000I-250000J0D01*
G01*
X25425000Y-63825000D01*
G75*
G02*
X25175000Y-63575000I0J250000D01*
G01*
G37*
G36*
G01*
X25175000Y-64845000D02*
X25175000Y-64345000D01*
G75*
G02*
X25425000Y-64095000I250000J0D01*
G01*
X27375000Y-64095000D01*
G75*
G02*
X27625000Y-64345000I0J-250000D01*
G01*
X27625000Y-64845000D01*
G75*
G02*
X27375000Y-65095000I-250000J0D01*
G01*
X25425000Y-65095000D01*
G75*
G02*
X25175000Y-64845000I0J250000D01*
G01*
G37*
G36*
G01*
X25175000Y-66115000D02*
X25175000Y-65615000D01*
G75*
G02*
X25425000Y-65365000I250000J0D01*
G01*
X27375000Y-65365000D01*
G75*
G02*
X27625000Y-65615000I0J-250000D01*
G01*
X27625000Y-66115000D01*
G75*
G02*
X27375000Y-66365000I-250000J0D01*
G01*
X25425000Y-66365000D01*
G75*
G02*
X25175000Y-66115000I0J250000D01*
G01*
G37*
G36*
G01*
X25175000Y-67385000D02*
X25175000Y-66885000D01*
G75*
G02*
X25425000Y-66635000I250000J0D01*
G01*
X27375000Y-66635000D01*
G75*
G02*
X27625000Y-66885000I0J-250000D01*
G01*
X27625000Y-67385000D01*
G75*
G02*
X27375000Y-67635000I-250000J0D01*
G01*
X25425000Y-67635000D01*
G75*
G02*
X25175000Y-67385000I0J250000D01*
G01*
G37*
G36*
G01*
X25175000Y-68655000D02*
X25175000Y-68155000D01*
G75*
G02*
X25425000Y-67905000I250000J0D01*
G01*
X27375000Y-67905000D01*
G75*
G02*
X27625000Y-68155000I0J-250000D01*
G01*
X27625000Y-68655000D01*
G75*
G02*
X27375000Y-68905000I-250000J0D01*
G01*
X25425000Y-68905000D01*
G75*
G02*
X25175000Y-68655000I0J250000D01*
G01*
G37*
G36*
G01*
X25175000Y-69925000D02*
X25175000Y-69425000D01*
G75*
G02*
X25425000Y-69175000I250000J0D01*
G01*
X27375000Y-69175000D01*
G75*
G02*
X27625000Y-69425000I0J-250000D01*
G01*
X27625000Y-69925000D01*
G75*
G02*
X27375000Y-70175000I-250000J0D01*
G01*
X25425000Y-70175000D01*
G75*
G02*
X25175000Y-69925000I0J250000D01*
G01*
G37*
G36*
G01*
X25175000Y-71195000D02*
X25175000Y-70695000D01*
G75*
G02*
X25425000Y-70445000I250000J0D01*
G01*
X27375000Y-70445000D01*
G75*
G02*
X27625000Y-70695000I0J-250000D01*
G01*
X27625000Y-71195000D01*
G75*
G02*
X27375000Y-71445000I-250000J0D01*
G01*
X25425000Y-71445000D01*
G75*
G02*
X25175000Y-71195000I0J250000D01*
G01*
G37*
G36*
G01*
X25175000Y-72465000D02*
X25175000Y-71965000D01*
G75*
G02*
X25425000Y-71715000I250000J0D01*
G01*
X27375000Y-71715000D01*
G75*
G02*
X27625000Y-71965000I0J-250000D01*
G01*
X27625000Y-72465000D01*
G75*
G02*
X27375000Y-72715000I-250000J0D01*
G01*
X25425000Y-72715000D01*
G75*
G02*
X25175000Y-72465000I0J250000D01*
G01*
G37*
G36*
G01*
X45425000Y-72465000D02*
X45425000Y-71965000D01*
G75*
G02*
X45675000Y-71715000I250000J0D01*
G01*
X47625000Y-71715000D01*
G75*
G02*
X47875000Y-71965000I0J-250000D01*
G01*
X47875000Y-72465000D01*
G75*
G02*
X47625000Y-72715000I-250000J0D01*
G01*
X45675000Y-72715000D01*
G75*
G02*
X45425000Y-72465000I0J250000D01*
G01*
G37*
G36*
G01*
X45425000Y-71195000D02*
X45425000Y-70695000D01*
G75*
G02*
X45675000Y-70445000I250000J0D01*
G01*
X47625000Y-70445000D01*
G75*
G02*
X47875000Y-70695000I0J-250000D01*
G01*
X47875000Y-71195000D01*
G75*
G02*
X47625000Y-71445000I-250000J0D01*
G01*
X45675000Y-71445000D01*
G75*
G02*
X45425000Y-71195000I0J250000D01*
G01*
G37*
G36*
G01*
X45425000Y-69925000D02*
X45425000Y-69425000D01*
G75*
G02*
X45675000Y-69175000I250000J0D01*
G01*
X47625000Y-69175000D01*
G75*
G02*
X47875000Y-69425000I0J-250000D01*
G01*
X47875000Y-69925000D01*
G75*
G02*
X47625000Y-70175000I-250000J0D01*
G01*
X45675000Y-70175000D01*
G75*
G02*
X45425000Y-69925000I0J250000D01*
G01*
G37*
G36*
G01*
X45425000Y-68655000D02*
X45425000Y-68155000D01*
G75*
G02*
X45675000Y-67905000I250000J0D01*
G01*
X47625000Y-67905000D01*
G75*
G02*
X47875000Y-68155000I0J-250000D01*
G01*
X47875000Y-68655000D01*
G75*
G02*
X47625000Y-68905000I-250000J0D01*
G01*
X45675000Y-68905000D01*
G75*
G02*
X45425000Y-68655000I0J250000D01*
G01*
G37*
G36*
G01*
X45425000Y-67385000D02*
X45425000Y-66885000D01*
G75*
G02*
X45675000Y-66635000I250000J0D01*
G01*
X47625000Y-66635000D01*
G75*
G02*
X47875000Y-66885000I0J-250000D01*
G01*
X47875000Y-67385000D01*
G75*
G02*
X47625000Y-67635000I-250000J0D01*
G01*
X45675000Y-67635000D01*
G75*
G02*
X45425000Y-67385000I0J250000D01*
G01*
G37*
G36*
G01*
X45425000Y-66115000D02*
X45425000Y-65615000D01*
G75*
G02*
X45675000Y-65365000I250000J0D01*
G01*
X47625000Y-65365000D01*
G75*
G02*
X47875000Y-65615000I0J-250000D01*
G01*
X47875000Y-66115000D01*
G75*
G02*
X47625000Y-66365000I-250000J0D01*
G01*
X45675000Y-66365000D01*
G75*
G02*
X45425000Y-66115000I0J250000D01*
G01*
G37*
G36*
G01*
X45425000Y-64845000D02*
X45425000Y-64345000D01*
G75*
G02*
X45675000Y-64095000I250000J0D01*
G01*
X47625000Y-64095000D01*
G75*
G02*
X47875000Y-64345000I0J-250000D01*
G01*
X47875000Y-64845000D01*
G75*
G02*
X47625000Y-65095000I-250000J0D01*
G01*
X45675000Y-65095000D01*
G75*
G02*
X45425000Y-64845000I0J250000D01*
G01*
G37*
G36*
G01*
X45425000Y-63575000D02*
X45425000Y-63075000D01*
G75*
G02*
X45675000Y-62825000I250000J0D01*
G01*
X47625000Y-62825000D01*
G75*
G02*
X47875000Y-63075000I0J-250000D01*
G01*
X47875000Y-63575000D01*
G75*
G02*
X47625000Y-63825000I-250000J0D01*
G01*
X45675000Y-63825000D01*
G75*
G02*
X45425000Y-63575000I0J250000D01*
G01*
G37*
G36*
G01*
X45425000Y-62305000D02*
X45425000Y-61805000D01*
G75*
G02*
X45675000Y-61555000I250000J0D01*
G01*
X47625000Y-61555000D01*
G75*
G02*
X47875000Y-61805000I0J-250000D01*
G01*
X47875000Y-62305000D01*
G75*
G02*
X47625000Y-62555000I-250000J0D01*
G01*
X45675000Y-62555000D01*
G75*
G02*
X45425000Y-62305000I0J250000D01*
G01*
G37*
G36*
G01*
X45425000Y-61035000D02*
X45425000Y-60535000D01*
G75*
G02*
X45675000Y-60285000I250000J0D01*
G01*
X47625000Y-60285000D01*
G75*
G02*
X47875000Y-60535000I0J-250000D01*
G01*
X47875000Y-61035000D01*
G75*
G02*
X47625000Y-61285000I-250000J0D01*
G01*
X45675000Y-61285000D01*
G75*
G02*
X45425000Y-61035000I0J250000D01*
G01*
G37*
G36*
G01*
X36125000Y-61035000D02*
X36125000Y-60535000D01*
G75*
G02*
X36375000Y-60285000I250000J0D01*
G01*
X38325000Y-60285000D01*
G75*
G02*
X38575000Y-60535000I0J-250000D01*
G01*
X38575000Y-61035000D01*
G75*
G02*
X38325000Y-61285000I-250000J0D01*
G01*
X36375000Y-61285000D01*
G75*
G02*
X36125000Y-61035000I0J250000D01*
G01*
G37*
G36*
G01*
X36125000Y-62305000D02*
X36125000Y-61805000D01*
G75*
G02*
X36375000Y-61555000I250000J0D01*
G01*
X38325000Y-61555000D01*
G75*
G02*
X38575000Y-61805000I0J-250000D01*
G01*
X38575000Y-62305000D01*
G75*
G02*
X38325000Y-62555000I-250000J0D01*
G01*
X36375000Y-62555000D01*
G75*
G02*
X36125000Y-62305000I0J250000D01*
G01*
G37*
G36*
G01*
X36125000Y-63575000D02*
X36125000Y-63075000D01*
G75*
G02*
X36375000Y-62825000I250000J0D01*
G01*
X38325000Y-62825000D01*
G75*
G02*
X38575000Y-63075000I0J-250000D01*
G01*
X38575000Y-63575000D01*
G75*
G02*
X38325000Y-63825000I-250000J0D01*
G01*
X36375000Y-63825000D01*
G75*
G02*
X36125000Y-63575000I0J250000D01*
G01*
G37*
G36*
G01*
X36125000Y-64845000D02*
X36125000Y-64345000D01*
G75*
G02*
X36375000Y-64095000I250000J0D01*
G01*
X38325000Y-64095000D01*
G75*
G02*
X38575000Y-64345000I0J-250000D01*
G01*
X38575000Y-64845000D01*
G75*
G02*
X38325000Y-65095000I-250000J0D01*
G01*
X36375000Y-65095000D01*
G75*
G02*
X36125000Y-64845000I0J250000D01*
G01*
G37*
G36*
G01*
X36125000Y-66115000D02*
X36125000Y-65615000D01*
G75*
G02*
X36375000Y-65365000I250000J0D01*
G01*
X38325000Y-65365000D01*
G75*
G02*
X38575000Y-65615000I0J-250000D01*
G01*
X38575000Y-66115000D01*
G75*
G02*
X38325000Y-66365000I-250000J0D01*
G01*
X36375000Y-66365000D01*
G75*
G02*
X36125000Y-66115000I0J250000D01*
G01*
G37*
G36*
G01*
X36125000Y-67385000D02*
X36125000Y-66885000D01*
G75*
G02*
X36375000Y-66635000I250000J0D01*
G01*
X38325000Y-66635000D01*
G75*
G02*
X38575000Y-66885000I0J-250000D01*
G01*
X38575000Y-67385000D01*
G75*
G02*
X38325000Y-67635000I-250000J0D01*
G01*
X36375000Y-67635000D01*
G75*
G02*
X36125000Y-67385000I0J250000D01*
G01*
G37*
G36*
G01*
X36125000Y-68655000D02*
X36125000Y-68155000D01*
G75*
G02*
X36375000Y-67905000I250000J0D01*
G01*
X38325000Y-67905000D01*
G75*
G02*
X38575000Y-68155000I0J-250000D01*
G01*
X38575000Y-68655000D01*
G75*
G02*
X38325000Y-68905000I-250000J0D01*
G01*
X36375000Y-68905000D01*
G75*
G02*
X36125000Y-68655000I0J250000D01*
G01*
G37*
G36*
G01*
X36125000Y-69925000D02*
X36125000Y-69425000D01*
G75*
G02*
X36375000Y-69175000I250000J0D01*
G01*
X38325000Y-69175000D01*
G75*
G02*
X38575000Y-69425000I0J-250000D01*
G01*
X38575000Y-69925000D01*
G75*
G02*
X38325000Y-70175000I-250000J0D01*
G01*
X36375000Y-70175000D01*
G75*
G02*
X36125000Y-69925000I0J250000D01*
G01*
G37*
G36*
G01*
X36125000Y-71195000D02*
X36125000Y-70695000D01*
G75*
G02*
X36375000Y-70445000I250000J0D01*
G01*
X38325000Y-70445000D01*
G75*
G02*
X38575000Y-70695000I0J-250000D01*
G01*
X38575000Y-71195000D01*
G75*
G02*
X38325000Y-71445000I-250000J0D01*
G01*
X36375000Y-71445000D01*
G75*
G02*
X36125000Y-71195000I0J250000D01*
G01*
G37*
G36*
G01*
X36125000Y-72465000D02*
X36125000Y-71965000D01*
G75*
G02*
X36375000Y-71715000I250000J0D01*
G01*
X38325000Y-71715000D01*
G75*
G02*
X38575000Y-71965000I0J-250000D01*
G01*
X38575000Y-72465000D01*
G75*
G02*
X38325000Y-72715000I-250000J0D01*
G01*
X36375000Y-72715000D01*
G75*
G02*
X36125000Y-72465000I0J250000D01*
G01*
G37*
G36*
G01*
X86625000Y-71443750D02*
X86625000Y-72556250D01*
G75*
G02*
X86281250Y-72900000I-343750J0D01*
G01*
X85593750Y-72900000D01*
G75*
G02*
X85250000Y-72556250I0J343750D01*
G01*
X85250000Y-71443750D01*
G75*
G02*
X85593750Y-71100000I343750J0D01*
G01*
X86281250Y-71100000D01*
G75*
G02*
X86625000Y-71443750I0J-343750D01*
G01*
G37*
G36*
G01*
X84750000Y-71443750D02*
X84750000Y-72556250D01*
G75*
G02*
X84406250Y-72900000I-343750J0D01*
G01*
X83718750Y-72900000D01*
G75*
G02*
X83375000Y-72556250I0J343750D01*
G01*
X83375000Y-71443750D01*
G75*
G02*
X83718750Y-71100000I343750J0D01*
G01*
X84406250Y-71100000D01*
G75*
G02*
X84750000Y-71443750I0J-343750D01*
G01*
G37*
G36*
G01*
X85250000Y-49443750D02*
X85250000Y-50556250D01*
G75*
G02*
X84906250Y-50900000I-343750J0D01*
G01*
X84218750Y-50900000D01*
G75*
G02*
X83875000Y-50556250I0J343750D01*
G01*
X83875000Y-49443750D01*
G75*
G02*
X84218750Y-49100000I343750J0D01*
G01*
X84906250Y-49100000D01*
G75*
G02*
X85250000Y-49443750I0J-343750D01*
G01*
G37*
G36*
G01*
X87125000Y-49443750D02*
X87125000Y-50556250D01*
G75*
G02*
X86781250Y-50900000I-343750J0D01*
G01*
X86093750Y-50900000D01*
G75*
G02*
X85750000Y-50556250I0J343750D01*
G01*
X85750000Y-49443750D01*
G75*
G02*
X86093750Y-49100000I343750J0D01*
G01*
X86781250Y-49100000D01*
G75*
G02*
X87125000Y-49443750I0J-343750D01*
G01*
G37*
D17*
X5000000Y-5000000D03*
X128000000Y-5000000D03*
X5000000Y-88000000D03*
X128000000Y-88000000D03*
D18*
X74000000Y-86000000D03*
D19*
X76540000Y-86000000D03*
X79080000Y-86000000D03*
X81620000Y-86000000D03*
X84160000Y-86000000D03*
X86700000Y-86000000D03*
D20*
X40500000Y-82500000D03*
D21*
X40500000Y-81230000D03*
X41770000Y-82500000D03*
X41770000Y-81230000D03*
X43040000Y-82500000D03*
X43040000Y-81230000D03*
X44310000Y-82500000D03*
X44310000Y-81230000D03*
X45580000Y-82500000D03*
X45580000Y-81230000D03*
X46850000Y-82500000D03*
X46850000Y-81230000D03*
X48120000Y-82500000D03*
X48120000Y-81230000D03*
X49390000Y-82500000D03*
X49390000Y-81230000D03*
X50660000Y-82500000D03*
X50660000Y-81230000D03*
X51930000Y-82500000D03*
X51930000Y-81230000D03*
X53200000Y-82500000D03*
X53200000Y-81230000D03*
X54470000Y-82500000D03*
X54470000Y-81230000D03*
X55740000Y-82500000D03*
X55740000Y-81230000D03*
X57010000Y-82500000D03*
X57010000Y-81230000D03*
X58280000Y-82500000D03*
X58280000Y-81230000D03*
D20*
X40500000Y-89000000D03*
D21*
X40500000Y-87730000D03*
X41770000Y-89000000D03*
X41770000Y-87730000D03*
X43040000Y-89000000D03*
X43040000Y-87730000D03*
X44310000Y-89000000D03*
X44310000Y-87730000D03*
X45580000Y-89000000D03*
X45580000Y-87730000D03*
X46850000Y-89000000D03*
X46850000Y-87730000D03*
X48120000Y-89000000D03*
X48120000Y-87730000D03*
X49390000Y-89000000D03*
X49390000Y-87730000D03*
X50660000Y-89000000D03*
X50660000Y-87730000D03*
X51930000Y-89000000D03*
X51930000Y-87730000D03*
X53200000Y-89000000D03*
X53200000Y-87730000D03*
X54470000Y-89000000D03*
X54470000Y-87730000D03*
X55740000Y-89000000D03*
X55740000Y-87730000D03*
X57010000Y-89000000D03*
X57010000Y-87730000D03*
X58280000Y-89000000D03*
X58280000Y-87730000D03*
X59550000Y-89000000D03*
X59550000Y-87730000D03*
X60820000Y-89000000D03*
X60820000Y-87730000D03*
X62090000Y-89000000D03*
X62090000Y-87730000D03*
X63360000Y-89000000D03*
X63360000Y-87730000D03*
D22*
X77000000Y-61950000D03*
X77000000Y-60050000D03*
X79000000Y-61000000D03*
G36*
G01*
X82735000Y-55875000D02*
X82235000Y-55875000D01*
G75*
G02*
X81985000Y-55625000I0J250000D01*
G01*
X81985000Y-53675000D01*
G75*
G02*
X82235000Y-53425000I250000J0D01*
G01*
X82735000Y-53425000D01*
G75*
G02*
X82985000Y-53675000I0J-250000D01*
G01*
X82985000Y-55625000D01*
G75*
G02*
X82735000Y-55875000I-250000J0D01*
G01*
G37*
G36*
G01*
X81465000Y-55875000D02*
X80965000Y-55875000D01*
G75*
G02*
X80715000Y-55625000I0J250000D01*
G01*
X80715000Y-53675000D01*
G75*
G02*
X80965000Y-53425000I250000J0D01*
G01*
X81465000Y-53425000D01*
G75*
G02*
X81715000Y-53675000I0J-250000D01*
G01*
X81715000Y-55625000D01*
G75*
G02*
X81465000Y-55875000I-250000J0D01*
G01*
G37*
G36*
G01*
X80195000Y-55875000D02*
X79695000Y-55875000D01*
G75*
G02*
X79445000Y-55625000I0J250000D01*
G01*
X79445000Y-53675000D01*
G75*
G02*
X79695000Y-53425000I250000J0D01*
G01*
X80195000Y-53425000D01*
G75*
G02*
X80445000Y-53675000I0J-250000D01*
G01*
X80445000Y-55625000D01*
G75*
G02*
X80195000Y-55875000I-250000J0D01*
G01*
G37*
G36*
G01*
X78925000Y-55875000D02*
X78425000Y-55875000D01*
G75*
G02*
X78175000Y-55625000I0J250000D01*
G01*
X78175000Y-53675000D01*
G75*
G02*
X78425000Y-53425000I250000J0D01*
G01*
X78925000Y-53425000D01*
G75*
G02*
X79175000Y-53675000I0J-250000D01*
G01*
X79175000Y-55625000D01*
G75*
G02*
X78925000Y-55875000I-250000J0D01*
G01*
G37*
G36*
G01*
X77655000Y-55875000D02*
X77155000Y-55875000D01*
G75*
G02*
X76905000Y-55625000I0J250000D01*
G01*
X76905000Y-53675000D01*
G75*
G02*
X77155000Y-53425000I250000J0D01*
G01*
X77655000Y-53425000D01*
G75*
G02*
X77905000Y-53675000I0J-250000D01*
G01*
X77905000Y-55625000D01*
G75*
G02*
X77655000Y-55875000I-250000J0D01*
G01*
G37*
G36*
G01*
X76385000Y-55875000D02*
X75885000Y-55875000D01*
G75*
G02*
X75635000Y-55625000I0J250000D01*
G01*
X75635000Y-53675000D01*
G75*
G02*
X75885000Y-53425000I250000J0D01*
G01*
X76385000Y-53425000D01*
G75*
G02*
X76635000Y-53675000I0J-250000D01*
G01*
X76635000Y-55625000D01*
G75*
G02*
X76385000Y-55875000I-250000J0D01*
G01*
G37*
G36*
G01*
X75115000Y-55875000D02*
X74615000Y-55875000D01*
G75*
G02*
X74365000Y-55625000I0J250000D01*
G01*
X74365000Y-53675000D01*
G75*
G02*
X74615000Y-53425000I250000J0D01*
G01*
X75115000Y-53425000D01*
G75*
G02*
X75365000Y-53675000I0J-250000D01*
G01*
X75365000Y-55625000D01*
G75*
G02*
X75115000Y-55875000I-250000J0D01*
G01*
G37*
G36*
G01*
X73845000Y-55875000D02*
X73345000Y-55875000D01*
G75*
G02*
X73095000Y-55625000I0J250000D01*
G01*
X73095000Y-53675000D01*
G75*
G02*
X73345000Y-53425000I250000J0D01*
G01*
X73845000Y-53425000D01*
G75*
G02*
X74095000Y-53675000I0J-250000D01*
G01*
X74095000Y-55625000D01*
G75*
G02*
X73845000Y-55875000I-250000J0D01*
G01*
G37*
G36*
G01*
X72575000Y-55875000D02*
X72075000Y-55875000D01*
G75*
G02*
X71825000Y-55625000I0J250000D01*
G01*
X71825000Y-53675000D01*
G75*
G02*
X72075000Y-53425000I250000J0D01*
G01*
X72575000Y-53425000D01*
G75*
G02*
X72825000Y-53675000I0J-250000D01*
G01*
X72825000Y-55625000D01*
G75*
G02*
X72575000Y-55875000I-250000J0D01*
G01*
G37*
G36*
G01*
X71305000Y-55875000D02*
X70805000Y-55875000D01*
G75*
G02*
X70555000Y-55625000I0J250000D01*
G01*
X70555000Y-53675000D01*
G75*
G02*
X70805000Y-53425000I250000J0D01*
G01*
X71305000Y-53425000D01*
G75*
G02*
X71555000Y-53675000I0J-250000D01*
G01*
X71555000Y-55625000D01*
G75*
G02*
X71305000Y-55875000I-250000J0D01*
G01*
G37*
G36*
G01*
X70035000Y-55875000D02*
X69535000Y-55875000D01*
G75*
G02*
X69285000Y-55625000I0J250000D01*
G01*
X69285000Y-53675000D01*
G75*
G02*
X69535000Y-53425000I250000J0D01*
G01*
X70035000Y-53425000D01*
G75*
G02*
X70285000Y-53675000I0J-250000D01*
G01*
X70285000Y-55625000D01*
G75*
G02*
X70035000Y-55875000I-250000J0D01*
G01*
G37*
G36*
G01*
X68765000Y-55875000D02*
X68265000Y-55875000D01*
G75*
G02*
X68015000Y-55625000I0J250000D01*
G01*
X68015000Y-53675000D01*
G75*
G02*
X68265000Y-53425000I250000J0D01*
G01*
X68765000Y-53425000D01*
G75*
G02*
X69015000Y-53675000I0J-250000D01*
G01*
X69015000Y-55625000D01*
G75*
G02*
X68765000Y-55875000I-250000J0D01*
G01*
G37*
G36*
G01*
X68765000Y-46575000D02*
X68265000Y-46575000D01*
G75*
G02*
X68015000Y-46325000I0J250000D01*
G01*
X68015000Y-44375000D01*
G75*
G02*
X68265000Y-44125000I250000J0D01*
G01*
X68765000Y-44125000D01*
G75*
G02*
X69015000Y-44375000I0J-250000D01*
G01*
X69015000Y-46325000D01*
G75*
G02*
X68765000Y-46575000I-250000J0D01*
G01*
G37*
G36*
G01*
X70035000Y-46575000D02*
X69535000Y-46575000D01*
G75*
G02*
X69285000Y-46325000I0J250000D01*
G01*
X69285000Y-44375000D01*
G75*
G02*
X69535000Y-44125000I250000J0D01*
G01*
X70035000Y-44125000D01*
G75*
G02*
X70285000Y-44375000I0J-250000D01*
G01*
X70285000Y-46325000D01*
G75*
G02*
X70035000Y-46575000I-250000J0D01*
G01*
G37*
G36*
G01*
X71305000Y-46575000D02*
X70805000Y-46575000D01*
G75*
G02*
X70555000Y-46325000I0J250000D01*
G01*
X70555000Y-44375000D01*
G75*
G02*
X70805000Y-44125000I250000J0D01*
G01*
X71305000Y-44125000D01*
G75*
G02*
X71555000Y-44375000I0J-250000D01*
G01*
X71555000Y-46325000D01*
G75*
G02*
X71305000Y-46575000I-250000J0D01*
G01*
G37*
G36*
G01*
X72575000Y-46575000D02*
X72075000Y-46575000D01*
G75*
G02*
X71825000Y-46325000I0J250000D01*
G01*
X71825000Y-44375000D01*
G75*
G02*
X72075000Y-44125000I250000J0D01*
G01*
X72575000Y-44125000D01*
G75*
G02*
X72825000Y-44375000I0J-250000D01*
G01*
X72825000Y-46325000D01*
G75*
G02*
X72575000Y-46575000I-250000J0D01*
G01*
G37*
G36*
G01*
X73845000Y-46575000D02*
X73345000Y-46575000D01*
G75*
G02*
X73095000Y-46325000I0J250000D01*
G01*
X73095000Y-44375000D01*
G75*
G02*
X73345000Y-44125000I250000J0D01*
G01*
X73845000Y-44125000D01*
G75*
G02*
X74095000Y-44375000I0J-250000D01*
G01*
X74095000Y-46325000D01*
G75*
G02*
X73845000Y-46575000I-250000J0D01*
G01*
G37*
G36*
G01*
X75115000Y-46575000D02*
X74615000Y-46575000D01*
G75*
G02*
X74365000Y-46325000I0J250000D01*
G01*
X74365000Y-44375000D01*
G75*
G02*
X74615000Y-44125000I250000J0D01*
G01*
X75115000Y-44125000D01*
G75*
G02*
X75365000Y-44375000I0J-250000D01*
G01*
X75365000Y-46325000D01*
G75*
G02*
X75115000Y-46575000I-250000J0D01*
G01*
G37*
G36*
G01*
X76385000Y-46575000D02*
X75885000Y-46575000D01*
G75*
G02*
X75635000Y-46325000I0J250000D01*
G01*
X75635000Y-44375000D01*
G75*
G02*
X75885000Y-44125000I250000J0D01*
G01*
X76385000Y-44125000D01*
G75*
G02*
X76635000Y-44375000I0J-250000D01*
G01*
X76635000Y-46325000D01*
G75*
G02*
X76385000Y-46575000I-250000J0D01*
G01*
G37*
G36*
G01*
X77655000Y-46575000D02*
X77155000Y-46575000D01*
G75*
G02*
X76905000Y-46325000I0J250000D01*
G01*
X76905000Y-44375000D01*
G75*
G02*
X77155000Y-44125000I250000J0D01*
G01*
X77655000Y-44125000D01*
G75*
G02*
X77905000Y-44375000I0J-250000D01*
G01*
X77905000Y-46325000D01*
G75*
G02*
X77655000Y-46575000I-250000J0D01*
G01*
G37*
G36*
G01*
X78925000Y-46575000D02*
X78425000Y-46575000D01*
G75*
G02*
X78175000Y-46325000I0J250000D01*
G01*
X78175000Y-44375000D01*
G75*
G02*
X78425000Y-44125000I250000J0D01*
G01*
X78925000Y-44125000D01*
G75*
G02*
X79175000Y-44375000I0J-250000D01*
G01*
X79175000Y-46325000D01*
G75*
G02*
X78925000Y-46575000I-250000J0D01*
G01*
G37*
G36*
G01*
X80195000Y-46575000D02*
X79695000Y-46575000D01*
G75*
G02*
X79445000Y-46325000I0J250000D01*
G01*
X79445000Y-44375000D01*
G75*
G02*
X79695000Y-44125000I250000J0D01*
G01*
X80195000Y-44125000D01*
G75*
G02*
X80445000Y-44375000I0J-250000D01*
G01*
X80445000Y-46325000D01*
G75*
G02*
X80195000Y-46575000I-250000J0D01*
G01*
G37*
G36*
G01*
X81465000Y-46575000D02*
X80965000Y-46575000D01*
G75*
G02*
X80715000Y-46325000I0J250000D01*
G01*
X80715000Y-44375000D01*
G75*
G02*
X80965000Y-44125000I250000J0D01*
G01*
X81465000Y-44125000D01*
G75*
G02*
X81715000Y-44375000I0J-250000D01*
G01*
X81715000Y-46325000D01*
G75*
G02*
X81465000Y-46575000I-250000J0D01*
G01*
G37*
G36*
G01*
X82735000Y-46575000D02*
X82235000Y-46575000D01*
G75*
G02*
X81985000Y-46325000I0J250000D01*
G01*
X81985000Y-44375000D01*
G75*
G02*
X82235000Y-44125000I250000J0D01*
G01*
X82735000Y-44125000D01*
G75*
G02*
X82985000Y-44375000I0J-250000D01*
G01*
X82985000Y-46325000D01*
G75*
G02*
X82735000Y-46575000I-250000J0D01*
G01*
G37*
G36*
G01*
X82195000Y-75650000D02*
X81695000Y-75650000D01*
G75*
G02*
X81445000Y-75400000I0J250000D01*
G01*
X81445000Y-73550000D01*
G75*
G02*
X81695000Y-73300000I250000J0D01*
G01*
X82195000Y-73300000D01*
G75*
G02*
X82445000Y-73550000I0J-250000D01*
G01*
X82445000Y-75400000D01*
G75*
G02*
X82195000Y-75650000I-250000J0D01*
G01*
G37*
G36*
G01*
X80925000Y-75650000D02*
X80425000Y-75650000D01*
G75*
G02*
X80175000Y-75400000I0J250000D01*
G01*
X80175000Y-73550000D01*
G75*
G02*
X80425000Y-73300000I250000J0D01*
G01*
X80925000Y-73300000D01*
G75*
G02*
X81175000Y-73550000I0J-250000D01*
G01*
X81175000Y-75400000D01*
G75*
G02*
X80925000Y-75650000I-250000J0D01*
G01*
G37*
G36*
G01*
X79655000Y-75650000D02*
X79155000Y-75650000D01*
G75*
G02*
X78905000Y-75400000I0J250000D01*
G01*
X78905000Y-73550000D01*
G75*
G02*
X79155000Y-73300000I250000J0D01*
G01*
X79655000Y-73300000D01*
G75*
G02*
X79905000Y-73550000I0J-250000D01*
G01*
X79905000Y-75400000D01*
G75*
G02*
X79655000Y-75650000I-250000J0D01*
G01*
G37*
G36*
G01*
X78385000Y-75650000D02*
X77885000Y-75650000D01*
G75*
G02*
X77635000Y-75400000I0J250000D01*
G01*
X77635000Y-73550000D01*
G75*
G02*
X77885000Y-73300000I250000J0D01*
G01*
X78385000Y-73300000D01*
G75*
G02*
X78635000Y-73550000I0J-250000D01*
G01*
X78635000Y-75400000D01*
G75*
G02*
X78385000Y-75650000I-250000J0D01*
G01*
G37*
G36*
G01*
X77115000Y-75650000D02*
X76615000Y-75650000D01*
G75*
G02*
X76365000Y-75400000I0J250000D01*
G01*
X76365000Y-73550000D01*
G75*
G02*
X76615000Y-73300000I250000J0D01*
G01*
X77115000Y-73300000D01*
G75*
G02*
X77365000Y-73550000I0J-250000D01*
G01*
X77365000Y-75400000D01*
G75*
G02*
X77115000Y-75650000I-250000J0D01*
G01*
G37*
G36*
G01*
X75845000Y-75650000D02*
X75345000Y-75650000D01*
G75*
G02*
X75095000Y-75400000I0J250000D01*
G01*
X75095000Y-73550000D01*
G75*
G02*
X75345000Y-73300000I250000J0D01*
G01*
X75845000Y-73300000D01*
G75*
G02*
X76095000Y-73550000I0J-250000D01*
G01*
X76095000Y-75400000D01*
G75*
G02*
X75845000Y-75650000I-250000J0D01*
G01*
G37*
G36*
G01*
X74575000Y-75650000D02*
X74075000Y-75650000D01*
G75*
G02*
X73825000Y-75400000I0J250000D01*
G01*
X73825000Y-73550000D01*
G75*
G02*
X74075000Y-73300000I250000J0D01*
G01*
X74575000Y-73300000D01*
G75*
G02*
X74825000Y-73550000I0J-250000D01*
G01*
X74825000Y-75400000D01*
G75*
G02*
X74575000Y-75650000I-250000J0D01*
G01*
G37*
G36*
G01*
X73305000Y-75650000D02*
X72805000Y-75650000D01*
G75*
G02*
X72555000Y-75400000I0J250000D01*
G01*
X72555000Y-73550000D01*
G75*
G02*
X72805000Y-73300000I250000J0D01*
G01*
X73305000Y-73300000D01*
G75*
G02*
X73555000Y-73550000I0J-250000D01*
G01*
X73555000Y-75400000D01*
G75*
G02*
X73305000Y-75650000I-250000J0D01*
G01*
G37*
G36*
G01*
X73305000Y-70700000D02*
X72805000Y-70700000D01*
G75*
G02*
X72555000Y-70450000I0J250000D01*
G01*
X72555000Y-68600000D01*
G75*
G02*
X72805000Y-68350000I250000J0D01*
G01*
X73305000Y-68350000D01*
G75*
G02*
X73555000Y-68600000I0J-250000D01*
G01*
X73555000Y-70450000D01*
G75*
G02*
X73305000Y-70700000I-250000J0D01*
G01*
G37*
G36*
G01*
X74575000Y-70700000D02*
X74075000Y-70700000D01*
G75*
G02*
X73825000Y-70450000I0J250000D01*
G01*
X73825000Y-68600000D01*
G75*
G02*
X74075000Y-68350000I250000J0D01*
G01*
X74575000Y-68350000D01*
G75*
G02*
X74825000Y-68600000I0J-250000D01*
G01*
X74825000Y-70450000D01*
G75*
G02*
X74575000Y-70700000I-250000J0D01*
G01*
G37*
G36*
G01*
X75845000Y-70700000D02*
X75345000Y-70700000D01*
G75*
G02*
X75095000Y-70450000I0J250000D01*
G01*
X75095000Y-68600000D01*
G75*
G02*
X75345000Y-68350000I250000J0D01*
G01*
X75845000Y-68350000D01*
G75*
G02*
X76095000Y-68600000I0J-250000D01*
G01*
X76095000Y-70450000D01*
G75*
G02*
X75845000Y-70700000I-250000J0D01*
G01*
G37*
G36*
G01*
X77115000Y-70700000D02*
X76615000Y-70700000D01*
G75*
G02*
X76365000Y-70450000I0J250000D01*
G01*
X76365000Y-68600000D01*
G75*
G02*
X76615000Y-68350000I250000J0D01*
G01*
X77115000Y-68350000D01*
G75*
G02*
X77365000Y-68600000I0J-250000D01*
G01*
X77365000Y-70450000D01*
G75*
G02*
X77115000Y-70700000I-250000J0D01*
G01*
G37*
G36*
G01*
X78385000Y-70700000D02*
X77885000Y-70700000D01*
G75*
G02*
X77635000Y-70450000I0J250000D01*
G01*
X77635000Y-68600000D01*
G75*
G02*
X77885000Y-68350000I250000J0D01*
G01*
X78385000Y-68350000D01*
G75*
G02*
X78635000Y-68600000I0J-250000D01*
G01*
X78635000Y-70450000D01*
G75*
G02*
X78385000Y-70700000I-250000J0D01*
G01*
G37*
G36*
G01*
X79655000Y-70700000D02*
X79155000Y-70700000D01*
G75*
G02*
X78905000Y-70450000I0J250000D01*
G01*
X78905000Y-68600000D01*
G75*
G02*
X79155000Y-68350000I250000J0D01*
G01*
X79655000Y-68350000D01*
G75*
G02*
X79905000Y-68600000I0J-250000D01*
G01*
X79905000Y-70450000D01*
G75*
G02*
X79655000Y-70700000I-250000J0D01*
G01*
G37*
G36*
G01*
X80925000Y-70700000D02*
X80425000Y-70700000D01*
G75*
G02*
X80175000Y-70450000I0J250000D01*
G01*
X80175000Y-68600000D01*
G75*
G02*
X80425000Y-68350000I250000J0D01*
G01*
X80925000Y-68350000D01*
G75*
G02*
X81175000Y-68600000I0J-250000D01*
G01*
X81175000Y-70450000D01*
G75*
G02*
X80925000Y-70700000I-250000J0D01*
G01*
G37*
G36*
G01*
X82195000Y-70700000D02*
X81695000Y-70700000D01*
G75*
G02*
X81445000Y-70450000I0J250000D01*
G01*
X81445000Y-68600000D01*
G75*
G02*
X81695000Y-68350000I250000J0D01*
G01*
X82195000Y-68350000D01*
G75*
G02*
X82445000Y-68600000I0J-250000D01*
G01*
X82445000Y-70450000D01*
G75*
G02*
X82195000Y-70700000I-250000J0D01*
G01*
G37*
D23*
X106400000Y-59200000D03*
X106400000Y-58250000D03*
X106400000Y-57300000D03*
X108600000Y-57300000D03*
X108600000Y-59200000D03*
M02*
