M48
; DRILL file {KiCad (5.1.4)-1} date 28.09.2019 19:07:51
; FORMAT={-:-/ absolute / metric / decimal}
; #@! TF.CreationDate,2019-09-28T19:07:51+02:00
; #@! TF.GenerationSoftware,Kicad,Pcbnew,(5.1.4)-1
; #@! TF.FileFunction,Plated,1,4,PTH
FMAT,2
METRIC
T1C0.200
T2C0.300
T3C0.650
T4C0.800
T5C1.000
T6C1.150
T7C1.168
%
G90
G05
T1
X5.816Y-23.719
X5.96Y-59.626
X6.425Y-60.064
X8.551Y-61.418
X8.877Y-44.256
X9.398Y-43.676
X9.452Y-21.962
X10.398Y-40.055
X10.775Y-37.852
X11.878Y-64.079
X12.594Y-21.211
X13.527Y-44.776
X14.056Y-70.31
X14.192Y-64.595
X14.211Y-25.829
X14.408Y-45.135
X14.503Y-31.641
X14.674Y-67.135
X14.689Y-66.046
X14.756Y-41.083
X14.946Y-46.307
X14.966Y-49.62
X15.011Y-28.671
X15.192Y-41.618
X15.196Y-60.578
X15.218Y-24.053
X15.777Y-33.612
X16.936Y-33.545
X16.998Y-35.052
X17.831Y-49.58
X18.082Y-46.508
X18.103Y-27.678
X18.195Y-23.93
X18.199Y-22.348
X18.304Y-66.487
X18.452Y-25.919
X18.463Y-69.073
X18.532Y-70.806
X18.631Y-22.829
X18.966Y-31.324
X19.005Y-62.322
X19.153Y-26.976
X20.475Y-39.85
X20.99Y-63.471
X21.238Y-48.458
X21.639Y-27.004
X21.848Y-28.636
X21.852Y-34.182
X21.879Y-32.625
X21.893Y-30.261
X23.092Y-30.123
X23.38Y-9.773
X23.655Y-66.564
X23.705Y-71.409
X23.989Y-25.509
X24.411Y-8.719
X24.706Y-72.215
X24.921Y-63.096
X24.954Y-64.935
X24.964Y-68.405
X25.063Y-70.33
X25.162Y-20.711
X25.304Y-44.235
X25.337Y-6.235
X25.421Y-45.092
X25.548Y-58.817
X25.758Y-47.697
X26.482Y-15.649
X27.941Y-16.144
X28.026Y-12.255
X28.59Y-16.4
X28.742Y-70.374
X28.767Y-65.202
X28.839Y-22.261
X28.872Y-13.979
X28.888Y-13.111
X28.888Y-14.877
X28.963Y-69.526
X29.122Y-26.803
X29.161Y-28.945
X29.169Y-24.548
X29.345Y-61.988
X29.539Y-21.56
X29.843Y-42.432
X29.851Y-11.895
X29.962Y-16.893
X30.105Y-13.447
X30.307Y-67.607
X30.344Y-15.126
X30.568Y-26.459
X30.692Y-18.998
X31.013Y-25.393
X31.276Y-67.737
X31.323Y-27.365
X31.341Y-29.905
X31.54Y-45.467
X32.291Y-65.607
X32.675Y-19.77
X32.719Y-17.625
X33.036Y-18.779
X33.226Y-64.112
X33.396Y-21.637
X33.983Y-45.602
X34.07Y-41.905
X34.086Y-25.327
X34.099Y-64.215
X34.129Y-26.452
X34.277Y-23.676
X34.308Y-28.635
X34.374Y-68.31
X34.746Y-27.67
X35.058Y-26.642
X35.202Y-47.54
X35.402Y-44.568
X35.524Y-11.633
X36.0Y-16.218
X37.381Y-11.91
X37.562Y-51.584
X37.83Y-37.604
X38.096Y-25.43
X38.098Y-22.679
X38.232Y-49.873
X38.39Y-15.97
X38.423Y-87.209
X38.46Y-16.6
X38.783Y-70.945
X38.811Y-66.754
X38.826Y-68.405
X38.843Y-65.934
X39.149Y-65.341
X39.219Y-61.319
X39.475Y-22.148
X40.423Y-24.211
X40.691Y-31.502
X40.702Y-45.032
X40.703Y-43.25
X40.944Y-48.158
X41.051Y-28.376
X41.055Y-27.675
X41.304Y-63.069
X41.404Y-42.038
X41.504Y-43.557
X41.556Y-29.606
X41.759Y-48.751
X41.83Y-42.566
X42.197Y-50.503
X42.279Y-26.2
X42.402Y-45.765
X42.413Y-28.386
X42.53Y-39.706
X42.644Y-48.773
X42.798Y-42.523
X42.835Y-28.945
X42.839Y-44.735
X43.391Y-50.503
X43.558Y-83.162
X44.133Y-53.818
X44.812Y-53.818
X45.067Y-11.85
X45.211Y-36.073
X45.491Y-38.88
X45.519Y-51.583
X45.614Y-24.825
X45.623Y-45.832
X45.731Y-23.175
X45.848Y-53.571
X45.913Y-44.051
X46.25Y-4.134
X46.837Y-52.589
X47.091Y-37.604
X47.568Y-11.843
X48.784Y-68.405
X48.789Y-69.675
X48.802Y-39.052
X48.963Y-25.226
X49.043Y-26.218
X49.196Y-22.195
X49.366Y-66.218
X49.932Y-21.325
X50.019Y-63.607
X51.03Y-11.086
X51.167Y-65.192
X51.674Y-17.836
X51.679Y-64.153
X51.77Y-35.564
X51.776Y-20.941
X51.793Y-30.364
X51.891Y-48.558
X51.999Y-29.131
X52.016Y-2.969
X52.094Y-45.559
X52.128Y-63.069
X52.949Y-40.738
X52.957Y-31.031
X53.753Y-33.582
X53.929Y-27.725
X54.05Y-43.568
X54.083Y-45.084
X54.093Y-41.195
X54.229Y-62.416
X54.242Y-24.066
X54.387Y-63.764
X55.116Y-22.35
X55.215Y-63.064
X55.415Y-19.448
X57.155Y-57.021
X57.908Y-40.749
X57.938Y-28.23
X58.053Y-71.782
X58.114Y-23.865
X58.182Y-25.135
X58.414Y-67.135
X58.429Y-70.945
X58.434Y-68.63
X58.702Y-46.114
X59.921Y-62.677
X60.096Y-62.014
X60.12Y-55.78
X60.522Y-32.619
X60.634Y-47.07
X60.643Y-35.126
X60.743Y-60.374
X60.899Y-23.953
X61.302Y-34.619
X61.723Y-66.447
X62.301Y-68.765
X63.665Y-55.905
X64.562Y-26.054
X64.659Y-53.3
X64.819Y-54.803
X65.39Y-47.37
X65.439Y-62.684
X65.509Y-63.315
X65.768Y-65.763
X65.851Y-56.267
X66.1Y-64.637
X66.129Y-64.006
X66.159Y-54.749
X66.162Y-53.75
X66.165Y-66.258
X66.171Y-63.354
X66.176Y-65.267
X67.418Y-47.287
X67.61Y-43.6
X67.748Y-69.3
X67.781Y-29.033
X67.845Y-84.181
X68.144Y-36.592
X68.256Y-67.693
X68.292Y-86.496
X68.309Y-82.98
X68.31Y-69.795
X68.483Y-64.518
X68.485Y-61.75
X68.498Y-63.816
X68.706Y-51.003
X68.896Y-16.129
X69.167Y-50.538
X69.248Y-13.368
X69.574Y-59.327
X69.669Y-12.449
X69.73Y-69.808
X71.176Y-32.298
X71.375Y-29.118
X72.026Y-30.023
X72.313Y-44.887
X72.536Y-32.27
X72.611Y-45.48
X72.662Y-30.211
X72.668Y-48.481
X72.864Y-71.794
X73.189Y-44.365
X73.48Y-70.004
X73.929Y-43.799
X74.438Y-42.445
X74.46Y-48.496
X75.446Y-46.11
X75.596Y-48.784
X76.25Y-69.815
X76.267Y-44.956
X76.541Y-48.578
X76.974Y-32.525
X77.192Y-45.899
X77.242Y-27.878
X77.986Y-18.1
X78.246Y-21.738
X78.681Y-32.405
X78.725Y-69.907
X78.75Y-44.699
X78.824Y-71.969
X78.861Y-29.552
X79.165Y-46.081
X79.369Y-42.01
X79.526Y-70.593
X79.696Y-29.226
X80.069Y-24.555
X80.269Y-11.919
X80.301Y-13.019
X80.321Y-48.598
X80.397Y-69.831
X80.404Y-59.75
X81.154Y-48.493
X81.411Y-41.405
X81.733Y-45.51
X81.742Y-46.189
X82.274Y-44.586
X82.407Y-34.513
X82.511Y-49.426
X82.61Y-48.537
X82.858Y-76.972
X83.008Y-46.184
X83.786Y-26.826
X83.84Y-50.218
X84.283Y-51.68
X84.606Y-31.556
X84.671Y-30.344
X84.76Y-65.57
X84.912Y-52.309
X85.103Y-53.01
X85.129Y-25.038
X85.277Y-66.501
X85.46Y-65.47
X85.549Y-53.456
X85.605Y-64.761
X85.682Y-54.098
X85.731Y-55.039
X85.998Y-64.25
X86.127Y-54.544
X86.358Y-56.75
X86.358Y-62.25
X86.358Y-63.25
X86.573Y-55.499
X87.443Y-11.839
X88.606Y-30.925
X88.642Y-24.711
X88.879Y-26.107
X89.447Y-30.099
X89.564Y-28.956
X90.134Y-27.029
X90.323Y-29.807
X91.778Y-30.33
X92.357Y-11.825
X92.905Y-62.749
X95.421Y-25.825
X95.735Y-29.529
X96.577Y-27.549
X97.825Y-73.816
X97.831Y-67.868
X98.867Y-68.731
X98.894Y-73.801
X99.388Y-83.259
X99.517Y-70.648
X99.632Y-12.115
X99.994Y-68.988
X100.078Y-73.909
X100.477Y-68.37
X100.856Y-79.501
X100.958Y-67.923
X101.11Y-82.969
X101.5Y-79.839
X101.983Y-39.878
X102.632Y-83.498
X102.739Y-84.51
X102.897Y-67.927
X104.416Y-70.193
X104.483Y-75.562
X104.779Y-83.614
X105.028Y-74.62
X105.724Y-83.083
X106.078Y-79.953
X106.335Y-68.257
X107.045Y-84.485
X107.82Y-73.611
X108.477Y-56.529
X108.946Y-55.712
X115.725Y-83.605
X116.179Y-82.847
X119.896Y-80.164
X121.289Y-79.664
X124.445Y-70.873
X125.846Y-60.923
T2
X10.453Y-36.253
X14.299Y-54.362
X14.936Y-19.002
X24.038Y-43.233
X27.354Y-34.809
X29.429Y-18.252
X31.424Y-51.888
X34.059Y-36.513
X36.258Y-17.91
X37.35Y-57.093
X37.938Y-17.332
X48.752Y-72.858
X52.246Y-33.773
X53.667Y-18.042
X54.644Y-50.689
X58.018Y-60.205
X67.891Y-74.807
X68.839Y-65.873
X73.857Y-67.401
X81.584Y-20.716
X83.805Y-33.017
X87.052Y-36.385
X91.361Y-23.171
X93.909Y-38.493
X93.915Y-22.448
X98.587Y-59.225
X107.634Y-80.469
X109.929Y-72.438
X111.827Y-69.569
X111.855Y-81.059
T3
X40.5Y-85.73
X40.5Y-87.0
X41.77Y-85.73
X41.77Y-87.0
X43.04Y-85.73
X43.04Y-87.0
X44.31Y-85.73
X44.31Y-87.0
X45.58Y-85.73
X45.58Y-87.0
X46.85Y-85.73
X46.85Y-87.0
X48.12Y-85.73
X48.12Y-87.0
X49.39Y-85.73
X49.39Y-87.0
X50.66Y-85.73
X50.66Y-87.0
X51.93Y-85.73
X51.93Y-87.0
X53.2Y-85.73
X53.2Y-87.0
X54.47Y-85.73
X54.47Y-87.0
X55.74Y-85.73
X55.74Y-87.0
X57.01Y-85.73
X57.01Y-87.0
X58.28Y-85.73
X58.28Y-87.0
X59.55Y-85.73
X59.55Y-87.0
X60.82Y-85.73
X60.82Y-87.0
X62.09Y-85.73
X62.09Y-87.0
X63.36Y-85.73
X63.36Y-87.0
X64.63Y-85.73
X64.63Y-87.0
X65.9Y-85.73
X65.9Y-87.0
T4
X14.18Y-86.5
X16.72Y-86.5
X19.26Y-86.5
X21.8Y-86.5
X24.34Y-86.5
X26.88Y-86.5
X29.42Y-86.5
X31.96Y-86.5
X34.5Y-86.5
X111.5Y-30.5
X111.5Y-33.04
X111.5Y-35.58
X111.5Y-38.12
X111.5Y-40.66
X111.5Y-43.2
X111.5Y-45.74
X111.5Y-48.28
X111.5Y-50.82
T5
X76.0Y-85.5
X78.54Y-85.5
X81.08Y-85.5
X83.62Y-85.5
X86.16Y-85.5
T6
X26.9Y-5.46
X26.9Y-8.0
X26.9Y-10.54
X29.44Y-5.46
X29.44Y-8.0
X29.44Y-10.54
X31.98Y-5.46
X31.98Y-8.0
X31.98Y-10.54
X34.52Y-5.46
X34.52Y-8.0
X34.52Y-10.54
X37.06Y-5.46
X37.06Y-8.0
X37.06Y-10.54
X39.6Y-5.46
X39.6Y-8.0
X39.6Y-10.54
X42.14Y-5.46
X42.14Y-8.0
X42.14Y-10.54
X44.68Y-5.46
X44.68Y-8.0
X44.68Y-10.54
X47.22Y-5.46
X47.22Y-8.0
X47.22Y-10.54
X49.76Y-5.46
X49.76Y-8.0
X49.76Y-10.54
X52.3Y-5.46
X52.3Y-8.0
X52.3Y-10.54
X54.84Y-5.46
X54.84Y-8.0
X54.84Y-10.54
X57.38Y-5.46
X57.38Y-8.0
X57.38Y-10.54
X59.92Y-5.46
X59.92Y-8.0
X59.92Y-10.54
X62.46Y-5.46
X62.46Y-8.0
X62.46Y-10.54
X65.0Y-5.46
X65.0Y-8.0
X65.0Y-10.54
X67.54Y-5.46
X67.54Y-8.0
X67.54Y-10.54
X70.08Y-5.46
X70.08Y-8.0
X70.08Y-10.54
X72.62Y-5.46
X72.62Y-8.0
X72.62Y-10.54
X75.16Y-5.46
X75.16Y-8.0
X75.16Y-10.54
X77.7Y-5.46
X77.7Y-8.0
X77.7Y-10.54
X80.24Y-5.46
X80.24Y-8.0
X80.24Y-10.54
X82.78Y-5.46
X82.78Y-8.0
X82.78Y-10.54
X85.32Y-5.46
X85.32Y-8.0
X85.32Y-10.54
X87.86Y-5.46
X87.86Y-8.0
X87.86Y-10.54
X90.4Y-5.46
X90.4Y-8.0
X90.4Y-10.54
X92.94Y-5.46
X92.94Y-8.0
X92.94Y-10.54
X95.48Y-5.46
X95.48Y-8.0
X95.48Y-10.54
X98.02Y-5.46
X98.02Y-8.0
X98.02Y-10.54
X100.56Y-5.46
X100.56Y-8.0
X100.56Y-10.54
X103.1Y-5.46
X103.1Y-8.0
X103.1Y-10.54
X105.64Y-5.46
X105.64Y-8.0
X105.64Y-10.54
T7
X123.54Y-30.81
X123.54Y-33.35
X123.54Y-35.89
X123.54Y-38.43
X123.54Y-40.97
X123.54Y-43.51
X123.54Y-46.05
X123.54Y-48.59
X123.54Y-51.13
X123.54Y-53.67
X123.54Y-56.21
X123.54Y-58.75
X123.54Y-61.29
X123.54Y-63.83
X123.54Y-66.37
X128.4Y-30.81
X128.4Y-33.35
X128.4Y-35.89
X128.4Y-38.43
X128.4Y-40.97
X128.4Y-43.51
X128.4Y-46.05
X128.4Y-48.59
X128.4Y-51.13
X128.4Y-53.67
X128.4Y-56.21
X128.4Y-58.75
X128.4Y-61.29
X128.4Y-63.83
X128.4Y-66.36
T0
M30
