G04 #@! TF.GenerationSoftware,KiCad,Pcbnew,(5.1.4)-1*
G04 #@! TF.CreationDate,2020-02-21T22:14:24+01:00*
G04 #@! TF.ProjectId,Project_GP8B,50726f6a-6563-4745-9f47-5038422e6b69,V4*
G04 #@! TF.SameCoordinates,PX3a2c940PY1e0a6e0*
G04 #@! TF.FileFunction,Legend,Bot*
G04 #@! TF.FilePolarity,Positive*
%FSLAX46Y46*%
G04 Gerber Fmt 4.6, Leading zero omitted, Abs format (unit mm)*
G04 Created by KiCad (PCBNEW (5.1.4)-1) date 2020-02-21 22:14:24*
%MOMM*%
%LPD*%
G04 APERTURE LIST*
%ADD10C,0.500000*%
%ADD11C,0.120000*%
%ADD12C,0.150000*%
G04 APERTURE END LIST*
D10*
X14166666Y-81107142D02*
X13880952Y-81202380D01*
X13785714Y-81297619D01*
X13690476Y-81488095D01*
X13690476Y-81773809D01*
X13785714Y-81964285D01*
X13880952Y-82059523D01*
X14071428Y-82154761D01*
X14833333Y-82154761D01*
X14833333Y-80154761D01*
X14166666Y-80154761D01*
X13976190Y-80250000D01*
X13880952Y-80345238D01*
X13785714Y-80535714D01*
X13785714Y-80726190D01*
X13880952Y-80916666D01*
X13976190Y-81011904D01*
X14166666Y-81107142D01*
X14833333Y-81107142D01*
X12452380Y-80154761D02*
X12071428Y-80154761D01*
X11880952Y-80250000D01*
X11690476Y-80440476D01*
X11595238Y-80821428D01*
X11595238Y-81488095D01*
X11690476Y-81869047D01*
X11880952Y-82059523D01*
X12071428Y-82154761D01*
X12452380Y-82154761D01*
X12642857Y-82059523D01*
X12833333Y-81869047D01*
X12928571Y-81488095D01*
X12928571Y-80821428D01*
X12833333Y-80440476D01*
X12642857Y-80250000D01*
X12452380Y-80154761D01*
X11023809Y-80154761D02*
X9880952Y-80154761D01*
X10452380Y-82154761D02*
X10452380Y-80154761D01*
D11*
X75258578Y-34790000D02*
X74741422Y-34790000D01*
X75258578Y-36210000D02*
X74741422Y-36210000D01*
X87258578Y-34790000D02*
X86741422Y-34790000D01*
X87258578Y-36210000D02*
X86741422Y-36210000D01*
X99258578Y-36210000D02*
X98741422Y-36210000D01*
X99258578Y-34790000D02*
X98741422Y-34790000D01*
X20991422Y-37960000D02*
X21508578Y-37960000D01*
X20991422Y-36540000D02*
X21508578Y-36540000D01*
X34008578Y-49790000D02*
X33491422Y-49790000D01*
X34008578Y-51210000D02*
X33491422Y-51210000D01*
X45508578Y-51210000D02*
X44991422Y-51210000D01*
X45508578Y-49790000D02*
X44991422Y-49790000D01*
X34008578Y-33540000D02*
X33491422Y-33540000D01*
X34008578Y-34960000D02*
X33491422Y-34960000D01*
X45508578Y-34960000D02*
X44991422Y-34960000D01*
X45508578Y-33540000D02*
X44991422Y-33540000D01*
X56758578Y-32290000D02*
X56241422Y-32290000D01*
X56758578Y-33710000D02*
X56241422Y-33710000D01*
X22960000Y-41741422D02*
X22960000Y-42258578D01*
X21540000Y-41741422D02*
X21540000Y-42258578D01*
X56758578Y-50210000D02*
X56241422Y-50210000D01*
X56758578Y-48790000D02*
X56241422Y-48790000D01*
X55491422Y-60710000D02*
X56008578Y-60710000D01*
X55491422Y-59290000D02*
X56008578Y-59290000D01*
X47758578Y-73540000D02*
X47241422Y-73540000D01*
X47758578Y-74960000D02*
X47241422Y-74960000D01*
X27508578Y-74960000D02*
X26991422Y-74960000D01*
X27508578Y-73540000D02*
X26991422Y-73540000D01*
X101460000Y-14241422D02*
X101460000Y-14758578D01*
X100040000Y-14241422D02*
X100040000Y-14758578D01*
X102290000Y-14241422D02*
X102290000Y-14758578D01*
X103710000Y-14241422D02*
X103710000Y-14758578D01*
X108040000Y-71758578D02*
X108040000Y-71241422D01*
X109460000Y-71758578D02*
X109460000Y-71241422D01*
X129210000Y-27258578D02*
X129210000Y-26741422D01*
X127790000Y-27258578D02*
X127790000Y-26741422D01*
X122790000Y-27258578D02*
X122790000Y-26741422D01*
X124210000Y-27258578D02*
X124210000Y-26741422D01*
X63991422Y-30460000D02*
X64508578Y-30460000D01*
X63991422Y-29040000D02*
X64508578Y-29040000D01*
X81040000Y-38008578D02*
X81040000Y-37491422D01*
X82460000Y-38008578D02*
X82460000Y-37491422D01*
X94258578Y-36790000D02*
X93741422Y-36790000D01*
X94258578Y-38210000D02*
X93741422Y-38210000D01*
X71500000Y-25315000D02*
X73450000Y-25315000D01*
X71500000Y-25315000D02*
X69550000Y-25315000D01*
X71500000Y-34185000D02*
X73450000Y-34185000D01*
X71500000Y-34185000D02*
X68050000Y-34185000D01*
X83500000Y-34185000D02*
X80050000Y-34185000D01*
X83500000Y-34185000D02*
X85450000Y-34185000D01*
X83500000Y-25315000D02*
X81550000Y-25315000D01*
X83500000Y-25315000D02*
X85450000Y-25315000D01*
X93890000Y-20900000D02*
X93890000Y-19100000D01*
X97110000Y-19100000D02*
X97110000Y-21550000D01*
X85110000Y-19100000D02*
X85110000Y-21550000D01*
X81890000Y-20900000D02*
X81890000Y-19100000D01*
X95500000Y-25315000D02*
X97450000Y-25315000D01*
X95500000Y-25315000D02*
X93550000Y-25315000D01*
X95500000Y-34185000D02*
X97450000Y-34185000D01*
X95500000Y-34185000D02*
X92050000Y-34185000D01*
X15750000Y-22990000D02*
X19610000Y-22990000D01*
X19610000Y-22990000D02*
X19610000Y-23225000D01*
X15750000Y-22990000D02*
X11890000Y-22990000D01*
X11890000Y-22990000D02*
X11890000Y-23225000D01*
X15750000Y-36010000D02*
X19610000Y-36010000D01*
X19610000Y-36010000D02*
X19610000Y-35775000D01*
X15750000Y-36010000D02*
X11890000Y-36010000D01*
X11890000Y-36010000D02*
X11890000Y-35775000D01*
X11890000Y-35775000D02*
X10075000Y-35775000D01*
X41750000Y-49310000D02*
X38300000Y-49310000D01*
X41750000Y-49310000D02*
X43700000Y-49310000D01*
X41750000Y-39190000D02*
X39800000Y-39190000D01*
X41750000Y-39190000D02*
X43700000Y-39190000D01*
X30250000Y-39190000D02*
X32200000Y-39190000D01*
X30250000Y-39190000D02*
X28300000Y-39190000D01*
X30250000Y-49310000D02*
X32200000Y-49310000D01*
X30250000Y-49310000D02*
X26800000Y-49310000D01*
X43110000Y-17100000D02*
X43110000Y-19550000D01*
X39890000Y-18900000D02*
X39890000Y-17100000D01*
X41750000Y-22940000D02*
X43700000Y-22940000D01*
X41750000Y-22940000D02*
X39800000Y-22940000D01*
X41750000Y-33060000D02*
X43700000Y-33060000D01*
X41750000Y-33060000D02*
X38300000Y-33060000D01*
X51390000Y-18900000D02*
X51390000Y-17100000D01*
X54610000Y-17100000D02*
X54610000Y-19550000D01*
X30250000Y-33060000D02*
X26800000Y-33060000D01*
X30250000Y-33060000D02*
X32200000Y-33060000D01*
X30250000Y-22940000D02*
X28300000Y-22940000D01*
X30250000Y-22940000D02*
X32200000Y-22940000D01*
X53000000Y-22815000D02*
X54950000Y-22815000D01*
X53000000Y-22815000D02*
X51050000Y-22815000D01*
X53000000Y-31685000D02*
X54950000Y-31685000D01*
X53000000Y-31685000D02*
X49550000Y-31685000D01*
X10940000Y-45500000D02*
X10940000Y-43550000D01*
X10940000Y-45500000D02*
X10940000Y-47450000D01*
X21060000Y-45500000D02*
X21060000Y-43550000D01*
X21060000Y-45500000D02*
X21060000Y-48950000D01*
X53000000Y-48185000D02*
X49550000Y-48185000D01*
X53000000Y-48185000D02*
X54950000Y-48185000D01*
X53000000Y-39315000D02*
X51050000Y-39315000D01*
X53000000Y-39315000D02*
X54950000Y-39315000D01*
D12*
X63025000Y-61225000D02*
X63025000Y-61500000D01*
X57475000Y-61225000D02*
X57475000Y-61580000D01*
X57475000Y-71775000D02*
X57475000Y-71420000D01*
X63025000Y-71775000D02*
X63025000Y-71420000D01*
X63025000Y-61225000D02*
X57475000Y-61225000D01*
X63025000Y-71775000D02*
X57475000Y-71775000D01*
X63025000Y-61500000D02*
X64550000Y-61500000D01*
D11*
X94490000Y-77000000D02*
X94490000Y-73140000D01*
X94490000Y-73140000D02*
X94725000Y-73140000D01*
X94490000Y-77000000D02*
X94490000Y-80860000D01*
X94490000Y-80860000D02*
X94725000Y-80860000D01*
X107510000Y-77000000D02*
X107510000Y-73140000D01*
X107510000Y-73140000D02*
X107275000Y-73140000D01*
X107510000Y-77000000D02*
X107510000Y-80860000D01*
X107510000Y-80860000D02*
X107275000Y-80860000D01*
X107275000Y-80860000D02*
X107275000Y-82675000D01*
X21750000Y-59990000D02*
X25610000Y-59990000D01*
X25610000Y-59990000D02*
X25610000Y-60225000D01*
X21750000Y-59990000D02*
X17890000Y-59990000D01*
X17890000Y-59990000D02*
X17890000Y-60225000D01*
X21750000Y-73010000D02*
X25610000Y-73010000D01*
X25610000Y-73010000D02*
X25610000Y-72775000D01*
X21750000Y-73010000D02*
X17890000Y-73010000D01*
X17890000Y-73010000D02*
X17890000Y-72775000D01*
X17890000Y-72775000D02*
X16075000Y-72775000D01*
X38140000Y-72775000D02*
X36325000Y-72775000D01*
X38140000Y-73010000D02*
X38140000Y-72775000D01*
X42000000Y-73010000D02*
X38140000Y-73010000D01*
X45860000Y-73010000D02*
X45860000Y-72775000D01*
X42000000Y-73010000D02*
X45860000Y-73010000D01*
X38140000Y-59990000D02*
X38140000Y-60225000D01*
X42000000Y-59990000D02*
X38140000Y-59990000D01*
X45860000Y-59990000D02*
X45860000Y-60225000D01*
X42000000Y-59990000D02*
X45860000Y-59990000D01*
D12*
X75166666Y-37857142D02*
X75214285Y-37904761D01*
X75357142Y-37952380D01*
X75452380Y-37952380D01*
X75595238Y-37904761D01*
X75690476Y-37809523D01*
X75738095Y-37714285D01*
X75785714Y-37523809D01*
X75785714Y-37380952D01*
X75738095Y-37190476D01*
X75690476Y-37095238D01*
X75595238Y-37000000D01*
X75452380Y-36952380D01*
X75357142Y-36952380D01*
X75214285Y-37000000D01*
X75166666Y-37047619D01*
X74214285Y-37952380D02*
X74785714Y-37952380D01*
X74500000Y-37952380D02*
X74500000Y-36952380D01*
X74595238Y-37095238D01*
X74690476Y-37190476D01*
X74785714Y-37238095D01*
X87166666Y-37857142D02*
X87214285Y-37904761D01*
X87357142Y-37952380D01*
X87452380Y-37952380D01*
X87595238Y-37904761D01*
X87690476Y-37809523D01*
X87738095Y-37714285D01*
X87785714Y-37523809D01*
X87785714Y-37380952D01*
X87738095Y-37190476D01*
X87690476Y-37095238D01*
X87595238Y-37000000D01*
X87452380Y-36952380D01*
X87357142Y-36952380D01*
X87214285Y-37000000D01*
X87166666Y-37047619D01*
X86785714Y-37047619D02*
X86738095Y-37000000D01*
X86642857Y-36952380D01*
X86404761Y-36952380D01*
X86309523Y-37000000D01*
X86261904Y-37047619D01*
X86214285Y-37142857D01*
X86214285Y-37238095D01*
X86261904Y-37380952D01*
X86833333Y-37952380D01*
X86214285Y-37952380D01*
X99166666Y-37857142D02*
X99214285Y-37904761D01*
X99357142Y-37952380D01*
X99452380Y-37952380D01*
X99595238Y-37904761D01*
X99690476Y-37809523D01*
X99738095Y-37714285D01*
X99785714Y-37523809D01*
X99785714Y-37380952D01*
X99738095Y-37190476D01*
X99690476Y-37095238D01*
X99595238Y-37000000D01*
X99452380Y-36952380D01*
X99357142Y-36952380D01*
X99214285Y-37000000D01*
X99166666Y-37047619D01*
X98833333Y-36952380D02*
X98214285Y-36952380D01*
X98547619Y-37333333D01*
X98404761Y-37333333D01*
X98309523Y-37380952D01*
X98261904Y-37428571D01*
X98214285Y-37523809D01*
X98214285Y-37761904D01*
X98261904Y-37857142D01*
X98309523Y-37904761D01*
X98404761Y-37952380D01*
X98690476Y-37952380D01*
X98785714Y-37904761D01*
X98833333Y-37857142D01*
X21416666Y-39257142D02*
X21464285Y-39304761D01*
X21607142Y-39352380D01*
X21702380Y-39352380D01*
X21845238Y-39304761D01*
X21940476Y-39209523D01*
X21988095Y-39114285D01*
X22035714Y-38923809D01*
X22035714Y-38780952D01*
X21988095Y-38590476D01*
X21940476Y-38495238D01*
X21845238Y-38400000D01*
X21702380Y-38352380D01*
X21607142Y-38352380D01*
X21464285Y-38400000D01*
X21416666Y-38447619D01*
X20559523Y-38685714D02*
X20559523Y-39352380D01*
X20797619Y-38304761D02*
X21035714Y-39019047D01*
X20416666Y-39019047D01*
X33916666Y-52857142D02*
X33964285Y-52904761D01*
X34107142Y-52952380D01*
X34202380Y-52952380D01*
X34345238Y-52904761D01*
X34440476Y-52809523D01*
X34488095Y-52714285D01*
X34535714Y-52523809D01*
X34535714Y-52380952D01*
X34488095Y-52190476D01*
X34440476Y-52095238D01*
X34345238Y-52000000D01*
X34202380Y-51952380D01*
X34107142Y-51952380D01*
X33964285Y-52000000D01*
X33916666Y-52047619D01*
X33011904Y-51952380D02*
X33488095Y-51952380D01*
X33535714Y-52428571D01*
X33488095Y-52380952D01*
X33392857Y-52333333D01*
X33154761Y-52333333D01*
X33059523Y-52380952D01*
X33011904Y-52428571D01*
X32964285Y-52523809D01*
X32964285Y-52761904D01*
X33011904Y-52857142D01*
X33059523Y-52904761D01*
X33154761Y-52952380D01*
X33392857Y-52952380D01*
X33488095Y-52904761D01*
X33535714Y-52857142D01*
X45416666Y-52857142D02*
X45464285Y-52904761D01*
X45607142Y-52952380D01*
X45702380Y-52952380D01*
X45845238Y-52904761D01*
X45940476Y-52809523D01*
X45988095Y-52714285D01*
X46035714Y-52523809D01*
X46035714Y-52380952D01*
X45988095Y-52190476D01*
X45940476Y-52095238D01*
X45845238Y-52000000D01*
X45702380Y-51952380D01*
X45607142Y-51952380D01*
X45464285Y-52000000D01*
X45416666Y-52047619D01*
X44559523Y-51952380D02*
X44750000Y-51952380D01*
X44845238Y-52000000D01*
X44892857Y-52047619D01*
X44988095Y-52190476D01*
X45035714Y-52380952D01*
X45035714Y-52761904D01*
X44988095Y-52857142D01*
X44940476Y-52904761D01*
X44845238Y-52952380D01*
X44654761Y-52952380D01*
X44559523Y-52904761D01*
X44511904Y-52857142D01*
X44464285Y-52761904D01*
X44464285Y-52523809D01*
X44511904Y-52428571D01*
X44559523Y-52380952D01*
X44654761Y-52333333D01*
X44845238Y-52333333D01*
X44940476Y-52380952D01*
X44988095Y-52428571D01*
X45035714Y-52523809D01*
X33916666Y-36357142D02*
X33964285Y-36404761D01*
X34107142Y-36452380D01*
X34202380Y-36452380D01*
X34345238Y-36404761D01*
X34440476Y-36309523D01*
X34488095Y-36214285D01*
X34535714Y-36023809D01*
X34535714Y-35880952D01*
X34488095Y-35690476D01*
X34440476Y-35595238D01*
X34345238Y-35500000D01*
X34202380Y-35452380D01*
X34107142Y-35452380D01*
X33964285Y-35500000D01*
X33916666Y-35547619D01*
X33345238Y-35880952D02*
X33440476Y-35833333D01*
X33488095Y-35785714D01*
X33535714Y-35690476D01*
X33535714Y-35642857D01*
X33488095Y-35547619D01*
X33440476Y-35500000D01*
X33345238Y-35452380D01*
X33154761Y-35452380D01*
X33059523Y-35500000D01*
X33011904Y-35547619D01*
X32964285Y-35642857D01*
X32964285Y-35690476D01*
X33011904Y-35785714D01*
X33059523Y-35833333D01*
X33154761Y-35880952D01*
X33345238Y-35880952D01*
X33440476Y-35928571D01*
X33488095Y-35976190D01*
X33535714Y-36071428D01*
X33535714Y-36261904D01*
X33488095Y-36357142D01*
X33440476Y-36404761D01*
X33345238Y-36452380D01*
X33154761Y-36452380D01*
X33059523Y-36404761D01*
X33011904Y-36357142D01*
X32964285Y-36261904D01*
X32964285Y-36071428D01*
X33011904Y-35976190D01*
X33059523Y-35928571D01*
X33154761Y-35880952D01*
X45892857Y-36357142D02*
X45940476Y-36404761D01*
X46083333Y-36452380D01*
X46178571Y-36452380D01*
X46321428Y-36404761D01*
X46416666Y-36309523D01*
X46464285Y-36214285D01*
X46511904Y-36023809D01*
X46511904Y-35880952D01*
X46464285Y-35690476D01*
X46416666Y-35595238D01*
X46321428Y-35500000D01*
X46178571Y-35452380D01*
X46083333Y-35452380D01*
X45940476Y-35500000D01*
X45892857Y-35547619D01*
X44940476Y-36452380D02*
X45511904Y-36452380D01*
X45226190Y-36452380D02*
X45226190Y-35452380D01*
X45321428Y-35595238D01*
X45416666Y-35690476D01*
X45511904Y-35738095D01*
X44321428Y-35452380D02*
X44226190Y-35452380D01*
X44130952Y-35500000D01*
X44083333Y-35547619D01*
X44035714Y-35642857D01*
X43988095Y-35833333D01*
X43988095Y-36071428D01*
X44035714Y-36261904D01*
X44083333Y-36357142D01*
X44130952Y-36404761D01*
X44226190Y-36452380D01*
X44321428Y-36452380D01*
X44416666Y-36404761D01*
X44464285Y-36357142D01*
X44511904Y-36261904D01*
X44559523Y-36071428D01*
X44559523Y-35833333D01*
X44511904Y-35642857D01*
X44464285Y-35547619D01*
X44416666Y-35500000D01*
X44321428Y-35452380D01*
X57142857Y-35357142D02*
X57190476Y-35404761D01*
X57333333Y-35452380D01*
X57428571Y-35452380D01*
X57571428Y-35404761D01*
X57666666Y-35309523D01*
X57714285Y-35214285D01*
X57761904Y-35023809D01*
X57761904Y-34880952D01*
X57714285Y-34690476D01*
X57666666Y-34595238D01*
X57571428Y-34500000D01*
X57428571Y-34452380D01*
X57333333Y-34452380D01*
X57190476Y-34500000D01*
X57142857Y-34547619D01*
X56190476Y-35452380D02*
X56761904Y-35452380D01*
X56476190Y-35452380D02*
X56476190Y-34452380D01*
X56571428Y-34595238D01*
X56666666Y-34690476D01*
X56761904Y-34738095D01*
X55238095Y-35452380D02*
X55809523Y-35452380D01*
X55523809Y-35452380D02*
X55523809Y-34452380D01*
X55619047Y-34595238D01*
X55714285Y-34690476D01*
X55809523Y-34738095D01*
X24357142Y-41357142D02*
X24404761Y-41309523D01*
X24452380Y-41166666D01*
X24452380Y-41071428D01*
X24404761Y-40928571D01*
X24309523Y-40833333D01*
X24214285Y-40785714D01*
X24023809Y-40738095D01*
X23880952Y-40738095D01*
X23690476Y-40785714D01*
X23595238Y-40833333D01*
X23500000Y-40928571D01*
X23452380Y-41071428D01*
X23452380Y-41166666D01*
X23500000Y-41309523D01*
X23547619Y-41357142D01*
X24452380Y-42309523D02*
X24452380Y-41738095D01*
X24452380Y-42023809D02*
X23452380Y-42023809D01*
X23595238Y-41928571D01*
X23690476Y-41833333D01*
X23738095Y-41738095D01*
X23547619Y-42690476D02*
X23500000Y-42738095D01*
X23452380Y-42833333D01*
X23452380Y-43071428D01*
X23500000Y-43166666D01*
X23547619Y-43214285D01*
X23642857Y-43261904D01*
X23738095Y-43261904D01*
X23880952Y-43214285D01*
X24452380Y-42642857D01*
X24452380Y-43261904D01*
X57142857Y-51857142D02*
X57190476Y-51904761D01*
X57333333Y-51952380D01*
X57428571Y-51952380D01*
X57571428Y-51904761D01*
X57666666Y-51809523D01*
X57714285Y-51714285D01*
X57761904Y-51523809D01*
X57761904Y-51380952D01*
X57714285Y-51190476D01*
X57666666Y-51095238D01*
X57571428Y-51000000D01*
X57428571Y-50952380D01*
X57333333Y-50952380D01*
X57190476Y-51000000D01*
X57142857Y-51047619D01*
X56190476Y-51952380D02*
X56761904Y-51952380D01*
X56476190Y-51952380D02*
X56476190Y-50952380D01*
X56571428Y-51095238D01*
X56666666Y-51190476D01*
X56761904Y-51238095D01*
X55857142Y-50952380D02*
X55238095Y-50952380D01*
X55571428Y-51333333D01*
X55428571Y-51333333D01*
X55333333Y-51380952D01*
X55285714Y-51428571D01*
X55238095Y-51523809D01*
X55238095Y-51761904D01*
X55285714Y-51857142D01*
X55333333Y-51904761D01*
X55428571Y-51952380D01*
X55714285Y-51952380D01*
X55809523Y-51904761D01*
X55857142Y-51857142D01*
X56392857Y-58357142D02*
X56440476Y-58404761D01*
X56583333Y-58452380D01*
X56678571Y-58452380D01*
X56821428Y-58404761D01*
X56916666Y-58309523D01*
X56964285Y-58214285D01*
X57011904Y-58023809D01*
X57011904Y-57880952D01*
X56964285Y-57690476D01*
X56916666Y-57595238D01*
X56821428Y-57500000D01*
X56678571Y-57452380D01*
X56583333Y-57452380D01*
X56440476Y-57500000D01*
X56392857Y-57547619D01*
X55440476Y-58452380D02*
X56011904Y-58452380D01*
X55726190Y-58452380D02*
X55726190Y-57452380D01*
X55821428Y-57595238D01*
X55916666Y-57690476D01*
X56011904Y-57738095D01*
X54583333Y-57785714D02*
X54583333Y-58452380D01*
X54821428Y-57404761D02*
X55059523Y-58119047D01*
X54440476Y-58119047D01*
X48142857Y-76357142D02*
X48190476Y-76404761D01*
X48333333Y-76452380D01*
X48428571Y-76452380D01*
X48571428Y-76404761D01*
X48666666Y-76309523D01*
X48714285Y-76214285D01*
X48761904Y-76023809D01*
X48761904Y-75880952D01*
X48714285Y-75690476D01*
X48666666Y-75595238D01*
X48571428Y-75500000D01*
X48428571Y-75452380D01*
X48333333Y-75452380D01*
X48190476Y-75500000D01*
X48142857Y-75547619D01*
X47190476Y-76452380D02*
X47761904Y-76452380D01*
X47476190Y-76452380D02*
X47476190Y-75452380D01*
X47571428Y-75595238D01*
X47666666Y-75690476D01*
X47761904Y-75738095D01*
X46333333Y-75452380D02*
X46523809Y-75452380D01*
X46619047Y-75500000D01*
X46666666Y-75547619D01*
X46761904Y-75690476D01*
X46809523Y-75880952D01*
X46809523Y-76261904D01*
X46761904Y-76357142D01*
X46714285Y-76404761D01*
X46619047Y-76452380D01*
X46428571Y-76452380D01*
X46333333Y-76404761D01*
X46285714Y-76357142D01*
X46238095Y-76261904D01*
X46238095Y-76023809D01*
X46285714Y-75928571D01*
X46333333Y-75880952D01*
X46428571Y-75833333D01*
X46619047Y-75833333D01*
X46714285Y-75880952D01*
X46761904Y-75928571D01*
X46809523Y-76023809D01*
X27892857Y-76357142D02*
X27940476Y-76404761D01*
X28083333Y-76452380D01*
X28178571Y-76452380D01*
X28321428Y-76404761D01*
X28416666Y-76309523D01*
X28464285Y-76214285D01*
X28511904Y-76023809D01*
X28511904Y-75880952D01*
X28464285Y-75690476D01*
X28416666Y-75595238D01*
X28321428Y-75500000D01*
X28178571Y-75452380D01*
X28083333Y-75452380D01*
X27940476Y-75500000D01*
X27892857Y-75547619D01*
X26940476Y-76452380D02*
X27511904Y-76452380D01*
X27226190Y-76452380D02*
X27226190Y-75452380D01*
X27321428Y-75595238D01*
X27416666Y-75690476D01*
X27511904Y-75738095D01*
X26607142Y-75452380D02*
X25940476Y-75452380D01*
X26369047Y-76452380D01*
X99457142Y-13857142D02*
X99504761Y-13809523D01*
X99552380Y-13666666D01*
X99552380Y-13571428D01*
X99504761Y-13428571D01*
X99409523Y-13333333D01*
X99314285Y-13285714D01*
X99123809Y-13238095D01*
X98980952Y-13238095D01*
X98790476Y-13285714D01*
X98695238Y-13333333D01*
X98600000Y-13428571D01*
X98552380Y-13571428D01*
X98552380Y-13666666D01*
X98600000Y-13809523D01*
X98647619Y-13857142D01*
X98552380Y-14190476D02*
X98552380Y-14809523D01*
X98933333Y-14476190D01*
X98933333Y-14619047D01*
X98980952Y-14714285D01*
X99028571Y-14761904D01*
X99123809Y-14809523D01*
X99361904Y-14809523D01*
X99457142Y-14761904D01*
X99504761Y-14714285D01*
X99552380Y-14619047D01*
X99552380Y-14333333D01*
X99504761Y-14238095D01*
X99457142Y-14190476D01*
X98552380Y-15428571D02*
X98552380Y-15523809D01*
X98600000Y-15619047D01*
X98647619Y-15666666D01*
X98742857Y-15714285D01*
X98933333Y-15761904D01*
X99171428Y-15761904D01*
X99361904Y-15714285D01*
X99457142Y-15666666D01*
X99504761Y-15619047D01*
X99552380Y-15523809D01*
X99552380Y-15428571D01*
X99504761Y-15333333D01*
X99457142Y-15285714D01*
X99361904Y-15238095D01*
X99171428Y-15190476D01*
X98933333Y-15190476D01*
X98742857Y-15238095D01*
X98647619Y-15285714D01*
X98600000Y-15333333D01*
X98552380Y-15428571D01*
X105357142Y-13857142D02*
X105404761Y-13809523D01*
X105452380Y-13666666D01*
X105452380Y-13571428D01*
X105404761Y-13428571D01*
X105309523Y-13333333D01*
X105214285Y-13285714D01*
X105023809Y-13238095D01*
X104880952Y-13238095D01*
X104690476Y-13285714D01*
X104595238Y-13333333D01*
X104500000Y-13428571D01*
X104452380Y-13571428D01*
X104452380Y-13666666D01*
X104500000Y-13809523D01*
X104547619Y-13857142D01*
X104452380Y-14190476D02*
X104452380Y-14809523D01*
X104833333Y-14476190D01*
X104833333Y-14619047D01*
X104880952Y-14714285D01*
X104928571Y-14761904D01*
X105023809Y-14809523D01*
X105261904Y-14809523D01*
X105357142Y-14761904D01*
X105404761Y-14714285D01*
X105452380Y-14619047D01*
X105452380Y-14333333D01*
X105404761Y-14238095D01*
X105357142Y-14190476D01*
X105452380Y-15761904D02*
X105452380Y-15190476D01*
X105452380Y-15476190D02*
X104452380Y-15476190D01*
X104595238Y-15380952D01*
X104690476Y-15285714D01*
X104738095Y-15190476D01*
X110757142Y-70857142D02*
X110804761Y-70809523D01*
X110852380Y-70666666D01*
X110852380Y-70571428D01*
X110804761Y-70428571D01*
X110709523Y-70333333D01*
X110614285Y-70285714D01*
X110423809Y-70238095D01*
X110280952Y-70238095D01*
X110090476Y-70285714D01*
X109995238Y-70333333D01*
X109900000Y-70428571D01*
X109852380Y-70571428D01*
X109852380Y-70666666D01*
X109900000Y-70809523D01*
X109947619Y-70857142D01*
X109852380Y-71190476D02*
X109852380Y-71809523D01*
X110233333Y-71476190D01*
X110233333Y-71619047D01*
X110280952Y-71714285D01*
X110328571Y-71761904D01*
X110423809Y-71809523D01*
X110661904Y-71809523D01*
X110757142Y-71761904D01*
X110804761Y-71714285D01*
X110852380Y-71619047D01*
X110852380Y-71333333D01*
X110804761Y-71238095D01*
X110757142Y-71190476D01*
X109852380Y-72714285D02*
X109852380Y-72238095D01*
X110328571Y-72190476D01*
X110280952Y-72238095D01*
X110233333Y-72333333D01*
X110233333Y-72571428D01*
X110280952Y-72666666D01*
X110328571Y-72714285D01*
X110423809Y-72761904D01*
X110661904Y-72761904D01*
X110757142Y-72714285D01*
X110804761Y-72666666D01*
X110852380Y-72571428D01*
X110852380Y-72333333D01*
X110804761Y-72238095D01*
X110757142Y-72190476D01*
X130507142Y-26357142D02*
X130554761Y-26309523D01*
X130602380Y-26166666D01*
X130602380Y-26071428D01*
X130554761Y-25928571D01*
X130459523Y-25833333D01*
X130364285Y-25785714D01*
X130173809Y-25738095D01*
X130030952Y-25738095D01*
X129840476Y-25785714D01*
X129745238Y-25833333D01*
X129650000Y-25928571D01*
X129602380Y-26071428D01*
X129602380Y-26166666D01*
X129650000Y-26309523D01*
X129697619Y-26357142D01*
X129602380Y-26690476D02*
X129602380Y-27309523D01*
X129983333Y-26976190D01*
X129983333Y-27119047D01*
X130030952Y-27214285D01*
X130078571Y-27261904D01*
X130173809Y-27309523D01*
X130411904Y-27309523D01*
X130507142Y-27261904D01*
X130554761Y-27214285D01*
X130602380Y-27119047D01*
X130602380Y-26833333D01*
X130554761Y-26738095D01*
X130507142Y-26690476D01*
X129602380Y-28166666D02*
X129602380Y-27976190D01*
X129650000Y-27880952D01*
X129697619Y-27833333D01*
X129840476Y-27738095D01*
X130030952Y-27690476D01*
X130411904Y-27690476D01*
X130507142Y-27738095D01*
X130554761Y-27785714D01*
X130602380Y-27880952D01*
X130602380Y-28071428D01*
X130554761Y-28166666D01*
X130507142Y-28214285D01*
X130411904Y-28261904D01*
X130173809Y-28261904D01*
X130078571Y-28214285D01*
X130030952Y-28166666D01*
X129983333Y-28071428D01*
X129983333Y-27880952D01*
X130030952Y-27785714D01*
X130078571Y-27738095D01*
X130173809Y-27690476D01*
X125507142Y-26357142D02*
X125554761Y-26309523D01*
X125602380Y-26166666D01*
X125602380Y-26071428D01*
X125554761Y-25928571D01*
X125459523Y-25833333D01*
X125364285Y-25785714D01*
X125173809Y-25738095D01*
X125030952Y-25738095D01*
X124840476Y-25785714D01*
X124745238Y-25833333D01*
X124650000Y-25928571D01*
X124602380Y-26071428D01*
X124602380Y-26166666D01*
X124650000Y-26309523D01*
X124697619Y-26357142D01*
X124602380Y-26690476D02*
X124602380Y-27309523D01*
X124983333Y-26976190D01*
X124983333Y-27119047D01*
X125030952Y-27214285D01*
X125078571Y-27261904D01*
X125173809Y-27309523D01*
X125411904Y-27309523D01*
X125507142Y-27261904D01*
X125554761Y-27214285D01*
X125602380Y-27119047D01*
X125602380Y-26833333D01*
X125554761Y-26738095D01*
X125507142Y-26690476D01*
X125030952Y-27880952D02*
X124983333Y-27785714D01*
X124935714Y-27738095D01*
X124840476Y-27690476D01*
X124792857Y-27690476D01*
X124697619Y-27738095D01*
X124650000Y-27785714D01*
X124602380Y-27880952D01*
X124602380Y-28071428D01*
X124650000Y-28166666D01*
X124697619Y-28214285D01*
X124792857Y-28261904D01*
X124840476Y-28261904D01*
X124935714Y-28214285D01*
X124983333Y-28166666D01*
X125030952Y-28071428D01*
X125030952Y-27880952D01*
X125078571Y-27785714D01*
X125126190Y-27738095D01*
X125221428Y-27690476D01*
X125411904Y-27690476D01*
X125507142Y-27738095D01*
X125554761Y-27785714D01*
X125602380Y-27880952D01*
X125602380Y-28071428D01*
X125554761Y-28166666D01*
X125507142Y-28214285D01*
X125411904Y-28261904D01*
X125221428Y-28261904D01*
X125126190Y-28214285D01*
X125078571Y-28166666D01*
X125030952Y-28071428D01*
X64416666Y-31852380D02*
X64750000Y-31376190D01*
X64988095Y-31852380D02*
X64988095Y-30852380D01*
X64607142Y-30852380D01*
X64511904Y-30900000D01*
X64464285Y-30947619D01*
X64416666Y-31042857D01*
X64416666Y-31185714D01*
X64464285Y-31280952D01*
X64511904Y-31328571D01*
X64607142Y-31376190D01*
X64988095Y-31376190D01*
X63464285Y-31852380D02*
X64035714Y-31852380D01*
X63750000Y-31852380D02*
X63750000Y-30852380D01*
X63845238Y-30995238D01*
X63940476Y-31090476D01*
X64035714Y-31138095D01*
X83852380Y-37583333D02*
X83376190Y-37250000D01*
X83852380Y-37011904D02*
X82852380Y-37011904D01*
X82852380Y-37392857D01*
X82900000Y-37488095D01*
X82947619Y-37535714D01*
X83042857Y-37583333D01*
X83185714Y-37583333D01*
X83280952Y-37535714D01*
X83328571Y-37488095D01*
X83376190Y-37392857D01*
X83376190Y-37011904D01*
X82947619Y-37964285D02*
X82900000Y-38011904D01*
X82852380Y-38107142D01*
X82852380Y-38345238D01*
X82900000Y-38440476D01*
X82947619Y-38488095D01*
X83042857Y-38535714D01*
X83138095Y-38535714D01*
X83280952Y-38488095D01*
X83852380Y-37916666D01*
X83852380Y-38535714D01*
X94166666Y-39952380D02*
X94500000Y-39476190D01*
X94738095Y-39952380D02*
X94738095Y-38952380D01*
X94357142Y-38952380D01*
X94261904Y-39000000D01*
X94214285Y-39047619D01*
X94166666Y-39142857D01*
X94166666Y-39285714D01*
X94214285Y-39380952D01*
X94261904Y-39428571D01*
X94357142Y-39476190D01*
X94738095Y-39476190D01*
X93833333Y-38952380D02*
X93214285Y-38952380D01*
X93547619Y-39333333D01*
X93404761Y-39333333D01*
X93309523Y-39380952D01*
X93261904Y-39428571D01*
X93214285Y-39523809D01*
X93214285Y-39761904D01*
X93261904Y-39857142D01*
X93309523Y-39904761D01*
X93404761Y-39952380D01*
X93690476Y-39952380D01*
X93785714Y-39904761D01*
X93833333Y-39857142D01*
X72261904Y-34482380D02*
X72261904Y-35291904D01*
X72214285Y-35387142D01*
X72166666Y-35434761D01*
X72071428Y-35482380D01*
X71880952Y-35482380D01*
X71785714Y-35434761D01*
X71738095Y-35387142D01*
X71690476Y-35291904D01*
X71690476Y-34482380D01*
X70690476Y-35482380D02*
X71261904Y-35482380D01*
X70976190Y-35482380D02*
X70976190Y-34482380D01*
X71071428Y-34625238D01*
X71166666Y-34720476D01*
X71261904Y-34768095D01*
X84261904Y-34482380D02*
X84261904Y-35291904D01*
X84214285Y-35387142D01*
X84166666Y-35434761D01*
X84071428Y-35482380D01*
X83880952Y-35482380D01*
X83785714Y-35434761D01*
X83738095Y-35387142D01*
X83690476Y-35291904D01*
X83690476Y-34482380D01*
X83261904Y-34577619D02*
X83214285Y-34530000D01*
X83119047Y-34482380D01*
X82880952Y-34482380D01*
X82785714Y-34530000D01*
X82738095Y-34577619D01*
X82690476Y-34672857D01*
X82690476Y-34768095D01*
X82738095Y-34910952D01*
X83309523Y-35482380D01*
X82690476Y-35482380D01*
X97852380Y-19238095D02*
X98661904Y-19238095D01*
X98757142Y-19285714D01*
X98804761Y-19333333D01*
X98852380Y-19428571D01*
X98852380Y-19619047D01*
X98804761Y-19714285D01*
X98757142Y-19761904D01*
X98661904Y-19809523D01*
X97852380Y-19809523D01*
X97852380Y-20190476D02*
X97852380Y-20809523D01*
X98233333Y-20476190D01*
X98233333Y-20619047D01*
X98280952Y-20714285D01*
X98328571Y-20761904D01*
X98423809Y-20809523D01*
X98661904Y-20809523D01*
X98757142Y-20761904D01*
X98804761Y-20714285D01*
X98852380Y-20619047D01*
X98852380Y-20333333D01*
X98804761Y-20238095D01*
X98757142Y-20190476D01*
X85852380Y-19238095D02*
X86661904Y-19238095D01*
X86757142Y-19285714D01*
X86804761Y-19333333D01*
X86852380Y-19428571D01*
X86852380Y-19619047D01*
X86804761Y-19714285D01*
X86757142Y-19761904D01*
X86661904Y-19809523D01*
X85852380Y-19809523D01*
X86185714Y-20714285D02*
X86852380Y-20714285D01*
X85804761Y-20476190D02*
X86519047Y-20238095D01*
X86519047Y-20857142D01*
X96261904Y-34482380D02*
X96261904Y-35291904D01*
X96214285Y-35387142D01*
X96166666Y-35434761D01*
X96071428Y-35482380D01*
X95880952Y-35482380D01*
X95785714Y-35434761D01*
X95738095Y-35387142D01*
X95690476Y-35291904D01*
X95690476Y-34482380D01*
X94738095Y-34482380D02*
X95214285Y-34482380D01*
X95261904Y-34958571D01*
X95214285Y-34910952D01*
X95119047Y-34863333D01*
X94880952Y-34863333D01*
X94785714Y-34910952D01*
X94738095Y-34958571D01*
X94690476Y-35053809D01*
X94690476Y-35291904D01*
X94738095Y-35387142D01*
X94785714Y-35434761D01*
X94880952Y-35482380D01*
X95119047Y-35482380D01*
X95214285Y-35434761D01*
X95261904Y-35387142D01*
X16511904Y-36302380D02*
X16511904Y-37111904D01*
X16464285Y-37207142D01*
X16416666Y-37254761D01*
X16321428Y-37302380D01*
X16130952Y-37302380D01*
X16035714Y-37254761D01*
X15988095Y-37207142D01*
X15940476Y-37111904D01*
X15940476Y-36302380D01*
X15559523Y-36302380D02*
X14892857Y-36302380D01*
X15321428Y-37302380D01*
X42511904Y-49602380D02*
X42511904Y-50411904D01*
X42464285Y-50507142D01*
X42416666Y-50554761D01*
X42321428Y-50602380D01*
X42130952Y-50602380D01*
X42035714Y-50554761D01*
X41988095Y-50507142D01*
X41940476Y-50411904D01*
X41940476Y-49602380D01*
X41321428Y-50030952D02*
X41416666Y-49983333D01*
X41464285Y-49935714D01*
X41511904Y-49840476D01*
X41511904Y-49792857D01*
X41464285Y-49697619D01*
X41416666Y-49650000D01*
X41321428Y-49602380D01*
X41130952Y-49602380D01*
X41035714Y-49650000D01*
X40988095Y-49697619D01*
X40940476Y-49792857D01*
X40940476Y-49840476D01*
X40988095Y-49935714D01*
X41035714Y-49983333D01*
X41130952Y-50030952D01*
X41321428Y-50030952D01*
X41416666Y-50078571D01*
X41464285Y-50126190D01*
X41511904Y-50221428D01*
X41511904Y-50411904D01*
X41464285Y-50507142D01*
X41416666Y-50554761D01*
X41321428Y-50602380D01*
X41130952Y-50602380D01*
X41035714Y-50554761D01*
X40988095Y-50507142D01*
X40940476Y-50411904D01*
X40940476Y-50221428D01*
X40988095Y-50126190D01*
X41035714Y-50078571D01*
X41130952Y-50030952D01*
X31011904Y-49602380D02*
X31011904Y-50411904D01*
X30964285Y-50507142D01*
X30916666Y-50554761D01*
X30821428Y-50602380D01*
X30630952Y-50602380D01*
X30535714Y-50554761D01*
X30488095Y-50507142D01*
X30440476Y-50411904D01*
X30440476Y-49602380D01*
X29916666Y-50602380D02*
X29726190Y-50602380D01*
X29630952Y-50554761D01*
X29583333Y-50507142D01*
X29488095Y-50364285D01*
X29440476Y-50173809D01*
X29440476Y-49792857D01*
X29488095Y-49697619D01*
X29535714Y-49650000D01*
X29630952Y-49602380D01*
X29821428Y-49602380D01*
X29916666Y-49650000D01*
X29964285Y-49697619D01*
X30011904Y-49792857D01*
X30011904Y-50030952D01*
X29964285Y-50126190D01*
X29916666Y-50173809D01*
X29821428Y-50221428D01*
X29630952Y-50221428D01*
X29535714Y-50173809D01*
X29488095Y-50126190D01*
X29440476Y-50030952D01*
X43852380Y-16761904D02*
X44661904Y-16761904D01*
X44757142Y-16809523D01*
X44804761Y-16857142D01*
X44852380Y-16952380D01*
X44852380Y-17142857D01*
X44804761Y-17238095D01*
X44757142Y-17285714D01*
X44661904Y-17333333D01*
X43852380Y-17333333D01*
X44852380Y-18333333D02*
X44852380Y-17761904D01*
X44852380Y-18047619D02*
X43852380Y-18047619D01*
X43995238Y-17952380D01*
X44090476Y-17857142D01*
X44138095Y-17761904D01*
X43852380Y-18952380D02*
X43852380Y-19047619D01*
X43900000Y-19142857D01*
X43947619Y-19190476D01*
X44042857Y-19238095D01*
X44233333Y-19285714D01*
X44471428Y-19285714D01*
X44661904Y-19238095D01*
X44757142Y-19190476D01*
X44804761Y-19142857D01*
X44852380Y-19047619D01*
X44852380Y-18952380D01*
X44804761Y-18857142D01*
X44757142Y-18809523D01*
X44661904Y-18761904D01*
X44471428Y-18714285D01*
X44233333Y-18714285D01*
X44042857Y-18761904D01*
X43947619Y-18809523D01*
X43900000Y-18857142D01*
X43852380Y-18952380D01*
X42988095Y-33352380D02*
X42988095Y-34161904D01*
X42940476Y-34257142D01*
X42892857Y-34304761D01*
X42797619Y-34352380D01*
X42607142Y-34352380D01*
X42511904Y-34304761D01*
X42464285Y-34257142D01*
X42416666Y-34161904D01*
X42416666Y-33352380D01*
X41416666Y-34352380D02*
X41988095Y-34352380D01*
X41702380Y-34352380D02*
X41702380Y-33352380D01*
X41797619Y-33495238D01*
X41892857Y-33590476D01*
X41988095Y-33638095D01*
X40464285Y-34352380D02*
X41035714Y-34352380D01*
X40750000Y-34352380D02*
X40750000Y-33352380D01*
X40845238Y-33495238D01*
X40940476Y-33590476D01*
X41035714Y-33638095D01*
X55352380Y-16761904D02*
X56161904Y-16761904D01*
X56257142Y-16809523D01*
X56304761Y-16857142D01*
X56352380Y-16952380D01*
X56352380Y-17142857D01*
X56304761Y-17238095D01*
X56257142Y-17285714D01*
X56161904Y-17333333D01*
X55352380Y-17333333D01*
X56352380Y-18333333D02*
X56352380Y-17761904D01*
X56352380Y-18047619D02*
X55352380Y-18047619D01*
X55495238Y-17952380D01*
X55590476Y-17857142D01*
X55638095Y-17761904D01*
X55447619Y-18714285D02*
X55400000Y-18761904D01*
X55352380Y-18857142D01*
X55352380Y-19095238D01*
X55400000Y-19190476D01*
X55447619Y-19238095D01*
X55542857Y-19285714D01*
X55638095Y-19285714D01*
X55780952Y-19238095D01*
X56352380Y-18666666D01*
X56352380Y-19285714D01*
X31488095Y-33352380D02*
X31488095Y-34161904D01*
X31440476Y-34257142D01*
X31392857Y-34304761D01*
X31297619Y-34352380D01*
X31107142Y-34352380D01*
X31011904Y-34304761D01*
X30964285Y-34257142D01*
X30916666Y-34161904D01*
X30916666Y-33352380D01*
X29916666Y-34352380D02*
X30488095Y-34352380D01*
X30202380Y-34352380D02*
X30202380Y-33352380D01*
X30297619Y-33495238D01*
X30392857Y-33590476D01*
X30488095Y-33638095D01*
X29583333Y-33352380D02*
X28964285Y-33352380D01*
X29297619Y-33733333D01*
X29154761Y-33733333D01*
X29059523Y-33780952D01*
X29011904Y-33828571D01*
X28964285Y-33923809D01*
X28964285Y-34161904D01*
X29011904Y-34257142D01*
X29059523Y-34304761D01*
X29154761Y-34352380D01*
X29440476Y-34352380D01*
X29535714Y-34304761D01*
X29583333Y-34257142D01*
X54238095Y-31982380D02*
X54238095Y-32791904D01*
X54190476Y-32887142D01*
X54142857Y-32934761D01*
X54047619Y-32982380D01*
X53857142Y-32982380D01*
X53761904Y-32934761D01*
X53714285Y-32887142D01*
X53666666Y-32791904D01*
X53666666Y-31982380D01*
X52666666Y-32982380D02*
X53238095Y-32982380D01*
X52952380Y-32982380D02*
X52952380Y-31982380D01*
X53047619Y-32125238D01*
X53142857Y-32220476D01*
X53238095Y-32268095D01*
X51809523Y-32315714D02*
X51809523Y-32982380D01*
X52047619Y-31934761D02*
X52285714Y-32649047D01*
X51666666Y-32649047D01*
X21352380Y-44261904D02*
X22161904Y-44261904D01*
X22257142Y-44309523D01*
X22304761Y-44357142D01*
X22352380Y-44452380D01*
X22352380Y-44642857D01*
X22304761Y-44738095D01*
X22257142Y-44785714D01*
X22161904Y-44833333D01*
X21352380Y-44833333D01*
X22352380Y-45833333D02*
X22352380Y-45261904D01*
X22352380Y-45547619D02*
X21352380Y-45547619D01*
X21495238Y-45452380D01*
X21590476Y-45357142D01*
X21638095Y-45261904D01*
X21352380Y-46738095D02*
X21352380Y-46261904D01*
X21828571Y-46214285D01*
X21780952Y-46261904D01*
X21733333Y-46357142D01*
X21733333Y-46595238D01*
X21780952Y-46690476D01*
X21828571Y-46738095D01*
X21923809Y-46785714D01*
X22161904Y-46785714D01*
X22257142Y-46738095D01*
X22304761Y-46690476D01*
X22352380Y-46595238D01*
X22352380Y-46357142D01*
X22304761Y-46261904D01*
X22257142Y-46214285D01*
X54238095Y-48482380D02*
X54238095Y-49291904D01*
X54190476Y-49387142D01*
X54142857Y-49434761D01*
X54047619Y-49482380D01*
X53857142Y-49482380D01*
X53761904Y-49434761D01*
X53714285Y-49387142D01*
X53666666Y-49291904D01*
X53666666Y-48482380D01*
X52666666Y-49482380D02*
X53238095Y-49482380D01*
X52952380Y-49482380D02*
X52952380Y-48482380D01*
X53047619Y-48625238D01*
X53142857Y-48720476D01*
X53238095Y-48768095D01*
X51809523Y-48482380D02*
X52000000Y-48482380D01*
X52095238Y-48530000D01*
X52142857Y-48577619D01*
X52238095Y-48720476D01*
X52285714Y-48910952D01*
X52285714Y-49291904D01*
X52238095Y-49387142D01*
X52190476Y-49434761D01*
X52095238Y-49482380D01*
X51904761Y-49482380D01*
X51809523Y-49434761D01*
X51761904Y-49387142D01*
X51714285Y-49291904D01*
X51714285Y-49053809D01*
X51761904Y-48958571D01*
X51809523Y-48910952D01*
X51904761Y-48863333D01*
X52095238Y-48863333D01*
X52190476Y-48910952D01*
X52238095Y-48958571D01*
X52285714Y-49053809D01*
X62738095Y-59752380D02*
X62738095Y-60561904D01*
X62690476Y-60657142D01*
X62642857Y-60704761D01*
X62547619Y-60752380D01*
X62357142Y-60752380D01*
X62261904Y-60704761D01*
X62214285Y-60657142D01*
X62166666Y-60561904D01*
X62166666Y-59752380D01*
X61166666Y-60752380D02*
X61738095Y-60752380D01*
X61452380Y-60752380D02*
X61452380Y-59752380D01*
X61547619Y-59895238D01*
X61642857Y-59990476D01*
X61738095Y-60038095D01*
X60833333Y-59752380D02*
X60166666Y-59752380D01*
X60595238Y-60752380D01*
X107802380Y-75761904D02*
X108611904Y-75761904D01*
X108707142Y-75809523D01*
X108754761Y-75857142D01*
X108802380Y-75952380D01*
X108802380Y-76142857D01*
X108754761Y-76238095D01*
X108707142Y-76285714D01*
X108611904Y-76333333D01*
X107802380Y-76333333D01*
X107802380Y-76714285D02*
X107802380Y-77333333D01*
X108183333Y-77000000D01*
X108183333Y-77142857D01*
X108230952Y-77238095D01*
X108278571Y-77285714D01*
X108373809Y-77333333D01*
X108611904Y-77333333D01*
X108707142Y-77285714D01*
X108754761Y-77238095D01*
X108802380Y-77142857D01*
X108802380Y-76857142D01*
X108754761Y-76761904D01*
X108707142Y-76714285D01*
X107802380Y-77666666D02*
X107802380Y-78333333D01*
X108802380Y-77904761D01*
X22988095Y-73302380D02*
X22988095Y-74111904D01*
X22940476Y-74207142D01*
X22892857Y-74254761D01*
X22797619Y-74302380D01*
X22607142Y-74302380D01*
X22511904Y-74254761D01*
X22464285Y-74207142D01*
X22416666Y-74111904D01*
X22416666Y-73302380D01*
X21416666Y-74302380D02*
X21988095Y-74302380D01*
X21702380Y-74302380D02*
X21702380Y-73302380D01*
X21797619Y-73445238D01*
X21892857Y-73540476D01*
X21988095Y-73588095D01*
X20940476Y-74302380D02*
X20750000Y-74302380D01*
X20654761Y-74254761D01*
X20607142Y-74207142D01*
X20511904Y-74064285D01*
X20464285Y-73873809D01*
X20464285Y-73492857D01*
X20511904Y-73397619D01*
X20559523Y-73350000D01*
X20654761Y-73302380D01*
X20845238Y-73302380D01*
X20940476Y-73350000D01*
X20988095Y-73397619D01*
X21035714Y-73492857D01*
X21035714Y-73730952D01*
X20988095Y-73826190D01*
X20940476Y-73873809D01*
X20845238Y-73921428D01*
X20654761Y-73921428D01*
X20559523Y-73873809D01*
X20511904Y-73826190D01*
X20464285Y-73730952D01*
X43238095Y-73302380D02*
X43238095Y-74111904D01*
X43190476Y-74207142D01*
X43142857Y-74254761D01*
X43047619Y-74302380D01*
X42857142Y-74302380D01*
X42761904Y-74254761D01*
X42714285Y-74207142D01*
X42666666Y-74111904D01*
X42666666Y-73302380D01*
X42238095Y-73397619D02*
X42190476Y-73350000D01*
X42095238Y-73302380D01*
X41857142Y-73302380D01*
X41761904Y-73350000D01*
X41714285Y-73397619D01*
X41666666Y-73492857D01*
X41666666Y-73588095D01*
X41714285Y-73730952D01*
X42285714Y-74302380D01*
X41666666Y-74302380D01*
X40714285Y-74302380D02*
X41285714Y-74302380D01*
X41000000Y-74302380D02*
X41000000Y-73302380D01*
X41095238Y-73445238D01*
X41190476Y-73540476D01*
X41285714Y-73588095D01*
M02*
